<svg xmlns="http://www.w3.org/2000/svg" width="76" height="73" viewBox="0 0 76 73"><g transform="translate(-11371 -2485)"><g transform="translate(11372.5 2485.755)"><path d="M25.386,13.652A18.907,18.907,0,0,1,30.663,3.427,11.553,11.553,0,0,1,38.183,0l1.332.008A12.912,12.912,0,0,1,49.4,5.419a25.851,25.851,0,0,1,5.02,12.492c-1.353-.179-1.705-1.227-2.066-2.3a8.683,8.683,0,0,1,.851,4.31c-.088.763-.048,1.656-1.092,1.667-1.059.011-.907-.915-.923-1.59-.027-1.144.029-2.144-1.161-2.995-1.214-.869-.416-3.966,1.129-4.734a3.028,3.028,0,0,1-1.612-3.248,1.771,1.771,0,0,0-.427-1.237A11.055,11.055,0,0,1,47.11,4.518a1.2,1.2,0,0,0-2.087-.088c-.334.411-.625.859-.939,1.288-.712.968-.627,1.339.39,1.984a2.163,2.163,0,0,1,.878.795c.246.493.352.995-.44,1.029-.867.037-.75.424-.358.907.9,1.1.328,2.605,1.07,3.755a.579.579,0,0,1-.219.717c-.6.323-.79-.413-1.241-.547-.387.216-.27.613-.294.944a3.748,3.748,0,0,1-.288,1.563,36.838,36.838,0,0,0-2.236,5.966c-.192.536-.456,1.141-1.246.691.5-2.307,1.265-4.552,1.566-6.9.069-.915-.283-1.9.427-2.712a5.273,5.273,0,0,0-.125-3.758c-.029-.165-.059-.331-.088-.493C41.46,7.523,40.3,5.7,39.405,3.766c-.107-.189-.2-.387-.328-.6.091.251.221.456.3.685a1,1,0,0,1,0,.368c-.115,1.1-.152,2.206-1.241,2.926a.757.757,0,0,0-.2,1.165c.416.365.667-.176.921-.443.214-.224.4-.52.766-.4s.358.469.384.776a5.982,5.982,0,0,1,0,1.987c-.187.76-.366,1.621-1.462.835-.443-.317-.646-.072-.745.344a1.63,1.63,0,0,0,.219,1.405,5.6,5.6,0,0,1,.843,3.683c-.008.92-.515,1.584-1.46,1.467-.915-.115-.843.443-.622.824a15.81,15.81,0,0,1,.681,2.539,1.544,1.544,0,0,1,.125.912c-.16.669-.176,1.595-1.065,1.613-.811.016-.744-.84-.838-1.435a2.846,2.846,0,0,0-.144-.648c-.1-.251-.229-.533-.555-.456a.514.514,0,0,0-.358.637c.747,3.192-.846,6.278-.406,9.465a3.9,3.9,0,0,1-.339,2.595c-.115.192-.187.429.045.587s.422-.005.614-.109c.157-.085-.04.019.107-.08.526-.357,1.065-1.072,1.681-.259.579.765-.059,1.291-.592,1.784-1,.923-2.108,1.707-2.546,3.149-.288.955-1.006.973-1.735.256a5.3,5.3,0,0,1-.766-1.235c-.454-.784-.744-1.76-1.932-1.728l.056-.045-.048.053c-.286-1.163-.475-2.27.857-3.006a1.1,1.1,0,0,0,.36-1.213,28.449,28.449,0,0,1-.165-4.646c-.032-1.808-.205-2-1.964-2.035-.31-.008-.622,0-.931-.029-.891-.08-1.54-.416-1.553-1.448a4.56,4.56,0,0,0-.336-1.28c-.131-.421-.475-.893-.3-1.272.843-1.816.155-4.171,1.964-5.63.593-.477.238-.747-.173-.99-.491-.291-1.068-.483-1.145-1.171Z" fill="#009245"/><path d="M58.469,27.749a11.92,11.92,0,0,1,3.728.9c.179,1.173-.7,1.189-1.414,1.152-1.067-.056-1.428.291-1.318,1.379a10.949,10.949,0,0,1-.256,2.768,4.37,4.37,0,0,0-.107,1.715c.363,1.445.246,2.456-1.59,2.563-.542.032-.822.64-.987,1.16A3.879,3.879,0,0,1,52.744,42.2a8.457,8.457,0,0,0-1.841.256c-.486.147-.867.315-1.02.9a1.759,1.759,0,0,1-2.143,1.333c-.817-.12-1.113.157-1.294.9s-.51,1.416-.739,2.133a2.34,2.34,0,0,1-.851.984,28.937,28.937,0,0,0-5.922,6.171c-.841.968-1.177,2.264-2.063,3.2-.112.072-.3.187-.358.128-1.3-1.224-2.757-2.382-3.429-4.056-.6-1.5.531-2.75,1.15-4.032.515-1.061,1.193-2.078,1.046-3.331-.043-.371-.128-.867-.678-.816-.427.04-.563.435-.563.795,0,1.461-.889,2.731-1.043,4.067-.2,1.731-.846,3.63.715,5.312,1.1,1.187.334,2.566-.39,3.768-1.076-1.365-1.332-3.046-1.767-4.654.283-1.421-.1-2.875.208-4.3A22.587,22.587,0,0,1,35.48,41.11c4.227-6.491,9.941-11.006,17.55-12.921.814-.205,1.657-.288,2.487-.427a8.867,8.867,0,0,1,2.944-.008Z" fill="#009245"/><path d="M40.1,23.514c.713.061.827-.453,1.027-.973.673-1.752.793-3.688,1.978-5.286a3.5,3.5,0,0,0,.424-2.31c-.048-.544-.045-1.195.571-1.344.632-.152.371.683.718.923a1.048,1.048,0,0,0,.6.229c-1.033-1.24-.24-2.894-1.121-4.112-.307-.424-.875-.661-.459-1.3s.921-.1,1.43-.037a1.243,1.243,0,0,0-1.057-1.365c-1.767-.28-1.158-1.472-.632-2.061.662-.741.755-2,1.945-2.27,1.006-.229,1.844-.205,2.09,1.1a4.193,4.193,0,0,0,1.318,2.254A2.6,2.6,0,0,1,49.926,9.3a2.222,2.222,0,0,0,1.324,2.6c.256.125.686.219.624.595s-.456.379-.766.355c-.974-.077-1.236.443-1.188,1.307.037.664.011,1.331.011,1.995,0,.429.1.869.579.912,1.011.088,1.051.747,1.025,1.51-.024.664-.008,1.331,0,1.995,0,.36-.005.747.5.781.478.032.822-.216.8-.68-.067-1.341.406-2.736-.51-4a2.672,2.672,0,0,1-.048-2.3c.488,1.344.758,2.8,2.156,3.544-.133.653.39,1.187.336,1.827.214,1.837.043,3.683.088,5.523a.624.624,0,0,1-.4.621,28.485,28.485,0,0,0-13.069,5.56c-.558.437-1.078.92-1.615,1.384-.582-.037-.366-.5-.363-.773a19.589,19.589,0,0,1,.077-3.238,27.811,27.811,0,0,1,.617-5.3Z" fill="#009245"/><path d="M31,46.729c-.582,2.139-1.417,4.118-3.432,5.334a.631.631,0,0,1-.624.048c-.59-.957-.019-2.2-.782-3.128-.176-.216-.176-.747-.582-.5-1.035.629-2.162.381-3.25.48-.384.035-.91.016-.91.555s.526.517.913.544c.71.048,1.425-.021,2.132.037.55.045,1.294-.053,1.289.787a1.407,1.407,0,0,1-1.15,1.446,5.487,5.487,0,0,1-.662.085c-2.14.243-4.233-.368-6.365-.387-1-.008-1.513-.867-1.655-1.824a2.521,2.521,0,0,0-1.441-2.192,1.269,1.269,0,0,1-.627-1.9,2.173,2.173,0,0,1,1.673-.131c1.85.237,3.659.736,5.522.883a10.539,10.539,0,0,0,6-1.229c-4.47,1.088-9.146-.517-13.888-1.12a5.326,5.326,0,0,0-3.52-.248c-.171.107-.342.211-.512.315-.657.424-1.444.275-2.146.493a11.9,11.9,0,0,0-3.373,1.056,24.4,24.4,0,0,1,4.924-.584c1.043,0,2.082-.008,3.122,0a2.043,2.043,0,0,1,1.441.52c.128.989-.678,1.035-1.206.928a6.383,6.383,0,0,0-4.593.821,2.15,2.15,0,0,1-1.041.176c-.544.013-.961.2-1.03.811-.064.552-.045,1.091.558,1.36,1.051.469,1.551,1.709,2.759,1.965A.494.494,0,0,1,8.9,52.5c.048,1.549,1.409,1.848,2.373,2.526-.216.936-1.294.08-1.625.779-.721.568-1.308.144-1.9-.256-.179-.395.256-.624.259-.981.005-.877-.171-1.584-1.278-1.243-1.257.387-2.33-.288-3.485-.491A8.275,8.275,0,0,1,.692,43a10.7,10.7,0,0,1,2.73-3.494,16.423,16.423,0,0,1,7.569-3.952,4.373,4.373,0,0,1,1.057-.005c.6.3.483.744.088,1.045-.83.635-1.572,1.44-2.752,1.483a2.725,2.725,0,0,0-2.535,1.771,3.682,3.682,0,0,1-2.33,1.528,2.01,2.01,0,0,0-.985,2.563.373.373,0,0,0,.451.163,2.255,2.255,0,0,0,.507-.163c1.751-.829,3.694-1.093,5.468-1.845A3.71,3.71,0,0,1,12.047,42c1.212.176,2.421.552,3.643-.08.526-.272.969.083,1.129.608a1.7,1.7,0,0,0,1.6,1.168c1.27.211,2.554.309,3.824.512,1.833.291,3.475-.544,5.252-.957a5.07,5.07,0,0,1-.8-.595c-.512-.587-.28-1.125.358-1.152,1.065-.045,1.6-.365,1.46-1.5-.019-.152.195-.28.374-.336,1.3,1.043,1.588,2.619,2.138,4.059A9.854,9.854,0,0,1,31,46.723Z" fill="#009245"/><path d="M28.892,39.681c.283,1.667-.443,2.371-2.1,2.208-.048-.005-.107.117-.174.2.264.667,1.1.712,1.476,1.344-1.852.373-3.531,1.408-5.5,1.149-1.617-.213-3.24-.389-4.849-.645-.6-.1-1.22-.283-1.2-1.155.013-.512-.424-1-.825-.563-.873.955-1.887.413-2.687.261a5.659,5.659,0,0,0-4.3.539,1.2,1.2,0,0,1-1.145.128c-.214-.088-.488-.179-.616.016-.731,1.12-2.108.779-3.066,1.392-.79.507-.926.008-.857-.661.037-.347.256-.76.136-1.027-.6-1.331.254-1.574,1.225-1.851.355-.1.99.192.913-.808-.053-.7.739.2,1.153-.013a2.283,2.283,0,0,1,2.2-2.275,7.972,7.972,0,0,0,3.264-1.453c.435-.24.291-.581.1-.909,1.07-.675,2.375.019,3.459-.587a8.474,8.474,0,0,1,2.946-.019c1.441.285,2.914.459,4.315.877a11.749,11.749,0,0,1,6.127,3.854Z" fill="#009245"/><path d="M30.69,58.484,31,59.758a10.053,10.053,0,0,1-.069,3.7c-1.409,4.259-4.948,6.064-8.748,7.552-.779.3-1.591.523-2.386.781-1.382.576-1.852-.088-1.871-1.371l-.032.013a26.96,26.96,0,0,1,0-5.606c-.1-4.032,2.893-8.4,6.688-9.054a7.226,7.226,0,0,1,3.819.141c.163,1.389-.766,2.374-1.345,3.472-.448.848-1.022,1.63-1.457,2.491C24.477,63.46,23.444,65.1,22.214,66.6c1.268-1.533,2.34-3.214,3.539-4.8.987-1.488,2.068-2.912,2.912-4.491a1.8,1.8,0,0,1,.721-.733h0c1.017.237,1.043,1.152,1.308,1.9Z" fill="#b2c643"/><path d="M13.914,46.186a1.534,1.534,0,0,0,1.444,1.846c.5.061.667.275.7.755a12.525,12.525,0,0,0,.269,1.691c.149.717.614,1.317,1.329,1.261,2.21-.179,4.361.627,6.568.309.347-.051.734.029.921-.371.144-.315.406-.672.347-.96-.091-.453-.587-.256-.91-.267-.886-.027-1.772-.016-2.661-.008-.608.005-1.044-.163-1.065-.875-.024-.763.387-1.011,1.078-.995.71.016,1.42,0,2.127.005.544.005,1.073.019,1.358-.587.115-.245.32-.467.627-.357a.609.609,0,0,1,.39.637A1.862,1.862,0,0,0,27,49.829a.778.778,0,0,1,.1,1.091c-.323.384-.147.744-.112,1.123a6.349,6.349,0,0,1-3.021,1.587c-1.078.131-1.236.451-.718,1.3a4.624,4.624,0,0,1-2.642.851c-.528.253-.47-.613-.948-.48-.28.277.2.685-.139.963q-1.065,0-2.127,0c-.035-.627-.28-1.032-.99-.848-1.326.341-2.727-.088-4.046.437a.788.788,0,0,1-1.108-.616,1.233,1.233,0,0,0-.937-.429c-.971-.149-1.532-.555-1.484-1.635.037-.808-.627-1.016-1.246-1.107-.48-.072-.841-.12-.9-.715s-.6-.773-1.057-.864C4.232,50.218,5,49.16,4.872,48.461c-.136-.755.681-.947,1.057-.859a3.559,3.559,0,0,0,2.578-.736,3.43,3.43,0,0,1,2.554-.277c.7.176,1.492.427,2.052-.365A.523.523,0,0,1,13.914,46.186Z" fill="#009245"/><path d="M45.406,47.845c.011-1.128.771-2.038.894-3.15.064-.587.488-.693,1.1-.461,1.262.477,1.962-.029,2.066-1.405.035-.461.3-.456.678-.579a19.435,19.435,0,0,1,3.5-.552,2.561,2.561,0,0,0,2.263-1.787c.5-1.613,1.268-2.635,3.283-2.176-.942-2.091-.2-3.955-.1-5.822a3.77,3.77,0,0,0,.008-1.027c-.24-1.155.246-1.683,1.438-1.451.822.157,1.393.1,1.647-.787a10.125,10.125,0,0,1,6.688,8.4,4.915,4.915,0,0,0,.294.856,16.481,16.481,0,0,1,0,3.752A25.922,25.922,0,0,1,67.535,47.8c-.168.347-.2.768-.558,1.011A17.237,17.237,0,0,1,64.2,47.09a2.2,2.2,0,0,1-1.492-2.742,3.246,3.246,0,0,1,2.482-2.48,5.956,5.956,0,0,1,1.193-.059c.865.021,1.332-.333,1.31-1.254a13.687,13.687,0,0,0-.211-3.168c-.179-1.045-.259-2.067-1.684-2.331-.881-.163-1.081-.955-.673-1.8a3.8,3.8,0,0,0,.4-.832c.1-.493-.195-.752-.6-.885-.531-.173-.723.152-.779.611a5.521,5.521,0,0,1-.16,1.181,25.76,25.76,0,0,1-1.326,2.539c-1.812,2.907-4.55,4.766-7.4,6.491-2.909,1.763-5.962,3.285-8.762,5.23-.318.221-.657.483-1.094.259Z" fill="#009245"/><path d="M71.82,17.69c-.811,3.726-2.586,6.755-6.151,8.489a6.482,6.482,0,0,1-2.73.4c-.4-.4-.71-.789-1.444-.44a2.783,2.783,0,0,1-2.007-.205.514.514,0,0,1-.528-.181c-.139-.248-.208-.584.091-.661,1.337-.355,2-1.491,2.882-2.371a2.006,2.006,0,0,1,.8-.805,46.3,46.3,0,0,1,5.239-4.475c.614-.283.91-.04,1.006.587a6.941,6.941,0,0,0,.248,1.579,1.022,1.022,0,0,0,.016-1.32c-.149-.291-.238-.576.037-.851.315-.312.766.04.979-.109.285-.2-.205-.48-.2-.792.005-.357.31-.648.184-1.069-1.009.232-2.031.4-2.207,1.7-1.748,1.544-3.365,3.267-5.567,4.216a42.836,42.836,0,0,1-4.961,3.064,8.4,8.4,0,0,1,.945-7.067c.827-.965,1.628-1.973,3.04-2.1a3.774,3.774,0,0,1-2.01,3.643c-.334.165-1.017.28-.753.7.408.656.432,1.595,1.244,1.965a.992.992,0,0,0,1.257-.475,4.536,4.536,0,0,1,1.841-1.544c-.491-.419-1.009-.184-1.449-.323-.312-.1-.6-.213-.648-.576-.056-.429.208-.653.587-.757a9.264,9.264,0,0,1,1.828-.333c.307-.021.683.005.833-.307.179-.373-.224-.52-.424-.728a1.041,1.041,0,0,1-.4-.933c.406-.717.689-1.605,1.844-1.189.3.109.3-.2.379-.4.3-.776.987-.832,1.652-.744.763.1.176.821.44,1.184.334-.085.224-.312.171-.5-.283-.992.294-1.123.987-.859.552.211.979.4,1.348-.213h.526a1.974,1.974,0,0,1,1.1,2.6c-.224.685.286,1.461-.013,2.2Z" fill="#b2c642"/><path d="M15.477,24.328c-.083-.08-.165-.16-.245-.243-.569-1.315.729-.92,1.286-1.261-.371-.429-.606-.685-1.116-.24-.841.739-1.372.581-1.751-.544a2.4,2.4,0,0,0-1.4-1.637c-1.222-.5-1.3-1.035-.5-2.077a3.163,3.163,0,0,1,1.964-1.1c-1.38-.259-1.6.8-2.175,1.331-.9.827-1.254.781-1.833-.347-.1-.512.43-.7.657-1.272a1.76,1.76,0,0,1-2.29-.4,3.236,3.236,0,0,1-.793-.88c-.56-.907-1.169-1.632-2.426-1.285a.838.838,0,0,1-1-.669c.451-.728-.432-1.784.584-2.373,1.182.021,2.308.509,3.5.413a16.69,16.69,0,0,1,2.274.907,12.18,12.18,0,0,1,2,1.515c.291.36.691.464,1.017.064a1.389,1.389,0,0,1,1.788-.339v-.019c.278.693.964.661,1.527.845.1.088.2.176.307.264a.416.416,0,0,1-.107.483c-.726.755-.643,1.16.312,1.533.157.061.3.224.424-.037.494-1.013,1.009-.323,1.422.037,1.057.92,1.447,2.323,2.349,3.363a.634.634,0,0,1,.088.64c-.672,1.349-.181,2.806-.4,4.2-.131.848-.36,1.6-1.22,1.893-.913.309-1.452-.371-1.8-1.027-.542-1.021-1.628-1.168-2.442-1.741Z" fill="#b2c641"/><path d="M28.773,36.358c.4.176.643-.211.95-.256s.883-.488.777.613a4.1,4.1,0,0,0,1.353,2.7.572.572,0,0,0,1.019-.315c.24-1.813,1.775-2.56,2.882-3.643.43-.421.838-.787.323-1.3-.494-.491-.75.155-1.065.395-.4.3-.686.933-1.332.525-.326-.205-.761-.557-.328-.952.753-.691.515-1.544.566-2.363.141-2.187-.328-4.4.643-6.563.336-.752-.123-1.885-.291-2.832-.128-.733-.029-1.491.678-1.651.8-.181.865.7,1.07,1.259a2.1,2.1,0,0,1,.029.264c.1.507-.254,1.443.558,1.344.608-.075.907-1.184.67-1.67-.427-.877-.037-1.931-.779-2.715-.376-.4-.224-1.029-.115-1.541.085-.395.342-.565.8-.309a.872.872,0,0,0,1.393-.723c-.128-1.275.128-2.616-.929-3.736-.627-.664-.3-1.632.072-2.392.27-.549.7-.264.923.1.739,1.195.966.259,1.041-.3a19.953,19.953,0,0,0,.029-2.59c-.526-.147-.536.288-.662.512-.286.509-.726.965-1.249.757-.662-.267-.432-.987-.326-1.539a.98.98,0,0,1,.419-.645A1.715,1.715,0,0,0,38.9,4.617c-.035-.155.2-.368.315-.555.9.952.881,2.221,1.174,3.384a16.156,16.156,0,0,1-.3,3.827q-.252,1.6-.5,3.195c-.179,3.4-1.225,6.619-2.119,9.867q-.192,1.724-.382,3.448a19.021,19.021,0,0,0,0,4.286c.171.811-.123,1.667.283,2.467.208.411-.059.755-.352,1.056A27.39,27.39,0,0,0,33.5,40.268c-.366.595-.643.7-1.185.208a15.37,15.37,0,0,1-3.539-4.1Z" fill="#009245"/><path d="M10.982,32.541H10.7c-.806-1.149-.673-1.605.582-1.976.211-.061.427-.1.641-.152.376-.091.814-.093.929-.587a.293.293,0,0,0-.139-.339c-.512-.211-.63.341-.947.5-1.108.552-1.919,1.947-3.475,1.267v.005c-.331-.56.069-.832.47-1.016.939-.432.648-.9.056-1.341a3.455,3.455,0,0,1-1.7-2.808.818.818,0,0,0-.862-.829c-.723-.013-.734.643-.971,1.083a.62.62,0,0,1-.3.261.885.885,0,0,1-1.046-.493,6.722,6.722,0,0,0-.974-2.678.662.662,0,0,1,.318-1.147c1.134.259,1.871-.845,2.946-.869.31-.008.283-.395.037-.605a7.558,7.558,0,0,0-1.388-1C3.282,19.2,2.9,18.6,3.242,17.3c.2-.747.646-1.1,1.366-.645a6.169,6.169,0,0,1,2.525,2.083A2.646,2.646,0,0,0,9.989,20.2a.665.665,0,0,1,.4.405,1.131,1.131,0,0,1-.662,1.419c-.75.4-.675.941-.259,1.544.387.557.865,1.189,1.495,1.243a2.873,2.873,0,0,1,2.226,1.64c.269.405.6.808,1.19.648a2.112,2.112,0,0,1,1.735.48c.507.317,1.2.5,1.214,1.267.013.893-.87.7-1.438,1.08.568.584,1,.349,1.438-.083.267-.261.563-.461.934-.187a.873.873,0,0,1,.4.923c-.222.9-.822,1.645-1.721,1.549A13.192,13.192,0,0,0,10.982,32.541Z" fill="#b2c641"/><path d="M9.9,20.3c-.528.12-1.236.507-1.548.3a4.288,4.288,0,0,1-1.617-1.821c-.486-1.213-1.777-1.229-2.522-2.027-.3-.325-.6.117-.7.491-.323,1.2.043,1.725,1.58,2.272.232.643,1.2.781,1.206,1.472.005.976-1.113.448-1.529.928-.342.389-.608.933-1.276.533-.6.091-.7.528-.315.819,1.054.787.819,1.875.859,2.918a.189.189,0,0,1,.056.221c-.032.067-.061.1-.091.1a21.4,21.4,0,0,1-2.949-7.5C.8,17.315.433,15.638.284,13.931a.324.324,0,0,1-.051-.123C.2,10.021-.6,10.515,3.513,10.7c1.241.584,2.639.1,3.9.573.406.149.886.1,1.188.5-.128.221-.432.083-.571.283A9.378,9.378,0,0,1,4.3,11.52c-.344.307-.745.141-1.39.027a2.993,2.993,0,0,1,1.124,2.107c.173.347.451.635.835.467C6.059,13.6,6.718,14.1,7.3,15.126c.24.421.464.971,1,1.192.318.808,1.462.907,1.6,1.867.617.891,1.318.861,1.839-.293.6-1.339,1.417-1.288,2.535-.8-.216.517-.627.507-1,.576a2.2,2.2,0,0,0-1.591,1.093c-.27.493-.483,1.128.448,1.291A1.957,1.957,0,0,1,13.921,22a.9.9,0,0,0,.7.872c.467.085.534-.251.528-.677-.011-.664.472-.363.742-.256.512.2,1.18.352,1.14,1.069-.024.427-.4.5-.814.349-.686-.256-1.012.019-.987.736L13.879,23c-1.3-1.1-2.869-1.891-3.942-3.27-.857-.808-1.759-1.563-2.6-2.387.766.789,1.633,1.469,2.4,2.261a.659.659,0,0,1,.176.7Z" fill="#b2c643"/><path d="M25.389,13.652c.376.747,1.358.52,1.828,1.155.406.547,1.166,1.048-.237,1.277-.539.088-1.286,1.59-1.177,2.16.168.856.232,1.6-.691,2.187-.528.336-.286,1.005-.053,1.563.307.741.878,1.381.667,2.328-.142.64.531.736,1,.773.7.056,1.417.021,2.127.021a1.176,1.176,0,0,1,1.329,1.293,40.684,40.684,0,0,0,.219,6.083,1.142,1.142,0,0,1-.963,1.475c-.64.1-.656.672-.558,1.16.088.44.238.853-.1,1.243a24.141,24.141,0,0,1-3.942-10.6,38.6,38.6,0,0,1,.278-11.534,2.456,2.456,0,0,1,.272-.584Z" fill="#009245"/><path d="M58.5,59.522A23.858,23.858,0,0,1,46.23,65.135a25.923,25.923,0,0,1-4.9,0,10.145,10.145,0,0,1-7.94-5.1c.229-.424.553-.355.9-.173a4.89,4.89,0,0,1,1.484,1.3c.334.4.7,1.2,1.313.592.5-.5-.1-.963-.544-1.248-.667-.427-.646-.872-.144-1.4,1.051-1.267,2.268-2.389,3.221-3.742a40.842,40.842,0,0,1,6.768-5.806.734.734,0,0,1,.64-.061c.79.373.382.651.04,1.166-1.286,1.936-3.5,2.776-5.044,4.4a13.89,13.89,0,0,0-1.665,2.054,4.59,4.59,0,0,1-1.6,1.555c-.683.387-.913.88-.117,1.4a1.794,1.794,0,0,1,.918,1.656c-.04.995,1.086,1.072,1.4,1.821.416,1.016,1.244.744,2.039.515a6.078,6.078,0,0,1,1.588-.1c.4-.005.9.12,1.174-.112,2-1.707,4.662-.915,6.867-1.84A6.073,6.073,0,0,0,54.81,60.8c.974-1.04,2.423-1.491,3.234-2.72a.9.9,0,0,1,1.07-.333c.446.328.093.581-.1.821-.232.288-.584.5-.518.949Z" fill="#009245"/><path d="M10.985,32.543c1.094-.651,2.135-1.349,3.555-.819.774.288,1.655-.461,2.554.139.195.131,1.14-.539,1.318-1.253a.661.661,0,0,0-.31-.805c-.35-.176-.424.184-.6.352-.278.259-.462.784-.915.632-.51-.171-1.268-.269-1.254-.981.013-.669.675-.357,1.062-.421.315-.051.63-.04.689-.459a.6.6,0,0,0-.464-.709c-.849-.205-1.452-1.512-2.578-.56-.229.192-.507-.1-.614-.344-.267-.616-1.006-.891-1.137-1.606a.459.459,0,0,0-.552-.427c-1.567.163-2.212-1.008-2.893-2.072-.462-.72-.032-1.227.619-1.435.67-.213.771-.629.718-1.205a5.218,5.218,0,0,1,2.893,2.718q3.231,3.8,6.458,7.6c.886,1.043.883,1.061-.478,1.44-.726.2-1.468.347-2.2.517a18.324,18.324,0,0,1-4.307.037l-1.559-.349Z" fill="#b2c641"/><path d="M36.578,59.285c-.1.3-.745.584,0,.893a2.33,2.33,0,0,1,.67.421,1.065,1.065,0,0,1,.187,1.547c-.5.581-1.057.28-1.47-.2a6.635,6.635,0,0,0-1.847-1.872.729.729,0,0,0-.731-.035l-.072-.045.005-.085a5.862,5.862,0,0,1,.4-1.667c.342-.92.371-1.8-.8-2.262a.927.927,0,0,1-.5-1.221,4.951,4.951,0,0,0-.093-2.995c-.31-.816.44-1.373.694-2.035a7.478,7.478,0,0,0,.625-2.4c.027-.7-.136-1.469.694-1.854.342-.157.811-.179.953.179.291.717.736,1.475.371,2.278-.627,1.376-1.358,2.707-1.983,4.083-.488,1.077-1.094,2.222.59,2.926.214.088.251.611.355.936.165.512.235,1.048,1.054.792.731-.227.627.411.63.824s.083.613.526.411c.475.56-.216.909-.251,1.379Z" fill="#009245"/><path d="M15.468,24.325a3.09,3.09,0,0,1,2.906,1.854c.19.419.617.995,1.257.685a1.4,1.4,0,0,0,.931-1.333,11.851,11.851,0,0,0,.045-2.347,1.875,1.875,0,0,1,.3-1.768c.221-.248.328-.675.128-.861-1.241-1.144-1.468-3.12-3.138-3.91-.382.36.181.709-.176,1.117a23.635,23.635,0,0,1-2.052-1.195c-.534-.381-.507-.845.206-1.016.4-.1.787-.136.966-.571a9.3,9.3,0,0,1,4.289,4.163,11.611,11.611,0,0,1,1.324,3.566,16.189,16.189,0,0,1-.021,4.528c-.094.44-.189.88-.283,1.32-.083.547-.32,1.053-.4,1.605-.051.379-.272.523-.627.261q-1.189-1.344-2.381-2.688c-.611-.717-1.332-1.336-1.932-2.064A5.456,5.456,0,0,1,15.468,24.325Z" fill="#b2c643"/><path d="M58.5,59.521c-.443-.32-.336-.656.016-.944.262-.213.616-.317.745-.675,1.513-1.843,2.506-4.086,4.47-5.592.59-.453,1.238-1.28-.192-1.68-.83-.347-.937-1.032-.854-1.808.291-1.091.969-1.205,1.876-.744.657.648.747,1.79,1.807,2.093a18.894,18.894,0,0,1-3.106,4.534,1.441,1.441,0,0,0-.814,1.011,18.368,18.368,0,0,1-3.95,3.806Z" fill="#009245"/><path d="M4.018,26.5l.032-.32a2.608,2.608,0,0,0,1.148.339c.475,1.021,1.454,1.64,2.018,2.576A2.568,2.568,0,0,0,5.2,26.522c-.067-.835-.147-1.661.987-1.672,1.062-.008,1.361.619,1.329,1.557a1.8,1.8,0,0,0,.963,1.755,5.488,5.488,0,0,1,1,.869c.659.635.574,1.115-.323,1.387-.483.147-.819.3-.851.837A11.166,11.166,0,0,1,4.016,26.5Z" fill="#b2c642"/><path d="M11.239,55.239c.432.264.806.7,1.38.168.342-.32.849-.133,1.284-.168.913-.072,1.863.2,2.73-.288.424-.24.656.048.875.333.283.365.3.707-.128.984l-1.068.328a19.942,19.942,0,0,1-4.547,0c-.95.389-1.308-.8-2.116-.789.128-1.318,1.092-.285,1.588-.565Z" fill="#009245"/><path d="M70.2,12.891c.293.5-.056.739-.416.931a.594.594,0,0,1-.809-.248c-.219-.317-.456-.605-.854-.315-.424.312-.027.536.158.741.312.347.1.565-.16.763-.24.187-.512.44-.83.283-.4-.2-.179-.509-.067-.8.1-.256.435-.568.011-.8a.914.914,0,0,0-.886.131c-.3.168-.731.261-.4.757s.083.651-.387.624c-1.273-.069-1.273-.077-2.034.555-.713.043-1.254-.512-1.945-.547a.278.278,0,0,1,.045-.323C64.293,13.128,67.226,12.9,70.2,12.891Z" fill="#b2c642"/><path d="M3.242,52.835c.331-.091.56-.656,1.009-.184.683.72,1.535.469,2.343.352.579-.083,1.39-.523,1.593.216.2.72.721,1.757-.44,2.328a11.371,11.371,0,0,1-4.5-2.715Z" fill="#009245"/><path d="M15.007,13.887c-.651.027-1.316-.061-1.644.76a.584.584,0,0,1-.993.163c-.56-.877-1.644-1.117-2.2-1.96-.227-.251-.742-.32-.526-.845A11.441,11.441,0,0,1,15.007,13.887Z" fill="#b2c643"/><path d="M23.242,54.932c-.208-.293-.662-.205-.843-.592-.222-.469-.107-.968.339-.891,1.7.291,2.733-1.256,4.243-1.408l.59.021a8.612,8.612,0,0,1-4.331,2.869Z" fill="#009245"/><path d="M8.292,31.253a4.369,4.369,0,0,0,3.5-1.925.9.9,0,0,1,1.134-.392c.387.147.448.5.443.877a.778.778,0,0,1-.763.891c-.264.024-.528.021-.793.051-1.132.123-1.695.6-1.11,1.792a5.709,5.709,0,0,1-2.41-1.291Z" fill="#b2c641"/><path d="M71.818,17.69c-.163-1.037-.771-2.048-.1-3.128.2-.317-.064-.552-.342-.739a1.181,1.181,0,0,1-.638-.933c2.517-.136,2.509-.139,1.991,2.259A5.153,5.153,0,0,1,71.818,17.69Z" fill="#b2c642"/><path d="M66.36,50.175c-1.668.4-1.388-1.048-1.772-1.867a.945.945,0,0,1,0-1.333c.7.736,1.887.837,2.388,1.832a2.906,2.906,0,0,1-.614,1.365Z" fill="#009245"/><path d="M61.925,22.714c-.232,1.149-1.588,1.475-1.892,2.611-.1.395-1.057-.64-1.081.421-.568-.133-.835-.288-.168-.747,1.067-.733,2.095-1.523,3.141-2.288Z" fill="#b3c648"/><path d="M59.487,25.934c.937-.211,2.06.451,2.816-.619.112-.157.315-.109.462.032.4.381-.1.736-.032,1.109-.414.283-.918-.013-1.342.211a3.607,3.607,0,0,1-1.905-.733Z" fill="#b3c648"/><path d="M3.52,10.7c-1.025.2-2.335-.469-3.034.291-.63.685-.035,1.944-.2,2.939-.464-.912-.208-1.9-.283-2.851-.027-.349.157-.645.528-.621C1.529,10.517,2.559,10.21,3.52,10.7Z" fill="#cfd895"/><path d="M61.632,14.648c.008.112.019.224.027.336a.311.311,0,0,1-.264.264l-2.949,2.131A5.837,5.837,0,0,1,61.632,14.648Z" fill="#b6c755"/><path d="M54.44,25.881c.59-1.355.187-2.779.283-4.168.045-.656.021-1.317.027-1.976a21.783,21.783,0,0,1,.2,5.712.406.406,0,0,1-.512.432Z" fill="#009245"/><path d="M19.5,56.264a1.554,1.554,0,0,0-.227-.451c-.451-.429-.342-.792.155-1.019.392-.179.771-.128.873.432a2.191,2.191,0,0,0,.285.555C20.326,56.163,19.848,56.064,19.5,56.264Z" fill="#009245"/><path d="M41.336,65.141q2.45,0,4.9,0A9.684,9.684,0,0,1,41.336,65.141Z" fill="#84705b"/><path d="M39.483,28.813c0,.947-.019,1.893.013,2.838.013.4-.216.877.272,1.173-.28.352-.536.379-.518-.139a12.771,12.771,0,0,1,.232-3.875Z" fill="#7c736d"/><path d="M22.438,27.239q.008-2.264.019-4.528A7.7,7.7,0,0,1,22.438,27.239Z" fill="#dfe7a3"/><path d="M61.391,26.664c.4-.389.894-.144,1.342-.211,1,.171,1.948-.28,2.936-.272-1.348.851-2.824.565-4.275.483Z" fill="#cbd684"/><path d="M28.589,56.308c-.083.008-.166.013-.246.016-.083-.64-.582-.541-1-.547-.918-.008-1.836,0-2.754.005,1.132-.589,2.338-.2,3.509-.245C28.6,55.518,28.589,55.942,28.589,56.308Z" fill="#dae598"/><path d="M12.539,32.893q2.154-.02,4.307-.037A7.732,7.732,0,0,1,12.539,32.893Z" fill="#d2dd8f"/><path d="M16.534,14.718c-.787.219-1.647.568-1.532-.845A2.424,2.424,0,0,1,16.534,14.718Z" fill="#b2c643"/><path d="M9.641,12.006l.526.845c-.79-.053-1.39-.621-2.135-.8a.615.615,0,0,1,.571-.283C8.952,11.827,9.363,11.619,9.641,12.006Z" fill="#b2c642"/><path d="M31.769,50.955c-.091,1.432.222,2.883-.208,4.3C31.55,53.817,31.259,52.366,31.769,50.955Z" fill="#978771"/><path d="M37.085,32.057a8.3,8.3,0,0,1,0-4.286Q37.087,29.916,37.085,32.057Z" fill="#009245"/><path d="M17.931,70.428c.168,1.078.734,1.611,1.871,1.368C18.046,72.583,17.872,72.457,17.931,70.428Z" fill="#ced88d"/><path d="M42.233,13.948c-.032-.277-.064-.555-.1-.829a6.708,6.708,0,0,0-.168-2.974c.475.085.486.453.472.811a8.388,8.388,0,0,1-.208,2.995Z" fill="#9b918b"/><path d="M40.1,7.231a8.513,8.513,0,0,1,.272,2.686c-.139.44.085.957-.291,1.344q.008-2.016.019-4.032Z" fill="#ada299"/><path d="M16.82,25.674a5.249,5.249,0,0,1,1.932,2.064A4.812,4.812,0,0,1,16.82,25.674Z" fill="#d7e19e"/><path d="M30.93,63.464q.036-1.852.069-3.7A4.9,4.9,0,0,1,30.93,63.464Z" fill="#dae59e"/><path d="M21.133,30.427c.891-.32.47-1.36,1.022-1.864a3.715,3.715,0,0,1-.3,1.872c-.139.536-.48.576-.718-.005Z" fill="#dfe8aa"/><path d="M62.45,55.717c-.382-.861-.158-1.235.814-1.011A1.373,1.373,0,0,1,62.45,55.717Z" fill="#009245"/><path d="M31,46.73c.011-1,.019-1.995.029-2.99A3.713,3.713,0,0,1,31,46.73Z" fill="#84796f"/><path d="M39.509,3.532l-.288.272a4.216,4.216,0,0,1-.83-1.6A2.317,2.317,0,0,1,39.506,3.53Z" fill="#978576"/><path d="M39.925,52.264a2.538,2.538,0,0,1-2.258,1.715c-.766.024-.819-.293-.817-.824s-.128-1.128.723-1.11c.358.008.753-.037.985.275.512.691.894.149,1.366-.053Z" fill="#009245"/><path d="M37.12,55.078c-.005.355-.035.835-.44.813-.544-.029-.456-.645-.579-1.021-.1-.3-.027-.661.408-.635.5.032.6.421.614.845Z" fill="#009245"/><path d="M45.333,16.869c-.136.352-.24.757-.753.752-.4-.005-.534-.261-.5-.611a.7.7,0,0,1,.811-.669c.318.013.478.181.44.528Z" fill="#009245"/><path d="M29.212,46.174a1.162,1.162,0,0,1,.91,1.213.93.93,0,0,1-1.078.893c-.638-.032-.745-.5-.72-1.024A1.179,1.179,0,0,1,29.212,46.174Z" fill="#009245"/><path d="M13.109,44.268l-.123.035-.123-.035c-1.148-.293-2.346.125-3.488-.24,1.268-.251,2.549-.736,3.736.24Z" fill="#009245"/><path d="M9.374,44.029c1.158.152,2.354-.267,3.488.24q-1.889,0-3.776,0c.1-.077.192-.157.291-.235Z" fill="#86796f"/><path d="M5.321,42.991c-.35-.085-.867.149-.883-.347a.734.734,0,0,1,.809-.688c.376.019.851.141.843.627C6.082,43.1,5.58,42.9,5.321,42.991Z" fill="#009245"/><path d="M25.3,61.855c.179.333.416.1.635.064A60.893,60.893,0,0,1,21.9,67.36l-.264-.181Q23.474,64.518,25.3,61.855Z" fill="#e7f0a3"/><path d="M46.938,49.535c.093-.059.184-.117.278-.179a2.466,2.466,0,0,0,1.529-.68,3.054,3.054,0,0,1,2.143-.9,1.076,1.076,0,0,0,1.03-.48,5.669,5.669,0,0,1,4.521-2.512,3.4,3.4,0,0,0,2.527-1.736,9.281,9.281,0,0,1,2.151-2.307c1.108.008.761.805.761,1.408,0,.373-.2.965.326.965.6,0,.39-.648.435-1.051.094-.821-1-1.136-.843-1.984.374-.592.843-.859,1.516-.459.211.136.4.477.667.293a.875.875,0,0,0,.155-1.205,2.544,2.544,0,0,1,.368-3.062c.28-.264.731-.467.931-.157.576.891,1.545,1.125,2.359,1.621a13.6,13.6,0,0,1,.251,4.208c.013.811-.592.821-1.206.869-.814.064-1.671-.269-2.437.312-1.97,1.5-1.911,3.075.192,4.472v1.333c-.611-.059-1.425-.715-1.6.533-.016,1.109-.5,1.605-1.671,1.88a3.352,3.352,0,0,0-2.434,2.584c-.179.739-.355,1.365-1.222,1.528-.312.059-.6.245-.534.64s.419.421.726.453c1.046.112,1.831-.051,1.9-1.387.075-1.461.555-2.691,2.274-3,.694-.125.966-1.059,1.764-1.1,1.148.261,1.34.653.651,1.56-.947,1.245-2.317,2.1-3.165,3.459-.558.893-.731,2.144-2.02,2.445a1.134,1.134,0,0,0-1.065.413,12.418,12.418,0,0,1-4.363,3.47A8.889,8.889,0,0,1,48.6,63c-.451-.061-1.012-.216-1.348.293a2.714,2.714,0,0,1-2.706,1.021,3.861,3.861,0,0,0-2.324.363c-.545.344-.918-.019-1.252-.395-.144-.163-.216-.389-.366-.541-.8-.816-1.631-1.59-1.561-2.9.013-.245-.422-.392-.7-.541-.937-.491-1-1.312-.077-1.731a5.29,5.29,0,0,0,2.066-1.973,9.687,9.687,0,0,1,3.984-3.675,2.513,2.513,0,0,0,1.494-1.435A2.015,2.015,0,0,1,47,50.3c.715-.309-.091-.5-.059-.763Z" fill="#009245"/><path d="M67.8,37.114c-.275-.117-.526-.272-.857-.117-.627.291-.937.005-1.129-.608-.179-.568-.478-1.072-1.214-.608-.448-.531-.384-1.315-.9-1.813a.53.53,0,0,1,.08-.544c.005-.355.005-.709.016-1.064.016-.475-.117-1.027.443-1.291.534-.251.9.165,1.326.384.907.461.456.965.12,1.5-.833,1.333-.686,1.8.878,2,1.513.2.683,1.528,1.23,2.163Z" fill="#009245"/><path d="M61.532,35.354c-.443-.157-.406-.528-.392-.872.011-.3.019-.7.44-.643a.7.7,0,0,1,.579.765A.83.83,0,0,1,61.532,35.354Z" fill="#009245"/><path d="M61.395,15.247l.264-.264c.859-.648,1.286.216,1.871.533a1.088,1.088,0,0,0,.75,1c.376.147.635.309.555.752a.733.733,0,0,1-.87.632,10.053,10.053,0,0,0-2.226.283c-.278.037-.558.083-.531.437.019.264.254.312.483.355.67.125,1.729-.365,1.938.3.278.891-1.089.576-1.457,1.179a9.188,9.188,0,0,1-.886,1.152c-.326.379-.67.691-1.257.435-.486-.213-1.059-.277-1.033-1a.964.964,0,0,0-.406-.923c-.977-.645-.448-1.224.254-1.347C60.914,18.413,60.837,16.626,61.395,15.247Z" fill="#b2c642"/><path d="M67.989,17.629c.037-.195.045-.379-.184-.467A2.7,2.7,0,0,1,70.425,15c.4.021.632.181.342.571-.438.581-.694,1.093.083,1.629a.471.471,0,0,1-.048.712c-.288.277-.467-.016-.656-.173-.24-.2-.488-.477-.779-.123-.24.3.08.472.243.651a.9.9,0,0,1,.291.84c-.107.411-.165,1.021-.665,1.005-.483-.016-.392-.824-.52-.939-.5-.448.8-1.712-.723-1.541Z" fill="#b2c642"/><path d="M58.445,22.953c-.016.224-.04.451-.318.5a.331.331,0,0,1-.416-.365.482.482,0,0,1,.347-.5c.3-.083.36.139.39.373Z" fill="#b2c642"/><path d="M4.037,13.651c-.371-.4-.312-1.069-.918-1.363-.3-.147-.731-.453-.432-.949.371-.616.646.019.969.091.211.048.432.059.648.085-.347.68.339,1.485-.267,2.134Z" fill="#b2c642"/><path d="M9.906,18.181c-.35-.781-1.527-.851-1.6-1.867.528.184.859,1.192,1.655.339a.608.608,0,0,1,.918.2c.181.419-.123.667-.5.771a.569.569,0,0,0-.47.557Z" fill="#b2c642"/><path d="M7.8,12.852c.344.029.771-.021.707.507-.051.411-.379.552-.761.539s-.7-.173-.7-.595c0-.525.44-.413.761-.451Z" fill="#b2c642"/><path d="M3.5,22.448c1-.035,1.428-1.174,2.469-1.227.318-.016.115-.485-.163-.68a1.279,1.279,0,0,1-.7-1.024,3.475,3.475,0,0,1,.518.392c.419.472,1.406.579,1.265,1.355-.149.824-1.049.541-1.652.7C4.653,22.11,4.354,23.24,3.5,22.448Z" fill="#b2c642"/><path d="M1.843,11.865c-.149.341-.2.6.064.8,1.441,1.1,1.15,2.616.843,4.024-.28,1.288-.662,2.48.44,3.579a.9.9,0,0,1-.016,1.219c-.1.152-.232.333-.411.248-.411-.2-.865-.541-.814-.968C2.11,19.4.941,18.108,1.84,16.676a1.533,1.533,0,0,0-.275-1.757c-.9-.867-.737-1.928-.726-2.974,0-.36-.155-.915.478-.883.51.024.6.437.528.805Z" fill="#b2c641"/><path d="M10.116,19.534a.49.49,0,0,0-.5.272l-2.9-3.1c.016-.029.035-.059.051-.088Z" fill="#e8f1ab"/><path d="M10.832,22.29a1.331,1.331,0,0,1,.761.816c.048.232-.206.371-.44.371-.494,0-.691-.309-.7-.763C10.45,22.484,10.5,22.276,10.832,22.29Z" fill="#b2c641"/><path d="M21.572,28.018c-.061.339-.259.651-.561.645a.7.7,0,0,1-.659-.805.556.556,0,0,1,.6-.563c.432.019.512.4.619.725Z" fill="#b2c641"/><path d="M63.793,50.442a5.255,5.255,0,0,1-2.7,1.83c-1.033.269-.825,1.528-1.022,2.4-.12.525.205,1.229-.547,1.478a3.985,3.985,0,0,1-2.594-.005c-.371-.131-.352-.576-.326-.939.035-.472.31-.779.766-.739.913.08,1.025-.381,1.137-1.171a3.568,3.568,0,0,1,2.775-2.955c1-.248,1.476-.608,1.711-1.5-.051.691-.059,1.363.8,1.6Z" fill="#009245"/><path d="M5.142,26.45A2.9,2.9,0,0,1,7.752,29.3c-.005.224-.016.451-.275.536-.238.08-.542-.011-.566-.2-.16-1.323-1.916-1.733-1.769-3.19Z" fill="#b2c641"/><path d="M61.131,40.842c-.8,1.016-1.583,2.04-2.389,3.048A4.547,4.547,0,0,1,56,45.2c-1.4.365-3.336.307-3.7,2.419-.1.571-.617.437-.974.435a3.179,3.179,0,0,0-2.679,1.091,1,1,0,0,1-1.422.216,46,46,0,0,1,6.432-3.894,29.1,29.1,0,0,0,6.856-4.651.509.509,0,0,1,.622.032Z" fill="#009245"/><path d="M62.987,36.239c.63-.648.336-1.629.843-2.323.971.328.715,1.16.766,1.864-.406.989-.878,1.955-.053,3,.174.219.053.68.04,1.027-.016.387-.195.7-.609.728-.491.029-.681-.309-.715-.755a10.14,10.14,0,0,0-1.017-1.859q.372-.84.742-1.68Z" fill="#009245"/><path d="M61.13,40.844l-.622-.032.838-1.056c.318-.152.467.035.585.288.339.875,1.412,1.395,1.1,2.619-.152.6-.326,1.085-.921,1.037-.646-.051-.742-.656-.675-1.216.069-.584.7-1.261-.307-1.64Z" fill="#009245"/><path d="M61.928,40.042l-.584-.288c.3-.613.6-1.224.9-1.838,1.147.179,1.054,1.035,1.017,1.859C62.734,39.45,62.358,39.882,61.928,40.042Z" fill="#009245"/><path d="M47.515,53.684a2.963,2.963,0,0,1-2.5,2.619c-.774.029-1.652-.2-1.879.941a.409.409,0,0,1-.528.285.561.561,0,0,1-.392-.491c-.035-.269-.045-.539.262-.675.955-.424,1.457-1.544,2.69-1.605.59-.029.56-.816.753-1.291.219-.539.542-.968,1.169-.848s.344.707.424,1.061Z" fill="#009245"/><path d="M58.887,46.145c.462.221,1.4-.387,1.385.664a1.22,1.22,0,0,1-1.564,1.2,8.53,8.53,0,0,0-3.248.011c-.432.085-.977-.016-.889-.651.064-.448.181-1.005.878-.928a17.919,17.919,0,0,0,3.437-.3Z" fill="#009245"/><path d="M48.533,52.3c-.667.019-1.228-.021-1.273-.84-.045-.837.539-.784,1.068-.749a1.288,1.288,0,0,0,1.481-.816,1.314,1.314,0,0,1,.515-.565,1.521,1.521,0,0,1,1.513-.093c.267.128.24.464.187.717-.155.72-.763.485-1.188.467a1.114,1.114,0,0,0-1.292,1.008C49.425,51.975,49.2,52.457,48.533,52.3Z" fill="#009245"/></g><rect width="76" height="73" transform="translate(11371 2485)" fill="none"/></g></svg>