<svg width="242" height="209" viewBox="0 0 242 209" fill="none" xmlns="http://www.w3.org/2000/svg">
<path d="M27.3906 112.892C29.3634 113.847 30.9118 116.138 32.7399 117.354C36.3382 119.751 36.8977 119.187 41.0025 120.547C43.7133 121.444 48.286 125.081 52.7863 124.333C57.4603 123.557 62.8433 121.217 67.498 122.114L67.6379 121.613C67.6379 121.613 56.047 112.033 53.0468 110.721C50.0466 109.409 45.3871 108.507 41.8563 109.805C38.3255 111.102 37.7226 113.022 34.621 113.032C31.5195 113.037 30.2992 112.829 28.9824 112.733C27.6656 112.631 27.3906 112.892 27.3906 112.892Z" fill="#EBEBEB"/>
<path d="M67.4955 122.114C54.3659 112.819 46.2817 119.229 32.7518 114.743C31.1118 114.198 29.5104 113.547 27.9766 112.766C32.7084 114.849 37.8117 115.906 42.9535 116.118C44.6659 116.2 46.3782 116.157 48.1002 116.118C55.1232 115.833 61.9967 117.608 67.4955 122.118V122.114Z" fill="#E0E0E0"/>
<path d="M49.5078 116.433C48.0752 115.671 46.4256 114.889 45.0171 114.06C43.1987 112.907 41.631 111.238 39.4219 110.818C41.9976 110.818 43.7871 112.835 45.8805 114.026C47.0912 114.788 48.4177 115.516 49.5078 116.433Z" fill="#E0E0E0"/>
<path d="M58.4062 117.773C56.4864 117.537 54.4509 117.797 52.8688 118.926C52.3768 119.264 52.0054 119.828 51.5134 120.296C50.5583 121.256 49.2512 121.912 47.8958 121.984C46.5596 122.1 45.2428 121.946 43.9453 121.733C44.6013 121.733 45.2573 121.762 45.9133 121.748C48.2961 121.825 50.3316 121.159 51.8462 119.249C53.4428 117.474 56.2066 117.17 58.411 117.778L58.4062 117.773Z" fill="#E0E0E0"/>
<path d="M60.9966 118.496C56.8243 115.621 53.6746 111.285 48.8125 109.457C53.9495 110.677 57.2584 115.12 60.9966 118.496Z" fill="#E0E0E0"/>
<path d="M228.018 81.1489C225.939 82.5959 224.584 85.49 222.722 87.2072C219.046 90.5933 218.308 90.0482 213.866 92.3394C210.933 93.854 206.37 98.827 201.098 98.7836C195.623 98.7402 189.054 97.0423 183.907 98.9042L183.656 98.3591C183.656 98.3591 195.16 85.3357 198.344 83.3002C201.532 81.2598 206.688 79.3931 210.952 80.2372C215.216 81.0862 216.249 83.1651 219.789 82.6152C223.33 82.0653 224.685 81.6071 226.171 81.255C227.656 80.9029 228.018 81.1489 228.018 81.1489Z" fill="#EBEBEB"/>
<path d="M183.908 98.9043C189.441 92.764 196.85 89.5564 204.963 88.6013C206.935 88.3408 208.894 88.0804 210.838 87.6752C216.674 86.4983 222.308 84.3663 227.32 81.1152C225.704 82.2825 223.991 83.3051 222.216 84.2167C216.872 86.9468 210.944 88.3649 205.021 89.074C197.023 89.9567 189.595 93.1209 183.898 98.9043H183.908Z" fill="#E0E0E0"/>
<path d="M203.408 89.1742C203.393 89.1356 203.48 89.0681 203.519 89.0247L203.668 88.8703C203.852 88.687 204.392 88.1854 204.59 88.0021C205.337 87.3461 206.384 86.4248 207.136 85.7978C209.312 84.0661 210.981 81.4518 213.909 80.9453C211.444 81.7846 209.949 83.9745 208.082 85.6241C207.445 86.1354 206.741 86.6949 206.085 87.1773C205.641 87.5053 204.488 88.3687 204.049 88.6774L203.712 88.9282C203.649 88.9861 203.427 89.1115 203.408 89.179V89.1742Z" fill="#E0E0E0"/>
<path d="M193.497 92.3148C195.904 91.2584 199.097 91.1089 201.229 92.8405C203.361 94.7796 205.71 95.1365 208.474 94.6156C209.222 94.5094 209.964 94.3551 210.712 94.2297C209.265 94.6879 207.794 95.0979 206.245 95.1992C204.692 95.3487 203.091 94.8423 201.837 93.921C201.195 93.482 200.67 92.8984 200.033 92.6042C198.017 91.6057 195.639 91.6829 193.492 92.3196L193.497 92.3148Z" fill="#E0E0E0"/>
<path d="M190.68 93.6068C194.379 89.1113 197.341 83.4534 202.955 81.0898C197.708 84.0177 194.891 89.5358 190.68 93.6068Z" fill="#E0E0E0"/>
<path d="M51.9453 24.4479C53.5274 27.4916 53.3248 31.8086 54.4776 35.0355C56.7495 41.4025 57.9747 41.2192 61.8528 46.7566C64.4092 50.4128 66.7438 59.2398 73.0819 62.515C79.6659 65.9107 88.5991 68.0089 93.5914 73.4836L94.2329 72.9868C94.2329 72.9868 88.6569 50.1523 86.1246 45.7051C83.5923 41.2578 78.5903 35.7687 72.9516 34.0997C67.313 32.4308 64.7613 34.2686 60.8736 31.3841C56.981 28.4948 55.6449 27.096 54.0869 25.7358C52.529 24.3756 51.9453 24.4479 51.9453 24.4479Z" fill="#EBEBEB"/>
<path d="M93.5892 73.4789C91.2208 65.7469 86.8942 58.6949 80.8359 53.3312C78.8534 51.5272 76.7262 49.8824 74.5364 48.3389C70.1132 45.2711 65.8637 41.8899 62.1448 37.9684C58.4307 34.0565 55.2327 29.643 52.7969 24.834C55.416 29.5369 58.6622 33.8732 62.4197 37.7031C66.1628 41.5667 70.393 44.8901 74.8113 47.9482C84.0001 54.2814 90.7047 62.5682 93.5892 73.4789Z" fill="#E0E0E0"/>
<path d="M76.3662 49.5544C76.4144 49.6074 76.342 49.4483 76.3469 49.4483C76.3131 49.3663 76.207 49.1396 76.1684 49.0576C75.7295 48.1315 74.9095 46.395 74.4753 45.4496C74.0075 44.456 73.5203 43.3417 73.0814 42.3288C72.3337 40.6068 72.0732 38.6436 71.3256 36.9168C70.7709 35.5228 70.0233 34.1964 68.9766 33.0918C70.168 34.0565 71.0265 35.3878 71.6681 36.7721C72.5315 38.5038 72.7823 40.3753 73.5203 42.1455C73.9448 43.1681 74.4175 44.2823 74.8226 45.3001C75.2568 46.3998 75.9803 48.1845 76.3324 49.2987L76.371 49.4338L76.3855 49.5013C76.3855 49.5013 76.3999 49.5737 76.371 49.5447L76.3662 49.5544Z" fill="#E0E0E0"/>
<path d="M86.256 59.5492C84.124 57.3931 81.3023 55.782 78.2442 55.6856C77.2361 55.647 76.2521 56.0184 75.244 56.1342C73.1747 56.4332 70.9703 56.0473 69.2001 54.9138C67.4154 53.8382 65.896 52.4297 64.4297 51.002C65.2304 51.6435 66.0214 52.2995 66.8414 52.9072C69.9671 55.3672 72.7261 56.3705 76.6814 55.401C80.3135 54.6775 84.0034 56.8143 86.256 59.5492Z" fill="#E0E0E0"/>
<path d="M88.8204 62.871C87.6531 59.0556 86.9971 55.1004 86.2495 51.1885C85.5019 47.3056 84.1416 43.495 82 40.1523C87.137 46.5917 87.0984 55.1631 88.8204 62.871Z" fill="#E0E0E0"/>
<path d="M44.5013 186.242C44.4049 186.3 35.2258 191.63 27.6143 182.673C19.1828 172.756 27.3779 165.916 27.3779 165.916L44.5013 186.242Z" fill="#E0E0E0"/>
<path d="M45.921 184.54C45.921 184.54 43.707 189.629 35.2756 184.468C26.8441 179.311 24.7555 172.539 25.8698 168.733C26.9792 164.928 28.8748 165.617 28.8748 165.617C28.8748 165.617 29.0967 164.527 31.8461 164.267C34.6003 164.006 40.6538 165.207 45.3856 171.989C49.5772 177.994 49.119 183.334 45.921 184.545V184.54Z" fill="#F0F0F0"/>
<path d="M46.0833 184.685C42.3982 183.426 39.3449 180.513 38.3513 176.75C38.0667 175.665 37.9123 174.531 37.5795 173.432C37.2419 172.293 36.6438 171.208 35.872 170.306C35.1244 169.414 34.1789 168.652 33.1998 168.044C31.7527 167.137 30.2574 166.312 28.7188 165.574C30.0742 166.606 31.4633 167.571 32.8043 168.613C34.1066 169.573 35.2835 170.808 36.0119 172.24C37.0393 174.203 36.9573 176.673 37.9847 178.684C39.4848 181.825 42.6635 184.222 46.0833 184.685Z" fill="#E0E0E0"/>
<g opacity="0.3">
<path d="M36.8996 166.707C37.2179 166.687 37.4929 166.851 37.7533 167.015C40.5461 168.766 43.2473 170.787 45.1188 173.455C46.6189 175.601 47.5209 178.235 47.3039 180.748C47.164 182.349 45.3841 183.314 43.9226 182.508C43.8744 182.484 43.8261 182.455 43.7827 182.426C41.9739 181.283 41.2793 179.05 40.9803 176.995C40.6764 174.94 40.5944 172.77 39.4801 170.971C38.7373 169.765 37.5942 168.843 36.6922 167.739C36.5089 167.512 36.3208 167.223 36.4655 166.957C36.5475 166.803 36.7211 166.716 36.9044 166.707H36.8996Z" fill="white"/>
</g>
<g opacity="0.3">
<path d="M34.7213 165.539L34.8033 165.592C35.1409 165.848 35.0782 166.465 34.6972 166.649C34.3161 166.832 33.7952 166.494 33.8048 166.075C33.8145 165.65 34.3499 165.342 34.7213 165.544V165.539Z" fill="white"/>
</g>
<g opacity="0.3">
<path d="M27.4672 167.856V167.846C27.7422 167.263 28.4464 167.031 29.0349 167.292C30.9691 168.15 32.9853 169.641 34.196 171.29C34.5433 171.763 34.8617 172.279 34.8472 172.887C34.8424 173.114 34.7797 173.34 34.6542 173.529C34.2491 174.141 33.4821 174.083 32.8358 173.943C31.5624 173.673 30.3035 173.215 29.2761 172.419C28.2486 171.618 27.4624 170.451 27.3129 169.158C27.2598 168.719 27.2888 168.261 27.4672 167.861V167.856Z" fill="white"/>
</g>
<path opacity="0.3" d="M31.9111 180.153C34.646 182.85 38.1334 184.745 41.9005 185.498L42.7109 185.652C42.9858 185.686 43.2559 185.729 43.5309 185.773C43.2559 185.777 42.9762 185.782 42.6964 185.777C38.5193 185.633 34.3855 183.53 31.9062 180.148L31.9111 180.153Z" fill="white"/>
<path d="M174.166 30.3516C174.157 30.4721 173.052 42.1547 160.101 43.2448C145.766 44.4506 144.883 32.6861 144.883 32.6861L174.166 30.3516Z" fill="#E0E0E0"/>
<path d="M173.546 27.9798C173.546 27.9798 176.696 33.2422 166.639 37.5062C156.582 41.7701 149.154 39.2957 146.443 35.8517C143.732 32.4029 145.57 31.144 145.57 31.144C145.57 31.144 144.73 30.2468 146.264 27.6035C147.798 24.9602 152.771 20.2863 161.912 20.3924C170.006 20.484 174.515 24.3284 173.541 27.9798H173.546Z" fill="#F0F0F0"/>
<path d="M173.783 27.9305C170.286 30.4339 165.699 31.3069 161.681 29.7827C160.519 29.3389 159.405 28.7505 158.203 28.3453C156.964 27.916 155.604 27.7617 154.296 27.8726C153.013 27.9691 151.725 28.3308 150.549 28.8228C148.802 29.5415 147.1 30.3567 145.445 31.2635C147.244 30.7088 149.005 30.0818 150.799 29.5415C152.502 28.9868 154.364 28.7215 156.125 28.9916C158.546 29.3293 160.721 30.9886 163.186 31.3552C166.973 32.0256 171.174 30.704 173.783 27.9305Z" fill="#E0E0E0"/>
<g opacity="0.3">
<path d="M151.715 24.6275C151.903 24.3285 152.231 24.1886 152.544 24.0584C155.916 22.674 159.466 21.5405 163.069 21.5791C165.963 21.608 168.911 22.4907 171.033 24.3044C172.384 25.4572 172.109 27.6808 170.44 28.4767C170.387 28.5008 170.329 28.5249 170.276 28.549C168.086 29.4414 165.635 28.631 163.59 27.5795C161.55 26.528 159.543 25.2112 157.214 25.0568C155.651 24.9507 154.088 25.3848 152.516 25.4861C152.192 25.5054 151.811 25.4861 151.667 25.1871C151.58 25.0134 151.614 24.8012 151.72 24.6324L151.715 24.6275Z" fill="white"/>
</g>
<g opacity="0.3">
<path d="M149.269 25.832L149.365 25.7934C149.814 25.6535 150.325 26.1069 150.243 26.5651C150.161 27.0234 149.529 27.279 149.153 26.9944C148.777 26.7098 148.844 26.0345 149.264 25.8271L149.269 25.832Z" fill="white"/>
</g>
<g opacity="0.3">
<path d="M146.682 33.8493V33.8348C146.325 33.2174 146.566 32.436 147.179 32.0743C149.195 30.8829 151.829 30.0339 154.091 30.005C154.737 29.9953 155.403 30.0436 155.943 30.4487C156.141 30.5983 156.305 30.8009 156.397 31.0324C156.686 31.7945 156.141 32.4408 155.601 32.9377C154.539 33.912 153.319 34.7465 151.94 35.1565C150.56 35.5665 149.007 35.5231 147.748 34.8285C147.324 34.5921 146.928 34.2786 146.682 33.8541V33.8493Z" fill="white"/>
</g>
<path opacity="0.3" d="M160.602 37.7568C164.793 37.0622 168.753 35.1424 171.835 32.2194C172.226 31.8528 172.757 31.3029 173.123 30.9219C172.95 31.1727 172.771 31.4235 172.588 31.6695C169.752 35.3113 165.227 37.6651 160.602 37.7568Z" fill="white"/>
<path d="M194.842 182.081C194.842 182.187 194.683 192.562 183.347 194.424C170.797 196.489 169.195 186.181 169.195 186.181L194.837 182.076L194.842 182.081Z" fill="#E0E0E0"/>
<path d="M194.126 180.04C194.126 180.04 197.271 184.458 188.704 188.92C180.138 193.381 173.419 191.717 170.79 188.871C168.161 186.026 169.695 184.786 169.695 184.786C169.695 184.786 168.894 184.053 170.061 181.617C171.229 179.181 175.285 174.714 183.345 174.169C190.484 173.687 194.724 176.755 194.126 180.044V180.04Z" fill="#F0F0F0"/>
<path d="M194.33 179.977C191.422 182.427 187.443 183.517 183.796 182.456C182.74 182.147 181.717 181.708 180.627 181.433C179.503 181.144 178.292 181.1 177.149 181.289C176.025 181.462 174.911 181.872 173.913 182.388C172.422 183.141 170.98 183.98 169.586 184.897C171.129 184.279 172.639 183.604 174.188 183.006C175.649 182.398 177.27 182.036 178.842 182.147C181.003 182.273 183.034 183.589 185.233 183.739C188.619 184.062 192.227 182.61 194.335 179.981L194.33 179.977Z" fill="#E0E0E0"/>
<g opacity="0.3">
<path d="M174.654 178.606C174.799 178.331 175.079 178.181 175.344 178.046C178.219 176.59 181.272 175.345 184.446 175.123C186.998 174.945 189.655 175.519 191.652 176.971C192.926 177.897 192.834 179.87 191.421 180.69C191.373 180.719 191.329 180.743 191.281 180.767C189.409 181.707 187.195 181.162 185.324 180.381C183.452 179.6 181.591 178.577 179.526 178.601C178.142 178.616 176.791 179.108 175.417 179.305C175.132 179.344 174.794 179.354 174.645 179.103C174.558 178.953 174.572 178.765 174.654 178.611V178.606Z" fill="white"/>
</g>
<g opacity="0.3">
<path d="M172.586 179.843L172.668 179.804C173.054 179.65 173.537 180.011 173.498 180.426C173.459 180.836 172.919 181.101 172.567 180.88C172.22 180.658 172.229 180.055 172.586 179.843Z" fill="white"/>
</g>
<g opacity="0.3">
<path d="M170.864 187.087V187.077C170.507 186.556 170.667 185.852 171.178 185.49C172.871 184.299 175.133 183.368 177.125 183.18C177.694 183.127 178.288 183.122 178.789 183.44C178.978 183.561 179.132 183.725 179.228 183.922C179.537 184.574 179.098 185.181 178.659 185.654C177.791 186.585 176.773 187.405 175.587 187.868C174.4 188.326 173.025 188.394 171.868 187.868C171.477 187.69 171.106 187.439 170.86 187.082L170.864 187.087Z" fill="white"/>
</g>
<path opacity="0.3" d="M183.406 189.557C187.038 188.621 190.381 186.658 192.913 183.884L193.454 183.281C193.622 183.069 193.791 182.862 193.97 182.654C193.835 182.891 193.7 183.122 193.555 183.354C191.331 186.783 187.487 189.185 183.406 189.552V189.557Z" fill="white"/>
<path d="M204.744 67.4386C204.682 67.4676 198.565 70.0385 194.562 63.8789C190.129 57.0585 195.753 53.4746 195.753 53.4746L204.744 67.4338V67.4386Z" fill="#E0E0E0"/>
<path d="M205.754 66.4984C205.754 66.4984 203.974 69.4745 199.165 65.6061C194.352 61.7376 193.599 57.3772 194.593 55.1053C195.586 52.8335 196.705 53.4123 196.705 53.4123C196.705 53.4123 196.927 52.7563 198.654 52.8142C200.381 52.872 204.037 54.0972 206.43 58.6795C208.547 62.7361 207.838 66.0064 205.759 66.5032L205.754 66.4984Z" fill="#F0F0F0"/>
<path d="M205.846 66.5991C203.661 65.5283 202.002 63.4783 201.689 61.0665C201.597 60.3719 201.592 59.6581 201.476 58.949C201.356 58.2158 201.071 57.4971 200.666 56.8749C200.275 56.2623 199.749 55.7173 199.19 55.259C198.365 54.5789 197.507 53.9519 196.609 53.373C197.367 54.1207 198.148 54.8297 198.901 55.5822C199.629 56.2816 200.261 57.1402 200.598 58.0856C201.081 59.3831 200.83 60.9073 201.307 62.2338C201.988 64.2983 203.767 66.0395 205.846 66.5942V66.5991Z" fill="#E0E0E0"/>
<g opacity="0.3">
<path d="M201.595 54.7285C201.793 54.743 201.952 54.8684 202.101 54.989C203.693 56.2961 205.208 57.7625 206.148 59.5665C206.906 61.0184 207.253 62.721 206.92 64.2597C206.708 65.2437 205.526 65.6971 204.682 65.0797C204.653 65.0604 204.629 65.0363 204.6 65.017C203.568 64.1633 203.317 62.7259 203.298 61.4284C203.274 60.1308 203.394 58.7803 202.849 57.5792C202.483 56.7737 201.851 56.108 201.378 55.3556C201.281 55.2012 201.19 55.0035 201.301 54.8539C201.363 54.7671 201.479 54.7237 201.59 54.7333L201.595 54.7285Z" fill="white"/>
</g>
<g opacity="0.3">
<path d="M200.335 53.8339L200.378 53.8725C200.566 54.0558 200.479 54.432 200.229 54.5188C199.978 54.6008 199.684 54.3548 199.722 54.0895C199.761 53.8291 200.118 53.6796 200.335 53.8339Z" fill="white"/>
</g>
<g opacity="0.3">
<path d="M195.656 54.6875C195.868 54.3402 196.326 54.2534 196.669 54.4608C197.802 55.1457 198.931 56.231 199.548 57.3501C199.727 57.6684 199.881 58.0157 199.823 58.3919C199.804 58.5318 199.746 58.6669 199.655 58.773C199.351 59.1203 198.883 59.0238 198.492 58.8839C197.725 58.6138 196.982 58.2328 196.408 57.6539C195.834 57.0751 195.444 56.2937 195.453 55.4785C195.453 55.2036 195.506 54.9238 195.656 54.6875Z" fill="white"/>
</g>
<path opacity="0.3" d="M197.43 62.6641C199.248 64.7768 201.52 66.2527 204.183 67.0727C201.399 66.957 198.66 65.1626 197.43 62.6641Z" fill="white"/>
<path d="M45.4832 80.2308C45.377 80.2694 34.992 84.0703 28.8131 73.5021C21.9686 61.8003 31.6156 56.2773 31.6156 56.2773L45.4832 80.2308Z" fill="#E0E0E0"/>
<path d="M47.243 78.7406C47.243 78.7406 44.0499 83.5545 36.3419 76.734C28.634 69.9136 27.7224 62.5916 29.5553 58.8871C31.3882 55.1827 33.2018 56.2342 33.2018 56.2342C33.2018 56.2342 33.6263 55.1585 36.4963 55.3901C39.3663 55.6216 45.3571 57.9514 48.9747 65.7654C52.1775 72.6871 50.7449 78.0798 47.243 78.7358V78.7406Z" fill="#F0F0F0"/>
<path d="M47.3823 78.9195C43.8322 76.9611 41.2275 73.4159 40.8947 69.3786C40.7982 68.2113 40.8465 67.0247 40.7066 65.8382C40.5667 64.6082 40.1471 63.3878 39.52 62.3218C38.9171 61.2703 38.0874 60.3201 37.1903 59.5194C35.8734 58.3232 34.4891 57.2089 33.0469 56.1719C34.2479 57.4742 35.4972 58.7187 36.6838 60.0259C37.8463 61.251 38.8254 62.7222 39.3126 64.3284C40.0072 66.5279 39.4766 69.0458 40.1664 71.2935C41.1359 74.7857 43.9624 77.8197 47.3775 78.9147L47.3823 78.9195Z" fill="#E0E0E0"/>
<g opacity="0.3">
<path d="M41.2329 58.8188C41.5609 58.8574 41.8166 59.0793 42.0529 59.2915C44.5997 61.5972 47.0018 64.1585 48.4344 67.2358C49.5824 69.7103 50.0262 72.5706 49.3461 75.1126C48.912 76.7333 46.9102 77.399 45.5596 76.304C45.5162 76.2703 45.4728 76.2317 45.4294 76.1931C43.7797 74.693 43.4759 72.2812 43.5434 70.1155C43.6061 67.9545 43.9148 65.7116 43.0996 63.6665C42.5546 62.2966 41.5513 61.1389 40.8278 59.8463C40.6782 59.581 40.5432 59.2481 40.7361 59.0021C40.8519 58.8574 41.0448 58.7995 41.2281 58.8237L41.2329 58.8188Z" fill="white"/>
</g>
<g opacity="0.3">
<path d="M39.2193 57.2295L39.2917 57.297C39.5907 57.6202 39.4171 58.2376 38.9926 58.3582C38.5682 58.4788 38.0955 58.0398 38.1823 57.6057C38.2691 57.1716 38.872 56.9545 39.2193 57.2295Z" fill="white"/>
</g>
<g opacity="0.3">
<path d="M31.3506 58.2793L31.3603 58.2696C31.7461 57.7246 32.5082 57.6088 33.0629 57.985C34.8911 59.215 36.6854 61.1107 37.6308 63.0208C37.9009 63.5658 38.1324 64.1543 38.007 64.7765C37.9588 65.0081 37.8575 65.2251 37.6935 65.3988C37.1629 65.9535 36.3912 65.7509 35.7545 65.4952C34.4955 64.9888 33.2897 64.2894 32.3828 63.2812C31.4712 62.2731 30.8827 60.937 30.9599 59.5816C30.9888 59.1234 31.095 58.6603 31.3554 58.2793H31.3506Z" fill="white"/>
</g>
<path opacity="0.3" d="M33.6797 71.6992C35.9853 74.9695 39.2171 77.5501 42.9504 79.002L43.756 79.3059C44.0309 79.3927 44.301 79.4795 44.576 79.576C44.2914 79.5326 44.0068 79.4843 43.7222 79.4265C39.4679 78.51 35.6187 75.6063 33.6797 71.6992Z" fill="white"/>
<path d="M214.121 149.033H126.936C125.378 149.033 124.109 147.764 124.109 146.206V19.2133C124.109 17.6553 125.378 16.3867 126.936 16.3867H214.121C215.679 16.3867 216.947 17.6553 216.947 19.2133V146.206C216.947 147.764 215.679 149.033 214.121 149.033ZM126.936 16.5073C125.445 16.5073 124.23 17.7228 124.23 19.2133V146.206C124.23 147.697 125.445 148.912 126.936 148.912H214.121C215.611 148.912 216.827 147.697 216.827 146.206V19.2133C216.827 17.7228 215.611 16.5073 214.121 16.5073H126.936Z" fill="#E0E0E0"/>
<path d="M113.585 149.033H26.4047C24.8467 149.033 23.5781 147.764 23.5781 146.206V19.2133C23.5781 17.6553 24.8467 16.3867 26.4047 16.3867H113.585C115.143 16.3867 116.411 17.6553 116.411 19.2133V146.206C116.411 147.764 115.143 149.033 113.585 149.033ZM26.4047 16.5073C24.9142 16.5073 23.6987 17.7228 23.6987 19.2133V146.206C23.6987 147.697 24.9142 148.912 26.4047 148.912H113.585C115.075 148.912 116.291 147.697 116.291 146.206V19.2133C116.291 17.7228 115.075 16.5073 113.585 16.5073H26.4047Z" fill="#E0E0E0"/>
<path d="M241.175 178.49H0V178.611H241.175V178.49Z" fill="#E0E0E0"/>
<path d="M32.6684 185.369H24.9219V185.49H32.6684V185.369Z" fill="#E0E0E0"/>
<path d="M107.992 184.062H82.1719V184.183H107.992V184.062Z" fill="#E0E0E0"/>
<path d="M50.6414 189.85H33.1562V189.97H50.6414V189.85Z" fill="#E0E0E0"/>
<path d="M203.333 183.998H182.5V184.119H203.333V183.998Z" fill="#E0E0E0"/>
<path d="M210.678 183.998H207.625V184.119H210.678V183.998Z" fill="#E0E0E0"/>
<path d="M178.517 187.004H152.523V187.124H178.517V187.004Z" fill="#E0E0E0"/>
<path d="M221.342 206.043C221.342 207.678 176.233 209 120.589 209C64.9453 209 19.8359 207.673 19.8359 206.043C19.8359 204.412 64.9453 203.086 120.589 203.086C176.233 203.086 221.342 204.412 221.342 206.043Z" fill="#F5F5F5"/>
<path d="M104.727 117.994C111.976 127.511 118.261 138.624 120.504 150.48C120.779 152.193 120.972 153.924 121.001 155.656C119.81 142.276 112.184 128.934 104.727 117.994Z" fill="#263238"/>
<path d="M58.5625 62.8558C60.5594 66.951 60.1446 72.6861 61.5627 77.0176C64.3652 85.56 66.0003 85.3526 70.9637 92.8483C74.2389 97.7973 77.0365 109.61 85.3522 114.178C93.9863 118.919 105.789 122.016 112.238 129.459L113.107 128.822C113.107 128.822 106.479 98.2796 103.267 92.2792C100.054 86.2787 93.5955 78.8168 86.1577 76.4051C78.7199 73.9933 75.2663 76.352 70.1968 72.3774C65.1225 68.4077 63.3956 66.4976 61.3698 64.6405C59.3439 62.7835 58.5625 62.8558 58.5625 62.8558Z" fill="#263238"/>
<g opacity="0.2">
<path d="M58.5625 62.8558C60.5594 66.951 60.1446 72.6861 61.5627 77.0176C64.3652 85.56 66.0003 85.3526 70.9637 92.8483C74.2389 97.7973 77.0365 109.61 85.3522 114.178C93.9863 118.919 105.789 122.016 112.238 129.459L113.107 128.822C113.107 128.822 106.479 98.2796 103.267 92.2792C100.054 86.2787 93.5955 78.8168 86.1577 76.4051C78.7199 73.9933 75.2663 76.352 70.1968 72.3774C65.1225 68.4077 63.3956 66.4976 61.3698 64.6405C59.3439 62.7835 58.5625 62.8558 58.5625 62.8558Z" fill="white"/>
</g>
<path d="M112.23 129.459C108.115 115.809 98.9025 103.943 87.7361 95.2606C79.078 88.9756 71.0565 81.586 65.0368 72.6818C63.035 69.7202 61.2455 66.6187 59.6875 63.4062C62.953 69.7491 67.1157 75.6145 71.9536 80.848C74.375 83.4575 76.9363 85.9368 79.6327 88.2666C85.0157 92.9502 91.1705 96.7511 96.0229 102.047C103.398 109.779 109.461 119.079 112.235 129.464L112.23 129.459Z" fill="#263238"/>
<path d="M90.1595 97.0677C84.6801 90.8213 86.5612 81.0826 80.8984 74.9375C81.6605 75.608 82.3069 76.4038 82.8761 77.248C86.7927 83.2725 85.8618 91.2313 90.1595 97.0677Z" fill="#263238"/>
<path d="M102.959 110.695C100.234 107.724 96.5297 105.442 92.4587 105.211C91.1226 105.138 89.7913 105.389 88.4359 105.577C85.701 106.074 82.7972 105.437 80.4916 103.889C78.157 102.418 76.1698 100.517 74.25 98.5879C75.2822 99.4802 76.3 100.387 77.366 101.231C80.4771 103.807 84.196 105.977 88.3732 105.104C89.7141 104.936 91.084 104.69 92.4828 104.781C96.6358 105.042 100.422 107.507 102.964 110.705L102.959 110.695Z" fill="#263238"/>
<path d="M106.256 115.2C105.011 110.049 104.167 104.796 103.318 99.5719C102.45 94.3818 100.762 89.2593 97.9688 84.7734C101.109 89.0808 102.874 94.2757 103.791 99.4947L104.997 107.352C105.3 109.306 105.932 113.251 106.251 115.2H106.256Z" fill="#263238"/>
<path d="M114.711 200.503C115.348 158.143 130.662 116.535 156.241 82.9105L161.909 75.8489L167.88 69.043L162 75.9213L156.429 83.0504C131.096 116.781 115.922 158.254 114.711 200.503Z" fill="#263238"/>
<path d="M189.406 42.0888C185.364 45.6389 178.708 46.9509 174.217 49.9173C165.361 55.7682 166.104 57.5674 159.115 65.5503C154.499 70.8224 141.919 77.6862 139.305 88.5777C136.594 99.8839 135.446 114.403 131.273 124.749C131.273 124.749 163.991 107.688 169.823 102.161C175.65 96.6329 182.142 86.9521 182.571 77.7344C183.001 68.5119 179.243 65.3139 182.185 58.3006C185.128 51.2872 186.763 48.7259 188.249 45.8367C189.734 42.9474 189.406 42.084 189.406 42.084V42.0888Z" fill="#263238"/>
<g opacity="0.1">
<path d="M189.406 42.0888C185.364 45.6389 178.708 46.9509 174.217 49.9173C165.361 55.7682 166.104 57.5674 159.115 65.5503C154.499 70.8224 141.919 77.6862 139.305 88.5777C136.594 99.8839 135.446 114.403 131.273 124.749C131.273 124.749 163.991 107.688 169.823 102.161C175.65 96.6329 182.142 86.9521 182.571 77.7344C183.001 68.5119 179.243 65.3139 182.185 58.3006C185.128 51.2872 186.763 48.7259 188.249 45.8367C189.734 42.9474 189.406 42.084 189.406 42.084V42.0888Z" fill="white"/>
</g>
<path d="M131.656 123.788C141.988 110.61 151.206 96.5645 159.102 81.7997C162.088 76.2768 164.967 70.6671 168.368 65.3757C174.031 56.4764 182.747 50.1431 189.413 42.0879C186.774 45.3438 183.842 48.344 180.919 51.3394C176.563 55.8397 171.966 60.1905 168.706 65.5831C165.348 70.8938 162.483 76.4794 159.526 82.0168C151.616 96.796 142.302 110.828 131.661 123.783L131.656 123.788Z" fill="#263238"/>
<path d="M148.07 100.94C154.563 92.4309 166.322 92.6817 175.762 90.0239C177.156 89.6477 178.521 89.1798 179.862 88.6348C178.564 89.2811 177.204 89.7924 175.83 90.2506C166.453 93.2605 154.982 92.9084 148.07 100.94Z" fill="#263238"/>
<path d="M156.047 88.2933C156.959 84.4682 157.861 80.6142 157.957 76.6734C158.082 73.2681 157.508 69.6456 158.946 66.3994C159.144 65.946 159.346 65.4926 159.554 65.0488C158.835 66.8914 158.372 68.8208 158.333 70.7695C158.309 72.7182 158.512 74.7006 158.439 76.6879C158.295 80.6625 157.335 84.5454 156.047 88.2933Z" fill="#263238"/>
<path d="M164.953 71.8024C166.251 68.561 169.569 66.6316 172.714 65.4933C175.116 64.654 177.518 63.8388 179.544 62.276C180.219 61.7695 180.832 61.1859 181.425 60.5781C180.904 61.2486 180.321 61.8756 179.679 62.4448C177.735 64.1427 175.266 65.1026 172.878 65.9419C169.772 67.1236 166.622 68.7974 164.953 71.8072V71.8024Z" fill="#263238"/>
<path d="M140.534 111.962C142.989 103.56 138.055 95.0078 140.023 86.557C140.187 86.0072 140.355 85.4621 140.529 84.9219C137.987 93.8502 143.804 103.126 140.529 111.962H140.534Z" fill="#263238"/>
<path d="M125.031 141.152C127.076 121.057 125.407 100.586 120.15 81.0801L119.055 77.1875L120.27 81.0463C126.005 100.442 127.703 121.101 125.031 141.152Z" fill="#263238"/>
<path d="M107.704 0C107.356 4.98267 103.821 10.2017 102.798 15.0927C100.777 24.7397 102.446 25.4391 103.054 35.279C103.454 41.7715 99.6386 54.5248 105.036 63.4145C110.636 72.6467 120.153 82.0525 122.198 92.6497L123.375 92.5243C123.375 92.5243 133.808 59.8885 134.045 52.4314C134.276 44.9743 132.236 34.3481 126.491 27.9859C120.751 21.6237 116.178 21.971 113.54 15.4207C110.897 8.87041 110.303 6.11137 109.397 3.23657C108.49 0.361763 107.708 0.00482361 107.708 0.00482361L107.704 0Z" fill="#263238"/>
<g opacity="0.2">
<path d="M107.704 0C107.356 4.98267 103.821 10.2017 102.798 15.0927C100.777 24.7397 102.446 25.4391 103.054 35.279C103.454 41.7715 99.6386 54.5248 105.036 63.4145C110.636 72.6467 120.153 82.0525 122.198 92.6497L123.375 92.5243C123.375 92.5243 133.808 59.8885 134.045 52.4314C134.276 44.9743 132.236 34.3481 126.491 27.9859C120.751 21.6237 116.178 21.971 113.54 15.4207C110.897 8.87041 110.303 6.11137 109.397 3.23657C108.49 0.361763 107.708 0.00482361 107.708 0.00482361L107.704 0Z" fill="white"/>
</g>
<path d="M122.655 92.6018C126.239 77.3547 123.557 61.0851 117.692 46.7497C112.907 36.0415 109.338 24.6339 108.489 12.8791C108.204 8.97203 108.204 5.0457 108.474 1.13867C108.093 8.95274 108.826 16.8006 110.553 24.4217C112.251 32.0573 114.957 39.4228 118.131 46.5615C123.996 60.9693 126.601 77.3644 122.655 92.6018Z" fill="#263238"/>
<path d="M118.975 49.7993C117.224 40.8662 124.348 32.6469 122.298 23.709C122.651 24.7653 122.829 25.8747 122.901 26.989C123.307 34.8513 118.059 41.9032 118.975 49.7993Z" fill="#263238"/>
<path d="M123.666 69.754C122.716 65.437 120.449 61.2261 116.711 58.7757C115.481 57.975 114.077 57.4782 112.688 56.9139C109.808 55.8817 107.43 53.7111 106.075 50.9713C104.662 48.2991 103.813 45.405 103.031 42.5254C103.518 43.9387 103.986 45.3568 104.536 46.7459C106.118 50.9617 108.361 54.9555 112.871 56.4701C114.936 57.2853 117.121 58.2018 118.732 59.8273C121.452 62.4416 123.111 66.0592 123.671 69.7589L123.666 69.754Z" fill="#263238"/>
<path d="M124.336 75.831C125.995 70.2599 128.069 64.8141 130.129 59.3877C132.145 53.9806 133.346 48.1827 133.134 42.3945C133.737 48.202 132.57 54.1012 130.582 59.5565L127.433 67.6841C126.656 69.7052 125.103 73.8003 124.341 75.831H124.336Z" fill="#263238"/>
<path d="M120.711 156.477C129.712 145.291 142.503 137.202 156.4 133.652L159.198 133.016L156.434 133.773C142.706 137.791 130.17 145.74 120.711 156.477Z" fill="#263238"/>
<path d="M200.409 124.747C197.838 125.991 195.822 128.972 193.444 130.559C188.756 133.68 188.027 132.947 182.683 134.717C179.152 135.884 173.2 140.621 167.334 139.647C161.247 138.639 154.234 135.59 148.175 136.757L147.992 136.106C147.992 136.106 163.085 123.633 166.992 121.925C170.899 120.218 176.972 119.041 181.564 120.734C186.161 122.427 186.947 124.925 190.984 124.935C195.021 124.945 196.613 124.675 198.33 124.544C200.047 124.414 200.404 124.752 200.404 124.752L200.409 124.747Z" fill="#263238"/>
<g opacity="0.2">
<path d="M200.409 124.747C197.838 125.991 195.822 128.972 193.444 130.559C188.756 133.68 188.027 132.947 182.683 134.717C179.152 135.884 173.2 140.621 167.334 139.647C161.247 138.639 154.234 135.59 148.175 136.757L147.992 136.106C147.992 136.106 163.085 123.633 166.992 121.925C170.899 120.218 176.972 119.041 181.564 120.734C186.161 122.427 186.947 124.925 190.984 124.935C195.021 124.945 196.613 124.675 198.33 124.544C200.047 124.414 200.404 124.752 200.404 124.752L200.409 124.747Z" fill="white"/>
</g>
<path d="M148.18 136.755C155.367 131.347 164.58 129.003 173.498 129.023C175.741 129.071 177.96 129.124 180.188 129.013C186.874 128.723 193.511 127.329 199.642 124.58C197.645 125.583 195.556 126.418 193.429 127.117C187.018 129.206 180.188 129.736 173.489 129.495C164.637 129.433 155.526 131.69 148.18 136.75V136.755Z" fill="#263238"/>
<path d="M171.602 129.357C175.938 128.041 178.543 123.767 182.85 122.378C183.467 122.194 184.099 122.059 184.736 122.045C179.609 123 176.768 128.518 171.602 129.357Z" fill="#263238"/>
<path d="M160.016 131.108C163.469 130.177 167.154 131.112 169.436 133.939C171.129 135.95 173.796 136.356 176.29 136.312C177.139 136.327 177.993 136.283 178.851 136.264C177.163 136.505 175.446 136.688 173.714 136.524C171.963 136.418 170.246 135.589 169.093 134.272C168.495 133.654 167.936 133.023 167.265 132.545C165.191 131.074 162.519 130.755 160.02 131.103L160.016 131.108Z" fill="#263238"/>
<path d="M156.645 132.048C158.445 130.335 162.072 126.901 163.881 125.198C166.35 122.975 169.273 121.118 172.51 120.273C166.162 122.598 161.971 128.17 156.641 132.048H156.645Z" fill="#263238"/>
<path d="M118.909 163.032C109.45 152.295 96.9134 144.35 83.1857 140.328L80.4219 139.57L83.2195 140.207C97.1208 143.757 109.908 151.846 118.909 163.032Z" fill="#263238"/>
<path d="M39.2188 131.306C41.7897 132.55 43.8059 135.531 46.1839 137.118C50.8723 140.239 51.6007 139.505 56.9451 141.276C60.4759 142.443 66.4281 147.18 72.2935 146.205C78.3807 145.197 85.3941 142.149 91.4524 143.316L91.6357 142.665C91.6357 142.665 76.543 130.191 72.6359 128.484C68.7289 126.776 62.6561 125.599 58.0641 127.292C53.4674 128.985 52.6811 131.484 48.6439 131.494C44.6066 131.503 43.0148 131.233 41.2977 131.103C39.5805 130.973 39.2236 131.31 39.2236 131.31L39.2188 131.306Z" fill="#263238"/>
<g opacity="0.1">
<path d="M39.2188 131.306C41.7897 132.55 43.8059 135.531 46.1839 137.118C50.8723 140.239 51.6007 139.505 56.9451 141.276C60.4759 142.443 66.4281 147.18 72.2935 146.205C78.3807 145.197 85.3941 142.149 91.4524 143.316L91.6357 142.665C91.6357 142.665 76.543 130.191 72.6359 128.484C68.7289 126.776 62.6561 125.599 58.0641 127.292C53.4674 128.985 52.6811 131.484 48.6439 131.494C44.6066 131.503 43.0148 131.233 41.2977 131.103C39.5805 130.973 39.2236 131.31 39.2236 131.31L39.2188 131.306Z" fill="white"/>
</g>
<path d="M91.4463 143.314C84.1001 138.254 74.9885 135.997 66.1374 136.06C59.4375 136.301 52.6075 135.77 46.197 133.682C44.0651 132.982 41.9813 132.148 39.9844 131.145C46.115 133.894 52.7522 135.288 59.4375 135.577C61.666 135.688 63.8896 135.635 66.1277 135.587C75.0464 135.568 84.2593 137.912 91.4463 143.319V143.314Z" fill="#263238"/>
<path d="M68.025 135.914C62.859 135.075 60.018 129.561 54.8906 128.602C55.5273 128.616 56.1592 128.751 56.7766 128.934C61.084 130.324 63.6887 134.597 68.025 135.914Z" fill="#263238"/>
<path d="M79.6044 137.663C77.1106 137.311 74.4336 137.634 72.3595 139.105C71.689 139.582 71.1295 140.214 70.5314 140.832C69.3786 142.144 67.6566 142.973 65.9105 143.084C64.1788 143.248 62.4665 143.065 60.7734 142.824C61.6272 142.843 62.481 142.886 63.3347 142.872C65.8285 142.911 68.4959 142.51 70.1889 140.499C72.4656 137.677 76.1556 136.737 79.6092 137.667L79.6044 137.663Z" fill="#263238"/>
<path d="M82.9787 138.606C77.6487 134.728 73.4619 129.157 67.1094 126.832C70.3459 127.676 73.269 129.533 75.7386 131.757C77.5474 133.455 81.1795 136.894 82.9739 138.606H82.9787Z" fill="#263238"/>
<path d="M201.177 158.655C207.326 157.004 211.236 151.663 209.91 146.726C208.584 141.789 202.525 139.125 196.376 140.776C190.227 142.427 186.317 147.768 187.643 152.705C188.968 157.642 195.028 160.306 201.177 158.655Z" fill="#D8501C"/>
<path opacity="0.7" d="M201.177 158.655C207.326 157.004 211.236 151.663 209.91 146.726C208.584 141.789 202.525 139.125 196.376 140.776C190.227 142.427 186.317 147.768 187.643 152.705C188.968 157.642 195.028 160.306 201.177 158.655Z" fill="white"/>
<path opacity="0.1" d="M204.384 143.064C204.856 144.825 202.729 146.923 199.628 147.757C196.526 148.592 193.632 147.839 193.159 146.079C192.687 144.318 194.814 142.22 197.915 141.385C201.017 140.551 203.911 141.303 204.384 143.064Z" fill="white"/>
<path opacity="0.1" d="M202.98 143.101C203.187 143.873 202.252 144.794 200.896 145.156C199.541 145.518 198.267 145.19 198.06 144.423C197.853 143.651 198.788 142.73 200.144 142.368C201.504 142.001 202.773 142.334 202.98 143.101Z" fill="white"/>
<g opacity="0.3">
<path d="M203.264 156.02C200.958 157.756 197.789 158.282 195.044 157.39C192.3 156.497 190.052 154.206 189.203 151.447C189.203 151.447 191.292 155.171 195.633 156.218C199.853 157.235 203.264 156.025 203.264 156.025V156.02Z" fill="white"/>
</g>
<path d="M207.138 145.92C207.273 147.29 207.669 148.375 208.445 149.513C207.181 148.93 206.545 147.179 207.138 145.92Z" fill="#263238"/>
<path d="M97.9238 70.2657C101.337 66.4595 100.26 59.9284 95.5198 55.6781C90.7795 51.4278 84.1701 51.0677 80.7574 54.8739C77.3447 58.6801 78.421 65.2112 83.1614 69.4615C87.9017 73.7118 94.5111 74.0719 97.9238 70.2657Z" fill="#D8501C"/>
<path opacity="0.7" d="M97.9238 70.2657C101.337 66.4595 100.26 59.9284 95.5198 55.6781C90.7795 51.4278 84.1701 51.0677 80.7574 54.8739C77.3447 58.6801 78.421 65.2112 83.1614 69.4615C87.9017 73.7118 94.5111 74.0719 97.9238 70.2657Z" fill="white"/>
<path opacity="0.1" d="M80.7186 61.4914C81.9342 60.136 84.8572 60.7727 87.2497 62.9144C89.6373 65.056 90.5923 67.8922 89.372 69.2476C88.1565 70.603 85.2334 69.9663 82.841 67.8247C80.4533 65.683 79.4983 62.8468 80.7186 61.4914Z" fill="white"/>
<path opacity="0.1" d="M81.5277 62.6494C82.0583 62.0561 83.3413 62.3358 84.388 63.2716C85.4347 64.2122 85.8495 65.4518 85.3189 66.0499C84.7884 66.6432 83.5053 66.3635 82.4586 65.4277C81.4119 64.4871 80.9971 63.2475 81.5277 62.6494Z" fill="white"/>
<g opacity="0.3">
<path d="M92.1875 55.3594C94.8983 56.3482 97.0689 58.7117 97.8213 61.4997C98.569 64.2877 97.8792 67.4229 96.0318 69.6369C96.0318 69.6369 98.0143 65.8553 96.519 61.6492C95.0671 57.5589 92.1923 55.3642 92.1923 55.3642L92.1875 55.3594Z" fill="white"/>
</g>
<path d="M81.6094 57.6284C82.6802 56.7698 83.3796 55.8389 83.9054 54.5703C84.1079 55.9498 82.9889 57.4355 81.6094 57.6284Z" fill="#263238"/>
<path d="M147.284 56.8422C150.569 57.9564 152.108 62.1818 150.714 66.277C149.324 70.3721 145.533 72.7839 142.248 71.6648C138.964 70.5458 137.425 66.3252 138.819 62.2301C140.208 58.1349 143.999 55.7232 147.284 56.8422Z" fill="#D8501C"/>
<path opacity="0.7" d="M147.284 56.8422C150.569 57.9564 152.108 62.1818 150.714 66.277C149.324 70.3721 145.533 72.7839 142.248 71.6648C138.964 70.5458 137.425 66.3252 138.819 62.2301C140.208 58.1349 143.999 55.7232 147.284 56.8422Z" fill="white"/>
<path opacity="0.1" d="M143.143 58.584C144.315 58.9795 144.696 60.9764 143.992 63.0409C143.292 65.1053 141.773 66.4559 140.601 66.0556C139.429 65.6552 139.048 63.6631 139.752 61.5986C140.451 59.5342 141.971 58.1836 143.143 58.584Z" fill="white"/>
<path opacity="0.1" d="M142.632 59.3936C143.144 59.5673 143.313 60.4403 143.004 61.3472C142.695 62.2492 142.029 62.8424 141.518 62.6688C141.007 62.4952 140.838 61.6221 141.147 60.7153C141.455 59.8085 142.121 59.22 142.632 59.3936Z" fill="white"/>
<g opacity="0.3">
<path d="M150.024 64.1113C150.13 66.0697 149.233 68.0521 147.689 69.2628C146.146 70.4735 144.009 70.8787 142.133 70.3143C142.133 70.3143 145.022 70.5411 147.251 68.4862C149.416 66.4893 150.024 64.1113 150.024 64.1113Z" fill="white"/>
</g>
<path d="M145.797 58.1113C146.699 58.4634 147.355 58.6226 148.315 58.7287C147.538 59.3365 146.202 59.0037 145.797 58.1113Z" fill="#263238"/>
<path d="M67.4786 180.443C74.6085 180.131 80.1859 175.241 79.9361 169.518C79.6863 163.796 73.7038 159.41 66.5739 159.722C59.444 160.033 53.8666 164.924 54.1164 170.646C54.3662 176.368 60.3487 180.754 67.4786 180.443Z" fill="#D8501C"/>
<path opacity="0.7" d="M67.4786 180.443C74.6085 180.131 80.1859 175.241 79.9361 169.518C79.6863 163.796 73.7038 159.41 66.5739 159.722C59.444 160.033 53.8666 164.924 54.1164 170.646C54.3662 176.368 60.3487 180.754 67.4786 180.443Z" fill="white"/>
<path opacity="0.1" d="M65.4685 168.292C69.0614 168.135 71.9018 166.355 71.8128 164.317C71.7238 162.278 68.7391 160.752 65.1462 160.909C61.5533 161.066 58.7128 162.846 58.8018 164.885C58.8908 166.923 61.8756 168.449 65.4685 168.292Z" fill="white"/>
<path opacity="0.1" d="M60.3056 164.461C60.3441 165.353 61.6513 166.024 63.2286 165.956C64.8011 165.889 66.0455 165.107 66.0069 164.215C65.9683 163.322 64.6612 162.652 63.0839 162.72C61.5114 162.787 60.267 163.568 60.3056 164.461Z" fill="white"/>
<g opacity="0.3">
<path d="M64.3594 178.357C67.4126 179.433 70.9724 178.926 73.606 177.045C76.2396 175.164 77.87 171.956 77.841 168.725C77.841 168.725 76.8667 173.408 72.5786 175.989C68.4111 178.497 64.3594 178.357 64.3594 178.357Z" fill="white"/>
</g>
<path d="M56.8161 168.871C57.8339 170.038 57.747 172.079 56.6328 173.15C57.1152 171.698 57.1779 170.357 56.8161 168.871Z" fill="#263238"/>
<path d="M62.9 112.817C64.7179 110.19 63.5387 106.225 60.2662 103.96C56.9937 101.695 52.8672 101.988 51.0493 104.614C49.2315 107.24 50.4107 111.205 53.6831 113.471C56.9556 115.736 61.0822 115.443 62.9 112.817Z" fill="#D8501C"/>
<path opacity="0.7" d="M62.9 112.817C64.7179 110.19 63.5387 106.225 60.2662 103.96C56.9937 101.695 52.8672 101.988 51.0493 104.614C49.2315 107.24 50.4107 111.205 53.6831 113.471C56.9556 115.736 61.0822 115.443 62.9 112.817Z" fill="white"/>
<path opacity="0.1" d="M51.5505 108.716C52.1968 107.78 54.0635 107.944 55.7132 109.088C57.3628 110.231 58.1731 111.914 57.5268 112.85C56.8804 113.786 55.0138 113.622 53.3641 112.478C51.7145 111.335 50.9041 109.652 51.5505 108.716Z" fill="white"/>
<path opacity="0.1" d="M52.137 109.367C52.4216 108.957 53.2367 109.03 53.9603 109.531C54.6838 110.033 55.0407 110.771 54.7561 111.181C54.4716 111.591 53.6564 111.518 52.9329 111.017C52.2093 110.515 51.8524 109.777 52.137 109.367Z" fill="white"/>
<g opacity="0.3">
<path d="M58.1875 104.014C59.9481 104.414 61.4771 105.712 62.1621 107.38C62.847 109.049 62.6637 111.051 61.6894 112.566C61.6894 112.566 62.6203 110.062 61.3662 107.573C60.1458 105.147 58.1923 104.014 58.1923 104.014H58.1875Z" fill="white"/>
</g>
<path d="M51.7969 106.244C52.3226 105.511 52.6169 104.995 52.9835 104.17C53.3549 105.009 52.7085 106.138 51.7969 106.244Z" fill="#263238"/>
<path d="M153.007 99.6708C153.089 99.8493 160.793 117.069 143.447 128.525C124.235 141.216 113.672 125.404 113.672 125.404L153.007 99.666V99.6708Z" fill="#D8501C"/>
<path opacity="0.3" d="M153.007 99.6708C153.089 99.8493 160.793 117.069 143.447 128.525C124.235 141.216 113.672 125.404 113.672 125.404L153.007 99.666V99.6708Z" fill="black"/>
<path d="M150.368 96.3385C150.368 96.3385 158.92 101.283 148.097 115.155C137.273 129.027 124.871 131.357 118.36 128.622C111.848 125.887 113.449 122.675 113.449 122.675C113.449 122.675 111.563 122.062 111.66 117.142C111.756 112.222 115.099 101.75 128.05 94.7467C139.52 88.5485 148.873 90.4297 150.368 96.3337V96.3385Z" fill="#D8501C"/>
<path opacity="0.3" d="M150.37 96.1884C147.418 102.42 141.693 107.215 134.896 108.213C132.933 108.503 130.922 108.546 128.925 108.918C126.86 109.289 124.839 110.128 123.103 111.305C121.386 112.444 119.861 113.953 118.598 115.555C116.712 117.918 114.97 120.388 113.359 122.944C115.443 120.764 117.416 118.516 119.509 116.36C121.458 114.262 123.855 112.434 126.523 111.435C130.169 110.017 134.486 110.644 138.22 109.236C144.027 107.22 148.875 102.102 150.375 96.1836L150.37 96.1884Z" fill="black"/>
<g opacity="0.3">
<path d="M118.487 123.678L118.477 123.668C117.961 123.224 118 122.289 118.521 121.584C120.238 119.264 122.669 116.959 124.936 115.7C125.582 115.343 126.272 115.025 126.923 115.145C127.164 115.189 127.381 115.309 127.531 115.502C128.023 116.129 127.647 117.094 127.232 117.89C126.421 119.467 125.409 120.986 124.13 122.163C122.847 123.335 121.27 124.131 119.818 124.102C119.326 124.093 118.844 123.982 118.487 123.678Z" fill="white"/>
</g>
<path opacity="0.3" d="M113.599 119.497C113.468 112.898 116.522 106.406 121.553 102.161C122.271 101.563 123.014 100.998 123.786 100.473C123.434 100.781 123.082 101.085 122.725 101.384C117.448 105.952 114.081 112.522 113.594 119.501L113.599 119.497Z" fill="white"/>
<path opacity="0.3" d="M126.398 98.7775C127.257 97.8659 128.294 97.2292 129.5 96.8867C128.641 97.7984 127.604 98.4302 126.398 98.7775Z" fill="white"/>
<path opacity="0.3" d="M132.942 111.992C137.997 112.064 143.004 110.024 146.569 106.45C147.017 106.001 147.62 105.316 148.021 104.834C147.823 105.138 147.625 105.442 147.418 105.746L146.742 106.609L145.995 107.415C142.647 110.805 137.684 112.624 132.938 111.987L132.942 111.992Z" fill="white"/>
<path d="M116.45 136.793C116.46 136.957 117.352 152.604 100.48 156.646C81.7934 161.123 78.2578 145.77 78.2578 145.77L116.45 136.793Z" fill="#D8501C"/>
<path opacity="0.3" d="M116.45 136.793C116.46 136.957 117.352 152.604 100.48 156.646C81.7934 161.123 78.2578 145.77 78.2578 145.77L116.45 136.793Z" fill="black"/>
<path d="M115.153 133.789C115.153 133.789 120.372 140.103 107.952 147.758C95.5313 155.413 85.2235 153.642 80.9547 149.639C76.6859 145.635 78.8565 143.6 78.8565 143.6C78.8565 143.6 77.5686 142.582 79.0639 138.786C80.5592 134.99 86.1786 127.817 98.2711 126.115C108.974 124.61 115.703 128.773 115.153 133.794V133.789Z" fill="#D8501C"/>
<path opacity="0.3" d="M115.456 133.678C111.342 137.691 105.467 139.765 99.8523 138.559C98.2316 138.212 96.6399 137.657 94.9709 137.363C93.2441 137.049 91.4208 137.112 89.7182 137.527C88.0396 137.913 86.4141 138.651 84.9574 139.533C82.7964 140.831 80.7175 142.254 78.7109 143.783C80.9732 142.688 83.1727 141.506 85.4349 140.431C87.5717 139.36 89.9738 138.631 92.3566 138.631C95.6221 138.588 98.8249 140.344 102.158 140.334C107.295 140.455 112.572 137.869 115.461 133.678H115.456Z" fill="black"/>
<g opacity="0.3">
<path d="M85.6659 133.759C85.854 133.325 86.2544 133.074 86.6451 132.838C90.8174 130.33 95.2791 128.121 100.04 127.445C103.87 126.9 107.936 127.474 111.1 129.442C113.116 130.696 113.198 133.687 111.158 135.071C111.091 135.115 111.023 135.158 110.956 135.201C108.24 136.822 104.844 136.243 101.936 135.269C99.027 134.295 96.1136 132.959 93.0073 133.219C90.9235 133.393 88.9459 134.285 86.8911 134.729C86.4666 134.82 85.9602 134.873 85.7093 134.502C85.5598 134.29 85.5646 134.005 85.6707 133.759H85.6659Z" fill="white"/>
</g>
<g opacity="0.3">
<path d="M82.6686 135.843L82.7892 135.771C83.3487 135.501 84.1205 135.993 84.106 136.615C84.0916 137.237 83.3053 137.7 82.7555 137.401C82.2056 137.107 82.1573 136.196 82.6686 135.839V135.843Z" fill="white"/>
</g>
<g opacity="0.3">
<path d="M80.8694 146.947L80.8549 146.932C80.2713 146.185 80.4305 145.104 81.1636 144.506C83.585 142.528 86.8939 140.874 89.87 140.382C90.719 140.242 91.6113 140.165 92.4072 140.594C92.7014 140.753 92.9571 140.985 93.1211 141.274C93.6565 142.22 93.0632 143.189 92.4554 143.946C91.2496 145.447 89.8073 146.792 88.0709 147.617C86.3344 148.437 84.2748 148.693 82.4708 148.027C81.863 147.8 81.2746 147.463 80.8694 146.956V146.947Z" fill="white"/>
</g>
<path opacity="0.3" d="M100.036 149.301C105.472 147.637 110.344 144.275 113.788 139.751C114.222 139.186 114.806 138.342 115.191 137.754C115.003 138.116 114.815 138.477 114.617 138.839C111.535 144.164 106.09 148.144 100.031 149.301H100.036Z" fill="white"/>
<path d="M135.523 171.598C135.523 171.762 135.788 187.255 118.949 190.583C100.306 194.263 97.4219 178.953 97.4219 178.953L135.523 171.602V171.598Z" fill="#D8501C"/>
<path opacity="0.3" d="M135.523 171.598C135.523 171.762 135.788 187.255 118.949 190.583C100.306 194.263 97.4219 178.953 97.4219 178.953L135.523 171.602V171.598Z" fill="black"/>
<path d="M134.36 168.578C134.36 168.578 139.266 175.022 126.691 182.094C114.116 189.165 103.997 187.004 99.9352 182.875C95.8738 178.746 98.1022 176.826 98.1022 176.826C98.1022 176.826 96.8723 175.77 98.4978 172.075C100.128 168.38 105.965 161.516 117.98 160.32C128.621 159.259 135.098 163.639 134.36 168.578Z" fill="#D8501C"/>
<path opacity="0.3" d="M134.662 168.481C130.436 172.282 124.547 174.101 119.048 172.687C117.461 172.277 115.908 171.67 114.268 171.308C112.575 170.927 110.766 170.922 109.068 171.26C107.395 171.573 105.759 172.239 104.283 173.054C102.094 174.25 99.9808 175.572 97.9453 177.005C100.227 176.011 102.446 174.93 104.722 173.961C106.874 172.987 109.281 172.364 111.63 172.456C114.861 172.543 117.953 174.405 121.248 174.525C126.317 174.848 131.637 172.504 134.657 168.477L134.662 168.481Z" fill="black"/>
<g opacity="0.3">
<path d="M105.227 167.37C105.429 166.951 105.839 166.714 106.23 166.502C110.451 164.192 114.951 162.185 119.683 161.703C123.489 161.317 127.482 162.045 130.531 164.114C132.475 165.431 132.436 168.388 130.362 169.681C130.295 169.724 130.227 169.763 130.155 169.801C127.405 171.292 124.072 170.587 121.241 169.507C118.405 168.427 115.578 166.994 112.501 167.129C110.436 167.221 108.444 168.021 106.394 168.378C105.975 168.451 105.468 168.484 105.232 168.108C105.097 167.891 105.106 167.611 105.222 167.37H105.227Z" fill="white"/>
</g>
<g opacity="0.3">
<path d="M102.179 169.317L102.3 169.254C102.864 169.008 103.607 169.524 103.568 170.142C103.53 170.759 102.734 171.179 102.203 170.865C101.673 170.552 101.658 169.65 102.179 169.317Z" fill="white"/>
</g>
<g opacity="0.3">
<path d="M99.9467 180.216L99.9371 180.201C99.3872 179.439 99.5898 178.378 100.342 177.814C102.812 175.957 106.15 174.452 109.111 174.08C109.955 173.974 110.843 173.936 111.61 174.389C111.895 174.558 112.136 174.794 112.29 175.088C112.782 176.043 112.16 176.979 111.528 177.703C110.279 179.135 108.798 180.409 107.047 181.152C105.296 181.894 103.251 182.063 101.495 181.33C100.902 181.084 100.337 180.727 99.9564 180.206L99.9467 180.216Z" fill="white"/>
</g>
<path opacity="0.3" d="M118.797 183.306C124.233 181.878 129.182 178.743 132.766 174.416C133.219 173.876 133.827 173.065 134.237 172.496C134.039 172.848 133.837 173.2 133.629 173.548C130.378 178.689 124.831 182.408 118.797 183.306Z" fill="white"/>
<path d="M98.9545 112.853C98.8821 112.93 91.9459 120.387 82.4581 114.285C71.9574 107.532 77.5671 98.9707 77.5671 98.9707L98.9496 112.848L98.9545 112.853Z" fill="#D8501C"/>
<path opacity="0.3" d="M98.9545 112.853C98.8821 112.93 91.9459 120.387 82.4581 114.285C71.9574 107.532 77.5671 98.9707 77.5671 98.9707L98.9496 112.848L98.9545 112.853Z" fill="black"/>
<path d="M99.7828 110.894C99.7828 110.894 99.1702 116.18 89.9959 113.797C80.8216 111.415 77.0159 105.781 76.9773 101.98C76.9339 98.174 78.8681 98.2801 78.8681 98.2801C78.8681 98.2801 78.7668 97.219 81.222 96.2109C83.6771 95.2028 89.5666 94.6143 95.7986 99.5246C101.317 103.871 102.387 108.897 99.7876 110.898L99.7828 110.894Z" fill="#D8501C"/>
<path opacity="0.3" d="M99.9729 110.985C96.2395 110.859 92.6267 109.036 90.6684 105.862C90.104 104.945 89.6458 103.947 89.0332 103.031C88.4062 102.08 87.5524 101.251 86.5925 100.638C85.6568 100.026 84.5811 99.5914 83.5103 99.3068C81.9282 98.8775 80.3268 98.5399 78.7109 98.2891C80.24 98.8582 81.7835 99.3551 83.3077 99.9387C84.7693 100.46 86.1922 101.26 87.263 102.375C88.7535 103.889 89.3709 106.18 90.871 107.738C93.1235 110.203 96.7122 111.515 99.9729 110.985Z" fill="black"/>
<g opacity="0.3">
<path d="M86.5286 97.0441C86.8132 96.938 87.1171 97.0152 87.4017 97.0923C90.4501 97.922 93.4986 99.0217 95.9537 100.951C97.9314 102.499 99.4894 104.67 99.991 107.034C100.309 108.543 98.9443 109.928 97.3767 109.59C97.3236 109.58 97.2754 109.566 97.2223 109.551C95.2447 109.006 93.9857 107.154 93.1368 105.35C92.2879 103.546 91.6029 101.578 90.0835 100.242C89.0658 99.3449 87.7586 98.8143 86.6251 98.0522C86.3936 97.893 86.1379 97.6808 86.1958 97.3962C86.2296 97.2322 86.3646 97.102 86.5286 97.0441Z" fill="white"/>
</g>
<g opacity="0.3">
<path d="M84.2119 96.5804L84.2987 96.6045C84.6798 96.7444 84.7955 97.328 84.4965 97.603C84.1974 97.8779 83.6282 97.7139 83.5173 97.3232C83.4112 96.9325 83.8115 96.4984 84.2119 96.5804Z" fill="white"/>
</g>
<g opacity="0.3">
<path d="M78.2004 100.726V100.711C78.2873 100.104 78.8709 99.6937 79.4787 99.7661C81.4949 100.012 83.7571 100.822 85.3296 101.995C85.7782 102.327 86.2171 102.713 86.3714 103.278C86.4293 103.485 86.4341 103.712 86.3714 103.919C86.1689 104.594 85.4502 104.754 84.8183 104.807C83.5738 104.918 82.2908 104.845 81.1235 104.397C79.9562 103.953 78.9095 103.099 78.4127 101.951C78.2439 101.565 78.1377 101.136 78.1956 100.716L78.2004 100.726Z" fill="white"/>
</g>
<path opacity="0.3" d="M85.7109 110.773C88.9764 112.476 92.7002 113.243 96.366 112.891C96.8291 112.852 97.4851 112.761 97.9433 112.693C97.6925 112.78 97.4369 112.857 97.1812 112.934C93.3079 113.976 88.9234 113.2 85.7109 110.773Z" fill="white"/>
<path d="M168.422 119.715C168.489 119.778 175.059 125.75 182.859 119.764C191.493 113.131 185.994 106.104 185.994 106.104L168.422 119.715Z" fill="#D8501C"/>
<path opacity="0.3" d="M168.422 119.715C168.489 119.778 175.059 125.75 182.859 119.764C191.493 113.131 185.994 106.104 185.994 106.104L168.422 119.715Z" fill="black"/>
<path d="M167.562 118.072C167.562 118.072 168.479 122.62 176.278 119.881C184.078 117.141 186.972 111.975 186.731 108.666C186.49 105.357 184.821 105.589 184.821 105.589C184.821 105.589 184.83 104.658 182.626 103.963C180.422 103.268 175.261 103.186 170.201 107.899C165.72 112.076 165.155 116.519 167.557 118.072H167.562Z" fill="#D8501C"/>
<path opacity="0.3" d="M167.403 118.168C170.64 117.787 173.645 115.939 175.116 113.04C175.54 112.201 175.864 111.304 176.332 110.465C176.809 109.592 177.489 108.81 178.275 108.212C179.042 107.614 179.949 107.156 180.856 106.832C182.197 106.345 183.567 105.935 184.951 105.598C183.663 106.201 182.356 106.75 181.078 107.363C179.843 107.923 178.666 108.718 177.817 109.765C176.635 111.188 176.264 113.224 175.073 114.685C173.293 116.991 170.273 118.39 167.398 118.168H167.403Z" fill="black"/>
<g opacity="0.3">
<path d="M178.067 105.078C177.811 105.005 177.555 105.092 177.314 105.179C174.724 106.12 172.158 107.297 170.161 109.154C168.555 110.644 167.358 112.641 167.093 114.734C166.924 116.07 168.212 117.17 169.548 116.765C169.592 116.751 169.635 116.736 169.678 116.722C171.357 116.104 172.317 114.402 172.925 112.776C173.532 111.151 173.986 109.39 175.206 108.117C176.026 107.263 177.126 106.708 178.052 105.96C178.245 105.806 178.448 105.603 178.375 105.357C178.332 105.218 178.206 105.116 178.062 105.073L178.067 105.078Z" fill="white"/>
</g>
<g opacity="0.3">
<path d="M180.052 104.503L179.979 104.532C179.661 104.682 179.603 105.198 179.883 105.415C180.163 105.632 180.645 105.449 180.713 105.101C180.78 104.754 180.394 104.407 180.057 104.508L180.052 104.503Z" fill="white"/>
</g>
<g opacity="0.3">
<path d="M185.587 107.672V107.662C185.467 107.142 184.931 106.823 184.405 106.934C182.674 107.296 180.764 108.164 179.486 109.298C179.119 109.621 178.767 109.987 178.675 110.489C178.641 110.672 178.651 110.87 178.719 111.044C178.945 111.618 179.582 111.7 180.132 111.705C181.222 111.705 182.331 111.555 183.311 111.082C184.295 110.61 185.139 109.794 185.486 108.762C185.607 108.415 185.664 108.034 185.587 107.677V107.672Z" fill="white"/>
</g>
<path opacity="0.3" d="M179.788 116.947C177.048 119.46 172.886 120.478 169.297 119.504C173.006 119.774 176.619 118.896 179.788 116.947Z" fill="white"/>
<path d="M138.43 141.316C138.372 141.476 133.003 156.978 148.844 165.868C166.382 175.713 174.326 161.262 174.326 161.262L138.435 141.316H138.43Z" fill="#D8501C"/>
<path opacity="0.3" d="M138.43 141.316C138.372 141.476 133.003 156.978 148.844 165.868C166.382 175.713 174.326 161.262 174.326 161.262L138.435 141.316H138.43Z" fill="black"/>
<path d="M140.597 138.664C140.597 138.664 133.54 143.531 143.858 154.784C154.175 166.042 165.062 167.2 170.508 164.388C175.953 161.576 174.347 158.909 174.347 158.909C174.347 158.909 175.934 158.253 175.515 153.998C175.095 149.749 171.482 140.922 159.795 135.756C149.443 131.183 141.485 133.455 140.602 138.664H140.597Z" fill="#D8501C"/>
<path opacity="0.3" d="M140.325 138.466C143.325 143.68 148.646 147.447 154.646 147.838C156.378 147.949 158.138 147.847 159.904 148.026C161.732 148.204 163.55 148.788 165.147 149.69C166.724 150.558 168.157 151.764 169.367 153.071C171.171 154.996 172.864 157.022 174.442 159.134C172.479 157.384 170.602 155.565 168.625 153.838C166.782 152.15 164.568 150.727 162.171 150.047C158.891 149.073 155.167 149.922 151.815 148.962C146.61 147.616 142.033 143.506 140.32 138.461L140.325 138.466Z" fill="black"/>
<g opacity="0.3">
<path d="M170.303 147.052C170.24 146.565 169.902 146.194 169.579 145.846C166.097 142.132 162.233 138.63 157.631 136.59C153.932 134.95 149.673 134.366 145.925 135.442C143.532 136.127 142.601 139.113 144.261 141.095C144.314 141.158 144.372 141.225 144.43 141.283C146.701 143.69 150.285 144.076 153.493 143.927C156.7 143.777 160.014 143.261 163.068 144.414C165.117 145.186 166.854 146.647 168.793 147.684C169.193 147.896 169.69 148.094 170.047 147.795C170.255 147.621 170.337 147.337 170.303 147.057V147.052Z" fill="white"/>
</g>
<g opacity="0.3">
<path d="M172.71 150.004L172.609 149.898C172.121 149.464 171.205 149.739 171.041 150.371C170.877 151.003 171.538 151.693 172.175 151.548C172.811 151.408 173.125 150.506 172.71 150V150.004Z" fill="white"/>
</g>
<g opacity="0.3">
<path d="M171.362 161.702L171.377 161.693C172.177 161.109 172.327 159.976 171.758 159.16C169.886 156.479 167.026 153.869 164.17 152.518C163.355 152.133 162.477 151.805 161.556 152.007C161.214 152.084 160.89 152.243 160.644 152.489C159.834 153.29 160.152 154.433 160.553 155.369C161.339 157.221 162.405 158.992 163.924 160.318C165.439 161.64 167.441 162.484 169.447 162.329C170.127 162.276 170.812 162.103 171.367 161.707L171.362 161.702Z" fill="white"/>
</g>
<path opacity="0.3" d="M139.875 143.922C141.814 149.069 145.181 153.646 149.551 156.984C150.096 157.404 150.911 157.973 151.476 158.359C151.123 158.175 150.776 157.992 150.429 157.799C145.287 154.804 141.346 149.7 139.875 143.927V143.922Z" fill="white"/>
</svg>
