<svg xmlns="http://www.w3.org/2000/svg" width="76" height="73" viewBox="0 0 76 73"><g transform="translate(-11370 -2614)"><g transform="translate(11370 2614)"><path d="M72.281,32.162c-1.714.962-3.383,2-5.14,2.861a15.568,15.568,0,0,0-5.876,4.729c-1.332,1.818-2.52,3.741-3.773,5.615-1.479,2.213-2.861,4.5-4.466,6.617a14.09,14.09,0,0,1-6.871,4.9c-1.88.633-3.051.117-3.825-1.72a12.493,12.493,0,0,1,.226-10.333A27.4,27.4,0,0,1,61.257,29a15.379,15.379,0,0,1,6.914-.117,5.065,5.065,0,0,1,4.11,3.279Z" transform="translate(-0.002 -0.001)" fill="#ffff"/><path d="M40.478,33.288c-5.093-.024-9.4-2.1-13.346-5.051-4.274-3.2-7.694-7.116-9.444-12.269a12.655,12.655,0,0,1,.281-9.549,2.551,2.551,0,0,1,3.445-1.544A13.656,13.656,0,0,1,28.5,9.786c1.872,2.509,3.484,5.208,5.215,7.822.848,1.281,1.673,2.58,2.565,3.831A16.618,16.618,0,0,0,42.7,26.826c1.546.744,2.985,1.712,4.473,2.577.573.331.537.731.207,1.237a5.274,5.274,0,0,1-3.724,2.315c-1.045.183-2.115.228-3.176.333Z" transform="translate(-0.001 0)" fill="#ffff"/><path d="M23.5,60.616c-6.219-.411-11.792-3.187-16.689-7.494A19.65,19.65,0,0,1,.168,41.811,5.777,5.777,0,0,1,.993,37.04c.441-.591.87-.859,1.52-.275a27.525,27.525,0,0,1,2.744,2.422c3.031,3.577,7.01,5.373,11.444,6.432,2.957.706,5.922,1.413,8.826,2.3a15.192,15.192,0,0,1,7.822,5.308c1.358,1.772,1.232,3.03-.448,4.453-2.607,2.2-5.684,2.959-9.4,2.934Z" transform="translate(0 -0.001)" fill="#ffff"/><path d="M28.2,0A21.95,21.95,0,0,1,40.1,4.175,26.218,26.218,0,0,1,50.63,17.523a16.631,16.631,0,0,1,.859,6.583c-.192,2.6-1.684,3.731-4.162,2.876-4.688-1.62-8.628-4.289-11.165-8.709-1.311-2.283-2.588-4.586-3.933-6.85A16.549,16.549,0,0,0,23.806,4.1,9.518,9.518,0,0,1,21.63,2.821c-.567-.416-.6-.868.149-1.269A13.006,13.006,0,0,1,28.2,0Z" transform="translate(-0.001 0)" fill="#ffff"/><path d="M52.522,61.835a12.555,12.555,0,0,1-6.23-1.554c-.776-.429-.842-.782-.141-1.315a8.639,8.639,0,0,1,2.1-1.221,16.63,16.63,0,0,0,8.534-7.47c1.205-2.055,2.4-4.117,3.53-6.215,2.336-4.338,6.067-7.033,10.468-8.9C74.255,33.7,76.041,34.95,76,38.719a20.639,20.639,0,0,1-5.112,13.148A26.81,26.81,0,0,1,55.7,61.5a15.586,15.586,0,0,1-1.673.26c-.5.053-1,.051-1.5.075Z" transform="translate(-0.002 -0.001)" fill="#ffff"/><path d="M12.807,29.713c9.83.9,17.58,5.172,22.5,13.934a12.516,12.516,0,0,1,1.43,8.295c-.194,1.2-.62,1.373-1.6.629a7.012,7.012,0,0,1-1.3-1.221c-2.867-3.667-6.765-5.464-11.214-6.34-2.554-.5-5.11-1.015-7.628-1.665C10.7,42.236,7.584,39.4,4.815,36.111a5.072,5.072,0,0,1-.778-1.388,2.409,2.409,0,0,1,.979-3.2c1.752-1.183,3.8-1.418,5.816-1.69.652-.087,1.315-.083,1.972-.122Z" transform="translate(0 -0.001)" fill="#ffff"/></g><rect width="76" height="73" transform="translate(11370 2614)" fill="none"/></g></svg>