<?xml version="1.0" encoding="UTF-8"?>
<svg id="Layer_1" data-name="Layer 1" xmlns="http://www.w3.org/2000/svg" viewBox="0 0 263.59 359.88">
  <defs>
    <style>
      .cls-1 {
        fill: #a67c52;
      }

      .cls-1, .cls-2 {
        stroke-width: 0px;
      }

      .cls-2 {
        fill: #f7931e;
      }
    </style>
  </defs>
  <path class="cls-2" d="M131.95,0c29.07,0,58.13,0,87.2,0,6.68,0,8.9,1.81,8.43,8.35-1.05,14.47,1.86,28.16,6.26,41.84,8.65,26.85,16.09,54.03,21.03,81.87,5.69,32.07,8.68,64.36,8.71,96.92.03,32.87,0,65.75,0,98.62,0,6.16-1.27,7.8-7.31,8.62-25.81,3.49-51.64,6.89-77.46,10.34-24.95,3.34-49.9,6.71-74.86,10.07-8.15,1.1-16.3,2.26-24.47,3.21-1.65.19-3.48-.19-5.1-.73-22.81-7.57-45.59-15.22-68.38-22.85-4.94-1.65-5.91-2.98-5.91-8.13,0-35.87-.3-71.75.11-107.62.62-53.82,9.6-106.34,25.7-157.66,2.43-7.74,4.24-15.69,7.13-23.25,3.84-10.06,2.87-20.39,2.98-30.7C36.09,1.67,37.67,0,44.75,0c29.07,0,58.13,0,87.2,0ZM80.32,167.74c55.34-5.54,110.23-11.04,165.56-16.58-.95-5.88-1.8-11.4-2.75-16.91-5.63-32.68-15.71-64.19-25.13-95.87-.68-2.29-1.96-2.41-3.84-2.4-11.1.05-22.2.02-33.3.02-3.43,0-6.87,0-10.61,0,.53,1.79.88,3.1,1.31,4.39,4.51,13.62,9.07,27.22,13.54,40.85,1.6,4.89-.51,8.27-5.49,8.78-19.34,2.01-38.69,3.96-58.04,5.87-4.42.44-6.39-.97-7.73-5.29-2.02-6.56-3.97-13.13-5.94-19.71-3.47-11.58-6.94-23.16-10.43-34.77h-47.51c13.68,42.97,25.83,86.04,30.36,131.61ZM84.37,299.09c55.75-7.45,111.39-14.89,167.22-22.34-.09-38.02,1.17-75.72-4.22-113.66-55.26,5.54-110.35,11.05-164.49,16.48.5,40.05,1,79.6,1.49,119.53ZM84.14,347.12c55.88-7.47,111.53-14.9,167.27-22.35v-35.9c-55.88,7.47-111.53,14.9-167.27,22.35v35.9ZM71.24,333.07c.24-.11.48-.22.72-.33,0-.87,0-1.74,0-2.61,0-33.98.04-67.96-.01-101.94-.07-43.28-5.35-85.92-15.79-127.91-2.27-9.13-4.91-18.18-7.37-27.26-.26.05-.52.09-.77.14,0,1.33,0,2.66,0,3.98,0,68.59.21,137.18-.22,205.76-.07,10.77,2.01,19.81,8.68,28.26,5.44,6.89,9.88,14.58,14.77,21.91ZM36.03,73.34c-.18-.09-.36-.17-.53-.26-.25.67-.55,1.32-.76,2.01-14.27,47.77-22.02,96.57-22.57,146.44-.34,30.61-.09,61.22-.09,91.83,0,1.03.14,2.07.25,3.62,7.23-6.04,13.93-11.81,20.83-17.32,2.19-1.75,2.92-3.55,2.91-6.31-.07-72.22-.06-144.43-.06-216.65v-3.36ZM109.96,36c4.64,15.48,9.1,30.52,13.74,45.52.25.82,1.99,1.72,2.99,1.66,5.35-.33,10.68-.92,16.01-1.46,9.54-.96,19.07-1.95,28.98-2.97-4.63-13.93-9.1-27.53-13.76-41.06-.28-.82-2.05-1.6-3.13-1.61-8.98-.13-17.96-.07-26.94-.07-5.82,0-11.65,0-17.88,0ZM18.21,327.72c15,4.99,29.35,9.77,43.69,14.54.15-.29.3-.58.45-.87-7.15-10.74-14.3-21.48-21.63-32.49-7.52,6.28-14.75,12.32-22.52,18.82ZM95.62,23.86v-11.68h-47.38v11.68h47.38ZM108.06,23.74h47.43v-11.55h-47.43v11.55ZM167.95,23.8h47.48v-11.53h-47.48v11.53Z"/>
  <path class="cls-1" d="M171.29,245.43c-6.76,11.43-16.25,18.87-28.58,22.58-7.54,2.27-15.15,2.78-22.84.62-16.12-4.53-24.17-19.31-19.2-35.32,6.52-21.02,32.21-35.54,53.45-29.77,5.02,1.36,9.58,4.4,14.45,6.71,4.18-9.59,11.52-16.56,23.07-16.89,5.16-.15,10.76,1,15.5,3.08,19.23,8.46,30.52,32.65,25.05,52.4-4.53,16.33-19.49,24.37-35.58,19.04-10.16-3.37-17.55-10.18-23.17-19.11-.64-1.02-1.3-2.04-2.14-3.34ZM163.01,232.5c-2.02,1.12-3.53,1.96-5.04,2.79-7.29,4.03-15.03,5.29-23.11,3.21-6.7-1.73-12.72-.65-18.59,2.93-5.52,3.37-6.26,5.68-1.64,10.37,2.34,2.37,5.61,4.51,8.79,5.17,4.26.89,8.96.9,13.26.13,12.86-2.3,24.03-12.76,26.33-24.61ZM197.93,204.88c-.3.39-.6.78-.9,1.17,1.13,2.21,2.31,4.4,3.37,6.65,2.92,6.19,4.09,12.87,2.21,19.33-2.49,8.56-.76,15.9,3.75,23.15,1.28,2.05,2.43,2.43,4.5,1.68,5.74-2.08,8.88-6.43,9.98-12.13,2.52-13.05-2-23.91-11.52-32.62-3.27-2.99-7.57-4.85-11.4-7.23ZM189.96,249.55c0-5.15-1.1-10.61.23-15.39,2.76-9.87-.41-17.78-5.76-25.51-10.93,8.05-6.46,32.17,5.53,40.9ZM118.58,226.42c5.64,0,11.52-1.02,16.88.22,9.56,2.21,16.94-1.29,24.27-6.43-9.2-10.15-31.61-6.53-41.16,6.2Z"/>
</svg>