<svg width="19" height="20" viewBox="0 0 19 20" fill="none" xmlns="http://www.w3.org/2000/svg">
<g id="Google logo">
<g clip-path="url(#clip0_870_140)">
<path id="Vector" d="M18.174 10.2105C18.174 9.43159 18.1121 8.86322 17.9782 8.2738H9.27246V11.7892H14.3825C14.2796 12.6629 13.7232 13.9786 12.4869 14.8626L12.4695 14.9803L15.2221 17.1588L15.4128 17.1783C17.1643 15.5258 18.174 13.0944 18.174 10.2105Z" fill="#4285F4"/>
<path id="Vector_2" d="M9.27263 19.4729C11.7761 19.4729 13.8779 18.6308 15.413 17.1783L12.487 14.8627C11.7041 15.4205 10.6532 15.81 9.27263 15.81C6.82061 15.81 4.73948 14.1575 3.99762 11.8735L3.88888 11.883L1.02669 14.1459L0.989258 14.2522C2.51404 17.3467 5.64606 19.4729 9.27263 19.4729Z" fill="#34A853"/>
<path id="Vector_3" d="M3.9974 11.8736C3.80165 11.2842 3.68836 10.6526 3.68836 10C3.68836 9.34742 3.80165 8.71592 3.9871 8.12651L3.98191 8.00098L1.08385 5.70166L0.989033 5.74774C0.360597 7.03185 0 8.47386 0 10C0 11.5262 0.360597 12.9682 0.989033 14.2523L3.9974 11.8736Z" fill="#FBBC05"/>
<path id="Vector_4" d="M9.27263 4.18991C11.0138 4.18991 12.1882 4.95826 12.8579 5.60036L15.4748 2.99004C13.8676 1.46386 11.7761 0.5271 9.27263 0.5271C5.64606 0.5271 2.51404 2.65321 0.989258 5.74766L3.98732 8.12643C4.73949 5.84242 6.82061 4.18991 9.27263 4.18991Z" fill="#EB4335"/>
</g>
</g>
<defs>
<clipPath id="clip0_870_140">
<rect y="0.5" width="18.1739" height="19" rx="9.08696" fill="white"/>
</clipPath>
</defs>
</svg>
