<svg width="390" height="382" viewBox="0 0 390 382" fill="none" xmlns="http://www.w3.org/2000/svg">
<path d="M375.78 168.386H291.124C291.124 168.386 299.516 145.46 312.429 145.46C325.342 145.46 329.399 161.281 329.399 161.281C329.399 161.281 338.088 152.732 345.276 152.732C352.464 152.732 358.661 164.088 358.661 164.088C358.661 164.088 368.777 157.937 375.78 168.386Z" fill="#EBEBEB"/>
<path d="M376.262 50.1139H336.699C336.699 50.1139 345.499 37.3029 352.502 37.3029C359.505 37.3029 361.524 45.8435 361.524 45.8435C361.524 45.8435 366.443 41.8604 370.991 42.5736C375.539 43.2869 376.262 50.1139 376.262 50.1139Z" fill="#EBEBEB"/>
<path d="M89.8344 120.079H12.7554C12.7554 120.079 23.3062 96.5132 34.598 95.0681C45.8898 93.6231 51.2717 112.576 51.2717 112.576C51.2717 112.576 58.5526 105.869 64.2402 105.869C69.9278 105.869 74.3834 114.706 74.3834 114.706C74.3834 114.706 85.8883 108.62 89.8344 120.079Z" fill="#EBEBEB"/>
<path d="M156.048 79.7561H103.998C103.998 79.7561 112.937 62.684 122.636 62.4339C132.334 62.1838 137.457 75.4024 137.457 75.4024C137.457 75.4024 152.528 63.2398 156.048 79.7561Z" fill="#EBEBEB"/>
<path d="M301.665 116.985H266.53C266.53 116.985 272.56 105.462 279.109 105.295C285.658 105.128 289.104 114.011 289.104 114.011C289.104 114.011 299.284 105.841 301.665 116.985Z" fill="#EBEBEB"/>
<path d="M75.1431 12.5887H40.0078C40.0078 12.5887 46.0382 1.0653 52.5872 0.898558C59.1363 0.731821 62.5822 9.61522 62.5822 9.61522C62.5822 9.61522 72.7625 1.44509 75.1431 12.5887Z" fill="#EBEBEB"/>
<path d="M355.697 201.141H349.25V258.212H355.697V201.141Z" fill="#A6A6A6"/>
<path d="M372.575 206.338H215.555V214.767H372.575V206.338Z" fill="#EBEBEB"/>
<path d="M372.575 219.334H215.555V227.763H372.575V219.334Z" fill="#EBEBEB"/>
<path d="M372.575 232.33H215.555V240.76H372.575V232.33Z" fill="#EBEBEB"/>
<path d="M372.575 245.336H215.555V253.765H372.575V245.336Z" fill="#EBEBEB"/>
<path d="M388.637 258.212H201.734V270.782H388.637V258.212Z" fill="#EBEBEB"/>
<path d="M218.658 270.782H212.21V304.009H218.658V270.782Z" fill="#A6A6A6"/>
<path d="M378.17 270.782H371.723V304.009H378.17V270.782Z" fill="#A6A6A6"/>
<path d="M194.509 381.403C281.756 381.403 352.483 377.127 352.483 371.852C352.483 366.578 281.756 362.302 194.509 362.302C107.262 362.302 36.5342 366.578 36.5342 371.852C36.5342 377.127 107.262 381.403 194.509 381.403Z" fill="#EBEBEB"/>
<path d="M0 304L48.6225 303.777L97.2543 303.694L194.509 303.536L291.763 303.694L340.395 303.777L389.017 304L340.395 304.231L291.763 304.305L194.509 304.463L97.2543 304.305L48.6225 304.231L0 304Z" fill="#263238"/>
<path d="M180.28 256.581H5.38184V303.999H180.28V256.581Z" fill="#455A64"/>
<path d="M182.346 298.812H4.55762V304.009H182.346V298.812Z" fill="#07382F"/>
<path opacity="0.1" d="M36.5897 298.812H4.55762V304.009H36.5897V298.812Z" fill="#050400"/>
<path d="M182.346 291.652H4.55762V296.848H182.346V291.652Z" fill="#07382F"/>
<path opacity="0.1" d="M36.5897 291.652H4.55762V296.848H36.5897V291.652Z" fill="#050400"/>
<path d="M182.346 284.5H4.55762V289.697H182.346V284.5Z" fill="#07382F"/>
<path opacity="0.1" d="M36.5897 284.5H4.55762V289.697H36.5897V284.5Z" fill="#050400"/>
<path d="M182.346 277.349H4.55762V282.546H182.346V277.349Z" fill="#07382F"/>
<path opacity="0.1" d="M36.5897 277.349H4.55762V282.546H36.5897V277.349Z" fill="#050400"/>
<path d="M182.346 270.198H4.55762V275.395H182.346V270.198Z" fill="#07382F"/>
<path opacity="0.1" d="M36.5897 270.198H4.55762V275.395H36.5897V270.198Z" fill="#050400"/>
<path d="M182.346 263.047H4.55762V268.244H182.346V263.047Z" fill="#07382F"/>
<path opacity="0.1" d="M36.5897 263.047H4.55762V268.244H36.5897V263.047Z" fill="#050400"/>
<path d="M182.346 255.896H4.55762V261.092H182.346V255.896Z" fill="#07382F"/>
<path opacity="0.1" d="M36.5897 255.896H4.55762V261.092H36.5897V255.896Z" fill="#050400"/>
<path d="M175.056 255.896C175.056 255.896 173.379 248.078 170.035 246.873C166.691 245.669 164.654 249.171 164.654 249.171C164.654 249.171 163.866 241.704 159.096 239.472C154.325 237.24 150.759 241.816 150.759 241.816C150.759 241.816 147.118 232.33 140.569 232.33C134.02 232.33 130.787 246.225 130.787 246.225C130.787 246.225 126.943 242.084 123.006 244.372C119.069 246.66 119.079 255.868 119.079 255.868L175.056 255.896Z" fill="#37474F"/>
<path d="M65.6298 255.896C65.6298 255.896 63.9624 248.078 60.6092 246.873C57.2559 245.669 55.2273 249.171 55.2273 249.171C55.2273 249.171 54.4399 241.704 49.6693 239.472C44.8988 237.24 41.3325 241.816 41.3325 241.816C41.3325 241.816 37.692 232.33 31.143 232.33C24.5939 232.33 21.361 246.225 21.361 246.225C21.361 246.225 17.5261 242.084 13.5892 244.372C9.65234 246.66 9.65234 255.868 9.65234 255.868L65.6298 255.896Z" fill="#455A64"/>
<path d="M104.109 255.896H53.708C53.708 255.896 55.3661 248.791 58.7101 248.281C62.0541 247.772 63.6011 251.06 63.6011 251.06C63.6011 251.06 63.4529 241.149 69.6963 239.463C75.9397 237.777 81.1734 246.531 81.1734 246.531C81.1734 246.531 85.0824 241.538 90.4366 241.899C95.7907 242.26 97.1246 250.467 97.1246 250.467C97.1246 250.467 101.969 247.577 104.109 255.896Z" fill="#37474F"/>
<path d="M123.525 255.896H92.6138C92.6138 255.896 92.6786 251.264 95.7262 250.06C96.5521 249.7 97.4729 249.619 98.3488 249.83C99.2248 250.04 100.008 250.531 100.58 251.227C100.58 251.227 101.821 242.751 107.49 242.751C113.16 242.751 115.883 250.06 115.883 250.06C116.365 249.363 117.039 248.822 117.824 248.502C118.609 248.183 119.47 248.1 120.301 248.263C123.405 248.67 123.525 255.896 123.525 255.896Z" fill="#455A64"/>
<path d="M242.205 371.343C240.306 371.954 186.153 371.26 184.115 369.916C183.328 369.426 182.966 361.533 182.809 351.974V351.677C182.809 349.704 182.744 347.685 182.744 345.628C182.744 345.341 182.744 345.063 182.744 344.776C182.67 330.993 182.883 316.69 182.883 316.69L219.111 317.051L218.018 344.841V345.943L217.796 351.705V352.298C217.796 352.298 238.397 361.839 240.491 363.543C242.584 365.248 244.104 370.713 242.205 371.343Z" fill="#EB9481"/>
<path d="M242.205 371.343C240.306 371.954 186.153 371.26 184.115 369.916C183.328 369.425 182.966 361.533 182.809 351.974V351.677C182.809 349.704 182.744 347.685 182.744 345.628C182.744 345.341 182.744 345.063 182.744 344.776L218.018 344.878V345.98L217.796 351.742V352.335C217.796 352.335 238.397 361.876 240.491 363.58C242.584 365.285 244.104 370.713 242.205 371.343Z" fill="#EBEBEB"/>
<path d="M242.205 371.343C241.028 371.723 220.056 371.602 203.633 371.139C193.378 370.861 184.903 370.435 184.115 369.916C183.328 369.398 182.985 361.756 182.828 352.381C182.828 352.242 182.828 352.113 182.828 351.983C182.828 351.853 182.828 351.77 182.828 351.677L217.759 351.742V352.335C217.759 352.335 238.36 361.867 240.454 363.58C242.547 365.294 244.104 370.713 242.205 371.343Z" fill="#07382F"/>
<path d="M241.621 369.212C232.497 368.87 195.657 368.351 186.616 368.703C186.542 368.703 186.542 368.759 186.616 368.759C195.648 369.296 232.487 369.518 241.612 369.361C241.806 369.361 241.806 369.222 241.621 369.212Z" fill="#263238"/>
<path d="M221.641 351.89C218.056 351.177 213.656 351.668 210.877 354.187C210.766 354.289 210.877 354.438 211.025 354.401C214.471 353.341 218.02 352.651 221.613 352.344C221.666 352.337 221.715 352.312 221.752 352.273C221.789 352.233 221.811 352.182 221.814 352.129C221.817 352.075 221.802 352.022 221.77 351.978C221.738 351.935 221.693 351.904 221.641 351.89Z" fill="#263238"/>
<path d="M224.206 353.456C220.622 352.742 216.222 353.233 213.452 355.762C213.341 355.855 213.452 356.012 213.6 355.975C217.033 354.911 220.57 354.218 224.151 353.91C224.206 353.908 224.258 353.886 224.299 353.849C224.339 353.811 224.365 353.761 224.372 353.706C224.379 353.652 224.366 353.596 224.335 353.551C224.305 353.505 224.259 353.471 224.206 353.456Z" fill="#263238"/>
<path d="M226.782 355.058C223.197 354.336 218.797 354.836 216.018 357.356C215.916 357.448 216.018 357.606 216.166 357.569C219.614 356.505 223.167 355.816 226.763 355.512C226.816 355.504 226.864 355.477 226.9 355.437C226.936 355.397 226.956 355.346 226.959 355.293C226.961 355.239 226.944 355.187 226.912 355.144C226.88 355.101 226.834 355.071 226.782 355.058Z" fill="#263238"/>
<path d="M226.411 344.091C225.022 342.127 222.382 342.97 220.853 344.211C218.296 346.39 216.354 349.2 215.221 352.363C215.215 352.377 215.212 352.392 215.214 352.407C215.215 352.422 215.22 352.437 215.228 352.45C215.236 352.463 215.248 352.473 215.261 352.481C215.274 352.488 215.289 352.492 215.305 352.492C215.305 352.77 215.555 353.058 215.86 352.946C218.843 351.89 222.159 351.094 224.725 349.185C226.235 348.046 227.717 345.943 226.411 344.091ZM220.056 350.418C218.602 350.973 217.139 351.455 215.703 352.066C216.754 350.446 217.889 348.882 219.102 347.379C219.699 346.658 220.342 345.977 221.029 345.341C222.113 344.415 226.365 342.368 225.661 346.268C225.309 348.472 221.789 349.751 220.056 350.418Z" fill="#263238"/>
<path d="M206.115 351.307C209.052 352.604 212.46 352.585 215.601 352.937C215.671 352.938 215.741 352.923 215.804 352.892C215.868 352.862 215.923 352.817 215.967 352.761C216.01 352.705 216.039 352.64 216.053 352.571C216.067 352.502 216.064 352.431 216.045 352.363C216.059 352.357 216.071 352.348 216.081 352.337C216.091 352.326 216.098 352.313 216.103 352.299C216.107 352.285 216.108 352.27 216.107 352.256C216.105 352.241 216.099 352.227 216.092 352.215C214.264 349.392 211.724 347.101 208.727 345.573C206.967 344.721 204.207 344.508 203.308 346.731C202.41 348.954 204.392 350.547 206.115 351.307ZM204.522 348.722C202.956 345.017 207.56 346.036 208.829 346.722C209.649 347.174 210.435 347.685 211.182 348.25C212.706 349.438 214.168 350.702 215.564 352.039C214.026 351.77 212.488 351.64 210.932 351.436C209.107 351.186 205.393 350.751 204.522 348.722Z" fill="#263238"/>
<path d="M203.633 371.111C193.378 370.834 184.903 370.407 184.115 369.889C183.328 369.37 182.985 361.728 182.828 352.354C187.033 356.105 197.473 365.424 203.633 371.111Z" fill="#263238"/>
<path d="M171.767 160.689C171.767 160.689 179.891 252.181 181.216 259.166C181.521 260.759 181.716 269.402 181.836 280.517C182.123 304.768 181.957 348.519 181.957 348.519H220.121C220.121 348.519 218.991 272.727 217.342 258.777C215.693 244.826 204.855 160.689 204.855 160.689H171.767Z" fill="#A6A6A6"/>
<path d="M218.398 341.868C212.442 341.738 214.156 341.691 208.209 341.636C205.291 341.636 186.135 341.441 183.411 341.895C183.356 341.895 183.356 342.006 183.411 342.016C186.135 342.46 205.291 342.294 208.209 342.266C214.165 342.21 212.451 342.164 218.398 342.044C218.417 342.037 218.433 342.026 218.445 342.01C218.456 341.994 218.462 341.975 218.462 341.956C218.462 341.936 218.456 341.917 218.445 341.901C218.433 341.885 218.417 341.874 218.398 341.868Z" fill="#263238"/>
<path d="M189.21 298.534C189.16 292.976 189.117 287.443 189.08 281.935C189.08 276.571 189.08 271.199 188.793 265.845C188.283 254.997 186.079 244.335 184.513 233.609C182.948 222.882 181.642 212.109 180.465 201.336C179.131 189.238 177.964 177.131 176.76 165.033C176.76 164.95 176.621 164.95 176.63 165.033C178.427 186.644 180.428 208.246 183.42 229.718C184.174 235.06 184.989 240.392 185.866 245.716C186.792 251.107 187.635 256.489 188.061 261.936C188.487 267.382 188.552 272.625 188.598 277.97C188.66 283.528 188.716 289.058 188.765 294.56C188.886 306.853 189.006 325.768 189.126 338.097C189.126 338.329 189.497 338.32 189.497 338.097C189.376 327.084 189.293 309.502 189.21 298.534Z" fill="#263238"/>
<path d="M163.718 160.689C163.718 160.689 179.891 252.181 181.216 259.166C181.522 260.759 181.716 269.402 181.837 280.517L200.067 160.689H163.718Z" fill="#263238"/>
<path d="M197.88 374.548C195.944 375.02 141.977 370.491 140.041 368.99C139.291 368.443 139.495 360.542 140.041 351.001C140.041 350.899 140.041 350.797 140.041 350.704C140.143 348.731 140.263 346.712 140.402 344.665C140.402 344.378 140.402 344.1 140.402 343.813C141.329 330.057 142.542 315.801 142.542 315.801L178.669 318.728L175.612 346.416L175.491 347.509L174.871 353.233L174.806 353.826C174.806 353.826 194.694 364.859 196.658 366.711C198.621 368.564 199.816 374.122 197.88 374.548Z" fill="#EB9481"/>
<path d="M197.88 374.548C195.944 375.02 141.977 370.491 140.041 368.99C139.291 368.444 139.495 360.542 140.041 351.001C140.041 350.899 140.041 350.797 140.041 350.705C140.143 348.732 140.263 346.712 140.402 344.665C140.402 344.378 140.402 344.1 140.402 343.813L175.602 346.416L175.482 347.509L174.861 353.233L174.797 353.826C174.797 353.826 194.694 364.859 196.658 366.711C198.621 368.564 199.816 374.122 197.88 374.548Z" fill="#EBEBEB"/>
<path d="M197.88 374.548C195.944 375.02 141.977 370.491 140.041 368.99C139.291 368.444 139.495 360.542 140.041 351.001C140.041 350.899 140.041 350.797 140.041 350.705L174.889 353.233L174.824 353.826C174.824 353.826 194.694 364.859 196.658 366.711C198.621 368.564 199.816 374.122 197.88 374.548Z" fill="#07382F"/>
<path d="M197.445 372.399C188.367 371.417 151.666 368.286 142.616 367.999C142.542 367.999 142.533 368.045 142.616 368.055C151.592 369.231 188.321 372.066 197.445 372.547C197.621 372.566 197.64 372.427 197.445 372.399Z" fill="#263238"/>
<path d="M178.761 353.678C175.241 352.752 170.813 352.891 167.868 355.216C167.747 355.308 167.868 355.466 167.997 355.438C171.51 354.624 175.1 354.186 178.705 354.132C178.76 354.13 178.813 354.108 178.853 354.071C178.894 354.034 178.92 353.983 178.927 353.929C178.933 353.874 178.92 353.819 178.89 353.773C178.86 353.727 178.814 353.693 178.761 353.678Z" fill="#263238"/>
<path d="M181.197 355.457C177.668 354.484 173.249 354.669 170.294 356.985C170.183 357.078 170.294 357.235 170.433 357.217C173.945 356.393 177.535 355.955 181.142 355.91C181.197 355.908 181.249 355.887 181.29 355.85C181.33 355.812 181.356 355.762 181.363 355.707C181.369 355.653 181.356 355.597 181.326 355.551C181.296 355.505 181.25 355.472 181.197 355.457Z" fill="#263238"/>
<path d="M183.652 357.226C180.122 356.3 175.704 356.439 172.749 358.764C172.638 358.856 172.749 359.014 172.888 358.986C176.401 358.171 179.991 357.734 183.596 357.68C183.651 357.678 183.704 357.656 183.744 357.619C183.785 357.582 183.811 357.531 183.817 357.477C183.824 357.422 183.811 357.367 183.781 357.321C183.75 357.275 183.705 357.241 183.652 357.226Z" fill="#263238"/>
<path d="M184.05 346.268C182.809 344.211 180.113 344.86 178.492 345.99C175.777 347.985 173.633 350.658 172.277 353.743C172.271 353.757 172.268 353.772 172.269 353.787C172.27 353.802 172.274 353.817 172.281 353.83C172.288 353.843 172.298 353.855 172.31 353.864C172.322 353.873 172.336 353.879 172.351 353.882C172.351 354.151 172.564 354.465 172.879 354.373C175.927 353.53 179.289 353.002 181.985 351.251C183.596 350.204 185.245 348.185 184.05 346.268ZM177.27 352.131C175.778 352.585 174.278 352.956 172.805 353.465C174.028 351.964 175.167 350.408 176.51 349.028C177.16 348.365 177.853 347.747 178.585 347.175C179.724 346.295 184.143 344.591 183.152 348.463C182.642 350.556 179.048 351.594 177.27 352.131Z" fill="#263238"/>
<path d="M163.301 352.029C166.144 353.53 169.535 353.752 172.647 354.326C172.718 354.332 172.789 354.322 172.854 354.295C172.92 354.269 172.979 354.227 173.025 354.174C173.072 354.121 173.106 354.058 173.124 353.989C173.142 353.921 173.144 353.849 173.129 353.78C173.143 353.776 173.156 353.769 173.167 353.76C173.178 353.75 173.186 353.738 173.192 353.725C173.197 353.711 173.199 353.696 173.198 353.682C173.197 353.667 173.192 353.653 173.184 353.641C171.564 350.695 169.192 348.231 166.311 346.499C164.616 345.517 161.874 345.11 160.827 347.268C159.781 349.426 161.633 351.149 163.301 352.029ZM161.893 349.343C160.586 345.563 165.116 346.87 166.339 347.648C167.119 348.159 167.862 348.725 168.562 349.343C170.004 350.632 171.376 351.995 172.675 353.428C171.165 353.057 169.627 352.817 168.108 352.502C166.293 352.122 162.615 351.418 161.893 349.343Z" fill="#263238"/>
<path d="M176.436 350.575L138.299 348.963C138.299 348.963 148.711 265.279 148.896 260.185C149.397 246.846 158.271 160.698 158.271 160.698H204.846C204.846 160.698 201.919 180.521 196.88 193.147C193.502 194.326 190.239 195.814 187.135 197.593C187.135 197.593 182.772 254.562 182.605 261.667C182.29 275.719 176.436 350.575 176.436 350.575Z" fill="#A6A6A6"/>
<path d="M175.417 343.553C169.47 343.174 171.184 343.201 165.228 342.886C162.319 342.738 143.181 341.756 140.449 342.099C140.384 342.099 140.375 342.201 140.449 342.219C143.154 342.784 162.291 343.424 165.209 343.526C171.165 343.72 169.452 343.6 175.399 343.729C175.418 343.725 175.436 343.716 175.449 343.701C175.462 343.686 175.471 343.668 175.473 343.648C175.475 343.628 175.471 343.609 175.461 343.592C175.451 343.575 175.435 343.561 175.417 343.553Z" fill="#263238"/>
<path d="M161.68 165.765C159.957 187.459 158.178 209.154 156.196 230.83C154.214 252.506 151.87 274.302 149.035 295.95C147.451 308.048 145.691 325.092 143.811 337.153C143.811 337.227 143.922 337.264 143.941 337.153C147.785 315.736 150.61 289.151 153.009 267.53C155.409 245.91 157.372 224.225 159.132 202.54C160.124 190.275 160.985 178.002 161.958 165.728C161.967 165.589 161.698 165.589 161.68 165.765Z" fill="#263238"/>
<path d="M198.538 192.285C194.579 193.721 190.751 195.496 187.098 197.593C186.959 197.677 187.098 197.899 187.2 197.834C191.044 196.185 194.963 194.601 198.714 192.739C198.761 192.707 198.795 192.661 198.812 192.607C198.828 192.553 198.826 192.495 198.806 192.443C198.785 192.39 198.748 192.346 198.699 192.317C198.651 192.289 198.594 192.278 198.538 192.285Z" fill="#263238"/>
<path d="M199.761 165.922C199.761 165.784 199.52 165.756 199.52 165.922C199.519 170.207 199.303 174.489 198.871 178.752C198.695 180.734 197.102 191.72 193.675 190.878C193.1 190.739 192.804 190.174 192.748 189.312C192.766 188.18 192.921 187.053 193.212 185.959C193.591 183.671 193.897 181.373 194.092 179.058C194.492 174.742 194.445 170.396 193.953 166.089C193.953 166.06 193.941 166.031 193.92 166.011C193.899 165.99 193.871 165.978 193.841 165.978C193.812 165.978 193.784 165.99 193.763 166.011C193.742 166.031 193.73 166.06 193.73 166.089C193.823 172.07 193.464 178.05 192.656 183.976C192.23 186.82 190.803 191.1 193.767 191.535C196.732 191.971 198.76 184.81 199.131 182.846C200.072 177.256 200.284 171.567 199.761 165.922Z" fill="#263238"/>
<path d="M193.767 191.155C193.457 191.89 193.197 192.645 192.989 193.416C192.773 194.009 192.666 194.637 192.674 195.268C192.674 195.389 192.841 195.398 192.906 195.315C193.27 194.744 193.539 194.118 193.703 193.462C193.971 192.767 194.24 192.063 194.481 191.359C194.486 191.273 194.462 191.187 194.412 191.117C194.362 191.046 194.289 190.994 194.206 190.971C194.123 190.947 194.034 190.952 193.954 190.986C193.874 191.019 193.808 191.079 193.767 191.155Z" fill="#263238"/>
<path d="M178.233 169.498C178.24 169.021 178.19 168.546 178.085 168.081C178.079 168.067 178.07 168.054 178.057 168.046C178.045 168.037 178.03 168.032 178.015 168.032C178 168.032 177.985 168.037 177.973 168.046C177.96 168.054 177.951 168.067 177.946 168.081C177.851 168.482 177.798 168.892 177.788 169.304C177.788 169.776 177.677 170.23 177.631 170.721C177.53 171.683 177.36 172.636 177.121 173.574C176.69 175.352 175.787 176.98 174.509 178.289C173.231 179.538 171.725 180.528 170.072 181.207C168.208 181.857 166.309 182.401 164.384 182.837C164.31 182.837 164.329 182.976 164.384 182.976C166.494 182.973 168.583 182.561 170.535 181.763C172.269 181.117 173.847 180.113 175.167 178.817C176.492 177.48 177.425 175.804 177.862 173.972C178.083 173.03 178.207 172.068 178.233 171.101C178.27 170.567 178.27 170.032 178.233 169.498Z" fill="#263238"/>
<path d="M187.154 116.225C188.886 123.377 205.291 158.614 216.268 161.615C227.754 164.783 259.444 151.203 262.436 150.138C270.634 147.229 254.099 123.164 249.828 126.054C242.742 130.852 226.392 139.3 223.076 137.864C216.11 134.854 203.04 120.449 193.582 111.724C187.876 106.416 185.245 108.268 187.154 116.225Z" fill="#EB9481"/>
<path d="M260.472 150.879C261.898 150.286 273.208 146.618 278.072 141.903C280.665 139.411 287.011 131.713 285.695 129.972C284.482 128.36 282.231 130.028 282.231 130.028C282.231 130.028 285.01 126.572 283.305 124.349C281.601 122.126 277.942 125.146 277.942 125.146C277.942 125.146 280.536 121.385 278.683 119.292C276.83 117.198 273.653 120.848 273.653 120.848C273.653 120.848 276.182 117.522 273.931 116.439C271.217 115.132 267.234 121.802 263.917 124.016C263.167 124.516 247.948 133.122 247.948 133.122L260.472 150.879Z" fill="#EB9481"/>
<path d="M273.533 120.764C270.587 125.664 268.456 127.248 263.436 129.824C263.419 129.836 263.407 129.853 263.402 129.872C263.396 129.892 263.397 129.913 263.404 129.932C263.412 129.951 263.425 129.967 263.442 129.977C263.46 129.988 263.48 129.993 263.501 129.99C268.632 127.962 271.606 126.285 273.773 120.894C273.875 120.635 273.672 120.533 273.533 120.764Z" fill="#263238"/>
<path d="M277.821 125.044C274.32 129.861 272.023 131.649 266.965 134.687C266.891 134.687 266.965 134.854 267.03 134.817C272.245 132.26 275.172 130.528 278.035 125.257C278.164 125.016 277.979 124.822 277.821 125.044Z" fill="#263238"/>
<path d="M282.018 130.129C278.313 134.548 275.858 136.614 270.569 138.929C270.547 138.943 270.531 138.964 270.523 138.987C270.515 139.011 270.516 139.037 270.524 139.061C270.533 139.085 270.549 139.105 270.571 139.118C270.592 139.131 270.618 139.136 270.643 139.133C276.266 137.281 279.322 134.733 282.138 130.25C282.333 129.944 282.25 129.852 282.018 130.129Z" fill="#263238"/>
<path d="M266.567 112.826C266.826 112.863 267.064 112.987 267.243 113.178C267.32 113.247 267.4 113.312 267.484 113.372C267.509 113.383 267.536 113.388 267.563 113.388C267.59 113.388 267.616 113.383 267.641 113.372C267.734 113.372 267.873 113.205 268.068 113.02C268.163 112.922 268.282 112.85 268.413 112.809C268.544 112.769 268.683 112.762 268.818 112.789C268.624 112.903 268.466 113.07 268.364 113.27C268.308 113.408 268.223 113.532 268.114 113.632C268.005 113.733 267.875 113.809 267.734 113.854C267.643 113.87 267.549 113.866 267.459 113.842C267.37 113.818 267.287 113.774 267.215 113.715C267.108 113.63 267.019 113.522 266.956 113.4C266.844 113.197 266.713 113.005 266.567 112.826Z" fill="#07382F"/>
<path d="M258.063 114.438C258.29 114.414 258.519 114.459 258.721 114.567C258.853 114.642 259.005 114.674 259.156 114.66C259.322 114.618 259.481 114.552 259.628 114.465C259.736 114.417 259.853 114.393 259.971 114.393C260.089 114.393 260.206 114.417 260.314 114.465C260.138 114.564 259.976 114.686 259.832 114.827C259.674 115.016 259.454 115.144 259.212 115.188C259.081 115.196 258.949 115.177 258.826 115.13C258.703 115.084 258.591 115.012 258.498 114.919C258.35 114.753 258.239 114.595 258.063 114.438Z" fill="#07382F"/>
<path d="M260.796 106.416C261.231 106.907 261.342 107.638 261.722 108.037C261.797 108.111 261.895 108.157 262 108.166C262.048 108.173 262.096 108.168 262.141 108.152C262.186 108.136 262.227 108.109 262.259 108.074C262.41 107.846 262.505 107.585 262.537 107.314C262.573 107.151 262.62 106.99 262.676 106.832C262.741 106.622 262.879 106.441 263.065 106.323C263.182 106.263 263.315 106.241 263.445 106.258C263.553 106.285 263.657 106.329 263.751 106.388C263.88 106.49 264.003 106.598 264.121 106.712C264.215 106.799 264.33 106.859 264.455 106.888C264.587 106.901 264.721 106.882 264.844 106.832C265.113 106.758 265.326 106.397 265.678 106.397C265.363 106.508 265.279 106.842 264.964 107.045C264.807 107.149 264.624 107.206 264.436 107.212C264.239 107.21 264.048 107.145 263.89 107.027C263.742 106.934 263.621 106.823 263.51 106.758C263.399 106.693 263.362 106.703 263.297 106.758C263.232 106.814 263.093 107.147 263.028 107.453C262.976 107.816 262.822 108.156 262.584 108.435C262.501 108.506 262.404 108.559 262.3 108.592C262.195 108.624 262.085 108.634 261.977 108.622C261.868 108.61 261.763 108.575 261.668 108.521C261.574 108.466 261.491 108.393 261.426 108.305C260.981 107.694 261.065 107.036 260.796 106.416Z" fill="white"/>
<path d="M267.104 104.044C267.366 104.087 267.607 104.213 267.789 104.406C267.866 104.475 267.946 104.54 268.03 104.6C268.055 104.611 268.082 104.616 268.109 104.616C268.136 104.616 268.163 104.611 268.188 104.6C268.28 104.6 268.429 104.424 268.623 104.248C268.721 104.146 268.842 104.071 268.977 104.029C269.111 103.986 269.254 103.979 269.392 104.007C269.193 104.122 269.032 104.292 268.929 104.498C268.87 104.636 268.783 104.761 268.673 104.863C268.563 104.965 268.432 105.043 268.29 105.091C268.195 105.107 268.099 105.102 268.006 105.078C267.914 105.054 267.827 105.011 267.752 104.952C267.647 104.861 267.559 104.751 267.493 104.628C267.375 104.426 267.245 104.231 267.104 104.044Z" fill="white"/>
<path d="M258.424 105.693C258.654 105.661 258.888 105.703 259.091 105.814C259.224 105.896 259.381 105.928 259.536 105.906C259.707 105.872 259.871 105.806 260.018 105.712C260.127 105.664 260.245 105.639 260.365 105.639C260.484 105.639 260.603 105.664 260.712 105.712C260.539 105.814 260.377 105.935 260.231 106.073C260.07 106.266 259.848 106.397 259.601 106.443C259.468 106.458 259.333 106.441 259.208 106.394C259.082 106.348 258.97 106.273 258.878 106.175C258.73 105.99 258.619 105.841 258.424 105.693Z" fill="white"/>
<path d="M263.871 101.914C264.133 102.068 264.325 102.317 264.408 102.609C264.501 102.871 264.609 103.128 264.733 103.377C264.807 103.489 264.862 103.526 264.909 103.507C264.993 103.487 265.069 103.438 265.122 103.368C265.272 103.146 265.403 102.91 265.511 102.664C265.577 102.504 265.671 102.356 265.789 102.229C265.876 102.146 265.985 102.091 266.104 102.071C266.215 102.036 266.335 102.036 266.446 102.071C266.715 102.192 266.77 102.368 266.845 102.414C266.917 102.474 267.003 102.515 267.095 102.534C267.211 102.554 267.33 102.547 267.444 102.515C267.558 102.483 267.663 102.426 267.752 102.349C267.978 102.148 268.259 102.019 268.558 101.979C268.322 102.141 268.118 102.345 267.956 102.581C267.848 102.721 267.707 102.832 267.545 102.903C267.383 102.974 267.206 103.003 267.03 102.988C266.839 102.973 266.658 102.898 266.511 102.775C266.363 102.636 266.28 102.516 266.27 102.534H266.187C266.113 102.534 266.187 102.534 266.122 102.534C266.043 102.624 265.978 102.723 265.928 102.831C265.797 103.11 265.632 103.371 265.437 103.609C265.368 103.683 265.285 103.743 265.193 103.784C265.1 103.826 265 103.848 264.899 103.85C264.793 103.842 264.691 103.804 264.605 103.74C264.52 103.676 264.455 103.589 264.418 103.489C264.312 103.189 264.24 102.878 264.205 102.562C264.159 102.318 264.043 102.093 263.871 101.914Z" fill="white"/>
<path d="M266.132 122.089C265.205 125.989 260.574 127.564 257.313 129.185C257.264 129.207 257.221 129.24 257.188 129.282C257.155 129.324 257.132 129.374 257.122 129.427C257.112 129.479 257.115 129.534 257.13 129.585C257.146 129.637 257.174 129.683 257.211 129.722C258.304 133.01 258.869 137.975 256.674 140.903C256.609 140.986 256.72 141.097 256.794 141.014C259.573 138.235 259.416 133.27 257.998 129.74C261.333 128.129 265.909 126.35 266.169 122.098C266.169 122.08 266.132 122.07 266.132 122.089Z" fill="#263238"/>
<path d="M244.372 128.749L258.98 153.982C258.98 153.982 224.354 165.728 215.526 162.115C206.699 158.502 191.59 130.416 187.079 118.578C184.032 110.584 185.912 103.072 194.657 111.677C205.967 122.793 222.298 137.336 223.632 136.966C224.966 136.595 244.372 128.749 244.372 128.749Z" fill="#EBEBEB"/>
<path d="M252.57 153.723C251.236 151.537 247.411 144.793 246.336 143.033C244.243 139.606 242.168 136.123 239.852 132.844C239.852 132.844 239.778 132.844 239.796 132.844C241.593 136.475 243.705 139.995 245.78 143.478C246.799 145.201 251.19 152.213 252.339 153.806C252.459 153.945 252.644 153.843 252.57 153.723Z" fill="#263238"/>
<path d="M224.225 162.588C220.519 162.958 217.425 162.893 215.517 162.115C206.689 158.503 191.581 130.426 187.079 118.625C185.504 114.512 185.227 110.519 186.551 108.787C193.323 118.458 213.581 147.405 224.225 162.588Z" fill="#DBDBDB"/>
<path d="M153.797 180.845C153.936 180.994 208.107 179.206 208.607 178.604C209.302 177.761 199.668 121.478 190.034 109.556C187.626 106.582 179.076 103.072 173.907 109.204C165.302 119.384 153.315 180.336 153.797 180.845Z" fill="#EBEBEB"/>
<path d="M171.98 108.435C171.98 108.435 173.518 141.301 173.148 143.33C172.777 145.358 156.298 158.54 156.298 158.54L156.066 160.689L160.281 159.123L142.561 254.627C142.561 254.627 172.147 262.88 189.868 261.806C196.926 261.37 221.816 251.616 221.816 251.616C221.816 251.616 209.172 174.871 204.216 149.054C201.326 134.029 192.378 109.417 192.378 109.417L190.164 107.648L195.509 130.222C189.68 130.854 183.814 131.058 177.955 130.833L174.871 106.369L171.98 108.435Z" fill="#07382F"/>
<path d="M187.283 116.689C184.939 117.152 179.363 113.474 176.88 110.038C176.714 109.797 176.769 107.083 176.686 103.785C176.621 101.784 176.51 99.561 176.26 97.5323C176.204 97.1155 177.714 97.7083 177.714 97.7083L180.41 98.014L189.339 99.0422C188.929 101.665 188.842 104.328 189.08 106.972C189.119 107.249 189.184 107.522 189.275 107.787C189.275 107.787 189.275 107.87 189.275 107.926C189.756 109.473 190.96 115.966 187.283 116.689Z" fill="#EB9481"/>
<path d="M189.275 107.787C189.275 107.787 189.275 107.87 189.275 107.926C188.849 108.038 188.416 108.115 187.978 108.157C179.409 109.028 176.982 98.2826 176.982 98.2826L180.382 98.0139L189.312 99.0421C188.901 101.665 188.814 104.328 189.052 106.971C189.1 107.25 189.174 107.523 189.275 107.787Z" fill="#263238"/>
<path d="M190.562 73.9296C190.562 73.9296 194.879 75.671 195.713 80.0247C196.547 84.3784 195.592 88.9545 195.222 89.186C194.851 89.4176 190.562 73.9296 190.562 73.9296Z" fill="#263238"/>
<path d="M173.898 80.3954C172.527 84.9343 174.954 98.0417 178.187 100.96C182.883 105.184 190.544 105.591 194.129 99.9314C197.602 94.4754 194.129 77.4497 190.525 74.8004C185.245 70.9006 175.926 73.6888 173.898 80.3954Z" fill="#EB9481"/>
<path d="M185.18 87.7224C185.18 87.7224 185.125 87.778 185.134 87.815C185.329 88.6858 185.412 89.7233 184.671 90.1679C184.671 90.1679 184.671 90.2327 184.671 90.2235C185.634 89.89 185.514 88.519 185.18 87.7224Z" fill="#263238"/>
<path d="M184.217 86.9628C182.781 87.1296 183.217 89.9919 184.551 89.8344C185.885 89.677 185.421 86.8146 184.217 86.9628Z" fill="#263238"/>
<path d="M190.442 86.6851C190.442 86.6851 190.516 86.6851 190.525 86.7592C190.627 87.6855 190.905 88.6118 191.748 88.8249V88.8712C190.748 88.8897 190.405 87.5558 190.442 86.6851Z" fill="#263238"/>
<path d="M191.09 85.6383C192.498 85.314 193.054 88.1578 191.748 88.4635C190.442 88.7692 189.877 85.9162 191.09 85.6383Z" fill="#263238"/>
<path d="M182.883 85.8141C183.245 85.6473 183.597 85.4618 183.939 85.2584C184.337 85.036 184.68 84.9064 184.865 84.4803C184.915 84.3541 184.922 84.2152 184.885 84.0847C184.848 83.9542 184.77 83.8394 184.662 83.7577C184.421 83.6324 184.152 83.574 183.881 83.5886C183.611 83.6033 183.349 83.6905 183.124 83.8411C182.616 84.0677 182.212 84.478 181.994 84.9897C181.95 85.1114 181.942 85.2434 181.972 85.3693C182.003 85.4952 182.07 85.6093 182.165 85.6974C182.26 85.7854 182.378 85.8435 182.506 85.8642C182.634 85.885 182.765 85.8676 182.883 85.8141Z" fill="#263238"/>
<path d="M191.915 84.3693C191.52 84.3525 191.128 84.3123 190.738 84.2488C190.315 84.2664 189.898 84.1426 189.552 83.8968C189.459 83.7998 189.4 83.6745 189.385 83.5405C189.37 83.4065 189.399 83.2712 189.469 83.1558C189.643 82.9473 189.87 82.7898 190.126 82.7001C190.382 82.6104 190.658 82.5918 190.923 82.6463C191.479 82.6637 192.008 82.8884 192.406 83.2762C192.489 83.371 192.544 83.4879 192.563 83.6129C192.582 83.7379 192.564 83.8657 192.513 83.981C192.461 84.0964 192.377 84.1944 192.271 84.2632C192.165 84.3321 192.041 84.3689 191.915 84.3693Z" fill="#263238"/>
<path d="M185.995 96.0315C186.236 96.2075 186.496 96.4669 186.82 96.4391C187.153 96.388 187.47 96.2612 187.746 96.0686C187.746 96.0686 187.811 96.0686 187.793 96.0686C187.693 96.2608 187.543 96.4226 187.358 96.5367C187.174 96.6508 186.962 96.7131 186.746 96.717C186.555 96.7029 186.374 96.6304 186.227 96.5094C186.079 96.3884 185.972 96.2247 185.921 96.0408C185.921 96.0408 185.958 96.013 185.995 96.0315Z" fill="#263238"/>
<path d="M186.524 93.2341C186.801 93.5525 187.143 93.8093 187.526 93.988C187.908 94.1666 188.324 94.2632 188.747 94.2715C189.115 94.286 189.484 94.2454 189.84 94.1511C189.91 94.1413 189.978 94.1226 190.044 94.0955C190.108 94.0856 190.17 94.0669 190.229 94.04C190.274 94.024 190.313 93.9937 190.34 93.9536C190.367 93.9135 190.38 93.8658 190.377 93.8176C190.377 93.8176 190.377 93.7621 190.377 93.725V93.6417C190.294 92.9562 190.072 91.928 190.072 91.928C190.34 92.0113 191.693 92.3911 191.618 92.0391C191.067 88.9714 190.208 85.9672 189.053 83.0723C189.053 82.9797 188.867 83.0724 188.895 83.1187C189.386 85.9625 190.368 88.6766 190.914 91.5296C190.428 91.3965 189.927 91.3249 189.423 91.3166C189.33 91.3629 189.896 93.2989 189.905 93.6139C189.353 93.7569 188.779 93.7871 188.215 93.7028C187.652 93.6184 187.111 93.4212 186.626 93.1229C186.514 93.1044 186.459 93.1692 186.524 93.2341Z" fill="#263238"/>
<path d="M189.386 93.8732C189.082 94.4175 188.645 94.8763 188.117 95.2071C187.835 95.3648 187.513 95.4357 187.191 95.4109C186.459 95.3368 186.338 94.6884 186.385 94.1141C186.41 93.7991 186.472 93.4883 186.57 93.1877C187.414 93.7045 188.399 93.9442 189.386 93.8732Z" fill="#263238"/>
<path d="M188.117 95.207C187.835 95.3648 187.513 95.4357 187.191 95.4108C186.459 95.3367 186.338 94.6883 186.385 94.114C186.753 94.0807 187.123 94.1698 187.436 94.3673C187.749 94.5648 187.988 94.8599 188.117 95.207Z" fill="#FF9BBC"/>
<path d="M175.056 91.0758C176.556 91.2981 177.529 86.7221 177.742 84.9899C177.927 83.4614 177.677 78.7465 177.696 78.4223C177.714 78.098 184.588 81.544 188.043 79.9229C191.498 78.3018 193.832 75.1616 193.647 73.6332C193.462 72.1048 188.089 69.4925 184.134 69.9279C180.178 70.3633 175.621 75.0968 175.621 75.0968C176.141 74.2752 176.596 73.4142 176.982 72.5216C176.324 72.7804 175.739 73.1984 175.282 73.7384C174.824 74.2783 174.508 74.9233 174.361 75.6155C174.361 75.6155 174.5 73.2905 174.305 73.2812C174.111 73.2719 172.453 75.4951 173.129 76.8846C173.129 76.8846 171.174 79.1911 171.276 81.368C171.378 83.5448 173.249 90.8257 175.056 91.0758Z" fill="#263238"/>
<path d="M190.46 78.7649C189.481 79.5118 188.394 80.1052 187.237 80.525C185.923 80.8536 184.549 80.8536 183.235 80.525C181.928 80.2361 180.676 79.7354 179.53 79.0428C178.502 78.4315 177.566 77.6626 176.492 77.1902C176.223 77.0605 176.001 77.4496 176.186 77.6534C178.154 79.6719 180.72 81.0035 183.504 81.4513C184.797 81.6632 186.122 81.5345 187.35 81.0781C188.578 80.6217 189.666 79.8532 190.507 78.8483C190.507 78.8483 190.479 78.7557 190.46 78.7649Z" fill="#263238"/>
<path d="M176.723 91.0758C176.723 91.0758 173.666 86.8981 171.767 88.0004C169.868 89.1027 172.23 95.1979 174.546 95.9853C174.831 96.1063 175.138 96.1684 175.448 96.1678C175.757 96.1672 176.064 96.1041 176.348 95.9821C176.633 95.8601 176.89 95.6817 177.104 95.4578C177.318 95.2339 177.485 94.9691 177.594 94.6792L176.723 91.0758Z" fill="#EB9481"/>
<path d="M172.49 89.7419C172.49 89.7419 172.49 89.7419 172.49 89.7975C173.223 90.1452 173.877 90.6418 174.408 91.2558C174.939 91.8699 175.336 92.5878 175.574 93.3639C175.478 93.2081 175.349 93.0749 175.196 92.9733C175.044 92.8717 174.871 92.8041 174.69 92.7752C174.509 92.7462 174.324 92.7564 174.147 92.8053C173.971 92.8541 173.807 92.9403 173.666 93.0582C173.658 93.062 173.652 93.0679 173.647 93.0753C173.643 93.0826 173.64 93.0912 173.64 93.0999C173.64 93.1086 173.643 93.1171 173.647 93.1244C173.652 93.1318 173.658 93.1377 173.666 93.1415C173.943 93.0493 174.242 93.0442 174.522 93.127C174.802 93.2099 175.049 93.3766 175.232 93.6047C175.532 93.9896 175.79 94.4058 176.001 94.846C176.084 94.9849 176.334 94.9015 176.278 94.7348C176.297 92.6784 174.657 89.8809 172.49 89.7419Z" fill="#263238"/>
<path d="M171.434 82.6369L165.663 78.0053C165.663 78.0053 171.508 67.223 174.389 65.148C174.389 65.148 181.253 64.1106 185.912 64.759L188.691 70.4836C188.691 70.4836 181.531 72.9662 179.901 74.1148C178.937 74.754 171.434 82.6369 171.434 82.6369Z" fill="#EBEBEB"/>
<path d="M188.654 70.4744C188.654 70.4744 181.494 72.9477 179.864 74.1056C178.937 74.7633 171.434 82.637 171.434 82.637L167.479 79.4597L166.747 78.8669L165.663 77.9961C165.663 77.9961 171.508 67.2138 174.389 65.1296C174.389 65.1296 181.253 64.0921 185.912 64.7498L186.385 65.7409L186.848 66.6672L188.654 70.4744Z" fill="#EBEBEB"/>
<path d="M179.864 74.1056C178.937 74.7633 171.434 82.637 171.434 82.637L167.479 79.4597L166.747 78.8668L165.663 77.9961C165.663 77.9961 171.499 67.2323 174.38 65.1388L179.864 74.1056Z" fill="#DBDBDB"/>
<path d="M186.811 66.6302C183.043 66.4734 179.269 66.6345 175.528 67.1119C173.546 68.9646 168.951 76.9494 167.515 79.5061L166.784 78.9225C168.358 76.1435 172.99 68.0475 175.019 66.3245L175.121 66.2412H175.26C178.943 65.7483 182.661 65.5655 186.375 65.6946L186.811 66.6302Z" fill="#07382F"/>
<path d="M189.46 106.638L186.681 114.502L176.64 105.128L174.046 108.389C174.046 108.389 184.124 123.534 184.152 122.83L187.061 116.021L191.859 120.468L190.988 108.833L189.46 106.638Z" fill="#EBEBEB"/>
<path d="M191.729 114.697C191.516 112.779 191.359 110.843 191.062 108.935C191.062 108.87 190.942 108.843 190.933 108.935C190.627 110.788 191.461 118.134 191.535 119.894C191.34 119.699 187.098 115.994 187.061 116.049C186.412 117.142 184.282 122.098 184.143 122.534C182.55 120.125 176.454 111.418 174.592 109.13C174.583 109.117 174.569 109.109 174.553 109.106C174.538 109.102 174.522 109.105 174.508 109.113C174.495 109.121 174.484 109.134 174.479 109.149C174.474 109.164 174.475 109.18 174.481 109.195C175.908 111.751 183.976 123.525 184.087 123.478C185.223 121.137 186.234 118.738 187.116 116.29C187.848 117.105 192.146 121.311 192.146 121.024C192.119 118.909 191.98 116.797 191.729 114.697Z" fill="#263238"/>
<path d="M187.44 117.309C187.44 117.309 191.146 108.444 192.341 111.464C192.715 112.258 192.925 113.12 192.957 113.997C192.989 114.875 192.842 115.749 192.526 116.568C192.526 116.568 194.49 119.81 193.452 120.727C192.415 121.644 187.894 120.181 187.681 119.319C187.537 118.659 187.456 117.985 187.44 117.309Z" fill="#07382F"/>
<path opacity="0.1" d="M187.44 117.309C187.471 117.984 187.567 118.654 187.728 119.31C187.857 119.727 188.969 120.283 190.21 120.644C190.372 119.792 190.456 118.927 190.46 118.059C190.46 116.994 189.071 115.688 188.432 115.123C187.848 116.327 187.44 117.309 187.44 117.309Z" fill="#050400"/>
<path d="M185.894 117.578C185.894 117.578 177.501 109.908 176.853 113.428C176.622 114.362 176.648 115.341 176.926 116.262C177.205 117.183 177.727 118.012 178.437 118.662C178.437 118.662 176.825 122.663 178.548 123.228C180.271 123.793 186.162 120.69 186.199 119.727C186.194 119 186.091 118.277 185.894 117.578Z" fill="#07382F"/>
<path opacity="0.1" d="M183.56 119.282C183.67 120.014 183.96 120.708 184.403 121.302C185.44 120.681 186.19 120.07 186.209 119.718C186.202 118.996 186.096 118.279 185.894 117.587C185.894 117.587 185.338 117.078 184.514 116.392C183.91 117.236 183.577 118.244 183.56 119.282Z" fill="#050400"/>
<path d="M184.532 118.986C184.605 119.49 184.826 119.961 185.167 120.34C185.508 120.718 185.954 120.987 186.447 121.112C186.941 121.238 187.461 121.214 187.941 121.043C188.421 120.873 188.84 120.564 189.145 120.156C189.449 119.748 189.626 119.258 189.652 118.75C189.679 118.241 189.554 117.736 189.293 117.298C189.032 116.86 188.647 116.51 188.187 116.291C187.728 116.072 187.213 115.994 186.709 116.068C186.033 116.166 185.425 116.529 185.016 117.076C184.608 117.623 184.434 118.31 184.532 118.986Z" fill="#07382F"/>
<path d="M165.301 116.503C152.546 134.205 131.732 177.742 129.101 183.3C127.304 187.052 152.676 194.027 153.509 191.303C154.575 187.802 168.395 135.724 172.962 119.458C175.445 110.464 170.832 108.833 165.301 116.503Z" fill="#EB9481"/>
<path d="M153.51 191.285C152.713 193.453 149.999 202.697 148.1 203.855C146.201 205.013 136.252 204.781 131.232 204.781C126.211 204.781 125.229 203.383 125.312 201.66C125.396 199.937 135.928 199.603 135.928 199.603C135.928 199.603 121.866 203.633 118.328 204.291C114.789 204.948 106.647 207.005 105.461 204.068C104.933 202.753 107.166 201.41 107.166 201.41C107.166 201.41 103.748 202.41 103.201 200.706C102.581 198.779 105.295 197.714 105.295 197.714C105.295 197.714 103.164 198.14 103.118 196.565C103.007 193.045 116.373 191.313 116.373 191.313C116.373 191.313 106.138 196.296 105.804 193.416C105.35 189.442 126.341 185.079 128.517 183.337C129.946 182.132 131.134 180.667 132.019 179.021L153.51 191.285Z" fill="#EB9481"/>
<path d="M125.387 202.503C125.356 202.257 125.383 202.007 125.467 201.773C125.55 201.54 125.688 201.33 125.868 201.16C126.227 200.828 126.641 200.562 127.091 200.372C128.016 199.971 128.978 199.661 129.963 199.446C131.936 198.946 133.964 198.594 135.984 198.066C133.897 198.038 131.815 198.271 129.787 198.76C128.754 199.001 127.759 199.384 126.832 199.9C126.354 200.165 125.935 200.525 125.6 200.956C125.436 201.174 125.331 201.431 125.293 201.702C125.256 201.972 125.288 202.248 125.387 202.503Z" fill="#263238"/>
<path d="M107.166 201.382C108.611 201.03 110.038 200.622 111.464 200.215C112.891 199.807 114.299 199.363 115.716 198.936L119.949 197.612C121.366 197.167 122.774 196.732 124.201 196.306C122.722 196.467 121.255 196.727 119.81 197.084C118.356 197.417 116.929 197.834 115.503 198.26C114.076 198.686 112.678 199.187 111.288 199.696C109.899 200.205 108.518 200.752 107.166 201.382Z" fill="#263238"/>
<path d="M120.801 192.786C119.437 192.877 118.081 193.066 116.744 193.351C115.405 193.622 114.082 193.962 112.779 194.37C111.475 194.776 110.195 195.256 108.944 195.805C107.687 196.332 106.47 196.951 105.304 197.658C106.591 197.204 107.851 196.732 109.139 196.287C110.426 195.842 111.695 195.407 112.992 195.018C114.289 194.629 115.577 194.231 116.873 193.851C118.17 193.471 119.476 193.147 120.801 192.786Z" fill="#263238"/>
<path d="M118.735 189.432C116.524 189.6 114.344 190.058 112.251 190.794C110.152 191.485 108.155 192.454 106.313 193.675C108.388 192.934 110.417 192.156 112.483 191.461C114.548 190.766 116.642 190.109 118.735 189.432Z" fill="#263238"/>
<path d="M128.304 180.855L155.112 191.563C155.112 191.563 172.823 125.22 174.074 117.8C175.324 110.38 173.648 105.211 165.663 114.808C159.484 122.237 128.304 180.855 128.304 180.855Z" fill="#EBEBEB"/>
<path d="M155.297 184.125C152.879 183.272 145.673 180.419 143.727 179.743C139.948 178.391 136.15 176.964 132.297 175.853C132.297 175.853 132.241 175.908 132.297 175.917C136.002 177.613 139.837 179.021 143.635 180.429C145.487 181.123 153.333 183.819 155.223 184.338C155.353 184.375 155.436 184.226 155.297 184.125Z" fill="#263238"/>
<path d="M165.932 150.536C166.284 148.6 166.7 146.683 167.136 144.775C167.571 142.866 168.062 140.958 168.516 139.05C168.97 137.142 169.507 135.261 170.045 133.372C170.582 131.482 171.138 129.611 171.767 127.74C171.415 129.676 170.999 131.593 170.563 133.51C170.128 135.428 169.637 137.318 169.183 139.226C168.729 141.134 168.192 143.015 167.645 144.904C167.099 146.794 166.562 148.674 165.932 150.536Z" fill="#263238"/>
<path d="M170.072 134.353C170.325 133.596 170.635 132.859 170.999 132.149C171.175 131.797 171.351 131.435 171.545 131.093C171.74 130.75 171.934 130.407 172.166 130.064C172.031 130.86 171.778 131.631 171.415 132.352C171.064 133.079 170.611 133.753 170.072 134.353Z" fill="#263238"/>
<path d="M243.455 132.241C243.455 132.241 247.911 126.684 250.421 124.627C252.931 122.571 265.02 118.495 266.057 121.061C267.391 124.368 260.879 128.119 257.443 129.537C257.443 129.537 260.546 137.188 256.442 140.893C252.338 144.599 243.455 132.241 243.455 132.241Z" fill="#EB9481"/>
<path d="M349.63 51.6794H72.5215C89.1026 23.1395 92.4466 0.176025 92.4466 0.176025H329.686C329.686 0.176025 333.03 23.1395 349.63 51.6794Z" fill="#07382F"/>
<path d="M129.981 0.176025C129.75 4.73418 129.274 9.2766 128.555 13.7837C128.231 16.0068 127.721 18.2022 127.295 20.3976C127.063 21.4999 126.748 22.5744 126.48 23.6675C126.211 24.7605 125.933 25.8536 125.554 26.9096C124.304 31.2223 122.792 35.4543 121.024 39.5817C120.098 41.6473 119.171 43.6945 118.245 45.7046C117.319 47.7147 116.133 49.6785 114.966 51.5868V51.6794V51.735H94.1235C95.4296 49.8823 96.5968 47.9556 97.7362 46.0196C98.8755 44.0836 100.033 42.0364 101.052 39.9707C103.147 35.8632 104.987 31.6313 106.564 27.2987C108.155 22.9791 109.428 18.5487 110.371 14.043C111.306 9.49269 111.823 4.86666 111.918 0.222341L129.981 0.176025Z" fill="#EBEBEB"/>
<path d="M164.598 0.176025C164.459 2.36214 164.366 4.65941 164.273 6.80847L163.875 13.2927C163.505 17.6186 163.254 21.9353 162.699 26.2612C162.449 28.4102 162.152 30.55 161.865 32.7454C161.578 34.9408 161.207 37.025 160.809 39.137C160.06 43.3914 158.972 47.5793 157.558 51.6609V51.7628H136.743C137.826 49.8728 138.792 47.9176 139.633 45.9084C140.56 43.852 141.31 41.7863 141.995 39.6835C143.384 35.4487 144.501 31.1294 145.339 26.7521C145.71 24.5753 146.127 22.3892 146.377 20.1938C146.516 19.0915 146.692 17.9984 146.784 16.8961L147.053 13.5799C147.155 12.4961 147.211 11.3752 147.238 10.2729L147.359 6.95668C147.359 4.74278 147.359 2.38993 147.257 0.194552L164.598 0.176025Z" fill="#EBEBEB"/>
<path d="M201.623 0.176025C201.437 2.57519 201.336 5.10404 201.178 7.49395L200.863 14.71C200.669 19.4805 200.585 24.2789 200.437 29.0587C200.289 33.8385 200.261 38.6368 200.261 43.4166C200.261 46.1956 200.261 48.9745 200.261 51.7535H179.326C179.743 49.6415 180.03 47.5295 180.317 45.4082C180.604 43.2869 180.882 41.1471 181.077 38.9981C181.457 34.737 181.818 30.4296 181.957 26.1408C182.096 21.8519 182.253 17.563 182.179 13.2557C182.179 11.1066 182.114 8.9668 182.05 6.77142C181.985 4.57604 181.874 2.35288 181.735 0.194552L201.623 0.176025Z" fill="#EBEBEB"/>
<path d="M221.863 51.6886C221.863 48.9096 221.863 46.1307 221.863 43.3517C221.863 38.5719 221.742 33.7829 221.687 28.9938C221.631 24.2047 221.455 19.4156 221.261 14.6451L220.946 7.46612C220.788 5.07621 220.686 2.54736 220.492 0.148193H240.361C240.222 2.30652 240.139 4.58527 240.046 6.72506C239.954 8.86486 239.935 11.0139 239.917 13.2093C239.843 17.5167 239.981 21.8055 240.139 26.0944C240.296 30.3833 240.639 34.6906 241.019 38.9517C241.21 41.1008 241.46 43.2375 241.769 45.3618C242.066 47.4831 242.353 49.5951 242.77 51.7071L221.863 51.6886Z" fill="#EBEBEB"/>
<path d="M264.603 51.6886V51.633C263.195 47.5499 262.111 43.3624 261.361 39.1092C260.963 36.9972 260.62 34.8481 260.305 32.7176C259.99 30.5871 259.721 28.4287 259.471 26.2334C258.915 21.9445 258.665 17.6278 258.295 13.2649L257.896 6.78064C257.804 4.63158 257.711 2.33431 257.572 0.148193H274.913C274.848 2.34357 274.802 4.69642 274.811 6.91033L274.932 10.2266C274.932 11.3289 275.015 12.4497 275.117 13.5335L275.385 16.8497C275.478 17.9521 275.654 19.0451 275.793 20.1474C276.043 22.3428 276.46 24.5289 276.83 26.7058C277.671 31.0643 278.788 35.3649 280.174 39.5816C280.86 41.6844 281.647 43.7501 282.537 45.8065C283.378 47.8157 284.343 49.7709 285.427 51.6608L264.603 51.6886Z" fill="#EBEBEB"/>
<path d="M307.232 51.6886V51.6331L307.186 51.5404C306.019 49.6322 304.935 47.6684 303.907 45.6583C302.879 43.6482 301.989 41.601 301.128 39.5353C299.356 35.4096 297.843 31.1774 296.598 26.8633C296.255 25.8073 295.978 24.7142 295.672 23.6212C295.366 22.5281 295.088 21.4536 294.857 20.3513C294.431 18.1559 293.93 15.9605 293.597 13.7373C292.88 9.24561 292.404 4.71869 292.17 0.176025H310.234C310.328 4.82035 310.846 9.44637 311.781 13.9967C312.724 18.5024 313.996 22.9328 315.588 27.2523C317.18 31.586 319.036 35.818 321.146 39.9244C322.165 41.9901 323.285 44.0002 324.462 45.9733C325.638 47.9463 326.768 49.836 328.075 51.6886H307.232Z" fill="#EBEBEB"/>
<path d="M349.621 51.6793H72.5308V62.4339H349.621V51.6793Z" fill="#07382F"/>
<path d="M115.142 62.4246H93.8271L94.1421 51.6886H114.827L115.142 62.4246Z" fill="#EBEBEB"/>
<path d="M157.771 62.4246H136.456L136.78 51.6886H157.456L157.771 62.4246Z" fill="#EBEBEB"/>
<path d="M200.409 62.4246H179.095L179.41 51.6886H200.085L200.409 62.4246Z" fill="#EBEBEB"/>
<path d="M243.039 62.4246H221.715L222.039 51.6886H242.724L243.039 62.4246Z" fill="#EBEBEB"/>
<path d="M285.343 51.6886H264.668L264.353 62.4246H285.658L285.343 51.6886ZM285.408 59.8587V60.007V59.9421C285.412 59.9144 285.412 59.8864 285.408 59.8587Z" fill="#EBEBEB"/>
<path d="M285.445 59.8588V60.007V59.9421C285.449 59.9145 285.449 59.8864 285.445 59.8588Z" fill="#07382F"/>
<path d="M327.982 51.6886H307.297L306.982 62.4246H328.288L327.982 51.6886ZM328.028 59.8587H328.084V60.0162C328.084 60.0162 328.084 60.0162 328.084 59.9421C328.069 59.9123 328.05 59.8843 328.028 59.8587Z" fill="#EBEBEB"/>
<path d="M328.084 59.8588V60.0162C328.084 60.0162 328.084 60.0162 328.084 59.9421C328.069 59.9123 328.05 59.8843 328.028 59.8588H328.084Z" fill="#07382F"/>
<g opacity="0.1">
<path d="M111.918 0.176025C111.823 4.82035 111.305 9.44637 110.371 13.9967C109.428 18.5024 108.155 22.9328 106.564 27.2523C104.987 31.5849 103.146 35.8169 101.052 39.9244C100.033 41.9901 98.9123 44.0002 97.7359 45.9733C96.5594 47.9463 95.4293 49.836 94.1232 51.6886C94.1232 51.6886 94.1232 51.6886 94.0677 51.7535C94.0707 51.775 94.0707 51.7968 94.0677 51.8183V51.6886H93.6045V51.6331L93.6508 51.5404C96.0314 47.6592 98.1527 43.5834 100.135 39.4983C102.117 35.4132 103.84 31.1614 105.498 26.9003C107.102 22.6098 108.457 18.2303 109.556 13.7837L110.325 10.4489C110.575 9.34659 110.723 8.19795 110.954 7.0771C111.445 4.87246 111.566 2.46403 111.918 0.176025Z" fill="black"/>
<path d="M129.388 13.8484C128.834 18.3537 127.924 22.8078 126.665 27.1689C125.456 31.544 123.907 35.818 122.033 39.9521C120.213 44.058 118.018 47.9869 115.475 51.6886V51.7349V51.6515H115.002V51.596V51.5033C116.17 49.5951 117.253 47.6313 118.282 45.6212C119.31 43.6111 120.199 41.5639 121.061 39.4982C122.828 35.3709 124.341 31.1389 125.59 26.8262C125.933 25.7702 126.211 24.6771 126.517 23.5841C126.822 22.491 127.1 21.4165 127.332 20.3142C127.758 18.1188 128.258 15.9234 128.592 13.7002C129.309 9.2085 129.785 4.68158 130.018 0.138916C130.172 4.71823 129.961 9.30252 129.388 13.8484Z" fill="black"/>
<path d="M201.771 14.71C201.771 19.5083 201.65 24.2789 201.595 29.0772C201.539 33.8755 201.363 38.6461 201.159 43.4351C201.048 46.2141 200.928 48.9931 200.78 51.7164H200.289C200.289 48.9375 200.289 46.1585 200.289 43.3796C200.289 38.5998 200.409 33.8107 200.465 29.0216C200.52 24.2325 200.696 19.4435 200.891 14.6729L201.206 7.49395C201.363 5.10404 201.465 2.57519 201.65 0.176025C201.734 2.57519 201.734 5.11331 201.78 7.51247L201.771 14.71Z" fill="black"/>
<path d="M221.89 43.4258C221.89 46.2048 221.89 48.9837 221.89 51.7627H221.372C221.223 48.9837 221.103 46.2048 220.992 43.4814C220.788 38.6923 220.705 33.9125 220.547 29.1234C220.39 24.3344 220.445 19.4804 220.38 14.7099V7.54018C220.427 5.14102 220.427 2.6029 220.501 0.203735C220.695 2.6029 220.797 5.13176 220.955 7.52166L221.27 14.7006C221.464 19.4712 221.548 24.2695 221.696 29.0493C221.844 33.8291 221.89 38.5997 221.89 43.4258Z" fill="black"/>
<path d="M181.984 26.0759C181.846 30.3647 181.484 34.6721 181.104 38.9332C180.907 41.0822 180.654 43.219 180.345 45.3433C180.058 47.4646 179.771 49.5766 179.354 51.6886H178.854V51.633C179.419 47.3997 179.78 43.1201 180.086 38.8498C180.391 34.5795 180.614 30.3091 180.873 26.0203C181.132 21.7314 181.197 17.4704 181.382 13.1908L181.762 0.22229C181.901 2.38061 181.984 4.65936 182.077 6.79916C182.17 8.93896 182.188 11.088 182.207 13.2834C182.281 17.4889 182.142 21.787 181.984 26.0759Z" fill="black"/>
<path d="M164.774 6.81771C164.774 9.00383 164.774 11.1714 164.7 13.3483C164.588 17.6927 164.273 22.0279 163.773 26.3167C163.332 30.6479 162.657 34.9523 161.754 39.2111C161.328 41.3509 160.781 43.4629 160.17 45.5564C159.597 47.6353 158.873 49.6694 158.002 51.6423V51.5867H157.53V51.4848C158.945 47.4033 160.032 43.2154 160.781 38.961C161.179 36.849 161.522 34.6999 161.837 32.5694C162.152 30.4389 162.421 28.2805 162.671 26.0852C163.227 21.7963 163.477 17.4796 163.847 13.1167L164.246 6.63245C164.338 4.48339 164.431 2.18611 164.57 0C164.681 2.36211 164.727 4.65939 164.774 6.81771Z" fill="black"/>
<path d="M147.359 6.93816L147.266 10.2544C147.266 11.3567 147.183 12.4775 147.081 13.5613L146.812 16.8776C146.719 17.9799 146.543 19.0729 146.404 20.1753C146.154 22.3706 145.738 24.5568 145.367 26.7336C144.526 31.0921 143.41 35.3927 142.023 39.6094C141.338 41.7122 140.55 43.7779 139.661 45.8343C138.819 47.8435 137.854 49.7987 136.771 51.6886C136.768 51.7102 136.768 51.732 136.771 51.7535C136.771 51.7535 136.771 51.7535 136.771 51.7998V51.6886H136.298V51.6331V51.559C138.217 47.6063 139.812 43.5047 141.069 39.2945C142.394 35.0983 143.366 30.8279 144.283 26.5205C145.2 22.2132 145.775 17.8502 146.275 13.4965C146.58 11.3104 146.655 9.11501 146.877 6.91963C147.099 4.72425 147.127 2.3714 147.303 0.176025C147.322 2.3714 147.368 4.72425 147.359 6.93816Z" fill="black"/>
<path d="M328.537 51.6886H328.084V51.8183C328.08 51.7968 328.08 51.775 328.084 51.7535C328.084 51.7535 328.084 51.7535 328.028 51.6886C326.722 49.836 325.555 47.9093 324.415 45.9733C323.276 44.0373 322.118 41.9901 321.099 39.9244C318.989 35.818 317.133 31.586 315.541 27.2523C313.95 22.9328 312.677 18.5024 311.734 13.9967C310.8 9.44637 310.282 4.82035 310.187 0.176025C310.539 2.46403 310.659 4.87246 311.113 7.10489C311.345 8.22574 311.493 9.37438 311.743 10.4767L312.512 13.8114C313.61 18.2422 314.961 22.6062 316.56 26.8818C318.2 31.1429 319.913 35.3762 321.923 39.4798C323.934 43.5834 326.036 47.6592 328.408 51.5219V51.6145L328.537 51.6886Z" fill="black"/>
<path d="M307.232 51.6886H306.76V51.772V51.7257C304.213 48.0261 302.018 44.0969 300.202 39.9892C298.294 35.8459 296.714 31.5593 295.477 27.169C292.951 18.4033 291.832 9.29244 292.161 0.176025C292.405 4.73485 292.893 9.27728 293.625 13.7837C293.949 16.0068 294.458 18.2022 294.885 20.3976C295.116 21.4999 295.431 22.5744 295.7 23.6675C295.968 24.7605 296.246 25.8536 296.626 26.9096C297.871 31.2237 299.384 35.4559 301.156 39.5817C302.082 41.6473 303.008 43.6945 303.935 45.7046C304.861 47.7147 306.047 49.6785 307.214 51.5868L307.26 51.6794L307.232 51.6886Z" fill="black"/>
<path d="M243.298 51.633V51.6886H242.798C242.381 49.5766 242.094 47.4646 241.797 45.3433C241.501 43.222 241.241 41.0822 241.047 38.9332C240.667 34.6721 240.306 30.3647 240.167 26.0758C240.028 21.787 239.898 17.4889 239.945 13.1907C239.945 11.0417 240.009 8.90189 240.074 6.70651C240.139 4.51113 240.25 2.28796 240.389 0.129639L240.769 13.0981C240.954 17.3777 241.038 21.6666 241.279 25.9276C241.519 30.1887 241.714 34.4868 242.066 38.7572C242.418 43.0275 242.733 47.3997 243.298 51.633Z" fill="black"/>
<path d="M264.603 51.6887H264.121V51.7443C263.251 49.7714 262.527 47.7373 261.954 45.6584C261.343 43.5649 260.796 41.4529 260.37 39.3131C259.466 35.0542 258.792 30.7499 258.351 26.4187C257.887 22.0835 257.572 17.7483 257.424 13.4502C257.424 11.2734 257.35 9.10578 257.35 6.91967C257.35 4.73355 257.443 2.46407 257.526 0.277954C257.665 2.46407 257.758 4.76134 257.85 6.91041L258.249 13.3946C258.619 17.7206 258.869 22.0372 259.425 26.3631C259.675 28.5122 259.972 30.652 260.259 32.8474C260.546 35.0427 260.916 37.1269 261.315 39.239C262.065 43.4922 263.149 47.6797 264.557 51.7628V51.8184L264.603 51.6887Z" fill="black"/>
<path d="M285.918 51.6886H285.445V51.7998C285.445 51.7998 285.445 51.7998 285.445 51.7535C285.448 51.732 285.448 51.7102 285.445 51.6886C284.346 49.7998 283.365 47.8446 282.509 45.8343C281.582 43.7779 280.832 41.7122 280.147 39.6094C278.764 35.3986 277.65 31.1042 276.812 26.7521C276.441 24.5753 276.024 22.3892 275.774 20.1938C275.635 19.0915 275.459 17.9984 275.367 16.8961L275.098 13.5613C274.996 12.4775 274.941 11.3567 274.913 10.2544L274.792 6.93816C274.792 4.72425 274.792 2.3714 274.894 0.176025C275.07 2.3714 275.135 4.72425 275.311 6.91963C275.487 9.11501 275.617 11.3104 275.923 13.4965C276.423 17.8502 277.062 22.2132 277.914 26.5205C278.766 30.8279 279.767 35.0983 281.129 39.2945C282.385 43.5047 283.98 47.6063 285.899 51.559V51.6331L285.918 51.6886Z" fill="black"/>
</g>
<g opacity="0.1">
<path d="M264.122 59.8588V59.9699C264.122 59.9699 264.122 59.9699 264.122 59.9051C264.122 59.8897 264.122 59.8742 264.122 59.8588Z" fill="black"/>
<path d="M285.474 60.007V59.9421C285.477 59.9145 285.477 59.8864 285.474 59.8588V60.007Z" fill="black"/>
<path d="M306.76 59.8588L306.807 60.0162C306.807 60.0162 306.807 59.9514 306.76 59.9236V59.8588Z" fill="black"/>
<path d="M328.121 60.0162C328.121 60.0162 328.121 60.0162 328.121 59.9421C328.106 59.9123 328.087 59.8843 328.065 59.8588H328.121V60.0162Z" fill="black"/>
<path d="M94.1421 51.6886L93.8272 62.4246L93.5122 51.6886H94.1421Z" fill="black"/>
<path d="M115.457 51.6886L115.142 62.4246L114.827 51.6886H115.457Z" fill="black"/>
<path d="M136.781 51.6886L136.457 62.4246L136.142 51.6886H136.781Z" fill="black"/>
<path d="M158.086 51.6886L157.771 62.4246L157.456 51.6886H158.086Z" fill="black"/>
<path d="M179.41 51.6886L179.095 62.4246L178.771 51.6886H179.41Z" fill="black"/>
<path d="M200.725 51.6886L200.41 62.4246L200.085 51.6886H200.725Z" fill="black"/>
<path d="M222.039 51.6886L221.715 62.4246L221.4 51.6886H222.039Z" fill="black"/>
<path d="M243.354 51.6886L243.039 62.4246L242.724 51.6886H243.354Z" fill="black"/>
<path d="M264.668 51.6886L264.354 62.4246L264.039 51.6886H264.668Z" fill="black"/>
<path d="M285.983 51.6886L285.668 62.4246L285.344 51.6886H285.983Z" fill="black"/>
<path d="M307.297 51.6886L306.982 62.4246L306.667 51.6886H307.297Z" fill="black"/>
<path d="M328.621 51.6886L328.297 62.4246L327.982 51.6886H328.621Z" fill="black"/>
</g>
<g opacity="0.1">
<path d="M349.621 51.6793H72.5308V62.4339H349.621V51.6793Z" fill="black"/>
</g>
<path d="M103.544 62.434H97.8286V206.208H103.544V62.434Z" fill="#455A64"/>
<path d="M103.544 201.021H97.8286V206.208H103.544V201.021Z" fill="#37474F"/>
<path d="M324.323 62.434H318.608V206.208H324.323V62.434Z" fill="#455A64"/>
<path d="M324.323 201.021H318.608V206.208H324.323V201.021Z" fill="#37474F"/>
<path d="M330.872 205.578H91.2798V315.078H330.872V205.578Z" fill="#37474F"/>
<path d="M109.621 256.711C109.621 261.472 109.491 266.215 109.139 270.948C108.926 273.32 108.648 275.682 108.472 278.044C108.296 280.406 108.213 282.787 108.157 285.158C108.064 289.91 107.851 294.653 107.574 299.386C107.296 304.12 106.851 308.863 106.258 313.578H106.166C106.166 308.826 106.295 304.083 106.527 299.34C106.758 294.597 107.157 289.864 107.62 285.14C107.842 282.768 108.037 280.406 108.148 278.035C108.259 275.663 108.25 273.283 108.324 270.911C108.528 266.169 108.907 261.435 109.519 256.72L109.621 256.711Z" fill="#263238"/>
<path d="M99.6908 256.989C100.617 261.667 101.219 266.363 101.692 271.087C101.895 273.459 102.025 275.83 102.266 278.192C102.507 280.554 102.84 282.907 103.192 285.251C103.933 289.947 104.545 294.653 105.091 299.368C105.638 304.083 106.018 308.816 106.258 313.568H106.166C105.304 308.89 104.647 304.194 104.044 299.479C103.442 294.764 103.026 290.04 102.664 285.306C102.47 282.935 102.247 280.573 101.951 278.22C101.655 275.867 101.219 273.524 100.876 271.18C100.256 266.465 99.8112 261.741 99.5981 256.989H99.6908Z" fill="#263238"/>
<path d="M89.9642 258.98C91.6409 263.436 93.0952 267.957 94.3828 272.523C94.9942 274.811 95.5407 277.155 96.1799 279.415C96.819 281.675 97.5601 283.954 98.3196 286.205C99.8573 290.698 101.284 295.227 102.646 299.776C104.007 304.324 105.202 308.928 106.258 313.559H106.166C104.507 309.104 103.044 304.583 101.636 300.053C100.228 295.524 98.9866 290.938 97.8102 286.335C97.2081 284.037 96.5782 281.749 95.8742 279.48C95.1702 277.21 94.3457 274.978 93.5954 272.727C92.1689 268.197 90.9091 263.621 89.8901 258.98H89.9642Z" fill="#263238"/>
<path d="M80.7289 262.63C83.1558 266.724 85.3605 270.921 87.4354 275.2C88.4359 277.349 89.3714 279.535 90.3997 281.684C91.4279 283.834 92.5487 285.918 93.6881 288.002C95.9854 292.161 98.1715 296.339 100.302 300.618C102.433 304.898 104.406 309.178 106.258 313.587L106.166 313.633C103.757 309.53 101.534 305.296 99.3572 301.119C97.1803 296.941 95.1702 292.597 93.2064 288.271C92.2245 286.112 91.2056 283.963 90.1125 281.861C89.0194 279.758 87.8245 277.692 86.7036 275.608C84.5083 271.393 82.4704 267.104 80.6455 262.713L80.7289 262.63Z" fill="#263238"/>
<path d="M72.2347 267.827C75.3378 271.439 78.2465 275.191 81.0162 279.044C82.3779 280.99 83.6747 282.981 85.0642 284.908C86.4537 286.835 87.9173 288.697 89.3994 290.559C92.3821 294.264 95.2722 298.025 98.1068 301.832C100.941 305.639 103.665 309.548 106.212 313.55L106.138 313.605C103.053 309.983 100.126 306.241 97.2545 302.49C94.383 298.738 91.6503 294.829 88.9177 290.901C87.5745 288.947 86.2036 287.011 84.7585 285.121C83.3134 283.231 81.785 281.416 80.3122 279.563C77.4221 275.793 74.6709 271.921 72.105 267.919L72.2347 267.827Z" fill="#263238"/>
<path d="M64.8241 274.413C68.5294 277.433 72.0216 280.628 75.4212 283.935C77.0978 285.612 78.7282 287.354 80.4233 289.012C82.1185 290.67 83.897 292.254 85.6756 293.819C89.2604 296.941 92.7526 300.155 96.2078 303.416C99.663 306.677 102.988 310.048 106.231 313.541L106.156 313.615C102.498 310.576 98.9682 307.399 95.4853 304.175C92.0023 300.952 88.6305 297.608 85.2958 294.208C83.6284 292.522 81.9425 290.846 80.201 289.243C78.4595 287.641 76.6254 286.112 74.8469 284.528C71.3547 281.323 67.9736 277.988 64.75 274.487L64.8241 274.413Z" fill="#263238"/>
<path d="M58.6733 282.194C62.8232 284.528 66.8341 287.057 70.7154 289.725C72.6607 291.096 74.5596 292.504 76.5234 293.856C78.4872 295.209 80.5066 296.45 82.5352 297.682C86.6018 300.137 90.6035 302.693 94.5774 305.306C98.5513 307.918 102.414 310.66 106.203 313.531L106.147 313.615C102.016 311.271 97.9863 308.751 93.9938 306.204C90.0014 303.657 86.1294 300.943 82.2759 298.164C80.3491 296.783 78.3946 295.385 76.3937 294.153C74.3929 292.921 72.3272 291.689 70.3078 290.447C66.3061 287.9 62.3971 285.204 58.6177 282.314L58.6733 282.194Z" fill="#263238"/>
<path d="M53.9487 290.929C58.4321 292.504 62.8321 294.301 67.158 296.246C69.3071 297.256 71.4284 298.331 73.6423 299.303C75.8562 300.276 78.0145 301.156 80.2192 302.027C84.6562 303.74 89.0377 305.565 93.3914 307.445C97.7451 309.326 102.043 311.364 106.277 313.531V313.624C101.793 312.021 97.3931 310.243 93.0116 308.409C88.6301 306.575 84.332 304.574 80.0431 302.527C77.9033 301.498 75.745 300.507 73.5589 299.6C71.3728 298.692 69.1311 297.877 66.9265 296.997C62.545 295.144 58.2191 293.208 53.958 291.022L53.9487 290.929Z" fill="#263238"/>
<path d="M50.809 300.35C55.5054 301.119 60.1463 302.128 64.7038 303.296C67.001 303.907 69.2798 304.602 71.5771 305.148C73.8743 305.695 76.2087 306.223 78.5337 306.686C83.1653 307.612 87.7969 308.631 92.4285 309.733C97.0601 310.836 101.627 312.086 106.166 313.494V313.587C101.469 312.79 96.8285 311.808 92.1969 310.752C87.5653 309.696 82.9337 308.492 78.404 307.214C76.116 306.584 73.7724 305.982 71.503 305.454C69.2335 304.926 66.8714 304.528 64.5185 304.055C59.8869 303.027 55.2553 301.832 50.7441 300.405L50.809 300.35Z" fill="#263238"/>
<path d="M49.3545 310.206C54.1065 310.15 58.8585 310.335 63.592 310.687C65.9541 310.901 68.3162 311.178 70.6784 311.354C73.0405 311.53 75.4211 311.614 77.7925 311.669C82.5445 311.762 87.2873 311.975 92.03 312.244C96.7728 312.512 101.497 312.975 106.212 313.559V313.661C101.451 313.661 96.7079 313.531 91.9652 313.3C87.2224 313.068 82.4889 312.67 77.7647 312.207C75.4026 311.984 73.0312 311.79 70.6598 311.679C68.2884 311.567 65.9171 311.577 63.5364 311.503C58.7937 311.299 54.0694 310.919 49.3452 310.308L49.3545 310.206Z" fill="#263238"/>
<path d="M49.623 320.099C54.2546 319.219 59.0066 318.57 63.7309 318.098C66.093 317.894 68.4644 317.765 70.8265 317.524C73.1886 317.283 75.5414 316.949 77.8943 316.597C82.5815 315.866 87.2872 315.254 92.0021 314.745C96.7171 314.235 101.46 313.818 106.203 313.568V313.67C101.525 314.532 96.819 315.189 92.1133 315.792C87.4076 316.394 82.6741 316.81 77.9314 317.172C75.5692 317.366 73.2071 317.589 70.845 317.885C68.4829 318.181 66.1578 318.617 63.805 318.96C59.0993 319.571 54.3751 320.025 49.6138 320.238L49.623 320.099Z" fill="#263238"/>
<path d="M51.6147 329.825C56.0703 328.149 60.5908 326.694 65.1575 325.407C67.4548 324.795 69.7891 324.249 72.0494 323.61C74.3096 322.97 76.5976 322.22 78.8485 321.461C83.3412 319.923 87.8709 318.506 92.4191 317.144C96.9673 315.782 101.562 314.587 106.203 313.531V313.624C101.738 315.282 97.2267 316.746 92.6878 318.154C88.1488 319.562 83.5728 320.803 78.969 321.979C76.6717 322.581 74.3374 323.202 72.1142 323.915C69.891 324.629 67.6215 325.444 65.3613 326.194C60.8409 327.611 56.2649 328.88 51.6147 329.899V329.825Z" fill="#263238"/>
<path d="M55.2642 339.061C59.3585 336.634 63.601 334.429 67.8343 332.354C69.9926 331.354 72.1788 330.418 74.3186 329.39C76.4583 328.362 78.5518 327.232 80.636 326.101C84.7952 323.804 88.9729 321.618 93.2525 319.487C97.5321 317.357 101.812 315.375 106.221 313.531V313.624C102.127 316.023 97.9304 318.255 93.7064 320.423C89.4824 322.591 85.1935 324.619 80.8584 326.583C78.7 327.565 76.5602 328.584 74.4482 329.668C72.3362 330.752 70.2891 331.956 68.1956 333.086C63.9808 335.281 59.692 337.319 55.3012 339.144L55.2642 339.061Z" fill="#263238"/>
<path d="M60.4702 347.518C64.0736 344.415 67.8252 341.506 71.6787 338.727C73.6239 337.375 75.6155 336.069 77.5423 334.688C79.469 333.308 81.3402 331.835 83.1928 330.353C86.8981 327.37 90.659 324.48 94.4661 321.646C98.2733 318.811 102.182 316.088 106.184 313.531L106.24 313.615C102.618 316.699 98.8291 319.617 95.1238 322.489C91.4186 325.36 87.4632 328.102 83.5448 330.779C81.5903 332.132 79.6543 333.503 77.7646 334.939C75.8749 336.374 74.0593 337.921 72.2067 339.394C68.4366 342.275 64.5738 345.035 60.5628 347.592L60.4702 347.518Z" fill="#263238"/>
<path d="M67.0562 354.947C70.076 351.242 73.2625 347.749 76.5694 344.35C78.2554 342.673 79.9876 341.043 81.6457 339.339C83.3038 337.634 84.8878 335.874 86.4533 334.096C89.575 330.511 92.7893 327.018 96.05 323.563C99.3106 320.108 102.692 316.773 106.175 313.541L106.249 313.605C103.22 317.311 100.042 320.803 96.8188 324.286C93.5952 327.769 90.2419 331.141 86.8516 334.475C85.1564 336.143 83.4891 337.829 81.8773 339.57C80.2655 341.312 78.7463 343.146 77.1716 344.915C73.9572 348.416 70.6317 351.798 67.1303 355.021L67.0562 354.947Z" fill="#263238"/>
<path d="M74.8374 361.153C77.1625 357.004 79.6913 352.983 82.3684 349.111C83.7301 347.166 85.1473 345.267 86.4905 343.303C87.8337 341.34 89.0842 339.32 90.3162 337.291C92.771 333.225 95.3276 329.223 97.9398 325.249C100.552 321.275 103.294 317.413 106.175 313.624L106.258 313.68C103.905 317.811 101.386 321.84 98.8476 325.833C96.3095 329.825 93.5676 333.725 90.7979 337.579C89.4177 339.515 88.0653 341.469 86.7869 343.47C85.5086 345.471 84.3229 347.527 83.0817 349.556C80.525 353.558 77.8294 357.467 74.9393 361.246L74.8374 361.153Z" fill="#263238"/>
<path d="M83.5635 365.841C85.1475 361.357 86.9353 356.957 88.8806 352.631C89.8902 350.473 90.9648 348.352 91.9374 346.193C92.91 344.035 93.7901 341.821 94.6608 339.607C96.3745 335.179 98.1993 330.798 100.08 326.435C101.96 322.072 103.998 317.792 106.166 313.559H106.258C104.665 318.042 102.887 322.442 101.043 326.815C99.1998 331.187 97.2174 335.504 95.161 339.783C94.142 341.923 93.1509 344.081 92.2338 346.267C91.3168 348.454 90.5109 350.695 89.6401 352.9C87.7875 357.281 85.8422 361.598 83.6561 365.868L83.5635 365.841Z" fill="#263238"/>
<path d="M92.9839 368.981C93.762 364.284 94.7624 359.644 95.9296 355.04C96.5502 352.752 97.2357 350.473 97.7822 348.176C98.3288 345.878 98.8568 343.544 99.3199 341.219C100.246 336.587 101.274 331.956 102.368 327.324C103.461 322.693 104.72 318.126 106.128 313.587H106.221C105.434 318.274 104.442 322.924 103.442 327.556C102.442 332.187 101.173 336.773 99.8942 341.349C99.2643 343.637 98.6622 345.934 98.1435 348.25C97.6248 350.566 97.2172 352.881 96.7355 355.234C95.7073 359.866 94.5123 364.497 93.0951 369.009L92.9839 368.981Z" fill="#263238"/>
<path d="M102.803 370.417C102.747 365.655 102.923 360.913 103.275 356.179C103.489 353.817 103.766 351.455 103.942 349.083C104.118 346.712 104.202 344.35 104.257 341.969C104.35 337.227 104.563 332.484 104.841 327.741C105.119 322.998 105.563 318.274 106.156 313.55H106.249C106.249 318.311 106.119 323.054 105.888 327.797C105.656 332.539 105.258 337.264 104.795 341.997C104.572 344.359 104.378 346.721 104.267 349.093C104.155 351.464 104.165 353.845 104.1 356.216C103.887 360.959 103.507 365.692 102.896 370.417H102.803Z" fill="#263238"/>
<path d="M112.733 370.166C111.853 365.489 111.214 360.783 110.732 356.059C110.528 353.697 110.399 351.316 110.158 348.954C109.917 346.592 109.584 344.248 109.232 341.895C108.5 337.208 107.879 332.493 107.333 327.778C106.786 323.063 106.406 318.33 106.166 313.578H106.258C107.12 318.256 107.777 322.961 108.379 327.667C108.982 332.373 109.408 337.106 109.769 341.849C109.954 344.211 110.176 346.573 110.482 348.926C110.788 351.279 111.205 353.622 111.547 355.975C112.168 360.681 112.613 365.405 112.835 370.166H112.733Z" fill="#263238"/>
<path d="M122.459 368.175C120.783 363.719 119.329 359.199 118.041 354.632C117.43 352.335 116.892 350.001 116.244 347.731C115.595 345.462 114.864 343.192 114.104 340.941C112.566 336.448 111.14 331.919 109.778 327.371C108.416 322.822 107.222 318.228 106.166 313.587H106.258C107.916 318.052 109.389 322.563 110.788 327.102C112.187 331.641 113.437 336.217 114.623 340.821C115.216 343.118 115.846 345.452 116.55 347.675C117.254 349.899 118.078 352.168 118.828 354.419C120.255 358.949 121.515 363.525 122.534 368.175H122.459Z" fill="#263238"/>
<path d="M131.695 364.525C129.268 360.431 127.063 356.188 124.988 351.955C123.988 349.797 123.052 347.611 122.024 345.471C120.996 343.331 119.875 341.237 118.736 339.163C116.438 334.994 114.252 330.826 112.122 326.546C109.991 322.266 108.018 317.978 106.166 313.578L106.258 313.531C108.667 317.635 110.89 321.868 113.067 326.055C115.243 330.242 117.254 334.568 119.217 338.894C120.209 341.061 121.218 343.201 122.311 345.313C123.404 347.425 124.599 349.472 125.72 351.566C127.916 355.781 129.953 360.07 131.778 364.46L131.695 364.525Z" fill="#263238"/>
<path d="M140.152 359.301C137.058 355.697 134.14 351.946 131.371 348.092C130.009 346.147 128.712 344.155 127.323 342.229C125.933 340.302 124.47 338.431 122.987 336.578C120.005 332.873 117.115 329.112 114.289 325.305C111.464 321.498 108.731 317.579 106.175 313.587L106.249 313.531C109.334 317.153 112.261 320.895 115.132 324.647C118.004 328.399 120.737 332.308 123.423 336.226C124.766 338.181 126.137 340.117 127.582 342.006C129.027 343.896 130.556 345.712 132.028 347.564C134.918 351.334 137.67 355.197 140.236 359.208L140.152 359.301Z" fill="#263238"/>
<path d="M147.581 352.733C143.876 349.713 140.384 346.527 136.984 343.22C135.308 341.534 133.677 339.802 131.982 338.144C130.287 336.485 128.508 334.901 126.73 333.336C123.154 330.205 119.643 327.006 116.198 323.739C112.789 320.442 109.417 317.098 106.175 313.615L106.249 313.541C109.908 316.57 113.437 319.747 116.929 322.97C120.422 326.194 123.775 329.547 127.119 332.938C128.786 334.633 130.472 336.3 132.223 337.912C133.974 339.524 135.789 341.043 137.568 342.618C141.06 345.832 144.45 349.157 147.665 352.659L147.581 352.733Z" fill="#263238"/>
<path d="M153.751 344.952C149.61 342.618 145.59 340.089 141.662 337.421C139.717 336.059 137.818 334.642 135.854 333.299C133.89 331.956 131.88 330.705 129.852 329.473C125.785 327.018 121.783 324.462 117.809 321.85C113.835 319.237 109.963 316.486 106.175 313.615L106.23 313.531C110.371 315.884 114.391 318.404 118.384 320.942C122.376 323.48 126.276 326.222 130.139 328.992C132.075 330.372 134.02 331.715 136.021 333.002C138.022 334.29 140.087 335.457 142.107 336.708C146.108 339.264 150.018 341.951 153.797 344.841L153.751 344.952Z" fill="#263238"/>
<path d="M158.484 336.226C153.991 334.642 149.591 332.854 145.265 330.9C143.116 329.899 140.995 328.825 138.781 327.852C136.567 326.88 134.418 326 132.204 325.129C127.767 323.415 123.386 321.59 119.032 319.71C114.678 317.829 110.38 315.791 106.147 313.624V313.531C110.63 315.125 115.03 316.903 119.412 318.746C123.793 320.59 128.101 322.572 132.38 324.629C134.529 325.648 136.678 326.639 138.865 327.556C141.051 328.473 143.292 329.269 145.497 330.149C149.888 332.002 154.204 333.938 158.465 336.133L158.484 336.226Z" fill="#263238"/>
<path d="M161.615 326.805C156.928 326.027 152.287 325.027 147.72 323.86C145.423 323.239 143.154 322.554 140.847 322.007C138.541 321.461 136.215 320.933 133.9 320.469C129.268 319.543 124.636 318.515 120.005 317.422C115.373 316.329 110.807 315.06 106.258 313.661V313.568C110.955 314.356 115.596 315.347 120.227 316.394C124.859 317.44 129.444 318.663 134.02 319.941C136.308 320.571 138.652 321.173 140.921 321.692C143.191 322.211 145.553 322.619 147.906 323.1C152.537 324.128 157.169 325.323 161.68 326.741L161.615 326.805Z" fill="#263238"/>
<path d="M163.069 316.977C158.317 317.033 153.575 316.857 148.841 316.505C146.47 316.292 144.108 316.005 141.746 315.829C139.383 315.653 137.003 315.578 134.631 315.523C129.879 315.43 125.137 315.217 120.394 314.939C115.651 314.661 110.927 314.217 106.212 313.624V313.522C110.973 313.522 115.716 313.661 120.459 313.893C125.201 314.124 129.935 314.513 134.659 314.986C137.021 315.208 139.393 315.402 141.764 315.514C144.135 315.625 146.516 315.615 148.887 315.68C153.63 315.893 158.364 316.273 163.079 316.885L163.069 316.977Z" fill="#263238"/>
<path d="M162.801 307.056C158.123 307.937 153.417 308.576 148.693 309.057C146.331 309.261 143.959 309.391 141.597 309.632C139.235 309.873 136.882 310.197 134.539 310.558C129.842 311.29 125.137 311.91 120.422 312.457C115.707 313.003 110.973 313.383 106.221 313.624V313.522C110.908 312.67 115.605 312.003 120.32 311.41C125.035 310.817 129.759 310.382 134.492 310.021C136.864 309.835 139.226 309.613 141.579 309.307C143.932 309.002 146.275 308.585 148.619 308.242C153.325 307.622 158.058 307.177 162.81 306.955L162.801 307.056Z" fill="#263238"/>
<path d="M160.809 297.33C156.354 299.007 151.833 300.461 147.266 301.749C144.969 302.36 142.635 302.897 140.375 303.546C138.114 304.194 135.836 304.926 133.585 305.685C129.083 307.223 124.553 308.65 120.005 310.002C115.457 311.354 110.862 312.568 106.23 313.624V313.531C110.686 311.873 115.197 310.4 119.736 309.002C124.275 307.603 128.851 306.343 133.455 305.167C135.752 304.574 138.04 303.944 140.31 303.24C142.579 302.536 144.802 301.711 147.063 300.961C151.592 299.535 156.168 298.275 160.809 297.256V297.33Z" fill="#263238"/>
<path d="M157.159 288.095C153.065 290.522 148.823 292.726 144.589 294.801C142.44 295.802 140.254 296.737 138.105 297.765C135.956 298.794 133.872 299.914 131.788 301.054C127.628 303.351 123.451 305.537 119.171 307.668C114.892 309.798 110.612 311.771 106.203 313.624V313.531C110.306 311.123 114.54 308.9 118.717 306.723C122.895 304.546 127.239 302.527 131.565 300.572C133.724 299.581 135.873 298.571 137.975 297.478C140.078 296.385 142.144 295.19 144.228 294.06C148.443 291.874 152.732 289.836 157.122 288.002L157.159 288.095Z" fill="#263238"/>
<path d="M151.963 279.637C148.35 282.731 144.599 285.64 140.745 288.419C138.8 289.781 136.808 291.077 134.881 292.467C132.955 293.856 131.084 295.32 129.231 296.802C125.526 299.785 121.765 302.666 117.958 305.5C114.15 308.335 110.241 311.058 106.24 313.615L106.184 313.531C109.806 310.456 113.548 307.529 117.3 304.657C121.052 301.786 124.961 299.053 128.879 296.367C130.833 295.023 132.779 293.653 134.659 292.207C136.54 290.762 138.364 289.234 140.217 287.761C143.987 284.871 147.859 282.12 151.861 279.554L151.963 279.637Z" fill="#263238"/>
<path d="M145.414 272.227C142.403 275.932 139.207 279.424 135.9 282.824C134.215 284.5 132.482 286.131 130.824 287.826C129.166 289.521 127.582 291.29 126.017 293.078C122.895 296.654 119.681 300.155 116.42 303.601C113.159 307.047 109.778 310.391 106.295 313.624L106.221 313.559C109.26 309.854 112.437 306.362 115.66 302.879C118.884 299.396 122.228 296.024 125.628 292.689C127.313 291.022 128.981 289.336 130.593 287.585C132.204 285.834 133.724 284.019 135.298 282.24C138.513 278.739 141.838 275.358 145.349 272.134L145.414 272.227Z" fill="#263238"/>
<path d="M137.596 266.039C135.261 270.18 132.732 274.2 130.055 278.127C128.694 280.073 127.276 281.972 125.933 283.936C124.59 285.899 123.34 287.909 122.107 289.938C119.653 294.005 117.096 298.006 114.484 301.98C111.872 305.954 109.13 309.817 106.258 313.615L106.175 313.559C108.518 309.419 111.038 305.398 113.585 301.406C116.133 297.413 118.865 293.514 121.635 289.651C123.015 287.715 124.414 285.76 125.646 283.769C126.878 281.777 128.11 279.702 129.351 277.683C131.908 273.681 134.604 269.772 137.494 265.993L137.596 266.039Z" fill="#263238"/>
<path d="M128.86 261.305C127.286 265.798 125.489 270.198 123.543 274.524C122.534 276.673 121.459 278.794 120.486 280.962C119.514 283.129 118.634 285.325 117.763 287.539C116.049 291.967 114.225 296.357 112.344 300.711C110.464 305.065 108.426 309.363 106.258 313.596H106.166C107.768 309.113 109.547 304.713 111.381 300.331C113.215 295.95 115.206 291.642 117.263 287.363C118.282 285.214 119.273 283.055 120.19 280.879C121.107 278.702 121.913 276.451 122.784 274.246C124.636 269.855 126.582 265.539 128.768 261.278L128.86 261.305Z" fill="#263238"/>
<path d="M119.477 258.165C118.708 262.862 117.698 267.503 116.531 272.106C115.92 274.404 115.225 276.673 114.679 278.98C114.132 281.286 113.604 283.611 113.141 285.927C112.215 290.559 111.186 295.19 110.093 299.822C109 304.453 107.74 309.02 106.332 313.568H106.24C107.036 308.872 108.018 304.231 109.074 299.6C110.13 294.968 111.334 290.383 112.613 285.807C113.243 283.519 113.845 281.175 114.373 278.906C114.901 276.636 115.299 274.274 115.772 271.921C116.8 267.29 117.995 262.658 119.421 258.147L119.477 258.165Z" fill="#263238"/>
<path d="M107.2 327.736C115.013 326.803 120.59 319.713 119.657 311.9C118.724 304.087 111.634 298.51 103.822 299.443C96.0088 300.376 90.4316 307.466 91.3646 315.279C92.2976 323.091 99.3875 328.669 107.2 327.736Z" fill="#263238"/>
<path d="M105.526 374.585C93.4603 374.585 81.6652 371.007 71.6326 364.304C61.6 357.6 53.7805 348.072 49.163 336.924C44.5455 325.777 43.3373 313.51 45.6913 301.676C48.0453 289.842 53.8557 278.971 62.3877 270.439C70.9198 261.907 81.7902 256.097 93.6245 253.743C105.459 251.389 117.725 252.597 128.873 257.214C140.021 261.832 149.549 269.651 156.252 279.684C162.956 289.716 166.534 301.512 166.534 313.578C166.514 329.752 160.08 345.258 148.644 356.695C137.207 368.132 121.701 374.566 105.526 374.585ZM105.526 259.481C94.8271 259.481 84.368 262.653 75.4718 268.598C66.5755 274.542 59.6418 282.991 55.5473 292.876C51.4528 302.761 50.3815 313.638 52.4689 324.132C54.5562 334.625 59.7085 344.265 67.2741 351.83C74.8397 359.396 84.4789 364.548 94.9727 366.635C105.466 368.723 116.344 367.651 126.229 363.557C136.113 359.462 144.562 352.529 150.507 343.632C156.451 334.736 159.624 324.277 159.624 313.578C159.606 299.236 153.901 285.486 143.76 275.344C133.618 265.203 119.869 259.498 105.526 259.481Z" fill="#263238"/>
<path d="M321.007 296.802C321.007 299.942 320.923 303.073 320.692 306.195C320.553 307.751 320.368 309.317 320.256 310.873C320.145 312.429 320.08 314.004 320.043 315.569C319.988 318.7 319.849 321.831 319.664 324.962C319.478 328.093 319.182 331.206 318.793 334.327H318.728C318.728 331.187 318.821 328.056 318.969 324.934C319.117 321.813 319.386 318.682 319.691 315.56C319.84 313.994 319.969 312.438 320.043 310.873C320.117 309.307 320.108 307.742 320.155 306.167C320.294 303.045 320.544 299.914 320.942 296.802H321.007Z" fill="#263238"/>
<path d="M314.458 296.978C315.041 300.063 315.468 303.166 315.783 306.241C315.912 307.797 316.005 309.372 316.162 310.928C316.32 312.485 316.533 314.032 316.774 315.56C317.255 318.654 317.7 321.757 318.024 324.869C318.348 327.982 318.636 331.113 318.793 334.244H318.728C318.163 331.159 317.728 328.056 317.329 324.981C316.931 321.905 316.653 318.756 316.403 315.625C316.273 314.069 316.125 312.503 315.931 310.993C315.736 309.483 315.449 307.899 315.227 306.362C314.819 303.249 314.523 300.137 314.375 296.997L314.458 296.978Z" fill="#263238"/>
<path d="M308.038 298.293C309.15 301.23 310.104 304.213 310.956 307.232C311.364 308.742 311.716 310.271 312.142 311.781C312.568 313.291 313.068 314.773 313.559 316.264C314.572 319.228 315.52 322.214 316.403 325.222C317.274 328.232 318.098 331.252 318.793 334.309H318.728C317.635 331.372 316.672 328.39 315.745 325.398C314.819 322.406 313.995 319.386 313.217 316.347C312.818 314.828 312.411 313.318 311.938 311.818C311.466 310.317 310.929 308.853 310.438 307.362C309.511 304.379 308.659 301.36 307.974 298.293H308.038Z" fill="#263238"/>
<path d="M301.962 300.702C303.564 303.407 305.028 306.176 306.39 308.992C307.047 310.419 307.668 311.864 308.344 313.272C309.02 314.68 309.771 316.051 310.521 317.441C312.031 320.219 313.476 322.998 314.884 325.777C316.292 328.556 317.589 331.428 318.812 334.318H318.756C317.163 331.613 315.69 328.843 314.263 326.055C312.837 323.267 311.484 320.433 310.197 317.579C309.548 316.153 308.881 314.736 308.159 313.346C307.436 311.957 306.649 310.567 305.908 309.224C304.463 306.445 303.129 303.611 301.906 300.711L301.962 300.702Z" fill="#263238"/>
<path d="M296.404 304.129C298.451 306.519 300.368 308.992 302.202 311.54C303.129 312.827 303.953 314.143 304.87 315.412C305.787 316.681 306.723 317.913 307.733 319.117C309.696 321.553 311.605 324.045 313.476 326.528C315.347 329.01 317.125 331.622 318.83 334.253L318.774 334.299C316.736 331.9 314.81 329.436 312.911 326.944C311.012 324.453 309.205 321.887 307.445 319.293C306.519 318.005 305.648 316.727 304.666 315.486C303.685 314.245 302.703 313.04 301.73 311.781C299.822 309.298 298.025 306.741 296.311 304.101L296.404 304.129Z" fill="#263238"/>
<path d="M291.467 308.483C293.894 310.474 296.209 312.577 298.46 314.763C299.563 315.875 300.637 317.014 301.758 318.107C302.879 319.2 304.046 320.247 305.223 321.285C307.585 323.341 309.854 325.462 312.17 327.611C314.486 329.76 316.653 331.993 318.784 334.299L318.738 334.346C316.32 332.345 313.995 330.251 311.698 328.121C309.4 325.99 307.168 323.786 304.982 321.544C303.879 320.423 302.768 319.321 301.61 318.265C300.452 317.209 299.257 316.199 298.081 315.152C295.774 313.04 293.542 310.836 291.42 308.529L291.467 308.483Z" fill="#263238"/>
<path d="M287.391 313.615C290.17 315.152 292.782 316.82 295.366 318.589C296.654 319.515 297.904 320.442 299.201 321.312C300.498 322.183 301.823 323.017 303.166 323.832C305.852 325.453 308.492 327.139 311.104 328.862C313.717 330.585 316.283 332.401 318.784 334.299V334.346C316.051 332.799 313.392 331.141 310.762 329.446C308.131 327.75 305.556 325.953 303.008 324.128C301.73 323.202 300.442 322.331 299.118 321.488C297.793 320.646 296.441 319.858 295.107 319.034C292.467 317.357 289.882 315.579 287.391 313.67V313.615Z" fill="#263238"/>
<path d="M284.269 319.376C287.233 320.414 290.133 321.6 292.995 322.887C294.412 323.554 295.774 324.258 297.238 324.907C298.701 325.555 300.118 326.129 301.582 326.704C304.509 327.834 307.405 329.023 310.271 330.27C313.133 331.548 315.986 332.864 318.774 334.29V334.355C315.819 333.299 312.911 332.123 310.03 330.909C307.149 329.696 304.296 328.38 301.471 327.028C300.054 326.352 298.627 325.703 297.182 325.101C295.737 324.499 294.264 323.962 292.8 323.387C289.91 322.183 287.057 320.886 284.269 319.441V319.376Z" fill="#263238"/>
<path d="M282.204 325.592C285.298 326.102 288.364 326.768 291.402 327.537C292.912 327.945 294.412 328.399 295.932 328.788C297.451 329.177 298.979 329.492 300.517 329.798C303.605 330.415 306.665 331.085 309.697 331.808C312.744 332.567 315.773 333.364 318.775 334.29V334.355C315.681 333.827 312.615 333.179 309.558 332.502C306.501 331.826 303.472 331.011 300.452 330.168C298.942 329.751 297.432 329.353 295.904 329.01C294.375 328.667 292.828 328.399 291.272 328.084C288.215 327.398 285.177 326.611 282.185 325.675L282.204 325.592Z" fill="#263238"/>
<path d="M281.24 332.076C284.38 332.076 287.511 332.16 290.633 332.391C292.198 332.53 293.754 332.715 295.32 332.836C296.885 332.956 298.442 333.002 300.007 333.04C303.147 333.095 306.278 333.234 309.4 333.419C312.522 333.605 315.653 333.901 318.765 334.29V334.355C315.625 334.355 312.494 334.272 309.363 334.114C306.232 333.957 303.11 333.697 299.988 333.392C298.432 333.243 296.867 333.114 295.301 333.04C293.736 332.965 292.17 332.975 290.605 332.928C287.474 332.789 284.352 332.549 281.23 332.141L281.24 332.076Z" fill="#263238"/>
<path d="M281.416 338.625C284.501 338.042 287.613 337.616 290.726 337.301C292.291 337.171 293.856 337.088 295.413 336.93C296.969 336.773 298.525 336.55 300.044 336.309C303.138 335.828 306.251 335.383 309.363 335.059C312.475 334.735 315.597 334.448 318.728 334.29V334.355C315.644 334.92 312.54 335.355 309.465 335.754C306.39 336.152 303.24 336.43 300.109 336.68C298.553 336.8 296.987 336.949 295.478 337.143C293.968 337.338 292.374 337.625 290.846 337.856C287.743 338.264 284.621 338.56 281.481 338.699L281.416 338.625Z" fill="#263238"/>
<path d="M282.731 345.045C285.668 343.933 288.66 342.979 291.67 342.127C293.18 341.728 294.709 341.367 296.219 340.941C297.729 340.515 299.22 340.015 300.702 339.524C303.666 338.514 306.658 337.578 309.66 336.68C312.661 335.781 315.69 334.985 318.756 334.29V334.355C315.81 335.448 312.828 336.421 309.836 337.347C306.844 338.273 303.824 339.088 300.785 339.866C299.266 340.265 297.756 340.682 296.265 341.145C294.774 341.608 293.292 342.154 291.809 342.645C288.817 343.572 285.798 344.424 282.731 345.109V345.045Z" fill="#263238"/>
<path d="M285.14 351.14C287.845 349.537 290.614 348.074 293.477 346.712C294.894 346.054 296.339 345.434 297.747 344.757C299.155 344.081 300.526 343.34 301.915 342.581C304.663 341.074 307.442 339.623 310.252 338.227C313.031 336.847 315.903 335.513 318.793 334.29V334.355C316.088 335.939 313.318 337.412 310.539 338.848C307.76 340.283 304.917 341.626 302.054 342.905C300.637 343.553 299.22 344.229 297.821 344.943C296.422 345.656 295.042 346.453 293.699 347.194C290.92 348.648 288.085 349.973 285.186 351.195L285.14 351.14Z" fill="#263238"/>
<path d="M288.577 356.716C290.954 354.678 293.424 352.748 295.987 350.927C297.265 350 298.581 349.167 299.85 348.25C301.119 347.333 302.36 346.397 303.555 345.387C305.991 343.424 308.483 341.515 310.966 339.653C313.448 337.792 316.06 335.948 318.7 334.299V334.346C316.311 336.384 313.837 338.31 311.345 340.209C308.854 342.108 306.288 343.915 303.703 345.675C302.406 346.601 301.128 347.472 299.887 348.453C298.646 349.435 297.441 350.417 296.182 351.39C293.699 353.289 291.142 355.095 288.502 356.8L288.577 356.716Z" fill="#263238"/>
<path d="M292.921 361.626C294.912 359.199 297.015 356.874 299.201 354.632C300.313 353.52 301.462 352.446 302.555 351.325C303.648 350.204 304.685 349.037 305.723 347.861C307.788 345.499 309.91 343.229 312.059 340.913C314.208 338.597 316.44 336.439 318.737 334.299L318.784 334.346C316.783 336.763 314.689 339.088 312.559 341.395C310.428 343.701 308.224 345.915 305.982 348.111C304.87 349.204 303.768 350.315 302.703 351.473C301.638 352.631 300.637 353.826 299.6 355.003C297.478 357.309 295.283 359.542 292.967 361.663L292.921 361.626Z" fill="#263238"/>
<path d="M298.053 365.692C299.59 362.96 301.267 360.31 303.027 357.717C303.953 356.438 304.88 355.179 305.75 353.882C306.621 352.585 307.455 351.26 308.27 349.917C309.891 347.24 311.577 344.6 313.3 341.979C315.023 339.357 316.838 336.81 318.737 334.309H318.793C317.237 337.041 315.579 339.7 313.884 342.331C312.188 344.961 310.401 347.536 308.576 350.084C307.649 351.362 306.769 352.65 305.926 353.974C305.083 355.299 304.305 356.651 303.481 357.985C301.795 360.625 300.017 363.21 298.108 365.702L298.053 365.692Z" fill="#263238"/>
<path d="M303.814 368.814C304.858 365.85 306.028 362.944 307.325 360.097C307.992 358.671 308.696 357.272 309.345 355.846C309.993 354.419 310.567 352.965 311.142 351.501C312.272 348.583 313.476 345.684 314.717 342.812C315.958 339.941 317.302 337.106 318.728 334.309H318.793C317.737 337.264 316.57 340.172 315.356 343.062C314.143 345.952 312.828 348.787 311.466 351.622C310.799 353.03 310.141 354.456 309.539 355.901C308.937 357.346 308.4 358.828 307.825 360.283C306.621 363.173 305.324 366.026 303.879 368.814H303.814Z" fill="#263238"/>
<path d="M310.03 370.889C310.549 367.786 311.206 364.72 311.975 361.691C312.383 360.171 312.837 358.671 313.226 357.152C313.615 355.632 313.93 354.104 314.245 352.566C314.862 349.479 315.532 346.419 316.255 343.387C317.005 340.348 317.802 337.31 318.728 334.318H318.793C318.274 337.412 317.616 340.478 316.94 343.535C316.264 346.592 315.449 349.621 314.606 352.64C314.189 354.15 313.791 355.67 313.448 357.198C313.105 358.726 312.837 360.273 312.522 361.83C311.845 364.886 311.058 367.925 310.113 370.917L310.03 370.889Z" fill="#263238"/>
<path d="M316.514 371.843C316.514 368.703 316.598 365.572 316.829 362.45C316.968 360.894 317.153 359.329 317.274 357.819C317.394 356.309 317.44 354.688 317.478 353.122C317.542 349.982 317.681 346.86 317.867 343.729C318.052 340.598 318.339 337.486 318.728 334.364H318.793C318.793 337.504 318.71 340.635 318.552 343.757C318.395 346.879 318.144 350.01 317.83 353.132C317.681 354.697 317.561 356.253 317.487 357.819C317.413 359.384 317.422 360.95 317.376 362.515C317.237 365.646 316.987 368.777 316.579 371.889L316.514 371.843Z" fill="#263238"/>
<path d="M323.063 371.667C322.489 368.583 322.063 365.479 321.748 362.358C321.609 360.801 321.526 359.227 321.368 357.671C321.211 356.114 320.988 354.558 320.757 353.039C320.266 349.945 319.83 346.833 319.497 343.776C319.163 340.719 318.886 337.532 318.728 334.401H318.793C319.358 337.486 319.793 340.589 320.192 343.665C320.59 346.74 320.868 349.889 321.118 353.02C321.238 354.577 321.387 356.142 321.59 357.698C321.794 359.255 322.063 360.792 322.294 362.33C322.702 365.442 322.998 368.555 323.137 371.695L323.063 371.667Z" fill="#263238"/>
<path d="M329.483 370.352C328.38 367.415 327.417 364.433 326.565 361.413C326.166 359.903 325.805 358.374 325.379 356.864C324.953 355.355 324.453 353.872 323.971 352.381C322.952 349.417 322.016 346.425 321.118 343.424C320.219 340.422 319.432 337.393 318.728 334.327H318.793C319.886 337.273 320.859 340.256 321.785 343.248C322.711 346.24 323.536 349.259 324.314 352.298C324.703 353.817 325.12 355.327 325.583 356.827C326.046 358.328 326.592 359.792 327.083 361.274C328.01 364.266 328.862 367.286 329.547 370.352H329.483Z" fill="#263238"/>
<path d="M335.578 367.943C333.975 365.238 332.512 362.469 331.15 359.606C330.492 358.189 329.881 356.744 329.195 355.336C328.51 353.928 327.778 352.557 327.028 351.168C325.509 348.389 324.073 345.61 322.665 342.831C321.257 340.052 319.951 337.18 318.737 334.29H318.793C320.377 336.995 321.85 339.765 323.286 342.553C324.721 345.341 326.064 348.166 327.343 351.029C328.001 352.455 328.667 353.872 329.381 355.262C330.094 356.651 330.891 358.041 331.641 359.384C333.086 362.163 334.42 364.998 335.633 367.897L335.578 367.943Z" fill="#263238"/>
<path d="M341.164 364.516C339.116 362.126 337.199 359.653 335.365 357.105C334.438 355.818 333.605 354.502 332.697 353.233C331.789 351.964 330.844 350.732 329.835 349.528C327.862 347.092 325.963 344.6 324.091 342.118C322.22 339.635 320.442 337.023 318.737 334.392L318.793 334.346C320.822 336.736 322.748 339.209 324.647 341.701C326.546 344.192 328.353 346.758 330.122 349.343C331.048 350.64 331.91 351.918 332.901 353.159C333.892 354.401 334.865 355.605 335.837 356.865C337.745 359.347 339.542 361.904 341.247 364.544L341.164 364.516Z" fill="#263238"/>
<path d="M346.064 360.162C343.637 358.171 341.312 356.068 339.07 353.882C337.958 352.77 336.893 351.631 335.763 350.538C334.633 349.445 333.475 348.398 332.299 347.36C329.937 345.295 327.667 343.183 325.351 341.024C323.035 338.866 320.877 336.652 318.737 334.346L318.784 334.299C321.201 336.3 323.536 338.394 325.833 340.524C328.13 342.655 330.353 344.859 332.549 347.101C333.642 348.225 334.763 349.318 335.911 350.38C337.069 351.436 338.273 352.446 339.441 353.493C341.747 355.605 343.98 357.8 346.11 360.116L346.064 360.162Z" fill="#263238"/>
<path d="M350.13 355.03C347.351 353.493 344.739 351.825 342.145 350.056C340.867 349.13 339.607 348.203 338.31 347.333C337.014 346.462 335.689 345.628 334.355 344.813C331.669 343.192 329.029 341.506 326.407 339.783C323.786 338.06 321.238 336.245 318.737 334.346V334.299C321.461 335.846 324.119 337.504 326.759 339.2C329.399 340.895 331.965 342.683 334.513 344.517C335.791 345.443 337.078 346.314 338.394 347.157C339.709 348 341.071 348.787 342.405 349.602C345.054 351.288 347.629 353.067 350.121 354.975L350.13 355.03Z" fill="#263238"/>
<path d="M353.252 349.269C350.288 348.231 347.388 347.045 344.535 345.758C343.118 345.091 341.756 344.387 340.284 343.739C338.811 343.09 337.403 342.516 335.948 341.941C333.021 340.811 330.131 339.607 327.25 338.366C324.369 337.125 321.544 335.781 318.747 334.355V334.29C321.702 335.346 324.61 336.522 327.5 337.736C330.39 338.949 333.234 340.256 336.059 341.617C337.477 342.293 338.894 342.942 340.339 343.544C341.784 344.146 343.266 344.683 344.721 345.258C347.611 346.462 350.464 347.759 353.252 349.204V349.269Z" fill="#263238"/>
<path d="M355.327 343.053C352.224 342.544 349.167 341.877 346.129 341.108C344.619 340.7 343.109 340.246 341.599 339.857C340.089 339.468 338.542 339.153 336.967 338.848C333.88 338.23 330.82 337.56 327.787 336.837C324.749 336.078 321.72 335.281 318.719 334.355V334.29C321.813 334.818 324.879 335.466 327.926 336.143C330.974 336.819 334.012 337.634 337.032 338.477C338.542 338.894 340.061 339.292 341.59 339.635C343.118 339.978 344.665 340.246 346.221 340.561C349.287 341.247 352.316 342.034 355.318 342.97L355.327 343.053Z" fill="#263238"/>
<path d="M356.29 336.569C353.15 336.569 350.019 336.485 346.888 336.254C345.332 336.115 343.776 335.93 342.21 335.809C340.645 335.689 339.079 335.642 337.514 335.605C334.383 335.55 331.252 335.402 328.121 335.226C324.99 335.05 321.878 334.744 318.765 334.355V334.29C321.905 334.29 325.036 334.373 328.167 334.531C331.298 334.688 334.42 334.948 337.532 335.253C339.098 335.402 340.654 335.531 342.22 335.605C343.785 335.68 345.36 335.67 346.925 335.717C350.056 335.846 353.178 336.096 356.29 336.504V336.569Z" fill="#263238"/>
<path d="M356.105 330.02C353.02 330.604 349.917 331.03 346.796 331.345C345.239 331.474 343.674 331.558 342.108 331.715C340.543 331.873 339.005 332.095 337.477 332.336C334.383 332.817 331.28 333.262 328.167 333.586C325.055 333.91 321.933 334.198 318.793 334.355V334.29C321.887 333.725 324.99 333.29 328.056 332.891C331.122 332.493 334.29 332.215 337.412 331.965C338.977 331.845 340.534 331.697 342.09 331.502C343.646 331.307 345.184 331.02 346.721 330.789C349.825 330.381 352.946 330.085 356.077 329.946L356.105 330.02Z" fill="#263238"/>
<path d="M354.762 323.6C351.825 324.703 348.843 325.666 345.823 326.518C344.313 326.917 342.785 327.278 341.275 327.704C339.765 328.13 338.283 328.63 336.791 329.112C333.827 330.131 330.844 331.067 327.843 331.965C324.842 332.864 321.803 333.651 318.747 334.355V334.29C321.683 333.197 324.666 332.224 327.658 331.298C330.65 330.372 333.679 329.557 336.708 328.779C338.227 328.38 339.737 327.963 341.238 327.5C342.738 327.037 344.202 326.491 345.693 326C348.676 325.073 351.696 324.221 354.762 323.536V323.6Z" fill="#263238"/>
<path d="M352.381 317.505C349.676 319.108 346.907 320.571 344.091 321.933C342.664 322.591 341.228 323.211 339.811 323.888C338.394 324.564 337.032 325.305 335.643 326.055C332.864 327.574 330.085 329.019 327.306 330.418C324.527 331.817 321.665 333.132 318.765 334.355V334.29C321.47 332.706 324.24 331.233 327.028 329.798C329.816 328.362 332.651 327.019 335.504 325.74C336.93 325.092 338.348 324.416 339.737 323.702C341.126 322.989 342.516 322.192 343.859 321.442C346.638 319.997 349.473 318.663 352.372 317.45L352.381 317.505Z" fill="#263238"/>
<path d="M348.954 311.92C346.573 313.967 344.091 315.893 341.543 317.718C340.256 318.645 338.94 319.478 337.671 320.395C336.402 321.312 335.17 322.248 333.966 323.258C331.521 325.222 329.038 327.12 326.556 328.992C324.073 330.863 321.47 332.641 318.83 334.346V334.299C321.22 332.262 323.684 330.335 326.185 328.436C328.686 326.537 331.233 324.731 333.827 322.971C335.115 322.044 336.393 321.174 337.644 320.192C338.894 319.21 340.08 318.228 341.349 317.255C343.831 315.356 346.388 313.55 349.037 311.845L348.954 311.92Z" fill="#263238"/>
<path d="M344.572 307.019C342.581 309.446 340.478 311.771 338.292 314.013C337.19 315.125 336.041 316.199 334.948 317.32C333.855 318.441 332.808 319.608 331.771 320.785C329.714 323.147 327.593 325.416 325.444 327.732C323.295 330.048 321.062 332.206 318.756 334.346L318.709 334.3C320.71 331.882 322.813 329.557 324.934 327.25C327.056 324.944 329.27 322.73 331.511 320.534C332.632 319.441 333.734 318.321 334.79 317.172C335.846 316.023 336.856 314.819 337.903 313.643C340.015 311.336 342.219 309.104 344.526 306.973L344.572 307.019Z" fill="#263238"/>
<path d="M339.468 302.953C337.931 305.686 336.263 308.335 334.503 310.928C333.577 312.207 332.651 313.467 331.78 314.763C330.909 316.06 330.066 317.385 329.251 318.728C327.63 321.405 325.944 324.045 324.221 326.667C322.498 329.288 320.683 331.835 318.793 334.337H318.737C320.284 331.604 321.942 328.945 323.647 326.315C325.351 323.684 327.13 321.109 328.955 318.552C329.881 317.283 330.752 315.995 331.604 314.671C332.456 313.346 333.225 311.994 334.049 310.66C335.735 308.02 337.505 305.435 339.413 302.944L339.468 302.953Z" fill="#263238"/>
<path d="M333.707 299.831C332.669 302.795 331.483 305.695 330.196 308.548C329.538 309.974 328.825 311.373 328.186 312.8C327.547 314.226 326.954 315.68 326.379 317.144C325.259 320.062 324.054 322.961 322.813 325.833C321.572 328.704 320.229 331.539 318.793 334.336H318.728C319.784 331.381 320.96 328.473 322.174 325.583C323.387 322.693 324.703 319.849 326.055 317.024C326.735 315.616 327.38 314.189 327.991 312.744C328.584 311.299 329.121 309.817 329.696 308.362C330.9 305.472 332.206 302.619 333.651 299.831H333.707Z" fill="#263238"/>
<path d="M327.491 297.756C326.982 300.859 326.315 303.916 325.546 306.954C325.138 308.474 324.684 309.974 324.304 311.493C323.925 313.013 323.591 314.541 323.286 316.079C322.683 319.154 321.998 322.211 321.275 325.258C320.553 328.306 319.719 331.326 318.793 334.327H318.728C319.256 331.224 319.904 328.167 320.581 325.11C321.257 322.053 322.072 319.024 322.915 316.005C323.332 314.495 323.73 312.975 324.073 311.447C324.416 309.919 324.684 308.372 324.999 306.815C325.685 303.759 326.472 300.72 327.408 297.728L327.491 297.756Z" fill="#263238"/>
<path d="M318.311 343.72C323.504 343.72 327.713 339.511 327.713 334.318C327.713 329.125 323.504 324.916 318.311 324.916C313.119 324.916 308.909 329.125 308.909 334.318C308.909 339.511 313.119 343.72 318.311 343.72Z" fill="#263238"/>
<path d="M318.311 374.585C310.348 374.587 302.563 372.227 295.94 367.805C289.318 363.383 284.155 357.096 281.105 349.74C278.055 342.384 277.255 334.289 278.805 326.478C280.356 318.667 284.187 311.491 289.816 305.858C295.444 300.224 302.616 296.386 310.426 294.829C318.235 293.271 326.331 294.064 333.69 297.107C341.049 300.15 347.34 305.307 351.769 311.926C356.197 318.544 358.563 326.327 358.569 334.29C358.566 344.97 354.325 355.212 346.777 362.767C339.229 370.322 328.991 374.573 318.311 374.585ZM318.311 298.627C311.249 298.627 304.345 300.722 298.473 304.646C292.601 308.57 288.026 314.148 285.325 320.674C282.624 327.199 281.919 334.379 283.299 341.306C284.68 348.232 288.084 354.593 293.08 359.584C298.077 364.576 304.441 367.973 311.369 369.346C318.297 370.719 325.476 370.007 331.999 367.299C338.521 364.592 344.094 360.01 348.013 354.134C351.931 348.259 354.019 341.353 354.011 334.29C353.992 324.831 350.223 315.766 343.531 309.081C336.839 302.396 327.77 298.637 318.311 298.627Z" fill="#263238"/>
<path d="M74.8282 208.57H40.3784V215.332H74.8282V208.57Z" fill="#37474F"/>
<path d="M91.2795 225.512L74.8188 215.332V208.57L91.2795 218.75V225.512Z" fill="#37474F"/>
<path d="M64.8981 207.162H30.4482V216.74H64.8981V207.162Z" fill="#263238"/>
<path d="M209.126 179.187H202.354V181.892H209.126V179.187Z" fill="#263238"/>
<path d="M207.653 178.076H203.855V179.187H207.653V178.076Z" fill="#263238"/>
<path d="M206.449 174.324H205.013V178.076H206.449V174.324Z" fill="#263238"/>
<path d="M206.449 175.63L201.197 175.084V174.324H206.449V175.63Z" fill="#263238"/>
</svg>
