<?xml version="1.0" encoding="utf-8"?>
<!-- Generator: Adobe Illustrator 28.2.0, SVG Export Plug-In . SVG Version: 6.00 Build 0)  -->
<svg version="1.1" id="Layer_1" xmlns="http://www.w3.org/2000/svg" xmlns:xlink="http://www.w3.org/1999/xlink" x="0px" y="0px"
	 viewBox="0 0 300 300" style="enable-background:new 0 0 300 300;" xml:space="preserve">
<style type="text/css">
	.st0{fill:#FFFFFF;}
	.st1{fill:#11271B;}
</style>
<path class="st0" d="M286.73,300H13.99c-7.25,0-13.13-5.88-13.13-13.13V14.13C0.86,6.88,6.74,1,13.99,1h272.74
	c7.25,0,13.13,5.88,13.13,13.13v272.74C299.86,294.12,293.98,300,286.73,300z"/>
<g>
	<path class="st1" d="M150.04,261.59c-36.33,0-72.66,0-108.99,0c-3.24,0-4.08-0.84-4.08-4.11c0-43.32,0.01-86.63-0.02-129.95
		c0-1.51,0.54-2.55,1.71-3.45C57.34,109.66,76,95.22,94.67,80.78c17.56-13.58,35.11-27.16,52.66-40.74
		c2.78-2.15,3.54-2.19,6.33-0.03c22.84,17.66,45.67,35.34,68.51,53c12.87,9.95,25.73,19.91,38.63,29.83
		c1.51,1.16,2.25,2.42,2.24,4.42c-0.05,43.52-0.04,87.04-0.04,130.55c0,2.8-0.98,3.76-3.83,3.76
		C222.81,261.59,186.43,261.59,150.04,261.59z M66.1,255.19c0-0.68,0-1.22,0-1.76c0-37.29,0-74.57,0-111.86
		c0-3.59,0.93-4.51,4.57-4.51c53.02,0,106.03,0,159.05,0c0.3,0,0.6-0.01,0.9,0c1.75,0.07,2.85,0.96,3.12,2.67
		c0.15,0.98,0.13,2,0.13,3c0.01,36.78,0,73.57,0,110.35c0,0.68,0,1.37,0,2.06c7.74,0,15.25,0,22.92,0c0-0.8,0-1.49,0-2.18
		c0-41.21-0.01-82.41,0.03-123.62c0-1.15-0.41-1.82-1.28-2.49c-8.6-6.61-17.17-13.25-25.75-19.89
		c-22.76-17.6-45.52-35.21-68.28-52.81c-3.65-2.82-7.3-5.64-10.98-8.48c-1.35,1.03-2.62,2-3.89,2.98
		c-18.47,14.29-36.93,28.59-55.4,42.87c-15.61,12.07-31.23,24.14-46.86,36.18c-0.88,0.68-1.24,1.37-1.24,2.5
		c0.03,41.11,0.03,82.21,0.03,123.32c0,0.53,0.05,1.06,0.08,1.65C50.89,255.19,58.36,255.19,66.1,255.19z M227.42,255.17
		c0-37.28,0-74.48,0-111.65c-51.71,0-103.29,0-154.86,0c0,37.28,0,74.44,0,111.63c10.39,0,20.65,0,31.04,0c0-0.66,0-1.2,0-1.75
		c0-11.46,0-22.92,0-34.37c0-2.39,1.12-3.52,3.48-3.52c5.78-0.01,11.56,0,17.34,0c0.59,0,1.18,0,1.96,0c0-0.81,0-1.45,0-2.09
		c0-11.31,0-22.61,0-33.92c0-2.7,1.17-3.86,3.84-3.86c14.82,0,29.65,0,44.47,0c2.56,0,3.65,1.1,3.65,3.68c0,11.46,0,22.92,0,34.37
		c0,0.58,0,1.15,0,1.82c6.48,0,12.71,0,18.94,0c2.95,0,3.97,1.03,3.97,3.99c0,11.31,0,22.61,0,33.92c0,0.58,0,1.15,0,1.76
		C210.12,255.17,218.74,255.17,227.42,255.17z M139.18,221.89c0,0.66,0,1.16,0,1.65c0,2.76,0.01,5.53,0,8.29
		c-0.01,2.71-1.16,3.88-3.82,3.88c-3.97,0.01-7.94,0.02-11.91,0c-2.3-0.01-3.42-1.14-3.44-3.45c-0.02-2.91,0-5.83-0.01-8.74
		c0-0.53-0.05-1.07-0.08-1.57c-3.41,0-6.64,0-9.88,0c0,11.14,0,22.16,0,33.19c13.11,0,26.09,0,39.1,0c0-11.15,0-22.17,0-33.25
		C145.83,221.89,142.63,221.89,139.18,221.89z M132.8,215.35c13.1,0,26.11,0,39.11,0c0-11.17,0-22.2,0-33.3c-3.33,0-6.56,0-9.94,0
		c0,3.45,0.01,6.8,0,10.15c-0.01,2.56-1.09,3.63-3.68,3.64c-3.92,0.01-7.83,0-11.75,0c-2.62,0-3.74-1.11-3.77-3.77
		c-0.03-2.81,0-5.62-0.01-8.44c0-0.53-0.05-1.06-0.07-1.54c-3.42,0-6.66,0-9.88,0C132.8,193.25,132.8,204.28,132.8,215.35z
		 M155.7,255.12c13.09,0,26.11,0,39.08,0c0-11.16,0-22.18,0-33.21c-3.33,0-6.53,0-9.92,0c0,0.61,0,1.15,0,1.69
		c0,2.86,0.03,5.73-0.01,8.59c-0.03,2.33-1.25,3.51-3.57,3.52c-4.02,0.02-8.04,0.02-12.06,0c-2.46-0.01-3.54-1.13-3.55-3.63
		c-0.01-2.91,0-5.83-0.01-8.74c0-0.48-0.05-0.96-0.07-1.42c-3.38,0-6.58,0-9.88,0C155.7,233.02,155.7,244.04,155.7,255.12z
		 M155.44,189.42c0-2.53,0-4.97,0-7.32c-2.22,0-4.24,0-6.23,0c0,2.53,0,4.9,0,7.32C151.37,189.42,153.4,189.42,155.44,189.42z
		 M172.09,221.88c0,2.55,0,4.93,0,7.38c2.15,0,4.22,0,6.28,0c0-2.53,0-4.95,0-7.38C176.22,221.88,174.22,221.88,172.09,221.88z
		 M126.46,221.91c0,2.5,0,4.91,0,7.34c2.18,0,4.24,0,6.28,0c0-2.52,0-4.9,0-7.34C130.61,221.91,128.58,221.91,126.46,221.91z"/>
	<path class="st1" d="M149.99,86.1c4.87,0,9.74-0.01,14.61,0c2.39,0.01,3.54,1.12,3.54,3.48c0.01,9.74,0.01,19.48,0,29.22
		c0,2.4-1.2,3.6-3.61,3.6c-9.64,0.01-19.28,0.01-28.92-0.01c-2.63,0-3.77-1.13-3.77-3.75c-0.01-9.69-0.01-19.38,0-29.07
		c0-2.34,1.16-3.47,3.55-3.47C140.25,86.08,145.12,86.09,149.99,86.1C149.99,86.09,149.99,86.1,149.99,86.1z M138.24,115.95
		c7.92,0,15.67,0,23.47,0c0-7.85,0-15.6,0-23.39c-7.88,0-15.66,0-23.47,0C138.24,100.41,138.24,108.13,138.24,115.95z"/>
</g>
</svg>
