<?xml version="1.0" encoding="utf-8"?>
<!-- Generator: Adobe Illustrator 28.2.0, SVG Export Plug-In . SVG Version: 6.00 Build 0)  -->
<svg version="1.1" id="Layer_1" xmlns="http://www.w3.org/2000/svg" xmlns:xlink="http://www.w3.org/1999/xlink" x="0px" y="0px"
	 viewBox="0 0 300 300" style="enable-background:new 0 0 300 300;" xml:space="preserve">
<style type="text/css">
	.st0{fill:#FFFFFF;}
	.st1{fill:#11271B;}
</style>
<path class="st0" d="M286.73,300H13.99c-7.25,0-13.13-5.88-13.13-13.13V14.13C0.86,6.88,6.74,1,13.99,1h272.74
	c7.25,0,13.13,5.88,13.13,13.13v272.74C299.86,294.12,293.98,300,286.73,300z"/>
<g>
	<path class="st1" d="M92.15,89.4c6.38-9.47,12.36-17.87,17.73-26.64c1.48-2.41,1.54-5.92,1.58-8.94
		c0.25-19.54,3.49-22.79,23.31-22.8c12.69-0.01,25.39-0.04,38.08,0c13.27,0.05,18.9,5.19,18.42,18.18c-0.3,8.22,1.3,15.32,6.97,21.3
		c17.51,18.47,23.38,40.37,20.36,65.39c-1.11,9.19-0.18,18.63-0.18,27.96c0,14.68,0,14.68,11.41,24.97
		c5.68-4.59,11.97-8.04,18.43-1.65c6.36,6.29,3.72,12.67-1.36,18.2c8.6,10.95,8.6,10.95-1.2,20.76c-3.48,3.48-7.17,6.78-10.37,10.5
		c-4.82,5.61-9.54,9.77-16.92-0.01c0,10.11-0.18,18.06,0.06,26c0.16,5.3-1.9,7.36-7.29,7.34c-39.63-0.13-79.27-0.18-118.9,0.03
		c-7.06,0.04-7.11-3.92-7.1-9.03c0.08-40.67,0.17-81.34-0.11-122.01c-0.03-4.63-1.45-9.74-3.72-13.78
		c-13.68-24.38-27.83-48.49-41.75-72.73c-4.96-8.63-3.56-13.67,4.87-18.54c8.52-4.92,13.25-3.62,18.4,5.24
		c8.2,14.09,16.32,28.24,24.48,42.35C88.76,83.9,90.24,86.25,92.15,89.4z M187.8,68.61c-6.52,9.67-12.81,18.2-18.16,27.28
		c-2.46,4.18-4.34,9.44-4.37,14.22c-0.32,47.87-0.19,95.75-0.19,143.62c0,2.72,0,5.45,0,8.16c15.87,0,30.51,0,46.02,0
		c0-8.12-0.4-15.84,0.12-23.51c0.44-6.49-1.63-11.09-6.36-15.61c-15.59-14.91-15.56-15.25-0.12-30.22
		c4.61-4.47,6.64-8.97,6.52-15.52c-0.42-22.76-0.13-45.54-0.2-68.31c-0.01-2.53,0.18-5.57-1.08-7.49
		C202.98,90.44,195.56,79.93,187.8,68.61z M93.27,143.59c0,40.08,0,79.17,0,118.38c21.58,0,42.46,0,63.59,0
		c0-52.49,0-104.59,0-156.5c-18.64,0-36.59,0-55.39,0c1.78,3.26,2.81,5.95,4.5,8.11c8.25,10.56,10.06,22.97,10.45,35.77
		c0.06,2.09-0.47,5.13-1.86,6.05c-1.2,0.8-4.27-0.31-6.02-1.39C103.57,150.93,98.84,147.43,93.27,143.59z M95.86,97.41
		c21.1,0,40.42,0.04,59.74-0.08c1.61-0.01,3.89-0.6,4.7-1.74c6.63-9.38,12.99-18.96,20.38-29.88c-21.48,0-41.25-0.06-61.02,0.12
		c-1.45,0.01-3.36,1.41-4.27,2.71C109.09,77.6,103,86.8,95.86,97.41z M118.77,57.8c22.33,0,43.37,0,64.62,0
		c0.18-2.25,0.41-4.03,0.45-5.8c0.25-12.18-0.95-13.39-13-13.4c-13.93-0.01-27.87,0.16-41.8-0.07c-7.32-0.12-10.41,3.27-10.27,10.28
		C118.82,51.59,118.77,54.39,118.77,57.8z M105.73,128.32c-15.14-26.2-29.96-51.85-45.06-77.97c-3.66,2.2-6.66,4-10.12,6.07
		c15.12,26.17,29.93,51.8,44.96,77.83C99.32,132.05,102.37,130.27,105.73,128.32z M219.57,189.6c-6.59,6.3-12.68,12.12-18.01,17.22
		c8.64,8.94,17.14,17.75,24.82,25.7c5.94-5.79,11.95-11.65,17.36-16.92c-4.46-4.78-9.15-9.81-14.54-15.58
		c-2.69,2.96-5.05,6.05-7.96,8.51c-1.2,1.02-3.57,0.66-5.4,0.93c0.06-2.03-0.7-4.76,0.33-5.94c2.51-2.87,5.84-5.03,9.08-7.67
		C222.62,192.96,221.1,191.29,219.57,189.6z M57.5,43.44c-2.3-1.91-4.32-4.61-5.39-4.27c-2.77,0.87-5.46,2.75-7.42,4.92
		c-0.59,0.65,1.29,3.55,2.12,5.64C50.69,47.44,53.52,45.77,57.5,43.44z"/>
	<path class="st1" d="M228.91,104.73c0-20.69,0.2-41.37-0.11-62.05c-0.1-6.6,1.75-9.5,8.77-8.99c7.2,0.52,14.5,0.54,21.7,0
		c7.11-0.53,9.6,1.89,9.45,9.15c-0.41,19.38-0.13,38.78-0.13,58.18c0,21.98-0.21,43.96,0.12,65.93c0.1,6.9-1.75,10.06-9.17,9.51
		c-7.2-0.54-14.49-0.44-21.71-0.04c-6.65,0.37-9.17-1.94-9.05-8.85C229.13,146.62,228.91,125.68,228.91,104.73z M237.35,136.49
		c-0.51,0.92-1.01,1.85-1.52,2.77c2.07,1.02,4.23,1.9,6.18,3.11c1.54,0.96,2.81,2.35,4.21,3.54c-1.13,1.18-2.11,2.57-3.42,3.51
		c-1.95,1.39-4.14,2.46-6.22,3.67c2.56,0.92,5.11,1.89,7.69,2.74c0.71,0.23,1.79-0.18,2.27,0.22c1.4,1.16,2.59,2.58,3.86,3.91
		c-1.26,1.05-2.38,2.67-3.81,3.02c-2.21,0.54-4.68-0.07-6.93,0.36c-1.14,0.22-2.04,1.66-3.04,2.55c0.91,0.97,1.8,2.74,2.74,2.77
		c7.11,0.24,14.24,0.13,21.23,0.13c0-43.1,0-84.94,0-127.44c-5.12,0-9.76-0.28-14.35,0.09c-3.24,0.26-6.41,1.41-9.61,2.17
		c2.97,0.99,6.06,1.75,8.89,3.06c1.83,0.85,3.3,2.49,4.93,3.78c-1.66,1.22-3.18,2.76-5.02,3.55c-1.31,0.57-3.33-0.39-4.55,0.26
		c-1.85,0.97-3.27,2.74-4.18,3.55c4.24,2.75,6.93,4.5,9.61,6.24c-2.91,1.85-5.82,3.71-10.01,6.38c0.95,0.91,2.14,2.73,3.81,3.46
		c1.53,0.67,3.74-0.29,5.33,0.31c1.85,0.7,3.36,2.31,5.01,3.53c-1.64,1.27-3.16,2.78-4.97,3.72c-1.03,0.53-2.68-0.23-3.8,0.2
		c-1.8,0.7-3.39,1.91-5.07,2.9c1.41,1.04,2.82,2.08,4.23,3.12c1.8,1.34,3.6,2.67,5.4,4.01c-1.77,1.1-3.62,2.09-5.28,3.33
		c-1.71,1.27-3.23,2.8-4.83,4.21c0.52,0.65,1.04,1.3,1.56,1.95c2.57,0,5.26-0.47,7.67,0.15c1.88,0.48,3.42,2.32,5.11,3.56
		c-1.61,1.26-3.06,2.84-4.87,3.66c-1.3,0.58-3.3-0.36-4.55,0.25c-1.88,0.92-3.38,2.61-4.58,3.6c4.35,2.69,7.12,4.39,9.88,6.09
		c-2.87,1.86-5.74,3.73-9.87,6.41c-1.38,4.36,2.92,3.28,6.45,3.85c2.62,0.42,5.03,2.15,7.53,3.29c-2.58,1.38-5.07,3-7.77,4.05
		C241.06,136.7,239.13,136.39,237.35,136.49z"/>
	<path class="st1" d="M42.96,222.92c0.82-15.77,1.77-31.53,2.32-47.31c0.1-2.82-0.95-6.03-2.43-8.48
		c-3.82-6.32-4.23-12.36-1.06-19.12c3.6-7.7,6.43-15.75,9.77-23.57c0.75-1.76,2.21-3.21,3.35-4.8c1.73,1.26,4.17,2.14,5.08,3.84
		c4.02,7.52,7.79,15.19,11.29,22.96c3.42,7.58,3.33,14.88-2.01,21.95c-1.45,1.92-1.5,5.29-1.37,7.96
		c1.13,22.75,2.45,45.49,3.7,68.24c0.07,1.29,0.14,2.59,0.1,3.88c-0.26,8.98-6.55,15.44-15.05,15.48
		c-8.48,0.04-14.89-6.45-15.01-15.43c-0.11-8.53-0.02-17.06-0.02-25.6C42.07,222.92,42.52,222.92,42.96,222.92z M53.07,174.83
		c-1.31,23.93-2.56,47.44-3.93,70.95c-0.33,5.6,0.93,10.28,7.37,10.41c6.56,0.13,7.87-4.59,7.56-10.17
		c-1.21-22.23-2.48-44.47-3.47-66.71C60.38,174.13,58.24,173.08,53.07,174.83z M57.44,133.46c-3.52,7.13-7.15,12.64-8.88,18.69
		c-1,3.5-0.07,8.79,2.14,11.57c1.57,1.98,7.98,2.7,9.98,1.12c2.81-2.22,5.42-7.46,4.76-10.74C64.06,147.3,60.49,140.94,57.44,133.46
		z"/>
	<path class="st1" d="M203.46,234.66c-1.47,7.61-7.22,13.4-13.44,13.4c-6.02,0-11.36-5.13-11.63-11.17
		c-0.25-5.58,8.62-18.29,11.43-16.35C195.11,224.18,199,229.84,203.46,234.66z M192.23,230.11c-1.44,0.04-2.88,0.07-4.33,0.11
		c-0.19,3.01-0.38,6.02-0.57,9.04c1.8-0.02,3.59-0.04,5.39-0.07C192.56,236.16,192.4,233.13,192.23,230.11z"/>
	<path class="st1" d="M125.13,249.64c-2.32,0-4.66-0.18-6.97,0.04c-5.76,0.53-8.58-1.06-9.7-7.66c-0.99-5.82-5.35-11-7.56-16.72
		c-0.93-2.41-1.23-6.16,0.03-8.12c6.38-10,13.39-19.6,20.11-29.38c3.21-4.67,5.92-3.96,8.81,0.35c6.32,9.43,13.07,18.59,18.97,28.28
		c1.44,2.36,1.04,6.58,0.1,9.5c-2.11,6.52-4.89,12.86-7.86,19.04c-0.92,1.92-3.16,4.03-5.13,4.44c-3.46,0.72-7.19,0.2-10.8,0.2
		C125.13,249.61,125.13,249.62,125.13,249.64z M121.58,203.14c-0.57-0.14-1.14-0.29-1.71-0.43c-4.22,6.07-8.44,12.14-12.63,18.18
		c1.92,3.48,3.76,6.56,5.36,9.77c6.12,12.23,6.09,12.25,20,11.03c3.4-6.8,9.56-13.58,9.24-20.02c-0.33-6.53-7.07-12.74-11-19.1
		c-1.79,4.23-1.41,7.81-1.95,11.24c-0.25,1.56-2.31,2.84-3.55,4.25c-1.25-1.4-3.34-2.68-3.58-4.24
		C121.2,210.34,121.58,206.71,121.58,203.14z"/>
	<path class="st1" d="M145.73,176.88c1.76,5.31,3.85,10.3,4.89,15.5c0.33,1.66-2.12,3.88-3.29,5.84c-1.33-1.64-3.36-3.1-3.86-4.96
		c-2.98-11.16-8.11-16.34-17.29-16.78c-9.79-0.47-16.74,5.38-19.19,15.49c-0.55,2.28-2.78,4.15-4.24,6.21
		c-1.04-2.53-3.29-5.3-2.86-7.56c0.88-4.65,3.19-9.03,4.96-13.64c-0.49-0.15-1.28-0.25-1.92-0.62c-2.18-1.26-4.31-2.62-6.45-3.94
		c2.2-1.18,4.38-3.34,6.61-3.39c14.73-0.31,29.48-0.31,44.21,0c2.21,0.05,4.37,2.27,6.55,3.49c-1.94,1.28-3.83,2.65-5.84,3.8
		C147.19,176.8,146.09,176.8,145.73,176.88z"/>
</g>
</svg>
