<?xml version="1.0" encoding="utf-8"?>
<!-- Generator: Adobe Illustrator 28.2.0, SVG Export Plug-In . SVG Version: 6.00 Build 0)  -->
<svg version="1.1" id="Layer_1" xmlns="http://www.w3.org/2000/svg" xmlns:xlink="http://www.w3.org/1999/xlink" x="0px" y="0px"
	 viewBox="0 0 300 300" style="enable-background:new 0 0 300 300;" xml:space="preserve">
<style type="text/css">
	.st0{fill:#FFFFFF;}
	.st1{fill:#11271B;}
</style>
<path class="st0" d="M286.73,300H13.99c-7.25,0-13.13-5.88-13.13-13.13V14.13C0.86,6.88,6.74,1,13.99,1h272.74
	c7.25,0,13.13,5.88,13.13,13.13v272.74C299.86,294.12,293.98,300,286.73,300z"/>
<g>
	<path class="st1" d="M85.61,247.81c0-24.68,0-49.21,0-73.9c-0.41-0.02-0.82-0.06-1.23-0.06c-2.36-0.01-4.71,0.01-7.07-0.01
		c-2.16-0.02-3.39-1.22-3.39-3.36c-0.02-6.95-0.02-13.9,0-20.86c0.01-2.14,1.23-3.33,3.4-3.33c7.97-0.01,15.95,0,23.92,0
		c0.42,0,0.83,0,1.46,0c-8.31-13.67-11.07-28.21-8.07-43.7c3-15.5,11.17-27.8,23.94-37.28c-1.64-1.49-3.19-2.98-4.83-4.36
		c-1.08-0.91-1.53-1.96-1.52-3.38c0.05-7.54,0.02-15.08,0.02-22.62c0-2.67,1.04-3.72,3.7-3.72c25.06,0,50.12,0,75.18,0
		c2.66,0,3.7,1.05,3.7,3.72c0,7.62-0.01,15.24,0.02,22.86c0,1.24-0.41,2.18-1.34,2.98c-1.66,1.44-3.26,2.94-5,4.52
		c12.75,9.43,20.92,21.77,23.94,37.28c3.01,15.49,0.25,30.03-8.07,43.7c0.63,0,1.05,0,1.46,0c7.86,0,15.71,0,23.57,0
		c2.68,0,3.76,1.09,3.76,3.8c0,6.68,0,13.35,0,20.03c0,2.59-1.13,3.71-3.75,3.72c-2.62,0-5.24,0-7.95,0c0,24.69,0,49.25,0,73.96
		c0.53,0,0.99,0,1.46,0c5.15,0,10.29,0,15.44,0c0.47,0,0.95,0,1.41,0.08c1.44,0.26,2.45,1.57,2.4,3.06
		c-0.04,1.43-1.09,2.65-2.49,2.86c-0.5,0.08-1.02,0.06-1.53,0.06c-16.93,0-33.86,0.01-50.79,0.01c-39.36,0-78.71,0-118.07-0.01
		c-0.43,0-0.86,0.01-1.3-0.01c-1.82-0.07-3.09-1.33-3.08-3.04c0.01-1.7,1.27-2.94,3.11-3.02c0.39-0.02,0.79-0.01,1.18-0.01
		c4.99,0,9.98,0,14.97,0C84.61,247.81,85.07,247.81,85.61,247.81z M215.24,188.06c-41.22,0-82.31,0-123.39,0
		c0,15.25,0,30.38,0,45.53c41.18,0,82.27,0,123.39,0C215.24,218.36,215.24,203.25,215.24,188.06z M226.94,167.7
		c0-5.08,0-10.14,0-15.25c-48.97,0-97.88,0-146.85,0c0,5.11,0,10.15,0,15.25C129.06,167.7,177.94,167.7,226.94,167.7z
		 M180.12,106.06c0-4.91,0-9.63,0-14.36c-17.79,0-35.48,0-53.18,0c0,4.81,0,9.54,0,14.36c0.55,0,1.02,0,1.48,0
		c7.97,0,15.95,0,23.92,0c0.35,0,0.71-0.01,1.06,0c1.87,0.07,3.2,1.37,3.17,3.1c-0.03,1.73-1.36,2.99-3.26,2.99
		c-8.33,0.01-16.65,0.01-24.98,0.01c-0.46,0-0.91,0-1.43,0c0,4.58,0,9,0,13.49c17.78,0,35.5,0,53.25,0c0-4.53,0-8.95,0-13.51
		c-0.66,0-1.24,0-1.82,0c-3.53,0.01-7.07,0.03-10.6,0.02c-1.9-0.01-3.22-1.27-3.23-3.01c-0.01-1.73,1.3-3.03,3.19-3.07
		c1.53-0.03,3.06-0.01,4.6-0.01C174.87,106.06,177.46,106.06,180.12,106.06z M134.2,85.52c0-1.77,0.07-3.37-0.03-4.97
		c-0.04-0.58-0.32-1.3-0.74-1.69c-3.04-2.85-6.17-5.59-9.19-8.45c-0.8-0.76-1.3-0.73-2.15-0.1c-13.39,9.93-20.96,23.15-22.31,39.77
		c-1.05,12.89,2.29,24.65,9.68,35.27c0.48,0.69,0.99,0.97,1.83,0.95c2.12-0.06,4.24-0.02,6.36-0.02c1.01,0,2.01,0,3.12,0
		c0-0.68,0-1.18,0-1.68c0-18.46,0-36.91,0-55.37c0-2.62,1.1-3.71,3.72-3.71C127.65,85.51,130.83,85.52,134.2,85.52z M183.82,69.56
		c-3.56,3.24-7.07,6.43-10.58,9.63c-0.18,0.17-0.35,0.46-0.36,0.69c-0.03,1.83-0.02,3.67-0.02,5.63c0.56,0,0.98,0,1.4,0
		c2.71,0,5.42,0,8.13,0c2.87,0,3.91,1.03,3.91,3.88c0,18.42,0,36.83,0,55.25c0,0.5,0,1,0,1.57c0.52,0.03,0.9,0.06,1.28,0.06
		c2.67,0.01,5.34-0.04,8.01,0.02c0.96,0.02,1.55-0.28,2.12-1.08c17.05-24.17,11.27-57.88-12.88-74.98
		C184.53,70.01,184.2,69.81,183.82,69.56z M118.37,55.06c23.47,0,46.86,0,70.28,0c0-5.93,0-11.8,0-17.68c-23.47,0-46.85,0-70.28,0
		C118.37,43.32,118.37,49.16,118.37,55.06z M91.81,247.69c41.21,0,82.3,0,123.41,0c0-2.69,0-5.26,0-7.88c-41.18,0-82.27,0-123.41,0
		C91.81,242.47,91.81,245.01,91.81,247.69z M91.82,181.8c41.23,0,82.31,0,123.4,0c0-2.69,0-5.26,0-7.88c-41.16,0-82.25,0-123.4,0
		C91.82,176.58,91.82,179.15,91.82,181.8z M180.11,146.2c0-4.85,0-9.58,0-14.33c-17.78,0-35.47,0-53.19,0c0,4.81,0,9.54,0,14.33
		C144.68,146.2,162.36,146.2,180.11,146.2z M183.78,61.35c-20.27,0-40.28,0-60.38,0c0.17,0.22,0.23,0.32,0.31,0.4
		c4.73,4.31,9.45,8.63,14.22,12.9c0.35,0.32,0.98,0.46,1.48,0.46c9.42,0.03,18.84,0.03,28.27-0.01c0.59,0,1.29-0.31,1.74-0.71
		c3.06-2.71,6.06-5.47,9.08-8.22C180.2,64.62,181.91,63.06,183.78,61.35z M166.71,81.31c-8.86,0-17.58,0-26.33,0
		c0,1.43,0,2.77,0,4.13c8.82,0,17.55,0,26.33,0C166.71,84.04,166.71,82.72,166.71,81.31z"/>
	<path class="st1" d="M136.9,210.69c0.1-9.25,7.63-16.61,16.9-16.51c9.07,0.1,16.49,7.73,16.36,16.81
		c-0.13,9.26-7.67,16.56-16.96,16.43C144.17,227.3,136.8,219.74,136.9,210.69z M153.5,221.34c5.83,0.01,10.58-4.71,10.58-10.52
		c0-5.76-4.7-10.5-10.46-10.53c-5.84-0.04-10.6,4.65-10.64,10.47C142.94,216.56,147.68,221.32,153.5,221.34z"/>
	<path class="st1" d="M196.93,121.33c0.71,0,1.42-0.03,2.12,0.01c1.65,0.09,2.89,1.36,2.93,2.96c0.04,1.54-1.09,2.94-2.68,3.06
		c-1.56,0.12-3.14,0.12-4.71,0.01c-1.65-0.11-2.8-1.52-2.74-3.12c0.06-1.61,1.29-2.84,2.97-2.92
		C195.51,121.3,196.22,121.33,196.93,121.33z"/>
	<path class="st1" d="M196.92,110.49c0.71,0,1.42-0.03,2.12,0.01c1.65,0.08,2.89,1.35,2.94,2.95c0.04,1.54-1.08,2.95-2.67,3.07
		c-1.6,0.12-3.22,0.12-4.82,0c-1.6-0.13-2.69-1.53-2.64-3.09c0.06-1.61,1.29-2.85,2.96-2.93
		C195.5,110.46,196.21,110.49,196.92,110.49z"/>
</g>
</svg>
