<?xml version="1.0" encoding="UTF-8"?>
<svg id="Layer_1" data-name="Layer 1" xmlns="http://www.w3.org/2000/svg" viewBox="0 0 275.77 275.77">
  <defs>
    <style>
      .cls-1 {
        fill: #11271b;
      }

      .cls-1, .cls-2 {
        stroke-width: 0px;
      }

      .cls-2 {
        fill: #fbb03b;
      }
    </style>
  </defs>
  <circle class="cls-2" cx="137.89" cy="137.89" r="137.89"/>
  <path class="cls-1" d="M190.27,96.19c2.13-.85,4.38-1.49,6.74-1.92,2.34-.42,4.59-.64,6.73-.64,8.12,0,14.75,2.46,19.89,7.38,5.13,4.92,8.23,10.69,9.3,17.32,1.06,6.64-.22,13.15-3.85,19.57-3.64,6.41-10.37,11.34-20.21,14.75-4.71,1.71-9.41,2.56-14.11,2.56-7.28,0-14.11-1.17-20.53-3.53-6.41-2.35-14.54-3.53-24.38-3.53,5.13,3.85,9.94,6.74,14.43,8.66,4.49,1.92,8.98,3.96,13.47,6.09,4.49,2.15,8.87,4.82,13.15,8.02,4.27,3.21,8.55,7.81,12.83,13.8,3.85,5.56,5.77,11.01,5.77,16.36s-1.28,10.17-3.85,14.44c-2.57,4.28-6.2,7.81-10.91,10.58-4.71,2.79-9.62,4.17-14.75,4.17-4.71,0-9.52-1.18-14.43-3.53-4.92-2.35-9.52-6.51-13.79-12.51-3-4.7-5.13-9.19-6.41-13.47-1.28-4.27-2.14-8.66-2.57-13.15-.43-4.49-.86-9.19-1.28-14.11-.43-4.91-1.71-10.37-3.85-16.36-1.72,6-2.89,11.45-3.53,16.36-.64,4.92-1.18,9.62-1.6,14.11-.43,4.49-1.18,8.88-2.24,13.15-1.07,4.28-3.32,8.77-6.74,13.47-3.85,5.56-8.13,9.52-12.83,11.87-4.71,2.36-9.41,3.53-14.11,3.53-5.56,0-10.59-1.38-15.08-4.17-4.49-2.78-8.02-6.52-10.58-11.23-2.57-4.7-3.64-10.04-3.21-16.04.42-5.99,2.99-12.19,7.7-18.6,3.42-4.7,7.05-8.23,10.91-10.59,3.85-2.35,7.91-4.49,12.19-6.41,4.27-1.92,8.66-3.85,13.15-5.77,4.49-1.92,9.3-4.82,14.43-8.66-9.84,0-17.96,1.19-24.38,3.53-6.41,2.36-13.26,3.53-20.53,3.53-4.71,0-9.41-.85-14.11-2.56-9.41-3.42-16.04-8.34-19.89-14.75-3.85-6.42-5.35-12.93-4.49-19.57.85-6.63,3.85-12.4,8.98-17.32,5.13-4.91,11.76-7.38,19.89-7.38,2.13,0,4.38.22,6.74.64,2.35.43,4.59,1.08,6.73,1.92,5.55,1.72,10.05,3.96,13.47,6.74,3.42,2.79,6.74,5.88,9.94,9.3,3.21,3.43,6.41,7.06,9.62,10.91,3.21,3.85,7.38,7.49,12.51,10.91-1.71-5.98-3.96-11-6.74-15.07-2.78-4.06-5.24-8.02-7.38-11.87-2.14-3.85-4.07-7.91-5.77-12.19-1.71-4.27-2.57-9.19-2.57-14.75,0-11.55,3.1-20.21,9.3-25.98,6.19-5.78,12.93-8.66,20.21-8.66s14,2.89,20.21,8.66c6.19,5.77,9.3,14.43,9.3,25.98,0,5.56-.75,10.48-2.24,14.75-1.5,4.28-3.43,8.34-5.77,12.19-2.36,3.85-4.71,7.81-7.06,11.87-2.36,4.07-4.6,9.09-6.74,15.07,5.13-3.42,9.3-7.05,12.51-10.91,3.21-3.85,6.31-7.47,9.3-10.91,2.99-3.42,6.2-6.51,9.62-9.3,3.42-2.78,7.91-5.02,13.47-6.74Z"/>
</svg>