<?xml version="1.0" encoding="utf-8"?>
<!-- Generator: Adobe Illustrator 28.2.0, SVG Export Plug-In . SVG Version: 6.00 Build 0)  -->
<svg version="1.1" id="Layer_1" xmlns="http://www.w3.org/2000/svg" xmlns:xlink="http://www.w3.org/1999/xlink" x="0px" y="0px"
	 viewBox="0 0 300 300" style="enable-background:new 0 0 300 300;" xml:space="preserve">
<style type="text/css">
	.st0{fill:#FFFFFF;}
	.st1{fill:#11271B;}
</style>
<path class="st0" d="M286.73,300H13.99c-7.25,0-13.13-5.88-13.13-13.13V14.13C0.86,6.88,6.74,1,13.99,1h272.74
	c7.25,0,13.13,5.88,13.13,13.13v272.74C299.86,294.12,293.98,300,286.73,300z"/>
<g>
	<g>
		<path class="st1" d="M152.8,276.32c-9.86,0-18.95-2.24-26.33-4.44c-25.56-7.64-45.6-18.85-61.29-34.3
			c-16.42-16.17-26.73-34.99-30.63-55.93c-3.97-21.32,2.56-42.24,17.93-57.37c15.25-15.02,36.25-21.59,56.17-17.55
			c44.79,9.06,77.95,34.84,98.56,76.63c4.34,8.81,6.44,18.78,6.42,30.46c0.81,37.39-24.52,56.15-48.52,61.24
			C160.92,275.95,156.8,276.32,152.8,276.32z M62.99,129.07c-1.04,0.89-2.05,1.82-3.04,2.79C47.13,144.47,41.69,161.91,45,179.71
			c3.54,19.02,12.58,35.48,27.64,50.3c14.42,14.2,33.02,24.56,56.88,31.69c9.16,2.74,21.23,5.54,33.39,2.97
			c3.64-0.77,10.39-2.64,17.32-6.76l-7.29-10.63c-1.24-1.81-2.46-3.64-3.68-5.48c-2.57-3.88-5.24-7.89-8.08-11.54
			c-11.39-14.67-27.11-23.3-40.98-29.81c-12.2-5.72-22-10.86-30.85-16.18c-11.5-6.9-19.81-16.4-24.7-28.22
			c-2.23-5.4-4.56-12.77-2.69-21.97L62.99,129.07z M182.54,245.25l-1.58,12.21c11.18-6.9,22.58-19.77,22.04-43.47l0-0.13
			c0.03-10.03-1.71-18.47-5.32-25.79c-19.34-39.23-49.15-62.43-91.13-70.92c-13.39-2.7-27.42,0.43-39.04,8.45l4.18,6.75
			c0.39,0.63,0.74,1.18,1.06,1.68c0.74,1.15,1.34,2.1,1.86,3.09c8.97,17.16,22.23,28.67,40.56,35.2
			c9.32,3.32,21.38,8.18,31.93,16.45c16.95,13.27,28.84,31.26,35.36,53.48C182.75,243.18,182.77,244.2,182.54,245.25z
			 M172.26,245.21c0.01,0.02,0.01,0.04,0.02,0.06C172.27,245.26,172.27,245.23,172.26,245.21z M82.36,164.81
			c3.44,3.98,7.6,7.44,12.46,10.35c8.53,5.12,18.03,10.1,29.9,15.67c7.66,3.59,15.86,7.8,23.74,13.25
			c-2.47-2.44-5.11-4.76-7.91-6.96c-9.35-7.32-20.37-11.75-28.94-14.8C100.33,178.31,90.56,172.46,82.36,164.81z"/>
	</g>
	<g>
		<path class="st1" d="M206.65,182.93l-3.35-4.84c-1.75-2.53-3.46-5.1-5.16-7.66c-3.87-5.83-7.53-11.34-11.73-16.46
			c-4.16-5.07-8.83-9.73-13.78-14.67c-2.22-2.21-4.45-4.44-6.67-6.73l-2.63-2.72l1.71-3.37c5.36-10.57,12.01-22.23,20.98-32.97
			c-9.35,7.97-16.82,18.11-22.53,30.5l-2.51,5.46l-5.11-3.17c-18.5-11.46-36.82-17.41-56.01-18.2l-8.21-0.33l3.67-7.35
			c6.04-12.1,13.22-22.4,21.96-31.49c17.54-18.26,35.71-30.15,55.54-36.34c17.53-5.48,34.91-4.65,51.67,2.46
			c16.86,7.15,27.86,21.34,32.68,42.18c2.53,10.94,1.6,22.62-2.85,35.69c-9.05,26.57-22.29,47.45-40.47,63.85
			c-0.74,0.67-1.5,1.31-2.13,1.84L206.65,182.93z M176.26,127.89c1.29,1.3,2.58,2.59,3.87,3.88c4.92,4.9,10,9.97,14.5,15.46
			c4.54,5.54,8.51,11.53,12.36,17.32c0.56,0.84,1.12,1.69,1.69,2.53c15.81-14.89,27.47-33.76,35.6-57.61
			c3.79-11.14,4.63-20.91,2.56-29.87c-4.07-17.58-12.73-28.96-26.48-34.79c-14.37-6.09-29.29-6.8-44.35-2.09
			c-18.09,5.65-34.78,16.63-51.05,33.56c-6.24,6.5-11.63,13.69-16.33,21.83c16.31,1.85,32.07,7.17,47.82,16.15
			c14.51-27.62,38.51-44.79,71.43-51.08l2.93,10.17C202.73,84.29,187.36,106.68,176.26,127.89z"/>
	</g>
</g>
</svg>
