<?xml version="1.0" encoding="UTF-8"?>
<svg id="Layer_2" data-name="Layer 2" xmlns="http://www.w3.org/2000/svg" viewBox="0 0 1193 635.32">
  <defs>
    <style>
      .cls-1 {
        fill: #675240;
      }

      .cls-2 {
        fill: #7c6956;
      }

      .cls-3, .cls-4, .cls-5 {
        fill: none;
        stroke: #d8501c;
        stroke-miterlimit: 10;
        stroke-width: 2px;
      }

      .cls-6 {
        fill: #eadac4;
      }

      .cls-7 {
        fill: #fef0d6;
      }

      .cls-8 {
        fill: #eddcc6;
      }

      .cls-9 {
        fill: #43291c;
      }

      .cls-10 {
        fill: #462c1f;
      }

      .cls-11 {
        fill: #442b1e;
      }

      .cls-12 {
        fill: #442a1d;
      }

      .cls-13 {
        fill: #02221d;
      }

      .cls-14 {
        fill: #695442;
      }

      .cls-15 {
        fill: #51392b;
      }

      .cls-16 {
        fill: #c74f22;
      }

      .cls-17 {
        fill: #4f3628;
      }

      .cls-18 {
        fill: #ca4e1f;
      }

      .cls-19 {
        fill: #685241;
      }

      .cls-20 {
        fill: #482f21;
      }

      .cls-21 {
        fill: #cbb9a6;
      }

      .cls-22 {
        fill: #8f7a68;
      }

      .cls-23 {
        fill: #c4b19d;
      }

      .cls-24 {
        fill: #c3b19d;
      }

      .cls-25 {
        fill: #f9ead2;
      }

      .cls-26 {
        fill: #fdeed5;
      }

      .cls-27 {
        fill: #523a2b;
      }

      .cls-4 {
        stroke-dasharray: 0 0 9.91 9.91;
      }

      .cls-28 {
        fill: #988472;
      }

      .cls-29 {
        fill: #826e5b;
      }

      .cls-30 {
        fill: #5d4736;
      }

      .cls-31 {
        fill: #574030;
      }

      .cls-32 {
        fill: #4d3427;
      }

      .cls-33 {
        fill: #4b3124;
      }

      .cls-34 {
        fill: #482f22;
      }

      .cls-35 {
        fill: #a5917f;
      }

      .cls-36 {
        fill: #faecd3;
      }

      .cls-37 {
        fill: #4a3022;
      }

      .cls-38 {
        fill: #fef0d7;
      }

      .cls-39 {
        fill: #66503f;
      }

      .cls-40 {
        fill: #594433;
      }

      .cls-41 {
        fill: #ca5021;
      }

      .cls-42 {
        fill: #f8ead1;
      }

      .cls-43 {
        fill: #fdefd5;
      }

      .cls-44 {
        fill: #c8b6a2;
      }

      .cls-45 {
        fill: #9b8676;
      }

      .cls-5 {
        stroke-dasharray: 0 10;
      }

      .cls-46 {
        fill: #ebdcc5;
      }

      .cls-47 {
        fill: #f4dfc5;
      }

      .cls-48 {
        fill: #fff1d7;
      }

      .cls-49 {
        fill: #493023;
      }

      .cls-50 {
        fill: #493123;
      }

      .cls-51 {
        fill: #654e3f;
      }

      .cls-52 {
        fill: #d8511c;
      }

      .cls-53 {
        fill: #644d3d;
      }

      .cls-54 {
        fill: #522816;
      }

      .cls-55 {
        fill: #806e5a;
      }

      .cls-56 {
        fill: #ce4f1f;
      }

      .cls-57 {
        fill: #4e3628;
      }

      .cls-58 {
        fill: #fceed5;
      }

      .cls-59 {
        fill: #644f3e;
      }

      .cls-60 {
        fill: #a79281;
      }

      .cls-61 {
        fill: #60493a;
      }

      .cls-62 {
        fill: #efdfc9;
      }

      .cls-63 {
        fill: #cb4f20;
      }

      .cls-64 {
        fill: #b6a38f;
      }

      .cls-65 {
        fill: #44291c;
      }

      .cls-66 {
        fill: #8f7b69;
      }

      .cls-67 {
        fill: #fbedd4;
      }

      .cls-68 {
        fill: #786351;
      }

      .cls-69 {
        fill: #614a3b;
      }

      .cls-70 {
        fill: #6c5645;
      }

      .cls-71 {
        fill: #584232;
      }

      .cls-72 {
        fill: #d6c3b0;
      }

      .cls-73 {
        fill: #5e4838;
      }

      .cls-74 {
        fill: #685342;
      }

      .cls-75 {
        fill: #e2d0bd;
      }

      .cls-76 {
        fill: #988471;
      }

      .cls-77 {
        fill: #442b1d;
      }
    </style>
  </defs>
  <path class="cls-13" d="m126,567s289,18,497,12,365-7,365-7c0,0,101-2,112-12s-974,7-974,7Z"/>
  <path class="cls-48" d="m1167.69,556.68c-5.83-13.29-11.69-26.57-17.58-39.84-54.49-122.79-109.15-245.51-163.24-368.48-5.24-11.92-12.59-15.68-24.76-15.7-102.97-.09-205.94-.92-308.92-.79-129.11.15-258.22,1.05-387.33,1.38-7.58.02-12.17,2.36-15.55,9.08-10.67,21.22-21.88,42.17-32.59,63.37-59.98,118.74-119.87,237.53-179.79,356.3-3.88,7.69-2.37,10.58,6.62,10.69,27.98.34,55.97.5,83.95.41,147.07-.47,294.14-.64,441.2-1.69,144.69-1.03,289.37-2.95,434.05-4.58,53.29-.6,106.58-1.46,159.87-2.2,5.2.95,6.64-2.03,4.05-7.93Zm-147.6-166.64c-1.61.29-3.41-.02-5.13-.07,0,0,0,0,0,0,1.72.06,3.52.37,5.12.08Zm-3.98,6.26c-.5-2.08-1.01-4.17-1.51-6.25,0,0,.01,0,.02,0,.49,2.07.99,4.16,1.5,6.24Zm-110.39-39.43c-.7.15-1.42.26-2.15.37.73-.1,1.45-.21,2.15-.37h0Zm-130.8-141.03c-5.28,2.19-10.29.6-15.36-1.03-.08.09-.16.18-.24.28-.28.36-.55.74-.82,1.12.27-.38.55-.76.82-1.12.08-.1.16-.19.24-.28h0s0-.01.01-.02c5.06,1.65,10.07,3.24,15.35,1.05Zm-15.4-1.29c-.09-1.12-.14-2.82-.29-3.26.15.44.2,2.15.3,3.26,0,0,0,0,0,0h0c-6.7-.75-13.4-1.49-20.1-2.24l20.1,2.24Zm-318.27,10.45c-.54-.41-1.07-.89-1.6-1.39s-1.05-1-1.58-1.47c.53.47,1.06.97,1.58,1.47s1.06.97,1.6,1.39h0Zm337.06,132.01c.52.45,1.04.89,1.57,1.31h0c-.53-.42-1.05-.86-1.57-1.31Z"/>
  <g>
    <path class="cls-43" d="m1000.03,224.37c-5.71-8.63-16.41-8.63-24.2-13.73-2.03-1.33-6.64-1.45-8.37-.04-5.73,4.67-9.94.88-14.63-1.34-3.74-1.77-7.51-3.47-10.94-5.04-2.8,2.36,2.12,5.19-1.3,6.55-2.66,1.06-3.16-2.76-4.76-3.11-7.27-1.6-12.78-9.02-21.57-5.91-5.14,1.82-10.63-.39-15.4-2.19-4.98-1.88-8.95-2.36-13.14,1.17-2.58,2.18-4.99,3.07-6.35-1.45-1.32-4.41-5.34-3.01-8.06-2.62-3.55.51-6.75.79-9.87-1.16-3.38-2.12-6.61-3.14-9.9.39-.69.74-2.46.82-3.66.66-11.45-1.56-23.04-2.09-34.31-4.94-9.54-2.41-19.14-3.74-28.72.03-.92.36-2.12.48-3.08.24-15.15-3.77-31-2.22-46.13-6.17-2.76-.72-5.73-.61-8.61-.9-7.51-.75-15.48,2.99-22.59-2.77-1.4-1.13-4.95-.8-6.87.15-5.56,2.73-10.88,5.19-17.31,2.95-1.12-.39-3.19.59-4.21,1.57-1.97,1.89-4.54,2.52-6.56,1.8-8.16-2.93-16.6,1.06-24.74-1.4-4.09-1.24-8.35-.91-12.56-.27-1.54.23-3.78,1.16-4.52.48-5.68-5.19-10.7-1.15-15.91.73-5.02,1.82-9.84,2.8-15.23.35-4.25-1.94-9.16-2.49-13.44.82-2.79,2.16-5.81,2.27-8.99,1.17-10.31-3.58-20.3-3.84-30.58.91-6.43,2.97-13.56,4.31-20.82,1.79-1.67-.58-3.75-.66-5.49-.28-10.27,2.24-20.42,4.62-31,1.11-2.35-.78-5.75,1.16-5.82,4.08-.09,3.42,3.4,2.41,5.54,2.65,4.02.47,7.35,1.52,7.12,6.54-4.13,2.05-8.4,2.22-12.98,1.78-8.08-.77-16.2-1.03-24.07,1.88-1.97.73-.64,1.44-.39,2.27.18.74.11,1.43-.19,2.11-4.8,2.44-10.56,2.18-15.04,5.46-1.46,1.79-3.22,1.92-5.17.93-4.07-3.18-8.29-4.34-12.8-.93-.42,2.29.99,4.62-.17,6.87-3.15,3.18-6.14,1.98-9.1-.3-4.04-2.66-7.95-.47-11.89.37-1.92.27-3.64-.23-5.21-1.32-1.55-1.48-2.45-3.6-4.53-4.57-2.86-2.54-4.23-5.49-2.56-9.27,2.23-3.79,6.21,2.38,8.44-1.47,2.58-1.38,4.29.74,6.31,1.58,2.11.88,4.03,1.37,4.4-1.76-1.49-.84-2.42.89-3.72.79-3.11-.27-6.23-1.95-9.29.2-3.64-3.06-1.5-6.11.11-9.04-25.42-6.81-51.12-5.71-76.8-3.38-7.24.66-14.71,2.18-19.43,8.96-.76.45-1.5.43-2.23-.08-2.57-4.1-.02-10.75,5.04-12.19,2.77-.79,5.71-.87,7.41-3.68l-.05.04c4.25.51,8.36.35,12.34-1.65,1.58-.79,3.58-1.24,5.33-1.11,25.31,1.88,50.75,1.36,76.02,4.37,9.91,1.18,19.87-.81,29.77-2,3.12-.37,6.47-1.38,9.36-.66,7.99,1.99,15.08-.05,22-3.56,2.09-1.06,4.11-1.71,5.8.05,3.84,4,7.65,2.92,12.23,1.2,4.53-1.71,9.5-3.25,14.46-.4,2.11,1.21,5.09,1.72,6.89.51,6.24-4.18,13.82-4.04,19.89-3.09,10.46,1.62,19.86-.12,29.86-2.08,6.38-1.25,13.48,1.07,20.24,1.95,2.4.31,5.1.98,6.9-.58,5.45-4.72,11.52-2.89,17.21-1.65,4.2.91,8.11.52,11.52-1.11,8.54-4.08,17.13-4.27,26.01-1.96,5.82,1.52,11.14,1.37,16.64-1.96,5.18-3.14,11.33-2.84,16.77-.32,4.87,2.26,9.91,3.11,14.54,1.21,7.59-3.11,15.61-3.11,23.3-3.35,7.1-.22,14.26,2.88,21.45,4.17,15.25,2.73,30.78,2.48,46.12,3.94,17.02,1.62,34.51-1.52,51.1,4.57,1.88.69,3.64-.02,5.37-.64,5.08-1.82,10.07-3.08,15.12.38,1.11.76,3.37.96,4.51.34,6-3.27,11.82-1.86,17.39.59,11,4.85,22.95,1.74,34.19,4.53,12.69,3.15,26.14.13,38.48,3.09,9.11,2.18,18.04-3.44,26.64,1.77,5.97,3.61,13.72,3.37,19.53,6.09,6.99,3.29,11.33,11.32,13.84,19.33Z"/>
    <path class="cls-9" d="m276.18,214.88c3.03-1.64,6.06-3.28,9.09-4.91,4.14-1.55,8.48.95,12.63-.62,4.91.85,9.81,1.54,14.73.02,1.22-.03,2.43-.07,3.65-.19,2.2-.42,4.21.07,6.05,1.29,2.08,2.58,3.95,5.26,3.54,8.84-6.66.2-10.53,7.74-17.79,6.68-1.61-.24-2.08,2.05-2.96,3.29-2.55,3.62-4.3,7.14-10.53,4.15-2.56-1.23-9.12.42-12.14,4.8-3.21,1.57-6.32,1.04-9.38-.46-1.04-.53-1.97-1.24-2.8-2.05-.38-.31-.81-.59-1.14-.95-2.78-3.11-5.17-3.22-7.06.87-3.5,1.27-6.6-.1-9.7-1.46l.15-.54c-4.48-5.4-3.8-8.74,2.9-11.75,6.68-3,13.59-5.42,20.77-7.01Z"/>
    <path class="cls-11" d="m276.18,214.88c-6.02,3.61-11.95,7.14-19.2,8.12-6.73.91-6.34,5.67-4.47,10.64-3.74-.18-6.35,2.56-9.58,3.69-1.23.41-2.45.87-3.7,1.22-2.05.58-4.43,1.26-5.49-1.2-1.06-2.44,1.05-4.26,2.86-4.89,8.17-2.84,13.89-9.16,20.7-13.92,5.69-3.98,12.24-4.26,18.89-3.66Z"/>
    <path class="cls-61" d="m333.04,176.89c4-5.86,8.48-6.43,12.75-1.63-3.88,3.45-7.98,5.15-12.75,1.63Z"/>
    <path class="cls-59" d="m314.24,181.75c4.25.4,7.82-5.24,12.46-1.43-1.97,4.31-6.3,5.21-10.09,6.08-4.51,1.03-4.73-1.47-2.37-4.65Z"/>
    <path class="cls-30" d="m309.23,192.38c-.76.16-1.52.32-2.27.49-2.35.54-4.63.4-6.39-1.38-.27-.27.38-2.15,1.01-2.47,2.81-1.42,6.1-1.92,8.79-.5,1.56.82-.59,2.6-1.19,3.9,0,0,.05-.04.05-.04Z"/>
    <path class="cls-1" d="m294.64,200.11c-.63,2.24-2.35,2.66-4.33,2.42-1.72-.21-3.16-1.17-2.95-3.01.28-2.47,2.37-2.45,4.27-2.33,1.78.12,2.96.96,3.01,2.92Z"/>
    <path class="cls-11" d="m298.25,210.28c-4.37,1.83-8.67.21-12.98-.31,3.5-2.82,7.59-1.72,11.51-1.72.5.13,1.01.26,1.51.39,0,0,.52.48.52.48,0,0,0,.71,0,.71l-.55.45Z"/>
    <path class="cls-46" d="m200.15,271.87c1.64-3.96,2.7-8.26,6.34-11.08-.1,4.84-2.1,8.6-6.34,11.08Z"/>
    <path class="cls-9" d="m708.78,232.53c5.59-1.13,9.84-.13,10.99,6.46.45,2.55,2.53,3.92,4.84,4.64,1.61.5,3.24-.06,3.9-1.72.75-1.9-1.1-1.9-2.17-2.37-1.45-.64-3.25-1.24-2.44-3.22.71-1.75,2.68-1.49,4.13-1.16,3.99.9,6.59-.31,7.65-4.38,2.6-5.34,7.39-5.74,12.49-5.66,4.3.07,8.93,1.06,11.99-3.38.73-.46,1.53-.75,2.38-.9,8.74,2.11,18-.76,26.7,3.54,5.87,2.9,12.12-1.72,18.34-1.49,5.19,1.03,10.44.64,15.67.7,1.71,0,3.42,0,5.13,0,5.77,0,11.54.01,17.31-.03,3.48.46,6.28-1.2,9.07-2.91,2.09-.82,4.26-1.09,6.49-.97,6.12,1.27,12.35.39,18.5.97,6.54,5.12,13.27,8.4,21.48,3.23,1.35-.85,3.79-.71,5.3.25,5.54,3.5,9.68.9,13.72-2.72,4.96-.45,9.94.02,14.89-.42,5.15,3.41,11.67,5.83,10.21,14.05-.05,2.07.1,4.16-.73,6.15-3.44,5.73-10.1,4.11-14.98,6.57-4.59-.49-8.87,2.9-13.56,1.16-.77-.13-1.53-.36-2.25-.67-8.44-3.59-16.83-6.82-25.17.41-1.52,1.32-2.52,2.52-1.94,4.55,1.13,1.75,3.4,2.03,4.64,3.61.7.8,1.19,1.71,1.53,2.7,1.55,3.58,4.91,5.76,6.97,8.95,2.27,3.43,3.27,7.1,2.2,11.18-4.34,5.73-6.86,11.04-1.08,17.96,3.77,4.52,1.89,6.78-5.21,8.07-4.71-1.68-10.29-1.76-12.77-6.46,1.23,2.72,4.08,4.16,7.41,4.95,10.63,9.11,8.7,19.79-5.16,28.6-3.3,2.37-7.01,2.32-10.78,1.79-1.99.42-4.22.15-6.11,2.21,3.77,6.56,13.95,11.97,5.28,21.44-4.97,5.43-12.85,6.13-20.1,2.27,1.46,2.2,4.29,2.49,6.25,4.11,2.24,1.85,4.48,3.74,6.13,6.13,2.25,3.25,3.94,6.6-.97,9.18-6.33,1.59-10.46-1.49-13.71-6.44-5.75-7.41-12.05-14.68-18.2-21.39-5.22-5.69-15.63-7.58-22.89-13-2.13-1.59-20.19,12.26-20.68,15.33-.17,1.04-.08,2.11-.2,3.15-.49,4.24-.9,8.72-5.67,10.43-4.2,1.51-6.88-1.36-9.42-4.18-1.83-2.03-4.4-2.91-6.84-3.83-4.22-1.6-7.13-4.35-8.63-8.61-.29-1.89-.23-3.84-1.1-5.61-6.8-10.56-15.92-16.82-29.03-15.62-3.94.36-7.77-.62-11.66-.78-4.12-2.99-9.69-1.49-13.03-4.08,2.66,1.66,6.7,1.73,10.42,2.9,2.78,3.37,7.58,7.21,3.25,11.3-3.43,3.24-7.08,7.44-14.12,5.7-7.92-1.95-16.61-1.44-24.43,2.48-5.66,2.84-8.86.97-13.13-3.9-9.81-11.19-15.21-24.93-23.59-36.87-2.72-3.87-9.37-4.66-8.72-11.15,1.08-2.02,2.85-2.78,5.04-2.76,10.44,4.26,12.93,3.58,18.15-5.36-7.87.29-15.27,1.47-23.09-1.01-3.81-1.21-9.29,4.57-13.05,8.61-1.45,1.55-1.98,3.71-3.69,5.07-2.53,2.01-5.21,2.4-8.06.88-2.61-1.39-3.51-3.64-3.3-6.57.69-9.23-5.54-13.65-14.67-10.38-2.46.88-4.71,2.34-7.26,3.05-3.57.99-6.85.53-9.28-2.49-2.36-2.92-1.47-5.98.28-8.79,1.97-3.17,4.76-4.9,8.65-3.86,3.73,1.01,7.44,2.9,11.12-.04.42-.98.05-2.1.3-2.97,1.74-5.95-.64-8.36-6.51-8.05-2.61-1.81-8.17-1.12-7.56-5.34.65-4.56,5.67-5.88,9.88-5.97,9.1-.21,16.96-3.66,24.85-7.73,9.9-5.11,19.84-7.26,30.79-1.38,6.89,3.7,14.7,6.59,23.16,3.06,2.44-1.02,5.38,1.02,8.26,1.28,8.04.73,15.12-3.95,23.01-3.3,6.84.63,7.33-4.43,8.2-9.15Z"/>
    <path class="cls-9" d="m547.08,369.65c-.54.05-1.09.09-1.63.14-3.34-4.87-7.99-4.16-12.69-2.9-8.55,2.3-17.07,4.86-26.07,3.91-5.74-.61-12.33-1.06-14.13-7.73-2.2-8.16-7.46-16.77,1.37-24.71,7.4-6.65,14.29-13.86,19.76-22.27l-.06.05c6.3-2.36,11.02-8.04,18.38-8.35,3.3-.14,3.42-3.33,3.93-5.98,1.73-8.94,6.98-12.39,15.78-10.61,3.69.75,6.35,2.46,6.62,6.61.15,2.32-.26,5.23,2.68,5.89,2.94.66,4.85-1.39,6.16-3.9.37-.71.91-1.28,1.51-1.8,1.46-.91,3.02-1.07,4.65-.58,2.73,1.17,3.52,3.66,4.25,6.23,3.54,12.38,20.07,17.75,29.7,9.61,3.12-2.64,6.56-3.11,9.02.02,3.5,4.45,7.38,4.39,12.49,3.87,5.66-.58,11.94.25,14.43,6.88,1.05,2.79,3.15,3.16,5.23,4.06.58.49,1.02,1.1,1.35,1.78.7,12.73,4.84,18.63,15.72,22.33,7.91,3.61,15.63,4.03,23.33-.77,2.88-1.79,6.2-1.73,8.83.65,2.66,2.4,2.56,5.65,1.61,8.82-1.48,4.96-4.65,8.81-8.49,12.13-6.58,5.68-12.24,12.34-19.04,17.78-2.9,2.32-3.97,5.19-2.98,9.08,4.49,17.73,4.42,17.75-10.26,28.69-1.32.98-2.03,2.39-2.91,3.69-12.96,8.69-20.13,22.74-30.8,33.57-4.84,4.91-9.71,7.38-15.97,3.93-4.87-2.69-7.84-.98-10.47,3.01-2.56,1.66-5.17,2.28-7.87.29-3.47-3.5-2.94-9.34-7.23-12.38-3.11-6.68-6.64-13.22-7.08-20.81,3.97-4.03,5.06-7.95.58-12.64-2.76-2.89-3.29-6.85-2.99-10.93.24-3.31.87-6.77-1.2-9.85-.22-3.66-.44-7.32-.66-10.98.81-2.27,2.57-3.13,4.83-3.25,4.43-1.56,7.64,1.87,11.47,2.8,1.78.82,3.17,2.11,4.4,3.6,1.51,2.76,3.22,5.13,6.96,3.49,4.26-.51,7.72-3.27,11.81-4.25,3.19.12,6.06-.96,8.93-2.24,5.65-2.52,3.38-4.56-.32-6.58-.61-.45-1.12-1-1.56-1.62-.87-1.32-1.02-2.8-1.06-4.32-.06-3.33-2.12-5.12-5-4.17-4.74,1.56-9.76.5-14.4,2.22-1.09.23-2.17.2-3.24-.04-3.98-2.17-7.68-3.43-9.18,2.75-.23.71-.55,1.35-.96,1.97-2.3,2.35-3.58,6.02-7.71,6.03-1.17-.09-2.21-.53-3.15-1.23-4.06-3.28-6.35-7.52-7.13-12.71-.31-2.04-.62-4.14-1.57-6.07-3.38-6.87-6.03-7.7-12.76-3.86-1.64.93-3.49,1.1-5.23,1.64Z"/>
    <path class="cls-9" d="m404.45,385.97c3.77,1.51,8.04,1.79,11.25,4.64-.13,2.37.78,4.09,3.09,4.93,0,.97-.02,1.95-.03,2.92,1.98,3.86-1.27,4.92-3.47,6.63-5.31,4.14-9.59,8.28-7.23,16.38,1.95,6.71-4.26,15.81-11.77,17.29-9.36,1.85-13.01,9.27-16.85,15.99-4.78,8.35-8.28,17.43-15.09,24.51-1.87,1.95-2.45,3.92-1.24,6.35.57,2.36.76,4.63-1.47,6.33-7.75,3.12-13.53,9.07-20.05,13.95-.78.59-1.43,1.33-2.08,2.07.66-.74,1.32-1.49,2.13-2.1,7.99.61,11.39,6.29,6.36,12.53-4.39,5.45-2.13,8.25,1.59,11.72.77.72,1.5,1.49,2.17,2.3,1.99,2.4,5.3,4.97,3.59,8.11-2.05,3.78-5.98,1.22-9.26,1.02-10.04-.61-16.6-5.73-20.29-14.78-1.02-2.51-3.65-2.89-5.11-4.71-.45-.32-.55-.72-.31-1.21-.69-1.19-1.07-2.67-.59-3.79,3.39-8.05-2.25-12.38-6.86-17.17-1.18-1.55-2.37-3.1-3.55-4.65-1.16-3.76-.57-7.85-2.47-11.51-1-1.93-.9-4.61.71-5.98,5.85-4.95,3.46-10.39,2.46-16.52-1.4-8.62-.61-17.51-2.02-26.31-1.16-7.22-3.74-11.45-11.3-12.88-10.7-2.02-23.07-17.29-23.61-28.14-.11-2.29,1.22-3.83,2.36-5.64,5.21-8.31,14.35-13.17,18.78-22.31,2.07-4.26,7.64-2.34,11.67-3.02,2.8.23,5.42-.31,7.81-1.82,10.17-6.86,21.19-3.82,32.02-2.65,2.11.23,3.77,1.66,4.7,3.7,2.7,3.61,6.54,5.18,10.82,5.35,7.36.3,12.37,3.24,14.02,10.85.25,1.14,1.37,2.09,2.09,3.13.4.75-.11,1.47-.09,2.21.58-.45,1.16-.91,1.83-1.24,1.7,1.57,3.85,1.83,6,2.07,6.36,1.36,12.98-.86,19.27,1.43Z"/>
    <path class="cls-38" d="m760.66,351.07c2.49,3.47,5.3,6.36,9.89,6.99,3.41.47,5.24,3.24,7.04,5.81,1.22,1.74,2.3,3.89,4.84,3.02,2.09-.72,3.11-2.77,3.68-4.84.27-.98.36-2.11.18-3.11-1.48-8.16.4-13.87,9.99-14.25,2.47-.1,3.53-1.93,4.62-3.78,4.31-7.3,11.55-7.79,16.76-.9,3.38,4.47,6.8,8.31,13.02,5.58,3.85-1.69,5.2,1.78,5.73,3.57,2.8,9.54,10.87,15.01,16.39,22.42.62,1.39-.18,2.1-1.28,2.67-2.51.66-4.64-.12-6.59-1.67,12.94,10.12,25.84,20.33,40.82,27.4,5.92,2.8,11.97,5.44,18.82,4.54,1.71-.52,3.56-.35,5.02-.93-2.15.54-4.58.75-6.99,1.15-16.17-3.19-30.4-9.8-40.9-23.05-.5-2.97,2.36-2.58,3.71-3.71,3.53-3.28-.4-4.06-1.84-5.86-5.27-6.61-14.19-9.51-18.42-17.54,3.92-1.72,5.8.64,7.95,2.55,5.69,5.05,15.17,4.31,20.04-1.58,2.78-3.36,2.51-6.69-.56-9.78-2.58-2.6-5.18-5.19-7.73-7.82-1.03-1.06-3.09-1.71-2.39-3.61.72-1.93,2.67-2.31,4.58-2.28,2.09.04,4.19.13,6.28.19,10.75,9.24,13.19,17.83,7.15,29.01-2.76,5.1-3.65,8.26,2.95,10.12,1.19.34,1.71,1.91,2.09,3.2-.23,5.18,1.88,8.98,6.5,11.49,3.97,2.16,8.16,2.67,12,.57,4.01-2.2,2.74-6.49,2.15-9.93-.47-2.73.15-5.75-1.61-8.36-6.08.67-8.42,10.28-16.14,6.7-4.16-6.81-.53-11.26,4.59-15.33,2.65-2.1,5.72-3.55,8.65-5.52-3.1-4.14-6.39-7.96-7.64-12.91-.75-3-3.02-3.89-5.6-4.85-2.46-.92-6.04-1.57-4-5.8,12.78-11.97,13.29-15.6,4.53-25.14.86-5.11,4.13-2.2,6.59-1.98h6.72c-5.21-7.91-16.25-15.54-2.02-23.92,1.49-4.4,4.17-5.89,8.45-3.45,2.03,1.62,4.12,3.15,6.51,4.3,9.23,4.47,9.77,11.7,1.33,18.66,4.68-.69,8.93-1.65,9.16-7.52-.55-9.12,3.47-16.61,8.43-23.75.64-2.55-.66-4.8-1.14-7.18-.34-2.33-.23-4.67-.66-7.02-1.3-7.13-.34-8.31,7.27-9.07,4.38-.44,6.1-2.47,5.1-6.77,1.02-7.93,5.9-5.82,10.63-4.09,5.42.54,6.44-2.63,6.93-7.22.44-4.13.95-7.8,7.12-3.03,5.63,4.35,13.63,4.79,20.83,2.53,4.01-1.26,7.21-2.43,8.29,3.13-7.63,2.02-15.21,3.34-23.14,1.06-3.2-.92-6.77-.63-8.83,3.23-1.98,3.71-6.42,4.4-9.37,6.97-2.89,6.15-5.7,12.25-14.15,12.09-1.89-.04-2.44,2.5-1.74,3.74,5.31,9.41-1.04,16.55-4.48,24.25-.55,1.22-.88,2.46-1.03,3.77-.18,2.32-1.31,4.41-.83,6.95,2.08,10.99.75,12.94-9.33,18.59-5.05,2.83-9.61,6.27-15.89,5.81-2.07-.15-4.44.94-4.24,3.68.28,3.85-.33,8.98,4,10.39,12.83,4.19,20.25,15.37,30.7,22.58,4.58,3.16,6.31,8.38,7.39,13.57.84,4.01,2.4,5.62,6.47,3.76,6.48-2.95,11.79-1.72,17.26,3.22,4.03,3.64,10.33,1.48,15.62,3.07,8.4,2.53,17.65,1.83,25.72,6.25,3.39,1.86,5.07-1.94,7.68-2.77,9.2-.97,19.12,4.23,23.26,12.18,3.36,6.45,1.48,11.51-5.28,14.43-5.96,2.58-12.4,4.15-17.31,8.93-2.42,2.35-2.76,3.99-.2,6.4,4.4,4.13,8.71,8.37,12.62,12.97,2.96,3.48,5.38,7.31,2.21,12.04-4.57,2.78-7.78-.01-10.8-2.84-2.43-2.27-4.37-5-6.23-7.76-2.27-6.08-9.26-6.28-13.06-10.45-.48-.6-.85-1.27-1.11-1.99-.43-2.29-.52-4.63-1.7-6.8-1.18-2.17-2.82-3.02-5.13-2.72-2.42.31-3.78,1.58-3.52,4.22.33,3.35,0,6.62-4.1,7.24-3.74.56-5.47-2.25-7.15-5.07-6.33-10.59-16.91-12.55-26.02-4.22-4.6,4.21-10.36,3.09-15.3,5.22-1.26.73-2.33,1.78-3.72,2.3-4.1,3.72-8.32,6.16-14.43,6.42-6.71.29-11.18,6.39-16.17,10.39-11.52,9.22-11.97,15.2-3.39,27.34,6.79,9.61,7.62,9.8,18.82,4.17,10.61-5.12,21.25-7.63,32.18-.79,1.26.79,3.04.83,4.59.98,12.42,1.23,20.24,8.77,26.23,18.89,1.11,1.64,2.42,3.18,2.92,5.16.02,2.71.25,5.16,3.81,5.6,3.41.42,4.75-1.24,4.96-4.33-.08-1.48-.2-2.97.61-4.32.9-1.34,2.14-2.38,3.6-2.92,11.83-4.35,19.61-13.22,27.26-22.78,5.11-6.39,8.05-12.84,8.04-20.84,3.57-2.45,6.56-1.15,9.05,1.67,3.79,4.3,3.21,9.33,1.48,14.14-.86,2.39-2.38,4.77-4.31,6.55-7.73,7.17-14.06,15.63-21.51,23.06-1.88,1.87-3.86,3.41-6.47,4.32-3.38,1.18-5.33,3.72-6.42,7.38-2.26,7.56-6.28,10.06-14,9.77-3.96-.15-7.65-1.66-11.62-1.97-3.14-.24-4.79-2.7-5.71-5.77-5.89-19.74-28.59-31.07-48.33-24.09-4.21,1.49-8.36,3.14-12.47,4.93-10.41,4.54-18.19.97-22.04-9.8-.27-.75-.46-1.63-.99-2.13-9.96-9.38-6.07-21.54-6.49-32.78-.19-5.15,2.66-8.16,7.99-9.03,8.16-1.33,13.01-8.07,19.29-12.47.81-.57,1.18-1.86.45-2.86-1.21-1.65-2.91-2.06-4.89-1.63-9.26,2.01-18.16-.63-27.15-2.13-2.65-.53-5.18-1.62-7.01-3.46-9.1-9.09-21.78-13.69-29.91-23.95-.81-1.03-1.8-2.06-3.11-2.34-10.53-2.24-13.56-11.06-14.4-19.47-.74-7.45-3.62-10.07-10.06-12.47-5.67-2.12-10.43-4.3-16.09-.5-2.99,2.01-5.2,4.04-5.84,7.87-.55,3.33-1.67,6.6-2.63,9.88-1.35,4.59-4.18,7.26-8.75,8.01-4.54.74-8.86-.62-10.98-4.61-2.62-4.94-6.69-7.05-11.53-8.74-3.43-1.2-5.92-3.7-6.01-7.55-.07-2.72.66-5.35,4.36-5.18Z"/>
    <path class="cls-48" d="m420.32,381.13h-3.17c-.78-.71-1.74-1.44-2.67-1.48-10.42-.38-9.11-7.53-8.42-14.36,3.73.62,6.09-2.85,9.5-3.17,1.4-1.35,5.08-1.19,3.17-4.75,0-1.76.09-3.49,1.58-4.75,6.78.51,11.46-3.29,16.16-7.45,5.38-4.76,12.32-7.55,17.1-13.13,2.44-1.54,4.72-3.87,7.92-1.58,5.99-1.31,9.59-4.89,10.81-10.99,1.25-6.25-2.62-10.46-5.98-14.65-1.93-2.4-11.37.17-11.23,2.99.42,8.35-5.58,8.65-11.03,9.98h-3.17c-3.71-2.26-6.2-1.69-6.13,3.09.07,5.41-2.17,8.01-7.67,8.94-6.17,1.04-8.19,6.72-9.93,11.73-1.46,4.2-3.32,6.42-7.94,5.21-3.56-.93-6.66-.67-9.09,2.69-1.47,2.04-3.7.82-5.77.79-4.1-.07-6.51,1.49-2.57,5.55-.66,7.12-10.69,12.14-19.01,9.5-2.29-4.13-6.55-3.51-10.13-3.68-2.54-.13-4.45-.34-5.71-2.65.34-4.47-1.68-7.15-5.81-9.02-4.1-1.85-7.3-3.86-5.2-10.18,1.75-5.26-1.25-10.01-8.05-10.7-7.48-.75-8.17-2.94-4.15-9.43,3.36-5.41,9.6-7.03,13.71-11.35h4.75c4.3-1.28,7.14-4.32,9.5-7.92,1.67-1.95,3.86-2.85,6.34-3.17,3.75,5.66,8.24,4.81,12.63,1.1,6.03-5.1,12.19-9.09,20.4-5.1,3.2,1.55,5.55-.12,7.8-2.03,5.75-4.88,11.46-8.92,19.79-5.42,3.53,1.49,7.92.05,11.62-.73,5.32-1.12,5.31-5.57,3.77-9.99-1.34-1.06-1.34-2.11,0-3.17,2.23-3.4,4.42-3.27,6.52.11,1.4,2.26.85,5.12,2.18,7.46,4.16-6.5,3.12-9.72-3.83-11.88-1.3-.4-2.36-1.07-3.29-2.01-1.49-1.26-1.58-2.99-1.58-4.75,3.11-3.11-2-8.56,3.17-11.08,1.06-1.06,2.11-2.11,3.17-3.17,2.74-4.26,7.06-2.97,10.78-2.66,3.8.32,2.73,3.62,2.74,6.21.05,8.28,8.77,17.19,16.85,16.06,5.35-.75,9.87-4.85,13.83-8.52,4.67-4.33,9.5-6.12,15.77-5.02,3.61.63,7.51.97,10.98-.28,4.27-1.55,6.75.78,8.73,3.5,3.57,4.9,1.79,10.74,1.73,16.15-.08,7.13-5.54,7.99-11.1,8.32-3.18.18-6.18,1.49-9.3,1.72-6.22.46-10.96,2.1-12.54,9.22-.8,3.62-3.44,5.89-8.23,5.58-4.21-.28-8.5,1.86-9.83,6.46-1.26,4.38.01,8.37,4.26,10.9,4,2.38,3.78,5.97,1.24,8.68-2.81,3-3.44,6.25-3.78,9.95-.5,5.43-1.08,10.44-5.09,15.23-4.29,5.12,1.55,8.83,4.65,12.5,4.22,2.11.89,4.22,0,6.33-.76.8-1.7,1.42-2.79,1.05-4.64-1.58-6.99-.52-10.46,3.91-4.65,5.93-13.18,7.18-20.75,6.43-9.57-.95-18.78-.63-27.78,2.86Z"/>
    <path class="cls-9" d="m282.43,237.21c.32-2.24.04-5.96,3.17-5.18,6.29,1.58,8.23-2.59,10.33-6.73.77.48,1.43.66,1.48.95.35,2.22-4.09,5.25.22,6.44,2.94.81,4.88-3.01,5.69-5.46,2.45-7.44,2.91-7.76,9.1-2.73,2.68-1.67-.98-6.72,3.88-7.32,3.42-.42,5.78,2.43,8.98,2.44,1.69-2.85,4.53-3.46,7.48-3.87,4.24.47,8.64-.59,12.77,1.16,4.68,7.93,12.58,2.66,18.76,4.49.66.2,1.53-.2,2.32-.22,5.59-.21,9.35,6.57,15.56,4.06,3.59.12,7.44-.78,10.13,2.68,2.92,6.57-1.56,8.97-6.46,9.73-5.43.84-7.96,2.96-7.55,8.56.39,5.34-2.69,8.27-7.55,9.6-2.28.63-4.55,1.34-6.84,1.94-17.34,4.57-23.13,1.88-30.42-14.01-.79-1.71.04-4.81-3.12-4.68-2.52.1-4.63,1.57-5.28,4.09-2.4,9.22-9.44,12.52-17.76,12.94-12.33.61-21.19,6.24-27.73,16.32-1.28,1.97-3.05,3.61-4.35,5.6q5.7-2.32,8.6-8.77c1.68-3.73,11.35-8.4,17.32-6.92,7.8,1.93,14.66,1.55,21.96-2.13,4.46-2.25,10.06-1.22,14.47,1.48,4.83,2.96,9.46,3.39,14.97,2.28,7.03-1.42,10.75,2.23,14.9,13.26,2.01,5.36,2.18,10.42-4.12,13.33-1.66,1.17-3.33,2.33-4.99,3.5-6.44,2.38-12.07,6.93-19.29,7.15-8.2.96-10.97,2.22-12.06-9.12-.48-4.97-3.52-4.76-6.67-3.1-4.41,2.33-8.78,2.8-13.68,1.95-6.26-1.08-8.04.94-6.4,7.33,1.17,4.56-.34,7.82-4.61,5.79-9.18-4.38-15.8,1.25-22.4,4.97-7.2,4.06-13.88,8.45-22.54,7.93-2.02-.12-3.94.32-3.83,2.79.23,5.28-3.93,9.11-4.4,14.13-.29.73-.78,1.28-1.45,1.68-6.67-2.65-8.38-6.44-4.28-11.49,3.75-4.61,4.12-9.67,4.79-14.86-.54-.25-1.09-.5-1.63-.75-2.05,3.76-4.19,7.48-6.12,11.29-1.01,1.99-2.01,3.76-4.62,3.21-3.05-.64-1.65-3.37-2.31-5.13-1.12-1.91-1.53-4.18-.46-5.95,3.84-6.4,4.26-13.48,4.67-20.6.5-4.33,2.53-7.91,5.42-11.07,10.39-7.5,22.5-12.65,31.01-22.78,1.9-2.26,4.83-3.1,7.86-3.15,4.87.59,6.36-3.84,9.2-6.25,2.42-2.28,6.25-2.83,7.86-6.16-2.32-3.53-6.7-1.42-9.34-3.74-.21-.3-.42-.6-.62-.9Z"/>
    <path class="cls-9" d="m363.33,290.55c6.51-9.02-.99-15.66-4.17-22.87-1.34-3.05-4.61-1.73-7.05-.73-5.26,2.16-9.51,1.63-14.6-1.85-5.92-4.05-12.9-5.23-19.22,1.12-3.96,3.97-9.84,1.75-13.16-.22-6.98-4.14-11.88,1.7-17.68,2.29-3.84.39-.53,5.76-.08,9.77-7.42-3.03-10.75,8.79-19.44,4.36,7.79-11.1,15.47-21.75,27.21-28,3.96-2.11,9.66-.69,14.41-1.66,5.74-1.18,11.75-2.21,11.97-10.52.11-4.16,8.2-8.61,12.44-7.59,2.47.59,4.64,1.84,2.84,5-.64,1.11-1.91,3.25-1.38,3.29,7.38.51,3.31,6.96,5.45,10.02,3,4.31,8.16,4.02,12.26,3.69,6.48-.52,12.93-2.32,19.19-4.22,5.25-1.59,4.59-6.81,3.08-9.96-3.11-6.49.87-6.47,5.03-6.99,4.46-.56,9.88.79,11.42-5.66-.03-.77.22-1.43.78-1.97,2.47-2.08,5.88-.03,8.39-1.92,3.99-3.34,8.17-5.12,13-1.57.84,3.79,3.49,4.66,6.79,3.85,3.05-.75,5.53-.51,7.18,2.5.66,1.65.65,3.29.03,4.94-1.78,3.4-4.93,4.27-8.39,4.54-11.54,2.06-22.93,4.9-34.89,6.64,5.49,9.13,8.83,9.84,16.43,3.86,5.97-4.7,11.32-10.43,19.73-10.57,8.05-.4,8.24-.19,7.66,8.19,1.16,2.13,3.2,1.21,4.92,1.44,1.27.18,2.71.12,3.75.72.65.38,1.28,2.3.96,2.65-4.58,4.98,8.72,11.77-1.64,15.98-4.2,1.71-4.8,3.62-.72,6.31,2.13,1.41,4.05,3.63,1.04,5.53-2.09,1.32-4.23,1.25-5.87-2.46-1.4-3.17-9.64-3.25-3.46-10.44-6.2,2.94-15.27-.86-15.38,10.68-.05,5.61-9.36,8.7-14.65,5.27-4.33-2.82-7.08-3.2-11.46.82-6.11,5.62-13.9,8.69-22.69,5.73Z"/>
    <path class="cls-9" d="m664.43,354.15c-13.84-2.85-19.74-11.78-15.88-24.03,2.94-2.5.88-5.04-.62-6.7-2.93-3.22-4.2-7.2-6.18-10.85-8.18-3.08-15.58-9.38-25.41-4.56-4.8,2.36-9.98-1.06-12.4-6.77-.94-2.22-.04-4.78-1.78-7.14.43,3.69.75,7.05-1.12,10.13-3.17,5.23-10.09,5.74-11.69.27-3.25-11.14-11.95-9.79-20.06-10.43-.72.51-1.52.97-1.7,1.92.41,1.07,1.37,1.82,1.6,2.94.09,3.28-.14,6.36-3.71,7.99-2.75,1.26-5.56,2.07-8.31.39-2.7-1.66-2.33-4.56-2.09-7.15.27-2.83,1.69-6.43-3.2-5.97-4.48.42-10.65-2.87-12.56,4.48-.58,2.24-.21,4.72-.29,7.1-.08,2.23-.86,5.23-2.94,4.96-8.31-1.1-14.35,6.43-22.47,5.41,4.06-4.41,6.09-11.35,13.91-11.04,1.15.05,1.93-.46,2.1-1.74,1.8-13.85,10.47-17.54,23.04-15.71,1.57.23,3.6.77,5-1.13-.69-3.86-5.73-.41-6.53-3.89-.3-1.72-.11-3.21,2.11-3.06,3.08.2,6.14.29,9.92-.63-1.57-1.91-4.41-1.73-5.13-3.87-.2-2.8.88-5.71-.84-8.37-1.4-2.17-.9-3.86,1.34-5.17,2.68-1.57,4.53-.38,5.88,1.82.94,1.52,1.04,3.76,2.26,4.86,1.65,1.5,3.08,5.26,6.13,2.87,3.56-2.79,6.71-3.07,10.73-1.13,1.53.74,4.24.68,4.64-2.49.38-2.98,2.69-1.53,4.29-1.65,2.51,2.1,4.23,4.73,5.23,7.85-3.74,4.73-8.15,5.03-12.91,1.74-2.8-1.94-5.42-2.55-7.31.84-1.19,2.14-3.84,4.43-1.68,7.09,2.34,2.88,5.73,2.92,8.5.69,5.5-4.42,11.34-4.29,17.82-2.78,6.48,1.51,9.24,5.36,6.68,11.74-1.17,2.93-1.74,4.97,1.53,6.42,3.55,1.57,5.76-.07,6.44-3.44,1.64-8.08,10.94-7.46,14.71-13.19.74-1.13,2.88.43,4.24,1.19,5.67,3.16,11.59,3.34,17.26.49,3.08-1.55,5.01-.9,6.75,1.5,2.06,2.86.34,4.58-1.84,6.59-8.47,7.78-12.45,8.24-19.01,1.69.67-3.67,3.41-4.08,5.63-4.12-3.29,1.28-9.83-2.21-10.38,5.83,3.49,3.14,8.52,5.63,10.14,9.54,3.68,8.85,12.61,14.53,13.99,24.62.45,3.26,3.39,5.2,6.19,6.74,2.74,1.51,5.31,2.47,5.02,6.81-.29,4.39,3.15,4.25,6.02,2.42,9.59-6.15,19.69-5.47,30.15-2.94,4.51,1.09,7.75-2.79,10.4-5.19,3.4-3.09-3.07-5.32-2.73-8.76.84-1.19,2.01-1.44,3.36-1.16,3.97.08,6.5,1.94,7.02,5.97.59,4.56-1.23,8.23-4.72,11.06-5.91,4.8-13.24,4.89-20.2,5.26-4.55.24-8.71.58-12.82,2.77-6.93,3.69-14.35.87-21.56,1.06Z"/>
    <path class="cls-65" d="m513.66,244.75c-1.98.6-4.04,1.9-5.92,1.67-7.32-.91-13.56,1.74-19.22,5.66-4.19,2.91-9.11,1.66-13.5,3.52-3,1.27-6.29-3.4-4.59-6.75,3.49-6.88,5.26-15.06,15.17-16.88,5.86-1.08,1.69-5.61,1.06-8.7-1.2-2.66-1.66-5.12,1.74-6.56,9.73-.98,19.4-2.97,29.25-1.81,2.27.27,3.95-.79,5.7-1.86.4-.07.8-.14,1.2-.21,9.6-.09,19.23-1.13,28.79.73,2.03-1.04,3.33.4,4.78,1.38,6.73,5.57,2.63,10.03-1.49,14.49-7.78,2.17-15.51,4.37-22.34,9-4.62,3.13-10.77.18-15.46,3.45-2.04.4-4.05.83-5.17,2.88Z"/>
    <path class="cls-48" d="m882.82,216.45c-9.02-5.46-18.72-8.35-29.33-7.68-1.81.11-4.81,1.26-5.22.62-4.53-7.08-10.41-3.23-16.03-2.54-3.9.48-7.92.41-11.58-1.63-.91-.51-2.1-1.23-2.94-1.01-16.62,4.36-33.04-5.75-49.67-.69-1.19.36-2.79.38-3.89-.12-10.91-4.92-22.35-2.61-33.64-3.27-9.88-.58-19.8-.64-29.69-1.33-8.81-.62-17.76-1.38-26.24,2.19-2.91,1.22-5.59,1.5-8.17-.55-4.56-3.61-9.9-3.32-15.15-2.8-16.43,1.64-32.87,2.68-49.38,1.45-5.46-.41-10.14,2.59-15.37,3.35-4.53.66-8.67,3.09-13.44.14-1.88-1.16-4.93-.46-5.12,2.95-.13,2.46,1.28,4.21,3.76,4.13,3.47-.11,7.57-2.87,9.71,1.97,2.26,5.12,3.46,10.51.45,15.9-.94-1.06-.93-2.11,0-3.17-1.34-4.45.18-12.19-5.88-12-8.04.24-16.64-10.21-24.22.66-9.5,1.75-19.04,1.55-28.59.57l.16-.56c.26-3.67-7.09-3.11-4.53-7.88,2.29-4.27,6.72-2.45,10.21-3.45,19.15-5.49,38.71-.08,57.74-2.91,23.51-3.49,47.17-1.43,70.66-3.7.78-.08,1.78-.68,2.29-.38,12.42,7.27,25.31-3.26,36.93.31,11.97,3.68,23.27-2.09,35.3,1.5,7.98,2.38,18.02-.1,26.98,1.16,12.7,1.78,25.81-.35,37.96,2.19,9.15,1.92,18.51-1,27.37,3.22,4.34,2.07,9.78.81,14.78-.16,5.66-1.1,10.79-.03,16.59,1.99,6.76,2.36,14.39,3.55,21.7,4.92,5.76,1.08,11.18,2.93,16.58,5.04-2.74,6.34-4.54,6.6-11.09,1.58Z"/>
    <path class="cls-9" d="m306.27,365.3c-2.41,1.27-4.89,1.83-7.62,1.01-1.83-.55-3.71.33-3.13,2.17,1.93,6.2-1.46,7.8-6.49,8.8-2.34.47-4.18,2.1-4.82,4.75-.36,1.51-.67,3.77-1.7,4.26-11.59,5.6-4.15,13.36-1.29,19.1,3.38,6.77,7.94,13.66,17.54,13.9,7.38.19,11.9,5.34,12.19,12.9.2,5.28-.28,10.58,3.4,15.08.55.67.85,2.49.44,2.86-5.89,5.31-1.8,10.6-.03,15.8,1.64,4.81,1.3,8.81-3.45,11.63-2.28,1.35-4.14,3.3-1.68,5.62,4.58,4.31,1.75,8.09-.23,12.06-6.94-7.4-7.54-12.15-2.77-20.86.6-1.1,1.38-2.52,1.15-3.58-2.03-9.3-.7-18.82-1.93-28.14-.69-5.2-3.8-9.11-8.38-11.74-9.81-5.64-16.4-14.67-23.76-22.84-3.72-4.12-1.68-11.09-6.85-14.9-.88-.65-.52-3.54,1.68-4.56,5.56-2.59,8.2-7.96,11.76-12.46,1.12-1.41,2.41-2.82,3.91-3.76,6.29-3.94,6.02-3.72-.2-8.61-6.45-5.08-14.77-8.53-17.32-17.54-.26-3.1,1.99-2.95,4.01-3.1,2.91.45,4.48,2.88,6.62,4.47,2.78,2.21,4.72,5.13,6.78,7.96,1.57,2.21,3.61.25,5.39.59.97.33,1.97.62,2.37,1.73,3.14,3.13,6.22,3.72,9.03-.37,2.09-3.05,6.26-2.56,8.58-5.17,4.48-1.66,8.32,1.75,12.62,1.6,7.47-.45,14.56,3.06,22.15,1.91,4.5-.68,5.53,2.83,6.27,6.28-8.28-3.99-17.2-2.63-25.88-2.85-3.84-.1-5.95,5.19-10.43,4.41-3-1.28-5.68-.92-7.92,1.58Z"/>
    <path class="cls-38" d="m882.82,216.45c3.69-.58,8.11,3.96,11.09-1.58,2.97,2.03,5.95.58,9.01.22,5.49-.66,6.7,1.23,5.24,7.42-4.54,3.48-10.4,1.06-15.2,3.41-2.45.2-4.86.07-7.14-.93-8.01-5.47-16.82-2.58-25.37-2.38-2.03.15-4.07.3-6.1.45-1.94,1.46-4.02.93-5.99.25-8.1-2.79-15.97-.85-23.86,1-5.82,1.75-11.96-.12-17.78,1.57-4.07.67-8.15,1.33-12.22,2.02-4.08.7-8.33,3.12-11.12-2.84-.52-1.11-5.13-1.26-7.34-.44-5.07,1.88-9.27.16-13.61-1.84-3.44-3-7.49-1.01-11.23-1.53,3.24.49,6.81-1.42,9.7,1.51.16,3.85-2.17,4.99-5.43,4.67-6.92-.66-13.34,1.32-19.79,3.32-6.9-2.38-14.2-2.17-21.31-3.19-2.51-.36-5.23.38-7.37-1.63,6.73-2.5,13.4.78,20.2.18,5.31-.47,8.04-1.6,8.55-7.59.67-7.91,3.5-9.37,11.15-6.94,3.83,1.22,7.64,1.84,11.64,1.7,2.1-.07,5.02-.74,6.18.35,8.6,8.09,21.07,2.09,30,8.58,1.01.73,2.39,1.31,3.69.46,12.46-8.08,27.36-5.66,40.96-8.59,10.17-2.19,21.94,2.17,32.8,4.49,4.33.92,7.61,1.23,10.64-2.15Z"/>
    <path class="cls-48" d="m361.65,493.54c.78-.09,2.12.06,2.27-.3,3.7-8.54,13.4-12.56,16.46-21.23,1.39-3.93,6.61-3.15,6.76-6.97.48-12.31,9.83-16.64,18.42-22.44,4.66-3.15,9.08-7.64,10.56-14.21,2.03-9.04,5.09-17.85,7.75-26.75.95-3.18,2.59-5.43,6.21-6.41,5.2-1.4,10.41-1.45,15.68-1.45,2.07,0,5.33.61,5.86-1.29,3.21-11.47,6.63-.89,9.89-.28-.16.34-.32.67-.47,1.01-4.93,3.92-10.2,7.33-15.6,10.56-13.57,2.12-16.54,5.14-18.87,19.21-1.08,6.52-2.26,12.95-5.82,18.75-3.04,4.96-6.75,8.36-12.71,9.73-8.53,1.96-11.35,5.67-12.35,14.58-.5,4.48-2.66,7.9-5.94,10.81-6.26,5.57-13.15,10.5-15.54,19.37-.89,3.28-4.56,4.97-7.25,7.09-7.67,6.06-7.34,12.91.87,17.84,2.1,1.26,4,2.58,4.37,5.24-1.06,2.92-1.32,6.25-4.13,8.31-.2-.17-.37-.38-.59-.52-9.05-5.96-14.32-14-14.31-25.17,0-.94-1.64-1.88-2.52-2.82-4.85-1.04-5.61-4.26-2.15-6.89,3.75-2.85,7.67-6.48,13.18-5.8Z"/>
    <path class="cls-48" d="m577.32,439.72c3.53,6.52,5.78,13.55,7.99,20.58.73,1.2.73,2.4-.01,3.6-3.65,2.77-6.35.2-9.19-1.62-3.73-3.54-7.58-7-9.14-12.18-.46-3.65-2.74-6.26-5.07-8.87-2.4-3.8-2.32-8.06-2.35-12.3.9-7.4,2.01-14.8.5-22.24-.43-.98-1.01-1.88-1.62-2.75-4.92-3.42-9.84-6.56-15.92-2.5-1.1.33-2.21.37-3.33.15-5.52-4.89-9.85,1.61-14.86,1.6-3.75.34-7.46,1.53-11.28.74-6.03-1.26-11.54-8.45-18.28-1.56-10.42,2.89-21,.82-31.51.95-1.86.02-3.32-1.33-4.24-3.04-1.17-3.32.17-5.85,2.52-8.07,1.35.7,3.64,2.28,3.92,1.98,6.56-6.98,13.29.4,19.84-.4,4.14,1.86,5.68-4.06,9.5-3.17,4.25,1.32,8.51,2.65,12.76,3.97,2.7.84,5.26,1.29,6.25-2.38,2.83-2.53,7.06,3.27,9.5-1.58,8.36,3.88,17.29,2.78,26.09,3.28,8.41.48,17.02,1.43,19.29,12.15.17.8,1.5,1.36,2.29,2.04,2.92,2.15,3.13,5.19,2.77,8.41-2.66,7.67,4.24,12.96,4.97,19.79-.03,1.31-.6,2.4-1.36,3.42Z"/>
    <path class="cls-48" d="m482.09,360.55c-11.29-5.75-11.5-6.66-3.25-17.02,2.24-2.82,1.61-6.01,1.62-9.1.02-5.02-.48-10.05,4.14-13.76,2.07-1.66,1.96-3.67-.59-5.02-5.53-2.92-6.06-8.08-4.64-13,1.44-4.98,6.3-7.21,11.11-7.49,5.88-.34,7.21-3.16,6.41-8.23-.69-4.4,1.9-6.46,5.7-6.95,6.25-.8,12.55-1.65,18.83-1.63,5.14.02,7.26-2.45,7.82-6.87.39-3.12.41-6.32.31-9.48-.23-7.61-1.97-8.94-9.72-7.85-1.3.18-2.76.61-3.92.24-13.14-4.21-20.42,4.82-28.29,12.44-4.73,4.58-9.13,4.96-13.39.13-2.09-2.37-5.06-2.76-7.16-4.72-2.2-2.05-3.43-4.62-3.9-7.59q-1.62-10.24-12.78-8.11c.05-2.55,1.95-4.15,3.17-6.09.36-.62.87-.75,1.51-.45,1.36,1.59,3.27,2.25,4.98,1.31,7.78-4.3,6.35,1.31,5.74,5.4-1.59,10.82,1.71,14.78,12.63,14,6.31-.45,12.67-1.39,17.33-6.47,2.38-2.59,5.38-2.99,8.65-2.97,5.54.03,11.25.71,16.57-.4,6.06-1.27,9.65,2.05,11.64,5.9,3.49,6.73,1.97,14.4.98,21.67-.32,2.38-2.9,2.93-5.09,2.86-3.79-.11-7.22,1.62-10.81,2.03-8.27.94-14.06,5.32-18.78,11.69-1.63,2.2-3.46,3.71-6.61,3.41-4.89-.47-9.21.89-10.03,6.5-.76,5.25,2.68,7.07,7.28,8.52,7.06,2.22,7.71,4.89,2.15,9.53-5.27,4.4-7.72,9.66-8.31,16.22-.14,1.54-.49,3.3-1.37,4.5-4.18,5.7-3.18,11.25.02,16.86Z"/>
    <path class="cls-9" d="m282.52,357.38c-2.11-2.64-4.22-5.28-6.34-7.92-1.81-3.42.89-6.41.89-9.64.3-1.94-.6-2.66-2.49-2.37-5.28.82-10.82,2.01-14.15-3.65-2.58-4.39.7-13.63,5.73-17.62,8.81-6.97,20.02-7.72,30-11.65,6.62-2.6,13.51-6.6,20.26-3.66,8.12,3.54,14.57.55,21.54-2.09,7.38.92,12.73-6.88,20.39-4.75-3.32,5.75-9.27,7.85-14.97,8.81-8.23,1.38-12.71,6.57-16.78,12.82-.86,1.31-1.45,2.9-2.57,3.91-2.66,2.43-5.46,6.01-9.44,4.01-3.87-1.95-1.82-5.72-1.11-8.92.85-3.84-2.98-5.76-8.43-3.97-7.02,2.3-13.96,4.88-20.93,7.35-2.94,3.13-7.21,4.04-10.84,6.53,6.11-2.94,11.83-3.36,17.17,1.15,1.26,4.6-6.08,7.35-3.76,10.51,2.24,3.05,5.59,5.02,5.13,9.45-2.19,2.5-2.84,5.62-3.47,8.74-1.4,2.05-3.36,2.98-5.81,2.95Z"/>
    <path class="cls-9" d="m513.69,316.08c-.04,5.33-2.6,9.55-6.04,13.32-2.12,2.33-4.09,5.09-6.73,6.62-11.79,6.81-8.83,16.61-5.93,26.56.69,2.35,2.48,3.25,4.47,4.03,6.08,2.38,12.45,2.81,18.6,1.06,5.76-1.64,11.76-1.42,17.53-3.51,3.99-1.45,9.28-.93,9.86,5.64-9.13-3.9-17.11.7-25.36,3.4-5.28,1.43-10.57,1.11-15.88.19-3.04-.79-6.12-1.44-9.1-2.41-5.48-1.79-9.75-4.98-8.01-11.42,1.15-4.29-2.65-6.91-1.72-11.7,3.22-16.68,14.98-24.67,28.31-31.76Z"/>
    <path class="cls-9" d="m361.65,493.54c-2.51,1.6-4.19,4.24-7.7,4.6-5.53.56-6.64,3.57-3.33,8.09-.94,5.32,1.72,10.99-1.92,16.14-1.28,1.82,1.07,3.23,2.3,4.49,3.66,3.77,7.75,7.19,10.98,11.29,3.93,5,1.75,9.61-4.45,9.62-9.45.02-18.14-4.25-26.08-8.14-5.53-2.71-9.32-10.33-10.74-17.58,3.35-.88,6.45-2.04,8.01,2.96,2.6,8.35,7.34,14.25,17.43,13.4,2.36-.2,4.87,1.39,8.26.95-3.37-3.39-6.66-6.88-10.14-10.15-3.3-3.1-3.51-5.75-.32-9.32,7.4-8.3,7.23-8.52-2.84-13.67-.08-2.76.55-5.55,3.15-6.64,3.95-1.64,6.94-4.41,10.17-6.97,2.18-1.73,4.64-2.27,7.22-.66v1.59Z"/>
    <path class="cls-9" d="m363.13,485.62c-3.44-8.3,4.76-12.48,6.77-18.86.27-.85,2.12-1.31,2.24-2.09,1.55-10.81,11-17.17,14.89-26.61.81-1.97.72-4.04,4.08-2.97,6.83,2.19,16-4.67,14.51-11.67-2.39-11.24,3.32-17.17,11.62-22.33.76-.47,1.04-1.74,1.54-2.63,3.66,4.9.41,7.5-3.35,9.84-4.29,2.68-6.83,5.16-4.67,11.34,2.84,8.12-4.14,18.79-14.44,22.61-7.3,2.71-9.53,8.12-13.5,14.07-5.24,7.86-7.2,18.61-16.45,23.71-2.3,1.27-3.75,2.79-3.23,5.58Z"/>
    <path class="cls-48" d="m249.25,349.47c7.22,1.39,14.74,2.2,18.76,9.78.35.66,1.06,1.17,1.69,1.64,10.06,7.58,10.08,10.25.18,18.67-7.31,6.21-6.68,11.4-4.88,20.45,3.11,15.59,14.86,23.16,25.16,32.44.76.69,1.25,1.68,1.86,2.53-1.67,1.65-3.6,1.4-5.58.79-9.07-3.38-15.34-9.95-20.39-17.91-2.81-3.34-2.24-8.53-6.2-11.23-4.75-1.92-5.85-5.4-4.73-10.18,2.33-9.95,3.49-20.43,13.99-25.89-6.5-7.51-14.72-12.08-20.72-19.07.04-.78.32-1.44.86-2.01Z"/>
    <path class="cls-48" d="m329.82,345.27c-10.16,4.12-19.19,3.67-27.76,1.97-5.36-1.06-5.61-7.67-6.66-12.35-.85-3.77-.26-7.77-1.11-11.69-.8-3.66,5.87-8.02,9.25-6.4,1.4.67,2.02,1.73,1.07,3.12-.73,1.07-1.74,1.95-2.59,2.94-4.97,5.77-4.43,7.4,2.75,10.59,7.87,3.5,15.59,7.33,25.06,11.82Z"/>
    <path class="cls-48" d="m233.15,290.88c1.7,9.87-1.21,18.66-6.3,26.94-2.24,7.72,3.42,20.18,12.19,26.41,2.74,1.95,5.75,3.5,8.63,5.24-7.76,4.94-13.16-.55-18.97-4.26-11.06-12.87-13.91-28.54-7.45-40.8,1.37-1.59,3.48-2.18,4.97-3.63,1.02.25.32-.53.19-.48-3.38,1.21-4.52-1.1-5.45-3.68-.14-1.32.15-2.51,1.01-3.54,3.16-3.64,6.43-6.68,11.17-2.2Z"/>
    <path class="cls-48" d="m444.08,275.04c3.21,9.37,1.26,12.52-7.85,12.66-2.11.03-4.32.42-6.31-.07-9.73-2.39-17.39.54-23.49,8.33-1.55,1.98-3.31,2.86-6.03.83-6.62-4.94-12.77-3.73-18.34,3.1-4.84,5.93-11,4.75-14-2.69,4.51,2.74,8.84,1.16,12.65-1.2,6.53-4.03,12.64-7.48,21.09-5.4,6.47,1.59,11.06-4.14,15.67-7.8,2.51-1.99,4.42-2.85,6.81-.98,4.91,3.83,10.12,1.37,15.18.94,4.77-.4,4.6-4.23,4.63-7.73Z"/>
    <path class="cls-48" d="m347.46,308.3c-1.51,6.53-8.56,7.66-12.04,12.37-2.92,3.94-4.04,5.96,2.35,6.74,8.53,1.04,11.88,6.18,9.83,14.66-1.17,4.86,2.26,5.95,5.19,7.24,4.6,2.02,6.94,4.64,4.17,9.66-2.92-6.77-7.85-10.23-15.43-9.55-1.77.16-4.1.42-5-1.47-1.4-2.95,1.96-3.09,3.24-4.42,2.15-2.23,5.12-3.98,3.8-7.89-1.17-3.47-3.41-4.02-7.06-4.49-11.04-1.41-11.48-3.4-4.89-11.96,4.18-5.43,9.09-9.4,15.84-10.9Z"/>
    <path class="cls-48" d="m444.08,317.8c4.42-2.57,10.99-3.62,6.9-11.6-1.04-2.03,1.43-3.84,3.76-4.01,3.95-.28,7.86-.2,11.05-3.28,1.12-1.08,2.88-.31,3.05,1.14.65,5.61,4.93,9.91,5.34,15.61.53,7.41-3.21,15.1-9.49,17.97-2.75,1.26-2.69-1.51-3.17-3.17,3.36-2.6,5.98-5.81,7.96-9.58,2.63-5.02.56-8.99-3.54-11.44-4.37-2.62-7.89-1.16-9.67,4.1-2.15,6.37-7.82,3.63-12.17,4.24Z"/>
    <path class="cls-38" d="m581.88,224.37v3.17c-9.75-.31-17.21,6.38-26.14,8.58-1.73.43-4.22,1.87-2.7,3.74,2.55,3.13-.14,10.06,6.86,9.8,8.02-.3,9.83,4.4,9.31,11.14-2.03-3.71-3.74-6.63-9.45-5.72-4.53.72-10.23-.55-11.24-7.18-1.81-2.9-6.44-1.16-7.82-4.77,1.81-8,8.63-8.39,14.81-9.69,1.49-.31,3.66.18,4.45-.68,5.97-6.47,13.7-7.98,21.92-8.38Z"/>
    <path class="cls-48" d="m391.81,355.8c-2.48-.39-6.13,3.71-7.24-.89-.82-3.39,3.56-5.44,5.78-5.23,7.32.7,12.71-7.46,20.47-3.92,1.87.85,4.17-.66,4.18-2.55.02-5.39,5.17-7.78,6.54-12.26.08-.25.14-.64.32-.71,6.67-2.64,10.43-6.6,11.77-14.55.78-4.62,5.27-.78,7.29,2.11-4.72,2.3-3.97,7.55-5.95,11.33-1.13,2.15-1.57,5.19-4.56,4.1-7.32-2.65-9.88,2.41-11.37,7.34-1.79,5.92-4.92,7.96-10.84,7.41-5.78-.54-9.74,5.73-15.83,4.88-.04,0-.36,1.92-.55,2.95Z"/>
    <path class="cls-37" d="m455.09,240c-.52.11-1.02.26-1.51.45-2.89-.67-5.64-.36-8.19,1.24-5.15,3.23-10.36,1.36-15.56.19-1.25-.67-3.48-.76-3.11-2.65.64-3.25,3.87-2.56,6.12-3.3q6.44-1.19,4.53-4.34c-3.89-3.01-10.87.4-12.97-6.25.77-4.04,3.73-4.8,7.19-4.81,3.21.43,6.29,1.46,9.48,1.98,1.42,1.08,2.74,2.9,4.26,3.08,3.71.43,8.19-.72,5.73,5.83-.19.49,2.5,2.49,4.11,3.16,4.93,2.04,1.05,3.64-.1,5.41Z"/>
    <path class="cls-9" d="m547.08,369.65c.8-.69,1.67-1.31,2.39-2.07,2.96-3.14,5.68-9.4,10.12-6.81,4.47,2.61,9.32,7.36,9.48,13.68.15,5.99,2.43,10.66,6.43,14.77-1.3,2.68-3.98,2.87-6.39,3.55-4.55-1.36-8.09-4.04-5.89-9.05,3.21-7.28-2.39-9.14-6.52-11.5-2.79-1.59-6.39-1.76-9.62-2.57Z"/>
    <path class="cls-38" d="m570.79,263.96c2.22-.39,3.88-1.1,4.11-3.87,1.11-13.39,3.88-16.24,17.34-18.54,2.07-.35,4.11-1.71,6.09-1.56,7.08.51,7.38-3.79,7.37-9.06-.03-11.52,1.07-12.5,12.61-12.88-2.44,1.49-4.88,2.98-7.31,4.49-4.09,2.54-5.38,5.49-.21,7.93,6.05,2.85,3.28,4.54,0,7.53-4.71,4.28-10.46,4.57-16.04,5.28-15.53,1.99-19.28,9.34-13.57,22.8-3.78-.18-7.26.08-10.38-2.1Z"/>
    <path class="cls-32" d="m455.03,213.49c-3.45-1.06-7.35-.89-10.29-3.58,15.92-5.3,32.06-5.39,48.35-2.75-3.59,6.12-10.77,3.41-15.65,6.34-7.47.7-14.94,1.28-22.41,0Z"/>
    <path class="cls-48" d="m420.32,381.13c3.46-3.76,7.73-4.93,12.81-4.83,9.98.19,20.09,1.06,29.71-2.78,3.47-1.38,8.79-1.77,4.28-7.73-1.08-1.43-.49-3.11,1.03-4.09,1.67-1.08,3.1-.11,4.18,1.08,2.64,2.92,5.72,4.61,9.76,4.1.82,1.73,1.14,3.49-.08,6-5.09-5.77-9.36-5.19-13.15,1.44-1.49,2.61-3.91,5.03-7.83,3.9-2.2-.63-4.1.49-5.72,1.99-1.4,1.29-2.98,2.56-4.92,1.51-7.3-3.93-14.64-2.84-22.18-.81-2.47.66-5.24.17-7.88.21Z"/>
    <path class="cls-48" d="m445.66,265.54c2.04-.39,4.08-.76,6.12-1.19,3.16-.66,5.22.77,5.89,3.67,1.07,4.61,1.34,9.32-.5,13.83-.91,2.22-2.24,4.37-5.2,3.66-2.46-.59-2.96-2.7-3.06-4.88-.09-2.08-.07-4.17-.13-6.26-.1-3.56-2.01-3.77-4.7-2.51.53-2.11,1.06-4.22,1.58-6.33Z"/>
    <path class="cls-9" d="m271.43,344.71c-1.74,0-3.46.08-4.73,1.54-10.02-.06-20.03-.15-25.67-10.71l.39-.46c1.03-1.67,2.59-3,4.44-2.95,9.57.26,17.56,5.79,26.46,8.36,1.7.49,2.61,3.43-.89,4.22Z"/>
    <path class="cls-9" d="m577.32,439.72c-.12-.77-.25-1.54-.37-2.31-.35-7.07-5.55-12.72-5.82-19.82-.06-3.16-.12-6.32-.18-9.48.56-.54,1.12-1.09,1.68-1.63,4.76.02,5.02,3.49,4.38,6.64-1.24,6.12-.09,11.09,3.99,16.06,4.02,4.89,2.9,7.08-3.66,10.56Z"/>
    <path class="cls-9" d="m886.2,222.59c1.94.16,3.88.32,5.82.48,6.55.85,13.1.8,19.65.03,1.44-.13,2.87-.27,4.31-.4,1.24-.8,2.38-.97,3.28.49-2.2,5.21-5.81,7.28-11.03,4.34-3.62-2.04-6.56-1.56-10.16.32-7.31,3.8-12.7,1.97-16.83-4.95,1.58-1.32,3.26-1.04,4.96-.31Z"/>
    <path class="cls-48" d="m453.58,332.05c-4.54,11.04-16.49,13.66-24.2,21.13-2.47,2.4-5.96-1.02-9.07-.54,7.01-2.87,14.48-5.18,16.43-14.03.12-.56,1.3-1.41,1.75-1.29,6.27,1.7,10-3.7,15.08-5.27Z"/>
    <path class="cls-9" d="m942.79,233.87c1.77-5.74-5.57-6.25-6.12-10.66.58-.84,1.37-1.32,2.38-1.45,3.6.37,7.21.13,10.81.2,6.13.11,7.57,2.29,6,8.75-.31.33-.47.72-.51,1.16-3.75,3.4-8.54.3-12.57,2Z"/>
    <path class="cls-52" d="m558.06,275.08c2.89,0,5.78-.04,8.66,0,1.63.03,3.31.35,3.57,2.29.24,1.8-1.05,3.01-2.55,3.58-4.17,1.56-8.47,3.39-12.86,1.08-1.72-.91-2.74-1.25-3.72.61-1.57-1.81-4.62-.72-6.46-3.87,4.69-1.03,10.03.51,13.35-3.69Z"/>
    <path class="cls-12" d="m556.63,229.42c1.73-4.7,3.93-9.36,1.49-14.49,1.57-.05,3.13-.1,4.7-.14,4.66-.12,8.52,2.92,13.37,3.06,2.84.08,1.69,3.37-.81,4.71-7.46-1.03-13.11,2.9-18.74,6.86Z"/>
    <path class="cls-26" d="m290.43,325.73c-3.81-3.39-7.7-1.76-11.78-.46-4.37,1.39-7.84,5.21-14.51,5.04,5.76-7.34,10.88-12.85,19.96-12.25-1.01,5.13,6.07,3.59,6.33,7.68Z"/>
    <path class="cls-48" d="m406.06,365.3c-.86,3.59,3.22,5.91,2.42,9.54-.43,1.96.93,2.05,2.36,1.78,3.68-.69,5.05,1.82,6.3,4.51-6.62-.17-13.64,1.37-19.6-5.02,6.8-.8,6.33-6.72,8.51-10.82Z"/>
    <path class="cls-43" d="m955.87,230.71c.74-5.41-1.88-7.81-7.08-7.94-3.42-.08-6.84-.18-10.26-.27-6.88-1.58-14.01.78-20.86-1.32,7.8-1.07,15.42-4.91,23.52-.61,2.99,1.58,6.62.58,9.99-.16,4.98-1.08,7,3.1,8.64,6.27,1.5,2.91-1.33,3.9-3.96,4.03Z"/>
    <path class="cls-48" d="m533.49,376.34c5.41-5.01,11.1-.69,16.31-1.88.52-.12,1.72,1.18,2.03,2.03.46,1.26-.82,1.77-1.73,2.19-5.81,2.71-11.4,3.51-16.61-2.34Z"/>
    <path class="cls-70" d="m702.46,228.28c-6.03,2.57-12.18,4.34-15.41,10.85-.84,1.69-3.96,2.43-5.52.6-1.68-1.96,1.13-2.84,2.03-4.23,4.53-6.93,11.25-8.25,18.9-7.23Z"/>
    <path class="cls-9" d="m312.95,499.89c7.64,1.04,12.4,9.15,8.71,14.96-1.2,1.9-1.07,3.95-1.26,6-1.11-7.48-4.15-14.27-7.46-20.96Z"/>
    <path class="cls-49" d="m540.7,243.12c2.44,1.87,9.16-3.28,7.82,4.77-.5.15-1,.29-1.51.41-3.7.44-6.88,4.93-11.08,1.4-2.64.21-3.69-1.16-3.57-3.63.12-2.42,1.87-2.67,3.77-2.72,1.52-.04,3.04-.16,4.57-.24Z"/>
    <path class="cls-38" d="m676.91,232.29c3.77-6.98,11.16-8.1,17.57-10.69,3.12-1.26,5.32,1.4,7.76,2.78-1.15.47-2.36,1.46-3.44,1.34-6.12-.68-11.63-.16-16.12,4.91-1.12,1.26-3.8,1.14-5.76,1.66Z"/>
    <path class="cls-69" d="m331.83,333.76c2.99.2,7.22-1.72,7.49,2.23.27,3.88-4.61,3.17-7.22,3.86-3.15.83-7.59-1.37-7.45-3.81.27-4.69,5.16-.49,7.18-2.28Z"/>
    <path class="cls-38" d="m672.16,237.04h3.17c-1.8,3.48-4.36,4.97-8.31,3.42-5.52-2.18-12.67,1.14-17.04-5,7.49-.82,14.78,1.14,22.17,1.58Z"/>
    <path class="cls-55" d="m322.23,335.01c-7.71-.19-10.99-8.61-19.99-5.66,7.5-5,13.67-2.89,19.99,5.66Z"/>
    <path class="cls-53" d="m545.52,275.06c-3.58,1.83-4.18-.25-3.88-1.48.94-3.94,4.85-4.3,7.87-5.39,2.06-.74,2.69,1.64,2.58,2.97-.41,5.01-4.95,3.31-6.57,3.89Z"/>
    <path class="cls-48" d="m434.69,238.47c-1.49.04-2.98.02-4.46.15-5.19.46-.66,2.13-.39,3.27-.06,2.22.53,4.56-1.3,6.42.72-8.2-5.28-6.35-9.88-6.6-.92-.99-.85-1.99,0-2.99,2.96-.23,5.4-1.58,7.58-3.5,3.45-.56,7.26-2.03,8.46,3.25Z"/>
    <path class="cls-48" d="m523.27,390.63c.64,1.65,1.84,3.34.04,4.97-1.76,1.58-3.44.45-4.99-.41-1.58-.87-3.04-1.98-4.55-2.98-1.67-2.71.32-3.16,2.16-3.01,2.47.2,4.9.93,7.34,1.43Z"/>
    <path class="cls-19" d="m439.44,219.5c3.9-5.75,10.22-3.75,15.57-4.87,2.54-.39,3.67.56,3.07,3.19-3.63.41-7.41.15-10.71,2.18-2.67.37-5.38,1.21-7.92-.5Z"/>
    <path class="cls-12" d="m488.41,216.71c-.58,2.19-1.16,4.38-1.74,6.56-2.13-2.55-5.06-2.19-7.86-2.08-2.06.08-4.22-.78-4.11-2.52.1-1.62,2.37-2.36,4.4-2.24,3.1.19,6.21.19,9.31.27Z"/>
    <path class="cls-12" d="m523.2,213.6c9.53-.19,19.06-.38,28.59-.57.52.18,1.04.35,1.56.53-10.05,1.38-20.09,3.48-30.15.04Z"/>
    <path class="cls-75" d="m597.72,273.67c-2.61-2.04-4.49-4.56-5.23-7.85,2.77-5.36-3.76-2.34-4.28-4.74,7.39-.42,10.83,4.14,9.5,12.59Z"/>
    <path class="cls-48" d="m447.24,249.71c-1.28,3.63,1.01,8.28-3.17,11.08-.21-1.26.02-2.93-.71-3.72-5.89-6.34-2.18-7.43,3.87-7.37Z"/>
    <path class="cls-26" d="m287.1,354.22c.36-3.51-2.04-8.54,4.7-8.53.46,4.07-2.27,8.16.06,12.22-1-.21-2-.42-3-.63-2.81.27-2.5-1.27-1.77-3.05Z"/>
    <path class="cls-48" d="m356.96,358.97c2.83,1.6,5.94,1.66,9.06,1.6,3.41-.07,6.23.71,6.77,4.74-3.35-1.49-6.9-2.74-10.52-2.36-3.41.36-4.89-.85-5.32-3.98Z"/>
    <path class="cls-48" d="m942.79,233.87c3.6-4.38,8.64.3,12.57-2-.02.61-.04,1.23-.07,1.84-1.95.15-3.39,2.24-5.7,1.28-4.11-1.71-3.1,1.64-3.41,3.63.3,2.9-1.3,2.36-2.99,1.66-.13-2.14-.27-4.27-.4-6.41Z"/>
    <path class="cls-48" d="m672.16,237.04c-7.47.54-14.82-.56-22.17-1.58-1.76,0-3.49-.09-4.75-1.58,9.11-.06,18.09.92,26.93,3.17Z"/>
    <path class="cls-35" d="m575.37,222.56c2.57-2.95,2.14-5.28-1.98-4.49-4.44.86-7.27-1.56-10.58-3.29,5.62-2.65,9.94,2.21,14.96,3.06,2.54.43,1.18,4.3-2.4,4.71Z"/>
    <path class="cls-48" d="m458.07,217.82c-1.02-1.06-2.04-2.13-3.07-3.19-.04-.38-.03-.76.03-1.13,7.47,0,14.94,0,22.41,0-3.17,2.62-6.9,1.37-10.38,1.34-3.42-.03-6.62.06-8.98,2.98Z"/>
    <path class="cls-48" d="m230.25,343.13c4.92,4.55,10.88,6.24,17.42,6.33h1.58v1.58c-5.14,5.13-10.6,2.74-15.7.25-3.05-1.49-5.56-4.1-3.31-8.16Z"/>
    <path class="cls-48" d="m418.73,357.38c2.48,1.35,6.13,2.81,4,6.13-2.48,3.87-4.54-1.78-7.17-1.38,1.06-1.58,2.11-3.17,3.17-4.75Z"/>
    <path class="cls-38" d="m632.56,225.96c.12,2.27-3.21,3.68-1.58,6.33-1.79-.7-5.13,3.07-5.33-.93-.18-3.64,3-5.62,6.91-5.4Z"/>
    <path class="cls-44" d="m404.45,385.97c-6.42-.46-13.05,1.88-19.27-1.43,6.51-.68,13.05-1.83,19.27,1.43Z"/>
    <path class="cls-48" d="m917.67,221.18c6.96.26,14.07-1.76,20.86,1.32-.62.24-1.23.48-1.85.71-5.81-.89-11.61-1.03-17.42-.02-1.09-.16-2.18-.33-3.28-.49.56-.51,1.13-1.01,1.69-1.52Z"/>
    <path class="cls-48" d="m494.76,390.63c-1.74,1.45-3.49,2.89-5.22,4.36-2.03,1.72-3.59,1.86-4.28-1.19,3.4-.37,4.96-6.24,9.5-3.17Z"/>
    <path class="cls-2" d="m610.05,226.49c4.92-1.43,8.14-1.92,10.9.74.36.35.21,1.95.12,1.96-3.49.61-6.71,0-11.02-2.71Z"/>
    <path class="cls-26" d="m322.09,353.97c-4.82,4.29-8.2-2.76-12.62-1.6,4.59-2.52,8.74-1.49,12.62,1.6Z"/>
    <path class="cls-48" d="m439.44,219.5c2.64.17,5.28.33,7.92.5-1.56,2.15-4.49.91-6.27,2.53-3.07.04-6.15.07-9.22.11-1.38-1.71-.25-2.75,1.01-3.75,1.19-.39,2.27-.18,3.22.64,1.13,1.6,2.24,1.54,3.34-.03Z"/>
    <path class="cls-48" d="m911.67,223.1c-6.55,3.15-13.1,1.59-19.65-.03,5.38-.19,10.76-.37,16.14-.56,1.17.19,2.34.39,3.51.59Z"/>
    <path class="cls-9" d="m504.22,373.38c5.29-.06,10.58-.12,15.88-.19-5.26,2.55-10.56,2.59-15.88.19Z"/>
    <path class="cls-28" d="m708.78,232.53c-.8,4.78.75,11.67-8.2,9.15,6.53.34,5.23-6.31,8.2-9.15Z"/>
    <path class="cls-48" d="m361.71,300.38c-1.25,4.94-4.24,7.79-9.5,7.92,3.17-2.64,6.34-5.28,9.5-7.92Z"/>
    <path class="cls-7" d="m426.44,208.81c-1.97-2.46-5.97-2-7.41-5.31-.67-1.54-3.16-2.55-1.74-4.64,1.15-1.69,3.53-1.95,5.01-1.17,5.35,2.82,10.42,1.72,15.69-.07,1.61-.55,3.88-.6,5.05,1.12,1.47,2.16-1.32,2.97-1.81,4.45-2.73,8.15-7.35,10.54-14.86,5.56l.08.06Z"/>
    <path class="cls-34" d="m381.15,225.84c-3.59-4.46-7.52-8.48-14.63-9.65,8.06-5.42,15.83-4.58,23.48-4.4-.24,3.66.7,6.85,3.64,9.26-1.77,7.83-7.62,5.04-12.49,4.78Z"/>
    <path class="cls-39" d="m411.44,208.58c-.94,8.77-2.85,9.69-10.41,4.99-1.31-.81-2.66-1.57-3.98-2.35,0,0-.21.4-.21.4,0,0,.24-.38.24-.38,1.78-5.19,4.74-1.9,7.36-1.03,2.87,1.75,3.9-4.33,6.99-1.63Z"/>
    <path class="cls-7" d="m463.51,198.35c-.67.82-1.01,1.63-1.61,1.91-3.13,1.45-6.07,4.74-9.87,1.56-1.18-.99-.96-2.41.25-3.32,3.58-2.69,7.23-3.76,11.23-.15Z"/>
    <path class="cls-48" d="m433.17,220.03c-.44.87-.88,1.73-1.31,2.6-2.4.64-5.52-.18-6.52,3.25-1.15,1.01-2.35,1.12-3.61.23-2.81-1.31-1.54-5.1-4.02-6.61,5.22-1.77,10.43-3,15.47.53Z"/>
    <path class="cls-48" d="m421.72,226.12c1.2-.08,2.41-.15,3.61-.23,4.75,3.76,10.88.08,15.81,2.93-4.22,5.27-9.32,3.84-14.48,1.88-2.72-1.81-5.7-2.34-8.85-1.61-4.68,1.09-4.48-1.61-3.81-4.74,2.07,2.8,4.41,4.38,7.72,1.76Z"/>
    <path class="cls-33" d="m433.17,220.03c-5.16-.18-10.32-.36-15.47-.53,4.31-4.56,15.28-4.55,18.4.03-.97.17-1.95.34-2.92.5Z"/>
    <path class="cls-48" d="m381.15,225.84c4.29-1.26,9.53-.05,12.49-4.79,3.84-.76,1.35,2.39,2.16,3.5,1.64,4.21-3.2,2.3-3.98,4.22.35.35.35.7,0,1.05-3.05-3.39-7.16-1.61-10.78-2.21.04-.59.07-1.18.11-1.77Z"/>
    <path class="cls-51" d="m426.35,208.75c.57,2.98-.89,4.6-3.69,4.74-2.67.13-5.94-.38-5.89-3.62.05-3.27,3.23-1.33,5.01-1.51,1.52-.15,3.1.28,4.66.46,0,0-.08-.06-.08-.06Z"/>
    <path class="cls-48" d="m411.44,208.58c-2.2,1.11-3.8,4.78-6.99,1.63,1.9-2.87,3.42-6.82,7.95-4.41,1.98,1.06,1.19,2.45-.96,2.77Z"/>
    <path class="cls-47" d="m391.83,228.77c-.72-3.34,2.97-2.52,3.99-4.22,1.73.46,3.46.92,5.19,1.38-2.26,3.54-5.46,4.03-9.18,2.85Z"/>
    <path class="cls-58" d="m261.92,235.54c-2.63,0-5.26-.02-7.89-.02-.56-.44-1.11-.88-1.67-1.32,3.71-.17,7.42-.34,11.13-.51,2.66-1.61,5.3-1.21,7.94.06.6.54,1.21,1.08,1.81,1.62-3.24.06-6.49.11-9.73.17-.53.97-1.06.97-1.59,0Z"/>
    <path class="cls-9" d="m271.43,233.75c-2.65-.02-5.29-.04-7.94-.06-1.02-1.53-2.13-3.01-3.04-4.6-.87-1.53-.91-3.17.89-4.03,1.78-.85,4.65-.81,4.59,1.14-.14,4.35,4.41,4.56,5.5,7.54Z"/>
    <path class="cls-12" d="m322.11,211.99c4.74.18,7.56,4.06,11.42,5.93-2.75.57-5.5,1.14-8.25,1.71-1.42-2.39-3.54-4.49-3.17-7.63Z"/>
    <path class="cls-11" d="m312.76,211.65c-5.01,1.43-10.04,3.02-14.51-1.37,0,0,.1-.15.1-.15,4.9-.43,10.02-2.9,14.41,1.52Z"/>
    <path class="cls-64" d="m312.76,211.65c-4.51-3.24-9.67-.44-14.41-1.52-.2-.38-.3-.78-.29-1.21,4.09-.1,8.19-.22,12.28-.3,2.35-.05,4.73-.09,5.57,2.84l-3.16.19Z"/>
    <path class="cls-48" d="m664.43,354.15c-.55-1.37-2.47-2.43-1.33-4.11.34-.5,2.32-.67,2.75-.23,6.08,6.2,13.02,2.38,19.07.89,7.81-1.92,15.58-3.63,23.55-4.57,9.47-1.13,13.37-5.09,12.92-12.45-.2-3.28-1.57-4.79-4.67-5.06-.48-.23-.67-.5-.57-.82.1-.34.22-.51.36-.51,9.86-.05,19.77-1.06,29.48,1.59.24.07.73-.06.76.03,2.53,7.14,12.68,7.58,13.93,15.82-1.76,4.11-2.77,9-8.9,8.57-6.06-.56-8.12-6.26-12.05-9.54-3.01-2.51-5.17-3.62-6.97,1.01-1.17,3.01-3.02,5.95-6.17,6.84-5.73,1.61-9.28,5.58-12.58,10.05-3.37,1.48-6.85,2.84-6.57,7.52-5.64,8.89-13.64,15.79-20.81,24.59,7.79.09,12.86,3.48,16.07,10.02,1.78,3.64,6,5.01,8.92,7.63,9.67,8.68,8.02,18.64-4.06,22.62-4.09,1.35-5.74,3.46-6.45,7.67-2.63,15.5-24.53,25.48-36.91,13.16-4.89-4.87-7.82-3.3-11.43,2.63-7.3,11.97-15.57,23.12-30.21,27.19-7.15,1.99-14.02,2.03-20.79-1.21-6-4.93-12,.97-18.01.03-9.2-3.6-10.98-8.18-6.72-17.21,1.94-2.43,4.69-1.97,7.29-2.05,4.42.7,4.64,5.1,6.83,7.78,2.61,2.79,4.26-1.49,6.57-.9,3.26-2.95,6.81-2.21,10.25-.58,6.45,3.05,11.97,1.69,15.81-4.02,6.1-9.06,16.1-14.81,20.73-25.11,1.79-3.97,7.6-4.7,8.57-9.62.4-4.49,3.13-6.62,7.19-8.13,9.36-3.48,12.15-9.39,7.06-18.25-4.73-8.24-2.67-13.33,4-18.73,6.32-5.12,12.03-10.99,17.98-16.57,1.34-1.26,2.72-2.52,3.8-3.99,2.79-3.81,6.86-8.62,3.59-12.57-2.85-3.44-7.45.46-11.19,2.41-7.23,3.77-14.27,1.4-21.07-1.84Z"/>
    <path class="cls-48" d="m751.36,351.05c5.15.91,6.13-4.33,9.32-6.31,0,2.11-.02,4.22-.02,6.33-4.52,5.29-2.22,8.76,3.29,10.7,5.15,1.82,9.05,4.41,12.09,9.3,3.91,6.27,12,4.96,14.89-1.89.61-1.45,1.49-3.06,1.35-4.5-1.27-12.44,9.49-15.31,16.57-21.09,1.5-1.23,2.97-1.15,3.82.74,2.42,5.42,7.24,6.28,12.36,6.79,4.71.47,6.77,2.47,6,7.85-1.54,10.84,2.38,17.2,12.5,22.62,1.59.85,3.04,2.09,4.3,3.4,10.24,10.65,23.6,17.12,35,26.23,1.59,1.52,4.72,2.17,3.1,5.5-10.09,5.13-13.85,3.22-20.46-4.77-8.39-10.15-18.04-19.52-31.43-23.32-3.16-.9-7-2.24-7.24-5.32-.64-8.26-6.34-13.76-9.52-20.59-3.55-7.66-10.08-9.55-17.38-3.8-2.3,4.39-2.07,9-1.24,13.67.18,6.6-1.89,12.02-8.5,14.52-6.66,2.52-11.97-.57-16.2-5.24-5.75-6.36-10.5-13.45-18.12-18.21-3.78-2.36-5.8-7.39-4.49-12.6Z"/>
    <path class="cls-48" d="m884.4,374.8c-1.55-1.29-2.78-3.13-5.36-2.2-2.67.96-4.47-.34-5.7-2.72-1.23-2.38.05-3.99,1.66-5.44,3.29-2.98,4.15-7.01,5.31-11.05,1.27-4.42,1.15-8.14-2.5-11.36-2.91-2.57-3.54-6.26-4.48-9.77,3.68-.67,7.64.6,11.09-1.61,11.48,2.02,13.11,12.97,18.48,20.5,1.65,2.31,5.18,2.67,5.92,5.91-13.02.82-19.52,6.64-19.65,17.47-1.5,1.67-3.09,1.57-4.76.27Z"/>
    <path class="cls-7" d="m936.59,266.88c.03,1.85.2,3.91-1.25,5.19-6.41,5.65-6.81,13.16-6.78,20.84-6.33-1.56-8.11-5.89-7.22-11.83.59-.73,1.18-1.48,1.79-2.22-.58.62-1.03,1.35-1.8,1.81-4.86.88-9.15-.41-13-3.36-.88-.77-1.46-1.7-1.51-2.9-.21-1.55,2.44-3.27-.33-4.67-3.65-6.16-11.21-7.03-15.85-11.82-2.67-.19-5.36-.35-6.45-3.48,1.92-4.62,4.98-7.9,10.18-8.65,5.53-.2,11.08.37,16.59-.44,1.32.04,2.51.41,3.49,1.34l-.05-.08c.58.52,1.31.96,1.69,1.62,4.84,8.42,10.75,15.63,20.49,18.67Z"/>
    <path class="cls-9" d="m936.59,266.88c-11.72.58-21.19-8.07-22.18-20.28,4.98-.45,9.96-.91,14.93-1.36,1.36,5.43,5.73,9.76,5.71,15.68.3,2.04,2.18,3.68,1.54,5.96Z"/>
    <path class="cls-9" d="m893.73,247.76c-4.65.12-5.66,5.44-9.53,6.66-1.47.51-4.4,2.06-3.28-1.14,3.79-10.83,24-14.61,33.55-6.62-.99.02-1.98.05-2.97.07-5.85,1.57-11.9-.28-17.76,1.03Z"/>
    <path class="cls-7" d="m935.05,260.92c-2.56-3.29-2.67-7.87-7.71-10.06-4-1.74,1.43-3.58,2-5.62,4.31-2.5,10.36-.16,13.86-4.95,1-.55,1.99-1.1,2.99-1.66,2.98,5.61-1.01,7.81-5.02,7.51-7.27-.55-8.79,1.27-5.66,7.87.86,1.82-.25,4.58-.46,6.91Z"/>
    <path class="cls-6" d="m634.15,295.94c-1.58-.82-5.19.85-4.5-2.57.55-2.73,2.74-5.32,5.98-5.6,5.91-.52,11.86-.81,18.78.36-4.51,5.78-11.25,2.82-15.52,6.11l-4.75,1.71Z"/>
    <path class="cls-8" d="m622.02,261.65c-3.37,4.46-7.32,6.84-11.74,8.36-.97.33-2.87-1.74-2.24-2.28,4.24-3.55,2.56-11.82,9.15-12.69,2.91-.38.81,5.76,4.82,6.61Z"/>
    <path class="cls-40" d="m824.27,222.89c10.06-4.55,20.09-4.97,30.09.17-1.58,4.33-5.15,2.77-8.19,2.76-5.65-3.01-11.29-1.17-16.93.06l-5.32-.17c-.67-1.04-.61-1.99.35-2.82Z"/>
    <path class="cls-62" d="m895.53,303.53c-2.3.33-4.84-.15-6.59,1.98-6.55-1.6-10.38-6.38-14.23-11.66,4.37-2.91,7.84-.75,9.43,2.17,2.63,4.83,6.5,6.67,11.39,7.5Z"/>
    <path class="cls-17" d="m907.82,273.5c.17.88.35,1.76.52,2.65.57.84.49,1.6-.26,2.29-3.06-2.52-5.7-2.29-7.86,1.17.49-4.04-1.45-7.39-3.13-10.8-1.68-2.61-.19-3.81,2.07-4.66,1.76-.3,3.15.43,4.39,1.57,1.98,2.29,3.77,4.68,4.26,7.79Z"/>
    <path class="cls-71" d="m760.9,222.78c-6.91.26-14.05,1.72-19.89-4.14,7.18,1.02,14.38.61,21.52,1.23,2.17.19-.13,1.9-.1,2.92l-.77.09-.77-.1Z"/>
    <path class="cls-45" d="m716.51,327.3c.25.41.32.86.21,1.33-1.13.19-2.26.37-3.38.56-6.15-1.67-12.3-3.33-18.45-5,.18-.77.36-1.53.54-2.3,7.18.97,14.15,3.11,21.09,5.4Z"/>
    <path class="cls-48" d="m903.52,267.13c-1.2-.61-2.39-1.22-3.59-1.83-2.78-2.25-6.98-1.76-9.33-4.84.02-.85.03-1.7.05-2.55,7.55.65,13.78,3.55,17.77,10.32.55,1.12.39,2.08-.98,2.14-2.19.11-2.91-1.79-3.91-3.25Z"/>
    <path class="cls-43" d="m829.23,225.87c5.63-2.42,11.26-6.31,16.93-.06-5.64.56-11.28,1.09-16.93.06Z"/>
    <path class="cls-48" d="m890.59,260.46c3.4,1.06,8-.19,9.33,4.84-2.12.22-3.03,1.41-2.83,3.5-1.37-3.41-6.36-3.99-6.51-8.34Z"/>
    <path class="cls-48" d="m886.2,222.59c-1.65.1-3.31.2-4.96.3-6.93-.09-13.85-.19-20.78-.28,8.58-1.86,17.16-3.13,25.74-.02Z"/>
    <path class="cls-60" d="m850.9,373.6c.63-.67,1.26-1.34,1.9-2.01,3.2,4.11,6.68,7.69,12.62,6.4-1.02,1.01-2.05,2.01-3.07,3.02-7.45,3.15-10.1-1.11-11.44-7.4Z"/>
    <path class="cls-22" d="m824.27,222.89c-.12.94-.23,1.88-.35,2.82-5.73.06-11.46.12-17.19.18,5.49-3.09,12.01-.19,17.54-3Z"/>
    <path class="cls-9" d="m648.1,328.89c-3.27,1.83-6.43,2.16-7.3-2.31-1.5-7.7-7.15-6.95-12.41-6.31-5.64.69-10.82,2.04-13.84-5.05-1.47-3.46-4.41-2.4-5.78.69-2.33,5.23-6.77,5.53-11.32,4.94-6.3-.82-12.08-3.5-17.74-6.25-6.92-3.37-4.32-10.43-5.75-15.92,1.61-2.11,3.85-2.14,6.17-1.91,2.77.69,4.52,2.67,5.65,5.06,3.55,7.49,9.71,8.54,17.08,7.6,13.36-1.69,26.31,1.55,39.34,3.7,2.49,5.04,9.23,8.52,5.89,15.74Z"/>
    <path class="cls-9" d="m653.08,431.82c-4.79,8.84-7.75,18.96-17.28,24.48-3.02,1.75-4.84,4.59-6.85,7.38-4.12,5.73-8.42,11.17-16.64,11.68-2.06.13-3.22.29-4.47-1.18-2.72-3.2-6.41-3.15-10.13-3.03,2.2-6.77,6.73-7.79,12.14-4.16,5.5,3.69,9.12,1.76,12.71-2.66,6.67-8.24,13.8-16.12,20.08-24.63,2.86-3.87,7.65-4.39,10.43-7.87Z"/>
    <path class="cls-56" d="m591.39,400.38c-1.12-1.14-2.23-2.28-3.35-3.41-4.48-3.15-8.24-6.57-4.57-12.66h0c.59-.53,1.24-.97,1.96-1.3,1.18-.29,2.32-.17,3.41.35,7.97,5.59,16.61,6.39,25.75,3.54,1.93-1.01,3.8-.92,5.58.34l-.05-.05c1.6,7.78-.26,10.71-7.99,12.54-3.84,2.54-7.59,5.29-12.56,5-3.39-.2-6.27-1.36-8.18-4.35Z"/>
    <path class="cls-18" d="m620.18,387.24l-4.94,1.82c-8.93-1.92-18.57.25-26.96-4.73-1.15-.04-2.29-.07-3.44-.11-.04-2.77,1.35-4.41,3.99-5.06,5.51,1.49,11.09.23,16.63.37,5.14-.41,10.63-2.33,14.39,3.29.11,1.47.22,2.95.32,4.42Z"/>
    <path class="cls-18" d="m612.14,399.73c5.57-2.33,5.47-8.26,7.99-12.54,3.61.41,8.22.2,8.25,5.16.03,4.31-3.96,5.77-7.73,6.44-2.81.49-5.67.64-8.51.94Z"/>
    <path class="cls-9" d="m619.86,382.81c-4.73-.6-9.46-1.2-14.19-1.8-2.4-1.76-5.66.61-7.95-1.65,6.06-3.52,12.74-2.61,19.2-2.27,2.73.14,2.9,3.3,2.94,5.73Z"/>
    <path class="cls-72" d="m648.1,328.89c-.55-5.38-3.04-9.89-6.27-14.08.14-2.08.6-3.83,3.32-3.35.03,3.55,1.37,6.54,3.9,9.02,3.45,3.37,3.71,7.75,4.29,12.08-2.73.72-3.36-1.56-4.8-2.42.11-.51-.04-.92-.45-1.24Z"/>
    <path class="cls-9" d="m583.47,384.31c-.38,4.91,3.27,8.36,4.57,12.66-4.19.44-7.02-3.81-11.24-3.29.14-1.03.28-2.07.42-3.1,2.08-2.09,4.16-4.18,6.24-6.27Z"/>
    <path class="cls-9" d="m588.18,381.01c-1.11,1.07-2.22,2.14-3.33,3.21-.46.03-.92.06-1.38.1-.2-3.81,1.63-6.36,4.96-7.95,3.28-1.56,4.62.9,6.12,3.01-1.73,2.07-4.52.03-6.37,1.64Z"/>
    <path class="cls-12" d="m591.15,472.04c-3.63-.94-3.44-5.18-6.04-7.01-.64-.23-.9-.54-.79-.92.13-.43.28-.64.46-.64.17-1.06.35-2.11.52-3.17,6.49,1.65,3.47,8.04,5.84,11.74Z"/>
    <path class="cls-66" d="m580.37,298.72c-2.14,0-4.28-.02-6.41-.03-1.58.08-3.17.16-4.75.24-1.95-1.52-7.13,3.16-6.46-3.38,4.79-.86,9.6-.9,14.43-.46,1.81.55,3.41,1.3,3.2,3.63Z"/>
    <path class="cls-9" d="m588.18,381.01c1.82-1.71,4.18-1.34,6.37-1.63,1.06,0,2.11-.01,3.17-.02,2.68.41,5.61-.36,7.95,1.65-5.83,0-11.66,0-17.49,0Z"/>
    <path class="cls-9" d="m591.39,400.38c2.73,1.45,5.45,2.9,8.18,4.35-4.86,2.57-7.01.04-8.18-4.35Z"/>
    <path class="cls-41" d="m357.46,460.91c-2.22-.95-6.61,1.06-5.94-2.91.73-4.27,5.22-4.41,8.97-4.13,2.66.2,7.22-.59,6.62,3.21-.82,5.19-6.37,2.57-9.65,3.83Z"/>
    <path class="cls-9" d="m341.15,506.22c-.29,2.47.66,5.45-2.39,6.82-1.03.46-1.97-.46-2.08-1.62-.32-3.23,1.49-4.72,4.48-5.19Z"/>
    <path class="cls-9" d="m306.27,365.3c1.64-5.55,4.24-6.27,7.92-1.58-2.47,1.39-5.15,1.72-7.92,1.58Z"/>
    <path class="cls-9" d="m1020.54,433.39c4.56,4.53,6.73,11.69,14.23,13,.96-.12,1.55.34,1.87,1.21,4.28,4.8,4.25,9.34.05,14.43-10.73,13.01-19.87,27.81-38.14,31.72-4.81,4.07-9.59,1.42-14.37-.06-3.12-2.34-5.39-4.83-6.66-9.02-1.73-5.71-8.16-7.03-13.15-8.25-5.94-1.45-11.85-2.08-17.28-5.55-4.34-2.78-9.39-1.88-14.28.12-3.33,1.37-6.34,3.92-10.29,3.61-13.04,1.27-27.12-10.49-25.89-22.93.7-7.12,8.45-10.12,13.64-14.03,6.02-4.53,11.73-10.28,20.94-8.78,3.7.61,3.08-5.52,5.48-7.86.95-.67,1.89-1.34,2.84-2.01,7.18,1.53,13.11,1.08,18.94-5.13,6.31-6.71,21.86-2.36,25.4,6.14,1.21,2.9,2.4,5.36,5.9,5.32,3.82-.04,4.57-2.68,4.82-5.89.17-2.26,1.45-4.08,3.91-4.25,2.33-.16,4.01,1.29,4.96,3.29.89,1.88,1.25,4.04,3.29,5.19l-.08-.12c1.82,7.25,10.02,5.5,13.89,9.86Z"/>
    <path class="cls-48" d="m1036.63,447.59l-1.87-1.21c.6-5.15-1.4-9.22-5.09-12.68-2.31-2.16-4.6-4.36-6.7-6.72-3.13-3.51-7.34-6.05-9.4-10.51,5.75-2.37,9.12-8.32,15.28-10.07,2.79-.79,5.58-1.59,8.29-2.59,5.81-2.16,7.89-7.08,3.75-11.52-5.34-5.74-10.52-12.97-20.28-11.15-.42-4.54,3.58-4.96,6.2-6.67,13.77-.22,25.9,16.39,21.27,29.08-1.59,4.37-5.33,6.03-9.02,8.21-4.64,2.74-11.67,2.7-12.81,9.94.81,3.82,3.51,5.64,6.98,6.68.65.33,1.22.75,1.75,1.24,2.89,3.23,2.72,9.27,8.82,9.55,1.51.52,2.87,1.28,4.1,2.29,9.82,6.98,9.89,7.02,3.13,18.2-1.48,2.45-.74,5.1-1.51,7.56-9.87,12.24-19.23,25.05-33.07,33.31-3.25,1.94-4.59,4.79-6.19,7.83-4.78,9.09-13.35,9.28-21.98,8.78-7.67-.45-13.41-3.32-16.03-11.52-5.89-18.44-30.84-27.72-47.93-17.97-7.42,4.23-15.12,5.91-23.51,4.49-2.65-.45-6.15-1.04-6.86-3.35-3.47-11.22-15.05-19.64-11.65-33.23,2.12-7.93,1.51-15.9.32-23.87.53-7.26,4.76-9.64,11.32-7.85,3.76,1.03,6.65.1,10.28-2.74-4.91-.57-9.01-1.71-13.36-1.84-2.1-.06-5.04.43-4.88-3.28-1.06-1.58-2.11-3.17-3.17-4.75,9.28,1.68,18.5,3.63,28.06,1.82,3.59-.68,7.99-.76,9.41,3.65,1.43,4.47-3,5.35-5.71,7.25-4.3,3.02-8.5,6.2-12.57,9.53-1.42,1.16-2.52,3.21-4.52,2.66-8.87-2.46-7.46,3.89-8.44,9.02-2.57,13.43,3.26,24.7,9.37,35.54,3.58,6.36,10.6,6.07,17.02,3.62,4.18-1.59,8.23-3.55,12.37-5.26,15.1-6.25,42.84,3.11,48.63,16.49.52,1.21,1.65,2.35,1.68,3.55.32,11.42,9.15,10.92,16.68,11.78,6.89.79,10.48-1.96,11.41-8.92.5-3.75,2.32-5.47,5.33-7.02,14.49-7.47,23.43-20.77,32.95-33.08,5.35-6.92.45-14.45-7.86-14.24Z"/>
    <path class="cls-48" d="m1026.96,376.38c-2.11,1.58-4.22,3.17-6.34,4.75-2.98,4.89-5.79,7.44-11.62,2.55-5.12-4.3-12.54-3.86-18.85-4.57-5.72-.65-11.28-4.79-17.46-1.62-1.4.72-3.08-.65-3.88-2.1-4.2-7.57-10.16-5.91-15.27-2-5.85,4.47-7.88.94-8.49-3.58-1.15-8.56-2.94-16.1-12.85-18.32-.62-.14-1.27-1.02-1.55-1.71-3.92-9.42-13.17-12.06-21.02-16.37-4.49-2.47-9.99-14.5-7.48-18.71,2.02-3.4,6.39-2.76,9.74-2.63,12.46.49,22.02-9.74,20.29-22.02-.33-2.33-.17-4.72-.24-7.09,3.98-1.15,4.93-6.98,10-6.46,2.39,2.3,2.25,5.17,1.75,8.09-.27,1.56-1.42,3.23-1.1,4.56,4.85,20.59-12.73,24.22-24.33,32.35-.63.44-1.47.58-2.11,1.04-.18.13-.25.39-.75,1.22,6.71,1.07,11.12,5.03,15.06,10.26,5.68,7.55,13.18,13.56,19.22,20.86,2.02,2.44,4.19,2.43,7,2.04,13.27-1.83,13.65-1.62,20.03,10.21,1.17,2.17,3.01,2.73,5.01,3.39,11.93,3.9,24.33,3.36,36.61,3.8,3.1.11,6.35-1.1,8.65,2.08Z"/>
    <path class="cls-11" d="m1019.05,404.89c-5.61,4.19-11.08-.92-16.7-.37-1.72.17-2.57-.7-4.04,1.45-2.83,4.13-6.86,3.43-9.17-.64-1.88-3.32-4.13-4.9-7.74-5.72-6.09-1.38-8.02-8.86-14.68-10.23-2.26-.46-4.14-3.5-7.42-3.34-2.31.12-4.13-1.33-4-3.88.16-3.1,2.75-2.49,4.76-2.62.26-.02.61-.11.78.01,10.74,8.05,24.22.41,35.75,6.51,6.22,3.29,12.63,5.87,17.68,10.92,5.12.5,6.69,3.15,4.79,7.9Z"/>
    <path class="cls-10" d="m884.4,374.8c1.59-.09,3.17-.18,4.76-.27,5.57-.05,6.9-5.76,10.76-8.19,2.65-1.67,4.85-3.13,7.88-1.64,1.43.7,3.44,2.75,2.44,3.37-5.26,3.28-.6,6.64-.38,9.8.71,10.22-3.16,14.32-13.5,13.74-4.08-.23-13.66-7.56-15.01-11.41-1.05-3.01,1.18-4.08,3.05-5.39Z"/>
    <path class="cls-50" d="m850.9,373.6c3.22,3.38,6.36,6.89,11.44,7.4,6.07,2.44,10.46,7.44,15.74,11.02,5.69,3.86,11.48,6.74,17.84,7.65,3.14.45,4.87,2.37,7.41,3.17,1.45.68,2.25,1.67,1.53,3.34-6.07,3.82-11.71.62-16.95-1.68-18.13-7.96-32.95-20.91-48.32-33-1.71-1.35-4.54-3.17-2.31-5.58,1.86-2.01,3.61.7,5.23,1.83,2.79,1.95,5.59,3.89,8.38,5.84Z"/>
    <path class="cls-9" d="m936.68,420.99c.24,7.13-1.37,10.41-10.3,10.52-7.18.09-13.6,6.71-19.3,12.02-1.13,1.05-1.78,3.15-3,3.48-10.41,2.83-4.61,8.89-2.41,13.44,4.12,8.51,10.85,13.9,20.84,14.13-3.72,3.97-9.36,2.12-13.66,4.47-1.72.94-3.47-.97-3.75-2.1-1.47-5.92-6.39-10.06-8.02-15.75-3.7-12.92-2.48-15.44,11.09-25.19,6.25-4.49,11.63-10.65,20.72-9.23,3.86.6,3.92-5.48,7.79-5.8Z"/>
    <path class="cls-9" d="m1006.73,423.65c-4.86.51-4.95-4.83-7.88-6.57-1.85.35-1.84,1.77-1.97,3.03-.41,3.88-2.36,6.42-6.36,6.78-4.34.4-7.09-1.78-7.82-6.02-.61-3.48-2.9-5.08-5.89-5.41-7.71-.85-15.33-4.06-21.85,4.87-3.32,4.54-10.56,3.11-15.42-1.37,7.31-2,14.36-3.53,20.59-9.14,6.28-5.66,20.33-.36,24.1,7.6.98,2.07,1.38,4.54,3.8,5.64,2.21,1.01,4.42,1.57,3.9-2.08-.65-4.54-3.53-9.77,4.83-10.05,7.34-.25,9.7,3.9,9.86,10.33.02.79.09,1.58.13,2.37Z"/>
    <path class="cls-48" d="m941.43,276.63c-1.88,4.05-5.3,5.78-9.5,6.33,2.31-4.09,4.54-8.23,6.95-12.26,2.18-3.63,2.49-6.99.61-11.06-2.36-5.1-2.48-9.68,5.25-10.41,4.49-.42,8.89-1.67,7.47-8.19-.37-1.71,1.91-2.14,3.47-2.42,1.06.53,2.11,1.06,3.17,1.58,2.31,8.93.43,13.54-7.98,16.6-4.06,1.47-5.08,3.42-4.79,7.41.33,4.68.22,9.53-4.65,12.41Z"/>
    <path class="cls-57" d="m908.09,278.43c.09-.76.17-1.52.26-2.29,4.84,1.29,9.67,2.58,14.51,3.87l-.19-.15c-1.7,6,3.37,8.95,5.9,13.04.88,4.19-.08,6.65-4.84,8.07-5.37,1.59-10.18-.04-15.47-.49,4.12-2.04,9.13-2.13,10.97-7.35,1.71-4.84,1.48-8.53-4.18-10.2-2.75-.81-5.71-1.34-6.95-4.5Z"/>
    <path class="cls-48" d="m960.07,395.52c2.48.26,4.93.54,5.55,2.78.75,2.71-1.93,3.43-3.76,4.13-3.11,1.2-6.63,1.35-8.79,4.55-1.94,2.87-4.8,3.68-7.14.81-2.26-2.77-1.68-5.71,1.23-8.21,3.89-3.34,8.93-2.45,12.92-4.06Z"/>
    <path class="cls-27" d="m933.18,377.18c-6.93,6.9-8.16,9.16-7.99,14.6-4.97-1.46-6.45-1.35-9.79.75-1.96-11.04,3.72-15.95,17.78-15.35Z"/>
    <path class="cls-20" d="m999.89,496.96c.09,3.14,1.66,6.99-2.87,8.29-4.34,1.25-8.7-.18-11.9-2.79-2.83-2.31-.08-4.41,2.17-5.85,4.26-2.26,8.46-2.17,12.59.34Z"/>
    <path class="cls-31" d="m937.56,363.14c-.19,1.72-.79,3.86-1.77,3.42-4.63-2.06-10.36-.59-14.27-4.52-.59-.59-.8-2.03-.53-2.87.25-.78,1.88-1.92,2.04-1.8,3.88,3.03,8.51,3.03,13.04,3.57.64.08,1.1,1.59,1.49,2.18Z"/>
    <path class="cls-15" d="m1017.58,393.88c1.81-.95,4-1.55,5.3-2.96,1.21-1.31.62-4.66,3.91-3.23,2.09.9,2.88,3.03,3.28,5.11.48,2.51-1.06,3.94-3.24,4.71-1.48.53-3.03.87-4.55,1.29-4.06.75-6.22-.33-4.71-4.92Z"/>
    <path class="cls-73" d="m920.92,347.59c1.94,1.39,4.53,3.4,2.05,5.43-3.5,2.86-7.26,1.43-10.13-1.94.07-7.23,5.07-3.07,8.08-3.49Z"/>
    <path class="cls-68" d="m904.87,406.19c-.51-1.11-1.02-2.23-1.53-3.34,4.03-3.04,9.07.08,13.33-2.13.76-.4,2.58.6,2.74,2.13.12,1.19-1.04,2.31-1.88,1.96-4.54-1.88-8.27,2.71-12.65,1.38Z"/>
    <path class="cls-9" d="m1020.54,433.39c-2.28-.52-4.54-1.26-6.85-1.53-5.05-.59-7.54-3.14-7.04-8.33,4.58,3.35,11.01,4.1,13.89,9.86Z"/>
    <path class="cls-74" d="m908.24,347.77c-2.4-1.94-5.19-3.67-4.78-7.38.14-1.23,1.22-1.6,2.33-1.42,4.1.68,5.32,3.63,5.63,7.27,0,2.71-1.23,2.88-3.19,1.53Z"/>
    <path class="cls-29" d="m943.79,377.76c1.82,3.59.23,7.93,4.04,10.44-3.13,1.43-7.02,2.23-7.27-.35-.28-2.98-1.06-7.52,3.23-10.09Z"/>
    <path class="cls-21" d="m999.89,496.96c-4.17-1.25-8.4-.12-12.59-.34-1.04-.98-2.09-1.95-3.13-2.93,4.79.02,9.58.04,14.37.06.45,1.07.9,2.14,1.35,3.21Z"/>
    <path class="cls-66" d="m940.84,406.27c.23,1.89-1.15,2.18-2.37,2.23-2.24.11-4.91.64-5.76-2.33-.4-1.38.85-2.44,2.21-2.53,2.39-.17,4.55.47,5.92,2.63Z"/>
    <path class="cls-66" d="m923.87,404.76c1.16,2.18,4.9,2.24,4.64,5.71-2.69,1.6-4.99.84-6.61-1.52-1.55-2.26.61-3.09,2.1-4.05l-.13-.14Z"/>
    <path class="cls-48" d="m910.6,289.43c-.38,1.42-1.14,2.44-2.68,2.22-1.81-.27-2.58-1.57-2.43-3.31.1-1.21,1.04-1.79,2.14-1.75,1.77.07,2.84,1.03,2.97,2.84Z"/>
    <path class="cls-23" d="m1017.58,393.88c-.38,3.5,1.85,4.52,4.71,4.92-1.98,1.55-.73,4.82-3.24,6.1,1.09-4.26-2.72-5.55-4.79-7.9,1.11-1.04,2.21-2.08,3.32-3.11Z"/>
    <path class="cls-66" d="m924,404.91c.38-2.79,1.18-5.17,4.75-3.74.76.3,1.87,1.68,1.7,2.08-1.43,3.35-4.28,1.35-6.58,1.52,0,0,.13.14.13.14Z"/>
    <path class="cls-24" d="m908.24,347.77c1.26-.1,2.59-.04,3.19-1.53,3.16.53,6.66-1.39,9.5,1.34-3.13.16-6.95-1.3-8.08,3.49-1.54-1.1-3.07-2.21-4.61-3.31Z"/>
    <path class="cls-9" d="m271.43,344.71c1.37-4.69-2.9-3.26-4.6-3.74-5.38-1.53-11.16-1.36-15.7-5.78-2.67-2.6-6.44.87-9.72-.11-2.1-3.49-4.45-6.89,1.2-9.55,1.91-.9,2.13-3.02,1.15-4.84-3.42-6.37.57-7.92,5.39-7.15,7.62,1.22,14.17-.47,19.51-5.63,5.05-4.88,12.98-4.03,17.59-9.74,1.48-1.83,3.9-.24,5.57,1.23,1.99,1.76,4.09,3.24,7.85,2.43-4.04-3.6-6.96-6.59-2.23-11.97,2.94-3.35,4.96-4.01,8.47-2.5,4.65,1.99,8.51,1.84,13.12-1.4,6.3-4.43,11.42-1.33,10.88,6.14-.48,6.64,1.92,8.58,8.04,6.68-3.05,4.13-9.91,3.55-11.62,9.6-.43,1.52-2.92,1.49-3.91-.12-5.19-8.5-14.42-6.48-19.58-3.65-10.07,5.52-21.83,5.62-31.35,11.84-2.81,1.84-6.94,2.79-7.46,6.43-.53,3.68-4.08,8.19-.57,11.07,3.54,2.9,8.49,1.54,12.72-.32,2.38,1.45,1.53,4.52,3.17,6.33,1.83,4.13-2.47,6.22-3.17,9.5-2.08-1.08-3.67-2.67-4.75-4.75Z"/>
    <path class="cls-9" d="m358.31,288.85c-7.23-2.44-13.05-2.07-17.81,3.72-.92,1.11-3.03,1.33-4.24-.23-1.65-2.13.02-3.58,1.58-4.45,4.33-2.41,4.03-5.31.59-9.17,6.87,2.73,10.88-1.43,16.91-6.3-2.98,7.3-3.56,12.38,2.96,16.43Z"/>
    <path class="cls-48" d="m233.15,290.88c-4.05-.47-7.67.54-10.82,3.17-.92-.14-1.46-.65-1.58-1.58,4.07-8.4,13.1-12.58,18.35-20.58-.31,3.15-.62,6.31-.94,9.46-1.67,3.18-3.34,6.35-5.01,9.53Z"/>
    <path class="cls-63" d="m254.37,306.95c-3.31-.46-7.68.62-7.75-3.83-.07-4.58,4.13-6.28,7.87-5.55,3.44.68,9.7-.62,9.61,4.28-.09,4.96-5.9,4.79-9.73,5.1Z"/>
    <path class="cls-9" d="m345.85,218.26c7.61-1.87,13.6,3.67,20.61,4.53-5.51,3.1-11.82-.39-17.74,2.32-2.15.98-5.03-3.1-2.87-6.85Z"/>
    <path class="cls-16" d="m353.69,248.51c-3.12-.46-7.15.65-6.94-3.61.18-3.8,3.99-3.5,6.81-3.42,2.76.08,6.88-.46,6.97,3.23.12,4.64-4.56,2.91-6.84,3.79Z"/>
    <path class="cls-9" d="m284.01,249.69c2.63-3.2,5.26-6.4,8.05-9.81-3.04-2.82-7.03.04-9.66-2.4,1.03-.15,2.06-.26,3.08-.45,4.48-.83,9.6.54,10.83,3.98,1.2,3.35-4.35,4.82-7.12,6.91-1.02.77-2.21,1.31-3.33,1.96-.7.7-1.32.64-1.86-.2Z"/>
    <path class="cls-9" d="m284.01,249.69c.62.07,1.24.13,1.86.2-1.91,2.41-3.72,4.92-5.75,7.22-1.99,2.25-3.49,1.84-4.07-1.2,2.65-2.07,5.31-4.14,7.96-6.22Z"/>
    <path class="cls-48" d="m256.95,249.1c-.42,5.98-2.88,9.09-2.42,13.26.4,3.69-3.89,3.42-6.65,2.77-3.02-.72-3.32-3.03-1.92-5.48,2.33-4.06,5.58-7.16,10.99-10.54Z"/>
    <path class="cls-48" d="m261.92,235.54c.53,0,1.06,0,1.59,0-.81,7.18,3.06,10.03,9.94,10.91-4.92,4.71-10.19,1.23-14.15-.7-4.72-2.3-.2-4.97,1.5-7.3.59-.81.76-1.93,1.13-2.9Z"/>
    <path class="cls-48" d="m293.6,447.64c-2.11-4.75-4.22-9.5-6.34-14.25,1.58.53,3.17,1.06,4.75,1.58,1.24,4.13,1.91,8.34,1.58,12.67Z"/>
    <path class="cls-48" d="m371.22,526.81c2.24,8.45,5.13,16.89,0,25.34-2.26-.51-3.39-1.88-1.57-3.7,5.4-5.38,2.33-9.55-1.6-13.72-.02-3.07-.2-6.2,3.17-7.92Z"/>
    <path class="cls-48" d="m981.03,232.29c-5.66-2.25-7.87,4.72-12.67,4.75,2.78-7.1,4.41-7.71,12.67-4.75Z"/>
    <path class="cls-67" d="m418.65,238.72c0,1,0,1.99,0,2.99-10.42,4.77-16.57,16.32-29.64,17.39-.9-3.5-2.8-7.14-8.29-8.04-3.25-.53-4.2-3.69-.3-5.09,12.32-4.43,25.07-6.99,38.22-7.23Z"/>
    <path class="cls-42" d="m426.66,230.7c4.49-3.25,9.77-.38,14.48-1.88,2.23,1.8,3.55,3.87,1.72,6.68-1.96,3-4.8,3.78-8.17,2.97-2.29-2.47-6.43-.11-8.46-3.25.15-1.51.29-3.01.44-4.52Z"/>
    <path class="cls-36" d="m580.37,298.72c-1.12-.62-2.24-1.24-3.36-1.86-2.23-.76-4.54-.31-6.82-.45-3.09-.2-4.03-1.71-2.8-4.56,10.45-2.21,20.5.59,23.32,6.48.33.69.91,1.28,1.15,1.99.69,2.05-2.6,5.8,2.07,5.96,1.85.06,5.37-.2,5.61-2.9.28-3.03,3.22-6.41-.59-9.39-1.74-1.36-4.23-2.37-4.23-6.09,4.87,1.45,10.73.57,11.19,7.88.3,4.74,1.37,9.18,6.3,10.74,6.13,1.93,5.68-4.76,8.62-7.51,5.21,5.83,11.82,8.05,19.45,7.67,3.25-.16,5.89.52,4.87,4.79-1.11,1.12-2.22,2.23-3.32,3.35-8.6.07-17.19.64-25.5-2.72-3.11-1.26-6.88-1.36-10.03.1-8.89,4.09-15.5-1.2-22.48-5.06-3.29-1.82,1.74-7.24-3.44-8.41Z"/>
    <path class="cls-25" d="m567.39,291.84c1.06,5.79,6.89,2.43,9.62,5.01-4.72-.8-9.8,2.29-14.27-1.3,1.25-1.62,2.57-3.13,4.65-3.71Z"/>
    <path class="cls-9" d="m287.1,354.22c.59,1.02,1.18,2.04,1.77,3.05-2.05,3.6-4.17,3.69-6.35.11.93-1.91,2.45-2.99,4.58-3.17Z"/>
    <path class="cls-48" d="m459.92,400.14c-4.76.49-9.37,2.21-14.26,1.58,4.69-4.16,8.63-9.54,15.84-9.5.13,2.77-.2,5.45-1.58,7.92Z"/>
    <path class="cls-48" d="m561.29,401.72c-6.27-1.32-12.6-1.96-19.01-1.58,1.55-3.58,3.44-5.85,7.65-2.92,3.38,2.35,8.48.65,11.35,4.5Z"/>
    <path class="cls-48" d="m512.18,401.72c-5.75-1.15-11.53-2-17.42-1.58,6.67-8.91,11.76-.48,17.42,1.58Z"/>
    <path class="cls-12" d="m571.12,417.59c3.06,6.28,6.62,12.41,5.82,19.82-1.81-6.64-8.58-11.83-5.82-19.82Z"/>
    <path class="cls-48" d="m539.11,400.14c-4.75-.15-9.5,3.74-14.26,0,2.14.02,4.21-.29,5.77-1.91,3.9-4.02,6.33-1.72,8.48,1.91Z"/>
    <path class="cls-48" d="m562.87,428.64c-4.19-8.45.26-16.89,0-25.34,2.33,2.77,1.79,5.93.92,8.95-1.56,5.42-.63,10.93-.92,16.39Z"/>
    <path class="cls-48" d="m569.21,449.22c-4.89-.65-4.76-4.32-4.75-7.92,4.11,1.12,3.74,4.93,4.75,7.92Z"/>
    <path class="cls-48" d="m578.71,466.64c-1.9-1.77-1.51-4.11-1.58-6.33,2.4,1.43,4.51,3.54,7.66,3.17.11.52.22,1.04.32,1.56-2.13.54-4.27,1.07-6.4,1.61Z"/>
    <path class="cls-9" d="m279.35,339.96c-4.65-.31-3.72-3.42-3.17-6.33,5.24.02,4.97,2.79,3.17,6.33Z"/>
    <path class="cls-48" d="m268.26,415.97c-.77-.16-1.54-.3-2.31-.49q-10.52-2.66-4.03-10.59c4.83,2.14,2.53,8.35,6.34,11.08Z"/>
    <path class="cls-48" d="m223.91,305.13c-.53-2.64-1.06-5.28-1.58-7.92,2.64,2.22,8.81,3.73,1.58,7.92Z"/>
    <path class="cls-77" d="m673.83,434.15c-2.26-7.95,2.57-14.09,8.15-19.95,2.58-2.71,5.46-4.03,9.18-2.26,3.84,1.83,5.14,4.85,4.92,8.98-.14,2.52-1.13,4.62-2.35,6.61-3.39,5.52-6.9,10.97-10.44,16.39-1.86,2.84-4.5,4.82-7.95,3.57-3.27-1.19-1.61-4.5-1.92-6.87-.24-1.79.21-3.67.42-6.47Z"/>
    <path class="cls-48" d="m713.34,360.55c.62,5.89-4.37,6.19-7.92,7.92-.89-6.16,1.75-8.8,7.92-7.92Z"/>
    <path class="cls-48" d="m602.47,480.89c-5.81-1.66-11.62,3.85-17.42,0,3.27.36,5.94-1.18,8.84-2.37,3.09-1.27,6.01.47,8.58,2.37Z"/>
    <path class="cls-48" d="m795.71,355.8c2.5,5.81,2.5,11.61,0,17.42v-17.42Z"/>
    <path class="cls-14" d="m922.85,280.01c0-1.51-.41-3.19.1-4.49.66-1.68,2.3-2.91,4.24-2.86.77.02,2.16,1.07,2.17,1.66,0,2.04-1.64,3.01-3.32,3.82-1.14.55-2.27,1.14-3.4,1.72,0,0,.2.15.2.15Z"/>
    <path class="cls-48" d="m910.89,252.64c1.58-.03,1.83,1.02,1.54,2.07-.47,1.72-.96,3.72-3.35,3.58-1.15-.06-1.82-1.1-1.77-2.21.1-2.24,1.85-2.91,3.57-3.44Z"/>
    <path class="cls-48" d="m903.52,267.13c1.64.34,2.66,3.4,4.89,1.1,1.92,1.36,3.84,2.71,5.83,4.12-1.86,2.64-4.52-.31-6.42,1.15-2.56-1.37-4.14-3.39-4.31-6.38Z"/>
    <path class="cls-76" d="m893.73,247.76c5.78-2.87,11.87-.26,17.76-1.03-5.76,3.17-11.84.67-17.76,1.03Z"/>
    <path class="cls-54" d="m588.29,384.33c7.28-.28,14.53-.3,21.73,1.16,2.36.48,4.74.53,5.23,3.57-7.75,4.9-23.47,2.14-26.96-4.73Z"/>
    <path class="cls-48" d="m1045.97,442.89c9.25.96,11.7,5.01,7.81,13.49-1.66,3.62-1.55,8.44-6.23,10.26-.06-3.64.12-6.97,2.82-10.1,5.27-6.1,4.91-6.85-2.36-11.37-.83-.52-1.37-1.51-2.05-2.28Z"/>
    <path class="cls-48" d="m885.99,457.14c-3.46-8.8-.73-17.97-1.58-26.92,3.46,8.8.73,17.97,1.58,26.92Z"/>
    <path class="cls-48" d="m1033.3,430.22c6.34.98,4.68,8.8,9.5,11.08-7.72.21-6.97-6.85-9.5-11.08Z"/>
    <path class="cls-48" d="m1023.79,423.89c4.11.71,7.42,2.6,9.5,6.33-4.74.24-7.25-2.86-9.5-6.33Z"/>
    <path class="cls-48" d="m1053.13,476.32c-.45,1.91-1.71,2.73-3.46,2.58-1.73-.15-3.09-1.11-2.88-3.02.2-1.84,1.65-2.63,3.39-2.5,1.75.13,2.91,1.09,2.95,2.94Z"/>
  </g>
  <path class="cls-18" d="m583.53,384.58s-.38,16.88,16.04,20.15c0,0,5.7.73,12.56-5s-12.14-5.73-12.14-5.73c0,0-12-5-12-7v-3l.18-2.99s-6.12,1.15-4.65,3.57Z"/>
  <path class="cls-18" d="m621.32,387.34s.39-3.72-1.47-4.53-13.83-1.83-13.83-1.83l-17.85.03,30.82,4.99,1.04,3.06,1.28-1.71Z"/>
  <path class="cls-9" d="m617,396s3.22-5.09,3.61-6.05,6.39,1.05,5.39,3.05-9,3-9,3Z"/>
  <g>
    <path class="cls-3" d="m579,389s-1.72-.47-4.85-1.2"/>
    <path class="cls-4" d="m564.46,385.71c-39.82-7.91-150.53-22.32-193.78,50.5"/>
    <path class="cls-3" d="m368.25,440.53c-.78,1.46-1.53,2.94-2.25,4.47"/>
  </g>
  <path class="cls-5" d="m356.36,454.38s-9.62-144.96,204.51-176.17"/>
  <path class="cls-5" d="m361,235s112.43-37.49,192.21,33.26"/>
  <path class="cls-5" d="m349,235s-52-52-93,59"/>
  <path class="cls-5" d="m273,294s38-39,75-19"/>
  <path class="cls-16" d="m353.57,279.18c1.54-1.96,3.35-4.3,4.6-6.06,0,0-.21-.12-.21-.12-1.82,1.59-4.21,3.84-6.14,5.68-2.44-.72-5.42-1.58-7.59-2.11l-.03.23c1.81.93,4.2,2.06,6.35,3.06-2.34,2.06-4.33,4.26-5.25,7.02,0,0,.21.12.21.12,3.09-1.61,5.12-3.84,6.87-6.29.17.08.34.16.5.23,2.93,1.53,5.84,2.68,8.9,2.5,0,0,.03-.23.03-.23-2.59-2.24-5.36-3.3-8.24-4.03Z"/>
</svg>