<svg width="421" height="365" viewBox="0 0 421 365" fill="none" xmlns="http://www.w3.org/2000/svg">
<path d="M47.8088 197.062C51.2526 198.729 53.9554 202.729 57.1466 204.851C63.4279 209.035 64.4046 208.05 71.57 210.425C76.3021 211.991 84.2842 218.339 92.1401 217.034C100.299 215.679 109.696 211.595 117.821 213.161L118.065 212.286C118.065 212.286 97.832 195.563 92.5948 193.273C87.3575 190.983 79.2238 189.408 73.0604 191.673C66.8969 193.938 65.8444 197.289 60.4304 197.306C55.0163 197.315 52.886 196.953 50.5874 196.784C48.2887 196.607 47.8088 197.062 47.8088 197.062Z" fill="#EBEBEB"/>
<path d="M117.821 213.161C94.9018 196.935 80.7899 208.126 57.1718 200.295C54.309 199.344 51.5136 198.207 48.836 196.843C57.096 200.48 66.0044 202.324 74.9801 202.695C77.9692 202.838 80.9583 202.762 83.9642 202.695C96.2238 202.198 108.222 205.296 117.821 213.169V213.161Z" fill="#E0E0E0"/>
<path d="M86.4229 203.242C83.9221 201.912 81.0425 200.548 78.5838 199.1C75.4095 197.087 72.673 194.174 68.8167 193.441C73.3129 193.441 76.4368 196.961 80.091 199.041C82.2045 200.371 84.5199 201.642 86.4229 203.242Z" fill="#E0E0E0"/>
<path d="M101.958 205.583C98.6066 205.171 95.0534 205.625 92.2916 207.596C91.4328 208.185 90.7844 209.17 89.9256 209.987C88.2584 211.663 85.9766 212.808 83.6106 212.934C81.2782 213.136 78.9796 212.867 76.7146 212.496C77.8597 212.496 79.0048 212.547 80.15 212.521C84.3094 212.656 87.8627 211.494 90.5066 208.16C93.2936 205.061 98.1182 204.531 101.966 205.592L101.958 205.583Z" fill="#E0E0E0"/>
<path d="M106.471 206.846C99.1876 201.828 93.6893 194.258 85.202 191.067C94.1693 193.197 99.9454 200.952 106.471 206.846Z" fill="#E0E0E0"/>
<path d="M398.03 141.65C394.401 144.176 392.035 149.228 388.785 152.225C382.369 158.136 381.081 157.185 373.326 161.184C368.207 163.828 360.241 172.509 351.038 172.433C341.482 172.357 330.014 169.394 321.029 172.644L320.592 171.692C320.592 171.692 340.673 148.958 346.23 145.405C351.796 141.843 360.797 138.585 368.24 140.058C375.684 141.54 377.485 145.169 383.666 144.209C389.846 143.249 392.212 142.45 394.805 141.835C397.399 141.22 398.03 141.65 398.03 141.65Z" fill="#EBEBEB"/>
<path d="M321.029 172.644C330.687 161.925 343.62 156.326 357.783 154.659C361.226 154.204 364.645 153.749 368.038 153.042C378.226 150.988 388.061 147.266 396.809 141.591C393.989 143.628 391 145.414 387.901 147.005C378.572 151.771 368.223 154.246 357.884 155.484C343.923 157.025 330.957 162.548 321.013 172.644H321.029Z" fill="#E0E0E0"/>
<path d="M355.071 155.661C355.046 155.594 355.198 155.476 355.265 155.4L355.526 155.13C355.846 154.81 356.789 153.935 357.134 153.615C358.439 152.47 360.267 150.862 361.58 149.767C365.377 146.744 368.291 142.18 373.402 141.296C369.099 142.761 366.489 146.584 363.23 149.464C362.119 150.356 360.89 151.333 359.745 152.175C358.97 152.748 356.957 154.255 356.191 154.794L355.602 155.231C355.492 155.333 355.105 155.551 355.071 155.669V155.661Z" fill="#E0E0E0"/>
<path d="M337.768 161.143C341.97 159.299 347.544 159.038 351.266 162.061C354.987 165.446 359.088 166.069 363.912 165.159C365.218 164.974 366.514 164.705 367.819 164.486C365.293 165.286 362.725 166.001 360.022 166.178C357.311 166.439 354.516 165.555 352.326 163.947C351.207 163.181 350.289 162.162 349.177 161.648C345.658 159.905 341.507 160.04 337.76 161.151L337.768 161.143Z" fill="#E0E0E0"/>
<path d="M332.851 163.399C339.309 155.551 344.479 145.675 354.28 141.549C345.119 146.66 340.202 156.292 332.851 163.399Z" fill="#E0E0E0"/>
<path d="M90.6918 42.673C93.4535 47.9861 93.0999 55.522 95.1123 61.1549C99.0781 72.2693 101.217 71.9494 107.986 81.6155C112.449 87.9979 116.524 103.407 127.588 109.124C139.082 115.051 154.675 118.714 163.39 128.271L164.51 127.404C164.51 127.404 154.776 87.5432 150.356 79.78C145.935 72.0167 137.204 62.4348 127.361 59.5215C117.518 56.6081 113.064 59.8162 106.277 54.781C99.4823 49.7374 97.1499 47.2956 94.4303 44.9212C91.7106 42.5467 90.6918 42.673 90.6918 42.673Z" fill="#EBEBEB"/>
<path d="M163.39 128.262C159.256 114.765 151.703 102.455 141.128 93.092C137.667 89.943 133.954 87.0717 130.131 84.3773C122.41 79.0222 114.992 73.1198 108.5 66.2743C102.017 59.4457 96.4342 51.7414 92.1821 43.3467C96.7542 51.5562 102.421 59.1258 108.98 65.8112C115.514 72.5557 122.898 78.357 130.611 83.6953C146.651 94.7508 158.355 109.216 163.39 128.262Z" fill="#E0E0E0"/>
<path d="M133.322 86.4992C133.406 86.5918 133.28 86.3139 133.289 86.3139C133.23 86.1708 133.044 85.7751 132.977 85.6319C132.211 84.0153 130.779 80.9841 130.022 79.3338C129.205 77.5992 128.354 75.6542 127.588 73.886C126.283 70.8801 125.828 67.4531 124.523 64.4388C123.555 62.0054 122.25 59.6899 120.423 57.7617C122.503 59.4457 124.001 61.7696 125.121 64.1862C126.628 67.209 127.066 70.4759 128.354 73.5661C129.095 75.3511 129.921 77.2961 130.628 79.0727C131.386 80.9925 132.649 84.1079 133.263 86.0529L133.331 86.2887L133.356 86.4066C133.356 86.4066 133.381 86.5329 133.331 86.4823L133.322 86.4992Z" fill="#E0E0E0"/>
<path d="M150.592 103.945C146.87 100.181 141.944 97.3686 136.606 97.2002C134.846 97.1329 133.129 97.7812 131.369 97.9833C127.757 98.5053 123.909 97.8317 120.819 95.853C117.703 93.9754 115.051 91.5167 112.491 89.0244C113.889 90.1443 115.27 91.2894 116.701 92.3503C122.157 96.6445 126.974 98.3959 133.878 96.7035C140.218 95.4405 146.66 99.1705 150.592 103.945Z" fill="#E0E0E0"/>
<path d="M155.063 109.747C153.025 103.086 151.88 96.182 150.575 89.3533C149.27 82.5752 146.895 75.9234 143.157 70.0884C152.124 81.3291 152.057 96.2914 155.063 109.747Z" fill="#E0E0E0"/>
<path d="M77.6913 325.105C77.5229 325.206 61.4996 334.51 48.2129 318.874C33.4947 301.563 47.8003 289.623 47.8003 289.623L77.6913 325.105Z" fill="#E0E0E0"/>
<path d="M80.1669 322.133C80.1669 322.133 76.3021 331.016 61.5839 322.007C46.8658 313.006 43.2199 301.184 45.1649 294.541C47.1015 287.898 50.4106 289.102 50.4106 289.102C50.4106 289.102 50.7979 287.199 55.5973 286.744C60.4051 286.289 70.9722 288.386 79.2322 300.224C86.5492 310.707 85.7493 320.028 80.1669 322.142V322.133Z" fill="#F0F0F0"/>
<path d="M80.4447 322.386C74.0118 320.188 68.682 315.103 66.9474 308.535C66.4507 306.641 66.1812 304.662 65.6002 302.742C65.0108 300.755 63.9668 298.86 62.6196 297.286C61.3145 295.728 59.6641 294.398 57.9549 293.337C55.4289 291.754 52.8187 290.314 50.1327 289.026C52.4987 290.828 54.9237 292.512 57.2644 294.33C59.5378 296.006 61.5923 298.162 62.8637 300.662C64.6572 304.089 64.514 308.4 66.3075 311.911C68.9261 317.393 74.4749 321.578 80.4447 322.386Z" fill="#E0E0E0"/>
<g opacity="0.3">
<path d="M64.4214 291.004C64.9771 290.97 65.457 291.257 65.9117 291.543C70.7869 294.6 75.5021 298.127 78.7691 302.784C81.3877 306.531 82.9622 311.128 82.5833 315.515C82.3391 318.31 79.2322 319.994 76.6809 318.588C76.5967 318.546 76.5125 318.495 76.4367 318.445C73.2792 316.449 72.0667 312.551 71.5447 308.964C71.0142 305.377 70.8711 301.588 68.9261 298.447C67.6294 296.342 65.6339 294.734 64.0593 292.806C63.7394 292.41 63.411 291.905 63.6636 291.442C63.8067 291.173 64.1098 291.021 64.4298 291.004H64.4214Z" fill="white"/>
</g>
<g opacity="0.3">
<path d="M60.624 288.967L60.7672 289.059C61.3566 289.505 61.2471 290.583 60.5819 290.903C59.9167 291.223 59.0074 290.634 59.0242 289.901C59.0411 289.16 59.9757 288.621 60.624 288.975V288.967Z" fill="white"/>
</g>
<g opacity="0.3">
<path d="M47.9519 293.008V292.992C48.4318 291.973 49.6612 291.569 50.6884 292.023C54.0648 293.522 57.5844 296.124 59.6978 299.003C60.304 299.829 60.8598 300.73 60.8345 301.79C60.8261 302.186 60.7166 302.582 60.4977 302.91C59.7904 303.98 58.4516 303.879 57.3234 303.634C55.1005 303.163 52.9029 302.363 51.1094 300.974C49.3159 299.576 47.9435 297.538 47.6825 295.282C47.5898 294.516 47.6404 293.716 47.9519 293.017V293.008Z" fill="white"/>
</g>
<path opacity="0.3" d="M55.7151 314.479C60.4893 319.186 66.5769 322.495 73.153 323.808L74.5675 324.078C75.0475 324.137 75.519 324.213 75.9989 324.288C75.519 324.297 75.0306 324.305 74.5423 324.297C67.2505 324.044 60.0346 320.373 55.7067 314.471L55.7151 314.479Z" fill="white"/>
<path d="M304.038 52.9795C304.021 53.19 302.093 73.5832 279.485 75.4861C254.461 77.5911 252.92 57.0548 252.92 57.0548L304.038 52.9795Z" fill="#E0E0E0"/>
<path d="M302.952 48.8366C302.952 48.8366 308.45 58.0228 290.894 65.4661C273.339 72.9094 260.372 68.5899 255.64 62.5781C250.908 56.5578 254.116 54.3601 254.116 54.3601C254.116 54.3601 252.651 52.794 255.328 48.1799C258.006 43.5657 266.687 35.4067 282.643 35.592C296.771 35.7519 304.644 42.4627 302.943 48.8366H302.952Z" fill="#F0F0F0"/>
<path d="M303.364 48.7524C297.26 53.1224 289.252 54.6464 282.238 51.9857C280.209 51.2111 278.264 50.1838 276.168 49.4766C274.004 48.7272 271.629 48.4577 269.347 48.6514C267.108 48.8198 264.859 49.4513 262.805 50.3101C259.757 51.5647 256.785 52.9877 253.897 54.5707C257.037 53.6024 260.111 52.5078 263.243 51.5647C266.215 50.5964 269.465 50.1333 272.539 50.6048C276.765 51.1942 280.563 54.0907 284.865 54.7306C291.475 55.901 298.809 53.5939 303.364 48.7524Z" fill="#E0E0E0"/>
<g opacity="0.3">
<path d="M264.851 42.9842C265.179 42.4622 265.752 42.218 266.299 41.9907C272.185 39.5741 278.382 37.5954 284.672 37.6628C289.724 37.7133 294.868 39.2542 298.573 42.4201C300.931 44.4325 300.451 48.3141 297.538 49.7034C297.445 49.7455 297.344 49.7876 297.251 49.8297C293.429 51.3874 289.151 49.9728 285.581 48.1373C282.02 46.3017 278.517 44.0031 274.45 43.7336C271.722 43.5484 268.994 44.3062 266.249 44.483C265.685 44.5167 265.02 44.483 264.767 43.961C264.615 43.6578 264.674 43.2874 264.86 42.9927L264.851 42.9842Z" fill="white"/>
</g>
<g opacity="0.3">
<path d="M260.582 45.0899L260.751 45.0226C261.534 44.7784 262.426 45.5699 262.283 46.3698C262.14 47.1697 261.037 47.6159 260.38 47.1192C259.723 46.6224 259.841 45.4436 260.574 45.0815L260.582 45.0899Z" fill="white"/>
</g>
<g opacity="0.3">
<path d="M256.069 59.0827V59.0575C255.446 57.9797 255.867 56.6157 256.936 55.9842C260.456 53.9044 265.053 52.4225 269.002 52.372C270.131 52.3551 271.292 52.4393 272.235 53.1466C272.581 53.4076 272.867 53.7613 273.027 54.1654C273.532 55.4958 272.581 56.6241 271.638 57.4914C269.785 59.1922 267.655 60.6488 265.247 61.3645C262.839 62.0802 260.128 62.0045 257.93 60.792C257.189 60.3794 256.499 59.8321 256.069 59.0912V59.0827Z" fill="white"/>
</g>
<path opacity="0.3" d="M280.361 65.9033C287.678 64.6908 294.591 61.3397 299.971 56.2371C300.653 55.5972 301.579 54.6373 302.219 53.9722C301.916 54.41 301.605 54.8478 301.285 55.2773C296.334 61.6344 288.436 65.7433 280.361 65.9033Z" fill="white"/>
<path d="M340.117 317.839C340.117 318.024 339.84 336.136 320.053 339.386C298.144 342.99 295.348 324.996 295.348 324.996L340.109 317.831L340.117 317.839Z" fill="#E0E0E0"/>
<path d="M338.871 314.277C338.871 314.277 344.361 321.989 329.407 329.778C314.453 337.566 302.724 334.662 298.135 329.694C293.546 324.726 296.224 322.562 296.224 322.562C296.224 322.562 294.826 321.282 296.864 317.03C298.902 312.778 305.983 304.981 320.053 304.03C332.514 303.188 339.915 308.543 338.871 314.285V314.277Z" fill="#F0F0F0"/>
<path d="M339.225 314.168C334.148 318.445 327.201 320.348 320.836 318.496C318.992 317.957 317.207 317.191 315.304 316.711C313.342 316.206 311.229 316.13 309.233 316.458C307.271 316.761 305.326 317.477 303.583 318.378C300.981 319.691 298.464 321.157 296.03 322.756C298.725 321.679 301.36 320.5 304.063 319.456C306.614 318.395 309.443 317.763 312.188 317.957C315.961 318.176 319.505 320.475 323.345 320.736C329.256 321.3 335.554 318.765 339.233 314.176L339.225 314.168Z" fill="#E0E0E0"/>
<g opacity="0.3">
<path d="M304.88 311.776C305.132 311.296 305.621 311.035 306.084 310.799C311.102 308.256 316.432 306.084 321.972 305.697C326.427 305.385 331.066 306.387 334.552 308.922C336.775 310.538 336.615 313.982 334.148 315.413C334.063 315.464 333.988 315.506 333.903 315.548C330.637 317.19 326.772 316.238 323.505 314.874C320.238 313.51 316.988 311.725 313.384 311.767C310.967 311.793 308.61 312.652 306.21 312.997C305.713 313.064 305.124 313.081 304.863 312.643C304.711 312.382 304.737 312.054 304.88 311.784V311.776Z" fill="white"/>
</g>
<g opacity="0.3">
<path d="M301.268 313.932L301.411 313.865C302.084 313.595 302.926 314.227 302.859 314.951C302.792 315.667 301.849 316.13 301.234 315.742C300.628 315.355 300.644 314.303 301.268 313.932Z" fill="white"/>
</g>
<g opacity="0.3">
<path d="M298.262 326.579V326.562C297.639 325.653 297.916 324.423 298.809 323.792C301.764 321.712 305.713 320.087 309.191 319.759C310.184 319.666 311.22 319.658 312.096 320.213C312.424 320.424 312.693 320.71 312.862 321.055C313.401 322.192 312.635 323.253 311.868 324.078C310.353 325.703 308.576 327.135 306.505 327.943C304.433 328.743 302.034 328.861 300.013 327.943C299.331 327.631 298.683 327.193 298.253 326.57L298.262 326.579Z" fill="white"/>
</g>
<path opacity="0.3" d="M320.145 330.889C326.485 329.256 332.321 325.829 336.741 320.987L337.684 319.935C337.979 319.564 338.273 319.202 338.585 318.84C338.349 319.253 338.113 319.657 337.861 320.061C333.979 326.048 327.269 330.241 320.145 330.881V330.889Z" fill="white"/>
<path d="M357.421 117.72C357.311 117.771 346.635 122.259 339.646 111.506C331.908 99.6003 341.726 93.3442 341.726 93.3442L357.421 117.712V117.72Z" fill="#E0E0E0"/>
<path d="M359.189 116.078C359.189 116.078 356.082 121.274 347.687 114.521C339.284 107.768 337.97 100.156 339.705 96.1904C341.439 92.2246 343.393 93.235 343.393 93.235C343.393 93.235 343.78 92.0898 346.795 92.1909C349.809 92.2919 356.191 94.4306 360.368 102.43C364.064 109.511 362.826 115.22 359.197 116.087L359.189 116.078Z" fill="#F0F0F0"/>
<path d="M359.34 116.255C355.526 114.386 352.63 110.807 352.082 106.597C351.922 105.385 351.914 104.139 351.712 102.901C351.501 101.621 351.005 100.367 350.297 99.2804C349.615 98.2111 348.697 97.2596 347.721 96.4597C346.281 95.2725 344.782 94.1779 343.216 93.1675C344.538 94.4726 345.902 95.7103 347.216 97.0238C348.487 98.2447 349.59 99.7435 350.179 101.394C351.021 103.659 350.583 106.32 351.417 108.635C352.604 112.239 355.711 115.278 359.34 116.247V116.255Z" fill="#E0E0E0"/>
<g opacity="0.3">
<path d="M351.922 95.5337C352.268 95.559 352.545 95.7779 352.806 95.9884C355.585 98.2702 358.229 100.83 359.871 103.979C361.193 106.513 361.799 109.486 361.218 112.172C360.848 113.889 358.785 114.681 357.311 113.603C357.261 113.569 357.219 113.527 357.168 113.494C355.366 112.003 354.928 109.494 354.895 107.229C354.853 104.964 355.063 102.606 354.112 100.51C353.472 99.1038 352.369 97.9418 351.543 96.6283C351.375 96.3589 351.215 96.0136 351.409 95.7526C351.518 95.601 351.72 95.5253 351.914 95.5421L351.922 95.5337Z" fill="white"/>
</g>
<g opacity="0.3">
<path d="M349.725 93.9674L349.8 94.0347C350.129 94.3547 349.977 95.0114 349.539 95.163C349.102 95.3061 348.588 94.8767 348.655 94.4136C348.723 93.9589 349.346 93.6979 349.725 93.9674Z" fill="white"/>
</g>
<g opacity="0.3">
<path d="M341.549 95.4663C341.919 94.86 342.719 94.7085 343.317 95.0705C345.296 96.2662 347.266 98.1607 348.344 100.114C348.655 100.67 348.925 101.276 348.824 101.933C348.79 102.177 348.689 102.413 348.529 102.598C347.999 103.204 347.182 103.036 346.5 102.792C345.161 102.32 343.864 101.655 342.862 100.645C341.86 99.6342 341.178 98.2701 341.195 96.8472C341.195 96.3672 341.288 95.8789 341.549 95.4663Z" fill="white"/>
</g>
<path opacity="0.3" d="M344.647 109.384C347.822 113.072 351.788 115.649 356.435 117.08C351.577 116.878 346.795 113.746 344.647 109.384Z" fill="white"/>
<path d="M79.4006 140.051C79.2153 140.118 61.0871 146.753 50.3011 128.305C38.3531 107.878 55.1931 98.2368 55.1931 98.2368L79.4006 140.051Z" fill="#E0E0E0"/>
<path d="M82.4739 137.448C82.4739 137.448 76.8998 145.851 63.4447 133.945C49.9895 122.04 48.3981 109.258 51.5977 102.791C54.7973 96.3248 57.9633 98.1604 57.9633 98.1604C57.9633 98.1604 58.7042 96.2827 63.7141 96.6869C68.724 97.091 79.1817 101.158 85.4967 114.798C91.0875 126.881 88.5868 136.295 82.4739 137.44V137.448Z" fill="#F0F0F0"/>
<path d="M82.7097 137.76C76.5125 134.341 71.9657 128.152 71.3848 121.105C71.2164 119.067 71.3006 116.996 71.0564 114.924C70.8122 112.777 70.0797 110.647 68.9851 108.786C67.9326 106.951 66.4843 105.292 64.9182 103.894C62.6195 101.806 60.203 99.8611 57.6854 98.0508C59.782 100.324 61.9628 102.497 64.0341 104.778C66.0633 106.917 67.7726 109.485 68.623 112.289C69.8355 116.129 68.9093 120.524 70.1133 124.447C71.8058 130.544 76.7399 135.84 82.7012 137.751L82.7097 137.76Z" fill="#E0E0E0"/>
<g opacity="0.3">
<path d="M71.991 102.674C72.5636 102.742 73.0098 103.129 73.4224 103.499C77.8682 107.524 82.0613 111.995 84.5621 117.367C86.566 121.687 87.3407 126.68 86.1534 131.117C85.3956 133.946 81.9013 135.108 79.5437 133.197C79.468 133.138 79.3922 133.07 79.3164 133.003C76.4368 130.384 75.9063 126.174 76.0242 122.394C76.1336 118.622 76.6725 114.706 75.2495 111.136C74.2981 108.745 72.5467 106.724 71.2837 104.468C71.0227 104.005 70.7869 103.424 71.1237 102.994C71.3258 102.742 71.6626 102.64 71.9826 102.683L71.991 102.674Z" fill="white"/>
</g>
<g opacity="0.3">
<path d="M68.463 99.8947L68.5893 100.013C69.1113 100.577 68.8082 101.655 68.0672 101.865C67.3263 102.076 66.5011 101.309 66.6527 100.551C66.8042 99.7937 67.8567 99.4148 68.463 99.8947Z" fill="white"/>
</g>
<g opacity="0.3">
<path d="M54.73 101.731L54.7468 101.714C55.4204 100.763 56.7508 100.561 57.7191 101.217C60.9103 103.365 64.0425 106.674 65.6928 110.008C66.1643 110.959 66.5685 111.987 66.3496 113.073C66.2654 113.477 66.0886 113.856 65.8023 114.159C64.8761 115.127 63.5289 114.774 62.4174 114.327C60.2198 113.443 58.1148 112.222 56.5319 110.463C54.9405 108.703 53.9132 106.371 54.048 104.005C54.0985 103.205 54.2837 102.396 54.7384 101.731H54.73Z" fill="white"/>
</g>
<path opacity="0.3" d="M58.7969 125.155C62.8216 130.864 68.463 135.369 74.9801 137.903L76.3863 138.434C76.8662 138.585 77.3377 138.737 77.8177 138.905C77.3209 138.829 76.8241 138.745 76.3273 138.644C68.9009 137.044 62.1817 131.975 58.7969 125.155Z" fill="white"/>
<path d="M373.781 260.153H221.589C218.869 260.153 216.655 257.938 216.655 255.218V33.5367C216.655 30.817 218.869 28.6025 221.589 28.6025H373.781C376.5 28.6025 378.715 30.817 378.715 33.5367V255.218C378.715 257.938 376.5 260.153 373.781 260.153ZM221.589 28.813C218.987 28.813 216.865 30.9349 216.865 33.5367V255.218C216.865 257.82 218.987 259.942 221.589 259.942H373.781C376.382 259.942 378.504 257.82 378.504 255.218V33.5367C378.504 30.9349 376.382 28.813 373.781 28.813H221.589Z" fill="#E0E0E0"/>
<path d="M198.283 260.153H46.0995C43.3799 260.153 41.1654 257.938 41.1654 255.218V33.5367C41.1654 30.817 43.3799 28.6025 46.0995 28.6025H198.283C201.002 28.6025 203.217 30.817 203.217 33.5367V255.218C203.217 257.938 201.002 260.153 198.283 260.153ZM46.0995 28.813C43.4977 28.813 41.3759 30.9349 41.3759 33.5367V255.218C41.3759 257.82 43.4977 259.942 46.0995 259.942H198.283C200.884 259.942 203.006 257.82 203.006 255.218V33.5367C203.006 30.9349 200.884 28.813 198.283 28.813H46.0995Z" fill="#E0E0E0"/>
<path d="M421 311.574H0V311.785H421V311.574Z" fill="#E0E0E0"/>
<path d="M57.0286 323.582H43.5061V323.792H57.0286V323.582Z" fill="#E0E0E0"/>
<path d="M188.507 321.299H143.435V321.51H188.507V321.299Z" fill="#E0E0E0"/>
<path d="M88.3932 331.403H57.8707V331.614H88.3932V331.403Z" fill="#E0E0E0"/>
<path d="M354.937 321.19H318.571V321.4H354.937V321.19Z" fill="#E0E0E0"/>
<path d="M367.769 321.19H362.439V321.4H367.769V321.19Z" fill="#E0E0E0"/>
<path d="M311.624 326.436H266.249V326.646H311.624V326.436Z" fill="#E0E0E0"/>
<path d="M386.377 359.669C386.377 362.523 307.633 364.83 210.5 364.83C113.367 364.83 34.623 362.515 34.623 359.669C34.623 356.823 113.367 354.507 210.5 354.507C307.633 354.507 386.377 356.823 386.377 359.669Z" fill="#F5F5F5"/>
<path d="M182.807 205.97C195.462 222.583 206.433 241.983 210.348 262.679C210.828 265.668 211.165 268.691 211.216 271.714C209.136 248.356 195.824 225.067 182.807 205.97Z" fill="#06382F"/>
<path d="M102.227 109.721C105.713 116.869 104.989 126.881 107.464 134.442C112.356 149.354 115.211 148.992 123.875 162.076C129.592 170.715 134.476 191.336 148.992 199.31C164.064 207.587 184.667 212.992 195.925 225.984L197.441 224.873C197.441 224.873 185.872 171.557 180.264 161.083C174.656 150.608 163.382 137.583 150.398 133.373C137.414 129.163 131.386 133.28 122.536 126.342C113.678 119.412 110.664 116.078 107.128 112.836C103.591 109.595 102.227 109.721 102.227 109.721Z" fill="#06382F"/>
<g opacity="0.2">
<path d="M102.227 109.721C105.713 116.869 104.989 126.881 107.464 134.442C112.356 149.354 115.211 148.992 123.875 162.076C129.592 170.715 134.476 191.336 148.992 199.31C164.064 207.587 184.667 212.992 195.925 225.984L197.441 224.873C197.441 224.873 185.872 171.557 180.264 161.083C174.656 150.608 163.382 137.583 150.398 133.373C137.414 129.163 131.386 133.28 122.536 126.342C113.678 119.412 110.664 116.078 107.128 112.836C103.591 109.595 102.227 109.721 102.227 109.721Z" fill="white"/>
</g>
<path d="M195.917 225.985C188.734 202.156 172.652 181.443 153.16 166.287C138.046 155.316 124.043 142.416 113.535 126.873C110.041 121.703 106.917 116.289 104.198 110.681C109.898 121.753 117.164 131.992 125.61 141.128C129.836 145.683 134.307 150.011 139.014 154.078C148.411 162.254 159.155 168.889 167.625 178.134C180.5 191.631 191.083 207.865 195.925 225.993L195.917 225.985Z" fill="#06382F"/>
<path d="M157.378 169.444C147.813 158.541 151.097 141.541 141.212 130.813C142.542 131.984 143.67 133.373 144.664 134.847C151.501 145.363 149.876 159.256 157.378 169.444Z" fill="#06382F"/>
<path d="M179.733 193.231C174.976 188.044 168.509 184.062 161.403 183.657C159.071 183.531 156.747 183.969 154.381 184.297C149.607 185.165 144.538 184.053 140.513 181.35C136.438 178.782 132.969 175.465 129.617 172.097C131.419 173.654 133.196 175.237 135.057 176.711C140.488 181.207 146.98 184.996 154.271 183.472C156.612 183.177 159.003 182.748 161.445 182.908C168.695 183.363 175.304 187.665 179.742 193.248L179.733 193.231Z" fill="#06382F"/>
<path d="M185.484 201.094C183.312 192.102 181.838 182.932 180.356 173.814C178.841 164.754 175.894 155.812 171.019 147.981C176.5 155.5 179.582 164.568 181.182 173.679L183.287 187.395C183.817 190.805 184.92 197.693 185.476 201.094H185.484Z" fill="#06382F"/>
<path d="M200.244 349.994C201.356 276.05 228.089 203.419 272.741 144.723L282.634 132.396L293.058 120.516L282.794 132.523L273.069 144.967C228.847 203.848 202.358 276.244 200.244 349.994Z" fill="#06382F"/>
<path d="M330.637 73.464C323.581 79.6611 311.961 81.9513 304.122 87.1296C288.663 97.3431 289.96 100.484 277.759 114.419C269.701 123.622 247.742 135.604 243.178 154.616C238.446 174.352 236.442 199.697 229.159 217.758C229.159 217.758 286.272 187.976 296.451 178.327C306.623 168.677 317.956 151.778 318.705 135.688C319.455 119.589 312.896 114.006 318.032 101.764C323.168 89.5209 326.022 85.0499 328.616 80.0063C331.209 74.9627 330.637 73.4556 330.637 73.4556V73.464Z" fill="#06382F"/>
<g opacity="0.1">
<path d="M330.637 73.464C323.581 79.6611 311.961 81.9513 304.122 87.1296C288.663 97.3431 289.96 100.484 277.759 114.419C269.701 123.622 247.742 135.604 243.178 154.616C238.446 174.352 236.442 199.697 229.159 217.758C229.159 217.758 286.272 187.976 296.451 178.327C306.623 168.677 317.956 151.778 318.705 135.688C319.455 119.589 312.896 114.006 318.032 101.764C323.168 89.5209 326.022 85.0499 328.616 80.0063C331.209 74.9627 330.637 73.4556 330.637 73.4556V73.464Z" fill="white"/>
</g>
<path d="M229.824 216.082C247.859 193.079 263.95 168.56 277.734 142.786C282.946 133.145 287.972 123.353 293.908 114.116C303.794 98.5812 319.008 87.5258 330.645 73.4644C326.039 79.1479 320.92 84.3851 315.817 89.6139C308.214 97.4698 300.19 105.065 294.498 114.478C288.638 123.749 283.636 133.499 278.475 143.165C264.666 168.964 248.407 193.458 229.832 216.074L229.824 216.082Z" fill="#06382F"/>
<path d="M258.477 176.197C269.81 161.344 290.338 161.782 306.816 157.143C309.25 156.486 311.633 155.669 313.973 154.718C311.708 155.846 309.334 156.739 306.934 157.538C290.566 162.793 270.543 162.178 258.477 176.197Z" fill="#06382F"/>
<path d="M272.404 154.119C273.995 147.442 275.57 140.715 275.738 133.836C275.957 127.891 274.955 121.568 277.464 115.901C277.81 115.11 278.163 114.318 278.525 113.543C277.271 116.76 276.462 120.128 276.395 123.53C276.353 126.931 276.707 130.392 276.58 133.861C276.328 140.799 274.652 147.577 272.404 154.119Z" fill="#06382F"/>
<path d="M287.947 125.332C290.212 119.673 296.005 116.305 301.495 114.318C305.688 112.853 309.881 111.43 313.418 108.702C314.596 107.818 315.666 106.799 316.701 105.738C315.792 106.909 314.773 108.003 313.653 108.997C310.26 111.961 305.949 113.636 301.781 115.101C296.359 117.164 290.86 120.086 287.947 125.34V125.332Z" fill="#06382F"/>
<path d="M245.325 195.436C249.611 180.769 240.997 165.84 244.433 151.088C244.719 150.128 245.014 149.177 245.317 148.234C240.879 163.819 251.034 180.011 245.317 195.436H245.325Z" fill="#06382F"/>
<path d="M218.263 246.394C221.833 211.317 218.92 175.582 209.742 141.532L207.831 134.737L209.953 141.473C219.964 175.33 222.928 211.392 218.263 246.394Z" fill="#06382F"/>
<path d="M188.002 0C187.396 8.69786 181.224 17.8083 179.439 26.3462C175.911 43.1862 178.824 44.4071 179.885 61.5839C180.584 72.9172 173.924 95.1797 183.346 110.698C193.121 126.814 209.734 143.233 213.304 161.731L215.358 161.512C215.358 161.512 233.571 104.543 233.983 91.5254C234.388 78.5081 230.826 59.9588 220.798 48.8528C210.778 37.7469 202.796 38.3531 198.19 26.9187C193.576 15.4844 192.54 10.6681 190.957 5.64982C189.374 0.631501 188.01 0.00842019 188.01 0.00842019L188.002 0Z" fill="#06382F"/>
<g opacity="0.2">
<path d="M188.002 0C187.396 8.69786 181.224 17.8083 179.439 26.3462C175.911 43.1862 178.824 44.4071 179.885 61.5839C180.584 72.9172 173.924 95.1797 183.346 110.698C193.121 126.814 209.734 143.233 213.304 161.731L215.358 161.512C215.358 161.512 233.571 104.543 233.983 91.5254C234.388 78.5081 230.826 59.9588 220.798 48.8528C210.778 37.7469 202.796 38.3531 198.19 26.9187C193.576 15.4844 192.54 10.6681 190.957 5.64982C189.374 0.631501 188.01 0.00842019 188.01 0.00842019L188.002 0Z" fill="white"/>
</g>
<path d="M214.095 161.647C220.351 135.031 215.67 106.631 205.431 81.6063C197.079 62.9139 190.848 43.0006 189.366 22.4811C188.869 15.6609 188.869 8.80702 189.341 1.98682C188.675 15.6272 189.955 29.3266 192.97 42.6302C195.933 55.959 200.657 68.8164 206.197 81.278C216.436 106.429 220.983 135.048 214.095 161.647Z" fill="#06382F"/>
<path d="M207.671 86.9281C204.614 71.3342 217.051 56.9865 213.472 41.3843C214.087 43.2283 214.398 45.1649 214.525 47.1099C215.232 60.8345 206.071 73.1445 207.671 86.9281Z" fill="#06382F"/>
<path d="M215.872 121.762C214.213 114.226 210.256 106.875 203.73 102.598C201.583 101.2 199.133 100.333 196.708 99.3478C191.681 97.5459 187.53 93.7569 185.164 88.9744C182.697 84.3097 181.215 79.2577 179.851 74.231C180.702 76.698 181.518 79.1735 182.478 81.5985C185.24 88.9575 189.155 95.9293 197.028 98.5732C200.632 99.9962 204.446 101.596 207.258 104.433C212.007 108.997 214.904 115.312 215.88 121.77L215.872 121.762Z" fill="#06382F"/>
<path d="M217.026 132.371C219.922 122.646 223.543 113.14 227.138 103.667C230.658 94.2283 232.754 84.1074 232.384 74.0034C233.436 84.1411 231.398 94.4388 227.929 103.962L222.431 118.149C221.076 121.677 218.364 128.826 217.034 132.371H217.026Z" fill="#06382F"/>
<path d="M210.719 273.145C226.431 253.619 248.761 239.499 273.019 233.301L277.902 232.19L273.077 233.512C249.114 240.526 227.231 254.402 210.719 273.145Z" fill="#06382F"/>
<path d="M349.851 217.767C345.363 219.939 341.844 225.143 337.693 227.913C329.508 233.361 328.237 232.081 318.908 235.171C312.744 237.209 302.354 245.477 292.115 243.776C281.489 242.016 269.246 236.695 258.671 238.733L258.351 237.596C258.351 237.596 284.697 215.822 291.517 212.841C298.337 209.86 308.938 207.806 316.954 210.761C324.978 213.717 326.351 218.078 333.398 218.095C340.446 218.112 343.225 217.641 346.222 217.413C349.22 217.186 349.843 217.775 349.843 217.775L349.851 217.767Z" fill="#06382F"/>
<g opacity="0.2">
<path d="M349.851 217.767C345.363 219.939 341.844 225.143 337.693 227.913C329.508 233.361 328.237 232.081 318.908 235.171C312.744 237.209 302.354 245.477 292.115 243.776C281.489 242.016 269.246 236.695 258.671 238.733L258.351 237.596C258.351 237.596 284.697 215.822 291.517 212.841C298.337 209.86 308.938 207.806 316.954 210.761C324.978 213.717 326.351 218.078 333.398 218.095C340.446 218.112 343.225 217.641 346.222 217.413C349.22 217.186 349.843 217.775 349.843 217.775L349.851 217.767Z" fill="white"/>
</g>
<path d="M258.679 238.724C271.225 229.285 287.307 225.193 302.876 225.226C306.791 225.311 310.664 225.403 314.554 225.21C326.225 224.704 337.81 222.271 348.512 217.472C345.026 219.223 341.381 220.68 337.667 221.901C326.477 225.546 314.554 226.473 302.859 226.052C287.408 225.942 271.503 229.883 258.679 238.715V238.724Z" fill="#06382F"/>
<path d="M299.558 225.808C307.128 223.509 311.675 216.049 319.194 213.624C320.272 213.304 321.375 213.068 322.486 213.043C313.536 214.71 308.576 224.343 299.558 225.808Z" fill="#06382F"/>
<path d="M279.333 228.864C285.362 227.239 291.795 228.872 295.778 233.807C298.733 237.318 303.389 238.025 307.743 237.949C309.224 237.974 310.715 237.899 312.214 237.865C309.267 238.286 306.269 238.606 303.246 238.32C300.19 238.134 297.192 236.686 295.18 234.388C294.136 233.31 293.159 232.207 291.989 231.373C288.368 228.805 283.703 228.249 279.342 228.856L279.333 228.864Z" fill="#06382F"/>
<path d="M273.456 230.506C276.597 227.517 282.929 221.522 286.086 218.55C290.397 214.668 295.5 211.427 301.15 209.953C290.069 214.012 282.752 223.737 273.448 230.506H273.456Z" fill="#06382F"/>
<path d="M207.578 284.588C191.067 265.845 169.183 251.977 145.22 244.955L140.395 243.633L145.279 244.744C169.545 250.941 191.867 265.062 207.578 284.588Z" fill="#06382F"/>
<path d="M68.4547 229.201C72.9425 231.373 76.4621 236.577 80.6131 239.347C88.7974 244.795 90.0688 243.515 99.3982 246.605C105.562 248.643 115.952 256.911 126.191 255.21C136.817 253.451 149.059 248.129 159.635 250.167L159.955 249.03C159.955 249.03 133.609 227.256 126.788 224.275C119.968 221.295 109.367 219.24 101.352 222.196C93.3273 225.151 91.9549 229.512 84.9073 229.529C77.8598 229.546 75.0812 229.075 72.0837 228.847C69.0861 228.62 68.4631 229.209 68.4631 229.209L68.4547 229.201Z" fill="#06382F"/>
<g opacity="0.1">
<path d="M68.4547 229.201C72.9425 231.373 76.4621 236.577 80.6131 239.347C88.7974 244.795 90.0688 243.515 99.3982 246.605C105.562 248.643 115.952 256.911 126.191 255.21C136.817 253.451 149.059 248.129 159.635 250.167L159.955 249.03C159.955 249.03 133.609 227.256 126.788 224.275C119.968 221.295 109.367 219.24 101.352 222.196C93.3273 225.151 91.9549 229.512 84.9073 229.529C77.8598 229.546 75.0812 229.075 72.0837 228.847C69.0861 228.62 68.4631 229.209 68.4631 229.209L68.4547 229.201Z" fill="white"/>
</g>
<path d="M159.626 250.167C146.803 241.334 130.897 237.394 115.447 237.503C103.751 237.924 91.8285 236.998 80.6384 233.352C76.9167 232.131 73.2793 230.675 69.7934 228.923C80.4952 233.723 92.0811 236.156 103.751 236.661C107.641 236.855 111.523 236.762 115.43 236.678C130.998 236.644 147.081 240.737 159.626 250.175V250.167Z" fill="#06382F"/>
<path d="M118.747 237.25C109.729 235.785 104.77 226.161 95.8196 224.485C96.931 224.511 98.034 224.746 99.1118 225.066C106.631 227.491 111.178 234.951 118.747 237.25Z" fill="#06382F"/>
<path d="M138.964 240.298C134.611 239.684 129.937 240.248 126.317 242.816C125.147 243.649 124.17 244.752 123.126 245.83C121.113 248.12 118.107 249.569 115.059 249.762C112.037 250.049 109.047 249.729 106.092 249.308C107.582 249.341 109.073 249.417 110.563 249.392C114.916 249.459 119.572 248.76 122.528 245.249C126.502 240.324 132.943 238.682 138.972 240.307L138.964 240.298Z" fill="#06382F"/>
<path d="M144.841 241.949C135.537 235.18 128.228 225.454 117.139 221.396C122.789 222.869 127.891 226.111 132.202 229.993C135.36 232.957 141.7 238.96 144.832 241.949H144.841Z" fill="#06382F"/>
<path d="M351.183 276.948C361.917 274.066 368.743 264.743 366.428 256.125C364.114 247.506 353.537 242.856 342.803 245.738C332.069 248.62 325.244 257.943 327.558 266.562C329.872 275.18 340.449 279.831 351.183 276.948Z" fill="#D8501C"/>
<path opacity="0.7" d="M351.183 276.948C361.917 274.066 368.743 264.743 366.428 256.125C364.114 247.506 353.537 242.856 342.803 245.738C332.069 248.62 325.244 257.943 327.558 266.562C329.872 275.18 340.449 279.831 351.183 276.948Z" fill="white"/>
<path opacity="0.1" d="M356.789 249.729C357.614 252.802 353.901 256.465 348.487 257.921C343.073 259.378 338.021 258.064 337.196 254.991C336.371 251.918 340.084 248.255 345.498 246.798C350.912 245.342 355.964 246.655 356.789 249.729Z" fill="white"/>
<path opacity="0.1" d="M354.33 249.797C354.692 251.144 353.059 252.752 350.693 253.384C348.327 254.015 346.104 253.443 345.742 252.104C345.38 250.757 347.013 249.148 349.379 248.517C351.754 247.877 353.968 248.458 354.33 249.797Z" fill="white"/>
<g opacity="0.3">
<path d="M354.827 272.345C350.802 275.376 345.271 276.294 340.48 274.736C335.689 273.179 331.765 269.179 330.283 264.363C330.283 264.363 333.929 270.863 341.507 272.69C348.874 274.467 354.827 272.353 354.827 272.353V272.345Z" fill="white"/>
</g>
<path d="M361.597 254.713C361.833 257.105 362.523 258.999 363.879 260.986C361.673 259.967 360.561 256.911 361.597 254.713Z" fill="#06382F"/>
<path d="M170.932 122.655C176.889 116.011 175.011 104.61 166.736 97.1908C158.461 89.7714 146.923 89.1429 140.966 95.787C135.009 102.431 136.887 113.832 145.162 121.251C153.437 128.671 164.975 129.299 170.932 122.655Z" fill="#D8501C"/>
<path opacity="0.7" d="M170.932 122.655C176.889 116.011 175.011 104.61 166.736 97.1908C158.461 89.7714 146.923 89.1429 140.966 95.787C135.009 102.431 136.887 113.832 145.162 121.251C153.437 128.671 164.975 129.299 170.932 122.655Z" fill="white"/>
<path opacity="0.1" d="M140.9 107.338C143.022 104.972 148.125 106.084 152.301 109.822C156.469 113.561 158.136 118.512 156.006 120.878C153.884 123.244 148.781 122.132 144.605 118.394C140.437 114.655 138.77 109.704 140.9 107.338Z" fill="white"/>
<path opacity="0.1" d="M142.306 109.359C143.233 108.324 145.472 108.812 147.299 110.445C149.127 112.087 149.851 114.251 148.924 115.295C147.998 116.331 145.759 115.843 143.931 114.209C142.104 112.567 141.38 110.403 142.306 109.359Z" fill="white"/>
<g opacity="0.3">
<path d="M160.923 96.6367C165.655 98.3628 169.444 102.489 170.758 107.355C172.063 112.222 170.859 117.695 167.634 121.56C167.634 121.56 171.094 114.959 168.484 107.616C165.95 100.476 160.931 96.6451 160.931 96.6451L160.923 96.6367Z" fill="white"/>
</g>
<path d="M142.458 100.594C144.327 99.0949 145.548 97.4698 146.466 95.2554C146.82 97.6635 144.866 100.257 142.458 100.594Z" fill="#06382F"/>
<path d="M257.113 99.2212C262.847 101.166 265.533 108.542 263.1 115.691C260.675 122.839 254.057 127.049 248.323 125.096C242.588 123.142 239.902 115.775 242.336 108.626C244.761 101.478 251.379 97.2678 257.113 99.2212Z" fill="#D8501C"/>
<path opacity="0.7" d="M257.113 99.2212C262.847 101.166 265.533 108.542 263.1 115.691C260.675 122.839 254.057 127.049 248.323 125.096C242.588 123.142 239.902 115.775 242.336 108.626C244.761 101.478 251.379 97.2678 257.113 99.2212Z" fill="white"/>
<path opacity="0.1" d="M249.88 102.261C251.926 102.951 252.592 106.437 251.362 110.041C250.141 113.645 247.489 116.002 245.443 115.303C243.397 114.605 242.732 111.127 243.961 107.523C245.182 103.92 247.834 101.562 249.88 102.261Z" fill="white"/>
<path opacity="0.1" d="M248.996 103.675C249.889 103.978 250.183 105.502 249.645 107.085C249.106 108.66 247.944 109.695 247.051 109.392C246.159 109.089 245.864 107.565 246.403 105.982C246.942 104.399 248.104 103.372 248.996 103.675Z" fill="white"/>
<g opacity="0.3">
<path d="M261.904 111.911C262.089 115.329 260.523 118.79 257.829 120.903C255.134 123.017 251.404 123.724 248.129 122.739C248.129 122.739 253.173 123.135 257.063 119.548C260.843 116.062 261.904 111.911 261.904 111.911Z" fill="white"/>
</g>
<path d="M254.511 101.436C256.086 102.05 257.231 102.328 258.907 102.513C257.551 103.574 255.219 102.993 254.511 101.436Z" fill="#06382F"/>
<path d="M117.798 314.978C130.244 314.434 139.98 305.896 139.544 295.908C139.108 285.919 128.665 278.263 116.218 278.806C103.772 279.35 94.0362 287.887 94.4723 297.876C94.9084 307.864 105.352 315.521 117.798 314.978Z" fill="#D8501C"/>
<path opacity="0.7" d="M117.798 314.978C130.244 314.434 139.98 305.896 139.544 295.908C139.108 285.919 128.665 278.263 116.218 278.806C103.772 279.35 94.0362 287.887 94.4723 297.876C94.9084 307.864 105.352 315.521 117.798 314.978Z" fill="white"/>
<path opacity="0.1" d="M114.282 293.768C120.553 293.494 125.512 290.387 125.356 286.828C125.201 283.27 119.991 280.607 113.719 280.881C107.447 281.154 102.489 284.261 102.644 287.82C102.8 291.379 108.01 294.042 114.282 293.768Z" fill="white"/>
<path opacity="0.1" d="M105.275 287.08C105.343 288.637 107.624 289.808 110.378 289.69C113.123 289.572 115.295 288.208 115.228 286.65C115.16 285.092 112.878 283.922 110.125 284.04C107.38 284.158 105.208 285.522 105.275 287.08Z" fill="white"/>
<g opacity="0.3">
<path d="M112.357 311.338C117.686 313.215 123.9 312.331 128.498 309.047C133.095 305.764 135.941 300.164 135.89 294.523C135.89 294.523 134.19 302.699 126.704 307.203C119.429 311.582 112.357 311.338 112.357 311.338Z" fill="white"/>
</g>
<path d="M99.1792 294.775C100.956 296.813 100.804 300.375 98.8593 302.244C99.7013 299.71 99.8107 297.369 99.1792 294.775Z" fill="#06382F"/>
<path d="M109.808 196.932C112.981 192.347 110.923 185.426 105.21 181.471C99.4978 177.517 92.2945 178.029 89.1212 182.613C85.9479 187.198 88.0063 194.119 93.7188 198.073C99.4313 202.028 106.635 201.516 109.808 196.932Z" fill="#D8501C"/>
<path opacity="0.7" d="M109.808 196.932C112.981 192.347 110.923 185.426 105.21 181.471C99.4978 177.517 92.2945 178.029 89.1212 182.613C85.9479 187.198 88.0063 194.119 93.7188 198.073C99.4313 202.028 106.635 201.516 109.808 196.932Z" fill="white"/>
<path opacity="0.1" d="M89.9929 189.77C91.1212 188.137 94.3797 188.423 97.2594 190.419C100.139 192.414 101.554 195.353 100.425 196.986C99.297 198.62 96.0385 198.333 93.1588 196.338C90.2792 194.342 88.8646 191.404 89.9929 189.77Z" fill="white"/>
<path opacity="0.1" d="M91.0201 190.907C91.5169 190.192 92.9399 190.318 94.2029 191.194C95.4659 192.069 96.089 193.358 95.5922 194.073C95.0954 194.789 93.6724 194.663 92.4094 193.787C91.1464 192.911 90.5233 191.623 91.0201 190.907Z" fill="white"/>
<g opacity="0.3">
<path d="M101.57 181.562C104.644 182.26 107.313 184.525 108.509 187.439C109.704 190.352 109.384 193.846 107.683 196.49C107.683 196.49 109.308 192.12 107.119 187.775C104.989 183.54 101.579 181.562 101.579 181.562H101.57Z" fill="white"/>
</g>
<path d="M90.4223 185.459C91.3401 184.18 91.8537 183.279 92.4936 181.839C93.142 183.304 92.0137 185.274 90.4223 185.459Z" fill="#06382F"/>
<path d="M267.082 173.991C267.225 174.302 280.672 204.362 250.394 224.359C216.857 246.512 198.417 218.912 198.417 218.912L267.082 173.982V173.991Z" fill="#D8501C"/>
<path opacity="0.3" d="M267.082 173.991C267.225 174.302 280.672 204.362 250.394 224.359C216.857 246.512 198.417 218.912 198.417 218.912L267.082 173.982V173.991Z" fill="black"/>
<path d="M262.477 168.173C262.477 168.173 277.405 176.804 258.511 201.019C239.616 225.235 217.968 229.302 206.601 224.528C195.234 219.754 198.03 214.146 198.03 214.146C198.03 214.146 194.738 213.077 194.906 204.489C195.074 195.9 200.91 177.62 223.517 165.394C243.54 154.575 259.866 157.859 262.477 168.165V168.173Z" fill="#D8501C"/>
<path opacity="0.3" d="M262.477 167.912C257.324 178.791 247.329 187.16 235.465 188.903C232.038 189.408 228.527 189.484 225.041 190.133C221.438 190.781 217.91 192.246 214.878 194.301C211.881 196.288 209.22 198.923 207.014 201.719C203.722 205.844 200.682 210.155 197.87 214.618C201.507 210.812 204.951 206.888 208.605 203.125C212.007 199.462 216.192 196.271 220.848 194.528C227.214 192.052 234.75 193.147 241.267 190.688C251.404 187.169 259.866 178.235 262.485 167.904L262.477 167.912Z" fill="black"/>
<g opacity="0.3">
<path d="M206.82 215.897L206.804 215.881C205.903 215.106 205.97 213.472 206.879 212.243C209.877 208.193 214.121 204.168 218.078 201.971C219.206 201.348 220.41 200.792 221.547 201.002C221.968 201.078 222.347 201.289 222.608 201.625C223.467 202.72 222.81 204.404 222.086 205.793C220.671 208.547 218.903 211.199 216.672 213.253C214.432 215.3 211.679 216.689 209.144 216.638C208.286 216.621 207.444 216.428 206.82 215.897Z" fill="white"/>
</g>
<path opacity="0.3" d="M198.291 208.597C198.064 197.079 203.393 185.745 212.176 178.336C213.43 177.292 214.727 176.306 216.074 175.389C215.459 175.928 214.845 176.458 214.222 176.98C205.01 184.954 199.133 196.422 198.283 208.606L198.291 208.597Z" fill="white"/>
<path opacity="0.3" d="M220.638 172.425C222.136 170.834 223.947 169.722 226.052 169.125C224.553 170.716 222.743 171.819 220.638 172.425Z" fill="white"/>
<path opacity="0.3" d="M232.055 195.496C240.879 195.622 249.619 192.06 255.842 185.821C256.625 185.038 257.677 183.842 258.376 183C258.031 183.531 257.686 184.061 257.324 184.592L256.145 186.099L254.84 187.505C248.996 193.424 240.332 196.599 232.047 195.487L232.055 195.496Z" fill="white"/>
<path d="M203.284 238.792C203.301 239.078 204.859 266.392 175.405 273.448C142.786 281.262 136.615 254.461 136.615 254.461L203.284 238.792Z" fill="#D8501C"/>
<path opacity="0.3" d="M203.284 238.792C203.301 239.078 204.859 266.392 175.405 273.448C142.786 281.262 136.615 254.461 136.615 254.461L203.284 238.792Z" fill="black"/>
<path d="M201.019 233.545C201.019 233.545 210.129 244.567 188.448 257.93C166.766 271.292 148.773 268.202 141.321 261.214C133.87 254.225 137.659 250.672 137.659 250.672C137.659 250.672 135.41 248.895 138.021 242.269C140.631 235.642 150.44 223.121 171.549 220.149C190.233 217.522 201.979 224.789 201.019 233.554V233.545Z" fill="#D8501C"/>
<path opacity="0.3" d="M201.55 233.352C194.367 240.357 184.112 243.978 174.311 241.873C171.482 241.266 168.703 240.298 165.79 239.784C162.775 239.237 159.593 239.347 156.62 240.071C153.69 240.744 150.853 242.033 148.31 243.573C144.538 245.838 140.909 248.322 137.406 250.991C141.355 249.08 145.195 247.017 149.143 245.14C152.874 243.27 157.067 241.999 161.226 241.999C166.927 241.923 172.517 244.988 178.336 244.971C187.303 245.182 196.514 240.669 201.558 233.352H201.55Z" fill="black"/>
<g opacity="0.3">
<path d="M149.539 233.495C149.868 232.737 150.566 232.299 151.248 231.887C158.532 227.508 166.32 223.652 174.631 222.473C181.316 221.522 188.414 222.524 193.938 225.959C197.457 228.148 197.601 233.369 194.039 235.785C193.921 235.861 193.803 235.937 193.685 236.013C188.945 238.842 183.017 237.831 177.94 236.13C172.863 234.43 167.777 232.097 162.354 232.552C158.717 232.855 155.265 234.413 151.678 235.187C150.937 235.347 150.053 235.44 149.615 234.792C149.354 234.421 149.362 233.924 149.548 233.495H149.539Z" fill="white"/>
</g>
<g opacity="0.3">
<path d="M144.319 237.133L144.529 237.007C145.506 236.535 146.853 237.394 146.828 238.48C146.803 239.566 145.43 240.375 144.47 239.853C143.511 239.339 143.426 237.748 144.319 237.125V237.133Z" fill="white"/>
</g>
<g opacity="0.3">
<path d="M141.178 256.515L141.153 256.49C140.134 255.185 140.412 253.299 141.692 252.255C145.919 248.802 151.695 245.914 156.89 245.056C158.372 244.811 159.929 244.677 161.319 245.426C161.832 245.704 162.279 246.108 162.565 246.613C163.5 248.264 162.464 249.956 161.403 251.278C159.298 253.897 156.78 256.246 153.749 257.686C150.718 259.117 147.123 259.563 143.974 258.401C142.913 258.006 141.885 257.416 141.178 256.532V256.515Z" fill="white"/>
</g>
<path opacity="0.3" d="M174.622 260.625C184.112 257.72 192.616 251.851 198.628 243.953C199.386 242.968 200.404 241.495 201.078 240.467C200.75 241.099 200.421 241.73 200.076 242.362C194.696 251.657 185.189 258.604 174.614 260.625H174.622Z" fill="white"/>
<path d="M236.56 299.55C236.56 299.836 237.023 326.881 207.629 332.691C175.086 339.115 170.05 312.39 170.05 312.39L236.56 299.558V299.55Z" fill="#D8501C"/>
<path opacity="0.3" d="M236.56 299.55C236.56 299.836 237.023 326.881 207.629 332.691C175.086 339.115 170.05 312.39 170.05 312.39L236.56 299.558V299.55Z" fill="black"/>
<path d="M234.531 294.279C234.531 294.279 243.094 305.528 221.143 317.872C199.192 330.216 181.527 326.443 174.437 319.236C167.347 312.028 171.238 308.677 171.238 308.677C171.238 308.677 169.09 306.833 171.928 300.383C174.774 293.934 184.962 281.952 205.936 279.864C224.511 278.012 235.819 285.657 234.531 294.279Z" fill="#D8501C"/>
<path opacity="0.3" d="M235.053 294.111C227.677 300.746 217.396 303.92 207.797 301.453C205.027 300.738 202.316 299.677 199.453 299.045C196.498 298.38 193.34 298.371 190.376 298.961C187.455 299.508 184.6 300.67 182.024 302.093C178.201 304.181 174.513 306.488 170.96 308.989C174.942 307.255 178.816 305.369 182.79 303.676C186.545 301.975 190.747 300.889 194.847 301.049C200.489 301.201 205.886 304.451 211.637 304.661C220.486 305.225 229.773 301.133 235.044 294.103L235.053 294.111Z" fill="black"/>
<g opacity="0.3">
<path d="M183.657 292.174C184.011 291.442 184.726 291.029 185.408 290.659C192.776 286.626 200.632 283.123 208.892 282.281C215.535 281.607 222.507 282.879 227.828 286.491C231.222 288.79 231.154 293.951 227.534 296.208C227.416 296.283 227.298 296.351 227.172 296.418C222.372 299.02 216.554 297.791 211.611 295.904C206.66 294.018 201.726 291.518 196.354 291.753C192.751 291.913 189.273 293.311 185.695 293.934C184.962 294.06 184.078 294.119 183.665 293.463C183.43 293.084 183.446 292.595 183.649 292.174H183.657Z" fill="white"/>
</g>
<g opacity="0.3">
<path d="M178.352 295.568L178.563 295.459C179.548 295.029 180.845 295.93 180.777 297.008C180.71 298.086 179.321 298.818 178.395 298.271C177.468 297.723 177.443 296.149 178.352 295.568Z" fill="white"/>
</g>
<g opacity="0.3">
<path d="M174.471 314.597L174.454 314.572C173.494 313.241 173.848 311.389 175.161 310.404C179.472 307.162 185.299 304.535 190.469 303.887C191.942 303.702 193.492 303.634 194.83 304.426C195.327 304.72 195.748 305.133 196.018 305.647C196.876 307.314 195.79 308.947 194.687 310.21C192.506 312.711 189.921 314.934 186.865 316.23C183.809 317.527 180.238 317.822 177.174 316.542C176.138 316.113 175.153 315.49 174.488 314.58L174.471 314.597Z" fill="white"/>
</g>
<path opacity="0.3" d="M207.368 319.985C216.857 317.493 225.496 312.02 231.752 304.467C232.544 303.524 233.605 302.109 234.32 301.116C233.975 301.73 233.621 302.345 233.259 302.951C227.584 311.927 217.901 318.419 207.368 319.985Z" fill="white"/>
<path d="M172.745 196.995C172.618 197.13 160.51 210.147 143.948 199.496C125.618 187.708 135.41 172.762 135.41 172.762L172.736 196.987L172.745 196.995Z" fill="#D8501C"/>
<path opacity="0.3" d="M172.745 196.995C172.618 197.13 160.51 210.147 143.948 199.496C125.618 187.708 135.41 172.762 135.41 172.762L172.736 196.987L172.745 196.995Z" fill="black"/>
<path d="M174.185 193.576C174.185 193.576 173.115 202.804 157.1 198.645C141.086 194.485 134.442 184.651 134.375 178.016C134.299 171.373 137.675 171.558 137.675 171.558C137.675 171.558 137.499 169.705 141.784 167.946C146.07 166.186 156.351 165.159 167.23 173.73C176.862 181.317 178.731 190.09 174.193 193.584L174.185 193.576Z" fill="#D8501C"/>
<path opacity="0.3" d="M174.513 193.736C167.996 193.517 161.689 190.334 158.271 184.794C157.286 183.194 156.486 181.451 155.416 179.852C154.322 178.193 152.831 176.745 151.156 175.675C149.522 174.606 147.645 173.848 145.775 173.351C143.014 172.602 140.218 172.013 137.398 171.575C140.067 172.568 142.761 173.436 145.422 174.454C147.973 175.364 150.457 176.761 152.326 178.706C154.928 181.35 156.006 185.35 158.624 188.069C162.557 192.372 168.821 194.662 174.513 193.736Z" fill="black"/>
<g opacity="0.3">
<path d="M151.063 169.403C151.56 169.217 152.09 169.352 152.587 169.487C157.909 170.935 163.23 172.855 167.516 176.223C170.968 178.926 173.688 182.715 174.563 186.84C175.119 189.476 172.736 191.892 170 191.303C169.907 191.286 169.823 191.261 169.73 191.236C166.278 190.284 164.081 187.051 162.599 183.902C161.117 180.753 159.921 177.317 157.269 174.985C155.492 173.419 153.21 172.493 151.232 171.162C150.827 170.885 150.381 170.514 150.482 170.017C150.541 169.731 150.777 169.504 151.063 169.403Z" fill="white"/>
</g>
<g opacity="0.3">
<path d="M147.013 168.585L147.165 168.627C147.83 168.871 148.032 169.89 147.51 170.37C146.988 170.85 145.994 170.564 145.801 169.882C145.615 169.2 146.314 168.442 147.013 168.585Z" fill="white"/>
</g>
<g opacity="0.3">
<path d="M136.505 175.827V175.801C136.657 174.741 137.675 174.025 138.736 174.151C142.256 174.581 146.205 175.995 148.95 178.041C149.733 178.622 150.499 179.296 150.769 180.281C150.87 180.643 150.878 181.039 150.769 181.401C150.415 182.58 149.16 182.857 148.057 182.95C145.885 183.144 143.645 183.017 141.608 182.234C139.57 181.46 137.743 179.969 136.876 177.965C136.581 177.292 136.396 176.542 136.497 175.81L136.505 175.827Z" fill="white"/>
</g>
<path opacity="0.3" d="M149.623 193.365C155.324 196.337 161.824 197.676 168.223 197.062C169.031 196.994 170.177 196.834 170.976 196.716C170.539 196.868 170.092 197.003 169.646 197.137C162.885 198.956 155.231 197.6 149.623 193.365Z" fill="white"/>
<path d="M294.018 208.976C294.136 209.085 305.604 219.509 319.219 209.06C334.291 197.482 324.692 185.214 324.692 185.214L294.018 208.976Z" fill="#D8501C"/>
<path opacity="0.3" d="M294.018 208.976C294.136 209.085 305.604 219.509 319.219 209.06C334.291 197.482 324.692 185.214 324.692 185.214L294.018 208.976Z" fill="black"/>
<path d="M292.519 206.105C292.519 206.105 294.119 214.045 307.734 209.262C321.349 204.48 326.401 195.462 325.98 189.686C325.559 183.91 322.646 184.314 322.646 184.314C322.646 184.314 322.663 182.689 318.815 181.476C314.967 180.264 305.958 180.121 297.125 188.347C289.303 195.639 288.318 203.394 292.511 206.105H292.519Z" fill="#D8501C"/>
<path opacity="0.3" d="M292.25 206.273C297.9 205.608 303.145 202.383 305.713 197.323C306.454 195.858 307.018 194.291 307.835 192.826C308.669 191.302 309.856 189.938 311.228 188.894C312.567 187.85 314.15 187.05 315.733 186.486C318.074 185.636 320.465 184.92 322.882 184.331C320.634 185.383 318.352 186.343 316.12 187.412C313.965 188.389 311.91 189.778 310.428 191.605C308.366 194.089 307.717 197.643 305.637 200.194C302.531 204.219 297.26 206.66 292.241 206.273H292.25Z" fill="black"/>
<g opacity="0.3">
<path d="M310.85 183.421C310.403 183.295 309.957 183.446 309.536 183.598C305.015 185.24 300.535 187.294 297.049 190.536C294.245 193.138 292.157 196.624 291.694 200.278C291.399 202.61 293.648 204.53 295.98 203.823C296.056 203.797 296.131 203.772 296.207 203.747C299.137 202.669 300.813 199.697 301.874 196.859C302.935 194.022 303.726 190.949 305.857 188.726C307.288 187.235 309.208 186.267 310.824 184.962C311.161 184.692 311.515 184.339 311.388 183.909C311.313 183.665 311.094 183.488 310.841 183.413L310.85 183.421Z" fill="white"/>
</g>
<g opacity="0.3">
<path d="M314.319 182.419L314.192 182.47C313.637 182.731 313.536 183.632 314.024 184.011C314.512 184.39 315.354 184.07 315.472 183.463C315.59 182.857 314.916 182.251 314.327 182.428L314.319 182.419Z" fill="white"/>
</g>
<g opacity="0.3">
<path d="M323.976 187.951V187.934C323.766 187.025 322.831 186.469 321.913 186.663C318.891 187.294 315.556 188.81 313.325 190.789C312.685 191.353 312.071 191.993 311.911 192.868C311.852 193.188 311.868 193.534 311.986 193.837C312.382 194.839 313.493 194.982 314.453 194.99C316.356 194.99 318.293 194.729 320.002 193.904C321.72 193.079 323.193 191.656 323.8 189.854C324.01 189.248 324.111 188.583 323.976 187.96V187.951Z" fill="white"/>
</g>
<path opacity="0.3" d="M313.855 204.143C309.073 208.529 301.806 210.306 295.542 208.605C302.017 209.077 308.324 207.544 313.855 204.143Z" fill="white"/>
<path d="M241.662 246.689C241.561 246.967 232.19 274.029 259.841 289.547C290.456 306.732 304.324 281.506 304.324 281.506L241.671 246.689H241.662Z" fill="#D8501C"/>
<path opacity="0.3" d="M241.662 246.689C241.561 246.967 232.19 274.029 259.841 289.547C290.456 306.732 304.324 281.506 304.324 281.506L241.671 246.689H241.662Z" fill="black"/>
<path d="M245.443 242.058C245.443 242.058 233.125 250.554 251.135 270.198C269.145 289.85 288.149 291.871 297.655 286.962C307.162 282.053 304.358 277.397 304.358 277.397C304.358 277.397 307.128 276.252 306.395 268.826C305.663 261.408 299.356 245.999 278.955 236.981C260.885 228.999 246.992 232.965 245.451 242.058H245.443Z" fill="#D8501C"/>
<path opacity="0.3" d="M244.972 241.713C250.209 250.816 259.496 257.392 269.971 258.074C272.993 258.267 276.067 258.09 279.148 258.402C282.34 258.713 285.514 259.732 288.301 261.307C291.054 262.822 293.555 264.927 295.668 267.209C298.817 270.569 301.773 274.105 304.526 277.793C301.099 274.737 297.824 271.562 294.372 268.548C291.155 265.601 287.29 263.117 283.106 261.93C277.38 260.229 270.88 261.711 265.028 260.035C255.943 257.686 247.952 250.512 244.963 241.705L244.972 241.713Z" fill="black"/>
<g opacity="0.3">
<path d="M297.302 256.701C297.192 255.85 296.603 255.202 296.039 254.596C289.96 248.112 283.215 241.999 275.182 238.438C268.724 235.575 261.289 234.556 254.747 236.434C250.571 237.629 248.946 242.841 251.842 246.302C251.935 246.411 252.036 246.529 252.137 246.63C256.103 250.832 262.359 251.506 267.958 251.245C273.557 250.984 279.342 250.083 284.672 252.095C288.25 253.442 291.282 255.993 294.666 257.804C295.365 258.174 296.232 258.519 296.856 257.997C297.218 257.694 297.361 257.197 297.302 256.709V256.701Z" fill="white"/>
</g>
<g opacity="0.3">
<path d="M301.512 261.854L301.335 261.668C300.485 260.91 298.885 261.39 298.599 262.493C298.312 263.596 299.466 264.801 300.577 264.548C301.689 264.304 302.236 262.729 301.512 261.845V261.854Z" fill="white"/>
</g>
<g opacity="0.3">
<path d="M299.146 282.272L299.171 282.255C300.569 281.236 300.83 279.258 299.836 277.835C296.569 273.153 291.576 268.598 286.592 266.24C285.169 265.567 283.636 264.994 282.028 265.348C281.43 265.482 280.866 265.76 280.437 266.19C279.022 267.587 279.578 269.583 280.277 271.216C281.649 274.45 283.51 277.54 286.162 279.855C288.806 282.162 292.3 283.636 295.803 283.366C296.99 283.274 298.186 282.971 299.154 282.28L299.146 282.272Z" fill="white"/>
</g>
<path opacity="0.3" d="M244.172 251.236C247.556 260.22 253.434 268.211 261.062 274.037C262.014 274.77 263.437 275.763 264.422 276.437C263.807 276.117 263.201 275.797 262.595 275.46C253.619 270.231 246.74 261.323 244.172 251.244V251.236Z" fill="white"/>
</svg>
