<?xml version="1.0" encoding="UTF-8"?>
<svg id="Layer_1" data-name="Layer 1" xmlns="http://www.w3.org/2000/svg" viewBox="0 0 466.47 466.58">
  <defs>
    <style>
      .cls-1 {
        fill: #c49a6c;
      }
    </style>
  </defs>
  <path d="M120.83,84.49c72.77-5.08,160.59,44.61,179.47,117.95,8.51,33.04-4,69.89-41.88,73.64-46.73,4.63-46.35-40.46-80.86-52.89-42.74-15.4-51.21,21.77-84.16,36.87-41.06,18.81-79.41-11.95-90.62-51.1-18.66-65.15,60.73-120.46,118.05-124.46ZM117.83,99.5C70.45,103.37.06,153.07,17.58,207.16c7.82,24.13,21.57,33,46.73,23.81,30.31-11.06,45.79-42.48,78.69-49.31,30.96-6.42,57.73,11.78,77.55,33.52,11.34,12.43,18.23,29.57,35.83,34.17,34.62,9.06,35.85-25.04,28.11-49.11-20.81-64.79-101.31-106.08-166.66-100.74ZM256.03,260.21c-21.26-2.46-28.3-20.14-40.48-34.03-17.67-20.14-42.01-39.8-70.74-33.71-25.24,5.35-41.87,30.8-64.11,42.89-9.92,5.4-21.25,9.55-32.67,9.84,1.05,1.6,4.93,3.16,6.72,3.77,44.57,15.23,61.94-45.34,103.72-44.81,17.01.21,37.68,9.44,49.58,21.51,14.07,14.26,20.04,36.48,44.49,35.52,1.21-.05,3.72.76,3.48-.98Z"/>
  <path d="M316.81.47c31-3.49,72.18,12.76,95.69,32.75,68.42,58.19,73.63,190.07,5,249.94-25.13,21.93-63.11,27.65-83.9-3.04-30.65-45.25,29.26-70.63,5.26-118.26-11.34-22.5-54.51-23.89-74.8-49.2-31.63-39.45,6.22-106.97,52.76-112.2ZM323.83,14.5c-16.69,1.25-30.28,9.55-40.77,22.23-15.41,18.63-10.03,34.05,6.96,48.98,24.74,21.77,61.48,21.9,79.82,52.18,15.03,24.82,10.53,51.71.95,77.55-7.24,19.52-22.39,35.72-12.94,57.44s33.94,12.84,48.2.82c60.71-51.15,60.1-172.34,2-225.03-19.13-17.35-58.17-36.13-84.22-34.18ZM344.04,265.7c-.33-5.48,0-11.45,0-17,0-5.06,12.93-27.99,15.75-35.25,14.81-38.14,13.81-72.32-26.06-92.45-7.56-3.81-16.38-6.32-24.05-9.95-16.07-7.6-34.15-19.25-41.66-35.85-1.74,0-1.09,4.37-1.03,5.54,2.33,44.63,60.03,39.64,80.46,67.54,13.04,17.81,14.5,42.76,7.34,63.16-7.06,20.11-24.16,36-10.73,58.75,2.62-.14.03-3.82-.01-4.49Z"/>
  <path d="M154.81,260.47c24.57-2.79,42.64,8.89,56.44,28,17.67,24.47,17.25,52.32,55.23,53.76s55.38-44.02,97.86-20.85c29.88,16.3,31.98,50.96,15.5,78.12-46.52,76.64-180.4,88.4-245.82,31.21-25.8-22.56-50.8-67.03-48.02-102.05,2.59-32.68,36.82-64.56,68.81-68.19ZM169.54,275.2c-4.45-.6-9.92.43-14.5,0l15.47,10.03c39.39,34.41,38.92,99.85,109.29,78.23,13.54-4.16,52.93-29.26,58.74-29.26h17.5l-9.59-3.92c-21.61-2.89-30.86,11.82-48.04,19.79-19.71,9.15-48.72,9.17-66.71-4.05-23.46-17.25-28.61-66.32-62.17-70.83ZM133.77,284.43c-10.29,1.89-26.38,22.45-29.92,32.08-13.36,36.31,18.68,87.69,47.28,109.1,59.35,44.45,170.48,32.54,213.73-30.1,17.61-25.5,14.87-54.1-22.3-50.3-10.65,1.09-21.49,11.01-30.84,16.16-43.27,23.81-85.74,27.05-114.48-18.86-13.52-21.6-30.19-64.18-63.46-58.08Z"/>
  <path class="cls-1" d="M256.03,260.21c.24,1.74-2.27.94-3.48.98-24.45.95-30.42-21.26-44.49-35.52-11.9-12.06-32.57-21.29-49.58-21.51-41.78-.53-59.16,60.04-103.72,44.81-1.79-.61-5.67-2.16-6.72-3.77,11.42-.28,22.75-4.44,32.67-9.84,22.24-12.1,38.87-37.54,64.11-42.89,28.73-6.09,53.07,13.57,70.74,33.71,12.18,13.88,19.22,31.56,40.48,34.03Z"/>
  <path class="cls-1" d="M344.04,265.7c.04.67,2.63,4.35.01,4.49-13.43-22.74,3.67-38.64,10.73-58.75,7.17-20.4,5.7-45.35-7.34-63.16-20.42-27.9-78.13-22.92-80.46-67.54-.06-1.17-.7-5.54,1.03-5.54,7.51,16.6,25.59,28.25,41.66,35.85,7.67,3.63,16.5,6.13,24.05,9.95,39.87,20.13,40.86,54.31,26.06,92.45-2.82,7.26-15.75,30.19-15.75,35.25,0,5.55-.33,11.52,0,17Z"/>
  <path class="cls-1" d="M169.54,275.2c33.57,4.51,38.71,53.58,62.17,70.83,17.99,13.22,47,13.2,66.71,4.05,17.18-7.98,26.43-22.69,48.04-19.79l9.59,3.92h-17.5c-5.81,0-45.2,25.11-58.74,29.26-70.37,21.62-69.9-43.83-109.29-78.23l-15.47-10.03c4.58.43,10.05-.6,14.5,0Z"/>
</svg>