<?xml version="1.0" encoding="UTF-8"?>
<svg id="Layer_1" data-name="Layer 1" xmlns="http://www.w3.org/2000/svg" viewBox="0 0 414.02 646.81">
  <defs>
    <style>
      .cls-1 {
        fill: #39b54a;
      }

      .cls-2 {
        fill: #fbb040;
      }
    </style>
  </defs>
  <path d="M357.48,99.13c3.33.72,5.95,5.34,6.41,8.59,1.92,13.66-1.67,30.41.61,44.39l46.02,42.98,3.4,5.6.1,394.98-3.32,5.77-105.35,45.36-298.92-.62c-2.58.04-5.95-3.1-6.43-5.57L.04,244.69l54.48-89.52c1.92-15.39-1-32.39.41-47.59.54-5.88,2.76-7.42,8.52-8.48l138.43-.08c4.26-22.08,4.24-46.12,8.37-68.11,1.43-7.63,4.42-14.59,11.38-18.63,6-3.48,42.89-11.64,50.8-12.19,16.66-1.16,30.44,8.49,28.28,26.28-2.78,22.85-27.42,21.14-44.56,25.94l-6.18,46.81h107.5ZM219.87,198.02l19.57-155.93c.47-1.31,1.47-2.57,2.5-3.5,6.34-5.76,29.36-5.7,37.97-10.04,5.88-3.48,3.21-11.73-4.11-11.2s-34.42,6.65-41.82,9.27c-2.75.97-4.45,1.37-5.52,4.48l-20.47,167.04,11.9-.11ZM199.98,117.13H71.98v32l122.42.84c1.78-.49,1.9-4.76,2.28-6.65,1.72-8.56,1.31-17.65,3.3-26.2ZM345.98,117.13h-98l-4,32h99.5c.25,0,.59.81,1,.78l1.5-1.28v-31.5ZM192.48,167.13h-124l-50.5,83h277l1.62-7.88,45.38-75.12h-100l-4,31h15.5c.39,0,5.78,2.77,6.21,3.28,3.19,3.83,1.36,13.57-4.42,14.51l-74.82-.75c-7.15-.2-12.63-3.44-11.24-11.29,1.66-9.44,13.84-6.13,20.67-6.86.1-8.03,4.16-20.23,3.91-27.64-.04-1.22-.36-1.54-1.3-2.25ZM312.98,249.63v17.5l83.61-37.45-1.13-23.53-34.98-33-47.5,76.48ZM396.98,251.14l-32.52,13.97-.46,278.49,1.39,2.61,31.07,25.93.51-321ZM294.98,268.13H17.98v361h277v-361ZM345.98,273.13c-11.12,3.89-22.67,8.5-33,14.5v316.5l33-55.5v-275.5ZM387.98,592.12c.91-1.25-2.98-4.54-3.98-5.5-6.36-6.1-17.58-16.7-24.49-21.51-.84-.59-1.05-1.36-2.51-.97l-31.02,53.98,62-26Z"/>
  <path d="M164.98,365.12c11.82-2.87,30.55-10.34,42.47-5.96,13.25,4.86,3.21,32.37-5.47,38.96,61.38,30.18,59.18,111.77-3.64,139.87-57.41,25.68-131.38-12.2-125.34-79.34,3.21-35.68,36.06-63.49,69.85-69.65-.16-11.84-.08-22.82,6.31-33.19,4.15-6.73,16.64-20.25,23.84-10.2,6.54,9.13-4.2,12.95-8.02,19.51ZM160.98,388.13h21.5c1.34,0,7.78-3.61,9.05-4.95,1.04-1.09,5.48-7.29,1.96-7.06-6.56.42-20.1,4.96-26.45,7.57-2.19.9-6.32,1.49-6.05,4.45ZM155.77,405.43c-43.67,2.7-81.05,44-58.98,87.38,24.89,48.92,107.21,46.47,127.95-4.42,18.53-45.48-24.64-85.7-68.97-82.96Z"/>
  <path class="cls-2" d="M155.77,405.43c44.33-2.74,87.5,37.48,68.97,82.96-20.74,50.9-103.06,53.35-127.95,4.42-22.07-43.39,15.31-84.68,58.98-87.38ZM144.7,429.41c-7.99-8-21.56,5.48-25.54,12.39s-9.99,25.69,2.41,27.31c11.2,1.46,9.49-10.79,12.58-17.31s10.13-7.82,11.91-12.08c1.31-3.13,1.09-7.86-1.36-10.3ZM129.48,483.57c-8.36.02-8.86,10.2-5.33,15.89,6.48,10.46,36.46,24.02,35.92,5.16-.29-10.16-10.41-7.2-16.8-11.28-4.11-2.63-7.38-9.79-13.78-9.77Z"/>
  <path class="cls-1" d="M160.98,388.13c-.27-2.96,3.87-3.55,6.05-4.45,6.35-2.61,19.89-7.14,26.45-7.57,3.53-.23-.92,5.97-1.96,7.06-1.27,1.34-7.71,4.95-9.05,4.95h-21.5Z"/>
  <path d="M144.7,429.41c2.44,2.44,2.66,7.17,1.36,10.3-1.78,4.26-8.9,5.74-11.91,12.08s-1.38,18.77-12.58,17.31c-12.4-1.62-6.49-20.22-2.41-27.31s17.56-20.4,25.54-12.39Z"/>
  <path d="M129.48,483.57c6.4-.02,9.68,7.14,13.78,9.77,6.38,4.08,16.51,1.12,16.8,11.28.54,18.86-29.43,5.29-35.92-5.16-3.53-5.69-3.03-15.86,5.33-15.89Z"/>
</svg>