<?xml version="1.0" encoding="UTF-8"?>
<svg id="Layer_1" data-name="Layer 1" xmlns="http://www.w3.org/2000/svg" viewBox="0 0 366.24 349.44">
  <defs>
    <style>
      .cls-1 {
        fill: #fff;
      }
    </style>
  </defs>
  <path class="cls-1" d="M.09,20.16l.73,12.35c.48,3.68-1.75,8.29,1.93,10.79,3.38,2.3,7.65.49,8.12-3.61l.02-27.82.35-.85h33.15s55.48,259.4,55.48,259.4c.4.8,1.55,1.25,2.39,1.45,5.68,1.36,15.05.39,21.04.29,9.3-.15,18.55,0,27.83.02,55.84.16,111.69-.03,167.5.22,6.18.03,12.5.57,18.71.26,2.33-.11,6.4-.36,8.03-2.12.29-.32,1.68-2.87,1.68-3.05v-91.56h15c.11,0,1.54-.92,1.78-1.1,1.41-1.08,2.01-2.24,2.42-3.94v178.56h-218.83c1.57-.11,3.67-.54,5.23-.88,12.15-2.7,20.1-12.58,22.95-24.32l.48-.24h85.78c1.5,10.14,8.45,19.13,18,22.92,18.23,7.23,38.36-3.38,41.27-22.92h12.72v-10.2l-.36-.36h-12c-.1,0-.53-.27-.62-.4-.35-.54-.87-3.23-1.24-4.21-9.66-25.47-45.13-25.98-55.72-.9-.34.81-1.77,5.34-2.2,5.48l-76.15.39v5.28c0,.91-1.91-.12-2.06-.83-.54-.14-2.64,2.45-3.69-.38-.61-1.65,0-2.98.71-4.43h-5.4c-.69-1.65-1.02-3.55-1.68-5.28-6.58-17.05-27.43-23.75-43.14-14.6-7.65,4.45-12.01,11.8-14.48,20.12h-46.52c-30.08-1.86-30.18-44.99-1.91-46.81,4.15-.27,12.26,1.02,12.13-5.64-.12-6.18-8.54-5.85-12.83-5.37-18.39,2.04-32.64,18.36-31.1,37.05.27,3.23,2.26,10.38,3.87,13.17,1.45,2.52,1.55,1.46,3.81,2.19,2.74.89.9,4.02,2.53,6.35,2.68,3.84,15.01,8.99,19.66,9.37l50.72.03c1.58,11.89,10.64,21.61,22.24,24.44,1.86.45,3.75.62,5.62.98H.09V20.16Z"/>
  <path class="cls-1" d="M24.32,0h341.92v169.92c-.64-2.63-2.01-4.21-4.71-4.77-4.25-.88-15.52-.92-19.82-.21-1.59.26-5.7,2.34-5.7,4.14v92.52H107.82L53.77,3.31c-1.27-3.68-6.51-2.85-9.66-2.84-4.14.02-8.3.1-12.48.02l-7.31-.49ZM262.67,16.64c-.81.76-1.25,2.14-1.46,3.22-1.14,5.82-.4,13.88-.29,19.85.1,5.53.34,11.06.48,16.56.09,3.36-.39,7.63-.02,10.82.21,1.81,2.94,3.52,4.68,3.72,1.39.15,2.6-.23,3.83-.25,8.27-.11,16.47.3,24.73.48,5.26.11,11.29.64,16.52-.26,3.28-.56,5.38-2.32,5.43-5.87.08-5.61-.37-11.37-.26-17.04.17-8.46,1.52-18.77.22-27.08-.45-2.85-1.75-5.1-4.89-5.43-1.18-.12-2.09.24-3.11.25-12.58.17-25.21-1.15-37.67-.48-2.41.13-6.3-.26-8.2,1.51ZM123.83,15.42c-1.67.28-3.59,2.47-3.78,4.14-.45,3.97.74,8.87.25,12.97-.29,9.53-1.17,19.23-.74,28.8.07,1.53.2,4.02.56,5.44,1.21,4.9,6.95,4.06,10.86,4.26,11.89.59,23.79-.64,35.75-.48,1.09.01,2.1.39,3.35.25,3.05-.33,5.37-3.37,5.42-6.36.08-5.13-.36-10.42-.27-15.61.15-8.59,1.56-20.17-.05-28.49-.44-2.28-1.5-4.63-4.13-4.75-13.2-.12-26.41.18-39.61.02-2.46-.03-5.13-.61-7.61-.19ZM194.62,15.42c-2.29.36-3.73,2.32-4.2,4.45-1.58,7.16-.25,18.11-.05,25.61.06,2.08-.2,4.19.24,6.24.51,4.32-.7,9.53-.25,13.69.54,5.01,4.88,5.4,8.99,5.65,9.9.6,19.88-.16,29.75-.5,4-.14,9.11.25,12.97-.22,2.47-.3,3.37-2.53,3.68-4.71.98-6.8.14-14.91.02-21.8-.14-7.83.15-15.73.03-23.53-.03-2.11-1.76-4.16-3.73-4.69-14.96-.1-29.93.15-44.89.02-.93,0-1.57-.35-2.57-.2ZM182.87,83.83c-9.17.68-15.73,11.98-9.54,19.72,9.65,12.06,26.85-.13,21.28-12.4-1.96-4.32-6.93-7.68-11.74-7.32ZM253.66,83.83c-10.52.73-16.46,13.79-8,21.54,11.04,10.1,27.29-5.72,17.76-17.05-2.3-2.74-6.14-4.74-9.77-4.49ZM216.95,84.07c-15.61,1.68-12.91,27.59,4.38,24.06,14.32-2.92,11.65-25.79-4.38-24.06ZM175.49,163.44v-37.56c0-.31-.62-1.68-.86-2.02-1.71-2.56-5.58-2.77-8.37-2.91-11.93-.57-23.87.9-35.77.74-3.24-.04-7.26-1.43-9.57,1.69-1.54,2.06-.64,4.12-.61,6.33.19,12.52-1.3,25.22-.74,37.7.07,1.52.21,4.26.6,5.64.6,2.12,2.88,3.71,5.05,3.78,5.74.19,11.73-.27,17.53-.21,8.55.09,17.35.72,25.91.26.91-.05,1.76-.24,2.63-.49.32-.01-.35,4.15-.37,4.67-.17,3.74.12,7.46.49,11.17-.89-.06-1.87.1-2.75-.01-.46-.06-.87-.48-1.2-.48-.14,0,0,.45-.47.51-2.67.36-6.98.02-9.6-.52-10.52.66-22.27-.64-32.66.25-2.32.2-3.77,1.17-4.51,3.41l.06,48.09c.14,1.03,2.25,2.69,3.12,3.36h48.73c4.27-1.12,3.4-11,3.36-14.42,0-.63-.26-1.21-.26-1.9-.07-8.68-.02-17.38.13-26.05,2.44,5.02,5.82,10.02,9.83,13.93.77.75,4.97,3.98,5.12,4.48.39,5.82-.66,11.91-.19,17.71.63,7.77,5.45,6.7,11.64,6.61,13.46-.19,26.99-.34,40.49-.3.67-.15,2.15-1.42,2.57-1.99,2.26-3.07.83-12.16.71-16.07-.05-1.74.06-3.5,0-5.24,4.74-3.31,8.88-7.34,12.2-12.09,1.21-1.74,2.17-3.64,3.4-5.36v37.8c0,.73,3.29,3.19,4.22,3.22,3.01.13,6.7-.47,9.83-.47,11.27,0,25.2,2.03,36.19.46,2.77-.4,5.08-2.1,5.17-5.15.16-5.58-.34-11.38-.23-17.03.17-8.54,1.62-19.43.19-27.77-.3-1.75-1.41-4.38-3.29-4.87-.92-.24-3.76-.32-4.91-.36-11.73-.46-24.16,1.09-35.77.26-1.29-.09-2.91-.68-4.1-.7-.89-.01-1.84.54-2.74.33.8-5.07.83-10.19,0-15.24.62-.04,1.18.23,1.79.25,5.37.2,10.74.03,16.08-.02,3.68-.03,7.37.04,11.06.02,5.67-.76,12.1.15,17.75-.49,2.14-.24,3.43-2.06,3.89-4.03.34-1.43.47-3.71.54-5.22.54-11.25-.39-22.63-.73-33.83-.08-2.54.31-5.76.02-8.18-.22-1.79-1.67-3.17-3.35-3.61-1.4-.36-4.13-.53-5.64-.6-11.71-.55-23.39.92-35.05.74-2.06-.03-4.66-.49-6.72-.45-1.12.02-4.19,2.74-4.19,3.68v37.32c-1.24-1.72-2.19-3.62-3.4-5.36-1.85-2.64-4.31-5.54-6.67-7.73-.98-.9-4.85-3.61-5.23-4.37-.52-1.05-.35-5.26-.3-6.68.12-3.51.75-7.01.49-10.55s-1.53-5.8-5.22-6.3c-6.53-.88-13.76-.2-20.32-.05-8.04.18-15.98.21-24.01.24-1.43,0-2.01-.41-3.56.5s-2.17,2.55-2.49,4.23c-.69,3.64-.11,7.33-.06,10.96.04,2.83.06,5.7-.13,8.52-4.89,3.91-9.15,8.35-12.45,13.7l-2.3,4.06Z"/>
  <path d="M24.32,0l7.31.49c4.18.08,8.33,0,12.48-.02,3.15-.02,8.39-.84,9.66,2.84l54.05,258.29h228.19v-92.52c0-1.8,4.11-3.88,5.7-4.14,4.3-.71,15.58-.67,19.82.21,2.7.56,4.07,2.14,4.71,4.77v.96c-.41,1.7-1.01,2.86-2.42,3.94-.24.18-1.67,1.1-1.78,1.1h-15v91.56c0,.19-1.39,2.74-1.68,3.05-1.63,1.76-5.69,2-8.03,2.12-6.21.31-12.53-.23-18.71-.26-55.82-.25-111.66-.06-167.5-.22-9.29-.03-18.53-.17-27.83-.02-6,.1-15.37,1.07-21.04-.29-.84-.2-2-.64-2.39-1.45L44.37,11.03H11.22s-.35.84-.35.84l-.02,27.82c-.46,4.1-4.73,5.92-8.12,3.61-3.68-2.51-1.45-7.12-1.93-10.79L.09,20.16C.29,16.16-.19,11.89.09,7.92c.07-1.01.32-3.03.65-4.03C1.83.55,5.32.17,8.38.25l.58-.25h15.36Z"/>
  <path d="M144.05,349.44c-1.87-.35-3.76-.52-5.62-.98-11.59-2.83-20.65-12.54-22.24-24.44l-50.72-.03c-4.66-.38-16.98-5.53-19.66-9.37-1.63-2.33.22-5.46-2.53-6.35-2.26-.73-2.36.33-3.81-2.19-1.61-2.79-3.6-9.93-3.87-13.17-1.54-18.69,12.71-35,31.1-37.05,4.29-.48,12.71-.81,12.83,5.37.13,6.66-7.98,5.37-12.13,5.64-28.27,1.82-28.18,44.95,1.91,46.81h46.52c2.47-8.32,6.84-15.67,14.48-20.12,15.71-9.15,36.56-2.45,43.14,14.6.67,1.73.99,3.62,1.68,5.28h5.4c-.72,1.45-1.32,2.78-.71,4.43,1.05,2.84,3.15.24,3.69.38.15.71,2.06,1.74,2.06.83v-5.28l76.15-.39c.43-.14,1.85-4.67,2.2-5.48,10.59-25.08,46.06-24.57,55.72.9.37.98.89,3.67,1.24,4.21.08.13.52.4.62.4h12l.36.36v10.2h-12.72c-2.9,19.54-23.04,30.15-41.27,22.92-9.55-3.79-16.5-12.77-18-22.91h-85.78s-.48.23-.48.23c-2.85,11.74-10.8,21.63-22.95,24.32-1.57.35-3.66.78-5.23.88h-3.36ZM145.69,299.58c-15.63.34-26.11,19.93-15.08,32.47,17.87,20.32,46.74-7.38,29.53-25.93-3.68-3.97-8.94-6.66-14.44-6.54ZM289.65,300.31c-13.32,1.24-21.12,15.97-15.03,27.85,6.58,12.83,24.99,13.84,32.93,1.82,8.96-13.57-1.77-31.17-17.9-29.67Z"/>
  <path class="cls-1" d="M8.96,0l-.58.25C5.32.17,1.83.55.73,3.89.4,4.89.16,6.91.09,7.92V0h8.88Z"/>
  <path d="M175.49,163.44l2.3-4.06c3.3-5.36,7.56-9.8,12.45-13.7.19-2.83.17-5.69.13-8.52-.05-3.63-.64-7.32.06-10.96.32-1.68.95-3.31,2.49-4.23s2.12-.5,3.56-.5c8.03-.03,15.97-.06,24.01-.24,6.56-.15,13.8-.83,20.32.05,3.68.5,4.96,2.88,5.22,6.3s-.36,7.04-.49,10.55c-.05,1.42-.21,5.63.3,6.68.37.76,4.25,3.47,5.23,4.37,2.36,2.18,4.82,5.09,6.67,7.73,1.22,1.74,2.17,3.64,3.4,5.36v-37.32c0-.94,3.07-3.65,4.19-3.68,2.05-.05,4.66.42,6.72.45,11.66.18,23.34-1.29,35.05-.74,1.52.07,4.24.23,5.64.6,1.68.44,3.13,1.81,3.35,3.61.29,2.41-.09,5.63-.02,8.18.34,11.2,1.27,22.57.73,33.83-.07,1.5-.21,3.79-.54,5.22-.46,1.97-1.75,3.78-3.89,4.03-5.64.64-12.08-.27-17.75.49-3.69.02-7.37-.05-11.06-.02-5.33.05-10.71.22-16.08.02-.61-.02-1.17-.29-1.79-.25.83,5.05.8,10.17,0,15.24.9.21,1.85-.34,2.74-.33,1.18.02,2.8.61,4.1.7,11.61.82,24.04-.72,35.77-.26,1.16.05,4,.12,4.91.36,1.88.49,2.99,3.12,3.29,4.87,1.43,8.33-.01,19.23-.19,27.77-.11,5.65.39,11.44.23,17.03-.09,3.05-2.4,4.76-5.17,5.15-10.99,1.57-24.92-.46-36.19-.46-3.13,0-6.82.6-9.83.47-.92-.04-4.22-2.49-4.22-3.22v-37.8c-1.24,1.72-2.19,3.61-3.4,5.36-3.32,4.76-7.45,8.78-12.2,12.09.05,1.74-.06,3.5,0,5.24.12,3.91,1.54,12.99-.71,16.07-.42.57-1.9,1.84-2.57,1.99-13.5-.04-27.03.11-40.49.3-6.19.09-11.01,1.16-11.64-6.61-.47-5.79.58-11.89.19-17.71-.15-.5-4.34-3.73-5.12-4.48-4.01-3.91-7.39-8.91-9.83-13.93-.15,8.67-.2,17.37-.13,26.05,0,.69.26,1.27.26,1.9.03,3.42.91,13.3-3.36,14.42h-48.73c-.86-.67-2.98-2.33-3.12-3.35l-.06-48.09c.74-2.24,2.19-3.22,4.51-3.41,10.39-.89,22.13.42,32.66-.25,2.62.54,6.93.87,9.6.52.47-.06.33-.51.47-.51.33,0,.74.42,1.2.48.88.11,1.86-.05,2.75.01-.37-3.71-.66-7.43-.49-11.17.02-.52.69-4.69.37-4.67-.86.25-1.72.45-2.63.49-8.57.45-17.37-.17-25.91-.26-5.8-.06-11.79.39-17.53.21-2.17-.07-4.44-1.67-5.05-3.78-.39-1.38-.53-4.12-.6-5.64-.57-12.48.93-25.18.74-37.7-.03-2.21-.93-4.27.61-6.33,2.31-3.11,6.33-1.73,9.57-1.69,11.9.16,23.84-1.31,35.77-.74,2.79.13,6.66.35,8.37,2.91.23.35.86,1.71.86,2.02v37.56ZM164.45,131.76h-34.07v34.08h34.07v-34.08ZM235.23,139.44v-7.32l-.36-.36h-33.71v7.92c10.87-4.07,23.17-4.33,34.07-.24ZM305.53,131.76h-33.47s-.6.56-.6.6v33.48h34.55l-.48-34.08ZM215.99,148.15c-28.56,1.98-44.2,34.56-27.88,58.22,15.44,22.39,49.54,20.9,62.84-2.85,14.51-25.9-5.48-57.42-34.97-55.37ZM164.45,202.56h-34.07v34.08h34.07v-34.08ZM306.01,202.56h-34.55v34.08h34.31l.24-34.08ZM235.23,228.96c-10.91,4.1-23.2,3.84-34.07-.24v7.92h34.07v-7.68Z"/>
  <path d="M262.67,16.64c1.9-1.78,5.79-1.38,8.2-1.51,12.46-.67,25.09.65,37.67.48,1.02-.01,1.93-.37,3.11-.25,3.14.33,4.44,2.58,4.89,5.43,1.3,8.31-.05,18.62-.22,27.08-.11,5.67.34,11.43.26,17.04-.05,3.55-2.16,5.31-5.43,5.87-5.23.89-11.26.37-16.52.26-8.26-.18-16.47-.59-24.73-.48-1.23.02-2.44.4-3.83.25-1.74-.19-4.47-1.9-4.68-3.72-.38-3.19.1-7.46.02-10.82-.14-5.5-.38-11.03-.48-16.56-.1-5.97-.84-14.03.29-19.85.21-1.08.65-2.46,1.46-3.22ZM306.25,60l-.49-1.07c-.04-10.41.11-20.82,0-31.22,0-.45.45-2.03-.35-2.03h-33.35s-.6.56-.6.6v33.72h34.79Z"/>
  <path d="M123.83,15.42c2.48-.42,5.15.16,7.61.19,13.2.16,26.41-.14,39.61-.02,2.63.12,3.69,2.48,4.13,4.75,1.61,8.31.2,19.9.05,28.49-.09,5.19.35,10.48.27,15.61-.05,2.99-2.36,6.04-5.42,6.36-1.25.13-2.26-.24-3.35-.25-11.96-.16-23.86,1.07-35.75.48-3.91-.19-9.65.64-10.86-4.26-.35-1.42-.49-3.92-.56-5.44-.43-9.57.45-19.27.74-28.8.49-4.1-.7-9-.25-12.97.19-1.67,2.11-3.86,3.78-4.14ZM164.45,25.68h-34.07v34.32h34.07V25.68Z"/>
  <path d="M194.62,15.42c1-.16,1.64.19,2.57.2,14.96.13,29.93-.12,44.89-.02,1.97.53,3.7,2.58,3.73,4.69.12,7.79-.17,15.7-.03,23.53.12,6.89.96,15-.02,21.8-.31,2.18-1.21,4.41-3.68,4.71-3.86.47-8.97.09-12.97.22-9.88.34-19.85,1.1-29.75.5-4.11-.25-8.45-.64-8.99-5.65-.45-4.16.76-9.37.25-13.69-.44-2.05-.18-4.16-.24-6.24-.2-7.5-1.53-18.45.05-25.61.47-2.12,1.91-4.09,4.2-4.45ZM235.23,25.68h-34.07v34.32h34.07V25.68Z"/>
  <path d="M182.87,83.83c4.81-.36,9.78,3,11.74,7.32,5.57,12.28-11.63,24.47-21.28,12.4-6.19-7.74.38-19.04,9.54-19.72Z"/>
  <path d="M253.66,83.83c3.63-.25,7.47,1.75,9.77,4.49,9.53,11.33-6.72,27.15-17.76,17.05-8.46-7.75-2.52-20.8,8-21.54Z"/>
  <path d="M216.95,84.07c16.03-1.73,18.7,21.14,4.38,24.06-17.29,3.53-19.99-22.38-4.38-24.06Z"/>
  <path class="cls-1" d="M145.69,299.58c5.5-.12,10.76,2.57,14.44,6.54,17.22,18.55-11.65,46.26-29.53,25.93-11.03-12.54-.55-32.13,15.08-32.47Z"/>
  <path class="cls-1" d="M289.65,300.31c16.13-1.5,26.86,16.1,17.9,29.67-7.94,12.02-26.35,11.01-32.93-1.82-6.09-11.87,1.71-26.6,15.03-27.85Z"/>
  <path class="cls-1" d="M215.99,148.15c29.49-2.05,49.48,29.47,34.97,55.37-13.31,23.75-47.4,25.24-62.84,2.85-16.33-23.67-.68-56.24,27.88-58.22Z"/>
  <polygon class="cls-1" points="306.01 202.56 305.77 236.64 271.46 236.64 271.46 202.56 306.01 202.56"/>
  <path class="cls-1" d="M305.53,131.76l.48,34.08h-34.55v-33.48s.56-.6.6-.6h33.47Z"/>
  <rect class="cls-1" x="130.38" y="131.76" width="34.07" height="34.08"/>
  <rect class="cls-1" x="130.38" y="202.56" width="34.07" height="34.08"/>
  <path class="cls-1" d="M235.23,139.44c-10.91-4.09-23.2-3.83-34.07.24v-7.92h33.71l.36.36v7.32Z"/>
  <path class="cls-1" d="M235.23,228.96v7.68h-34.07v-7.92c10.87,4.08,23.17,4.34,34.07.24Z"/>
  <path class="cls-1" d="M306.25,60h-34.79V26.28s.56-.6.6-.6h33.35c.8,0,.34,1.58.35,2.03.1,10.41-.04,20.82,0,31.22l.49,1.07Z"/>
  <rect class="cls-1" x="130.38" y="25.68" width="34.07" height="34.32"/>
  <rect class="cls-1" x="201.16" y="25.68" width="34.07" height="34.32"/>
</svg>