<svg width="512" height="512" viewBox="0 0 512 512" fill="none" xmlns="http://www.w3.org/2000/svg">
<g clip-path="url(#clip0_70_660)">
<path d="M256 0C114.837 0 0 114.837 0 256C0 397.163 114.837 512 256 512C397.163 512 512 397.163 512 256C512 114.837 397.163 0 256 0ZM388.267 224.256L293.845 316.949C277.141 333.333 255.637 341.504 234.112 341.504C212.821 341.504 191.531 333.483 174.891 317.419L134.379 277.589C125.973 269.333 125.867 255.829 134.123 247.424C142.357 238.997 155.904 238.891 164.288 247.168L204.672 286.869C221.227 302.869 247.36 302.784 264 286.485L358.4 193.813C366.784 185.536 380.245 185.685 388.565 194.091C396.821 202.496 396.693 216 388.267 224.256Z" fill="#39B54A"/>
</g>
<defs>
<clipPath id="clip0_70_660">
<rect width="512" height="512" fill="white"/>
</clipPath>
</defs>
</svg>
