<svg width="31" height="31" viewBox="0 0 31 31" fill="none" xmlns="http://www.w3.org/2000/svg">
<path d="M16.1252 22.6652C14.6589 22.6652 13.1917 22.6671 11.7254 22.6652C11.1701 22.6642 11.0898 22.5792 11.0898 22.0152C11.0898 19.7824 11.0822 17.5495 11.0974 15.3167C11.0994 15.0701 11.1844 14.7976 11.3096 14.5816C11.6662 13.9642 12.0705 13.3754 12.4404 12.7655C12.5924 12.5141 12.7778 12.3975 13.0808 12.3994C15.1292 12.409 17.1766 12.4071 19.225 12.3994C19.5089 12.3985 19.6933 12.4998 19.8405 12.7397C20.2324 13.382 20.6511 14.0091 21.0354 14.6552C21.1376 14.8263 21.2036 15.0471 21.2045 15.2459C21.216 17.5056 21.2112 19.7642 21.2103 22.0238C21.2103 22.5744 21.1176 22.6671 20.5651 22.6681C19.0854 22.67 17.6058 22.6681 16.1261 22.6681V22.6652H16.1252ZM11.8564 21.8718H20.4332V15.4295H17.5207C17.5207 15.8185 17.5417 16.176 17.5121 16.5296C17.4968 16.7084 17.4328 16.9588 17.3076 17.0295C17.1881 17.0965 16.93 17.019 16.7866 16.9244C16.1386 16.4981 16.1453 16.4885 15.5096 16.9368C15.4991 16.9445 15.4896 16.9579 15.4781 16.9607C15.3204 16.997 15.1168 17.1079 15.0145 17.0467C14.8902 16.9731 14.8004 16.76 14.788 16.5994C14.7564 16.2123 14.7774 15.8204 14.7774 15.4218H11.8564V21.8728V21.8718ZM17.3802 13.1593C17.4146 13.6248 17.4376 14.0425 17.4854 14.4564C17.494 14.5271 17.6077 14.6418 17.6746 14.6428C18.4708 14.6562 19.267 14.6514 20.1541 14.6514C19.8272 14.1362 19.5538 13.6927 19.2642 13.2597C19.224 13.2004 19.1084 13.1651 19.0271 13.1641C18.5014 13.1555 17.9767 13.1593 17.3793 13.1593H17.3802ZM12.147 14.6533C13.0139 14.6533 13.7776 14.66 14.5394 14.6447C14.6341 14.6428 14.7985 14.5367 14.809 14.4621C14.8644 14.0483 14.8816 13.6296 14.916 13.1622C14.3158 13.1622 13.7528 13.1593 13.1907 13.166C13.1353 13.166 13.0598 13.21 13.0292 13.2568C12.7463 13.6946 12.471 14.1372 12.146 14.6524L12.147 14.6533ZM15.6568 13.1804C15.6062 14.1085 15.5584 15.0022 15.5096 15.8959C15.5421 15.915 15.5746 15.9332 15.6062 15.9523C15.978 15.5126 16.3489 15.5728 16.7188 15.9638C16.7446 15.9427 16.7694 15.9208 16.7952 15.8997C16.7427 15.0003 16.691 14.1008 16.6375 13.1813H15.6568V13.1804Z" fill="#39B54A"/>
<path d="M7.24157 3.23834C10.2544 3.22304 12.1842 6.29799 10.8308 8.99443C10.3576 9.93689 9.7975 10.8354 9.26796 11.7492C9.1265 11.992 9.10451 12.1697 9.32245 12.4058C9.63118 12.7413 9.59677 13.2317 9.34634 13.6188C9.23833 13.7861 9.1523 13.9839 9.11503 14.1789C8.94584 15.0621 8.15536 15.7178 7.25018 15.7025C6.3622 15.6882 5.59943 15.021 5.45223 14.1502C5.42547 13.9906 5.36812 13.8195 5.2754 13.6895C4.95902 13.247 4.92079 12.8006 5.2582 12.3781C5.41974 12.1764 5.38532 12.0235 5.28305 11.8448C4.89593 11.169 4.49926 10.4989 4.11405 9.82219C3.65525 9.01641 3.22129 8.20873 3.23468 7.23281C3.26622 4.9665 4.97622 3.24981 7.24062 3.23834H7.24157ZM7.24157 11.9891C7.30753 11.9891 7.37539 11.9786 7.43943 11.991C8.07316 12.1086 8.43255 11.8925 8.7107 11.2598C9.10738 10.3584 9.71052 9.55073 10.1454 8.66275C10.3643 8.21542 10.5 7.68301 10.5086 7.18597C10.5316 5.8411 9.70765 4.67975 8.51189 4.2219C7.1804 3.71148 5.72752 4.03742 4.80322 5.05253C3.94296 5.99786 3.73458 7.43258 4.34537 8.63503C4.7755 9.48095 5.34996 10.259 5.73325 11.1231C6.0525 11.8428 6.44153 12.2156 7.24253 11.99L7.24157 11.9891ZM6.22934 14.0336C6.37558 14.6578 6.82387 14.9923 7.38208 14.9446C7.89346 14.9006 8.27962 14.5297 8.29969 14.0336C8.18212 14.0336 8.06551 14.0336 7.9489 14.0336C7.38591 14.0336 6.82387 14.0336 6.23029 14.0336H6.22934ZM7.29032 13.2766C7.67361 13.2766 8.05786 13.2967 8.43829 13.2651C8.56064 13.2556 8.67151 13.1112 8.78813 13.029C8.66769 12.9363 8.55012 12.7671 8.42778 12.7633C7.66215 12.7385 6.89556 12.7394 6.12993 12.7614C6.01331 12.7643 5.90053 12.9163 5.78678 12.9985C5.9053 13.0912 6.01714 13.2527 6.14331 13.2642C6.52278 13.2995 6.90798 13.2766 7.29128 13.2766H7.29032Z" fill="#39B54A"/>
<path d="M25.829 30.4029C25.7105 30.4029 25.591 30.4029 25.4725 30.4029C24.8063 30.4029 24.7853 30.3675 24.6916 29.7013C24.6725 29.5627 24.5128 29.3945 24.3762 29.3362C24.2576 29.2855 24.0426 29.3238 23.9374 29.4069C23.4499 29.7921 23.3534 29.7969 22.9156 29.3563C22.692 29.1316 22.4626 28.9127 22.2418 28.6852C21.9426 28.3775 21.9378 28.1863 22.2284 27.8699C22.3842 27.6998 22.5046 27.564 22.387 27.2888C22.2704 27.0144 22.0936 26.9944 21.8594 26.9972C21.4895 27.001 21.2955 26.828 21.305 26.4419C21.3136 26.0586 21.3136 25.6753 21.305 25.293C21.2964 24.9173 21.4618 24.7185 21.8432 24.7214C22.0907 24.7233 22.279 24.7032 22.3985 24.4088C22.5151 24.1192 22.3651 23.9921 22.2093 23.8343C21.9397 23.561 21.9674 23.3038 22.2303 23.0448C22.5037 22.7772 22.7751 22.5057 23.0427 22.2323C23.3056 21.9647 23.5666 21.9571 23.8323 22.2257C23.9919 22.3872 24.1276 22.521 24.4096 22.4006C24.6782 22.2859 24.703 22.1148 24.7126 21.8787C24.7308 21.4342 24.8512 21.3253 25.2966 21.3205C25.6799 21.3157 26.0632 21.3253 26.4456 21.3166C26.8097 21.309 26.9846 21.482 26.9856 21.8405C26.9856 22.0823 26.9923 22.2801 27.2915 22.4015C27.5993 22.5267 27.7283 22.3547 27.8975 22.196C28.145 21.9638 28.3897 21.9724 28.6277 22.2085C28.9183 22.4962 29.2089 22.7858 29.4966 23.0764C29.7489 23.3306 29.7423 23.583 29.489 23.8353C29.3303 23.993 29.1907 24.1249 29.3026 24.4107C29.4192 24.7108 29.618 24.7204 29.8598 24.7214C30.2144 24.7223 30.398 24.8915 30.3932 25.2557C30.3884 25.6524 30.3865 26.0481 30.3932 26.4447C30.4008 26.8309 30.2068 27.001 29.8359 26.9972C29.6027 26.9944 29.4249 27.0163 29.3093 27.2916C29.1926 27.5688 29.3169 27.7026 29.4727 27.8728C29.7623 28.1882 29.7547 28.3765 29.4526 28.6862C29.1946 28.951 28.9336 29.2138 28.6679 29.47C28.3601 29.7663 28.1689 29.7673 27.8516 29.4767C27.6948 29.3333 27.5734 29.1957 27.3077 29.3094C27.0525 29.4193 26.9904 29.5675 26.9837 29.8189C26.9722 30.2939 26.8585 30.3914 26.3825 30.4C26.198 30.4029 26.0126 30.4 25.8281 30.401L25.829 30.4029ZM29.6276 25.4411C28.9499 25.5988 28.8151 25.1639 28.6 24.6984C28.3697 24.1985 28.3171 23.8114 28.7788 23.4941C28.5924 23.278 28.4385 23.1003 28.2502 22.8823C27.8908 23.408 27.5037 23.3153 27.0028 23.1108C26.4933 22.9034 26.1378 22.694 26.2448 22.0842H25.4429C25.5757 22.7122 25.1982 22.89 24.7136 23.1031C24.2022 23.3287 23.8065 23.4013 23.4729 22.9272C23.2559 23.1165 23.0791 23.2704 22.8458 23.473C23.4528 23.82 23.2788 24.2215 23.0963 24.7118C22.9022 25.2347 22.67 25.5663 22.0745 25.4707V26.2708C22.7101 26.1322 22.8869 26.5183 23.0934 27.0039C23.3018 27.4971 23.4184 27.8919 22.8822 28.2456C23.0886 28.4501 23.2616 28.6222 23.4671 28.8267C23.8179 28.2895 24.2098 28.4253 24.7059 28.6155C25.2288 28.8152 25.5557 29.0466 25.462 29.6344H26.2773C26.09 28.9672 26.5306 28.8315 26.998 28.6193C27.4903 28.3956 27.8841 28.3029 28.2272 28.8114C28.4356 28.6107 28.6105 28.4415 28.8199 28.2408C28.2674 27.8804 28.4155 27.4847 28.6105 26.9934C28.8094 26.4925 29.0168 26.1475 29.6285 26.2641V25.4411H29.6276Z" fill="#39B54A"/>
<path d="M4.0915 18.4908C3.7971 18.811 3.56483 19.0595 3.3383 19.3109C3.16624 19.502 2.96838 19.5919 2.75428 19.4036C2.53826 19.2143 2.6023 19.005 2.7753 18.8148C3.21882 18.3254 3.66519 17.8379 4.10775 17.3485C4.31517 17.1191 4.53215 17.101 4.76155 17.3093C5.25094 17.7528 5.73938 18.1983 6.2259 18.6437C6.41038 18.8129 6.51361 19.0088 6.31384 19.2258C6.11885 19.438 5.91621 19.373 5.72504 19.2C5.46505 18.9649 5.20219 18.7316 4.87434 18.4391C4.92978 19.4284 5.12764 20.2963 5.41439 21.1432C7.28306 26.6546 12.9799 29.851 18.6576 28.5806C18.735 28.5634 18.8268 28.5128 18.887 28.5386C19.0495 28.6065 19.277 28.6715 19.3372 28.8024C19.4395 29.0261 19.2856 29.2172 19.0399 29.2603C18.3775 29.3759 17.7151 29.525 17.0461 29.5719C10.7365 30.0144 5.26528 25.6911 4.21958 19.4533C4.17179 19.1685 4.14216 18.8798 4.09054 18.4908H4.0915Z" fill="#39B54A"/>
<path d="M27.4399 16.6801C27.3329 15.3161 27.049 14.0964 26.5013 12.9599C24.4519 8.71312 21.0644 6.45732 16.3502 6.19256C16.161 6.18204 15.9077 6.07021 15.8111 5.92205C15.6677 5.70125 15.9143 5.42788 16.2565 5.46898C17.328 5.59706 18.4273 5.64581 19.4577 5.93257C24.2292 7.26214 27.6177 11.3254 28.1577 16.2547C28.1644 16.3159 28.1778 16.3761 28.2036 16.5262C28.4646 16.226 28.6787 15.9861 28.8851 15.7405C29.0601 15.5321 29.2646 15.4222 29.4959 15.6229C29.7148 15.8122 29.6269 16.0263 29.4663 16.2155C29.039 16.7193 28.6108 17.222 28.1807 17.7229C27.9943 17.9408 27.7869 17.9695 27.5613 17.7774C27.049 17.3406 26.5338 16.9057 26.0224 16.4669C25.8255 16.2987 25.7519 16.0941 25.945 15.8848C26.1228 15.6908 26.3244 15.7433 26.508 15.8963C26.7909 16.1314 27.071 16.3694 27.439 16.6791L27.4399 16.6801Z" fill="#39B54A"/>
<path d="M10.9224 1.60133C10.8307 1.78677 10.7676 1.93014 10.6911 2.06492C10.5162 2.3727 10.3614 2.6996 10.1415 2.97201C10.0536 3.08098 9.78786 3.13642 9.65213 3.08576C9.55846 3.05039 9.4667 2.75026 9.51927 2.63651C9.71904 2.21021 9.95991 1.79919 10.2276 1.41208C10.2954 1.31458 10.5296 1.27539 10.6692 1.30216C10.7695 1.32127 10.8393 1.49619 10.9224 1.60038V1.60133Z" fill="#39B54A"/>
<path d="M5.10773 2.76278C5.00546 2.90998 4.9548 3.06101 4.8573 3.10211C4.74356 3.1499 4.50842 3.15277 4.46636 3.08586C4.16623 2.61367 3.89286 2.12333 3.64051 1.62438C3.60802 1.56033 3.71985 1.36821 3.81161 1.31373C3.90433 1.25829 4.12799 1.25064 4.1691 1.30895C4.49599 1.77827 4.79422 2.26766 5.10773 2.76278Z" fill="#39B54A"/>
<path d="M1.57042 3.59473C1.72335 3.6645 1.83232 3.70656 1.93364 3.76391C2.27583 3.95795 2.63523 4.13191 2.94587 4.368C3.05962 4.45403 3.12462 4.71402 3.0816 4.85644C3.05388 4.94725 2.74801 5.0543 2.63809 5.00173C2.20127 4.79527 1.7807 4.54579 1.3802 4.27529C1.29035 4.21411 1.25116 3.99045 1.28175 3.86427C1.30756 3.75818 1.46814 3.68458 1.57042 3.59568V3.59473Z" fill="#39B54A"/>
<path d="M11.7313 5.1228C11.5975 5.01288 11.4455 4.94501 11.4025 4.83414C11.3604 4.72421 11.3805 4.49959 11.456 4.45084C11.8928 4.16409 12.3478 3.90028 12.8133 3.66323C12.8974 3.62021 13.124 3.70146 13.1775 3.79035C13.2434 3.89932 13.2568 4.16313 13.189 4.20997C12.7292 4.52922 12.2417 4.81024 11.7313 5.12184V5.1228Z" fill="#39B54A"/>
<path d="M13.0882 7.63056C12.8636 7.63056 12.6285 7.67262 12.4191 7.61622C12.2758 7.57799 12.0569 7.383 12.0731 7.29315C12.0989 7.14595 12.2777 6.92801 12.4096 6.91368C12.8665 6.86684 13.3339 6.86875 13.7927 6.91081C13.9179 6.92228 14.1129 7.13543 14.1148 7.25874C14.1167 7.38013 13.9332 7.57608 13.7975 7.61335C13.5757 7.67262 13.3262 7.6296 13.0892 7.6296L13.0882 7.63056Z" fill="#39B54A"/>
<path d="M6.88409 1.42891C6.88409 1.21766 6.88217 1.00642 6.88504 0.795181C6.88791 0.548574 7.00643 0.347846 7.25687 0.398506C7.39737 0.427181 7.59045 0.627909 7.60479 0.767462C7.65067 1.19855 7.65067 1.64015 7.60575 2.07123C7.59045 2.21461 7.40502 2.42107 7.26547 2.45166C7.02268 2.50423 6.88791 2.31497 6.88409 2.06359C6.88122 1.85234 6.88409 1.6411 6.88409 1.42986V1.42891Z" fill="#39B54A"/>
<path d="M1.40273 7.62976C1.17811 7.62976 0.942012 7.67182 0.732682 7.61542C0.591218 7.57719 0.378064 7.38028 0.393358 7.28852C0.41821 7.14228 0.597909 6.92626 0.729815 6.91287C1.18766 6.86699 1.65507 6.87082 2.11388 6.91287C2.23814 6.92435 2.43122 7.14037 2.43217 7.26367C2.43313 7.38411 2.24769 7.57623 2.11101 7.61255C1.8883 7.67086 1.63978 7.6288 1.40177 7.6288C1.40177 7.6288 1.40177 7.62976 1.40177 7.63071L1.40273 7.62976Z" fill="#39B54A"/>
<path d="M15.0523 21.2552C14.4062 21.2552 13.761 21.2523 13.1148 21.2552C12.8386 21.2561 12.5901 21.2035 12.5958 20.8652C12.6006 20.5469 12.8462 20.502 13.1024 20.502C14.3937 20.502 15.6851 20.502 16.9774 20.502C17.2517 20.502 17.5127 20.5574 17.5002 20.8919C17.4878 21.2188 17.225 21.2599 16.9516 21.2571C16.3188 21.2513 15.686 21.2552 15.0542 21.2552H15.0523Z" fill="#39B54A"/>
<path d="M14.258 19.9026C13.8499 19.9026 13.4417 19.9045 13.0336 19.9017C12.7745 19.8998 12.5881 19.7889 12.5939 19.5098C12.5996 19.2479 12.785 19.1532 13.025 19.1523C13.8279 19.1504 14.6308 19.1504 15.4337 19.1494C15.687 19.1494 15.8992 19.2402 15.8944 19.5193C15.8896 19.8118 15.6784 19.9093 15.4031 19.9045C15.0217 19.8978 14.6394 19.9026 14.258 19.9026Z" fill="#39B54A"/>
<path d="M27.7125 25.9178C27.6743 26.9511 26.7997 27.776 25.7913 27.7301C24.7532 27.6823 23.9398 26.8173 23.9799 25.8041C24.021 24.7699 24.8889 23.9545 25.9041 23.9956C26.944 24.0377 27.7488 24.8941 27.7116 25.9178H27.7125ZM26.9612 25.8557C26.9593 25.2421 26.467 24.7488 25.8544 24.7469C25.2397 24.745 24.7437 25.2315 24.736 25.8433C24.7284 26.4722 25.2331 26.9779 25.862 26.9721C26.4737 26.9664 26.9622 26.4694 26.9603 25.8557H26.9612Z" fill="#39B54A"/>
</svg>
