<svg width="31" height="37" viewBox="0 0 31 37" fill="none" xmlns="http://www.w3.org/2000/svg">
<path d="M14.3551 32.1973C14.3184 32.4305 14.2841 32.6436 14.245 32.8875C16.2245 33.2415 18.1697 33.4357 20.1054 32.8248C20.3824 32.7372 20.6512 32.5963 20.8963 32.4365C21.8245 31.8315 21.9358 30.9625 21.1994 30.0366C21.2538 29.9952 21.3035 29.9443 21.3639 29.9159C23.6773 28.8267 25.9883 27.7339 28.3076 26.6577C28.9245 26.3712 29.5685 26.3345 30.1936 26.6565C30.6932 26.9135 30.814 27.3219 30.4908 27.786C30.2978 28.0642 30.0563 28.3306 29.784 28.5271C26.4844 30.9139 23.1836 33.2984 19.8639 35.6555C18.9771 36.2854 17.9163 36.4014 16.8875 36.1848C15.5449 35.9018 14.2296 35.4898 12.9071 35.1145C10.9513 34.5592 8.98244 34.0892 6.9082 34.0312V28.211C7.77365 28.0607 8.67106 27.8807 9.5744 27.754C10.8637 27.5729 12.0748 27.9482 13.3014 28.2856C15.2182 28.8148 17.161 29.2517 19.0849 29.7549C19.5419 29.8744 20.0071 30.0437 20.4049 30.2924C21.2005 30.7884 21.1532 31.5094 20.3232 31.9404C19.4838 32.3761 18.5616 32.5063 17.6369 32.4779C16.6318 32.4471 15.6302 32.3157 14.6274 32.2269C14.5445 32.2198 14.4628 32.2091 14.3551 32.1985V32.1973Z" fill="#39B54A"/>
<path d="M13.1881 3.22111C13.7351 2.68243 14.2595 2.16742 14.8053 1.62992C15.3582 2.00996 15.8176 2.70492 16.7079 2.32607C17.5828 1.95431 17.5047 1.17648 17.5876 0.436523H19.8619C19.8915 0.721849 19.9329 1.00007 19.9471 1.27948C19.9743 1.80514 20.294 2.10704 20.7297 2.30476C21.1476 2.49537 21.562 2.50129 21.9385 2.18163C22.1634 1.99102 22.3978 1.81106 22.6382 1.61808C23.1496 2.16387 23.6587 2.70729 24.2045 3.29096C24.0766 3.44843 23.8777 3.69113 23.6812 3.93739C23.0277 4.75666 23.4219 5.75826 24.4614 5.9098C24.774 5.95479 25.0901 5.97966 25.4334 6.01636C25.4334 6.73855 25.4405 7.42641 25.4228 8.11309C25.4216 8.18294 25.2831 8.28831 25.1931 8.30962C24.9906 8.35698 24.7799 8.37 24.5703 8.37947C24.0707 8.40433 23.7463 8.66716 23.5581 9.11232C23.3604 9.57879 23.3758 10.0192 23.7369 10.4158C23.9263 10.6242 24.0956 10.8515 24.2708 11.067C23.7238 11.5986 23.1875 12.1183 22.6252 12.6653C22.4156 12.4936 22.1741 12.29 21.9243 12.0946C21.1701 11.5062 20.088 11.9454 19.9637 12.8914C19.9234 13.1957 19.9021 13.5035 19.8678 13.8587H17.5935C17.5627 13.571 17.5224 13.3058 17.5106 13.0406C17.4869 12.5244 17.2679 12.1384 16.7813 11.9455C16.3018 11.7548 15.8472 11.7833 15.4447 12.1562C15.2398 12.3468 15.0102 12.5114 14.7982 12.683C14.2619 12.1467 13.7422 11.627 13.1893 11.0741C13.3728 10.8432 13.5658 10.5958 13.7647 10.3531C14.0973 9.94817 14.0677 9.51012 13.8712 9.0697C13.6865 8.65651 13.3669 8.42446 12.9004 8.38658C11.9852 8.3108 11.9852 8.3037 11.9864 7.38853C11.9864 6.94692 11.9864 6.50532 11.9864 6.0282C12.3617 5.98321 12.7157 5.95479 13.0638 5.89678C13.9908 5.74169 14.3827 4.76495 13.8203 4.01671C13.6214 3.75151 13.4071 3.49815 13.1869 3.2223L13.1881 3.22111ZM18.7407 3.79887C16.9222 3.77756 15.3961 5.25273 15.3689 7.06058C15.3393 8.95723 16.8322 10.5046 18.7075 10.5212C20.5059 10.5378 22.0699 9.00458 22.09 7.20502C22.1113 5.33323 20.6243 3.82136 18.7407 3.79887Z" fill="#39B54A"/>
<path d="M18.3442 18.2725V27.6574C17.8055 27.5307 17.2953 27.4159 16.7873 27.2904C14.7392 26.7825 12.691 26.2711 10.6428 25.7596C9.97742 25.5938 9.89336 25.4826 9.89454 24.7971C9.89691 22.7915 9.89809 20.7859 9.90165 18.7804C9.90165 18.6975 9.91348 18.6134 9.92059 18.5045C11.14 18.7662 12.3393 19.0243 13.5387 19.2823C14.3437 19.4552 15.1488 19.6221 15.9515 19.8033C16.5506 19.9382 17.0395 19.7784 17.4361 19.3108C17.712 18.9864 17.9973 18.6691 18.343 18.2725H18.3442Z" fill="#39B54A"/>
<path d="M27.6334 18.5049C27.6334 19.6865 27.6334 20.829 27.6334 21.9714C27.6334 22.9186 27.6334 23.8669 27.6334 24.814C27.6334 25.3871 27.5363 25.5303 26.9455 25.6807C25.0643 26.1578 23.1806 26.6219 21.297 27.0884C20.608 27.2588 19.9189 27.4246 19.2109 27.5963V18.3486C19.5176 18.6967 19.7745 18.9714 20.0125 19.2626C20.4292 19.7717 20.9418 19.9398 21.5871 19.7966C23.4825 19.3786 25.3816 18.9773 27.2794 18.57C27.3836 18.5475 27.4889 18.5321 27.6334 18.5049Z" fill="#39B54A"/>
<path d="M7.99219 17.2253C9.06245 16.0426 10.0747 14.9107 11.7855 14.7107C13.1612 14.5496 14.518 14.2229 15.8819 13.9707C15.9399 13.9601 15.9991 13.9565 16.0867 13.947C16.1293 14.172 16.1707 14.3839 16.2169 14.6302C15.0152 14.8693 13.8479 15.1025 12.6805 15.3346C12.6817 15.3737 12.6841 15.4139 12.6853 15.453C13.2938 15.5607 13.9012 15.6708 14.5097 15.775C15.8546 16.0059 17.1948 16.2675 18.5457 16.4439C19.0122 16.5043 19.5094 16.3682 19.9865 16.2888C21.5505 16.0284 23.1109 15.7513 24.6725 15.4802C24.7175 15.4719 24.7601 15.453 24.8039 15.44C24.8086 15.4056 24.8134 15.3713 24.8181 15.337C23.646 15.1025 22.4739 14.8693 21.2687 14.629C21.3113 14.3957 21.3504 14.1838 21.3978 13.9316C22.1057 14.0725 22.7877 14.217 23.472 14.3401C24.2818 14.4857 25.0916 14.6455 25.9085 14.7426C26.9646 14.8681 27.7483 15.4589 28.4835 16.1444C28.8316 16.47 29.1418 16.8346 29.5159 17.2312C28.4421 17.4668 27.4429 17.6894 26.4413 17.9049C24.7719 18.266 23.1002 18.6152 21.4333 18.987C21.103 19.0604 20.8709 18.9953 20.6531 18.7372C20.0339 18.0067 19.3981 17.2904 18.7422 16.5363C18.2592 17.0939 17.801 17.635 17.3286 18.163C16.3791 19.2226 16.7568 19.1291 15.3171 18.8212C12.999 18.324 10.6821 17.8232 8.36394 17.3236C8.25739 17.3011 8.1532 17.2668 7.99219 17.2229V17.2253Z" fill="#39B54A"/>
<path d="M0.6715 31.3712C0.6715 30.4111 0.669133 29.4509 0.6715 28.4908C0.673868 27.7887 0.987608 27.4643 1.67784 27.4607C2.79783 27.4536 3.91782 27.4536 5.03781 27.4584C5.73751 27.4619 6.05362 27.784 6.0548 28.4777C6.05599 30.3981 6.05599 32.3184 6.0548 34.2387C6.0548 34.897 5.74225 35.2178 5.08872 35.2214C3.94387 35.2273 2.79901 35.2273 1.65416 35.2214C0.987609 35.219 0.673868 34.8946 0.6715 34.2139C0.667949 33.2655 0.6715 32.3184 0.6715 31.3701V31.3712ZM5.04965 33.7261C5.04373 33.404 4.76906 33.1377 4.45414 33.1507C4.1475 33.1637 3.90361 33.4194 3.90006 33.7308C3.89651 34.0576 4.15697 34.3263 4.47663 34.324C4.79392 34.3216 5.05439 34.0493 5.04847 33.7249L5.04965 33.7261Z" fill="#39B54A"/>
</svg>
