<svg width="31" height="27" viewBox="0 0 31 27" fill="none" xmlns="http://www.w3.org/2000/svg">
<path d="M15.4132 14.873C12.5787 14.8556 10.3282 12.5702 10.3478 9.72808C10.3663 6.95245 12.6724 4.69751 15.4742 4.71494C18.2586 4.73237 20.52 7.03197 20.5026 9.82503C20.4841 12.6225 18.1976 14.8905 15.4132 14.873ZM15.7749 13.5538C15.8522 13.5331 15.9089 13.519 15.9666 13.5026C16.8446 13.2608 17.4557 12.471 17.484 11.5386C17.5135 10.5625 17.0538 9.9209 16.0853 9.6137C15.7226 9.49932 15.3478 9.42525 14.9829 9.31631C14.2825 9.10934 14.0374 8.75748 14.0657 8.02871C14.0918 7.36204 14.642 6.7934 15.3043 6.74874C16.0189 6.70081 16.6344 7.17031 16.7498 7.85442C16.7651 7.9481 16.7673 8.04396 16.7803 8.13765C16.8065 8.31957 16.9579 8.45247 17.1355 8.45247C17.3206 8.45247 17.4786 8.31303 17.4917 8.12131C17.4982 8.01564 17.4949 7.90562 17.4764 7.80104C17.3174 6.91214 16.801 6.34024 15.935 6.0886C15.8239 6.05592 15.777 6.01562 15.7847 5.89688C15.7945 5.74873 15.7923 5.59949 15.7847 5.45134C15.7738 5.24654 15.6213 5.10166 15.4295 5.10057C15.2269 5.10057 15.0755 5.24654 15.0668 5.46223C15.0614 5.61038 15.0603 5.75962 15.0668 5.90886C15.0722 6.01126 15.0341 6.04938 14.935 6.07662C13.7313 6.41104 13.1005 7.55485 13.4448 8.76728C13.6398 9.45575 14.1507 9.79998 14.7923 9.99388C15.1561 10.1039 15.5309 10.1791 15.8947 10.2902C16.5603 10.4928 16.8152 10.8741 16.7738 11.5712C16.7259 12.3784 16.0058 12.9569 15.2084 12.8283C14.5831 12.7281 14.1354 12.2259 14.0831 11.5571C14.0711 11.4068 14.0461 11.2542 13.899 11.1987C13.7945 11.1595 13.6517 11.1584 13.5472 11.1954C13.3914 11.251 13.3533 11.4046 13.3565 11.5647C13.3729 12.4329 13.9905 13.2336 14.8391 13.4819C14.9121 13.5037 14.9851 13.5244 15.0537 13.5451C15.0537 13.7292 15.0537 13.9013 15.0537 14.0735C15.0526 14.3273 15.1921 14.495 15.4099 14.4972C15.6245 14.4994 15.7727 14.3327 15.777 14.08C15.7803 13.9079 15.777 13.7358 15.777 13.5495L15.7749 13.5538Z" fill="#39B54A"/>
<path d="M21.1833 10.528C21.387 8.46155 20.7051 6.74148 19.1484 5.34386C19.1866 5.33297 19.2116 5.32098 19.2367 5.31989C19.5951 5.29593 19.6343 5.248 19.7541 4.91902C19.8816 4.56825 20.0308 4.22402 20.1888 3.88523C20.2988 3.64994 20.2966 3.53338 20.1092 3.34274C19.8957 3.12596 19.68 2.91354 19.4665 2.69785C19.3206 2.5497 19.3206 2.468 19.4665 2.32203C19.7606 2.02682 20.0559 1.73379 20.3532 1.44076C20.5177 1.27954 20.5918 1.27954 20.7585 1.44076C20.972 1.64882 21.1811 1.86015 21.3925 2.06931C21.5842 2.25776 21.6964 2.25994 21.935 2.1521C22.3021 1.98543 22.6757 1.83183 23.0526 1.68913C23.2749 1.60525 23.3631 1.51374 23.3642 1.273C23.3664 0.969073 23.3642 0.666237 23.3653 0.362312C23.3664 0.130282 23.4219 0.0736363 23.6463 0.0725469C24.0635 0.0714576 24.4797 0.0703682 24.8969 0.0725469C25.1126 0.0725469 25.1714 0.131371 25.1725 0.349239C25.1747 0.646629 25.1725 0.944019 25.1725 1.2425C25.1725 1.5181 25.252 1.60416 25.5036 1.69893C25.8806 1.84163 26.2531 1.9985 26.6213 2.16408C26.837 2.26103 26.9623 2.25449 27.1344 2.08347C27.3501 1.86996 27.5625 1.65318 27.7793 1.43967C27.9372 1.28389 28.0113 1.28171 28.1693 1.4364C28.471 1.7327 28.7706 2.03118 29.068 2.33075C29.2063 2.47018 29.2074 2.55515 29.0712 2.69459C28.8512 2.92117 28.6268 3.1423 28.4078 3.36889C28.2313 3.55299 28.2335 3.65647 28.3359 3.88088C28.5026 4.24798 28.6584 4.62054 28.8011 4.99745C28.8904 5.23492 28.9841 5.32207 29.2433 5.32316C29.5473 5.32425 29.8501 5.32207 30.154 5.32316C30.3599 5.32425 30.4198 5.38416 30.4209 5.59005C30.4231 6.01271 30.4231 6.43538 30.4209 6.85804C30.4209 7.06284 30.3577 7.12711 30.1551 7.1282C29.8392 7.13037 29.5244 7.12602 29.2085 7.12929C28.9797 7.13146 28.8893 7.21861 28.8054 7.4343C28.6551 7.82102 28.4939 8.20446 28.325 8.58355C28.2401 8.77528 28.2455 8.91798 28.3947 9.07049C28.6148 9.29598 28.8414 9.51603 29.0625 9.74152C29.2096 9.89076 29.2096 9.97137 29.0625 10.1184C28.764 10.418 28.4645 10.7154 28.1627 11.0117C28.0157 11.1566 27.934 11.1555 27.7858 11.0084C27.5647 10.7916 27.349 10.5705 27.1278 10.3526C26.9536 10.1805 26.8403 10.1805 26.6148 10.2807C26.2357 10.4496 25.8501 10.6043 25.4633 10.7546C25.2705 10.8287 25.1747 10.9387 25.1725 11.1522C25.1703 11.4681 25.1725 11.7829 25.1725 12.0989C25.1714 12.3036 25.1115 12.3636 24.9045 12.3646C24.4818 12.3668 24.0592 12.3657 23.6365 12.3646C23.4241 12.3646 23.3653 12.3036 23.3642 12.0847C23.362 11.7873 23.3642 11.4899 23.3642 11.1914C23.3631 10.918 23.2803 10.833 23.0265 10.7404C22.6703 10.6097 22.3162 10.4681 21.9731 10.3069C21.6997 10.1783 21.5809 10.1773 21.3707 10.3897C21.3173 10.4431 21.2737 10.5051 21.2258 10.564C21.2116 10.5509 21.1986 10.5378 21.1844 10.5258L21.1833 10.528ZM24.2553 2.83838C22.4023 2.83838 20.8848 4.36019 20.8848 6.22296C20.8848 8.08028 22.4034 9.60317 24.2585 9.60535C26.118 9.60753 27.6442 8.09117 27.6464 6.23821C27.6485 4.35365 26.1387 2.84056 24.2553 2.83947V2.83838Z" fill="#39B54A"/>
<path d="M11.7189 5.33704C10.1437 6.74664 9.46507 8.46889 9.67313 10.5844C9.57618 10.4907 9.50755 10.4232 9.43892 10.3567C9.2679 10.1933 9.15243 10.189 8.94001 10.2837C8.56092 10.4526 8.17638 10.6094 7.78967 10.7598C7.58051 10.8404 7.49119 10.9406 7.48901 11.1683C7.48683 11.4776 7.48901 11.787 7.48792 12.0964C7.48683 12.3132 7.42801 12.3742 7.21341 12.3753C6.79074 12.3774 6.36808 12.3774 5.94542 12.3753C5.74062 12.3742 5.6818 12.3121 5.67962 12.1051C5.67744 11.7957 5.67962 11.4864 5.67853 11.177C5.67635 10.9373 5.59138 10.8436 5.36915 10.7576C4.98244 10.6073 4.59899 10.4471 4.21881 10.2794C4.03036 10.1966 3.89746 10.1988 3.74604 10.3415C3.52164 10.5539 3.30268 10.7739 3.08263 10.9907C2.90725 11.1628 2.83535 11.165 2.66759 10.9962C2.37238 10.702 2.07717 10.4079 1.78305 10.1127C1.63708 9.96673 1.63708 9.88503 1.78305 9.73688C1.99983 9.51574 2.22096 9.30005 2.43774 9.07892C2.60877 8.90462 2.61095 8.78371 2.51291 8.56475C2.34515 8.19111 2.18828 7.81311 2.04122 7.43075C1.95734 7.21179 1.86148 7.12029 1.62401 7.11702C1.32008 7.11266 1.01724 7.11702 0.713319 7.11702C0.480201 7.11702 0.425734 7.06364 0.424645 6.83597C0.423556 6.41984 0.423556 6.00262 0.424645 5.5865C0.424645 5.37625 0.480201 5.31961 0.687175 5.31852C0.996548 5.31634 1.30592 5.31961 1.61529 5.31634C1.86257 5.31416 1.95517 5.22593 2.04449 4.9939C2.19373 4.60718 2.35713 4.22482 2.52598 3.84464C2.60768 3.66054 2.60005 3.5222 2.45408 3.37296C2.2373 3.15182 2.01617 2.93614 1.7983 2.71609C1.63381 2.55051 1.63272 2.47425 1.79285 2.31303C2.08698 2.01782 2.38219 1.7237 2.67849 1.43067C2.83208 1.27925 2.9127 1.28034 3.06956 1.43503C3.28961 1.6518 3.50856 1.87185 3.72861 2.08863C3.89419 2.25203 4.01837 2.25639 4.22753 2.16379C4.60662 1.99495 4.99006 1.8359 5.37787 1.68666C5.58593 1.60714 5.67962 1.50583 5.68071 1.28143C5.68288 0.96552 5.67962 0.650702 5.68071 0.334793C5.68179 0.139801 5.74498 0.0744409 5.93561 0.0733516C6.37026 0.0711729 6.8049 0.0700836 7.23955 0.0733516C7.42147 0.0744409 7.48683 0.139801 7.48901 0.321721C7.49228 0.631093 7.48901 0.940466 7.4901 1.24984C7.4901 1.51346 7.57289 1.60169 7.81472 1.6932C8.19163 1.8359 8.56419 1.99277 8.93238 2.15835C9.14589 2.2553 9.27661 2.25203 9.44764 2.08318C9.66442 1.87076 9.87684 1.65289 10.0925 1.44047C10.2505 1.28361 10.3322 1.28034 10.4836 1.43067C10.7919 1.73677 11.0947 2.04832 11.403 2.35443C11.5207 2.47099 11.5163 2.57883 11.4019 2.69321C11.1742 2.9198 10.9466 3.14638 10.7211 3.37514C10.5566 3.54181 10.5522 3.66163 10.6481 3.87297C10.8115 4.23463 10.9705 4.59956 11.1089 4.97211C11.2102 5.24553 11.2843 5.3207 11.5849 5.32723C11.6187 5.32723 11.6514 5.33159 11.7244 5.33704H11.7189ZM6.55 2.83701C4.70684 2.84354 3.19592 4.37079 3.20028 6.22267C3.20464 8.08653 4.72209 9.60616 6.57505 9.60289C8.45416 9.59962 9.97052 8.07564 9.96072 6.19762C9.952 4.33158 8.42693 2.82938 6.55 2.83592V2.83701Z" fill="#39B54A"/>
<path d="M25.3154 19.5215H16.0429V21.4747H14.8185V19.5259H5.55694V21.4758H4.31836C4.31836 21.4279 4.31836 21.3603 4.31836 21.2928C4.31836 20.5422 4.31836 19.7928 4.31836 19.0422C4.31836 18.4986 4.54494 18.2677 5.08525 18.2677C8.23998 18.2677 11.3958 18.2677 14.5505 18.2677H14.8087V15.5781H16.0516V18.2579C16.1366 18.2623 16.1998 18.2677 16.263 18.2677C19.4417 18.2677 22.6203 18.2677 25.8001 18.2677C26.323 18.2677 26.5463 18.4954 26.5452 19.0204C26.5441 19.7764 26.5452 20.5324 26.5452 21.2884C26.5452 21.3527 26.5452 21.417 26.5452 21.4725H25.3154V19.5204V19.5215Z" fill="#39B54A"/>
<path d="M25.9084 22.167C27.1328 22.167 28.1241 23.1528 28.1284 24.3773C28.1328 25.5941 27.1328 26.5875 25.9073 26.5843C24.6905 26.581 23.7112 25.5973 23.709 24.3762C23.7068 23.1637 24.697 22.1681 25.9084 22.167Z" fill="#39B54A"/>
<path d="M7.13555 24.3899C7.12793 25.6154 6.13445 26.5926 4.90568 26.5849C3.69324 26.5773 2.69977 25.5708 2.71502 24.3659C2.73027 23.135 3.7183 22.1644 4.94816 22.1709C6.1606 22.1775 7.14318 23.1742 7.13555 24.3899Z" fill="#39B54A"/>
<path d="M15.4398 22.1691C16.662 22.1821 17.6468 23.1843 17.6348 24.4033C17.6217 25.6223 16.6141 26.6027 15.3907 26.5842C14.1761 26.5667 13.1946 25.5591 13.2131 24.3521C13.2328 23.1342 14.2306 22.156 15.4398 22.1691Z" fill="#39B54A"/>
<path d="M6.58032 3.55762C5.11516 3.55653 3.92124 4.74718 3.91798 6.21234C3.91471 7.68621 5.10862 8.88557 6.58141 8.88557C8.04439 8.88557 9.24157 7.69275 9.24593 6.22977C9.25029 4.75589 8.05637 3.55871 6.58141 3.55762H6.58032Z" fill="#39B54A"/>
<path d="M24.2737 3.55665C25.7422 3.55992 26.9317 4.75165 26.9295 6.2179C26.9274 7.69505 25.7356 8.88678 24.2596 8.88569C22.7922 8.88569 21.5961 7.67871 21.6016 6.20483C21.607 4.74294 22.8075 3.55338 24.2726 3.55665H24.2737Z" fill="#39B54A"/>
<path d="M6.5775 3.55762C8.05247 3.55871 9.24638 4.75698 9.24203 6.22977C9.23767 7.69275 8.04157 8.88667 6.5775 8.88558C5.10581 8.88558 3.9108 7.68622 3.91407 6.21234C3.91734 4.74718 5.11234 3.55544 6.57641 3.55762H6.5775Z" fill="#39B54A"/>
</svg>
