<svg width="31" height="28" viewBox="0 0 31 28" fill="none" xmlns="http://www.w3.org/2000/svg">
<path d="M11.1304 0.694336C11.2856 0.761428 11.4498 0.814501 11.594 0.899618C11.8133 1.0298 11.9675 1.22707 12.0767 1.47341C12.1177 1.46339 12.1558 1.45338 12.1948 1.44337C12.6795 1.31118 13.1101 1.40431 13.4746 1.7588C13.6068 1.88798 13.733 2.02416 13.8681 2.14934C14.3088 2.5579 14.4239 3.04657 14.2377 3.62537C14.2737 3.64639 14.3118 3.66943 14.3508 3.69146C14.6953 3.88172 14.9086 4.17112 14.9867 4.55564C15.0067 4.65278 15.0428 4.68182 15.1409 4.68182C19.1965 4.67982 23.253 4.67981 27.3086 4.67981C27.3447 4.67981 27.3817 4.67581 27.4388 4.67281C27.4388 4.61973 27.4388 4.57067 27.4388 4.5226C27.4388 3.98586 27.4368 3.45012 27.4388 2.91339C27.4398 2.69008 27.577 2.51985 27.7853 2.46677C27.9996 2.4127 28.2169 2.49882 28.315 2.69409C28.3541 2.77319 28.3701 2.87133 28.3701 2.96045C28.3751 3.58932 28.3721 4.21818 28.3721 4.84705C28.3721 9.56854 28.3721 14.291 28.3681 19.0125C28.3681 19.1357 28.337 19.2729 28.276 19.377C28.1718 19.5533 27.9585 19.6093 27.7622 19.5493C27.581 19.4942 27.4398 19.3079 27.4388 19.1097C27.4368 18.5829 27.4388 18.0552 27.4388 17.5285C27.4388 17.4734 27.4388 17.4193 27.4388 17.3432H27.2666C26.12 17.3432 24.9724 17.3422 23.8258 17.3452C23.7247 17.3452 23.6576 17.3182 23.5915 17.2381C23.2781 16.8606 22.8785 16.6132 22.4049 16.485C22.3638 16.474 22.3248 16.46 22.2847 16.447C22.2867 16.433 22.2897 16.418 22.2917 16.4039H27.4308V11.4932C27.3817 11.4902 27.3377 11.4842 27.2936 11.4842C26.3733 11.4842 25.4531 11.4852 24.5328 11.4812C24.4277 11.4812 24.3826 11.5042 24.3596 11.6174C24.2805 12.0019 24.0562 12.2853 23.7137 12.4745C23.6856 12.4906 23.6576 12.5066 23.6296 12.5226C23.6256 12.5246 23.6246 12.5306 23.6556 12.5336C23.6646 12.7659 23.6916 12.9993 23.6766 13.2296C23.6586 13.5009 23.5214 13.7293 23.3302 13.9225C23.1679 14.0877 23.0047 14.251 22.8395 14.4122C22.6883 14.5594 22.51 14.6625 22.3067 14.7136C22.2387 14.4092 22.1726 14.1098 22.1095 13.8274C22.2837 13.6431 22.462 13.4559 22.6402 13.2686C22.7844 13.1164 22.7974 12.9582 22.6642 12.799C22.5511 12.6648 22.5411 12.5316 22.6152 12.3764C22.6843 12.2302 22.7433 12.08 22.8004 11.9288C22.8555 11.7806 22.9476 11.6925 23.1129 11.6774C23.3382 11.6574 23.4483 11.5292 23.4503 11.2999C23.4513 11.1056 23.4513 10.9114 23.4503 10.7171C23.4493 10.4948 23.3412 10.3676 23.1239 10.3456C22.9556 10.3296 22.8555 10.2435 22.7984 10.0883C22.7413 9.93204 22.6783 9.77782 22.6082 9.62762C22.5421 9.48642 22.5561 9.36225 22.6492 9.23908C22.8054 9.0338 22.7934 8.90262 22.6092 8.71737C22.475 8.58318 22.3418 8.448 22.2076 8.31481C22.0514 8.1606 21.8952 8.14658 21.7279 8.28477C21.5928 8.39592 21.4596 8.40594 21.3044 8.33284C21.1582 8.26374 21.008 8.20266 20.8568 8.14758C20.7055 8.09251 20.6224 7.99637 20.6064 7.83415C20.5834 7.60784 20.4572 7.49969 20.2289 7.49869C20.0296 7.49869 19.8313 7.49669 19.6321 7.49869C19.4228 7.50169 19.2916 7.61685 19.2746 7.82614C19.2606 7.99738 19.1724 8.09351 19.0182 8.14959C18.867 8.20566 18.7168 8.26675 18.5706 8.33484C18.4204 8.40494 18.2892 8.39592 18.159 8.28878C17.9848 8.14558 17.8296 8.1586 17.6684 8.31882C17.5242 8.46202 17.379 8.60521 17.2378 8.75141C17.0936 8.89962 17.0846 9.06084 17.2177 9.22206C17.3289 9.35624 17.3409 9.48943 17.2648 9.64464C17.1937 9.78984 17.1326 9.94005 17.0786 10.0923C17.0245 10.2445 16.9274 10.3266 16.7661 10.3436C16.5438 10.3666 16.4337 10.4878 16.4317 10.7071C16.4297 10.9104 16.4297 11.1137 16.4317 11.3179C16.4337 11.5282 16.5468 11.6584 16.7581 11.6764C16.9294 11.6905 17.0255 11.7766 17.0816 11.9328C17.1366 12.085 17.1977 12.2342 17.2678 12.3804C17.3399 12.5306 17.3269 12.6618 17.2218 12.792C17.0796 12.9692 17.0896 13.1194 17.2518 13.2826C17.415 13.4469 17.5812 13.6061 17.7445 13.7713C17.7655 13.7933 17.7875 13.8344 17.7815 13.8594C17.7124 14.1398 17.6363 14.4192 17.5602 14.7116C17.381 14.6685 17.2057 14.5714 17.0575 14.4292C16.8773 14.256 16.698 14.0817 16.5278 13.8995C16.2034 13.55 16.1122 13.1374 16.2264 12.6768C16.2374 12.6327 16.2524 12.5887 16.2684 12.5316C15.8288 12.3233 15.5655 11.9768 15.4894 11.4932H3.0733V16.3889C3.12337 16.3919 3.16743 16.3979 3.2125 16.3979C4.13276 16.3979 5.05303 16.3969 5.97329 16.4009C6.08044 16.4009 6.12149 16.3739 6.14453 16.2637C6.22363 15.8912 6.43493 15.6098 6.76738 15.4206C6.80644 15.3986 6.84649 15.3755 6.84849 15.3475C6.83948 15.1152 6.81144 14.8818 6.82646 14.6515C6.84449 14.3791 6.98468 14.1518 7.17294 13.9576C7.33016 13.7953 7.48837 13.6321 7.6536 13.4769C8.02111 13.1314 8.4517 13.0333 8.93737 13.1665C8.96841 13.1745 8.99845 13.1845 9.0385 13.1975C9.06053 13.1625 9.08357 13.1284 9.10259 13.0934C9.33491 12.6768 9.6904 12.4445 10.1641 12.4185C10.4545 12.4024 10.7479 12.4024 11.0373 12.4275C11.4839 12.4665 11.8143 12.7038 12.0276 13.0964C12.0707 13.1755 12.1067 13.1955 12.1978 13.1695C12.6935 13.0263 13.1291 13.1394 13.4986 13.4999C13.6408 13.6391 13.78 13.7813 13.9202 13.9215C14.3047 14.3091 14.4169 14.7627 14.2537 15.2834C14.2487 15.3004 14.2447 15.3184 14.2367 15.3515C14.6743 15.5598 14.9376 15.9062 15.0167 16.3959H17.5863V17.3402H15.0177C14.9386 17.8289 14.6883 18.1794 14.2517 18.3817C14.2767 18.5379 14.3138 18.6851 14.3228 18.8353C14.3428 19.2008 14.2166 19.5162 13.9623 19.7776C13.8081 19.9368 13.6498 20.093 13.4916 20.2482C13.1131 20.6197 12.6675 20.7169 12.1628 20.5657C12.1448 20.5606 12.1278 20.5556 12.1097 20.5506C12.1057 20.5496 12.1007 20.5506 12.1037 20.5506C12.0086 20.6808 11.9275 20.816 11.8223 20.9302C11.582 21.1915 11.2786 21.3227 10.9221 21.3247C10.6958 21.3247 10.4685 21.3247 10.2422 21.3247C9.72144 21.3227 9.34392 21.0824 9.09458 20.6317C9.07956 20.6037 9.06154 20.5777 9.06254 20.5787C8.83222 20.5957 8.62193 20.6287 8.41365 20.6207C8.12625 20.6097 7.87991 20.4805 7.67363 20.2803C7.51842 20.1281 7.36621 19.9728 7.21199 19.8196C6.82747 19.4391 6.71831 18.9885 6.87152 18.4718C6.87753 18.4497 6.88554 18.4287 6.89656 18.3947C6.8505 18.3696 6.80744 18.3456 6.76438 18.3216C6.42892 18.1283 6.21963 17.8419 6.14052 17.4634C6.1245 17.3893 6.11148 17.3412 6.01335 17.3412C5.06104 17.3452 4.10773 17.3442 3.15542 17.3442C3.13239 17.3442 3.11035 17.3482 3.0713 17.3522C3.0693 17.4023 3.06529 17.4514 3.06529 17.5004C3.06529 18.0232 3.06529 18.5459 3.06529 19.0686C3.06529 19.371 2.87503 19.5703 2.59364 19.5693C2.31626 19.5693 2.13001 19.364 2.13001 19.0596C2.13001 13.7042 2.13201 8.34886 2.125 2.9935C2.125 2.57392 2.45946 2.39568 2.71381 2.46577C2.92911 2.52585 3.06429 2.69709 3.06429 2.93742C3.06429 3.45513 3.06429 3.97385 3.06429 4.49156C3.06429 4.54663 3.06429 4.60171 3.06429 4.6718C3.12237 4.67481 3.17144 4.68082 3.22051 4.68082C4.13576 4.68082 5.05202 4.67881 5.96728 4.68382C6.08044 4.68382 6.1245 4.65678 6.14653 4.53862C6.21963 4.14808 6.44394 3.88272 6.88655 3.63137C6.86452 3.53624 6.83648 3.44011 6.82146 3.34097C6.75737 2.9204 6.87253 2.55389 7.16793 2.24647C7.31814 2.09026 7.47435 1.93805 7.62857 1.78484C8.00809 1.40631 8.4567 1.30317 8.96741 1.45538C8.98944 1.46139 9.01147 1.4684 9.0355 1.47541C9.1116 1.36326 9.1777 1.2471 9.26081 1.14395C9.45608 0.898617 9.72745 0.775448 10.0229 0.696339C10.3924 0.696339 10.7629 0.696339 11.1324 0.696339L11.1304 0.694336ZM9.0365 8.82251C8.44569 9.01678 7.95401 8.88059 7.54145 8.43398C7.42529 8.3078 7.30011 8.19164 7.17995 8.06948C6.98969 7.87621 6.8495 7.6489 6.82847 7.37853C6.81044 7.1442 6.83948 6.90588 6.84749 6.66955C6.87553 6.66655 6.87453 6.66154 6.87052 6.65954C6.83848 6.64051 6.80644 6.62249 6.77439 6.60446C6.44093 6.4182 6.22564 6.13882 6.14453 5.76731C6.11949 5.65215 6.07944 5.62011 5.96528 5.62111C5.05002 5.62612 4.13376 5.62311 3.2185 5.62411C3.17044 5.62411 3.12137 5.63012 3.06229 5.63413C3.06229 5.70823 3.06229 5.76731 3.06229 5.82739C3.06229 7.33947 3.06429 8.85155 3.05928 10.3636C3.05928 10.5028 3.09333 10.5429 3.23453 10.5419C4.55234 10.5369 5.87015 10.5389 7.18796 10.5389C9.88867 10.5389 12.5894 10.5389 15.2901 10.5419C15.4283 10.5419 15.4954 10.5198 15.5284 10.3626C15.6045 10.0001 15.8278 9.73476 16.1493 9.55151C16.1883 9.52948 16.2264 9.50845 16.2634 9.48843C16.0732 8.89661 16.1993 8.40193 16.652 7.99137C16.7822 7.87321 16.9003 7.74203 17.0245 7.61886C17.2137 7.4316 17.4371 7.29341 17.7034 7.27438C17.9377 7.25736 18.1761 7.2844 18.4124 7.29241C18.4384 7.29441 18.4575 7.25936 18.4785 7.22331C18.7278 6.79172 19.1013 6.56541 19.601 6.55439C19.8233 6.54938 20.0446 6.55039 20.2669 6.55439C20.7716 6.56441 21.1492 6.79172 21.3985 7.23132C21.4185 7.26637 21.4396 7.30042 21.4606 7.33547C21.4916 7.32745 21.5147 7.32145 21.5357 7.31544C22.0524 7.16223 22.502 7.27038 22.8835 7.65491C23.0267 7.7991 23.1729 7.9413 23.3151 8.0865C23.6676 8.449 23.7738 8.87658 23.6446 9.36325C23.6336 9.40631 23.6206 9.44937 23.6095 9.48742C24.0501 9.73577 24.2815 10.0091 24.3546 10.3987C24.3776 10.5198 24.4287 10.5419 24.5368 10.5409C25.4521 10.5379 26.3683 10.5389 27.2836 10.5389C27.3317 10.5389 27.3807 10.5329 27.4238 10.5299V5.62411C27.3517 5.62411 27.2926 5.62411 27.2335 5.62411C23.4323 5.62411 19.6311 5.62411 15.8298 5.62411C15.6075 5.62411 15.3852 5.63012 15.1639 5.62211C15.0538 5.6181 15.0007 5.64114 14.9807 5.7633C14.9436 5.98661 14.8415 6.18789 14.6773 6.3441C14.5451 6.47028 14.3939 6.57442 14.2417 6.69559C14.2507 6.72763 14.2647 6.7757 14.2767 6.82476C14.3899 7.2864 14.2907 7.69696 13.9683 8.04644C13.8051 8.22269 13.6328 8.39092 13.4586 8.55614C13.2102 8.79247 12.9128 8.92065 12.5674 8.90663C12.4041 8.89962 12.2419 8.86357 12.0727 8.84053C12.0657 8.85355 12.0547 8.87358 12.0436 8.89361C11.7873 9.36826 11.3907 9.60859 10.85 9.60659C10.6327 9.60659 10.4154 9.61059 10.1981 9.60459C9.79454 9.59457 9.46609 9.42634 9.21775 9.10991C9.14966 9.02379 9.09859 8.92465 9.0345 8.82451L9.0365 8.82251ZM8.54483 14.0267C8.45971 14.0767 8.37159 14.1098 8.3065 14.1689C8.15629 14.306 8.0161 14.4533 7.8739 14.5985C7.71368 14.7607 7.70367 14.9149 7.84587 15.0891C7.947 15.2143 7.96303 15.3415 7.89493 15.4877C7.82484 15.6379 7.75975 15.7921 7.70467 15.9483C7.64859 16.1065 7.54746 16.1886 7.38123 16.2047C7.16593 16.2257 7.05478 16.3549 7.05478 16.5752C7.05478 16.7694 7.05478 16.9637 7.05478 17.158C7.05578 17.3873 7.16393 17.5125 7.39024 17.5345C7.55346 17.5505 7.64859 17.6376 7.70367 17.7868C7.75975 17.938 7.81983 18.0893 7.88993 18.2344C7.96503 18.3907 7.94901 18.5249 7.84086 18.659C7.70467 18.8273 7.71569 18.9825 7.8699 19.1407C8.00508 19.2799 8.14327 19.4171 8.28146 19.5533C8.45771 19.7255 8.5989 19.7325 8.79517 19.5803C8.91233 19.4892 9.0335 19.4742 9.17069 19.5352C9.33491 19.6083 9.50214 19.6774 9.66937 19.7425C9.80255 19.7946 9.87966 19.8857 9.89769 20.0289C9.92973 20.2813 10.0359 20.3814 10.2842 20.3884C10.4735 20.3934 10.6637 20.3934 10.853 20.3884C11.0913 20.3814 11.2075 20.2733 11.2325 20.0349C11.2485 19.8837 11.3277 19.7926 11.4668 19.7395C11.6311 19.6764 11.7933 19.6103 11.9535 19.5382C12.0957 19.4742 12.2189 19.4892 12.34 19.5863C12.5243 19.7325 12.6725 19.7245 12.8427 19.5593C12.9789 19.4281 13.1121 19.2929 13.2453 19.1577C13.4165 18.9835 13.4265 18.8343 13.2753 18.644C13.1782 18.5218 13.1672 18.3957 13.2293 18.2555C13.2984 18.0993 13.3675 17.9431 13.4275 17.7828C13.4846 17.6326 13.5817 17.5515 13.745 17.5365C13.9573 17.5175 14.0714 17.3903 14.0724 17.181C14.0744 16.9777 14.0744 16.7744 14.0724 16.5702C14.0704 16.3479 13.9633 16.2267 13.741 16.2057C13.5787 16.1896 13.4816 16.1075 13.4275 15.9563C13.3745 15.8081 13.3184 15.6609 13.2473 15.5217C13.1642 15.3575 13.1742 15.2173 13.2954 15.0751C13.4215 14.9259 13.4085 14.7557 13.2703 14.6145C13.1311 14.4723 12.9909 14.3321 12.8487 14.1929C12.6695 14.0177 12.5333 14.0066 12.336 14.1588C12.2069 14.258 12.0787 14.263 11.9345 14.1969C11.7923 14.1308 11.6471 14.0687 11.4999 14.0156C11.3407 13.9586 11.2465 13.8654 11.2295 13.6872C11.2085 13.4669 11.0823 13.3607 10.859 13.3567C10.6697 13.3537 10.4795 13.3547 10.2902 13.3567C10.0409 13.3587 9.92773 13.4579 9.89769 13.7082C9.87966 13.8574 9.80356 13.9506 9.66236 14.0036C9.50214 14.0627 9.34292 14.1268 9.18771 14.1979C9.04251 14.265 8.91534 14.254 8.78616 14.1558C8.71907 14.1048 8.63595 14.0757 8.54382 14.0277L8.54483 14.0267ZM10.5676 8.66029C10.6557 8.66029 10.7428 8.66029 10.831 8.66029C11.0903 8.65929 11.2035 8.56115 11.2335 8.3048C11.2505 8.1606 11.3246 8.07048 11.4598 8.01941C11.615 7.96133 11.7723 7.90425 11.9205 7.83015C12.0807 7.75004 12.2159 7.76205 12.3561 7.87421C12.5213 8.00739 12.6725 7.99637 12.8257 7.84817C12.9719 7.70698 13.1151 7.56278 13.2583 7.41758C13.4145 7.25936 13.4235 7.09814 13.2813 6.9249C13.1782 6.79973 13.1662 6.67255 13.2343 6.52635C13.3034 6.38015 13.3685 6.23195 13.4195 6.07874C13.4746 5.91451 13.5767 5.8294 13.75 5.81037C13.9723 5.78534 14.0714 5.66517 14.0734 5.43786C14.0744 5.2486 14.0734 5.05833 14.0734 4.86907C14.0724 4.62374 13.9773 4.51158 13.736 4.48254C13.5747 4.46252 13.4796 4.3784 13.4245 4.22719C13.3695 4.07498 13.3074 3.92578 13.2383 3.77958C13.1642 3.62436 13.1782 3.49018 13.2893 3.356C13.4205 3.19778 13.4115 3.03255 13.2683 2.88435C13.1301 2.74115 12.9889 2.60096 12.8467 2.46277C12.6695 2.28953 12.5273 2.28352 12.334 2.43673C12.2179 2.52886 12.0967 2.54488 11.9595 2.48179C11.8043 2.4107 11.6471 2.3416 11.4869 2.28452C11.3297 2.22845 11.2455 2.13231 11.2305 1.96208C11.2125 1.75179 11.0853 1.63863 10.873 1.63263C10.6697 1.62662 10.4665 1.62662 10.2632 1.63263C10.0399 1.63863 9.91872 1.74879 9.89869 1.96909C9.88367 2.13231 9.80155 2.22845 9.65034 2.28252C9.49814 2.3376 9.34793 2.39668 9.20273 2.46777C9.04752 2.54288 8.91433 2.53487 8.78015 2.42371C8.61392 2.28552 8.4547 2.29654 8.29849 2.44775C8.15529 2.58594 8.0151 2.72713 7.87691 2.86933C7.71268 3.03756 7.70567 3.18376 7.85388 3.37202C7.95001 3.49419 7.96403 3.61936 7.89994 3.75955C7.83285 3.90675 7.76576 4.05395 7.71268 4.20616C7.6546 4.37239 7.55547 4.46552 7.37322 4.48254C7.16192 4.50257 7.05678 4.63175 7.05578 4.84705C7.05478 5.03631 7.05578 5.22657 7.05578 5.41583C7.05578 5.66617 7.15191 5.78133 7.40025 5.81237C7.55547 5.8324 7.6496 5.91051 7.70167 6.05771C7.75574 6.20992 7.81582 6.36113 7.88692 6.50533C7.96603 6.66555 7.95301 6.80173 7.83585 6.93892C7.70767 7.09013 7.71969 7.25536 7.85788 7.39955C7.99307 7.53875 8.13126 7.67493 8.26845 7.81212C8.45971 8.00238 8.58588 8.0124 8.80018 7.85118C8.91934 7.76205 9.04051 7.74904 9.17669 7.81212C9.31889 7.87821 9.46209 7.9443 9.61129 7.99337C9.78954 8.05245 9.88867 8.1566 9.9047 8.34986C9.92072 8.54613 10.0499 8.65228 10.2492 8.65728C10.3553 8.66029 10.4615 8.65728 10.5686 8.65728L10.5676 8.66029Z" fill="#39B54A"/>
<path d="M21.788 27.8902C21.5367 27.8381 21.2813 27.7991 21.034 27.731C19.7322 27.3755 18.7478 26.6034 18.1019 25.4198C17.433 24.1951 16.7841 22.9594 16.1312 21.7257C15.931 21.3482 15.7838 20.9486 15.7347 20.5201C15.6756 20.0023 15.7677 19.5287 16.2324 19.2223C16.7471 18.8838 17.2908 18.8708 17.8095 19.2163C18.0639 19.3865 18.2852 19.6058 18.5325 19.8131V19.6829C18.5325 18.0417 18.5285 16.3994 18.5345 14.7581C18.5365 14.1773 18.8139 13.7427 19.3316 13.4934C19.8564 13.2411 20.3711 13.3061 20.8287 13.6706C21.1782 13.949 21.3484 14.3235 21.3494 14.7722C21.3494 15.5813 21.3494 16.3904 21.3494 17.2005C21.3494 17.2646 21.3494 17.3287 21.3494 17.3988C22.2366 17.2065 22.8455 17.5269 23.1849 18.3551C24.1593 18.1668 24.6499 18.4112 25.0575 19.2974C25.0986 19.2874 25.1416 19.2764 25.1847 19.2653C26.0629 19.028 26.9421 19.6378 26.9661 20.5471C26.9922 21.5545 27.0082 22.5659 26.9471 23.5703C26.8189 25.6561 25.2077 27.4246 23.1509 27.8091C23.0017 27.8371 22.8535 27.8642 22.7043 27.8912H21.789L21.788 27.8902ZM20.4041 18.3891C20.4041 17.7553 20.4041 17.1224 20.4041 16.4885C20.4041 15.9247 20.4051 15.36 20.4041 14.7962C20.4041 14.5609 20.2789 14.3826 20.0767 14.3185C19.7612 14.2194 19.4778 14.4517 19.4778 14.8102C19.4778 17.0303 19.4778 19.2493 19.4778 21.4694C19.4778 21.7798 19.3487 21.9691 19.1013 22.0231C18.861 22.0742 18.6767 21.949 18.5375 21.6827C18.3643 21.3522 18.1831 21.0228 17.9788 20.7103C17.7865 20.4159 17.5612 20.1445 17.2398 19.9733C17.0685 19.8822 16.9043 19.9062 16.7581 20.0174C16.6399 20.1075 16.656 20.2477 16.67 20.3769C16.706 20.7233 16.8392 21.0388 17.0004 21.3412C17.6163 22.4998 18.2361 23.6574 18.852 24.816C19.569 26.1628 20.6805 26.8968 22.2116 26.9419C24.1372 26.999 25.8676 25.4629 25.9998 23.5392C26.0669 22.5629 26.0268 21.5795 26.0278 20.6002C26.0278 20.3929 25.8706 20.2207 25.6734 20.1716C25.3739 20.0975 25.1016 20.3258 25.1006 20.6583C25.0976 21.2691 25.1016 21.8789 25.0986 22.4898C25.0976 22.7672 24.8913 22.9714 24.6289 22.9694C24.3616 22.9674 24.1623 22.7682 24.1543 22.4918C24.1513 22.3856 24.1543 22.2795 24.1543 22.1723C24.1543 21.3542 24.1543 20.5351 24.1543 19.717C24.1543 19.4836 24.0361 19.3124 23.8388 19.2453C23.5314 19.1402 23.231 19.3635 23.229 19.7069C23.226 20.47 23.229 21.233 23.228 21.9961C23.228 22.2885 23.0207 22.5058 22.7523 22.5028C22.478 22.4998 22.2817 22.2885 22.2817 21.9931C22.2817 21.5074 22.2817 21.0218 22.2817 20.5361C22.2817 19.9533 22.2817 19.3705 22.2807 18.7877C22.2807 18.5554 22.1735 18.3891 21.9843 18.315C21.6668 18.1899 21.3514 18.4232 21.3504 18.7877C21.3484 19.8051 21.3504 20.8225 21.3504 21.8399C21.3504 21.918 21.3534 21.9971 21.3464 22.0752C21.3214 22.3546 21.057 22.5478 20.7836 22.4888C20.5443 22.4377 20.4051 22.2544 20.4051 21.9811C20.4051 20.7834 20.4051 19.5858 20.4051 18.3881L20.4041 18.3891Z" fill="#39B54A"/>
<path d="M0.252003 1.49776C0.427244 1.19835 0.624515 1.10122 0.878864 1.18734C1.05411 1.24642 1.17728 1.40664 1.18929 1.59089C1.19129 1.62294 1.18929 1.65598 1.18929 1.68803C1.18929 7.90257 1.18929 14.1171 1.18929 20.3317C1.18929 20.608 1.06712 20.7843 0.834804 20.8434C0.630524 20.8954 0.418231 20.8063 0.310082 20.6251C0.292058 20.594 0.270028 20.565 0.25 20.5349C0.25 14.1892 0.25 7.84449 0.25 1.49877L0.252003 1.49776Z" fill="#39B54A"/>
<path d="M30.2503 20.5344C30.2012 20.5995 30.1602 20.6736 30.1011 20.7287C29.9569 20.8639 29.7846 20.8979 29.6004 20.8198C29.4171 20.7427 29.321 20.5995 29.311 20.4002C29.31 20.3772 29.311 20.3542 29.311 20.3311C29.311 14.1166 29.311 7.90206 29.311 1.68751C29.311 1.3851 29.4692 1.18582 29.7306 1.16179C29.9899 1.13776 30.1431 1.28196 30.2493 1.49725V20.5334L30.2503 20.5344Z" fill="#39B54A"/>
<path d="M19.941 8.89358C21.1307 8.92262 22.0399 9.82786 22.0489 10.9995C22.0549 11.6934 21.7635 12.2592 21.2168 12.6908C21.1577 12.7379 21.1116 12.7399 21.0435 12.7048C20.3095 12.3233 19.5725 12.3213 18.8375 12.7008C18.7664 12.7379 18.7184 12.7369 18.6523 12.6868C17.9563 12.1591 17.6589 11.2368 17.9152 10.3906C18.1676 9.55849 18.9216 8.95667 19.7808 8.90259C19.8409 8.89859 19.901 8.89458 19.94 8.89258L19.941 8.89358ZM19.951 9.83988C19.3162 9.82786 18.7744 10.3606 18.7664 11.0065C18.7584 11.6283 19.2861 12.1661 19.917 12.1801C20.5539 12.1941 21.0986 11.6634 21.1076 11.0195C21.1166 10.3876 20.5909 9.8529 19.95 9.83988H19.951Z" fill="#39B54A"/>
<path d="M10.5632 14.7607C11.7368 14.7607 12.6801 15.704 12.6801 16.8767C12.6801 18.0342 11.7268 18.9835 10.5642 18.9825C9.39962 18.9825 8.45533 18.0423 8.44732 16.8777C8.4393 15.7141 9.39161 14.7607 10.5632 14.7607ZM10.5702 15.704C9.92635 15.704 9.39963 16.2208 9.39262 16.8596C9.38561 17.5005 9.92034 18.0382 10.5642 18.0372C11.2031 18.0372 11.7308 17.5115 11.7348 16.8726C11.7388 16.2358 11.2091 15.704 10.5702 15.704Z" fill="#39B54A"/>
<path d="M10.5681 7.25804C9.39752 7.25904 8.44321 6.30673 8.45122 5.14213C8.45923 3.97653 9.40253 3.03423 10.5651 3.03223C11.7257 3.03123 12.681 3.98153 12.683 5.13812C12.685 6.30973 11.7407 7.25603 10.5691 7.25704L10.5681 7.25804ZM10.5601 6.31474C11.195 6.32275 11.7267 5.80003 11.7377 5.15815C11.7488 4.52228 11.211 3.98053 10.5671 3.97753C9.93426 3.97552 9.40253 4.50525 9.39652 5.14413C9.39051 5.778 9.91624 6.30673 10.5601 6.31474Z" fill="#39B54A"/>
</svg>
