<svg width="198" height="269" viewBox="0 0 198 269" fill="none" xmlns="http://www.w3.org/2000/svg">
<g clip-path="url(#clip0_217_1241)">
<path d="M0.254979 240.103L0.689529 273.575L232.242 407.463V374.282L0.254979 240.103Z" fill="#23322D"/>
<path d="M230.505 107.518L0.257774 240.102L232.244 374.279L462.347 241.261L230.505 107.518Z" fill="#F1F9F6"/>
<path d="M34.1627 216.34L34.4524 245.03L232.098 359.357V330.957L34.1627 216.34Z" fill="#D5EFE7"/>
<path d="M230.648 103.169L34.1619 216.337L232.097 330.953L428.438 217.351L230.648 103.169Z" fill="#D5EFE7"/>
<path d="M87.3412 216.624L230.793 133.886L375.26 217.349L231.952 300.233L98.3535 223L87.3412 216.624Z" fill="#23322D"/>
<path d="M34.1661 216.339L34.4558 245.029L232.101 359.356V330.956L34.1661 216.339Z" fill="#23322D"/>
<path d="M230.793 133.888L87.3406 216.626L231.952 300.234L375.259 217.351L230.793 133.888Z" fill="#97D6C3"/>
<path d="M230.793 146.784L98.3529 223.002L87.3406 216.626L230.793 133.888L375.259 217.351L364.102 223.727L230.793 146.784Z" fill="#23322D"/>
<path d="M98.5064 162.439L98.7965 169.685L231.816 246.627V239.527L98.5064 162.439Z" fill="#23322D"/>
<path d="M230.8 86.2207L98.5049 162.439L231.814 239.526L363.964 163.163L230.8 86.2207Z" fill="#D5EFE7"/>
<path d="M98.5064 76.2188L98.7965 83.4638L231.816 160.406V153.306L98.5064 76.2188Z" fill="#23322D"/>
<path d="M230.8 0L98.5049 76.2182L231.814 153.305L363.964 76.9425L230.8 0Z" fill="#D5EFE7"/>
<path d="M253.541 206.774L228.183 221.409L126.028 162.434L151.821 147.51L253.541 206.774Z" fill="#97D6C3"/>
<path d="M151.821 151.132L129.071 164.173L126.028 162.434L151.821 147.51L253.541 206.774L250.353 208.513L151.821 151.132Z" fill="#ACDECF"/>
<path d="M182.251 87.0875L213.549 105.345L219.345 102.013L188.047 83.7549L182.251 87.0875Z" fill="#045137"/>
<path d="M198.484 83.1695C199.063 84.4738 200.368 85.633 202.106 86.7922C203.845 87.8065 205.874 88.5307 208.047 88.8208C210.221 89.2554 212.684 89.2554 215.147 88.8208C217.756 88.3859 220.219 87.3716 222.827 85.9227L228.768 82.4452L240.94 89.5451L246.736 86.2124L215.437 67.9551L203.845 74.6204C201.382 76.0693 199.643 77.5185 198.919 78.9674C197.904 80.4166 197.759 81.8654 198.484 83.1695ZM212.974 84.6187C211.235 84.6187 209.496 84.1838 208.047 83.3143C206.453 82.4452 205.729 81.4309 205.729 80.4166C205.729 79.4023 206.743 78.2431 208.772 77.0836L214.278 73.8958L224.131 79.692L218.625 82.8798C216.597 84.0389 214.713 84.6187 212.974 84.6187Z" fill="#045137"/>
</g>
<defs>
<clipPath id="clip0_217_1241">
<rect width="198" height="268.863" fill="white" transform="matrix(-1 0 0 1 198 0)"/>
</clipPath>
</defs>
</svg>
