<svg width="30" height="31" viewBox="0 0 30 31" fill="none" xmlns="http://www.w3.org/2000/svg">
<path d="M24.0245 24.819C23.4669 25.0881 22.9793 25.3518 22.4691 25.5617C21.7435 25.8599 20.9771 25.9966 20.1913 26.0085C20.0438 26.0106 20.0104 26.0591 20.0104 26.1979C20.0104 26.7394 20.0341 27.2852 19.9835 27.8223C19.8694 29.0463 18.7843 30.0129 17.5539 30.0129C12.5268 30.0161 7.49973 30.0161 2.47372 30.0129C1.10876 30.0129 0.00430573 28.8902 0.00322926 27.5112C0.00107633 24.7684 0.00322926 22.0245 0.00322926 19.2816C0.00322926 15.2244 0.00538232 11.1672 0 7.11005C0 6.75482 0.115182 6.47171 0.365998 6.22197C2.32193 4.27141 4.27572 2.3187 6.2252 0.362768C6.46955 0.117334 6.74728 0 7.09606 0C10.5601 0.00430586 14.0242 0.0021528 17.4882 0.00322926C18.9081 0.00322926 20.0126 1.10661 20.0136 2.52969C20.0158 5.60408 20.0136 8.67954 20.0136 11.7539C20.0136 11.8293 20.0136 11.9057 20.0136 11.9821C22.8943 12.1318 25.0795 13.4084 26.3206 16.0146C27.564 18.625 27.1592 21.1224 25.4584 23.4443C26.9719 24.9535 28.4919 26.4703 30 27.9741C29.5102 28.4585 29.0452 28.9182 28.5748 29.3832C27.0699 27.874 25.5284 26.3282 24.0245 24.82V24.819ZM2.00438 8.18974C2.00438 8.28232 2.00438 8.34475 2.00438 8.40719C2.00438 14.7422 2.00438 21.0772 2.00438 27.4122C2.00438 27.8202 2.19384 28.0128 2.60074 28.0128C7.53848 28.0128 12.4762 28.0128 17.414 28.0128C17.8123 28.0128 18.005 27.8234 18.0071 27.4294C18.0103 26.945 17.9974 26.4595 18.0136 25.9751C18.02 25.7835 17.964 25.7038 17.7778 25.6403C13.9198 24.3292 11.9821 20.0847 13.5473 16.3278C14.3622 14.3719 15.8122 13.0607 17.8123 12.3643C17.9511 12.3158 18.0125 12.2631 18.0125 12.1005C18.006 8.94219 18.0082 5.78492 18.0082 2.62657C18.0082 2.17876 17.8306 2.00222 17.3806 2.00222C14.3374 2.00222 11.2943 2.00222 8.2511 2.00222C8.17683 2.00222 8.10148 2.00222 8.00675 2.00222C8.00675 2.10341 8.00675 2.17769 8.00675 2.25304C8.00675 3.58032 8.00782 4.90653 8.00675 6.23381C8.00459 7.78499 6.6321 8.94758 5.09598 8.70107C4.7246 8.64186 4.35322 8.57835 3.98292 8.51699C3.33596 8.40934 2.68901 8.3017 2.00545 8.18867L2.00438 8.18974ZM25.0084 19.0179C25.0203 16.2761 22.7812 14.0253 20.0276 14.0102C17.2783 13.9951 15.0188 16.2428 15.0092 19.0018C14.9995 21.7435 17.2364 23.9912 19.9932 24.0084C22.7425 24.0256 24.9966 21.7833 25.0084 19.0168V19.0179ZM6.00667 3.50282C5.05508 4.45226 4.10671 5.39847 3.1605 6.34361C3.17665 6.34684 3.21325 6.35652 3.24877 6.36298C3.94094 6.47817 4.63203 6.5955 5.3242 6.70853C5.76662 6.78173 6.00452 6.57828 6.00667 6.12401C6.00883 5.57501 6.00667 5.02709 6.00667 4.47809C6.00667 4.14762 6.00667 3.81714 6.00667 3.50282Z" fill="#39B54A"/>
<path d="M6.01617 14.2585V17.2554H10.9991V19.2576H6.02479V22.2524H8.99368V24.2621H6.01725V26.246H4.02148V10.2627H6.00326V12.2498H13.0003C13.0057 12.3306 13.0143 12.3919 13.0143 12.4544C13.0143 12.984 13.0067 13.5136 13.0186 14.0432C13.0229 14.2262 12.9583 14.2618 12.7893 14.2618C10.6202 14.2564 8.45114 14.2585 6.28206 14.2585C6.20025 14.2585 6.11844 14.2585 6.0151 14.2585H6.01617Z" fill="#39B54A"/>
<path d="M22.0201 16.2969C22.5099 16.7899 22.9707 17.2549 23.4841 17.7716C23.4378 17.7996 23.356 17.8308 23.299 17.8879C22.2817 18.9008 21.2688 19.917 20.2537 20.9311C19.7402 21.4445 19.174 21.4478 18.6616 20.9375C18.0017 20.2798 17.345 19.621 16.6862 18.9622C16.6464 18.9224 16.6087 18.8793 16.584 18.8535C17.0566 18.382 17.5216 17.9159 18.0092 17.4282C18.47 17.9008 18.949 18.3928 19.4463 18.9041C20.3193 18.0192 21.173 17.1548 22.0191 16.2969H22.0201Z" fill="#39B54A"/>
</svg>
