<svg width="31" height="31" viewBox="0 0 31 31" fill="none" xmlns="http://www.w3.org/2000/svg">
<path d="M0.579012 14.7507C0.60827 14.4785 0.635755 14.2063 0.6659 13.9341C0.96469 11.2601 1.91071 8.83784 3.51016 6.67538C5.12558 4.49165 7.18519 2.86116 9.67746 1.78304C11.2397 1.10655 12.8746 0.72087 14.5734 0.606497C14.6328 0.602064 14.6922 0.587878 14.7507 0.578125C15.2915 0.578125 15.8324 0.578125 16.3732 0.578125C16.6516 0.606497 16.93 0.633982 17.2075 0.664127C20.003 0.975329 22.513 1.99582 24.7384 3.7132C25.109 3.99958 25.4548 4.31787 25.8121 4.62198C25.8422 4.64769 25.8733 4.67163 25.9353 4.72305C25.9132 4.59361 25.8954 4.5014 25.8813 4.40919C25.8405 4.13877 26.0054 3.90205 26.266 3.85594C26.5178 3.81161 26.7572 3.9712 26.8087 4.23542C26.9283 4.85073 27.0454 5.46693 27.1527 6.0849C27.2192 6.46969 26.9381 6.73213 26.5569 6.64967C25.9389 6.51757 25.3209 6.38369 24.7038 6.2436C24.4813 6.19306 24.3492 6.01042 24.3501 5.78611C24.3501 5.57155 24.4884 5.38447 24.695 5.33571C24.7721 5.31797 24.8563 5.32329 24.937 5.33127C25.0221 5.34014 25.1055 5.36408 25.1959 5.3827C24.8253 4.6938 21.9207 2.90283 20.2362 2.31235C18.361 1.65536 16.4317 1.40534 14.4528 1.56138C12.4676 1.71831 10.5889 2.26004 8.8538 3.23709C5.23286 5.27542 2.86382 8.30498 1.90539 12.3524C0.947844 16.3962 1.73161 20.1519 4.04302 23.6195C3.74512 23.7241 3.488 23.8899 3.29472 24.1834C3.12715 23.9272 2.96667 23.6949 2.8186 23.4555C1.6066 21.4916 0.882234 19.362 0.647281 17.0656C0.623342 16.8333 0.601177 16.6019 0.578125 16.3696C0.578125 15.8288 0.578125 15.288 0.578125 14.7471L0.579012 14.7507Z" fill="#39B54A"/>
<path d="M30.5779 16.402C30.5495 16.6698 30.522 16.9384 30.4919 17.2062C30.2028 19.8226 29.2923 22.204 27.7505 24.3355C26.0269 26.7178 23.7917 28.4547 21.0574 29.5426C19.6344 30.1091 18.1555 30.4336 16.6287 30.5436C16.5534 30.5489 16.4798 30.5639 16.4044 30.5746H14.7819C14.4991 30.5453 14.2154 30.5187 13.9325 30.4868C11.1158 30.1694 8.59069 29.1347 6.35642 27.3934C6.00266 27.1177 5.67284 26.8127 5.33238 26.521C5.30578 26.4988 5.27918 26.4766 5.21712 26.4261C5.24106 26.5591 5.25879 26.6504 5.27386 26.7426C5.31464 27.0024 5.15239 27.2436 4.90325 27.2932C4.64525 27.3455 4.397 27.1842 4.34557 26.9164C4.22765 26.3055 4.11151 25.6947 4.00511 25.082C3.93418 24.6768 4.21524 24.4188 4.61422 24.5057C5.20204 24.6334 5.79076 24.7593 6.3777 24.8878C6.69422 24.957 6.85736 25.1893 6.79352 25.473C6.73412 25.7345 6.48586 25.8738 6.18619 25.8135C6.11171 25.7984 6.03724 25.7842 5.95567 25.7842C7.66861 27.4103 9.65817 28.5566 11.9439 29.1498C15.6774 30.1189 19.2558 29.6818 22.5912 27.741C26.1253 25.6849 28.3924 22.6287 29.287 18.6328C30.1807 14.6412 29.3898 10.9414 27.1094 7.52967C27.4153 7.42682 27.6698 7.25039 27.8843 6.93652C28.2629 7.59528 28.6459 8.20438 28.974 8.84186C29.9067 10.6576 30.4192 12.594 30.5522 14.6306C30.5557 14.6802 30.5681 14.7299 30.577 14.7795V16.402H30.5779Z" fill="#39B54A"/>
<path d="M20.2655 22.4276C19.8576 22.4285 19.5943 22.3398 19.3788 22.1598C19.1235 21.9461 18.8939 21.9124 18.5933 22.0951C18.3451 22.2467 18.0498 22.3238 17.7723 22.4249C17.6827 22.4577 17.6278 22.4941 17.6127 22.5978C17.5888 22.7592 17.5471 22.917 17.509 23.0757C17.3715 23.6431 16.8937 24.0164 16.3076 24.0173C15.8129 24.0173 15.3181 24.0173 14.8234 24.0173C14.2764 24.0173 13.787 23.644 13.6522 23.1147C13.607 22.9374 13.5786 22.7547 13.5298 22.5783C13.5157 22.526 13.466 22.4639 13.4164 22.4426C13.0289 22.2742 12.6379 22.1128 12.2451 21.9559C12.199 21.9373 12.1263 21.9452 12.0829 21.9701C11.9277 22.0587 11.7823 22.1634 11.6298 22.2547C11.1448 22.5455 10.5224 22.463 10.1244 22.0614C9.77946 21.7138 9.4319 21.3698 9.08612 21.0223C8.68271 20.6171 8.60824 20.0089 8.90437 19.5159C8.99126 19.3714 9.08346 19.2313 9.17833 19.0921C9.22532 19.023 9.22976 18.9662 9.1934 18.8838C9.02849 18.5061 8.87777 18.1222 8.71463 17.7427C8.69335 17.693 8.63395 17.6407 8.58253 17.6265C8.41584 17.5787 8.24384 17.5521 8.07627 17.5104C7.51238 17.3712 7.14178 16.9004 7.14 16.3206C7.13823 15.8258 7.13823 15.3311 7.14 14.8364C7.14089 14.2592 7.51238 13.7857 8.07538 13.6456C8.24384 13.604 8.41496 13.5765 8.58253 13.5304C8.63129 13.5171 8.69069 13.4736 8.7102 13.4284C8.87954 13.0356 9.04357 12.6411 9.20227 12.2439C9.22089 12.1978 9.20936 12.1251 9.18454 12.0808C9.1074 11.9433 9.01431 11.8148 8.93097 11.68C8.60292 11.1542 8.67119 10.5531 9.10918 10.1142C9.45141 9.77113 9.79364 9.42801 10.1359 9.08489C10.5269 8.693 11.1342 8.61232 11.6165 8.89249C11.7708 8.98204 11.9197 9.08134 12.0678 9.18064C12.1387 9.22852 12.1946 9.2294 12.2762 9.19394C12.6494 9.0308 13.0262 8.87476 13.4048 8.72492C13.4864 8.693 13.5263 8.6531 13.5414 8.5671C13.5724 8.39155 13.6096 8.21689 13.6557 8.044C13.7994 7.50139 14.2773 7.13876 14.8394 7.13965C15.3244 7.13965 15.8084 7.13965 16.2934 7.13965C16.9105 7.13965 17.376 7.50671 17.5205 8.10695C17.5586 8.26565 17.5834 8.4279 17.6287 8.58395C17.6437 8.63626 17.6969 8.69389 17.7466 8.71605C18.1252 8.87919 18.5091 9.02992 18.8868 9.19571C18.9701 9.23206 19.0269 9.22497 19.096 9.17887C19.2352 9.08489 19.3753 8.9909 19.5198 8.9049C20.0163 8.60877 20.6307 8.69034 21.0377 9.10084C21.3791 9.44485 21.7213 9.78797 22.0653 10.1284C22.4687 10.5274 22.5503 11.1463 22.2568 11.633C22.1673 11.7811 22.0635 11.9212 21.9802 12.0728C21.9518 12.1242 21.9438 12.2075 21.9651 12.2607C22.1167 12.6446 22.2754 13.025 22.4394 13.4036C22.4625 13.4577 22.5246 13.5144 22.5804 13.5304C22.7515 13.58 22.9289 13.6066 23.1017 13.6492C23.6408 13.7839 24.0167 14.2689 24.0176 14.8257C24.0176 15.3258 24.0185 15.8258 24.0176 16.3259C24.0158 16.8933 23.6399 17.373 23.0902 17.5077C22.9173 17.5503 22.74 17.5796 22.5689 17.6274C22.521 17.6407 22.4652 17.6886 22.4448 17.7347C22.2772 18.123 22.1149 18.5132 21.9589 18.905C21.9403 18.952 21.9447 19.0247 21.9695 19.0682C22.068 19.2402 22.1876 19.4015 22.2834 19.5744C22.5441 20.0435 22.4563 20.6339 22.0768 21.0152C21.7239 21.3689 21.372 21.7236 21.0173 22.0756C20.777 22.3141 20.4827 22.4231 20.2681 22.4267L20.2655 22.4276ZM23.076 15.5767C23.076 15.3577 23.0769 15.1378 23.076 14.9188C23.0743 14.6741 23.0078 14.5943 22.7648 14.542C22.4855 14.4817 22.2072 14.417 21.927 14.3647C21.7647 14.3345 21.6796 14.245 21.6415 14.0889C21.4899 13.4701 21.2514 12.8867 20.9162 12.345C20.8311 12.2075 20.832 12.0825 20.9233 11.9469C21.0856 11.7057 21.2407 11.4601 21.3977 11.2154C21.5271 11.0142 21.5147 10.9166 21.3436 10.7455C21.0297 10.4317 20.7159 10.1178 20.4029 9.80393C20.2433 9.64345 20.1334 9.63104 19.9436 9.75428C19.6998 9.9121 19.4542 10.0673 19.213 10.2295C19.0792 10.3199 18.9542 10.3261 18.815 10.241C18.2679 9.905 17.681 9.66119 17.0568 9.51046C16.9061 9.47411 16.8218 9.38722 16.7917 9.23295C16.7367 8.94746 16.672 8.66463 16.6099 8.38003C16.5594 8.14596 16.4805 8.08035 16.2411 8.07858C15.7969 8.0768 15.3536 8.0768 14.9094 8.07858C14.6762 8.07946 14.5938 8.15039 14.5432 8.38269C14.4812 8.6664 14.4165 8.95012 14.3615 9.23561C14.3313 9.39254 14.2436 9.47588 14.0946 9.51135C13.4758 9.66119 12.8924 9.90057 12.3498 10.2348C12.207 10.3226 12.0785 10.3244 11.9384 10.2286C11.6937 10.0628 11.4436 9.90412 11.1945 9.74453C11.0252 9.63636 10.909 9.64789 10.7698 9.78531C10.4409 10.1125 10.1119 10.4405 9.78566 10.7703C9.64114 10.9157 9.63139 11.0177 9.74133 11.1924C9.90536 11.4504 10.0703 11.7084 10.2396 11.9628C10.3194 12.0834 10.3238 12.1996 10.2494 12.3201C9.90536 12.8805 9.6571 13.4816 9.50195 14.1209C9.47003 14.253 9.38846 14.3301 9.25281 14.3576C8.95845 14.4179 8.66409 14.4826 8.37062 14.5464C8.15074 14.5943 8.07893 14.6803 8.07804 14.9064C8.07627 15.3506 8.07627 15.7939 8.07804 16.2381C8.07893 16.4828 8.1472 16.5617 8.39013 16.6131C8.66941 16.6725 8.94781 16.7364 9.22798 16.7905C9.38935 16.8215 9.47446 16.9119 9.51258 17.0689C9.66154 17.6824 9.89915 18.2614 10.2307 18.7995C10.323 18.9494 10.3212 19.0797 10.2228 19.2242C10.057 19.4689 9.89738 19.7181 9.73956 19.9681C9.63405 20.1348 9.64469 20.2456 9.77768 20.3795C10.1048 20.7084 10.4329 21.0365 10.7627 21.3627C10.9179 21.517 11.0207 21.5241 11.2105 21.4018C11.4552 21.2439 11.7008 21.0897 11.9419 20.9265C12.0758 20.8361 12.2017 20.8299 12.34 20.915C12.887 21.2519 13.474 21.494 14.0982 21.6456C14.2489 21.6819 14.3331 21.7688 14.3633 21.9231C14.4191 22.213 14.4847 22.502 14.5486 22.7902C14.5964 23.0048 14.6807 23.0757 14.8979 23.0766C15.3465 23.0792 15.796 23.0792 16.2447 23.0766C16.4805 23.0757 16.5585 23.0083 16.6108 22.7725C16.6738 22.4887 16.7376 22.205 16.7917 21.9195C16.8218 21.7626 16.9096 21.6801 17.0586 21.6438C17.6827 21.4922 18.2697 21.2501 18.8167 20.9123C18.9488 20.8308 19.0712 20.8317 19.2015 20.9185C19.4471 21.0826 19.6971 21.2422 19.9454 21.4018C20.1387 21.5259 20.2397 21.5144 20.4047 21.3503C20.7221 21.0329 21.0395 20.7155 21.3569 20.3981C21.512 20.2421 21.5253 20.1383 21.4056 19.9512C21.2461 19.7021 21.0865 19.453 20.9224 19.2074C20.8364 19.0788 20.8285 18.9556 20.9109 18.8226C21.2514 18.2711 21.4943 17.6797 21.6468 17.0502C21.6823 16.9057 21.7665 16.8233 21.9146 16.794C22.2045 16.7364 22.4935 16.6725 22.7817 16.6087C23.006 16.5591 23.0734 16.4775 23.076 16.2505C23.0787 16.0262 23.076 15.8019 23.076 15.5776V15.5767Z" fill="#39B54A"/>
<path d="M7.63123 22.7403C7.89721 22.7367 8.10734 22.9433 8.10823 23.2093C8.10911 23.4726 7.89633 23.6872 7.63477 23.6863C7.38298 23.6854 7.16753 23.4735 7.16221 23.2208C7.15689 22.9602 7.3679 22.7438 7.63123 22.7403Z" fill="#39B54A"/>
<path d="M7.5982 8.44416C7.33399 8.4415 7.12564 8.22694 7.13096 7.96361C7.13628 7.71181 7.35261 7.49991 7.60441 7.49902C7.86685 7.49902 8.07786 7.7127 8.07609 7.97691C8.0752 8.24201 7.86596 8.44682 7.5982 8.44416Z" fill="#39B54A"/>
<path d="M25.1819 9.69827C25.4461 9.70093 25.6554 9.91637 25.6492 10.1788C25.6429 10.4315 25.4293 10.6425 25.1766 10.6443C24.9177 10.6461 24.7014 10.428 24.7031 10.1673C24.7049 9.90219 24.9159 9.69561 25.181 9.69827H25.1819Z" fill="#39B54A"/>
<path d="M12.3159 5.5087C12.0499 5.50604 11.8433 5.29503 11.8477 5.02993C11.8513 4.7666 12.0623 4.56357 12.3309 4.56446C12.5827 4.56623 12.7929 4.7799 12.7929 5.03525C12.7929 5.2968 12.5783 5.51047 12.3167 5.50782L12.3159 5.5087Z" fill="#39B54A"/>
<path d="M19.1817 5.34507C19.179 5.07998 19.3882 4.86807 19.6516 4.86719C19.9167 4.86719 20.1215 5.07288 20.1233 5.34241C20.125 5.59687 19.9176 5.80877 19.6613 5.81232C19.398 5.81675 19.1834 5.6084 19.1817 5.34507Z" fill="#39B54A"/>
<path d="M25.202 20.4746C25.4609 20.4746 25.6781 20.6963 25.6728 20.9543C25.6674 21.2078 25.4547 21.418 25.2011 21.4197C24.936 21.4215 24.7285 21.2123 24.7285 20.9454C24.7285 20.6785 24.9342 20.4737 25.202 20.4746Z" fill="#39B54A"/>
<path d="M21.8295 24.9705C21.8207 25.2294 21.6052 25.4333 21.3499 25.4253C21.0821 25.4173 20.8773 25.2001 20.8871 24.9359C20.8968 24.6726 21.1202 24.4678 21.3836 24.4811C21.6407 24.4935 21.8384 24.7116 21.8295 24.9705Z" fill="#39B54A"/>
<path d="M11.1026 25.4273C11.1026 25.6826 10.8952 25.8901 10.6372 25.8937C10.3747 25.8972 10.1593 25.6853 10.1602 25.4238C10.1602 25.1578 10.3667 24.9521 10.6336 24.9512C10.8978 24.9494 11.1026 25.1578 11.1026 25.4282V25.4273Z" fill="#39B54A"/>
<path d="M17.903 26.8165C17.6405 26.8165 17.4384 26.6126 17.4375 26.3501C17.4366 26.0797 17.6388 25.8758 17.9101 25.874C18.1698 25.8723 18.3862 26.0939 18.38 26.3564C18.3747 26.6117 18.161 26.8174 17.903 26.8165Z" fill="#39B54A"/>
<path d="M9.03636 24.9139C8.78101 24.9139 8.57 24.7055 8.56645 24.4511C8.5629 24.1913 8.77658 23.9705 9.03458 23.9688C9.29702 23.967 9.5107 24.1798 9.5107 24.4422C9.5107 24.7064 9.30145 24.9148 9.03636 24.9148V24.9139Z" fill="#39B54A"/>
<path d="M26.5963 15.084C26.8614 15.0849 27.0671 15.295 27.0636 15.5619C27.0609 15.819 26.8543 16.0256 26.5981 16.0282C26.3374 16.0309 26.1202 15.8154 26.1211 15.5557C26.122 15.2888 26.3295 15.0831 26.5963 15.084Z" fill="#39B54A"/>
<path d="M15.5842 26.5736C15.5913 26.3111 15.8129 26.1019 16.0718 26.1117C16.3361 26.1223 16.54 26.3413 16.5284 26.6037C16.5169 26.8617 16.3068 27.0612 16.0497 27.0577C15.7881 27.0541 15.5762 26.8342 15.5842 26.5736Z" fill="#39B54A"/>
<path d="M5.37918 12.8341C5.37652 13.0912 5.16551 13.2978 4.90751 13.2969C4.64329 13.2951 4.43228 13.0797 4.4376 12.8154C4.44203 12.5574 4.65216 12.3535 4.91105 12.3535C5.17526 12.3535 5.38184 12.5654 5.37918 12.8349V12.8341Z" fill="#39B54A"/>
<path d="M18.3368 4.79449C18.3386 5.05959 18.1329 5.26795 17.866 5.27149C17.6063 5.27504 17.3926 5.06136 17.3926 4.79715C17.3926 4.54092 17.5974 4.33257 17.8554 4.32725C18.1161 4.32193 18.3351 4.53471 18.3368 4.79449Z" fill="#39B54A"/>
<path d="M5.54597 20.6C5.27644 20.6 5.06986 20.3916 5.07429 20.1247C5.07872 19.865 5.28619 19.6602 5.54508 19.6602C5.80929 19.6602 6.01942 19.8729 6.01765 20.1389C6.01587 20.3969 5.80841 20.6 5.54597 20.5991V20.6Z" fill="#39B54A"/>
<path d="M16.0209 5.0516C15.7504 5.05337 15.5448 4.85389 15.543 4.58613C15.5412 4.32014 15.7469 4.11002 16.012 4.10647C16.2673 4.10381 16.4863 4.32458 16.4863 4.58435C16.4863 4.83881 16.2762 5.04983 16.0209 5.0516Z" fill="#39B54A"/>
<path d="M8.53518 6.72933C8.53784 6.46689 8.74088 6.26562 9.00332 6.26562C9.26753 6.26562 9.47766 6.4793 9.47588 6.74528C9.47411 7.00063 9.25955 7.21076 9.00332 7.20898C8.7329 7.20632 8.53252 7.00152 8.53518 6.72933Z" fill="#39B54A"/>
<path d="M6.43223 9.90062C6.16535 9.89796 5.95877 9.68428 5.96498 9.4183C5.97119 9.15941 6.1822 8.95548 6.44109 8.95903C6.7053 8.96258 6.91543 9.17891 6.911 9.44224C6.90657 9.69581 6.68935 9.90416 6.43311 9.9015L6.43223 9.90062Z" fill="#39B54A"/>
<path d="M26.9034 17.4303C26.9078 17.69 26.6941 17.9073 26.4335 17.909C26.1755 17.9108 25.9653 17.7078 25.9591 17.4515C25.9529 17.1873 26.1595 16.9692 26.4202 16.963C26.6808 16.9568 26.8989 17.1687 26.9034 17.4303Z" fill="#39B54A"/>
<path d="M5.38011 18.3841C5.3739 18.6474 5.15225 18.8575 4.8907 18.8478C4.63624 18.838 4.43143 18.6181 4.43764 18.3628C4.44473 18.0977 4.66195 17.8938 4.92794 17.9026C5.18683 17.9115 5.38543 18.1234 5.38011 18.3849V18.3841Z" fill="#39B54A"/>
<path d="M5.07808 16.5354C5.07631 16.7969 4.85909 17.0097 4.59842 17.0062C4.33598 17.0026 4.12674 16.7863 4.13295 16.5239C4.13915 16.2579 4.34662 16.0619 4.61881 16.0655C4.87504 16.069 5.07985 16.2792 5.07808 16.5354Z" fill="#39B54A"/>
<path d="M5.99896 11.0589C5.99984 11.3231 5.78972 11.5359 5.52728 11.5359C5.26573 11.5359 5.05205 11.3196 5.05471 11.0589C5.05737 10.7974 5.27282 10.5863 5.53526 10.5899C5.78972 10.5934 5.99807 10.8036 5.99896 11.0589Z" fill="#39B54A"/>
<path d="M12.3684 25.6445C12.6317 25.6454 12.8463 25.8644 12.84 26.126C12.8347 26.3822 12.6211 26.5906 12.3648 26.5888C12.098 26.587 11.8958 26.3787 11.8985 26.1073C11.9011 25.8467 12.1068 25.6436 12.3684 25.6445Z" fill="#39B54A"/>
<path d="M25.9464 19.7153C25.6786 19.7073 25.48 19.4928 25.4906 19.2233C25.5013 18.967 25.722 18.7622 25.9756 18.7729C26.2425 18.7844 26.4429 19.0016 26.4313 19.2676C26.4198 19.5283 26.2079 19.7233 25.9472 19.7153H25.9464Z" fill="#39B54A"/>
<path d="M21.3158 5.70801C21.588 5.70712 21.7937 5.90839 21.7937 6.17703C21.7937 6.43504 21.588 6.6425 21.3274 6.64694C21.0658 6.65137 20.8442 6.43326 20.8477 6.17437C20.8512 5.91459 21.0561 5.7089 21.3149 5.70801H21.3158Z" fill="#39B54A"/>
<path d="M6.45198 22.2254C6.18777 22.2219 5.98828 22.0215 5.98828 21.759C5.98828 21.4931 6.20107 21.2847 6.46705 21.2891C6.7286 21.2936 6.92987 21.4984 6.92987 21.7599C6.92987 22.0286 6.72417 22.2289 6.45109 22.2254H6.45198Z" fill="#39B54A"/>
<path d="M25.9679 12.3359C25.6993 12.3394 25.4883 12.132 25.4883 11.866C25.4883 11.6097 25.6993 11.3943 25.952 11.3916C26.2171 11.389 26.4263 11.5964 26.4299 11.866C26.4334 12.1231 26.2277 12.3323 25.9671 12.3359H25.9679Z" fill="#39B54A"/>
<path d="M14.194 26.976C13.928 26.9769 13.7196 26.7694 13.7188 26.5043C13.7188 26.2525 13.9307 26.0388 14.1842 26.0362C14.4511 26.0326 14.6612 26.2374 14.6639 26.5025C14.6665 26.7703 14.4626 26.976 14.194 26.9769V26.976Z" fill="#39B54A"/>
<path d="M4.60317 14.1973C4.86206 14.1982 5.0713 14.4065 5.07219 14.6627C5.07219 14.9261 4.85319 15.1468 4.59607 15.1406C4.33009 15.1335 4.12173 14.9181 4.12705 14.6556C4.13237 14.3976 4.34161 14.1964 4.60405 14.1973H4.60317Z" fill="#39B54A"/>
<path d="M14.1368 5.11904C13.8735 5.11727 13.6758 4.91601 13.6758 4.65091C13.6758 4.38493 13.8868 4.17923 14.1563 4.18366C14.4143 4.1881 14.6218 4.39823 14.62 4.65446C14.6183 4.91956 14.4099 5.12082 14.1368 5.11904Z" fill="#39B54A"/>
<path d="M26.4107 13.1973C26.6713 13.1929 26.8921 13.4066 26.8965 13.6681C26.901 13.9217 26.6917 14.1354 26.4328 14.1425C26.1739 14.1496 25.9594 13.9465 25.9514 13.6894C25.9434 13.4208 26.1473 13.2018 26.4107 13.1973Z" fill="#39B54A"/>
<path d="M19.6935 25.3272C19.9568 25.3254 20.1687 25.5364 20.1678 25.7997C20.1678 26.0515 19.9577 26.2634 19.7023 26.2687C19.439 26.2741 19.2244 26.0657 19.2227 25.8024C19.2209 25.5373 19.4266 25.3289 19.6935 25.3272Z" fill="#39B54A"/>
<path d="M24.1244 9.09668C23.8602 9.09757 23.658 8.89808 23.6563 8.63475C23.6545 8.36611 23.862 8.15244 24.1235 8.15332C24.3868 8.1551 24.5987 8.36966 24.597 8.63387C24.5943 8.88921 24.3842 9.09491 24.1244 9.09579V9.09668Z" fill="#39B54A"/>
<path d="M23.2981 7.28502C23.2963 7.55101 23.0844 7.75759 22.8176 7.75315C22.5569 7.74872 22.3565 7.54303 22.3574 7.28059C22.3583 7.01372 22.572 6.80448 22.8371 6.81068C23.0951 6.816 23.2999 7.02702 23.2981 7.28502Z" fill="#39B54A"/>
<path d="M24.1609 22.9623C23.8905 22.9659 23.6786 22.7611 23.6777 22.4968C23.6777 22.2388 23.8825 22.0269 24.1388 22.0216C24.403 22.0154 24.6184 22.2255 24.6211 22.4906C24.6238 22.7513 24.4207 22.9597 24.1601 22.9623H24.1609Z" fill="#39B54A"/>
<path d="M22.8586 24.3118C22.597 24.31 22.3896 24.1052 22.3887 23.8472C22.3878 23.5812 22.5979 23.3711 22.8639 23.3711C23.129 23.3711 23.3374 23.5857 23.3329 23.8534C23.3285 24.1141 23.1228 24.3145 22.8586 24.3127V24.3118Z" fill="#39B54A"/>
<path d="M10.5691 6.22219C10.2996 6.21066 10.1045 5.99521 10.1178 5.72568C10.1311 5.46768 10.3457 5.27351 10.6072 5.28149C10.8635 5.29035 11.0683 5.50846 11.0594 5.76381C11.0505 6.03245 10.8351 6.23371 10.5682 6.2213L10.5691 6.22219Z" fill="#39B54A"/>
<path d="M12.0586 15.574C12.0586 13.6128 13.6332 12.0577 15.6184 12.0586C17.5139 12.0586 19.0966 13.6483 19.0957 15.5492C19.0939 17.5432 17.5343 19.0966 15.5359 19.0957C13.627 19.0948 12.0586 17.506 12.0586 15.574ZM15.5776 13.0046C14.182 13.0011 13.0108 14.1492 13.0055 15.5261C12.9993 16.9687 14.1333 18.1426 15.5386 18.1488C16.9758 18.1541 18.1452 17.0139 18.1496 15.6033C18.155 14.1634 17.0103 13.0082 15.5776 13.0046Z" fill="#39B54A"/>
</svg>
