<svg width="126" height="44" viewBox="0 0 126 44" fill="none" xmlns="http://www.w3.org/2000/svg">
<rect width="125.16" height="44" rx="22" fill="white"/>
<path d="M32.9514 23.9184C32.9211 23.9792 32.8907 24.0399 32.8299 24.0703C32.7692 24.2222 32.678 24.3438 32.6172 24.4957C33.1337 24.3741 33.6198 24.1615 34.106 23.9488C34.2579 23.888 34.3794 23.8273 34.5009 23.7665C34.8047 23.6146 35.1086 23.5842 35.4428 23.645C35.8073 23.7057 36.1719 23.7361 36.5973 23.7361C39.5139 23.7361 41.4584 21.7917 41.4584 19.8472C41.4584 17.9332 39.5139 15.9583 36.5973 15.9583C33.6502 15.9583 31.7362 17.9332 31.7362 19.8472C31.7362 20.6979 32.0704 21.5182 32.7084 22.217C33.1641 22.6727 33.2553 23.3411 32.9514 23.9184ZM30.2778 19.8472C30.2778 16.9002 33.1034 14.5 36.5973 14.5C40.0608 14.5 42.9167 16.9002 42.9167 19.8472C42.9167 22.8247 40.0608 25.1944 36.5973 25.1944C36.0808 25.1944 35.6251 25.1641 35.1389 25.0729C35.0174 25.1337 34.8655 25.2248 34.7136 25.2856C33.6198 25.7717 32.3134 26.1667 31.007 26.1667C30.7032 26.1667 30.4297 26.0148 30.3082 25.7413C30.2171 25.4679 30.2474 25.1641 30.4601 24.9513C30.8855 24.4653 31.2501 23.9184 31.5843 23.3715C31.6146 23.3108 31.645 23.25 31.645 23.2196C30.7943 22.3082 30.2778 21.1233 30.2778 19.8472ZM43.4028 29.0833C40.9115 29.0833 38.7544 27.868 37.7214 26.1059C38.2379 26.0148 38.7544 25.8932 39.2405 25.7413C40.0304 26.8351 41.5192 27.625 43.3725 27.625C43.7978 27.625 44.1624 27.5947 44.5269 27.5339C44.8612 27.4731 45.1649 27.5034 45.4688 27.6553C45.5903 27.7161 45.7118 27.7769 45.8637 27.8377C46.3498 28.0503 46.8359 28.2327 47.3525 28.3846C47.2917 28.2327 47.2006 28.1111 47.1398 27.9592C47.1094 27.8984 47.0487 27.8377 47.0183 27.7769C46.7448 27.23 46.8359 26.5617 47.2614 26.1059C47.8994 25.4071 48.2639 24.5868 48.2639 23.7361C48.2639 21.9436 46.5322 20.0903 43.8889 19.8776V19.8472C43.8889 19.3611 43.7978 18.875 43.6763 18.4193C47.0487 18.5408 49.7223 20.8802 49.7223 23.7361C49.7223 25.0121 49.1754 26.197 48.3247 27.1086C48.3247 27.1692 48.3551 27.1997 48.3855 27.2604C48.7197 27.8073 49.0843 28.3542 49.5096 28.8402C49.7223 29.053 49.7526 29.3568 49.6615 29.6302C49.5399 29.9037 49.2665 30.0556 48.9932 30.0556C47.6867 30.0556 46.3498 29.6606 45.2562 29.1744C45.1043 29.1137 44.9523 29.0226 44.8308 28.9618C44.3447 29.053 43.8889 29.0833 43.4028 29.0833Z" fill="#054F31"/>
<path d="M65.6801 20.7687H64.2109C64.169 20.5278 64.0917 20.3143 63.9791 20.1284C63.8665 19.9398 63.7264 19.7801 63.5587 19.6491C63.3911 19.5182 63.2 19.4199 62.9852 19.3545C62.7731 19.2864 62.5439 19.2523 62.2977 19.2523C61.8604 19.2523 61.4727 19.3623 61.1349 19.5823C60.7971 19.7997 60.5325 20.1192 60.3414 20.5409C60.1502 20.9599 60.0546 21.4719 60.0546 22.0769C60.0546 22.6923 60.1502 23.2109 60.3414 23.6325C60.5352 24.0516 60.7997 24.3685 61.1349 24.5832C61.4727 24.7954 61.859 24.9014 62.2938 24.9014C62.5347 24.9014 62.76 24.87 62.9695 24.8072C63.1816 24.7417 63.3715 24.6461 63.5391 24.5204C63.7093 24.3947 63.8521 24.2401 63.9673 24.0568C64.0852 23.8735 64.1663 23.664 64.2109 23.4283L65.6801 23.4361C65.6251 23.8185 65.5059 24.1773 65.3226 24.5125C65.1419 24.8477 64.9049 25.1437 64.6116 25.4003C64.3182 25.6544 63.9752 25.8534 63.5823 25.9975C63.1895 26.1389 62.7534 26.2096 62.2741 26.2096C61.567 26.2096 60.9359 26.0459 60.3806 25.7186C59.8254 25.3912 59.3881 24.9185 59.0685 24.3004C58.749 23.6823 58.5893 22.9411 58.5893 22.0769C58.5893 21.21 58.7503 20.4688 59.0725 19.8534C59.3946 19.2353 59.8333 18.7626 60.3885 18.4352C60.9437 18.1078 61.5723 17.9442 62.2741 17.9442C62.722 17.9442 63.1384 18.007 63.5234 18.1327C63.9084 18.2584 64.2515 18.4431 64.5526 18.6866C64.8538 18.9276 65.1013 19.2235 65.2951 19.5745C65.4915 19.9228 65.6199 20.3209 65.6801 20.7687ZM68.326 18.0542V26.0996H66.9039V18.0542H68.326ZM71.4768 26.2214C71.0944 26.2214 70.75 26.1533 70.4436 26.0171C70.1398 25.8783 69.8989 25.674 69.7208 25.4043C69.5453 25.1345 69.4576 24.8019 69.4576 24.4064C69.4576 24.066 69.5204 23.7844 69.6461 23.5618C69.7718 23.3392 69.9434 23.1611 70.1607 23.0276C70.3781 22.894 70.623 22.7932 70.8954 22.7251C71.1704 22.6544 71.4545 22.6033 71.7478 22.5719C72.1014 22.5352 72.3882 22.5025 72.6082 22.4737C72.8282 22.4422 72.9879 22.3951 73.0874 22.3322C73.1896 22.2668 73.2406 22.1659 73.2406 22.0297V22.0062C73.2406 21.7102 73.1529 21.4811 72.9774 21.3187C72.802 21.1563 72.5492 21.0751 72.2193 21.0751C71.8709 21.0751 71.5946 21.1511 71.3904 21.303C71.1887 21.4549 71.0525 21.6343 70.9818 21.8412L69.654 21.6526C69.7587 21.286 69.9316 20.9795 70.1725 20.7334C70.4135 20.4846 70.7081 20.2986 71.0564 20.1755C71.4048 20.0498 71.7897 19.9869 72.2114 19.9869C72.5021 19.9869 72.7915 20.021 73.0796 20.0891C73.3677 20.1572 73.6309 20.2698 73.8692 20.4269C74.1075 20.5815 74.2987 20.7923 74.4428 21.0594C74.5894 21.3265 74.6627 21.6605 74.6627 22.0612V26.0996H73.2956V25.2707H73.2485C73.1621 25.4383 73.0403 25.5955 72.8832 25.7421C72.7286 25.8862 72.5335 26.0027 72.2978 26.0918C72.0647 26.1782 71.7911 26.2214 71.4768 26.2214ZM71.8461 25.1764C72.1315 25.1764 72.379 25.1201 72.5885 25.0075C72.798 24.8923 72.9591 24.7404 73.0717 24.5518C73.187 24.3632 73.2446 24.1576 73.2446 23.935V23.224C73.2001 23.2607 73.1241 23.2947 73.0167 23.3261C72.912 23.3576 72.7941 23.3851 72.6632 23.4086C72.5322 23.4322 72.4026 23.4531 72.2743 23.4715C72.1459 23.4898 72.0346 23.5055 71.9403 23.5186C71.7282 23.5474 71.5383 23.5946 71.3707 23.66C71.2031 23.7255 71.0708 23.8172 70.9739 23.935C70.877 24.0503 70.8286 24.1996 70.8286 24.3829C70.8286 24.6448 70.9242 24.8425 71.1154 24.9761C71.3065 25.1096 71.5501 25.1764 71.8461 25.1764ZM76.0447 26.0996V20.0655H77.4236V21.0712H77.4864C77.5964 20.7229 77.785 20.4544 78.0521 20.2659C78.3219 20.0747 78.6296 19.9791 78.9753 19.9791C79.0539 19.9791 79.1416 19.983 79.2385 19.9909C79.338 19.9961 79.4205 20.0053 79.486 20.0184V21.3265C79.4258 21.3056 79.3302 21.2873 79.1992 21.2716C79.0709 21.2532 78.9465 21.2441 78.826 21.2441C78.5668 21.2441 78.3337 21.3004 78.1268 21.413C77.9225 21.523 77.7614 21.6762 77.6436 21.8726C77.5257 22.069 77.4668 22.2956 77.4668 22.5522V26.0996H76.0447ZM82.8057 26.2175C82.2007 26.2175 81.6782 26.0918 81.2382 25.8403C80.8009 25.5863 80.4643 25.2275 80.2286 24.7639C79.9929 24.2978 79.8751 23.7491 79.8751 23.1179C79.8751 22.4972 79.9929 21.9525 80.2286 21.4837C80.4669 21.0123 80.7996 20.6456 81.2264 20.3837C81.6533 20.1192 82.1549 19.9869 82.731 19.9869C83.1029 19.9869 83.4539 20.0472 83.7839 20.1677C84.1165 20.2855 84.4098 20.4688 84.6638 20.7176C84.9205 20.9664 85.1221 21.2833 85.2688 21.6683C85.4155 22.0507 85.4888 22.5064 85.4888 23.0354V23.4715H80.5429V22.5129H84.1256C84.123 22.2406 84.0641 21.9983 83.9489 21.7862C83.8336 21.5714 83.6726 21.4025 83.4657 21.2794C83.2614 21.1563 83.023 21.0948 82.7507 21.0948C82.46 21.0948 82.2046 21.1655 81.9846 21.3069C81.7646 21.4457 81.5931 21.629 81.47 21.8569C81.3495 22.0821 81.288 22.3296 81.2854 22.5994V23.4361C81.2854 23.7871 81.3495 24.0882 81.4779 24.3397C81.6062 24.5885 81.7856 24.7797 82.0161 24.9132C82.2465 25.0442 82.5163 25.1096 82.8253 25.1096C83.0322 25.1096 83.2195 25.0808 83.3871 25.0232C83.5547 24.963 83.7001 24.8752 83.8231 24.76C83.9462 24.6448 84.0392 24.502 84.1021 24.3318L85.4299 24.4811C85.3461 24.832 85.1863 25.1384 84.9506 25.4003C84.7175 25.6596 84.419 25.8613 84.0549 26.0053C83.6909 26.1468 83.2745 26.2175 82.8057 26.2175Z" fill="black"/>
</svg>
