<svg width="26" height="22" viewBox="0 0 26 22" fill="none" xmlns="http://www.w3.org/2000/svg">
<path d="M21.6115 4.55687C18.2726 2.35071 13.8346 1.84854 10.148 2.51391C6.02344 -1.46439 1.40148 0.365469 0.5 0.89151C0.5 0.89151 3.67187 3.58682 3.15668 5.9475C-0.598524 9.77562 1.18663 14.0378 3.15668 16.0504C3.67187 18.411 0.5 21.1064 0.5 21.1064C1.3928 21.6341 6.00217 23.4583 10.148 19.5005C13.8264 20.1615 18.2643 19.6636 21.6115 17.4536C26.7878 14.1489 26.8047 7.87849 21.6115 4.55644V4.55687ZM13.2682 17.4323C11.9774 17.436 10.6916 17.2701 9.44401 16.9388L8.58594 17.7674C8.10931 18.2296 7.57563 18.6291 6.99783 18.9562C6.29681 19.3091 5.53526 19.5261 4.75347 19.5955C4.79687 19.5182 4.83507 19.441 4.8737 19.3681C5.7322 17.7766 5.96369 16.3488 5.56814 15.0847C4.15625 13.9731 3.3112 12.5525 3.3112 10.9991C3.3112 7.44012 7.7704 4.55687 13.2682 4.55687C18.7661 4.55687 23.2253 7.44012 23.2253 10.9991C23.2253 14.5582 18.7661 17.4323 13.2682 17.4323ZM8.49132 12.5313C8.09713 12.5368 7.71681 12.3859 7.4337 12.1116C7.15058 11.8373 6.98776 11.4619 6.9809 11.0677C6.95052 9.09767 9.92491 9.0547 9.95486 11.0204V11.0426C9.95669 11.2365 9.92028 11.4289 9.8477 11.6087C9.77512 11.7886 9.66779 11.9524 9.53187 12.0907C9.39594 12.2291 9.23408 12.3393 9.05553 12.415C8.87698 12.4907 8.68526 12.5305 8.49132 12.5321V12.5313ZM11.6931 11.0677C11.6589 9.09767 14.6332 9.05036 14.6675 11.0161V11.0426C14.6845 12.9991 11.7274 13.0204 11.6931 11.0677ZM17.9162 12.5313C17.522 12.5368 17.1416 12.3859 16.8585 12.1116C16.5753 11.8373 16.4123 11.4619 16.4054 11.0677C16.3754 9.09767 19.3498 9.0547 19.3798 11.0204V11.0426C19.3822 11.2367 19.3463 11.4293 19.2739 11.6095C19.2015 11.7896 19.0943 11.9536 18.9582 12.0921C18.8222 12.2306 18.66 12.3408 18.4812 12.4163C18.3024 12.4918 18.1104 12.5312 17.9162 12.5321V12.5313Z" fill="white"/>
</svg>
