<svg width="570" height="774" viewBox="0 0 570 774" fill="none" xmlns="http://www.w3.org/2000/svg">
<g clip-path="url(#clip0_208_1074)">
<path d="M569.266 691.205L568.015 787.564L-98.5742 1173V1077.48L569.266 691.205Z" fill="#23322D"/>
<path d="M-93.5763 309.521L569.258 691.204L-98.5823 1077.47L-761 694.542L-93.5763 309.521Z" fill="#F1F9F6"/>
<path d="M471.653 622.795L470.819 705.389L-98.1602 1034.51V952.753L471.653 622.795Z" fill="#D5EFE7"/>
<path d="M-93.9874 297.002L471.655 622.788L-98.1589 952.745L-663.383 625.708L-93.9874 297.002Z" fill="#D5EFE7"/>
<path d="M318.563 623.616L-94.4049 385.429L-510.293 625.702L-97.7417 864.306L286.861 641.97L318.563 623.616Z" fill="#23322D"/>
<path d="M471.643 622.794L470.809 705.388L-98.1699 1034.51V952.752L471.643 622.794Z" fill="#23322D"/>
<path d="M-94.4029 385.435L318.565 623.622L-97.7397 864.312L-510.291 625.708L-94.4029 385.435Z" fill="#97D6C3"/>
<path d="M-94.4029 422.56L286.863 641.976L318.565 623.622L-94.4029 385.435L-510.291 625.708L-478.171 644.062L-94.4029 422.56Z" fill="#23322D"/>
<path d="M286.421 467.629L285.586 488.486L-97.3477 709.987V689.547L286.421 467.629Z" fill="#23322D"/>
<path d="M-94.424 248.211L286.425 467.627L-97.3438 689.545L-477.775 469.712L-94.424 248.211Z" fill="#D5EFE7"/>
<path d="M286.421 219.418L285.586 240.275L-97.3477 461.776V441.336L286.421 219.418Z" fill="#23322D"/>
<path d="M-94.424 0L286.425 219.416L-97.3438 441.334L-477.775 221.501L-94.424 0Z" fill="#D5EFE7"/>
<path d="M-159.891 595.26L-86.8912 637.391L207.192 467.615L132.941 424.65L-159.891 595.26Z" fill="#97D6C3"/>
<path d="M132.941 435.078L198.433 472.621L207.192 467.615L132.941 424.65L-159.891 595.26L-150.714 600.266L132.941 435.078Z" fill="#ACDECF"/>
<path d="M45.3385 250.705L-44.7636 303.265L-61.4492 293.671L28.6529 241.111L45.3385 250.705Z" fill="#045137"/>
<path d="M-1.39307 239.427C-3.06163 243.182 -6.81589 246.519 -11.8215 249.856C-16.8272 252.776 -22.6671 254.861 -28.9242 255.696C-35.1813 256.947 -42.2727 256.947 -49.3641 255.696C-56.8726 254.444 -63.9642 251.524 -71.4727 247.353L-88.5753 237.342L-123.615 257.781L-140.301 248.187L-50.1987 195.628L-16.8275 214.816C-9.73616 218.987 -4.73039 223.159 -2.64468 227.33C0.27528 231.502 0.692631 235.673 -1.39307 239.427ZM-43.107 243.599C-38.1013 243.599 -33.0956 242.347 -28.9242 239.844C-24.3356 237.342 -22.25 234.422 -22.25 231.502C-22.25 228.582 -25.1699 225.245 -31.0099 221.907L-46.8614 212.73L-75.2271 229.416L-59.3756 238.593C-53.5356 241.93 -48.1127 243.599 -43.107 243.599Z" fill="#045137"/>
</g>
<defs>
<clipPath id="clip0_208_1074">
<rect width="570" height="774" fill="white"/>
</clipPath>
</defs>
</svg>
