<svg width="31" height="31" viewBox="0 0 31 31" fill="none" xmlns="http://www.w3.org/2000/svg">
<path d="M22.0057 10.4251C21.9656 10.5517 21.9612 10.6317 21.9211 10.6817C21.2414 11.5214 21.758 12.2933 22.0956 13.0453C22.1977 13.2731 22.5066 13.4785 22.7621 13.5519C23.3864 13.7306 23.6274 14.0939 23.5407 14.7237C23.5096 14.9503 23.5074 15.1892 23.5407 15.4158C23.6618 16.26 23.4307 16.823 22.5078 17.0407C21.9934 17.1618 21.4136 18.7392 21.6924 19.2167C22.0934 19.9054 21.969 20.4186 21.3492 20.8695C21.2014 20.9773 21.0659 21.1129 20.9581 21.2606C20.4662 21.9337 19.9162 22.1392 19.1388 21.6594C18.6856 21.3794 17.1394 22.058 17.0038 22.5923C16.7974 23.4099 16.3142 23.6643 15.5355 23.5432C15.3555 23.5154 15.1633 23.5166 14.9824 23.5432C14.1825 23.6597 13.6793 23.4099 13.4639 22.5579C13.3194 21.9881 11.7755 21.4071 11.2469 21.7004C10.5892 22.0637 10.086 21.997 9.644 21.3849C9.51073 21.2005 9.34079 21.0284 9.1564 20.8952C8.51218 20.4285 8.36658 19.912 8.80321 19.1889C9.10755 18.6836 8.45764 17.1684 7.87899 17.0042C7.12476 16.7909 6.8193 16.3621 6.94039 15.5945C6.97592 15.369 6.97592 15.128 6.94039 14.9037C6.8193 14.1384 7.11366 13.7051 7.87119 13.4863C8.48653 13.3086 9.09407 11.8025 8.7787 11.2404C8.4044 10.5739 8.50325 10.0829 9.10641 9.64305C9.30849 9.49534 9.49174 9.30544 9.64059 9.10222C10.086 8.49565 10.5882 8.42342 11.2469 8.78668C11.8099 9.09767 13.3173 8.48786 13.4883 7.86587C13.7027 7.08838 14.1547 6.82835 14.9101 6.94278C15.1133 6.97395 15.33 6.97508 15.5321 6.94278C16.313 6.82056 16.7884 7.07945 17.0017 7.89249C17.1517 8.46676 18.6945 9.10985 19.1965 8.8034C19.9297 8.35573 20.4272 8.55684 20.9072 9.16877C21.1471 9.47538 21.4647 9.7208 21.7312 10.0097C21.8502 10.1384 21.9289 10.3063 22.0057 10.4251ZM20.9159 10.6328C20.8971 10.1685 19.8541 9.52083 19.4332 9.74644C18.9521 10.0029 18.5323 10.0008 18.0769 9.6898C17.8336 9.52423 17.5416 9.39097 17.2538 9.33985C16.6341 9.22882 16.2619 8.89445 16.1364 8.28788C16.0342 7.79704 15.6565 7.86148 15.32 7.88697C14.9645 7.91359 14.4802 7.68813 14.3581 8.27457C14.2214 8.92546 13.8015 9.22655 13.1807 9.36095C12.8929 9.42311 12.603 9.55313 12.3598 9.71869C11.9211 10.0152 11.49 10.0352 11.0735 9.74076C10.5804 9.39308 10.3327 9.74076 10.0361 10.0363C9.73944 10.3317 9.38965 10.5838 9.73392 11.0748C10.0284 11.4947 10.016 11.919 9.71623 12.3589C9.55066 12.6022 9.42179 12.8942 9.36189 13.182C9.23074 13.8051 8.92413 14.2271 8.27666 14.3606C7.73566 14.4716 7.88678 14.9092 7.88451 15.2536C7.88126 15.6002 7.74686 16.03 8.28656 16.1389C8.93647 16.2699 9.23626 16.7042 9.36628 17.3239C9.42179 17.5895 9.53963 17.8594 9.69172 18.0837C10.0006 18.5369 10.0495 18.9813 9.73278 19.4311C9.4174 19.8799 9.69837 20.142 9.99946 20.4131C10.2916 20.6762 10.5093 21.1218 11.0235 20.7741C11.4978 20.4542 11.9599 20.4952 12.4365 20.8118C12.6819 20.975 12.9706 21.1172 13.2584 21.1672C13.8538 21.2716 14.218 21.5782 14.337 22.1681C14.4524 22.7378 14.8989 22.6024 15.2723 22.6068C15.6298 22.6112 16.0419 22.7134 16.1453 22.1814C16.2663 21.5571 16.6784 21.2617 17.2793 21.1439C17.5237 21.0961 17.7737 20.9918 17.978 20.8507C18.489 20.4964 18.991 20.4418 19.5176 20.7941C20.0174 21.1273 20.2084 20.6585 20.474 20.4175C20.7361 20.1787 21.0971 19.9588 20.7893 19.5077C20.4506 19.0123 20.4827 18.5325 20.8194 18.0326C20.9838 17.7895 21.1092 17.495 21.1659 17.2074C21.2748 16.6476 21.5558 16.2843 22.1245 16.1744C22.7188 16.06 22.5899 15.599 22.6121 15.1979C22.6344 14.7814 22.611 14.4372 22.1023 14.295C21.8335 14.2193 21.418 14.0361 21.3858 13.8473C21.2125 12.8221 20.0263 11.9523 20.8771 10.7661C20.9026 10.7306 20.9072 10.6794 20.9205 10.6361L20.9159 10.6328Z" fill="#39B54A"/>
<path d="M25.448 0.241463C28.1483 0.259236 30.261 2.40968 30.2408 5.11993C30.222 7.77682 28.0749 9.90947 25.4169 9.91402C22.7521 9.9184 20.5695 7.73137 20.5684 5.0544C20.5684 2.38634 22.7611 0.223706 25.448 0.241463ZM28.9513 6.7195C29.7544 5.66532 29.4489 3.4449 28.0316 2.16864C26.5221 0.807957 24.1885 0.835713 22.7344 2.23084C21.357 3.55265 21.0883 5.73752 21.8891 6.73168C22.4478 6.19404 23.0354 5.62755 23.6963 4.99108C23.2087 4.06248 23.2998 3.09835 24.1261 2.40745C24.8671 1.78876 25.939 1.78319 26.6842 2.39411C27.5218 3.08057 27.6139 4.03805 27.1275 5.00663C27.8029 5.64199 28.3981 6.19862 28.9513 6.7195ZM25.3946 9.14205C26.1267 8.87212 26.8365 8.62654 27.5318 8.34671C27.9383 8.18228 27.9706 7.88233 27.7806 7.49926C27.2929 6.51616 26.511 5.96633 25.4214 5.96411C24.3305 5.96189 23.5486 6.51616 23.0498 7.48693C22.8365 7.90132 22.9177 8.20452 23.3409 8.37446C23.9963 8.63774 24.6616 8.86985 25.3946 9.14205ZM25.4024 5.0133C25.9755 5.02108 26.4665 4.56122 26.4899 3.99473C26.5143 3.40381 26.0212 2.87953 25.4313 2.87174C24.8304 2.86286 24.344 3.35716 24.3527 3.96473C24.3617 4.54678 24.8215 5.00553 25.4024 5.0133Z" fill="#39B54A"/>
<path d="M5.0808 30.244C2.40718 30.2495 0.261187 28.1357 0.24231 25.4799C0.223433 22.7462 2.38498 20.558 5.093 20.5713C7.75444 20.5837 9.9392 22.7985 9.91599 25.4577C9.89261 28.1102 7.741 30.2383 5.0808 30.244ZM3.38243 25.3944C2.86593 24.438 2.9448 23.4972 3.74121 22.7895C4.40545 22.1999 5.44733 22.132 6.18822 22.6308C7.1146 23.2551 7.24348 24.1092 6.77804 25.3632C7.47899 26.0241 8.06982 26.5817 8.59409 27.0771C9.4516 25.6731 9.02731 23.5005 7.39232 22.2797C5.76279 21.0635 3.46463 21.31 2.12727 22.8452C0.973197 24.1692 0.829905 26.3452 1.54745 27.1039C2.12282 26.5672 2.70709 26.0241 3.38243 25.3944ZM5.05525 29.4987C5.83056 29.1998 6.56255 28.951 7.25679 28.6222C7.40336 28.5533 7.5212 28.1545 7.46228 27.968C7.15794 27.0039 6.16934 26.3329 5.12855 26.3163C4.0389 26.2985 3.03255 26.9305 2.69709 27.9224C2.62934 28.1235 2.75152 28.56 2.90925 28.6377C3.57792 28.9677 4.29216 29.2031 5.05525 29.4987ZM5.04635 25.3744C5.61062 25.3888 6.10047 24.9256 6.13157 24.3502C6.16377 23.7415 5.69392 23.2351 5.08857 23.2262C4.5132 23.2172 4.02112 23.6727 3.99335 24.238C3.96448 24.829 4.45543 25.3588 5.04635 25.3744Z" fill="#39B54A"/>
<path d="M16.922 1.89059C16.8809 1.69845 16.7587 1.44074 16.8242 1.37744C17.0008 1.2086 17.2541 1.1164 17.4852 1.01088C17.5118 0.99866 17.5896 1.08975 17.6384 1.1375C18.6659 2.14608 18.6659 2.6648 17.6196 3.59008C17.3563 3.82332 17.0586 4.23653 16.7032 3.83332C16.5543 3.6645 16.6787 3.25462 16.6787 2.84587C15.5936 2.61815 14.3384 2.70813 13.0977 2.92806C6.20535 4.1499 1.70453 10.6679 2.95747 17.569C3.00079 17.8055 2.98302 18.0711 2.91527 18.2999C2.88861 18.3899 2.56981 18.5043 2.52316 18.4598C2.341 18.2876 2.12773 18.0745 2.08108 17.8456C1.5668 15.3142 1.77452 12.8304 2.71088 10.4246C4.92574 4.7275 10.524 1.29745 16.6066 1.88949C16.6954 1.89839 16.7864 1.89059 16.922 1.89059Z" fill="#39B54A"/>
<path d="M13.7294 28.5874C13.6117 28.945 13.5228 29.2161 13.4329 29.4883C13.1629 29.3372 12.802 29.2516 12.6387 29.0239C11.7924 27.8444 11.9256 27.3222 13.2118 26.6114C13.3574 26.5314 13.6817 26.5303 13.7572 26.6247C13.8672 26.7624 13.8583 27.0235 13.8383 27.2268C13.8273 27.3401 13.6927 27.4412 13.5661 27.6123C15.6478 27.932 17.5982 27.6889 19.4909 26.9958C25.3025 24.8664 28.627 19.0005 27.5129 12.8812C27.4507 12.5413 27.3197 12.126 27.8062 12.0292C28.3338 11.9237 28.3616 12.3758 28.4293 12.7424C30.0833 21.5751 22.8411 29.4849 13.9072 28.6008C13.8172 28.5918 13.725 28.5897 13.7283 28.5897L13.7294 28.5874Z" fill="#39B54A"/>
<path d="M10.4043 15.2324C10.4098 12.5466 12.5759 10.3995 15.2684 10.4072C17.9476 10.415 20.0857 12.5855 20.0768 15.289C20.068 17.9283 17.8987 20.0797 15.2473 20.0786C12.5581 20.0786 10.3988 17.9171 10.4043 15.2324ZM11.7251 16.9208C12.2826 16.3743 12.8669 15.8011 13.5201 15.1613C13.038 14.2772 13.1302 13.2775 13.9488 12.5888C14.6597 11.9901 15.7094 11.9624 16.4502 12.5199C17.3343 13.1864 17.4533 14.1772 16.8057 15.4968C17.1256 15.7544 17.4733 15.9867 17.7586 16.2787C18.0441 16.5708 18.2663 16.9252 18.5163 17.2517C19.5637 15.8688 19.3016 13.735 17.9253 12.4099C16.5036 11.0414 14.2598 10.9682 12.7436 12.2411C11.2341 13.5084 10.882 15.6656 11.7251 16.9185V16.9208ZM15.2283 19.3199C15.967 19.0434 16.6745 18.7936 17.3687 18.5136C17.7843 18.3459 17.7953 18.0416 17.6065 17.6682C17.1134 16.6919 16.3392 16.1443 15.2395 16.1433C14.1387 16.1433 13.369 16.6965 12.8736 17.6705C12.6814 18.0482 12.7048 18.348 13.1146 18.5158C13.7878 18.7913 14.473 19.0344 15.2283 19.3199ZM16.3225 14.095C16.3057 13.5407 15.7982 13.0397 15.2505 13.0364C14.6685 13.033 14.1453 13.5651 14.1598 14.145C14.1742 14.7292 14.7207 15.2346 15.2994 15.198C15.8603 15.1624 16.3392 14.6459 16.3225 14.095Z" fill="#39B54A"/>
</svg>
