<svg width="31" height="36" viewBox="0 0 31 36" fill="none" xmlns="http://www.w3.org/2000/svg">
<path d="M8.57972 20.0564V21.9C8.33013 21.9 8.08945 21.9 7.84862 21.9C7.61999 21.9 7.39135 21.8966 7.16162 21.9022C6.90218 21.9088 6.73626 22.0649 6.74173 22.2858C6.74721 22.5024 6.90218 22.6486 7.15396 22.653C7.54305 22.6596 7.93229 22.6541 8.32137 22.6552C8.40269 22.6552 8.48417 22.6618 8.58847 22.6661C8.58847 22.7662 8.58847 22.8476 8.58847 22.93C8.58847 23.9446 8.59285 24.9594 8.58519 25.974C8.583 26.2136 8.66323 26.3718 8.87544 26.494C11.0235 27.7285 13.1693 28.9673 15.313 30.2095C15.5163 30.3273 15.6868 30.3227 15.8879 30.2062C18.0316 28.963 20.1773 27.7241 22.3254 26.4896C22.5298 26.3718 22.6101 26.2212 22.609 25.9893C22.6024 24.9747 22.6057 23.9601 22.6057 22.9455C22.6057 22.8563 22.6057 22.7673 22.6057 22.6541C23.1663 22.6541 23.6985 22.6541 24.2305 22.6541C24.3372 22.6541 24.4449 22.6585 24.5503 22.6486C24.7691 22.6266 24.9055 22.4793 24.9044 22.2738C24.9044 22.0649 24.756 21.9088 24.5197 21.9033C24.1073 21.8933 23.6961 21.9 23.2839 21.8989C23.0653 21.8989 22.8465 21.8989 22.6168 21.8989V20.0553C22.7003 20.0498 22.7739 20.0411 22.8476 20.0411C24.0303 20.0411 25.2121 20.0389 26.395 20.0411C27.3415 20.0433 27.868 20.572 27.868 21.5152C27.868 24.7647 27.868 28.0154 27.868 31.2649V31.4903H3.32617C3.32617 31.4123 3.32617 31.3308 3.32617 31.2506C3.32617 27.9781 3.32617 24.7054 3.32617 21.4317C3.32617 20.6127 3.88132 20.0455 4.6992 20.0411C5.91943 20.0356 7.14082 20.0389 8.36093 20.0411C8.42802 20.0411 8.49511 20.0487 8.57862 20.0542L8.57972 20.0564Z" fill="#39B54A"/>
<path d="M30.5682 32.2859C30.5682 33.0091 30.6309 33.7304 30.5518 34.4351C30.4627 35.2309 29.7306 35.7948 28.9259 35.7992C27.576 35.8069 26.2261 35.8025 24.876 35.8025C17.3866 35.8025 9.89593 35.8025 2.40635 35.8025C1.45766 35.8025 0.733224 35.2639 0.63098 34.3647C0.552929 33.6819 0.615592 32.984 0.615592 32.2793H6.74306C6.74306 32.6465 6.74306 33.0026 6.74306 33.3588C6.74415 33.7348 6.85847 33.8502 7.23442 33.8502C12.9629 33.8502 18.6904 33.8502 24.4187 33.8502C24.7903 33.8502 24.9046 33.7337 24.9057 33.3544C24.9057 33.0048 24.9057 32.6552 24.9057 32.2859H30.5682Z" fill="#39B54A"/>
<path d="M15.5734 13.0509C14.9249 12.1891 14.2829 11.3657 13.6727 10.5192C12.8209 9.33638 12.0688 8.09638 11.45 6.76952C10.2077 4.10811 12.2074 0.989395 15.0733 0.691482C17.4675 0.443034 19.554 1.96777 20.0454 4.31918C20.206 5.08429 20.1125 5.81642 19.8266 6.53646C19.3485 7.7424 18.6889 8.84829 17.9447 9.90143C17.2323 10.9084 16.4715 11.8824 15.7307 12.8706C15.6944 12.9178 15.6525 12.9619 15.5734 13.0509ZM13.4661 5.11506C13.4528 6.26713 14.4027 7.23672 15.5581 7.25101C16.7497 7.2653 17.7084 6.3331 17.7248 5.14365C17.7412 3.97838 16.7959 3.01101 15.6219 2.99122C14.4478 2.97143 13.4804 3.92562 13.4661 5.11506Z" fill="#39B54A"/>
<path d="M9.35605 19.1094C9.73309 19.3249 10.0881 19.5271 10.4432 19.7316C11.947 20.6 13.4488 21.4739 14.958 22.3336C15.1648 22.4513 15.2317 22.582 15.2306 22.8162C15.2208 24.8818 15.2252 26.9485 15.2252 29.0141V29.2769C15.1329 29.2295 15.0603 29.1965 14.991 29.1558C13.1629 28.1016 11.3359 27.0453 9.50774 25.9922C9.40328 25.9316 9.3329 25.8788 9.334 25.7349C9.33947 23.5549 9.33838 21.374 9.33838 19.194C9.33838 19.1797 9.34401 19.1643 9.35605 19.1094Z" fill="#39B54A"/>
<path d="M15.9712 29.27C15.9712 29.1688 15.9712 29.0952 15.9712 29.0228C15.9712 26.9252 15.9734 24.8278 15.9668 22.7303C15.9668 22.5544 16.0184 22.4621 16.1724 22.3741C17.9709 21.3441 19.766 20.3053 21.5611 19.2686C21.6457 19.2203 21.7305 19.1729 21.8426 19.1104C21.8492 19.195 21.858 19.2511 21.858 19.3071C21.858 21.4353 21.858 23.5625 21.8612 25.6907C21.8612 25.8249 21.8348 25.9117 21.7084 25.9842C19.8517 27.0517 17.9973 28.1245 16.1427 29.1953C16.0988 29.2206 16.0503 29.237 15.9734 29.2711L15.9712 29.27Z" fill="#39B54A"/>
<path d="M9.74023 18.4326C10.4823 18.0038 11.2132 17.5795 11.9476 17.1618C12.0003 17.1321 12.0993 17.1343 12.1522 17.164C14.0516 18.2622 15.9479 19.3659 17.8442 20.4695C17.8552 20.4761 17.863 20.4905 17.886 20.5191C17.8003 20.5707 17.719 20.6223 17.6355 20.6708C17.0088 21.0324 16.3833 21.3974 15.7523 21.7514C15.6808 21.7921 15.5544 21.814 15.4906 21.7777C13.5867 20.6872 11.6871 19.5891 9.78746 18.4908C9.77542 18.4842 9.76885 18.4678 9.74023 18.4326Z" fill="#39B54A"/>
<path d="M24.1455 32.2842V33.09H7.50977V32.2842H24.1455Z" fill="#39B54A"/>
<path d="M13.6925 16.1514C14.3093 15.7963 14.9007 15.4522 15.4976 15.1158C15.5503 15.0861 15.6493 15.0883 15.702 15.1191C17.6038 16.2118 19.5023 17.3101 21.4008 18.4071C21.4129 18.4148 21.4218 18.4291 21.4514 18.4599C21.3217 18.538 21.1952 18.616 21.0666 18.6908C20.6061 18.9579 20.1465 19.2294 19.6794 19.4866C19.6101 19.5251 19.4837 19.5295 19.4177 19.4921C17.5302 18.4049 15.6482 17.3101 13.7651 16.2151C13.7465 16.2041 13.7332 16.1866 13.6925 16.1514Z" fill="#39B54A"/>
</svg>
