<svg width="31" height="32" viewBox="0 0 31 32" fill="none" xmlns="http://www.w3.org/2000/svg">
<path d="M5.69495 20.2001C4.71693 17.2872 4.89125 14.5053 6.33994 11.8529C7.7923 9.19412 10.0337 7.54539 13.0127 6.79121V8.75278C14.7275 7.32977 16.3862 5.95265 18.0689 4.55533C16.3826 3.16444 14.7165 1.79007 12.9889 0.365234V2.1277C8.22899 3.01398 4.57656 5.47557 2.28654 9.75104C-0.00531682 14.0282 -0.0438458 18.4247 1.84065 22.847C1.87185 22.8488 1.90395 22.8507 1.93515 22.8526C2.14617 21.5992 2.3581 20.3469 2.57555 19.0523C3.61596 19.435 4.62702 19.8075 5.69495 20.2001Z" fill="#39B54A"/>
<path d="M23.07 23.2482C18.6055 28.3917 11.3291 27.6485 7.83626 23.6061C8.37302 23.2923 8.90788 22.9795 9.49691 22.6345C7.40504 21.8601 5.39119 21.1161 3.33421 20.3545C2.97181 22.5125 2.61491 24.6382 2.24609 26.8356C2.78923 26.5246 3.26724 26.2503 3.76267 25.9668C10.4098 34.0598 22.2792 32.701 27.2766 25.1749C26.0482 25.6309 24.8544 26.075 23.6388 26.5264C23.4452 25.4117 23.2617 24.352 23.07 23.2482Z" fill="#39B54A"/>
<path d="M17.0097 6.68642C24.1073 8.13236 26.6064 15.1125 24.9311 19.6843C24.399 19.3806 23.8696 19.0778 23.2797 18.7412C23.6567 20.9448 24.0201 23.0689 24.388 25.2203C26.455 24.4487 28.4699 23.6964 30.492 22.9414C30.4635 22.8908 30.4608 22.8781 30.4526 22.8724C30.0507 22.6376 29.6543 22.3945 29.2442 22.1743C29.0469 22.0679 29.0222 21.9651 29.0992 21.755C29.9259 19.4824 30.1873 17.1456 29.8617 14.7473C28.9571 8.09291 23.7266 2.91377 17.0721 2.08162C16.928 2.06327 16.7821 2.06143 16.5391 2.04492C17.6006 2.92294 18.5767 3.73031 19.5722 4.5533C18.7079 5.27259 17.8841 5.95886 17.0097 6.68642Z" fill="#39B54A"/>
<path d="M16.9077 22.1164C16.992 22.0908 17.0792 22.0715 17.1636 22.0431C18.2747 21.6669 19.0141 20.9476 19.1664 19.7512C19.3196 18.5503 18.9977 17.5089 17.915 16.8474C17.3902 16.5263 16.803 16.308 16.2415 16.0483C15.7902 15.8401 15.3057 15.6868 14.8892 15.4244C14.2644 15.0327 14.2672 13.9876 14.8516 13.5959C15.6176 13.083 16.6709 13.4812 16.8948 14.3694C16.9214 14.4767 16.9269 14.5887 16.9507 14.6969C17.0086 14.9546 17.1654 15.1097 17.4361 15.1143C17.8353 15.1208 18.2352 15.1263 18.6343 15.1106C18.9628 15.0969 19.116 14.9189 19.1197 14.5996C19.1325 13.3298 18.3545 12.2169 17.1536 11.7904C16.9976 11.7353 16.8389 11.6884 16.6627 11.6316C16.6627 11.249 16.66 10.8728 16.6627 10.4967C16.6654 10.2196 16.5297 10.0866 16.2581 10.0847C15.914 10.0829 15.57 10.0774 15.226 10.0847C14.8699 10.093 14.7865 10.1838 14.7818 10.5545C14.7772 10.9077 14.7809 11.261 14.7809 11.6123C14.591 11.6665 14.4304 11.7059 14.2736 11.7592C13.1754 12.1298 12.4488 12.8464 12.2698 14.0179C12.0772 15.2777 12.4313 16.3456 13.5643 17.0227C14.1203 17.3547 14.7469 17.5685 15.3396 17.841C15.7508 18.03 16.1948 18.175 16.5572 18.4328C17.2085 18.8962 17.1288 19.876 16.4535 20.2466C15.3975 20.8256 14.2415 20.2971 14.0313 19.1291C13.9773 18.8255 13.813 18.6787 13.5158 18.676C13.1497 18.6723 12.7836 18.6696 12.4176 18.6824C12.0203 18.6962 11.8541 18.8714 11.868 19.2714C11.9019 20.2778 12.2762 21.1219 13.169 21.6376C13.6515 21.9156 14.1947 22.0881 14.7809 22.3377C14.7809 22.6046 14.7865 22.9367 14.7791 23.2688C14.7727 23.5468 14.9038 23.6836 15.1754 23.6863C15.5306 23.69 15.8856 23.69 16.2406 23.6872C16.526 23.6854 16.6663 23.5459 16.6609 23.2523C16.6536 22.8991 16.659 22.5449 16.659 22.1954C16.759 22.1624 16.8315 22.1376 16.9058 22.1146L16.9077 22.1164Z" fill="#39B54A"/>
</svg>
