<svg width="119" height="38" viewBox="0 0 119 38" fill="none" xmlns="http://www.w3.org/2000/svg">
<rect width="118.97" height="37.8" rx="18.9" fill="white"/>
<path d="M35.5307 14.3618V14.3326L33.4312 16.6654C33.3146 16.8112 33.1396 16.8987 32.9355 16.8987C32.7605 16.9278 32.5564 16.8403 32.4398 16.6945L31.2734 15.5282C30.9818 15.2657 30.9818 14.8283 31.2734 14.5367C31.5358 14.2743 31.9732 14.2743 32.2648 14.5367L32.9063 15.2074L34.5101 13.3995C34.7725 13.1371 35.2099 13.1079 35.5015 13.3704C35.764 13.6328 35.7931 14.0702 35.5307 14.3618ZM35.5307 19.0273V18.9982L33.4312 21.3309C33.3146 21.4767 33.1396 21.5642 32.9355 21.5642C32.7605 21.5934 32.5564 21.5059 32.4398 21.3601L31.2734 20.1937C30.9818 19.9313 30.9818 19.4939 31.2734 19.2023C31.5358 18.9398 31.9732 18.9398 32.2648 19.2023L32.9063 19.8729L34.5101 18.065C34.7725 17.8026 35.2099 17.7735 35.5015 18.0359C35.764 18.2983 35.7931 18.7357 35.5307 19.0273ZM37.3677 15.7323C36.9595 15.7323 36.6679 15.4407 36.6679 15.0325C36.6679 14.6534 36.9595 14.3326 37.3677 14.3326H45.2992C45.6782 14.3326 45.999 14.6534 45.999 15.0325C45.999 15.4407 45.6782 15.7323 45.2992 15.7323H37.3677ZM36.6679 19.698C36.6679 19.3189 36.9595 18.9982 37.3677 18.9982H45.2992C45.6782 18.9982 45.999 19.3189 45.999 19.698C45.999 20.1062 45.6782 20.3978 45.2992 20.3978H37.3677C36.9595 20.3978 36.6679 20.1062 36.6679 19.698ZM35.7348 24.3635C35.7348 23.9844 36.0264 23.6637 36.4346 23.6637H45.2992C45.6782 23.6637 45.999 23.9844 45.999 24.3635C45.999 24.7717 45.6782 25.0633 45.2992 25.0633H36.4346C36.0264 25.0633 35.7348 24.7717 35.7348 24.3635ZM33.8686 24.3635C33.8686 24.8884 33.4312 25.2966 32.9355 25.2966C32.4106 25.2966 32.0024 24.8884 32.0024 24.3635C32.0024 23.8679 32.4106 23.4304 32.9355 23.4304C33.4312 23.4304 33.8686 23.8679 33.8686 24.3635Z" fill="black"/>
<path d="M54.807 23V14.8182H60.0485V16.0606H56.2892V18.2819H59.6889V19.5243H56.2892V23H54.807ZM63.5131 23.1199C62.9138 23.1199 62.3945 22.988 61.955 22.7243C61.5156 22.4607 61.1747 22.0918 60.9323 21.6177C60.6926 21.1436 60.5728 20.5897 60.5728 19.9558C60.5728 19.3219 60.6926 18.7666 60.9323 18.2899C61.1747 17.8131 61.5156 17.4429 61.955 17.1792C62.3945 16.9156 62.9138 16.7837 63.5131 16.7837C64.1124 16.7837 64.6317 16.9156 65.0712 17.1792C65.5106 17.4429 65.8502 17.8131 66.0899 18.2899C66.3323 18.7666 66.4534 19.3219 66.4534 19.9558C66.4534 20.5897 66.3323 21.1436 66.0899 21.6177C65.8502 22.0918 65.5106 22.4607 65.0712 22.7243C64.6317 22.988 64.1124 23.1199 63.5131 23.1199ZM63.5211 21.9613C63.846 21.9613 64.1177 21.8721 64.3361 21.6936C64.5545 21.5125 64.7169 21.2702 64.8235 20.9665C64.9327 20.6629 64.9873 20.3247 64.9873 19.9518C64.9873 19.5763 64.9327 19.2367 64.8235 18.9331C64.7169 18.6268 64.5545 18.3831 64.3361 18.202C64.1177 18.0209 63.846 17.9303 63.5211 17.9303C63.1882 17.9303 62.9112 18.0209 62.6901 18.202C62.4717 18.3831 62.3079 18.6268 62.1987 18.9331C62.0922 19.2367 62.0389 19.5763 62.0389 19.9518C62.0389 20.3247 62.0922 20.6629 62.1987 20.9665C62.3079 21.2702 62.4717 21.5125 62.6901 21.6936C62.9112 21.8721 63.1882 21.9613 63.5211 21.9613ZM67.6329 23V16.8636H69.0352V17.8864H69.0991C69.211 17.5321 69.4027 17.2591 69.6744 17.0674C69.9487 16.873 70.2616 16.7757 70.6132 16.7757C70.6931 16.7757 70.7823 16.7797 70.8809 16.7877C70.9821 16.7931 71.066 16.8024 71.1326 16.8157V18.146C71.0713 18.1247 70.9741 18.1061 70.8409 18.0901C70.7104 18.0715 70.5839 18.0621 70.4614 18.0621C70.1977 18.0621 69.9607 18.1194 69.7503 18.2339C69.5425 18.3458 69.3787 18.5016 69.2589 18.7013C69.139 18.9011 69.0791 19.1315 69.0791 19.3925V23H67.6329ZM72.0454 23V16.8636H73.4276V17.9063H73.4996C73.6274 17.5548 73.8391 17.2805 74.1348 17.0834C74.4304 16.8836 74.7833 16.7837 75.1934 16.7837C75.6089 16.7837 75.9592 16.8849 76.2441 17.0874C76.5318 17.2871 76.7342 17.5601 76.8514 17.9063H76.9153C77.0511 17.5654 77.2802 17.2938 77.6025 17.0914C77.9274 16.8863 78.3122 16.7837 78.757 16.7837C79.3216 16.7837 79.7824 16.9622 80.1393 17.3191C80.4962 17.676 80.6746 18.1966 80.6746 18.8811V23H79.2244V19.1048C79.2244 18.724 79.1232 18.4457 78.9208 18.2699C78.7184 18.0914 78.4707 18.0022 78.1777 18.0022C77.8288 18.0022 77.5558 18.1114 77.3588 18.3298C77.1643 18.5455 77.0671 18.8265 77.0671 19.1728V23H75.6489V19.0449C75.6489 18.728 75.553 18.475 75.3612 18.2859C75.1721 18.0968 74.9244 18.0022 74.6182 18.0022C74.4104 18.0022 74.2213 18.0555 74.0509 18.162C73.8804 18.2659 73.7446 18.4137 73.6434 18.6055C73.5422 18.7946 73.4916 19.0156 73.4916 19.2686V23H72.0454ZM83.8596 23.1238C83.4708 23.1238 83.1205 23.0546 82.8089 22.9161C82.5 22.7749 82.2549 22.5672 82.0738 22.2929C81.8954 22.0186 81.8062 21.6803 81.8062 21.2781C81.8062 20.9319 81.8701 20.6456 81.9979 20.4192C82.1258 20.1928 82.3002 20.0117 82.5213 19.8759C82.7423 19.7401 82.9914 19.6375 83.2683 19.5683C83.548 19.4964 83.837 19.4444 84.1353 19.4125C84.4948 19.3752 84.7864 19.3419 85.0102 19.3126C85.2339 19.2806 85.3964 19.2327 85.4976 19.1688C85.6014 19.1022 85.6534 18.9996 85.6534 18.8612V18.8372C85.6534 18.5362 85.5641 18.3032 85.3857 18.1381C85.2073 17.9729 84.9502 17.8904 84.6147 17.8904C84.2604 17.8904 83.9795 17.9676 83.7717 18.1221C83.5666 18.2765 83.4281 18.459 83.3562 18.6694L82.0059 18.4776C82.1124 18.1048 82.2882 17.7931 82.5333 17.5428C82.7783 17.2898 83.0779 17.1007 83.4321 16.9755C83.7864 16.8477 84.1779 16.7837 84.6067 16.7837C84.9023 16.7837 85.1966 16.8184 85.4896 16.8876C85.7825 16.9569 86.0502 17.0714 86.2926 17.2312C86.5349 17.3883 86.7294 17.6027 86.8758 17.8744C87.025 18.146 87.0996 18.4856 87.0996 18.8931V23H85.7093V22.157H85.6614C85.5735 22.3275 85.4496 22.4873 85.2898 22.6365C85.1327 22.7829 84.9343 22.9015 84.6946 22.992C84.4575 23.0799 84.1792 23.1238 83.8596 23.1238ZM84.2351 22.0612C84.5254 22.0612 84.7771 22.0039 84.9902 21.8894C85.2033 21.7722 85.3671 21.6177 85.4816 21.426C85.5988 21.2342 85.6574 21.0251 85.6574 20.7987V20.0756C85.6121 20.1129 85.5349 20.1475 85.4257 20.1795C85.3191 20.2115 85.1993 20.2394 85.0661 20.2634C84.9329 20.2874 84.8011 20.3087 84.6706 20.3273C84.5401 20.346 84.4269 20.3619 84.331 20.3753C84.1153 20.4046 83.9222 20.4525 83.7517 20.5191C83.5813 20.5857 83.4468 20.6789 83.3482 20.7987C83.2497 20.9159 83.2004 21.0677 83.2004 21.2542C83.2004 21.5205 83.2976 21.7216 83.4921 21.8574C83.6865 21.9933 83.9342 22.0612 84.2351 22.0612ZM89.952 19.4045V23H88.5058V16.8636H89.888V17.9063H89.9599C90.1011 17.5628 90.3262 17.2898 90.6351 17.0874C90.9467 16.8849 91.3316 16.7837 91.7897 16.7837C92.2131 16.7837 92.582 16.8743 92.8963 17.0554C93.2132 17.2365 93.4583 17.4988 93.6314 17.8424C93.8072 18.186 93.8937 18.6028 93.8911 19.0929V23H92.4449V19.3166C92.4449 18.9064 92.3383 18.5855 92.1253 18.3538C91.9149 18.1221 91.6232 18.0062 91.2503 18.0062C90.9973 18.0062 90.7723 18.0621 90.5752 18.174C90.3808 18.2832 90.2276 18.4417 90.1158 18.6494C90.0066 18.8572 89.952 19.1088 89.952 19.4045Z" fill="black"/>
</svg>
