<svg width="31" height="36" viewBox="0 0 31 36" fill="none" xmlns="http://www.w3.org/2000/svg">
<path d="M27.2075 33.6566C27.0863 33.6089 26.9858 33.5794 26.8965 33.5305C26.8169 33.4864 26.7497 33.4216 26.6774 33.3664C25.9959 32.8353 25.2655 32.7593 24.486 33.1388C24.3942 33.1841 24.3171 33.3248 24.2976 33.4326C24.2265 33.8036 24.1763 34.1806 24.1335 34.5564C24.0943 34.8992 23.9142 35.0817 23.5739 35.0841C22.9214 35.0902 22.2678 35.0927 21.6152 35.0841C21.2981 35.0793 21.1084 34.9164 21.0741 34.5847C21.0361 34.221 20.9651 33.8598 20.9468 33.4962C20.9334 33.2416 20.8256 33.1315 20.5893 33.0714C20.3763 33.0176 20.1499 32.9502 19.9747 32.8241C19.627 32.5756 19.3688 32.6724 19.0933 32.9356C18.8864 33.1327 18.6452 33.2956 18.4212 33.4742C18.1532 33.6885 17.9022 33.6799 17.6561 33.4326C17.1958 32.9687 16.7329 32.5096 16.2702 32.0481C16.0241 31.8032 16.0144 31.5498 16.2347 31.2841C16.2592 31.2534 16.2826 31.2229 16.3057 31.1911C16.5603 30.8471 16.9717 30.5251 17.0255 30.1529C17.0758 29.7978 16.7684 29.3816 16.5837 29.0094C16.5299 28.8993 16.3695 28.7988 16.2434 28.7757C15.8588 28.7046 15.4672 28.6752 15.0791 28.625C14.789 28.5871 14.6347 28.4169 14.6335 28.1256C14.6298 27.434 14.6298 26.741 14.6347 26.0493C14.6371 25.7567 14.7987 25.5914 15.0877 25.5559C15.4891 25.5045 15.8931 25.4714 16.2911 25.3993C16.4036 25.3784 16.5335 25.2694 16.5885 25.1654C16.6988 24.9597 16.7244 24.7051 16.8529 24.5153C17.1211 24.1175 17.0427 23.8126 16.7158 23.4993C16.5285 23.3204 16.3902 23.0928 16.2261 22.8883C16.0083 22.6167 16.034 22.3655 16.2763 22.1233C16.7293 21.6715 17.1847 21.221 17.6328 20.7643C17.9034 20.4888 18.1702 20.4913 18.4604 20.7337C18.7199 20.9515 19.0003 21.1462 19.2549 21.3704C19.4323 21.527 19.5854 21.5797 19.8021 21.4352C19.9625 21.3274 20.1499 21.2295 20.3359 21.2001C20.8305 21.1219 20.9872 20.823 20.9896 20.3652C20.9909 20.0935 21.0435 19.8216 21.068 19.5487C21.0912 19.289 21.2209 19.1313 21.4855 19.1226C22.149 19.1006 22.8125 19.07 23.4761 19.0773C23.9829 19.0834 24.1041 19.2218 24.1776 19.725C24.2399 20.1473 24.1763 20.6713 24.4052 20.9639C24.6366 21.2602 25.1568 21.3373 25.5597 21.4853C25.6527 21.5196 25.807 21.4817 25.8939 21.4193C26.2023 21.2001 26.4961 20.9603 26.7889 20.7203C27.0679 20.4925 27.3261 20.4925 27.5846 20.7546C28.0437 21.2197 28.5076 21.6788 28.9679 22.1403C29.1981 22.3718 29.2128 22.6167 29.012 22.8737C28.7708 23.1821 28.5137 23.4796 28.2946 23.8028C28.226 23.9033 28.2223 24.0808 28.253 24.2081C28.2946 24.3819 28.439 24.5362 28.4635 24.71C28.5517 25.3356 28.9655 25.4446 29.5054 25.485C30.6146 25.5682 30.6133 25.589 30.6133 26.6921C30.6133 27.0972 30.6133 27.5012 30.6133 27.9065C30.6121 28.4671 30.5141 28.5773 29.9449 28.6532C29.6339 28.6949 29.323 28.745 29.0107 28.7584C28.7744 28.7684 28.6619 28.8687 28.6079 29.0902C28.5651 29.2666 28.5174 29.4575 28.4122 29.5996C28.0804 30.0451 28.2138 30.3966 28.57 30.7442C28.7365 30.907 28.8625 31.1115 29.0083 31.2952C29.2103 31.5498 29.2091 31.7971 28.9789 32.0296C28.5101 32.5035 28.0424 32.976 27.5637 33.4399C27.467 33.5342 27.3286 33.5857 27.2075 33.6566ZM22.6412 23.7833C20.8073 23.7746 19.3223 25.2535 19.3198 27.0874C19.3174 28.9018 20.7864 30.3844 22.5983 30.399C24.3991 30.4136 25.9073 28.9324 25.9257 27.1303C25.944 25.3025 24.4627 23.7919 22.6412 23.7833Z" fill="#39B54A"/>
<path d="M23.6831 18.4094H22.6303C22.6303 18.1071 22.6303 17.8267 22.6303 17.5463C22.6328 13.7574 22.6377 9.96964 22.6389 6.18067C22.6389 5.18047 22.1455 4.69322 21.1429 4.69322C20.0325 4.69322 18.922 4.69322 17.8118 4.69322C17.6721 4.69322 17.5326 4.69322 17.4017 4.69322C17.2352 5.53795 17.1848 5.57711 16.3304 5.57711C13.5086 5.57711 10.6879 5.57711 7.86609 5.57711C7.16337 5.57711 7.02509 5.44857 6.95525 4.69322C6.82306 4.69322 6.68478 4.69322 6.54755 4.69322C5.4373 4.69322 4.32687 4.69322 3.21648 4.69322C2.16242 4.69446 1.69845 5.16334 1.69845 6.23208C1.69845 9.42001 1.69845 12.6079 1.69845 15.7945C1.69845 20.3915 1.69845 24.9873 1.69845 29.5842C1.69845 30.7252 2.15018 31.1831 3.28137 31.1831C7.17312 31.1831 11.0662 31.1831 14.9581 31.1831C15.1124 31.1831 15.2653 31.1831 15.4478 31.1831V32.22C15.3583 32.2237 15.2237 32.2346 15.0878 32.2346C11.1434 32.2346 7.19767 32.2003 3.25443 32.2519C1.63111 32.2726 0.586849 31.095 0.61379 29.5842C0.671314 26.3584 0.632147 23.1313 0.632147 19.9042C0.632147 15.349 0.632147 10.7936 0.632147 6.23819C0.632147 4.55856 1.57358 3.62204 3.25934 3.62204C4.34401 3.62204 5.42738 3.62204 6.51202 3.62204C6.65291 3.62204 6.79363 3.62204 6.96013 3.62204C6.96866 3.48614 6.97493 3.38576 6.98102 3.28536C7.00784 2.83853 7.21979 2.62428 7.67643 2.61449C8.21126 2.60347 8.74749 2.6047 9.2825 2.61204C9.80044 2.61939 10.1493 2.39291 10.3501 1.91547C10.6892 1.11236 11.3025 0.670423 12.1717 0.672862C13.0422 0.675317 13.6493 1.12706 13.9871 1.92771C14.1819 2.39046 14.5197 2.61571 15.0216 2.61082C15.5175 2.60592 16.0145 2.60836 16.5103 2.61082C17.1432 2.61327 17.3111 2.77609 17.3489 3.41758C17.3513 3.46777 17.3637 3.51796 17.3783 3.62204C17.5864 3.62204 17.7909 3.62204 17.9941 3.62204C19.0654 3.62204 20.1366 3.62204 21.2077 3.62204C22.6963 3.62204 23.6916 4.60386 23.6929 6.10108C23.6953 9.86306 23.6868 13.6252 23.6831 17.3873C23.6831 17.7215 23.6831 18.0569 23.6831 18.4094ZM12.8597 2.36597C12.8696 1.98523 12.561 1.65714 12.1827 1.64613C11.8081 1.63511 11.4763 1.95096 11.4642 2.32924C11.4518 2.70263 11.7701 3.03808 12.1448 3.0491C12.5206 3.06011 12.8511 2.74671 12.8597 2.36597Z" fill="#39B54A"/>
<path d="M15.7196 15.7513C14.5454 15.7513 13.3714 15.7525 12.1974 15.7513C11.7481 15.7513 11.513 15.5653 11.5217 15.2323C11.5303 14.9103 11.753 14.7402 12.1839 14.7402C14.532 14.739 16.8802 14.739 19.2281 14.7402C19.6945 14.7402 19.9187 14.9042 19.9211 15.2384C19.9235 15.5763 19.697 15.7501 19.2415 15.7513C18.0675 15.7525 16.8936 15.7513 15.7196 15.7513Z" fill="#39B54A"/>
<path d="M15.7084 10.3618C14.5344 10.3618 13.3605 10.3642 12.1865 10.3618C11.7457 10.3618 11.529 10.1977 11.5217 9.87694C11.513 9.54639 11.7542 9.35534 12.1974 9.35413C14.5454 9.35291 16.8936 9.35413 19.2403 9.35413C19.2931 9.35413 19.3445 9.35169 19.397 9.35656C19.7154 9.3799 19.9211 9.5342 19.9174 9.86841C19.9126 10.2014 19.7118 10.3618 19.3873 10.363C18.1618 10.3654 16.934 10.3618 15.7084 10.3618Z" fill="#39B54A"/>
<path d="M6.30464 26.7758C7.06361 26.007 7.77852 25.2834 8.49361 24.5612C8.58539 24.4682 8.67595 24.3738 8.77017 24.2845C9.04812 24.0201 9.34802 23.9894 9.56467 24.2C9.78515 24.4142 9.76425 24.7204 9.49866 24.9921C9.13381 25.3655 8.76164 25.7315 8.3919 26.1013C7.84714 26.646 7.30604 27.1944 6.7564 27.7343C6.43926 28.0466 6.19806 28.0466 5.88109 27.7368C5.4525 27.3169 5.0326 26.8872 4.60662 26.4625C4.37036 26.2261 4.30914 25.9691 4.538 25.6997C4.73515 25.4684 5.06448 25.4867 5.32763 25.7512C5.64964 26.0731 5.95703 26.4085 6.30464 26.7758Z" fill="#39B54A"/>
<path d="M6.30357 10.6099C7.11027 9.79952 7.87429 9.03184 8.63814 8.26555C8.72992 8.17367 8.82187 8.02431 8.92584 8.01207C9.1364 7.98758 9.43264 7.96432 9.54897 8.08185C9.66409 8.20059 9.66897 8.51773 9.59913 8.70129C9.52703 8.89112 9.3102 9.02818 9.15364 9.18492C8.37011 9.97089 7.58658 10.7569 6.7994 11.539C6.42601 11.9112 6.21057 11.9124 5.84084 11.5489C5.43192 11.1461 5.02422 10.7408 4.62262 10.3295C4.34602 10.0466 4.32276 9.76156 4.5432 9.53985C4.75985 9.32199 5.06341 9.34027 5.33527 9.61091C5.65101 9.92178 5.95335 10.2475 6.30357 10.6099Z" fill="#39B54A"/>
<path d="M6.26873 21.3485C7.06462 20.5662 7.80636 19.8378 8.54826 19.1081C8.64143 19.0163 8.72207 18.9122 8.82012 18.8277C9.06986 18.6135 9.40772 18.616 9.58762 18.8438C9.78964 19.0996 9.74193 19.3774 9.53259 19.5893C8.60834 20.5258 7.67173 21.45 6.73408 22.372C6.43906 22.6621 6.19175 22.6546 5.88681 22.3572C5.45838 21.9385 5.03484 21.5137 4.61616 21.0853C4.34554 20.8086 4.32962 20.5148 4.55486 20.2969C4.77778 20.0813 5.06287 20.1046 5.34326 20.3838C5.65675 20.6959 5.95664 21.0216 6.26873 21.3485Z" fill="#39B54A"/>
<path d="M6.29295 16.0307C6.93193 15.3783 7.5049 14.7919 8.0791 14.2078C8.3264 13.9568 8.57248 13.7047 8.82831 13.4636C9.05977 13.2444 9.32657 13.2113 9.55925 13.4403C9.79296 13.6679 9.77712 13.9386 9.55071 14.1688C8.60069 15.1334 7.65189 16.1005 6.68341 17.0469C6.47912 17.2477 6.18393 17.2918 5.94411 17.0554C5.49845 16.6159 5.06254 16.1679 4.6268 15.7198C4.3489 15.4346 4.32196 15.1554 4.53746 14.9302C4.76508 14.6927 5.05522 14.7136 5.3539 15.0171C5.6625 15.3306 5.95387 15.6624 6.29295 16.0307Z" fill="#39B54A"/>
<path d="M17.2437 20.2302C16.9633 20.4982 16.6914 20.7774 16.3964 21.0283C16.3095 21.1018 16.1602 21.1299 16.039 21.1311C14.7463 21.1386 13.4546 21.1374 12.1618 21.1335C11.7456 21.1323 11.5155 20.939 11.5216 20.6158C11.5277 20.3035 11.7419 20.126 12.1447 20.126C13.8255 20.1224 15.5077 20.1248 17.1885 20.1248L17.2437 20.2302Z" fill="#39B54A"/>
<path d="M14.006 25.4981C13.9729 25.8506 13.9434 26.1567 13.9117 26.5031C13.2604 26.5031 12.6127 26.5167 11.9652 26.497C11.6763 26.4885 11.5183 26.2828 11.5256 25.9963C11.5342 25.6879 11.7277 25.5091 12.0251 25.5017C12.6752 25.4859 13.3266 25.4981 14.006 25.4981Z" fill="#39B54A"/>
</svg>
