<svg width="31" height="24" viewBox="0 0 31 24" fill="none" xmlns="http://www.w3.org/2000/svg">
<path d="M12.0021 16.0914C12.2967 16.0101 12.5726 15.9321 12.8496 15.8594C13.2013 15.7671 13.3498 15.8594 13.4421 16.2058C13.8434 17.7018 14.2468 19.1968 14.6512 20.6918C14.7195 20.9458 14.6623 21.0556 14.4127 21.1239C11.8416 21.8262 9.27048 22.5286 6.69922 23.2322C6.26065 23.352 6.15182 23.2871 6.0331 22.8452C5.65057 21.4228 5.26693 20.0015 4.88218 18.5801C4.76676 18.1525 4.81953 18.058 5.23944 17.9437C5.44391 17.8876 5.64727 17.8315 5.85064 17.7732C5.86382 17.77 5.87372 17.7535 5.92429 17.7051C5.62419 17.4182 5.32189 17.1379 5.02948 16.8465C3.79941 15.622 2.57483 14.393 1.34367 13.1685C0.533516 12.3628 0.243315 11.3844 0.364224 10.2686C0.575281 8.31641 0.794032 6.36407 1.00729 4.41172C1.10622 3.5027 1.71192 2.9014 2.6254 2.81345C3.53558 2.72552 4.4183 3.24106 4.62606 4.03038C4.6986 4.30619 4.68432 4.61734 4.65353 4.9076C4.50623 6.29596 4.34465 7.68319 4.17646 9.07042C4.15777 9.22881 4.23691 9.27716 4.34135 9.33868C5.49666 10.0125 6.65311 10.6853 7.80518 11.3635C8.78231 11.9384 9.7519 12.5253 10.7292 13.1014C11.0676 13.3015 11.2941 13.5895 11.4031 13.9588C11.5876 14.5832 11.7537 15.2131 11.9285 15.8408C11.9505 15.921 11.9735 16.0002 11.9998 16.0936L12.0021 16.0914ZM11.2821 16.2893C11.1182 15.6286 10.9644 15.0054 10.8105 14.381C10.7379 14.0875 10.5763 13.8698 10.3103 13.7126C9.48814 13.2267 8.67565 12.7244 7.85353 12.2364C6.52894 11.4504 5.20206 10.6676 3.87197 9.89158C3.58615 9.72452 3.20911 9.80805 3.04971 10.0443C2.88044 10.294 2.95298 10.671 3.21461 10.8864C3.27287 10.9347 3.34102 10.9722 3.40587 11.0117C4.48535 11.6635 5.56482 12.3154 6.6454 12.9672C6.7103 13.0069 6.77616 13.0453 6.83993 13.0871C7.04779 13.2223 7.13341 13.4774 7.03125 13.6533C6.94113 13.8072 6.62452 13.871 6.43215 13.7577C6.14853 13.5895 5.87261 13.4071 5.5934 13.2312C4.69751 12.6672 3.80052 12.1077 2.90681 11.5405C2.3308 11.1744 2.09995 10.6315 2.27585 10.0488C2.45392 9.45851 2.82327 9.08697 3.46304 9.07267C3.47843 9.04296 3.49162 9.02866 3.49382 9.01324C3.65211 7.49734 3.81041 5.98256 3.96321 4.46666C3.97199 4.3788 3.9566 4.27663 3.92033 4.19631C3.71586 3.73465 3.16844 3.46977 2.62431 3.55876C2.07467 3.64888 1.79656 3.95553 1.7339 4.53156C1.53385 6.35748 1.34697 8.18549 1.12601 10.008C0.988608 11.1436 1.23044 12.1186 2.11316 12.9014C2.57483 13.3113 3.01344 13.7478 3.44874 14.1864C4.48096 15.2253 5.51316 16.2639 6.52332 17.3247C6.69809 17.5084 6.82451 17.5204 7.03671 17.46C7.95569 17.1972 8.87902 16.9489 9.80137 16.696C10.2807 16.5641 10.7599 16.4332 11.2821 16.2893ZM12.8112 16.6697C10.4005 17.317 8.02059 17.9557 5.62968 18.5978C5.98584 19.9212 6.3299 21.1997 6.67946 22.4957C9.09234 21.8284 11.47 21.1711 13.8587 20.5104C13.508 19.2231 13.165 17.9668 12.8112 16.6697Z" fill="#39B54A"/>
<path d="M24.785 17.9445C25.0488 18.016 25.2764 18.0741 25.5028 18.1379C25.803 18.2225 25.9063 18.3896 25.8271 18.6887C25.4226 20.2101 25.0114 21.7292 24.608 23.2505C24.5663 23.4089 24.4805 23.4936 24.32 23.4639C24.0551 23.4144 23.7902 23.3583 23.5286 23.2891C21.1981 22.6702 18.8676 22.048 16.5373 21.4257C16.4801 21.4105 16.4218 21.3973 16.3657 21.3796C16.0568 21.2873 15.9744 21.1422 16.058 20.8267C16.3306 19.7956 16.6054 18.7657 16.8803 17.7345C17.0022 17.2761 17.1243 16.8188 17.2463 16.3605C17.321 16.0823 17.4507 15.9987 17.7289 16.0659C18.0389 16.1406 18.3467 16.2264 18.6708 16.311C18.7995 15.8185 18.938 15.3568 19.0403 14.8875C19.2205 14.0564 19.6327 13.41 20.3967 12.9967C21.0739 12.6307 21.7378 12.2404 22.4028 11.8534C23.3461 11.305 24.2848 10.7499 25.2269 10.1991C25.5853 9.99023 25.9447 9.7835 26.3096 9.58576C26.4646 9.5011 26.5186 9.39765 26.4977 9.21742C26.325 7.76321 26.1646 6.3077 25.9964 4.85333C25.9304 4.29063 26.125 3.84423 26.5613 3.49035C27.3473 2.85275 28.5236 2.88791 29.2118 3.56842C29.4833 3.83652 29.6272 4.15858 29.668 4.53463C29.88 6.48681 30.0856 8.44028 30.3088 10.3915C30.4506 11.6348 30.0636 12.6516 29.1623 13.5266C27.7474 14.8995 26.3745 16.3176 24.985 17.7169C24.9258 17.7763 24.874 17.8433 24.7871 17.9434L24.785 17.9445ZM23.9737 17.7312C24.0342 17.6488 24.076 17.5729 24.1343 17.5158C25.6623 16.0032 27.1803 14.4819 28.7259 12.9869C29.436 12.2998 29.7041 11.5073 29.5877 10.5343C29.358 8.62709 29.1567 6.71668 28.9524 4.8061C28.883 4.16196 28.5445 3.81676 27.8947 3.77066C27.2715 3.72552 26.6142 4.14766 26.7229 4.93686C26.9077 6.26931 27.0187 7.61141 27.1496 8.95029C27.1705 9.16249 27.2297 9.27236 27.4562 9.32521C28.0191 9.45484 28.3444 9.84727 28.4345 10.4003C28.5268 10.9675 28.2851 11.3995 27.7969 11.705C26.6196 12.4405 25.4467 13.1825 24.2705 13.9201C24.0232 14.0761 23.7825 14.0486 23.6638 13.8607C23.5417 13.6662 23.6187 13.4573 23.8781 13.2969C25.0422 12.5735 26.2086 11.8523 27.3738 11.1291C27.7113 10.9201 27.8189 10.5817 27.6453 10.2914C27.4651 9.98911 27.1374 9.92646 26.7856 10.1287C26.4558 10.3189 26.1271 10.5125 25.7996 10.7059C23.9705 11.7853 22.1391 12.8616 20.3165 13.9519C20.1572 14.0475 19.9966 14.2268 19.9439 14.4004C19.7362 15.0854 19.5712 15.7833 19.3833 16.5067C20.9409 16.9222 22.4568 17.3267 23.9716 17.7312H23.9737ZM25.0499 18.7722C22.6448 18.1281 20.2703 17.4915 17.8696 16.8485C17.5178 18.1567 17.1726 19.4406 16.8219 20.7464C19.2316 21.3928 21.6103 22.0304 24.0023 22.6713C24.3563 21.3544 24.6981 20.0814 25.0499 18.7722Z" fill="#39B54A"/>
<path d="M15.3338 11.7429C13.7762 11.7429 12.2185 11.7429 10.6608 11.7429C10.2189 11.7429 10.1079 11.6297 10.1079 11.1846C10.1079 8.74647 10.1058 6.30821 10.1102 3.87011C10.1102 3.72169 10.1542 3.57005 10.1937 3.42484C10.407 2.64112 10.6313 1.86064 10.839 1.07467C10.9061 0.820742 11.0478 0.703125 11.3051 0.703125C13.9884 0.703125 16.6727 0.704217 19.3561 0.703125C19.6253 0.703125 19.7737 0.82185 19.843 1.08457C20.0661 1.92659 20.3046 2.76534 20.5334 3.60619C20.5597 3.70305 20.5686 3.80634 20.5686 3.90642C20.5708 6.32797 20.5697 8.74856 20.5697 11.1703C20.5697 11.6342 20.463 11.7452 20.0057 11.7452C18.448 11.7452 16.8904 11.7452 15.3327 11.7452L15.3338 11.7429ZM10.8566 11.0032H19.8189V4.21307H16.874C16.874 4.32953 16.874 4.42189 16.874 4.51313C16.874 5.38489 16.8684 6.25665 16.8772 7.12825C16.8794 7.3504 16.7794 7.48453 16.5925 7.5581C16.4056 7.63071 16.3243 7.47345 16.2253 7.3602C15.956 7.05131 15.6834 6.74353 15.401 6.42146C15.0821 6.75783 14.7886 7.06126 14.5029 7.37129C14.3665 7.51859 14.2246 7.6185 14.0147 7.52951C13.8224 7.44823 13.8059 7.28776 13.8059 7.10961C13.8081 6.23786 13.8059 5.36626 13.8059 4.4945C13.8059 4.40438 13.8059 4.31314 13.8059 4.20761H10.8576L10.8566 11.0032ZM10.972 3.42709H19.7056C19.5329 2.82469 19.3582 2.25088 19.2088 1.67048C19.1582 1.47481 19.0713 1.42533 18.879 1.42644C17.0773 1.43414 15.2757 1.43083 13.4729 1.43083C12.898 1.43083 12.3219 1.42533 11.747 1.43743C11.6635 1.43963 11.5294 1.51217 11.5085 1.58033C11.3204 2.18492 11.1522 2.79501 10.972 3.42709ZM16.1298 6.1577V4.20873H14.549V6.28299C14.7469 6.06967 14.9107 5.89056 15.0778 5.71355C15.3415 5.43437 15.5417 5.4432 15.79 5.74326C15.8912 5.86422 15.9902 5.98839 16.1298 6.1577Z" fill="#39B54A"/>
</svg>
