<svg width="31" height="31" viewBox="0 0 31 31" fill="none" xmlns="http://www.w3.org/2000/svg">
<path d="M0.579019 14.7507C0.608274 14.4785 0.635754 14.2063 0.665902 13.9341C0.964695 11.2601 1.91072 8.83786 3.51017 6.67539C5.12559 4.49166 7.18521 2.86116 9.67754 1.78304C11.2397 1.10655 12.8746 0.720875 14.5734 0.606499C14.6328 0.602068 14.6922 0.587881 14.7507 0.578125C15.2915 0.578125 15.8324 0.578125 16.3732 0.578125C16.6517 0.606499 16.93 0.633979 17.2075 0.664127C20.003 0.975332 22.5131 1.99583 24.7384 3.71321C25.1091 3.99959 25.4549 4.31788 25.8121 4.62198C25.8423 4.6477 25.8734 4.67164 25.9355 4.72307C25.9132 4.59362 25.8955 4.50141 25.8813 4.40921C25.8405 4.13879 26.0054 3.90205 26.2661 3.85596C26.518 3.81162 26.7573 3.97121 26.8087 4.23543C26.9284 4.85074 27.0454 5.46694 27.1527 6.0849C27.2193 6.4697 26.9381 6.73214 26.557 6.64968C25.939 6.51757 25.3209 6.3837 24.7038 6.24362C24.4814 6.19307 24.3492 6.01043 24.3502 5.78611C24.3502 5.57156 24.4884 5.38447 24.695 5.33572C24.7721 5.31798 24.8563 5.32331 24.9371 5.33129C25.0222 5.34015 25.1055 5.36409 25.1959 5.38271C24.8254 4.6938 21.9208 2.90283 20.2362 2.31235C18.3611 1.65537 16.4318 1.40534 14.4528 1.56139C12.4676 1.71831 10.5889 2.26004 8.8538 3.2371C5.23287 5.27542 2.86383 8.305 1.9054 12.3524C0.947852 16.3963 1.73162 20.152 4.04303 23.6196C3.74513 23.7241 3.488 23.89 3.29473 24.1834C3.12715 23.9273 2.96668 23.695 2.81862 23.4555C1.6066 21.4917 0.882242 19.3621 0.647284 17.0656C0.623341 16.8334 0.601174 16.6019 0.578125 16.3697C0.578125 15.8288 0.578125 15.288 0.578125 14.7471L0.579019 14.7507Z" fill="#39B54A"/>
<path d="M30.578 16.4031C30.5496 16.6709 30.522 16.9394 30.492 17.2072C30.2029 19.8236 29.2924 22.205 27.7505 24.3364C26.0269 26.7188 23.7917 28.4557 21.0575 29.5436C19.6344 30.1102 18.1556 30.4346 16.6287 30.5446C16.5534 30.5499 16.4799 30.5649 16.4045 30.5756H14.782C14.4991 30.5464 14.2154 30.5197 13.9326 30.4878C11.1158 30.1704 8.59065 29.1358 6.35642 27.3945C6.00267 27.1188 5.67284 26.8136 5.33238 26.522C5.30579 26.4998 5.27919 26.4777 5.21711 26.4272C5.24106 26.5601 5.25879 26.6514 5.27386 26.7437C5.31465 27.0034 5.1524 27.2446 4.90325 27.2943C4.64525 27.3465 4.397 27.1852 4.34557 26.9174C4.22766 26.3065 4.11151 25.6957 4.00511 25.083C3.93418 24.6778 4.21525 24.4199 4.61422 24.5067C5.20205 24.6344 5.79076 24.7602 6.3777 24.8889C6.69422 24.9581 6.85736 25.1902 6.79353 25.474C6.73413 25.7356 6.48588 25.8747 6.18619 25.8145C6.11172 25.7994 6.03725 25.7852 5.95567 25.7852C7.66862 27.4113 9.65823 28.5577 11.9439 29.1508C15.6775 30.1199 19.2558 29.6828 22.5912 27.7419C26.1254 25.6859 28.3924 22.6297 29.287 18.6337C30.1808 14.6422 29.3899 10.9423 27.1095 7.53065C27.4154 7.4278 27.6699 7.25136 27.8844 6.9375C28.263 7.59626 28.646 8.20537 28.974 8.84284C29.9067 10.6586 30.4193 12.595 30.5522 14.6316C30.5557 14.6812 30.5681 14.7308 30.5771 14.7806L30.578 16.4031Z" fill="#39B54A"/>
<path d="M20.2655 22.4276C19.8577 22.4285 19.5943 22.3399 19.3788 22.1598C19.1236 21.9461 18.8939 21.9125 18.5933 22.0951C18.3451 22.2467 18.0498 22.3238 17.7723 22.425C17.6827 22.4578 17.6278 22.4941 17.6128 22.5978C17.5888 22.7591 17.5471 22.9171 17.509 23.0758C17.3715 23.6431 16.8937 24.0164 16.3076 24.0173C15.8129 24.0173 15.3181 24.0173 14.8235 24.0173C14.2763 24.0173 13.787 23.644 13.6522 23.1148C13.607 22.9374 13.5787 22.7547 13.5298 22.5783C13.5157 22.5261 13.4661 22.464 13.4163 22.4426C13.0289 22.2742 12.6379 22.1129 12.2451 21.9559C12.1991 21.9373 12.1263 21.9452 12.0829 21.9701C11.9278 22.0587 11.7823 22.1634 11.6298 22.2548C11.1449 22.5455 10.5225 22.4631 10.1243 22.0615C9.77943 21.7138 9.43194 21.3699 9.08615 21.0222C8.68269 20.6171 8.6082 20.009 8.90437 19.516C8.99131 19.3714 9.08342 19.2313 9.17839 19.0922C9.22529 19.023 9.22983 18.9663 9.19342 18.8839C9.02849 18.5061 8.87781 18.1222 8.7147 17.7427C8.69332 17.6931 8.63398 17.6407 8.58254 17.6266C8.41585 17.5787 8.24385 17.5521 8.07627 17.5104C7.51239 17.3712 7.14178 16.9004 7.14 16.3206C7.13823 15.8258 7.13823 15.3312 7.14 14.8364C7.1409 14.2592 7.51239 13.7858 8.07539 13.6457C8.24385 13.604 8.41496 13.5765 8.58254 13.5304C8.63126 13.5171 8.69073 13.4737 8.71016 13.4284C8.8795 13.0356 9.04352 12.6411 9.20223 12.2439C9.22089 12.1977 9.20936 12.1251 9.18448 12.0808C9.10739 11.9433 9.01437 11.8148 8.93093 11.68C8.60288 11.1543 8.67116 10.5531 9.10921 10.1143C9.45138 9.77108 9.79368 9.428 10.1358 9.08492C10.5269 8.693 11.1342 8.61233 11.6166 8.8925C11.7708 8.98204 11.9198 9.0813 12.0679 9.18067C12.1387 9.22848 12.1946 9.22939 12.2762 9.19389C12.6495 9.03081 13.0262 8.87476 13.4048 8.72493C13.4864 8.693 13.5263 8.65311 13.5413 8.56711C13.5724 8.39156 13.6096 8.21689 13.6557 8.04401C13.7994 7.5014 14.2772 7.13877 14.8394 7.13965C15.3244 7.13965 15.8085 7.13965 16.2935 7.13965C16.9106 7.13965 17.3759 7.50672 17.5205 8.10695C17.5586 8.26566 17.5835 8.42791 17.6287 8.58395C17.6438 8.63627 17.697 8.6939 17.7466 8.71607C18.1252 8.8792 18.5091 9.02993 18.8868 9.1957C18.9702 9.23211 19.0269 9.22498 19.096 9.17886C19.2353 9.08493 19.3753 8.99092 19.5198 8.90491C20.0164 8.60878 20.6308 8.69035 21.0377 9.10086C21.3791 9.44484 21.7213 9.78792 22.0653 10.1284C22.4687 10.5275 22.5503 11.1462 22.2569 11.633C22.1672 11.7811 22.0636 11.9211 21.9803 12.0729C21.9519 12.1242 21.9439 12.2076 21.9651 12.2607C22.1167 12.6446 22.2754 13.025 22.4394 13.4036C22.4625 13.4577 22.5246 13.5145 22.5804 13.5304C22.7515 13.58 22.9289 13.6066 23.1018 13.6492C23.6409 13.784 24.0168 14.2689 24.0176 14.8258C24.0176 15.3259 24.0185 15.8258 24.0176 16.3259C24.0159 16.8933 23.6399 17.373 23.0902 17.5078C22.9174 17.5503 22.74 17.5796 22.5689 17.6275C22.5211 17.6407 22.4652 17.6887 22.4448 17.7348C22.2772 18.1231 22.115 18.5132 21.9589 18.9051C21.9404 18.952 21.9448 19.0248 21.9695 19.0682C22.068 19.2403 22.1877 19.4016 22.2834 19.5744C22.5441 20.0435 22.4563 20.634 22.0768 21.0153C21.724 21.369 21.372 21.7237 21.0174 22.0756C20.777 22.3141 20.4827 22.4232 20.2681 22.4267L20.2655 22.4276ZM23.0761 15.5767C23.0761 15.3577 23.077 15.1379 23.0761 14.9188C23.0743 14.6742 23.0078 14.5944 22.7649 14.542C22.4856 14.4818 22.2071 14.417 21.927 14.3646C21.7648 14.3346 21.6797 14.2451 21.6415 14.0889C21.4899 13.4702 21.2514 12.8868 20.9163 12.3449C20.8312 12.2076 20.832 12.0826 20.9233 11.9469C21.0857 11.7057 21.2407 11.4602 21.3978 11.2154C21.5272 11.0142 21.5148 10.9167 21.3436 10.7455C21.0298 10.4317 20.7159 10.1178 20.4029 9.80399C20.2434 9.64346 20.1334 9.63102 19.9437 9.75424C19.6999 9.91217 19.4542 10.0673 19.2131 10.2295C19.0792 10.3199 18.9541 10.3261 18.815 10.241C18.268 9.90504 17.6811 9.66121 17.0568 9.51053C16.9062 9.47413 16.8218 9.38719 16.7918 9.23301C16.7367 8.94747 16.672 8.66464 16.61 8.38004C16.5595 8.14596 16.4806 8.08035 16.2411 8.07859C15.797 8.07681 15.3536 8.07681 14.9094 8.07859C14.6763 8.07947 14.5938 8.15041 14.5432 8.38269C14.4812 8.66641 14.4165 8.95013 14.3615 9.2356C14.3314 9.3925 14.2436 9.47594 14.0947 9.51131C13.4758 9.66121 12.8924 9.90064 12.3498 10.2348C12.207 10.3226 12.0785 10.3244 11.9384 10.2287C11.6937 10.0628 11.4436 9.90414 11.1945 9.74452C11.0251 9.63633 10.9091 9.64787 10.7698 9.78533C10.4408 10.1125 10.112 10.4405 9.78564 10.7704C9.64118 10.9157 9.63134 11.0177 9.74133 11.1924C9.90536 11.4504 10.0703 11.7084 10.2396 11.9629C10.3194 12.0835 10.3238 12.1996 10.2493 12.3202C9.90536 12.8805 9.65712 13.4817 9.50191 14.1209C9.47003 14.253 9.38841 14.3302 9.25276 14.3577C8.9584 14.4179 8.66417 14.4827 8.37063 14.5464C8.15074 14.5944 8.07893 14.6804 8.07805 14.9065C8.07627 15.3506 8.07627 15.794 8.07805 16.2381C8.07893 16.4828 8.14721 16.5617 8.39013 16.6132C8.66948 16.6725 8.94778 16.7364 9.22802 16.7905C9.38932 16.8215 9.47444 16.9119 9.51253 17.0688C9.66152 17.6824 9.89914 18.2614 10.2308 18.7995C10.3229 18.9494 10.3212 19.0797 10.2228 19.2242C10.0569 19.4689 9.89733 19.7181 9.73952 19.9681C9.63406 20.1348 9.64468 20.2457 9.77774 20.3795C10.1049 20.7085 10.4329 21.0365 10.7628 21.3627C10.9179 21.517 11.0207 21.5242 11.2104 21.4017C11.4552 21.2439 11.7008 21.0898 11.9419 20.9265C12.0758 20.8361 12.2017 20.83 12.3401 20.915C12.8871 21.252 13.474 21.494 14.0982 21.6456C14.2489 21.682 14.3331 21.7689 14.3633 21.9231C14.4191 22.213 14.4848 22.5021 14.5486 22.7902C14.5965 23.0048 14.6807 23.0758 14.898 23.0766C15.3465 23.0793 15.7961 23.0793 16.2446 23.0766C16.4806 23.0758 16.5586 23.0083 16.6109 22.7725C16.6739 22.4887 16.7376 22.205 16.7918 21.9196C16.8218 21.7627 16.9097 21.6802 17.0587 21.6439C17.6828 21.4922 18.2697 21.2501 18.8168 20.9124C18.9488 20.8308 19.0713 20.8317 19.2016 20.9186C19.4471 21.0826 19.6972 21.2422 19.9454 21.4017C20.1387 21.5259 20.2398 21.5145 20.4047 21.3504C20.7221 21.033 21.0395 20.7156 21.357 20.3982C21.512 20.242 21.5254 20.1384 21.4057 19.9513C21.2461 19.7022 21.0866 19.453 20.9225 19.2074C20.8365 19.0788 20.8285 18.9556 20.911 18.8226C21.2514 18.2712 21.4943 17.6797 21.6468 17.0503C21.6823 16.9057 21.7665 16.8233 21.9146 16.794C22.2045 16.7364 22.4936 16.6725 22.7817 16.6088C23.006 16.5591 23.0734 16.4775 23.0761 16.2505C23.0787 16.0263 23.0761 15.801 23.0761 15.5767Z" fill="#39B54A"/>
<path d="M7.63123 22.7403C7.89722 22.7368 8.10734 22.9433 8.10823 23.2093C8.10911 23.4727 7.89632 23.6872 7.63478 23.6863C7.38298 23.6854 7.16753 23.4736 7.16221 23.2208C7.15688 22.9601 7.3679 22.7439 7.63123 22.7403Z" fill="#39B54A"/>
<path d="M7.59821 8.44416C7.33399 8.4415 7.12565 8.22693 7.13096 7.9636C7.13628 7.71181 7.35261 7.4999 7.60441 7.49902C7.86685 7.49902 8.07787 7.71269 8.07609 7.97691C8.07521 8.242 7.86597 8.44681 7.59821 8.44416Z" fill="#39B54A"/>
<path d="M25.182 9.69827C25.4462 9.70086 25.6554 9.91632 25.6492 10.1788C25.643 10.4315 25.4293 10.6425 25.1766 10.6443C24.9177 10.646 24.7013 10.428 24.7031 10.1673C24.705 9.9022 24.9169 9.69555 25.182 9.69827Z" fill="#39B54A"/>
<path d="M12.3158 5.50871C12.0498 5.50605 11.8433 5.29503 11.8477 5.02993C11.8512 4.76661 12.0623 4.56357 12.3309 4.56446C12.5827 4.56623 12.7929 4.7799 12.7929 5.03525C12.7929 5.2968 12.5774 5.51138 12.3158 5.50871Z" fill="#39B54A"/>
<path d="M19.1817 5.34507C19.1791 5.07996 19.3883 4.86807 19.6516 4.86719C19.9167 4.86719 20.1215 5.07288 20.1233 5.34242C20.125 5.59687 19.9176 5.80877 19.6613 5.81232C19.398 5.81675 19.1835 5.60839 19.1817 5.34507Z" fill="#39B54A"/>
<path d="M25.2021 20.4746C25.4609 20.4746 25.6782 20.6963 25.6728 20.9544C25.6674 21.2079 25.4547 21.4181 25.2012 21.4198C24.9361 21.4216 24.7285 21.2123 24.7285 20.9454C24.7285 20.6785 24.9343 20.4737 25.2021 20.4746Z" fill="#39B54A"/>
<path d="M21.8295 24.9704C21.8205 25.2294 21.6052 25.4334 21.3498 25.4253C21.082 25.4173 20.8772 25.2001 20.8871 24.936C20.8968 24.6726 21.1201 24.4677 21.3835 24.4811C21.6406 24.4935 21.8383 24.7116 21.8295 24.9704Z" fill="#39B54A"/>
<path d="M11.1026 25.4273C11.1026 25.6827 10.8952 25.8901 10.6372 25.8937C10.3747 25.8972 10.1593 25.6853 10.1602 25.4238C10.1602 25.1578 10.3667 24.9521 10.6336 24.9512C10.8979 24.9494 11.1026 25.1569 11.1026 25.4273Z" fill="#39B54A"/>
<path d="M17.903 26.8166C17.6405 26.8166 17.4384 26.6127 17.4375 26.3502C17.4366 26.0798 17.6387 25.8758 17.91 25.874C18.1698 25.8723 18.3861 26.0939 18.3799 26.3564C18.3746 26.6117 18.161 26.8175 17.903 26.8166Z" fill="#39B54A"/>
<path d="M9.03637 24.9139C8.781 24.9139 8.56995 24.7056 8.56645 24.4511C8.56282 24.1913 8.77647 23.9706 9.03455 23.9688C9.29692 23.9671 9.51069 24.1798 9.51069 24.4423C9.51069 24.7065 9.30145 24.9139 9.03637 24.9139Z" fill="#39B54A"/>
<path d="M26.5963 15.084C26.8614 15.0849 27.067 15.295 27.0635 15.5619C27.0608 15.819 26.8543 16.0256 26.598 16.0282C26.3373 16.0309 26.1202 15.8155 26.1211 15.5557C26.1219 15.2888 26.3294 15.0831 26.5963 15.084Z" fill="#39B54A"/>
<path d="M15.5842 26.5735C15.5913 26.3111 15.813 26.1018 16.0719 26.1117C16.336 26.1223 16.54 26.3412 16.5284 26.6037C16.5169 26.8617 16.3068 27.0612 16.0497 27.0576C15.7881 27.0541 15.5763 26.8342 15.5842 26.5735Z" fill="#39B54A"/>
<path d="M5.37919 12.8341C5.37654 13.0911 5.16552 13.2978 4.90751 13.2968C4.6433 13.295 4.43229 13.0796 4.4376 12.8154C4.44204 12.5574 4.65216 12.3535 4.91105 12.3535C5.17526 12.3535 5.38185 12.5644 5.37919 12.8341Z" fill="#39B54A"/>
<path d="M18.3368 4.79449C18.3386 5.05959 18.1329 5.26795 17.8661 5.2715C17.6064 5.27503 17.3926 5.06136 17.3926 4.79715C17.3926 4.54092 17.5974 4.33257 17.8554 4.32725C18.116 4.32192 18.3351 4.53471 18.3368 4.79449Z" fill="#39B54A"/>
<path d="M5.54597 20.6C5.27644 20.6 5.06986 20.3917 5.07429 20.1248C5.07872 19.865 5.28619 19.6602 5.54509 19.6602C5.8093 19.6602 6.01942 19.873 6.01765 20.139C6.01587 20.397 5.8084 20.6009 5.54597 20.6Z" fill="#39B54A"/>
<path d="M16.0209 5.0516C15.7504 5.05338 15.5448 4.85389 15.543 4.58613C15.5412 4.32014 15.7469 4.11002 16.012 4.10647C16.2674 4.10381 16.4863 4.32457 16.4863 4.58435C16.4863 4.83881 16.2762 5.04983 16.0209 5.0516Z" fill="#39B54A"/>
<path d="M8.53518 6.72932C8.5379 6.46688 8.74092 6.26562 9.00328 6.26562C9.26759 6.26562 9.47773 6.4793 9.47592 6.74528C9.47411 7.00062 9.25955 7.21076 9.00328 7.20898C8.73289 7.20632 8.53259 7.00152 8.53518 6.72932Z" fill="#39B54A"/>
<path d="M6.43223 9.90056C6.16536 9.89797 5.95877 9.68432 5.96498 9.41834C5.97119 9.15947 6.1822 8.95549 6.44109 8.95903C6.7053 8.96258 6.91544 9.17891 6.91101 9.4423C6.90658 9.69585 6.68846 9.90328 6.43223 9.90056Z" fill="#39B54A"/>
<path d="M26.9034 17.4302C26.9078 17.69 26.6941 17.9073 26.4334 17.9091C26.1754 17.9108 25.9653 17.7077 25.9591 17.4516C25.9529 17.1873 26.1594 16.9692 26.4201 16.963C26.6808 16.9568 26.8988 17.1688 26.9034 17.4302Z" fill="#39B54A"/>
<path d="M5.38011 18.385C5.37391 18.6483 5.15225 18.8585 4.89071 18.8487C4.63624 18.839 4.43143 18.619 4.43764 18.3638C4.44474 18.0986 4.66196 17.8948 4.92795 17.9036C5.18683 17.9124 5.38544 18.1235 5.38011 18.385Z" fill="#39B54A"/>
<path d="M5.07808 16.5354C5.0763 16.797 4.85908 17.0098 4.59842 17.0062C4.33598 17.0027 4.12674 16.7864 4.13295 16.5239C4.13915 16.2579 4.34662 16.062 4.61881 16.0655C4.87504 16.0691 5.07985 16.2793 5.07808 16.5354Z" fill="#39B54A"/>
<path d="M5.99896 11.0589C5.99984 11.3231 5.78972 11.5359 5.52728 11.5359C5.26573 11.5359 5.05206 11.3196 5.05471 11.0589C5.05737 10.7973 5.27281 10.5863 5.53526 10.5899C5.78972 10.5934 5.99807 10.8035 5.99896 11.0589Z" fill="#39B54A"/>
<path d="M12.3684 25.6445C12.6318 25.6454 12.8463 25.8644 12.8401 26.126C12.8348 26.3821 12.621 26.5905 12.3649 26.5888C12.098 26.587 11.8959 26.3786 11.8985 26.1073C11.9012 25.8466 12.1068 25.6436 12.3684 25.6445Z" fill="#39B54A"/>
<path d="M25.9464 19.7153C25.6786 19.7074 25.48 19.4928 25.4906 19.2232C25.5014 18.9671 25.7222 18.7622 25.9757 18.7729C26.2426 18.7844 26.4429 19.0015 26.4314 19.2675C26.4198 19.5282 26.2071 19.7233 25.9464 19.7153Z" fill="#39B54A"/>
<path d="M21.3158 5.70801C21.588 5.70713 21.7938 5.90839 21.7938 6.17703C21.7938 6.43504 21.588 6.64251 21.3273 6.64694C21.0658 6.65138 20.8441 6.43327 20.8477 6.17438C20.8512 5.9146 21.0569 5.7089 21.3158 5.70801Z" fill="#39B54A"/>
<path d="M6.45199 22.2255C6.18778 22.2218 5.98828 22.0215 5.98828 21.759C5.98828 21.4931 6.20107 21.2847 6.46706 21.2891C6.72862 21.2935 6.92988 21.4984 6.92988 21.76C6.92988 22.0285 6.72507 22.229 6.45199 22.2255Z" fill="#39B54A"/>
<path d="M25.9679 12.3359C25.6992 12.3395 25.4883 12.1319 25.4883 11.8659C25.4883 11.6098 25.6992 11.3943 25.952 11.3916C26.2171 11.389 26.4263 11.5965 26.4298 11.8659C26.4334 12.1231 26.2286 12.3324 25.9679 12.3359Z" fill="#39B54A"/>
<path d="M14.194 26.9759C13.928 26.9768 13.7197 26.7694 13.7188 26.5043C13.7188 26.2524 13.9306 26.0388 14.1843 26.0362C14.451 26.0326 14.6612 26.2374 14.6639 26.5025C14.6665 26.7703 14.4626 26.975 14.194 26.9759Z" fill="#39B54A"/>
<path d="M4.60318 14.1973C4.86206 14.1982 5.0713 14.4065 5.0722 14.6628C5.0722 14.926 4.8532 15.1468 4.59607 15.1407C4.33009 15.1336 4.12174 14.9181 4.12705 14.6557C4.13238 14.3977 4.34074 14.1964 4.60318 14.1973Z" fill="#39B54A"/>
<path d="M14.1368 5.11904C13.8735 5.11726 13.6758 4.916 13.6758 4.65091C13.6758 4.38492 13.8868 4.17923 14.1563 4.18366C14.4143 4.18809 14.6218 4.39822 14.62 4.65445C14.6182 4.91956 14.4099 5.12081 14.1368 5.11904Z" fill="#39B54A"/>
<path d="M26.4107 13.1973C26.6712 13.1929 26.892 13.4066 26.8965 13.6682C26.901 13.9217 26.6917 14.1354 26.4328 14.1425C26.1739 14.1496 25.9593 13.9466 25.9514 13.6894C25.9434 13.4207 26.1473 13.2017 26.4107 13.1973Z" fill="#39B54A"/>
<path d="M19.6935 25.3272C19.9569 25.3253 20.1687 25.5364 20.1678 25.7997C20.1678 26.0515 19.9578 26.2634 19.7024 26.2687C19.439 26.274 19.2245 26.0657 19.2227 25.8024C19.221 25.5372 19.4266 25.3288 19.6935 25.3272Z" fill="#39B54A"/>
<path d="M24.1244 9.09667C23.8602 9.09757 23.6581 8.89809 23.6563 8.63476C23.6546 8.36611 23.862 8.15244 24.1236 8.15332C24.3869 8.1551 24.5988 8.36966 24.597 8.63388C24.5943 8.88921 24.3843 9.09576 24.1244 9.09667Z" fill="#39B54A"/>
<path d="M23.298 7.28502C23.2964 7.551 23.0844 7.75759 22.8175 7.75316C22.5568 7.74873 22.3565 7.54302 22.3574 7.28058C22.3582 7.01372 22.572 6.80448 22.8371 6.81068C23.095 6.81601 23.2998 7.02702 23.298 7.28502Z" fill="#39B54A"/>
<path d="M24.1609 22.9624C23.8905 22.9659 23.6786 22.761 23.6777 22.4968C23.6777 22.2389 23.8826 22.0269 24.1387 22.0216C24.403 22.0154 24.6185 22.2255 24.6211 22.4906C24.6238 22.7513 24.4215 22.9596 24.1609 22.9624Z" fill="#39B54A"/>
<path d="M22.8586 24.3118C22.597 24.31 22.3896 24.1052 22.3887 23.8472C22.3878 23.5812 22.5979 23.3711 22.8639 23.3711C23.129 23.3711 23.3373 23.5856 23.3329 23.8534C23.3285 24.114 23.1228 24.3136 22.8586 24.3118Z" fill="#39B54A"/>
<path d="M10.5691 6.22219C10.2996 6.21066 10.1045 5.99521 10.1178 5.72567C10.1312 5.46767 10.3457 5.27351 10.6072 5.28149C10.8635 5.29035 11.0683 5.50845 11.0593 5.7638C11.0505 6.03245 10.836 6.2346 10.5691 6.22219Z" fill="#39B54A"/>
<path d="M12.0586 15.5741C12.0586 13.6129 13.6333 12.0578 15.6184 12.0586C17.514 12.0586 19.0966 13.6483 19.0957 15.5492C19.094 17.5433 17.5343 19.0966 15.536 19.0957C13.6271 19.0949 12.0586 17.506 12.0586 15.5741ZM15.5776 13.0046C14.1821 13.0011 13.0109 14.1493 13.0056 15.5262C12.9993 16.9687 14.1334 18.1426 15.5386 18.1488C16.9758 18.1542 18.1452 17.0139 18.1498 15.6034C18.1551 14.1634 17.0104 13.0083 15.5776 13.0046Z" fill="#39B54A"/>
</svg>
