<svg width="23" height="23" viewBox="0 0 23 23" fill="none" xmlns="http://www.w3.org/2000/svg">
<path d="M18.7285 5.66553C18.7285 4.93436 18.1359 4.34399 17.4075 4.34399C16.679 4.34399 16.0859 4.93436 16.0859 5.66553C16.0859 6.394 16.679 6.98438 17.4075 6.98438C18.1359 6.98438 18.7285 6.394 18.7285 5.66553" fill="url(#paint0_linear_19_2003)"/>
<path d="M20.4888 15.9815C20.4399 17.0541 20.2605 17.6369 20.1115 18.0239C19.9115 18.5371 19.6728 18.904 19.2858 19.2889C18.9031 19.6738 18.5361 19.9119 18.0229 20.1098C17.6359 20.2609 17.0509 20.4409 15.9784 20.492C14.8188 20.5431 14.4752 20.554 11.5348 20.554C8.59703 20.554 8.25071 20.5431 7.09116 20.492C6.01861 20.4409 5.43639 20.2609 5.0493 20.1098C4.53341 19.9119 4.1692 19.6738 3.78431 19.2889C3.39669 18.904 3.15805 18.5371 2.96072 18.0239C2.81174 17.6369 2.62965 17.0541 2.58341 15.9815C2.5269 14.822 2.51655 14.473 2.51655 11.5385C2.51655 8.598 2.5269 8.25168 2.58341 7.09213C2.62965 6.01958 2.81174 5.43736 2.96072 5.04701C3.15805 4.53438 3.39669 4.1696 3.78431 3.78471C4.1692 3.40039 4.53341 3.16172 5.0493 2.96169C5.43639 2.81002 6.01861 2.63278 7.09116 2.58169C8.25071 2.53057 8.59703 2.51752 11.5348 2.51752C14.4752 2.51752 14.8188 2.53057 15.9784 2.58169C17.0509 2.63278 17.6359 2.81002 18.0229 2.96169C18.5361 3.16172 18.9031 3.40039 19.2858 3.78471C19.6728 4.1696 19.9115 4.53438 20.1115 5.04701C20.2605 5.43736 20.4399 6.01958 20.4888 7.09213C20.5426 8.25168 20.5557 8.598 20.5557 11.5385C20.5557 14.473 20.5426 14.822 20.4888 15.9815V15.9815ZM22.4693 7.0019C22.4154 5.82983 22.2306 5.02907 21.9561 4.33163C21.6767 3.60805 21.3021 2.99484 20.6889 2.38163C20.0784 1.77115 19.4652 1.39658 18.7416 1.11391C18.0414 0.842079 17.2434 0.655058 16.0708 0.60397C14.8982 0.54742 14.5236 0.537103 11.5348 0.537103C8.54863 0.537103 8.17137 0.54742 6.99877 0.60397C5.82886 0.655058 5.03136 0.842079 4.32792 1.11391C3.60707 1.39658 2.99386 1.77115 2.38339 2.38163C1.77018 2.99484 1.39561 3.60805 1.11346 4.33163C0.841637 5.02907 0.656818 5.82983 0.600267 7.0019C0.54918 8.1745 0.536133 8.54961 0.536133 11.5385C0.536133 14.5246 0.54918 14.8991 0.600267 16.0717C0.656818 17.2417 0.841637 18.0418 1.11346 18.7426C1.39561 19.4634 1.77018 20.0794 2.38339 20.6899C2.99386 21.3003 3.60707 21.6776 4.32792 21.9598C5.03136 22.2316 5.82886 22.4164 6.99877 22.4702C8.17137 22.5241 8.54863 22.5371 11.5348 22.5371C14.5236 22.5371 14.8982 22.5241 16.0708 22.4702C17.2434 22.4164 18.0414 22.2316 18.7416 21.9598C19.4652 21.6776 20.0784 21.3003 20.6889 20.6899C21.3021 20.0794 21.6767 19.4634 21.9561 18.7426C22.2306 18.0418 22.4154 17.2417 22.4693 16.0717C22.5231 14.8991 22.5361 14.5246 22.5361 11.5385C22.5361 8.54961 22.5231 8.1745 22.4693 7.0019V7.0019Z" fill="url(#paint1_linear_19_2003)"/>
<path d="M11.5353 15.2014C9.51138 15.2014 7.86909 13.5618 7.86909 11.5379C7.86909 9.51072 9.51138 7.869 11.5353 7.869C13.5598 7.869 15.2042 9.51072 15.2042 11.5379C15.2042 13.5618 13.5598 15.2014 11.5353 15.2014V15.2014ZM11.5353 5.88585C8.41543 5.88585 5.88867 8.41804 5.88867 11.5379C5.88867 14.6551 8.41543 17.1846 11.5353 17.1846C14.6552 17.1846 17.1847 14.6551 17.1847 11.5379C17.1847 8.41804 14.6552 5.88585 11.5353 5.88585Z" fill="url(#paint2_linear_19_2003)"/>
<defs>
<linearGradient id="paint0_linear_19_2003" x1="0.734522" y1="22.3095" x2="20.7037" y2="2.34038" gradientUnits="userSpaceOnUse">
<stop stop-color="#FFD521"/>
<stop offset="0.05" stop-color="#FFD521"/>
<stop offset="0.501119" stop-color="#F50000"/>
<stop offset="0.95" stop-color="#B900B4"/>
<stop offset="0.950079" stop-color="#B900B4"/>
<stop offset="1" stop-color="#B900B4"/>
</linearGradient>
<linearGradient id="paint1_linear_19_2003" x1="0.73457" y1="22.337" x2="20.7202" y2="2.35146" gradientUnits="userSpaceOnUse">
<stop stop-color="#FFD521"/>
<stop offset="0.05" stop-color="#FFD521"/>
<stop offset="0.501119" stop-color="#F50000"/>
<stop offset="0.95" stop-color="#B900B4"/>
<stop offset="0.950079" stop-color="#B900B4"/>
<stop offset="1" stop-color="#B900B4"/>
</linearGradient>
<linearGradient id="paint2_linear_19_2003" x1="0.740281" y1="22.337" x2="20.721" y2="2.35626" gradientUnits="userSpaceOnUse">
<stop stop-color="#FFD521"/>
<stop offset="0.05" stop-color="#FFD521"/>
<stop offset="0.501119" stop-color="#F50000"/>
<stop offset="0.95" stop-color="#B900B4"/>
<stop offset="0.950079" stop-color="#B900B4"/>
<stop offset="1" stop-color="#B900B4"/>
</linearGradient>
</defs>
</svg>
