<svg width="33" height="32" viewBox="0 0 33 32" fill="none" xmlns="http://www.w3.org/2000/svg">
<g clip-path="url(#clip0_208_1091)">
<path d="M6.20996 2.75L5.64696 3.281L4.24096 4.687L3.70996 5.25L4.11596 5.906L6.20996 9.406L6.49096 9.906H9.42996L13.43 13.875C9.85596 17.465 5.30896 22.027 5.14896 22.188C3.58196 23.754 3.57896 26.32 5.17896 27.813C6.74196 29.355 9.28896 29.395 10.774 27.813L10.804 27.781L16.96 21.594L23.148 27.812L23.241 27.875C24.811 29.355 27.308 29.375 28.773 27.812V27.782H28.803C30.335 26.215 30.351 23.668 28.773 22.187L28.741 22.157L23.523 16.969C27.034 16.641 29.784 13.676 29.835 10.094H29.866C29.87 10.074 29.866 10.051 29.866 10.031V10C29.964 8.844 29.714 7.738 29.116 6.781L28.43 5.72L23.773 10.376L22.367 8.907L27.117 4.157L25.742 3.595C24.8649 3.20914 23.9182 3.00666 22.96 3C19.116 3 15.96 6.156 15.96 10C15.96 10.418 16.05 10.781 16.116 11.156C15.679 11.594 15.351 11.953 14.835 12.469L10.866 8.5V5.531L10.366 5.25L6.86596 3.156L6.20996 2.75ZM22.96 5C23.1 5 23.198 5.082 23.335 5.094L19.554 8.875L20.241 9.594L23.054 12.5L23.741 13.219L27.71 9.25C27.73 9.48 27.894 9.648 27.866 9.906V10C27.866 12.754 25.62 15 22.866 15C22.499 15 22.054 14.914 21.554 14.812L21.022 14.719L20.647 15.094L9.36696 26.406H9.33496V26.438C8.62496 27.215 7.38196 27.234 6.55396 26.406V26.375H6.52196C5.74496 25.665 5.72596 24.422 6.55396 23.594C6.93296 23.214 14.272 15.812 17.866 12.219L18.273 11.813L18.116 11.25C18.0211 10.8398 17.9688 10.4209 17.96 10C17.96 7.246 20.206 5 22.96 5ZM6.52196 5.25L8.86596 6.688V7.688L8.64796 7.906H7.64796L6.20996 5.563L6.52196 5.25ZM21.147 17.406L27.367 23.594V23.625H27.397C28.175 24.335 28.194 25.578 27.367 26.406H27.335V26.438C26.625 27.215 25.382 27.234 24.554 26.406L18.366 20.188L21.147 17.406Z" fill="black"/>
</g>
<defs>
<clipPath id="clip0_208_1091">
<rect width="32" height="32" fill="white" transform="translate(0.959961)"/>
</clipPath>
</defs>
</svg>
