<svg width="33" height="32" viewBox="0 0 33 32" fill="none" xmlns="http://www.w3.org/2000/svg">
<g clip-path="url(#clip0_208_1096)">
<g clip-path="url(#clip1_208_1096)">
<path d="M8.2946 10.6663C8.2946 9.78229 8.64578 8.93445 9.27091 8.30932C9.89603 7.6842 10.7439 7.33301 11.628 7.33301C12.512 7.33301 13.3599 7.6842 13.985 8.30932C14.6101 8.93445 14.9613 9.78229 14.9613 10.6663C14.9613 11.5504 14.6101 12.3982 13.985 13.0234C13.3599 13.6485 12.512 13.9997 11.628 13.9997C10.7439 13.9997 9.89603 13.6485 9.27091 13.0234C8.64578 12.3982 8.2946 11.5504 8.2946 10.6663ZM11.628 5.33301C10.2134 5.33301 8.85689 5.89492 7.85669 6.89511C6.8565 7.8953 6.2946 9.25186 6.2946 10.6663C6.2946 12.0808 6.8565 13.4374 7.85669 14.4376C8.85689 15.4378 10.2134 15.9997 11.628 15.9997C13.0425 15.9997 14.399 15.4378 15.3992 14.4376C16.3994 13.4374 16.9613 12.0808 16.9613 10.6663C16.9613 9.25186 16.3994 7.8953 15.3992 6.89511C14.399 5.89492 13.0425 5.33301 11.628 5.33301ZM21.628 11.9997C21.628 11.4692 21.8387 10.9605 22.2138 10.5855C22.5888 10.2104 23.0975 9.99968 23.628 9.99968C24.1584 9.99968 24.6671 10.2104 25.0422 10.5855C25.4173 10.9605 25.628 11.4692 25.628 11.9997C25.628 12.5301 25.4173 13.0388 25.0422 13.4139C24.6671 13.789 24.1584 13.9997 23.628 13.9997C23.0975 13.9997 22.5888 13.789 22.2138 13.4139C21.8387 13.0388 21.628 12.5301 21.628 11.9997ZM23.628 7.99968C22.5671 7.99968 21.5497 8.42111 20.7995 9.17125C20.0494 9.9214 19.628 10.9388 19.628 11.9997C19.628 13.0605 20.0494 14.078 20.7995 14.8281C21.5497 15.5783 22.5671 15.9997 23.628 15.9997C24.6888 15.9997 25.7063 15.5783 26.4564 14.8281C27.2065 14.078 27.628 13.0605 27.628 11.9997C27.628 10.9388 27.2065 9.9214 26.4564 9.17125C25.7063 8.42111 24.6888 7.99968 23.628 7.99968ZM19.9586 25.3837C20.896 25.7637 22.0973 25.9997 23.6293 25.9997C26.672 25.9997 28.4106 25.0703 29.3586 23.9223C29.8186 23.365 30.052 22.8023 30.172 22.3717C30.2404 22.1221 30.2819 21.866 30.296 21.6077V21.5717C30.296 21.1901 30.2208 20.8123 30.0748 20.4599C29.9288 20.1074 29.7148 19.7871 29.445 19.5173C29.1752 19.2475 28.8549 19.0335 28.5025 18.8875C28.15 18.7415 27.7722 18.6663 27.3906 18.6663H19.868C19.8306 18.6663 19.7946 18.6663 19.7586 18.669C20.284 19.2157 20.6653 19.9023 20.8466 20.6663H27.3906C27.8866 20.6663 28.2893 21.065 28.296 21.5583C28.2865 21.6539 28.2686 21.7485 28.2426 21.841C28.1603 22.1375 28.0147 22.4127 27.816 22.6477C27.3493 23.2157 26.2533 23.9997 23.6293 23.9997C22.3226 23.9997 21.3946 23.805 20.736 23.5397C20.592 24.073 20.3546 24.717 19.9586 25.3837ZM6.62793 18.6663C5.83228 18.6663 5.06922 18.9824 4.50661 19.545C3.944 20.1076 3.62793 20.8707 3.62793 21.6663V22.037C3.6295 22.1297 3.63573 22.2223 3.6466 22.3143C3.7567 23.3065 4.11331 24.2553 4.68393 25.0743C5.7746 26.6317 7.85726 27.9997 11.628 27.9997C15.3986 27.9997 17.4813 26.633 18.572 25.073C19.1427 24.254 19.4994 23.3052 19.6093 22.313C19.6187 22.2213 19.6249 22.1292 19.628 22.037V21.6663C19.628 20.8707 19.3119 20.1076 18.7493 19.545C18.1867 18.9824 17.4236 18.6663 16.628 18.6663H6.62793ZM5.62793 22.009V21.6663C5.62793 21.4011 5.73329 21.1468 5.92082 20.9592C6.10836 20.7717 6.36271 20.6663 6.62793 20.6663H16.628C16.8932 20.6663 17.1475 20.7717 17.3351 20.9592C17.5226 21.1468 17.628 21.4011 17.628 21.6663V22.009L17.6186 22.1157C17.5427 22.7664 17.3072 23.3884 16.9333 23.9263C16.276 24.8663 14.8573 25.9997 11.628 25.9997C8.3986 25.9997 6.97993 24.8663 6.32126 23.9263C5.94779 23.3882 5.71285 22.7663 5.63726 22.1157C5.63322 22.0802 5.6301 22.0446 5.62793 22.009Z" fill="black"/>
</g>
</g>
<defs>
<clipPath id="clip0_208_1096">
<rect width="32" height="32" fill="white" transform="translate(0.959961)"/>
</clipPath>
<clipPath id="clip1_208_1096">
<rect width="32" height="32" fill="white" transform="translate(0.959961)"/>
</clipPath>
</defs>
</svg>
