<svg width="33" height="32" viewBox="0 0 33 32" fill="none" xmlns="http://www.w3.org/2000/svg">
<g clip-path="url(#clip0_208_1127)">
<path d="M15.1927 4.07786C15.449 4.07769 15.6949 3.97568 15.876 3.79428C16.0571 3.61287 16.1589 3.36693 16.1586 3.11055C16.1585 2.85417 16.0565 2.60837 15.8751 2.42721C15.6937 2.24604 15.4477 2.14436 15.1914 2.14453C12.593 2.14968 10.523 2.18191 8.87837 2.44742C7.20282 2.71809 5.86495 3.24653 4.79646 4.31502C3.6429 5.46728 3.12091 6.93662 2.87086 8.80035C2.62598 10.6177 2.62598 12.9506 2.62598 15.9253V16.0736C2.62598 19.0483 2.62598 21.3799 2.87086 23.1998C3.12091 25.0623 3.6442 26.5316 4.79646 27.6851C5.95002 28.8374 7.41935 29.3607 9.28179 29.6108C11.1004 29.8557 13.432 29.8557 16.408 29.8557H16.555C19.531 29.8557 21.8626 29.8557 23.6826 29.6108C25.5437 29.3595 27.013 28.8374 28.1666 27.6838C29.2338 26.6166 29.7623 25.2775 30.0329 23.6032C30.2997 21.9573 30.332 19.8874 30.3358 17.2902C30.336 17.1633 30.3113 17.0375 30.263 16.9202C30.2146 16.8028 30.1436 16.6961 30.054 16.6062C29.8731 16.4245 29.6274 16.3221 29.371 16.3217C29.1147 16.3212 28.8686 16.4225 28.687 16.6034C28.5053 16.7843 28.403 17.03 28.4025 17.2864C28.3986 19.9157 28.3625 21.8272 28.1241 23.2939C27.8921 24.7323 27.4796 25.6358 26.7991 26.3177C26.0645 27.0523 25.0719 27.4725 23.4235 27.6942C21.748 27.9197 19.5465 27.9211 16.4815 27.9211C13.4166 27.9211 11.2151 27.9197 9.53958 27.6942C7.89109 27.4725 6.89736 27.051 6.16269 26.3177C5.4293 25.5829 5.00784 24.5905 4.78616 22.9408C4.56189 21.2652 4.55931 19.0651 4.55931 15.9988C4.55931 12.9339 4.56189 10.7324 4.78616 9.05684C5.00784 7.40964 5.4306 6.41462 6.16397 5.68124C6.8445 5.0007 7.7493 4.58956 9.18642 4.35627C10.6532 4.11911 12.5633 4.08302 15.1927 4.07786Z" fill="black"/>
<path d="M21.5145 3.1112C21.5145 3.6448 21.9476 4.07786 22.4811 4.07786H27.0347L17.4467 13.6672V10.8445C17.4467 10.5882 17.3449 10.3423 17.1636 10.161C16.9823 9.97971 16.7365 9.87786 16.48 9.87786C16.2236 9.87786 15.9777 9.97971 15.7965 10.161C15.6152 10.3423 15.5134 10.5882 15.5134 10.8445V16.0001C15.5134 16.5337 15.9465 16.9667 16.48 16.9667H21.6356C21.892 16.9667 22.1379 16.865 22.3191 16.6836C22.5004 16.5023 22.6023 16.2564 22.6023 16.0001C22.6023 15.7437 22.5004 15.4978 22.3191 15.3166C22.1379 15.1353 21.892 15.0334 21.6356 15.0334H18.8129L28.4023 5.44408V9.99902C28.4023 10.2554 28.5041 10.5013 28.6854 10.6826C28.8667 10.8639 29.1126 10.9657 29.3689 10.9657C29.6253 10.9657 29.8712 10.8639 30.0524 10.6826C30.2337 10.5013 30.3356 10.2554 30.3356 9.99902V3.1112C30.3356 2.85482 30.2337 2.60895 30.0524 2.42766C29.8712 2.24638 29.6253 2.14453 29.3689 2.14453H22.4811C22.2247 2.14453 21.9788 2.24638 21.7976 2.42766C21.6163 2.60895 21.5145 2.85482 21.5145 3.1112Z" fill="black"/>
</g>
<defs>
<clipPath id="clip0_208_1127">
<rect width="32" height="32" fill="white" transform="translate(0.47998)"/>
</clipPath>
</defs>
</svg>
