<svg width="33" height="32" viewBox="0 0 33 32" fill="none" xmlns="http://www.w3.org/2000/svg">
<g clip-path="url(#clip0_208_1114)">
<g clip-path="url(#clip1_208_1114)">
<path d="M30.187 19.293L27.187 16.293C26.9995 16.1055 26.7452 16.0002 26.48 16.0002C26.2148 16.0002 25.9605 16.1055 25.773 16.293L16.48 25.586V30H20.894L30.187 20.707C30.3745 20.5195 30.4798 20.2652 30.4798 20C30.4798 19.7348 30.3745 19.4805 30.187 19.293ZM20.066 28H18.48V26.414L23.48 21.414L25.066 23L20.066 28ZM26.48 21.586L24.894 20L26.48 18.414L28.066 20L26.48 21.586ZM18.48 18V14H20.48V18H18.48ZM14.48 18V12H16.48V18H14.48ZM10.48 18V8H12.48V18H10.48Z" fill="black"/>
<path d="M12.48 30H6.47998C5.94971 29.9995 5.44131 29.7886 5.06635 29.4136C4.69139 29.0387 4.48051 28.5303 4.47998 28V4C4.48051 3.46973 4.69139 2.96133 5.06635 2.58637C5.44131 2.21141 5.94971 2.00053 6.47998 2H22.48C23.0103 2.00053 23.5187 2.21141 23.8936 2.58637C24.2686 2.96133 24.4795 3.46973 24.48 4V14H22.48V4H6.47998V28H12.48V30Z" fill="black"/>
</g>
</g>
<defs>
<clipPath id="clip0_208_1114">
<rect width="32" height="32" fill="white" transform="translate(0.47998)"/>
</clipPath>
<clipPath id="clip1_208_1114">
<rect width="32" height="32" fill="white" transform="translate(0.47998)"/>
</clipPath>
</defs>
</svg>
