<svg width="184" height="48" viewBox="0 0 184 48" fill="none" xmlns="http://www.w3.org/2000/svg">
<rect width="184" height="48" rx="20" fill="white"/>
<path d="M47.7039 19.9824V18.6364H55.7246V19.9824H52.491V29H50.9324V19.9824H47.7039ZM58.5159 29.1721C58.0234 29.1721 57.578 29.081 57.18 28.8988C56.7819 28.7132 56.4664 28.445 56.2337 28.0942C56.0043 27.7433 55.8896 27.3132 55.8896 26.8038C55.8896 26.3652 55.9739 26.0043 56.1426 25.7209C56.3113 25.4375 56.539 25.2132 56.8257 25.0479C57.1125 24.8825 57.433 24.7577 57.7872 24.6734C58.1414 24.589 58.5024 24.5249 58.8701 24.4811C59.3357 24.4271 59.7135 24.3833 60.0036 24.3495C60.2938 24.3124 60.5046 24.2534 60.6362 24.1724C60.7678 24.0914 60.8335 23.9599 60.8335 23.7777V23.7423C60.8335 23.3003 60.7087 22.9579 60.4591 22.715C60.2128 22.4721 59.8451 22.3507 59.3559 22.3507C58.8465 22.3507 58.4451 22.4637 58.1516 22.6897C57.8614 22.9124 57.6607 23.1603 57.5494 23.4336L56.1274 23.1097C56.2961 22.6374 56.5424 22.2562 56.8662 21.9661C57.1935 21.6726 57.5696 21.46 57.9947 21.3285C58.4198 21.1935 58.8667 21.1261 59.3357 21.1261C59.646 21.1261 59.975 21.1632 60.3224 21.2374C60.6733 21.3082 61.0005 21.4398 61.3042 21.6321C61.6112 21.8244 61.8625 22.0993 62.0582 22.4569C62.2538 22.8112 62.3517 23.2717 62.3517 23.8384V29H60.874V27.9373H60.8133C60.7155 28.133 60.5687 28.3253 60.3731 28.5142C60.1774 28.7031 59.9261 28.86 59.6191 28.9848C59.3121 29.1096 58.9443 29.1721 58.5159 29.1721ZM58.8448 27.9576C59.2631 27.9576 59.6207 27.8749 59.9176 27.7096C60.2179 27.5443 60.4456 27.3284 60.6008 27.0619C60.7593 26.792 60.8386 26.5036 60.8386 26.1966V25.1946C60.7846 25.2486 60.68 25.2992 60.5249 25.3464C60.3731 25.3903 60.1993 25.4291 60.0036 25.4628C59.808 25.4932 59.6174 25.5218 59.4318 25.5488C59.2463 25.5724 59.0911 25.5927 58.9663 25.6096C58.6728 25.6467 58.4046 25.7091 58.1617 25.7968C57.9221 25.8845 57.7299 26.011 57.5848 26.1763C57.4431 26.3382 57.3723 26.5542 57.3723 26.824C57.3723 27.1985 57.5106 27.4819 57.7872 27.6742C58.0638 27.8631 58.4164 27.9576 58.8448 27.9576ZM65.816 18.6364V29H64.3029V18.6364H65.816ZM69.1791 26.3635L69.169 24.5165H69.4322L72.5291 21.2273H74.3407L70.8086 24.9719H70.5707L69.1791 26.3635ZM67.7875 29V18.6364H69.3006V29H67.7875ZM72.6961 29L69.9129 25.3059L70.9553 24.2483L74.5532 29H72.6961ZM82.9912 21.2273V22.4418H78.7455V21.2273H82.9912ZM79.8841 19.3651H81.3972V26.7178C81.3972 27.0113 81.441 27.2322 81.5287 27.3807C81.6165 27.5257 81.7295 27.6253 81.8678 27.6792C82.0095 27.7298 82.163 27.7551 82.3283 27.7551C82.4497 27.7551 82.556 27.7467 82.6471 27.7298C82.7382 27.713 82.809 27.6995 82.8596 27.6894L83.1329 28.9393C83.0452 28.973 82.9203 29.0067 82.7584 29.0405C82.5965 29.0776 82.3941 29.0978 82.1512 29.1012C81.7531 29.108 81.382 29.0371 81.0379 28.8887C80.6938 28.7402 80.4155 28.5108 80.2029 28.2005C79.9904 27.8901 79.8841 27.5004 79.8841 27.0315V19.3651ZM87.7915 29.1569C87.0628 29.1569 86.4269 28.9899 85.8837 28.6559C85.3406 28.3219 84.9189 27.8547 84.6186 27.2542C84.3184 26.6537 84.1682 25.952 84.1682 25.1491C84.1682 24.3428 84.3184 23.6377 84.6186 23.0338C84.9189 22.43 85.3406 21.961 85.8837 21.627C86.4269 21.2931 87.0628 21.1261 87.7915 21.1261C88.5202 21.1261 89.1561 21.2931 89.6992 21.627C90.2424 21.961 90.6641 22.43 90.9643 23.0338C91.2646 23.6377 91.4147 24.3428 91.4147 25.1491C91.4147 25.952 91.2646 26.6537 90.9643 27.2542C90.6641 27.8547 90.2424 28.3219 89.6992 28.6559C89.1561 28.9899 88.5202 29.1569 87.7915 29.1569ZM87.7965 27.8867C88.2688 27.8867 88.6602 27.7619 88.9705 27.5123C89.2809 27.2626 89.5103 26.9303 89.6587 26.5154C89.8106 26.1004 89.8865 25.6433 89.8865 25.144C89.8865 24.6481 89.8106 24.1926 89.6587 23.7777C89.5103 23.3594 89.2809 23.0237 88.9705 22.7707C88.6602 22.5177 88.2688 22.3912 87.7965 22.3912C87.3209 22.3912 86.9261 22.5177 86.6124 22.7707C86.302 23.0237 86.0709 23.3594 85.9191 23.7777C85.7707 24.1926 85.6965 24.6481 85.6965 25.144C85.6965 25.6433 85.7707 26.1004 85.9191 26.5154C86.0709 26.9303 86.302 27.2626 86.6124 27.5123C86.9261 27.7619 87.3209 27.8867 87.7965 27.8867ZM105.476 22.0066H103.897C103.836 21.6692 103.723 21.3723 103.558 21.1159C103.393 20.8596 103.19 20.642 102.951 20.4632C102.711 20.2844 102.443 20.1494 102.146 20.0583C101.853 19.9672 101.541 19.9217 101.21 19.9217C100.613 19.9217 100.078 20.0718 99.6059 20.3721C99.137 20.6723 98.7659 21.1126 98.4927 21.6928C98.2228 22.2731 98.0878 22.9815 98.0878 23.8182C98.0878 24.6616 98.2228 25.3734 98.4927 25.9537C98.7659 26.5339 99.1387 26.9725 99.611 27.2694C100.083 27.5662 100.615 27.7147 101.205 27.7147C101.532 27.7147 101.843 27.6708 102.136 27.5831C102.433 27.492 102.701 27.3588 102.941 27.1833C103.18 27.0079 103.383 26.7937 103.548 26.5407C103.717 26.2843 103.833 25.9908 103.897 25.6602L105.476 25.6652C105.392 26.1746 105.228 26.6436 104.985 27.072C104.746 27.4971 104.437 27.8648 104.059 28.1752C103.685 28.4822 103.256 28.72 102.774 28.8887C102.291 29.0574 101.765 29.1417 101.195 29.1417C100.298 29.1417 99.498 28.9292 98.7963 28.5041C98.0946 28.0756 97.5413 27.4633 97.1365 26.6672C96.735 25.871 96.5343 24.9213 96.5343 23.8182C96.5343 22.7116 96.7367 21.762 97.1415 20.9692C97.5464 20.173 98.0996 19.5624 98.8013 19.1373C99.503 18.7089 100.301 18.4947 101.195 18.4947C101.745 18.4947 102.258 18.574 102.733 18.7325C103.212 18.8877 103.642 19.1171 104.024 19.4207C104.405 19.721 104.72 20.0887 104.97 20.5239C105.22 20.9557 105.388 21.4499 105.476 22.0066ZM108.675 18.6364V29H107.162V18.6364H108.675ZM112.908 29.1721C112.416 29.1721 111.97 29.081 111.572 28.8988C111.174 28.7132 110.859 28.445 110.626 28.0942C110.397 27.7433 110.282 27.3132 110.282 26.8038C110.282 26.3652 110.366 26.0043 110.535 25.7209C110.704 25.4375 110.931 25.2132 111.218 25.0479C111.505 24.8825 111.825 24.7577 112.179 24.6734C112.534 24.589 112.895 24.5249 113.262 24.4811C113.728 24.4271 114.106 24.3833 114.396 24.3495C114.686 24.3124 114.897 24.2534 115.028 24.1724C115.16 24.0914 115.226 23.9599 115.226 23.7777V23.7423C115.226 23.3003 115.101 22.9579 114.851 22.715C114.605 22.4721 114.237 22.3507 113.748 22.3507C113.239 22.3507 112.837 22.4637 112.544 22.6897C112.254 22.9124 112.053 23.1603 111.942 23.4336L110.52 23.1097C110.688 22.6374 110.935 22.2562 111.258 21.9661C111.586 21.6726 111.962 21.46 112.387 21.3285C112.812 21.1935 113.259 21.1261 113.728 21.1261C114.038 21.1261 114.367 21.1632 114.715 21.2374C115.066 21.3082 115.393 21.4398 115.696 21.6321C116.003 21.8244 116.255 22.0993 116.45 22.4569C116.646 22.8112 116.744 23.2717 116.744 23.8384V29H115.266V27.9373H115.206C115.108 28.133 114.961 28.3253 114.765 28.5142C114.57 28.7031 114.318 28.86 114.011 28.9848C113.704 29.1096 113.337 29.1721 112.908 29.1721ZM113.237 27.9576C113.655 27.9576 114.013 27.8749 114.31 27.7096C114.61 27.5443 114.838 27.3284 114.993 27.0619C115.152 26.792 115.231 26.5036 115.231 26.1966V25.1946C115.177 25.2486 115.072 25.2992 114.917 25.3464C114.765 25.3903 114.592 25.4291 114.396 25.4628C114.2 25.4932 114.01 25.5218 113.824 25.5488C113.639 25.5724 113.483 25.5927 113.359 25.6096C113.065 25.6467 112.797 25.7091 112.554 25.7968C112.314 25.8845 112.122 26.011 111.977 26.1763C111.835 26.3382 111.765 26.5542 111.765 26.824C111.765 27.1985 111.903 27.4819 112.179 27.6742C112.456 27.8631 112.809 27.9576 113.237 27.9576ZM118.695 29V21.2273H120.158V22.462H120.239C120.38 22.0437 120.63 21.7148 120.988 21.4752C121.349 21.2323 121.757 21.1109 122.212 21.1109C122.307 21.1109 122.418 21.1143 122.546 21.121C122.678 21.1278 122.781 21.1362 122.855 21.1463V22.5936C122.794 22.5767 122.686 22.5581 122.531 22.5379C122.376 22.5143 122.221 22.5025 122.065 22.5025C121.708 22.5025 121.389 22.5784 121.109 22.7302C120.832 22.8786 120.613 23.0861 120.451 23.3526C120.289 23.6158 120.208 23.916 120.208 24.2534V29H118.695ZM127.172 29.1569C126.406 29.1569 125.747 28.9933 125.193 28.666C124.643 28.3354 124.218 27.8715 123.918 27.2744C123.621 26.6739 123.473 25.9705 123.473 25.1642C123.473 24.3681 123.621 23.6664 123.918 23.0591C124.218 22.4519 124.637 21.9779 125.173 21.6372C125.713 21.2964 126.344 21.1261 127.066 21.1261C127.504 21.1261 127.929 21.1986 128.341 21.3437C128.752 21.4887 129.122 21.7164 129.449 22.0268C129.776 22.3372 130.034 22.7403 130.223 23.2362C130.412 23.7288 130.507 24.3276 130.507 25.0327V25.5691H124.328V24.4355H129.024C129.024 24.0375 128.943 23.6849 128.781 23.3779C128.619 23.0676 128.391 22.823 128.098 22.6442C127.808 22.4654 127.467 22.376 127.076 22.376C126.651 22.376 126.28 22.4806 125.962 22.6897C125.649 22.8955 125.406 23.1654 125.234 23.4994C125.065 23.83 124.981 24.1893 124.981 24.5772V25.4628C124.981 25.9823 125.072 26.4243 125.254 26.7886C125.44 27.153 125.698 27.4313 126.028 27.6236C126.359 27.8125 126.745 27.907 127.187 27.907C127.474 27.907 127.735 27.8665 127.971 27.7855C128.208 27.7012 128.412 27.5763 128.584 27.411C128.756 27.2457 128.887 27.0416 128.978 26.7987L130.41 27.0568C130.296 27.4785 130.09 27.8479 129.793 28.165C129.5 28.4788 129.13 28.7234 128.685 28.8988C128.243 29.0708 127.739 29.1569 127.172 29.1569ZM142.286 29.1872L141.375 28.2865L144.538 25.1238H136.593V23.8081H144.538L141.375 20.6504L142.286 19.7446L147.007 24.4659L142.286 29.1872Z" fill="#002B31"/>
<path d="M21.9514 25.9184C21.9211 25.9792 21.8907 26.0399 21.8299 26.0703C21.7692 26.2222 21.678 26.3438 21.6172 26.4957C22.1337 26.3741 22.6198 26.1615 23.106 25.9488C23.2579 25.888 23.3794 25.8273 23.5009 25.7665C23.8047 25.6146 24.1086 25.5842 24.4428 25.645C24.8073 25.7057 25.1719 25.7361 25.5973 25.7361C28.5139 25.7361 30.4584 23.7917 30.4584 21.8472C30.4584 19.9332 28.5139 17.9583 25.5973 17.9583C22.6502 17.9583 20.7362 19.9332 20.7362 21.8472C20.7362 22.6979 21.0704 23.5182 21.7084 24.217C22.1641 24.6727 22.2553 25.3411 21.9514 25.9184ZM19.2778 21.8472C19.2778 18.9002 22.1034 16.5 25.5973 16.5C29.0608 16.5 31.9167 18.9002 31.9167 21.8472C31.9167 24.8247 29.0608 27.1944 25.5973 27.1944C25.0808 27.1944 24.6251 27.1641 24.1389 27.0729C24.0174 27.1337 23.8655 27.2248 23.7136 27.2856C22.6198 27.7717 21.3134 28.1667 20.007 28.1667C19.7032 28.1667 19.4297 28.0148 19.3082 27.7413C19.2171 27.4679 19.2474 27.1641 19.4601 26.9513C19.8855 26.4653 20.2501 25.9184 20.5843 25.3715C20.6146 25.3108 20.645 25.25 20.645 25.2196C19.7943 24.3082 19.2778 23.1233 19.2778 21.8472ZM32.4028 31.0833C29.9115 31.0833 27.7544 29.868 26.7214 28.1059C27.2379 28.0148 27.7544 27.8932 28.2405 27.7413C29.0304 28.8351 30.5192 29.625 32.3725 29.625C32.7978 29.625 33.1624 29.5947 33.5269 29.5339C33.8612 29.4731 34.1649 29.5034 34.4688 29.6553C34.5903 29.7161 34.7118 29.7769 34.8637 29.8377C35.3498 30.0503 35.8359 30.2327 36.3525 30.3846C36.2917 30.2327 36.2006 30.1111 36.1398 29.9592C36.1094 29.8984 36.0487 29.8377 36.0183 29.7769C35.7448 29.23 35.8359 28.5617 36.2614 28.1059C36.8994 27.4071 37.2639 26.5868 37.2639 25.7361C37.2639 23.9436 35.5322 22.0903 32.8889 21.8776V21.8472C32.8889 21.3611 32.7978 20.875 32.6763 20.4193C36.0487 20.5408 38.7223 22.8802 38.7223 25.7361C38.7223 27.0121 38.1754 28.197 37.3247 29.1086C37.3247 29.1692 37.3551 29.1997 37.3855 29.2604C37.7197 29.8073 38.0843 30.3542 38.5096 30.8402C38.7223 31.053 38.7526 31.3568 38.6615 31.6302C38.5399 31.9037 38.2665 32.0556 37.9932 32.0556C36.6867 32.0556 35.3498 31.6606 34.2562 31.1744C34.1043 31.1137 33.9523 31.0226 33.8308 30.9618C33.3447 31.053 32.8889 31.0833 32.4028 31.0833Z" fill="#06382F"/>
</svg>
