<svg width="35" height="35" viewBox="0 0 35 35" fill="none" xmlns="http://www.w3.org/2000/svg">
<path d="M17.5 34.7368C27.165 34.7368 35 26.9607 35 17.3684C35 7.7761 27.165 0 17.5 0C7.83502 0 0 7.7761 0 17.3684C0 26.9607 7.83502 34.7368 17.5 34.7368Z" fill="url(#paint0_linear_13_559)"/>
<path d="M28.6232 7.12912C24.1875 2.65013 18.9022 1.24839 12.7893 3.04437C12.6459 3.08817 12.4804 3.09913 12.3259 3.13198L10.2294 4.06282C9.22534 4.79654 8.11091 5.4317 7.22818 6.28589C2.69319 10.6663 1.26979 15.9119 3.04628 21.9788C3.09041 22.143 3.11248 22.3183 3.15662 22.4935L4.09451 24.5742C4.63518 25.3408 5.12068 26.1292 5.70548 26.863C9.62257 31.7252 16.232 33.6526 22.2014 31.7033C22.3448 31.6595 22.5103 31.6486 22.6648 31.6157L24.7613 30.6849C25.655 30.0497 26.5929 29.4803 27.4205 28.7794C32.0438 24.8808 33.8423 18.4744 31.9555 12.7689C31.9003 12.6047 31.8893 12.4294 31.8451 12.2542L30.9073 10.1735C30.1569 9.15507 29.5059 8.03806 28.6232 7.14007V7.12912ZM22.5876 28.6589C16.3975 31.4515 8.97156 28.637 6.12478 22.4168C3.32213 16.2952 6.12478 8.93605 12.359 6.09972C18.5933 3.27434 26.0412 6.06687 28.888 12.309C31.7017 18.4744 28.877 25.8117 22.5986 28.648L22.5876 28.6589Z" fill="white"/>
<path d="M26.6897 17.6415L24.207 16.1193L26.6897 15.3965V17.6415Z" fill="white"/>
<path d="M26.2526 17.2906L24.7079 16.3926L22.2031 18.6595V21.1892L23.7369 21.8462L26.2526 17.2906Z" fill="white"/>
<path d="M17.7109 12.2969L18.6047 18.5718L19.013 21.5067L19.0681 21.8462H23.7355L21.3963 14.3119L17.7109 12.2969Z" fill="#E6E7E8"/>
<path d="M12.0837 21.8469L7.92383 15.6377L11.4327 14.4111L14.0808 18.3645L16.409 21.8469L16.4421 21.8907L12.0837 21.8469Z" fill="#E6E7E8"/>
<path d="M16.4748 21.8466H12.0391L12.0611 21.8137L14.0804 18.3641L17.6885 12.1768L21.3959 14.3122L16.4748 21.8466Z" fill="white"/>
<defs>
<linearGradient id="paint0_linear_13_559" x1="29.8692" y1="29.6446" x2="5.3066" y2="4.8959" gradientUnits="userSpaceOnUse">
<stop stop-color="#D65327"/>
<stop offset="1" stop-color="#FCEE21"/>
</linearGradient>
</defs>
</svg>
