<svg width="319" height="306" viewBox="0 0 319 306" fill="none" xmlns="http://www.w3.org/2000/svg">
<path d="M27.31 153.41C27.7288 153.159 28.2049 153.018 28.6932 153.002C29.1815 152.987 29.6658 153.096 30.1 153.32C30.531 153.554 30.9392 153.819 31.3778 154.023C31.8284 154.208 32.2469 154.463 32.6178 154.779C32.9699 155.116 33.2301 155.538 33.3738 156.004C33.4818 156.48 33.53 156.968 33.5175 157.456L33.6309 160.404L45.5166 159.996L45.4485 160.064L45.3124 156.238C45.3259 155.571 45.5719 154.929 46.008 154.424C46.4773 153.975 47.0066 153.593 47.5807 153.289L48.3821 152.783C48.6604 152.598 48.9668 152.46 49.2894 152.375C49.9413 152.191 50.6371 152.241 51.2553 152.518L54.6501 154.295L54.4157 154.371L59.9427 143.77L60.0485 144.118L56.6537 142.319C56.052 141.941 55.5962 141.371 55.3608 140.701C55.2468 140.367 55.1881 140.017 55.1869 139.665V138.72L55.1415 137.767C55.1065 137.233 55.2074 136.7 55.4348 136.216C55.6623 135.732 56.0088 135.313 56.442 135L59.7007 132.958L59.5873 133.427L53.2438 123.356L53.7503 123.469L50.4841 125.503C49.8391 125.851 49.0933 125.963 48.3746 125.821C48.0196 125.748 47.6795 125.615 47.369 125.428L46.5524 124.959L45.7132 124.536C45.388 124.376 45.0917 124.164 44.8361 123.908C44.3241 123.391 44.0085 122.712 43.9439 121.988L43.8305 118.139L44.1859 118.479L32.2926 118.82L32.5951 118.502L32.6858 122.35C32.6576 123.055 32.3911 123.73 31.9297 124.263C31.695 124.526 31.4161 124.747 31.1056 124.914L30.3041 125.405L29.4951 125.897C29.0629 126.19 28.562 126.367 28.0413 126.409C27.5206 126.451 26.9977 126.358 26.5237 126.138L23.1516 124.301L23.4238 124.218L17.7304 134.667L17.6775 134.508L21.0345 136.346C21.5909 136.7 22.0096 137.233 22.2216 137.858C22.368 138.487 22.429 139.133 22.403 139.778C22.4663 140.419 22.4383 141.066 22.3199 141.699C22.1532 142.333 21.7675 142.887 21.2311 143.264L17.9648 145.283V145.23L24.2101 155.354L27.31 153.41ZM27.31 153.41L24.2176 155.346L17.9119 145.283L21.1555 143.256C21.6694 142.89 22.0386 142.355 22.1989 141.744C22.3038 141.119 22.3217 140.483 22.2518 139.854C22.2679 139.225 22.2018 138.598 22.0552 137.986C21.8502 137.397 21.4501 136.896 20.9211 136.565L17.5565 134.697L17.4507 134.637L17.5036 134.531L23.0608 124.006L23.1516 123.825L23.333 123.923L26.6749 125.692C27.2156 125.929 27.8201 125.977 28.3912 125.828C28.6606 125.744 28.9156 125.619 29.1473 125.458L29.9639 124.936L30.788 124.422C31.0389 124.279 31.2638 124.095 31.4534 123.878C31.8302 123.436 32.0437 122.878 32.0583 122.298L31.9146 118.517V118.207H32.2246L44.1103 117.799H44.458V118.147L44.5866 121.927C44.633 122.497 44.8793 123.033 45.2822 123.439C45.481 123.635 45.711 123.796 45.9627 123.916L46.8322 124.347L47.679 124.83C47.9139 124.968 48.1691 125.067 48.4351 125.125C48.9821 125.23 49.5487 125.142 50.038 124.876L53.2816 122.887L53.5991 122.691L53.7881 123.008L60.0334 133.132L60.2073 133.42L59.92 133.593L56.684 135.597C56.2191 135.923 55.8843 136.402 55.7388 136.95C55.6632 137.226 55.6326 137.512 55.6481 137.797V138.758V139.718C55.6504 140.006 55.6989 140.292 55.7918 140.565C55.9683 141.113 56.3289 141.583 56.8125 141.895L60.1544 143.725L60.3812 143.846L60.2602 144.073L54.5669 154.522L54.4762 154.673L54.325 154.59L50.9755 152.768C50.4173 152.518 49.7911 152.465 49.1987 152.617C48.6122 152.827 48.0575 153.117 47.5504 153.479C47.0007 153.767 46.4921 154.128 46.0383 154.552C45.6244 155.016 45.3862 155.61 45.3654 156.231L45.4485 160.011V160.079H45.3729L33.6007 160.404L33.4797 157.456C33.4918 156.973 33.4461 156.491 33.3436 156.019C33.1981 155.556 32.9381 155.137 32.5875 154.802C32.2193 154.486 31.8033 154.231 31.3551 154.046C30.9166 153.834 30.5083 153.569 30.0849 153.335C29.6549 153.108 29.1736 152.995 28.6875 153.009C28.2015 153.022 27.727 153.16 27.31 153.41Z" fill="#EBEBEB"/>
<path d="M29.7672 135.792C30.4596 133.968 31.6739 132.388 33.2586 131.249C34.8432 130.111 36.7281 129.464 38.6779 129.39C40.6278 129.316 42.5564 129.817 44.2229 130.832C45.8895 131.847 47.2204 133.33 48.0494 135.097C48.6143 136.297 48.9323 137.599 48.9844 138.925C49.0365 140.251 48.8217 141.574 48.3527 142.815C47.8837 144.056 47.1701 145.19 46.2543 146.15C45.3385 147.111 44.2391 147.877 43.0214 148.404C41.818 148.926 40.5232 149.206 39.2115 149.227C37.8997 149.247 36.5968 149.009 35.3774 148.525C34.1746 148.033 33.0744 147.32 32.1338 146.423C30.7504 145.072 29.79 143.347 29.3698 141.46C28.9496 139.572 29.0877 137.603 29.7672 135.792ZM29.7672 135.792C28.8787 138.209 28.9847 140.879 30.0621 143.217C30.8599 144.916 32.1404 146.343 33.7438 147.319C35.3472 148.295 37.2025 148.777 39.0782 148.705C40.9539 148.633 42.767 148.011 44.2911 146.915C45.8153 145.82 46.983 144.299 47.6486 142.544C48.5258 140.205 48.4529 137.615 47.4454 135.329C46.438 133.043 44.576 131.242 42.2578 130.311C39.8884 129.37 37.2423 129.408 34.901 130.417C32.5521 131.467 30.7088 133.398 29.7672 135.792Z" fill="#EBEBEB"/>
<path d="M305.231 144.616L301.065 137.395L298.865 138.673C298.546 138.854 298.183 138.944 297.816 138.932C297.449 138.92 297.093 138.807 296.786 138.605C296.437 138.377 296.076 138.168 295.705 137.978C295.377 137.813 295.102 137.562 294.909 137.251C294.715 136.94 294.611 136.582 294.608 136.216V133.668H286.291V136.208C286.289 136.575 286.185 136.933 285.991 137.244C285.798 137.554 285.522 137.806 285.195 137.97C284.824 138.16 284.463 138.37 284.114 138.598C283.807 138.799 283.451 138.912 283.084 138.924C282.717 138.936 282.354 138.847 282.035 138.666L279.827 137.388L275.661 144.609L277.884 145.886C278.199 146.073 278.457 146.344 278.628 146.668C278.799 146.992 278.876 147.358 278.852 147.724C278.852 147.928 278.852 148.132 278.852 148.336C278.852 148.54 278.852 148.744 278.852 148.948C278.876 149.312 278.8 149.676 278.63 149.999C278.461 150.322 278.205 150.592 277.891 150.778L275.623 152.064L279.789 159.284L282.004 158.006C282.323 157.823 282.687 157.733 283.055 157.747C283.422 157.76 283.779 157.876 284.084 158.082C284.431 158.301 284.787 158.513 285.157 158.702C285.484 158.866 285.76 159.118 285.953 159.428C286.147 159.739 286.251 160.098 286.254 160.464V163.012H294.571V160.464C294.573 160.098 294.677 159.739 294.871 159.428C295.064 159.118 295.34 158.866 295.667 158.702C296.037 158.513 296.423 158.301 296.741 158.082C297.045 157.876 297.402 157.76 297.769 157.747C298.137 157.733 298.501 157.823 298.82 158.006L301.035 159.284L305.201 152.064L302.986 150.786C302.671 150.6 302.414 150.331 302.243 150.008C302.072 149.685 301.994 149.321 302.018 148.956C302.018 148.752 302.018 148.54 302.018 148.336C302.018 148.132 302.018 147.928 302.018 147.724C301.993 147.358 302.071 146.992 302.242 146.668C302.413 146.344 302.67 146.073 302.986 145.886L305.231 144.616ZM297.262 148.344C297.262 149.689 296.863 151.005 296.115 152.124C295.368 153.243 294.305 154.115 293.062 154.63C291.818 155.145 290.45 155.28 289.13 155.018C287.81 154.755 286.597 154.107 285.646 153.155C284.694 152.204 284.046 150.991 283.783 149.671C283.521 148.351 283.656 146.983 284.171 145.74C284.686 144.496 285.558 143.433 286.677 142.686C287.796 141.938 289.112 141.539 290.457 141.539C292.262 141.539 293.993 142.256 295.269 143.532C296.545 144.808 297.262 146.539 297.262 148.344Z" fill="#EBEBEB"/>
<path d="M87.9178 80.5766L83.7518 73.3635L81.544 74.6413C81.2245 74.8228 80.8608 74.9118 80.4936 74.8985C80.1265 74.8851 79.7702 74.7699 79.4648 74.5657C79.1156 74.3401 78.7547 74.1331 78.3836 73.9457C78.0563 73.7814 77.7808 73.53 77.5874 73.2192C77.3939 72.9084 77.2901 72.5501 77.2872 72.184V69.6738H69.0157V72.2218C69.0128 72.5879 68.9089 72.9462 68.7155 73.257C68.522 73.5679 68.2465 73.8193 67.9193 73.9835C67.5482 74.1709 67.1873 74.3779 66.8381 74.6035C66.5327 74.8077 66.1764 74.9229 65.8092 74.9363C65.442 74.9496 65.0784 74.8606 64.7589 74.6791L62.5511 73.4013L58.3851 80.6144L60.608 81.8922C60.9241 82.0801 61.182 82.352 61.3528 82.6777C61.5237 83.0034 61.6008 83.3701 61.5758 83.737C61.5758 83.9412 61.5758 84.1453 61.5758 84.3494C61.5758 84.5536 61.5758 84.7577 61.5758 84.9619C61.6005 85.3258 61.5238 85.6895 61.3543 86.0125C61.1848 86.3355 60.9291 86.6052 60.6155 86.7916L58.3473 88.0769L62.5133 95.2976L64.7287 94.0198C65.0475 93.8372 65.4107 93.7469 65.7779 93.7589C66.1451 93.7709 66.5017 93.8848 66.8079 94.0878C67.1544 94.3159 67.5128 94.5254 67.8815 94.7154C68.2081 94.8784 68.4834 95.1284 68.6768 95.438C68.8703 95.7475 68.9745 96.1045 68.9778 96.4695V99.0251H77.2948V96.4695C77.2982 96.1045 77.4023 95.7475 77.5958 95.438C77.7893 95.1284 78.0645 94.8784 78.3911 94.7154C78.7599 94.5254 79.1183 94.3159 79.4648 94.0878C79.7709 93.8848 80.1275 93.7709 80.4947 93.7589C80.8619 93.7469 81.2252 93.8372 81.544 94.0198L83.7593 95.2976L87.9253 88.0769L85.7025 86.7992C85.3895 86.6102 85.1345 86.3389 84.9651 86.015C84.7958 85.691 84.7187 85.3267 84.7422 84.9619C84.7422 84.7577 84.7422 84.5536 84.7422 84.3494C84.7422 84.1453 84.7422 83.9412 84.7422 83.737C84.7172 83.3701 84.7943 83.0034 84.9652 82.6777C85.136 82.352 85.3939 82.0801 85.71 81.8922L87.9178 80.5766ZM79.9487 84.3116C79.9487 85.6575 79.5496 86.9731 78.8018 88.0922C78.0541 89.2112 76.9914 90.0834 75.7479 90.5984C74.5045 91.1135 73.1363 91.2482 71.8163 90.9857C70.4963 90.7231 69.2838 90.075 68.3322 89.1233C67.3805 88.1717 66.7324 86.9592 66.4699 85.6392C66.2073 84.3192 66.3421 82.951 66.8571 81.7076C67.3721 80.4642 68.2443 79.4014 69.3634 78.6537C70.4824 77.906 71.798 77.5069 73.1439 77.5069C74.0394 77.5039 74.9267 77.6777 75.7549 78.0183C76.5831 78.359 77.336 78.8597 77.9703 79.4919C78.6045 80.1241 79.1078 80.8752 79.4512 81.7023C79.7946 82.5294 79.9713 83.4161 79.9713 84.3116H79.9487Z" fill="#EBEBEB"/>
<path d="M265.999 24.3083H193.142C193.142 24.3083 200.363 4.58203 211.485 4.58203C222.607 4.58203 226.085 18.1916 226.085 18.1916C226.085 18.1916 233.585 10.7895 239.747 10.7895C245.91 10.7895 251.232 20.5279 251.232 20.5279C251.232 20.5279 259.973 15.2882 265.999 24.3083Z" fill="#EBEBEB"/>
<path d="M148.979 142.576H76.1149C76.1149 142.576 83.343 122.85 94.4575 122.85C105.572 122.85 109.058 136.459 109.058 136.459C109.058 136.459 116.558 129.057 122.72 129.057C128.882 129.057 134.243 138.841 134.243 138.841C134.243 138.841 142.945 133.586 148.979 142.576Z" fill="#EBEBEB"/>
<path opacity="0.5" d="M310.691 89.8225H276.667C276.667 89.8225 284.273 78.7988 290.277 78.7988C296.28 78.7988 298.042 86.148 298.042 86.148C298.042 86.148 302.276 82.7153 306.192 83.3278C310.109 83.9402 310.691 89.8225 310.691 89.8225Z" fill="#EBEBEB"/>
<path opacity="0.5" d="M216.203 110.305H182.179C182.179 110.305 189.793 99.2812 195.788 99.2812C201.784 99.2812 203.553 106.63 203.553 106.63C203.553 106.63 207.787 103.205 211.704 103.818C215.621 104.43 216.203 110.305 216.203 110.305Z" fill="#EBEBEB"/>
<path d="M66.3162 110.093H0C0 110.093 9.07302 89.8152 18.7963 88.545C28.5195 87.2748 33.1619 103.614 33.1619 103.614C33.1619 103.614 39.4298 97.8373 44.3595 97.8373C49.2892 97.8373 53.0923 105.444 53.0923 105.444C53.0923 105.444 62.9668 100.234 66.3162 110.093Z" fill="#EBEBEB"/>
<path opacity="0.5" d="M112.551 55.9349H67.7456C67.7456 55.9349 75.4425 41.2517 83.7897 41.0324C92.1369 40.8132 96.5298 52.1545 96.5298 52.1545C96.5298 52.1545 109.512 41.6978 112.551 55.9349Z" fill="#EBEBEB"/>
<path d="M77.5598 247.752H20.2334V304.7H77.5598V247.752Z" fill="#D8501C"/>
<path opacity="0.1" d="M37.1243 247.752H20.2334V304.7H37.1243V247.752Z" fill="black"/>
<path d="M151.966 221.555H94.6392V304.701H151.966V221.555Z" fill="#D8501C"/>
<path opacity="0.1" d="M111.53 221.555H94.6392V304.701H111.53V221.555Z" fill="black"/>
<path d="M226.365 195.348H169.038V304.693H226.365V195.348Z" fill="#D8501C"/>
<path opacity="0.1" d="M185.929 195.348H169.038V304.693H185.929V195.348Z" fill="black"/>
<path d="M300.771 169.15H243.444V304.701H300.771V169.15Z" fill="#D8501C"/>
<path opacity="0.1" d="M260.335 169.15H243.444V304.701H260.335V169.15Z" fill="black"/>
<path d="M20.1488 174.623C21.5476 174.623 23.1731 174.586 24.6853 174.548C26.1975 174.51 27.7777 174.45 29.3277 174.374C32.4352 174.245 35.5427 174.064 38.6578 173.852C44.8879 173.452 51.1181 172.869 57.3406 172.212C69.7908 170.866 82.1957 169.069 94.5552 166.821C106.915 164.573 119.168 161.868 131.316 158.708C143.459 155.502 155.46 151.8 167.321 147.601C179.175 143.407 190.809 138.612 202.176 133.235C213.585 127.892 224.664 121.87 235.353 115.203L243.323 110.122L251.065 104.686C253.681 102.924 256.146 100.951 258.626 99.0225L262.361 96.1191L264.236 94.6674L266.035 93.1553L273.218 86.9781C274.443 85.98 275.547 84.8459 276.696 83.7647L280.129 80.4908L283.561 77.2094C284.695 76.1055 285.739 74.9412 286.828 73.7692L293.322 66.8359L293.753 67.1989L287.584 74.4573C286.54 75.6595 285.55 76.907 284.461 78.0638L281.172 81.5191L277.883 84.982C276.779 86.1237 275.721 87.3183 274.541 88.3844L267.6 94.9548L265.861 96.5955L264.047 98.1454L260.41 101.253C257.983 103.325 255.594 105.434 253.031 107.339L245.47 113.214L237.622 118.711C227.112 125.997 216.175 132.645 204.868 138.619C193.557 144.637 181.949 150.08 170.088 154.927C158.233 159.776 146.186 164.132 133.947 167.993C121.709 171.854 109.339 175.211 96.8385 178.064C84.343 180.962 71.7415 183.407 59.0343 185.398C52.6832 186.373 46.3169 187.28 39.9129 188.006C36.7071 188.377 33.5013 188.717 30.2728 189.012C28.6623 189.163 27.0443 189.292 25.4263 189.42C23.8083 189.549 22.2054 189.654 20.4361 189.745L20.1488 174.623Z" fill="#D8501C"/>
<path d="M295.666 75.8266L291.954 68.8404L284.348 66.6704L300.853 57.8242L295.666 75.8266Z" fill="#D8501C"/>
<path d="M277.279 164.872H266.452C266.452 164.872 265.613 162.43 268.72 153.024C271.828 143.618 273.771 134.742 269.59 125.51C265.408 116.278 262.679 104.808 267.193 93.2402C272.296 80.1751 273.703 80.3868 267.064 61.772C266.482 60.1464 267.064 60.0783 267.82 61.1217C268.576 62.1651 273.514 74.4742 274.096 77.8463C274.096 77.8463 278.852 69.9453 280.598 69.8319C282.345 69.7184 281.74 70.0209 280.598 71.344C272.433 80.7648 267.941 96.0756 267.707 103.621C267.473 111.167 271.427 119.295 271.427 119.295C271.427 119.295 276.765 111.167 280.25 107.802C283.736 104.438 286.057 99.3267 284.197 94.7978C282.337 90.2688 290.042 97.0056 284.855 104.43C284.855 104.43 292.673 102.918 294.533 106.056C296.393 109.194 289.422 102.344 282.572 108.498C278.486 112.147 275.407 116.784 273.627 121.964C273.627 121.964 280.303 137.154 278.164 145.652C274.731 159.473 277.279 164.872 277.279 164.872Z" fill="#D8501C"/>
<path opacity="0.5" d="M277.279 164.872H266.452C266.452 164.872 265.613 162.43 268.72 153.024C271.828 143.618 273.771 134.742 269.59 125.51C265.408 116.278 262.679 104.808 267.193 93.2402C272.296 80.1751 273.703 80.3868 267.064 61.772C266.482 60.1464 267.064 60.0783 267.82 61.1217C268.576 62.1651 273.514 74.4742 274.096 77.8463C274.096 77.8463 278.852 69.9453 280.598 69.8319C282.345 69.7184 281.74 70.0209 280.598 71.344C272.433 80.7648 267.941 96.0756 267.707 103.621C267.473 111.167 271.427 119.295 271.427 119.295C271.427 119.295 276.765 111.167 280.25 107.802C283.736 104.438 286.057 99.3267 284.197 94.7978C282.337 90.2688 290.042 97.0056 284.855 104.43C284.855 104.43 292.673 102.918 294.533 106.056C296.393 109.194 289.422 102.344 282.572 108.498C278.486 112.147 275.407 116.784 273.627 121.964C273.627 121.964 280.303 137.154 278.164 145.652C274.731 159.473 277.279 164.872 277.279 164.872Z" fill="black"/>
<path d="M275.162 120.075C275.162 120.075 284.878 117.391 290.148 126.88C290.148 126.91 280.243 128.725 275.162 120.075Z" fill="#07382F"/>
<path d="M251.331 68.0401C251.331 68.0401 260.237 63.3146 267.443 71.4652C267.443 71.4652 258.158 75.3817 251.331 68.0401Z" fill="#07382F"/>
<path d="M277.635 117.458C279.119 116.018 281.042 115.117 283.097 114.898C285.152 114.679 287.222 115.154 288.976 116.248C288.976 116.248 283.699 120.815 277.635 117.458Z" fill="#07382F"/>
<path d="M273.249 68.7732C273.544 66.7311 274.515 64.8466 276.006 63.4202C277.497 61.9937 279.422 61.1073 281.475 60.9023C281.475 60.9023 280.099 67.7298 273.249 68.7732Z" fill="#07382F"/>
<path d="M253.591 92.4928C255.622 92.1387 257.714 92.4739 259.534 93.4452C261.353 94.4166 262.795 95.9682 263.632 97.8535C263.632 97.8535 256.721 98.6701 253.591 92.4928Z" fill="#07382F"/>
<path d="M259.534 139.643L260.147 146.931L262.029 169.153H282.187L284.069 146.931L284.682 139.643H259.534Z" fill="#455A64"/>
<path d="M259.534 139.643L260.147 146.931H284.069L284.682 139.643H259.534Z" fill="#263238"/>
<path d="M257.553 143.709H286.663V136.715H257.553V143.709Z" fill="#455A64"/>
<path d="M191.698 189.136H204.219C204.219 189.136 196.227 177.999 194.389 172.025C191.713 163.187 196.385 154.636 202.744 149.918C205.632 147.77 208.604 150.908 212.785 149.918C217.934 148.678 217.813 144.368 217.609 143.944C217.405 143.521 216.686 147.725 214.222 148.526C208.566 150.424 206.661 146.145 201.58 147.876C201.776 146.076 201.804 144.261 201.663 142.455C201.429 139.431 204.589 130.63 213.004 131.53C214.085 131.651 213.428 130.91 211.447 130.773C210.048 130.742 208.658 130.999 207.364 131.53C208.424 130.285 209.099 128.758 209.307 127.137C209.504 124.687 210.978 123.167 210.819 122.782C210.66 122.396 209.413 123.25 208.868 125.806C208.868 125.806 207.628 129.813 206.147 131.099C204.665 132.384 201.61 135.93 200.854 139.416C200.854 139.416 200.635 137.246 200.264 133.072C199.992 130.01 198.124 127.545 197.656 127.742C197.187 127.938 199.448 130.622 199.561 133.495C199.674 136.368 199.13 139.484 199.69 141.873C200.597 145.691 199.637 149.865 197.814 151.967C195.992 154.068 191.244 158.355 191.01 166.052C190.775 173.749 193.641 185.922 191.698 189.136Z" fill="#D8501C"/>
<g opacity="0.5">
<path d="M191.698 189.136H204.219C204.219 189.136 196.227 177.999 194.389 172.025C191.713 163.187 196.385 154.636 202.744 149.918C205.632 147.77 208.604 150.908 212.785 149.918C217.934 148.678 217.813 144.368 217.609 143.944C217.405 143.521 216.686 147.725 214.222 148.526C208.566 150.424 206.661 146.145 201.58 147.876C201.776 146.076 201.804 144.261 201.663 142.455C201.429 139.431 204.589 130.63 213.004 131.53C214.085 131.651 213.428 130.91 211.447 130.773C210.048 130.742 208.658 130.999 207.364 131.53C208.424 130.285 209.099 128.758 209.307 127.137C209.504 124.687 210.978 123.167 210.819 122.782C210.66 122.396 209.413 123.25 208.868 125.806C208.868 125.806 207.628 129.813 206.147 131.099C204.665 132.384 201.61 135.93 200.854 139.416C200.854 139.416 200.635 137.246 200.264 133.072C199.992 130.01 198.124 127.545 197.656 127.742C197.187 127.938 199.448 130.622 199.561 133.495C199.674 136.368 199.13 139.484 199.69 141.873C200.597 145.691 199.637 149.865 197.814 151.967C195.992 154.068 191.244 158.355 191.01 166.052C190.775 173.749 193.641 185.922 191.698 189.136Z" fill="black"/>
</g>
<path d="M199.252 146.514C199.252 146.514 190.647 147.897 187.026 139.217C187.026 139.233 195.713 138.605 199.252 146.514Z" fill="#07382F"/>
<path d="M198.73 148.526C197.731 150.003 196.267 151.103 194.571 151.651C192.874 152.199 191.043 152.163 189.37 151.55C189.37 151.55 193.014 146.794 198.73 148.526Z" fill="#07382F"/>
<path d="M225.298 153.062C223.563 153.467 221.742 153.28 220.125 152.53C218.508 151.781 217.189 150.512 216.377 148.926C216.377 148.926 222.297 147.883 225.298 153.062Z" fill="#07382F"/>
<path d="M207.16 128.481C205.407 128.156 203.813 127.253 202.632 125.917C201.451 124.581 200.751 122.889 200.642 121.109C200.642 121.109 206.487 122.531 207.16 128.481Z" fill="#07382F"/>
<path d="M186.156 165.945L186.768 173.234L188.651 195.455H208.815L210.69 173.234L211.31 165.945H186.156Z" fill="#455A64"/>
<path d="M186.156 165.945L186.768 173.234H210.69L211.31 165.945H186.156Z" fill="#263238"/>
<path d="M184.175 170.014H213.284V163.02H184.175V170.014Z" fill="#455A64"/>
<path d="M114.585 213.33H124.732C124.732 213.33 118.252 204.303 116.793 199.464C114.623 192.303 118.411 185.378 123.56 181.552C125.904 179.813 128.308 182.353 131.695 181.552C135.869 180.539 135.771 177.015 135.604 176.705C135.438 176.395 134.848 179.73 132.86 180.425C128.278 181.938 126.72 178.49 122.615 179.896C122.547 178.439 122.575 176.979 122.698 175.526C123.114 170.369 127.333 166.642 127.333 166.642C128.19 165.631 128.736 164.395 128.905 163.081C129.064 161.092 130.259 159.867 130.13 159.55C130.002 159.232 128.996 159.928 128.558 162.007C128.558 162.007 127.552 165.251 126.35 166.294C125.148 167.338 122.675 170.211 122.048 173.016C122.048 173.016 121.057 181.476 119.575 183.185C118.093 184.894 114.283 188.357 114.063 194.594C113.844 200.832 116.158 210.76 114.585 213.33Z" fill="#D8501C"/>
<g opacity="0.5">
<path d="M114.584 213.33H124.731C124.731 213.33 118.251 204.303 116.792 199.464C114.622 192.303 118.41 185.378 123.559 181.552C125.903 179.813 128.307 182.353 131.694 181.552C135.868 180.539 135.77 177.015 135.603 176.705C135.437 176.395 134.847 179.73 132.859 180.425C128.277 181.938 126.719 178.49 122.614 179.896C122.546 178.439 122.574 176.979 122.697 175.526C123.113 170.369 127.332 166.642 127.332 166.642C128.189 165.631 128.735 164.395 128.904 163.081C129.063 161.092 130.258 159.867 130.129 159.55C130.001 159.232 128.995 159.928 128.557 162.007C128.557 162.007 127.551 165.251 126.349 166.294C125.147 167.338 122.674 170.211 122.047 173.016C122.047 173.016 121.056 181.476 119.574 183.185C118.092 184.894 114.282 188.357 114.062 194.594C113.843 200.832 116.157 210.76 114.584 213.33Z" fill="black"/>
</g>
<path d="M120.906 175.616C119.12 175.56 117.405 174.907 116.034 173.761C114.663 172.615 113.716 171.043 113.345 169.295C113.345 169.295 119.356 169.832 120.906 175.616Z" fill="#07382F"/>
<path d="M144.079 172.501C143.445 174.166 142.272 175.572 140.748 176.495C139.223 177.418 137.434 177.806 135.664 177.597C135.664 177.597 138.099 172.07 144.079 172.501Z" fill="#07382F"/>
<path d="M129.253 159.685C127.659 158.886 126.378 157.576 125.615 155.964C124.852 154.353 124.65 152.532 125.042 150.793C125.042 150.793 130.259 153.78 129.253 159.685Z" fill="#07382F"/>
<path d="M106.555 192.047L107.167 199.336L109.05 221.557H129.207L131.09 199.336L131.702 192.047H106.555Z" fill="#455A64"/>
<path d="M106.555 192.047L107.167 199.336H131.09L131.702 192.047H106.555Z" fill="#263238"/>
<path d="M104.574 196.113H133.683V189.119H104.574V196.113Z" fill="#455A64"/>
<path d="M45.6602 230.259H53.6747C53.6747 230.259 48.556 223.122 47.3992 219.296C45.6904 213.64 49.3499 207.335 52.4574 205.361C54.4081 204.136 56.5024 205.777 59.179 205.127C62.4755 204.371 62.3999 201.573 62.2714 201.301C62.1428 201.029 61.6816 203.706 60.1014 204.235C56.4797 205.452 55.2473 202.723 52.0037 203.819C52.0037 203.819 52.1247 199.449 48.7525 197.43C48.1477 197.067 50.1437 199.146 50.673 201.604C50.9093 202.429 50.9342 203.301 50.7452 204.139C50.5563 204.976 50.1596 205.753 49.5918 206.397C48.435 207.758 45.388 210.488 45.2368 215.425C45.0855 220.362 46.9001 228.218 45.6602 230.259Z" fill="#D8501C"/>
<g opacity="0.5">
<path d="M45.6604 230.259H53.6749C53.6749 230.259 48.5562 223.122 47.3994 219.296C45.6907 213.64 49.3501 207.335 52.4576 205.361C54.4083 204.136 56.5027 205.777 59.1792 205.127C62.4757 204.371 62.4001 201.573 62.2716 201.301C62.1431 201.029 61.6819 203.706 60.1016 204.235C56.48 205.452 55.2476 202.723 52.004 203.819C52.004 203.819 52.1249 199.449 48.7528 197.43C48.1479 197.067 50.144 199.146 50.6732 201.604C50.9096 202.429 50.9344 203.301 50.7455 204.139C50.5566 204.976 50.1599 205.753 49.592 206.397C48.4352 207.758 45.3882 210.488 45.237 215.425C45.0858 220.362 46.9004 228.218 45.6604 230.259Z" fill="black"/>
</g>
<path d="M36.3224 218.244L36.9349 225.533L38.8175 247.754H58.9748L60.8574 225.533L61.4698 218.244H36.3224Z" fill="#455A64"/>
<path d="M36.3224 218.244L36.9349 225.533H60.8574L61.4698 218.244H36.3224Z" fill="#263238"/>
<path d="M34.3415 222.312H63.4507V215.319H34.3415V222.312Z" fill="#455A64"/>
<path d="M2.00391 304.702L41.6303 304.513L81.2492 304.453L160.502 304.324L239.755 304.445L279.381 304.513L319 304.702L279.381 304.884L239.755 304.952L160.502 305.08L81.2492 304.952L41.6303 304.884L2.00391 304.702Z" fill="#263238"/>
<path d="M170.656 39.1802C170.656 39.2558 170.77 39.2482 170.77 39.1802C170.876 35.6115 174.392 33.2374 174.278 29.6006C174.179 27.9949 173.626 26.4504 172.683 25.1473C172.059 24.3082 171.383 23.5101 170.656 22.758L170.369 22.3649C169.745 21.5505 169.193 20.6827 168.721 19.7715C168.239 18.6987 167.95 17.5496 167.867 16.3767C167.632 14.1084 167.557 11.8402 165.991 10.086C164.62 8.66026 162.849 7.68468 160.911 7.28852C156.631 6.24512 151.535 6.99365 148.7 10.6607C148.202 11.3084 147.805 12.0271 147.52 12.7928C145.979 13.989 144.848 15.6352 144.284 17.5032C143.619 20.0739 145.335 22.1758 145.176 23.4612C145.04 24.5878 144.345 25.5555 143.891 26.5687C143.402 27.4258 142.978 28.3179 142.621 29.2377C142.199 30.5303 142.165 31.918 142.523 33.2298C142.785 34.4335 143.338 35.5548 144.133 36.4961C144.932 37.3412 145.955 37.9417 147.082 38.2275C147.346 38.3107 147.619 38.3863 147.891 38.4544C148.828 38.9685 149.849 39.3541 150.749 39.9665C151.731 40.6247 152.439 41.6199 152.737 42.764C153.047 43.8226 153.153 44.9265 153.387 46.0001C153.594 47.0006 153.995 47.9509 154.567 48.7976C155.741 50.4533 157.429 51.6756 159.368 52.2756C161.632 52.941 164.027 53.0243 166.332 52.5175C167.361 52.3822 168.352 52.0348 169.241 51.4973C170.13 50.9599 170.897 50.244 171.496 49.3949C171.992 48.605 172.316 47.7192 172.446 46.7954C172.577 45.8716 172.51 44.9307 172.252 44.0343C171.848 42.9792 171.341 41.9663 170.74 41.0099C170.186 40.0377 169.951 38.9168 170.067 37.8041C170.581 34.1371 174.112 31.2715 173.197 27.3323C172.93 26.3314 172.495 25.383 171.912 24.5273C173.003 25.7981 173.718 27.3482 173.976 29.0033C174.112 30.7954 173.638 32.581 172.63 34.0691C171.715 35.6493 170.634 37.2824 170.656 39.1802ZM147.218 38.0763C145.67 37.6647 144.348 36.6559 143.543 35.2712C142.661 33.7198 142.31 31.922 142.545 30.1525C142.721 29.3167 143.014 28.5098 143.415 27.7558C143.413 27.7356 143.413 27.7154 143.415 27.6953C143.265 28.2345 143.163 28.7861 143.112 29.3435C142.977 31.1354 143.33 32.9305 144.133 34.5378C144.842 35.9794 145.919 37.208 147.256 38.099L147.218 38.0763Z" fill="#263238"/>
<path d="M155.376 40.0418C158.34 54.9669 165.886 68.0624 170.316 69.0831C176.667 70.5348 193.611 68.5992 201.316 66.3158C203.584 65.6429 198.012 48.1697 195.592 48.8578C192.674 49.7197 175.7 53.6816 175.397 53.674C174.739 53.674 164.54 40.1174 162.098 36.6092C157.614 30.1825 153.766 31.9215 155.376 40.0418Z" fill="#F7A9A0"/>
<path d="M210.804 63.503C207.583 65.4537 199.463 66.8751 197.354 66.4593C195.244 66.0434 192.386 52.2902 193.808 50.6268C195.229 48.9635 206.57 43.2097 210.404 43.7238C214.237 44.2379 214.131 61.4842 210.804 63.503Z" fill="#F7A9A0"/>
<path d="M248.556 51.4668L247.104 58.2035L252.812 61.6664L248.556 51.4668Z" fill="#07382F"/>
<path d="M232.64 62.5731L228.376 71.3588L248.775 59.2312L247.384 57.0234L232.64 62.5731Z" fill="#455A64"/>
<path d="M219.205 53.1067C219.205 53.1067 215.696 40.4271 212.294 39.671C208.892 38.9149 202.23 59.1402 208.514 65.4762C210.517 67.5177 214.517 66.7389 214.517 66.7389L219.205 53.1067ZM209.648 63.7977C204.771 58.868 209.769 41.9544 212.422 42.5366C215.076 43.1188 217.965 54.1652 217.965 54.1652L214.298 64.7504C214.298 64.7504 211.205 65.3779 209.648 63.7977Z" fill="#455A64"/>
<path d="M233.533 77.0974L211.017 72.8785L220.936 40.2383L235.355 43.0736L233.533 77.0974Z" fill="#07382F"/>
<path d="M220.936 40.2389L219.084 37.3809L237.585 40.6396L235.355 43.0742L220.936 40.2389Z" fill="#455A64"/>
<path d="M251.331 52.7065C251.331 52.7065 253.297 50.0829 253.939 51.1944C254.582 52.3058 251.331 52.7065 251.331 52.7065Z" fill="#455A64"/>
<path d="M251.988 56.8946C251.988 56.8946 254.362 54.6263 254.809 55.8512C255.255 57.0761 251.988 56.8946 251.988 56.8946Z" fill="#455A64"/>
<path d="M255.86 54.0672C255.86 54.0672 258.831 52.6987 258.884 53.9841C258.937 55.2694 255.86 54.0672 255.86 54.0672Z" fill="#455A64"/>
<path d="M257.523 57.3187C257.523 57.3187 260.6 56.1997 260.547 57.4926C260.494 58.7855 257.523 57.3187 257.523 57.3187Z" fill="#455A64"/>
<path d="M257.44 51.3005C257.44 51.3005 260.117 49.4103 260.389 50.6729C260.661 51.9356 257.44 51.3005 257.44 51.3005Z" fill="#455A64"/>
<path d="M261.137 53.9384C261.137 53.9384 264.268 52.963 264.162 54.2484C264.056 55.5337 261.137 53.9384 261.137 53.9384Z" fill="#455A64"/>
<path d="M253.501 61.3555C253.501 61.3555 256.744 61.8394 256.064 62.9357C255.384 64.032 253.501 61.3555 253.501 61.3555Z" fill="#455A64"/>
<path d="M260.396 66.8008C260.396 66.8008 262.869 68.9556 261.704 69.5151C260.54 70.0746 260.396 66.8008 260.396 66.8008Z" fill="#455A64"/>
<path d="M256.699 64.7441C256.699 64.7441 259.542 66.3773 258.506 67.1485C257.47 67.9197 256.699 64.7441 256.699 64.7441Z" fill="#455A64"/>
<path d="M254.665 59.5337C254.665 59.5337 257.894 59.0045 257.584 60.2898C257.274 61.5752 254.665 59.5337 254.665 59.5337Z" fill="#455A64"/>
<path d="M258.794 62.1504C258.794 62.1504 261.818 63.3299 260.948 64.2523C260.079 65.1747 258.794 62.1504 258.794 62.1504Z" fill="#455A64"/>
<path d="M204.355 44.139C203.433 45.9007 206.041 45.9763 206.041 45.9763C206.041 45.9763 202.261 46.7324 202.011 49.0006C201.762 51.2689 204.93 51.095 205.156 51.095C204.96 51.1403 201.505 51.9569 201.482 54.1874C201.459 56.4178 204.627 55.9339 204.831 55.8961C204.65 56.002 202.351 57.4083 202.722 59.0641C203.349 61.975 209.33 58.6331 211.621 59.3892C211.621 59.3892 210.789 63.4192 210.789 63.5401C210.789 63.5401 216.543 60.5158 217.382 57.3327C217.513 56.8775 217.483 56.3915 217.299 55.9554C217.115 55.5193 216.787 55.1595 216.369 54.9359C216.369 54.9359 218.335 54.1798 218.411 52.403C218.411 51.5033 217.035 50.6413 217.035 50.6413C217.471 50.4395 217.844 50.1208 218.111 49.7205C218.377 49.3202 218.528 48.8538 218.547 48.3731C218.547 47.1255 217.11 46.4677 217.11 46.4677C217.11 46.4677 218.29 45.1143 217.866 43.8441C217.004 41.2659 206.351 40.3586 204.355 44.139Z" fill="#F7A9A0"/>
<path d="M217.11 50.59C217.148 50.59 217.163 50.5296 217.11 50.5144C213.17 49.2159 208.895 49.3688 205.058 50.9454C204.929 51.0059 204.869 51.1949 205.058 51.1344C207.689 50.1893 213.7 50.0154 217.11 50.59Z" fill="#263238"/>
<path d="M204.612 56.0641C208.392 54.552 212.248 54.4159 216.24 54.8317C216.293 54.8317 216.301 54.7637 216.24 54.7486C214.342 53.9925 211.764 53.9925 209.761 54.1739C207.899 54.3004 206.101 54.9074 204.544 55.9356C204.498 55.9885 204.536 56.1095 204.612 56.0641Z" fill="#263238"/>
<path d="M206.057 45.9766C205.347 46.1985 204.658 46.4844 204 46.8309C203.346 47.1383 202.786 47.6131 202.374 48.207C202.202 48.4928 202.14 48.8315 202.201 49.1597C202.27 49.4866 202.421 49.7908 202.639 50.0443C202.877 50.279 203.161 50.4609 203.474 50.5781C203.786 50.6954 204.12 50.7454 204.454 50.7248H206.087L204.575 51.3221C203.894 51.5799 203.261 51.9477 202.7 52.4108C202.43 52.6118 202.205 52.8669 202.039 53.1599C201.874 53.4529 201.772 53.7772 201.739 54.112C201.712 54.4242 201.794 54.736 201.97 54.995C202.147 55.2539 202.407 55.4441 202.707 55.5335C203.38 55.7229 204.09 55.7385 204.771 55.5788L206.669 55.1932L205.013 56.1686C204.552 56.4442 204.125 56.7742 203.743 57.1515C203.37 57.499 203.107 57.9486 202.987 58.4444C202.942 58.669 202.962 58.9017 203.043 59.1157C203.125 59.3297 203.265 59.5163 203.448 59.6541C203.908 59.9142 204.434 60.0326 204.96 59.9944C206.081 59.9439 207.196 59.8049 208.295 59.5785C208.854 59.4878 209.414 59.3895 209.981 59.3215C210.543 59.2241 211.12 59.2447 211.674 59.382C211.116 59.3086 210.549 59.342 210.003 59.4802C209.451 59.5861 208.899 59.7222 208.347 59.8583C207.242 60.1649 206.111 60.3674 204.968 60.4632C204.35 60.5211 203.728 60.4004 203.176 60.1154C202.891 59.9262 202.668 59.658 202.534 59.3437C202.399 59.0293 202.36 58.6826 202.42 58.3461C202.554 57.7278 202.867 57.1625 203.32 56.7205C203.735 56.293 204.202 55.9195 204.711 55.6091L204.953 56.2064C204.15 56.4179 203.306 56.4179 202.503 56.2064C202.063 56.0673 201.684 55.7818 201.429 55.3974C201.195 55.0109 201.082 54.5633 201.104 54.112C201.145 53.6886 201.274 53.2786 201.484 52.9086C201.694 52.5386 201.979 52.217 202.321 51.9648C202.93 51.4582 203.617 51.0547 204.355 50.7701L204.469 51.3372C204.053 51.3479 203.64 51.2675 203.259 51.1016C202.877 50.9357 202.537 50.6884 202.261 50.377C202.008 50.0486 201.844 49.6606 201.785 49.2504C201.724 48.8322 201.821 48.4064 202.057 48.0558C202.527 47.4332 203.164 46.9562 203.894 46.6797C204.585 46.3625 205.311 46.1265 206.057 45.9766Z" fill="#263238"/>
<path d="M195.569 49.312C195.569 49.312 204.862 36.33 208.135 42.4543C209.118 44.2689 210.971 52.9034 209.239 53.3041C206.971 53.8258 205.565 50.3705 205.005 48.0569C205.005 48.0569 202.465 52.9185 198.556 52.1548C197.844 52.0023 197.189 51.6561 196.662 51.1544C196.135 50.6527 195.757 50.0151 195.569 49.312Z" fill="#F7A9A0"/>
<path d="M207.848 41.9551C208.314 42.6223 208.681 43.3531 208.937 44.125C209.218 44.8917 209.443 45.6775 209.61 46.4765C209.982 48.0683 210.21 49.6903 210.291 51.323C210.315 51.7572 210.277 52.1926 210.177 52.6159C210.116 52.8592 210.003 53.0863 209.845 53.2812C209.758 53.3868 209.656 53.4786 209.542 53.5534C209.423 53.6199 209.296 53.6708 209.164 53.7046C208.686 53.8045 208.188 53.7322 207.758 53.5005C207.367 53.2825 207.016 52.9986 206.722 52.6612C206.183 52.0094 205.758 51.2705 205.467 50.4762C205.156 49.7098 204.904 48.9212 204.711 48.1172L205.232 48.1701C204.926 48.7088 204.566 49.2153 204.159 49.6823C203.767 50.1653 203.326 50.6062 202.843 50.9979C202.351 51.3769 201.806 51.6825 201.225 51.9052C200.652 52.1287 200.041 52.2391 199.426 52.2303C200.025 52.1588 200.607 51.9875 201.15 51.7237C201.679 51.4593 202.17 51.1235 202.609 50.7257C203.054 50.3325 203.457 49.8941 203.811 49.4176C204.169 48.9451 204.481 48.4386 204.741 47.9055L205.066 47.2552L205.27 47.966C205.474 48.7374 205.726 49.4951 206.026 50.2342C206.313 50.9531 206.708 51.6238 207.198 52.2227C207.398 52.502 207.667 52.7253 207.978 52.8709C208.289 53.0166 208.632 53.0797 208.975 53.0544C209.519 52.9712 209.625 52.0866 209.625 51.3305C209.613 50.5345 209.56 49.7395 209.467 48.9489C209.391 48.1928 209.3 47.3535 209.164 46.5596C208.967 44.9658 208.523 43.4123 207.848 41.9551Z" fill="#263238"/>
<path d="M182.716 51.7682L183.94 70.2696C183.94 70.2696 171.752 71.9103 168.388 69.1203C165.023 66.3304 157.258 52.615 155.368 41.7576C153.478 30.9002 157.379 29.2444 163.738 38.4686C170.097 47.6929 175.17 53.356 175.472 53.3408C175.775 53.3257 182.716 51.7682 182.716 51.7682Z" fill="#D8501C"/>
<path d="M179.404 53.2502C179.404 53.2362 179.399 53.2227 179.389 53.2128C179.379 53.2028 179.365 53.1973 179.351 53.1973C179.337 53.1973 179.324 53.2028 179.314 53.2128C179.304 53.2227 179.298 53.2362 179.298 53.2502C179.289 58.6958 179.58 64.1377 180.168 69.5514C180.168 69.6119 180.274 69.6043 180.274 69.5514C180.279 64.1059 179.989 58.6642 179.404 53.2502Z" fill="#263238"/>
<path opacity="0.1" d="M173.938 70.6635C171.624 70.4972 169.523 70.0511 168.396 69.1514C165.031 66.3539 157.266 52.6536 155.369 41.7886C153.993 33.9405 155.656 30.901 159.081 33.3054L173.938 70.6635Z" fill="black"/>
<path d="M144.685 223.385C143.233 223.551 104.439 215.28 103.161 214.025C102.669 213.564 103.547 207.84 104.802 200.952C104.805 200.882 104.805 200.811 104.802 200.74C105.059 199.319 111.894 175.57 111.894 175.57L137.177 181.528L129.934 205.768L129.828 206.192C129.828 206.192 143.264 216.021 144.526 217.533C145.789 219.045 146.137 223.219 144.685 223.385Z" fill="#F7A9A0"/>
<path d="M104.189 204.377C103.282 209.67 102.753 213.639 103.161 214.025C104.439 215.287 143.233 223.551 144.693 223.385C146.152 223.219 145.774 219.068 144.526 217.548C143.77 216.618 138.478 212.618 134.455 209.624C137.147 211.802 141.018 217.011 124.414 211.681C114.169 208.384 107.765 205.889 104.189 204.377Z" fill="#263238"/>
<path d="M159.368 64.3809C159.368 64.3809 161.538 82.9201 157.712 87.1466C157.712 87.1466 151.822 129.17 149.395 141.471C146.197 157.697 133.283 199.047 133.283 199.047L105.617 192.356C105.617 192.356 123.098 139.679 123.234 138.621C123.99 132.618 128.527 90.9346 128.164 89.9063C123.453 76.6143 129.714 64.3809 129.714 64.3809H159.368Z" fill="#07382F"/>
<path d="M132.753 191.608C128.897 190.549 130.024 190.776 126.153 189.771C124.263 189.279 111.787 186.051 109.95 185.99C109.905 185.99 109.889 186.081 109.95 186.096C111.628 186.92 124.142 189.877 126.047 190.307C129.941 191.215 128.837 190.897 132.746 191.752C132.784 191.774 132.822 191.631 132.753 191.608Z" fill="#263238"/>
<path d="M129.789 187.033L138.167 157.546L140.239 150.167L141.252 146.469C141.602 145.25 141.874 144.01 142.068 142.757C142.824 137.706 143.46 132.633 144.125 127.567L148.2 97.1802L149.221 89.5815L149.743 85.8011C149.841 85.1584 149.909 84.546 150.022 83.8806C150.085 83.5793 150.123 83.2733 150.136 82.9658V82.0131C150.242 76.9095 150.211 71.7908 150.189 66.6797C150.302 71.7908 150.431 76.902 150.415 82.0131C150.415 82.3382 150.415 82.6558 150.415 82.9809C150.398 83.3105 150.36 83.6388 150.302 83.9638C150.204 84.5535 150.128 85.2189 150.037 85.8389L149.538 89.6193L148.563 97.218L144.677 127.635C143.981 132.701 143.301 137.759 142.522 142.817C142.322 144.095 142.039 145.358 141.675 146.598L140.639 150.295L138.522 157.659L134.213 172.373L129.789 187.033Z" fill="#263238"/>
<path d="M157.705 87.1315C157.705 87.1315 155.391 103.652 153.07 119L129.707 64.3809H159.368C159.368 64.3809 161.53 82.9049 157.705 87.1315Z" fill="#263238"/>
<path d="M205.112 195.463C203.728 195.917 164.056 195.607 162.559 194.632C161.985 194.276 166.249 159.035 166.249 159.035L191.593 160.124L187.117 181.627C187.117 181.627 202.239 188.538 203.751 189.778C205.263 191.018 206.488 195.01 205.112 195.463Z" fill="#F7A9A0"/>
<path d="M205.111 195.455C204.498 195.659 196.499 195.712 187.592 195.628H185.823L181.249 195.568L179.48 195.53L177.741 195.492L175.14 195.432L173.514 195.387L171.957 195.341C171.2 195.341 170.444 195.296 169.771 195.258L168.395 195.205C167.533 195.167 166.747 195.122 166.052 195.077C165.696 195.077 165.363 195.031 165.061 195.009C164.305 194.948 163.693 194.888 163.277 194.819C163.053 194.798 162.833 194.742 162.626 194.653C162.422 194.532 162.551 190.238 162.8 184.658C166.626 185.557 173.635 186.964 184.349 188.506C201.966 191.039 196.711 186.298 193.724 184.688L193.634 184.643L194.193 184.907L194.291 184.945L195.312 185.436L196.431 185.966C197.043 186.261 197.663 186.555 198.253 186.85C198.843 187.145 199.425 187.417 199.962 187.69L200.899 188.151L201.33 188.378L201.898 188.673C202.291 188.877 202.654 189.066 202.941 189.24C203.015 189.27 203.086 189.308 203.153 189.353C203.394 189.487 203.626 189.636 203.848 189.799C205.292 191.009 206.487 195.008 205.111 195.455Z" fill="#263238"/>
<path d="M190.428 171.744L163.874 172.069C163.874 172.069 170.452 123.907 169.764 121.623C169.499 120.731 137.252 91.516 137.252 91.516C125.699 80.1294 129.691 64.3574 129.691 64.3574H159.368C159.368 64.3574 159.768 68.9847 161.326 70.7388C170.248 80.7494 193.014 101.428 196.469 110.653C200.839 122.198 190.428 171.744 190.428 171.744Z" fill="#07382F"/>
<path d="M129.79 74.5801C129.881 76.3473 130.209 78.0944 130.765 79.7744C131.295 81.448 131.992 83.0641 132.845 84.5982C134.559 87.6715 136.68 90.4996 139.15 93.0059C141.57 95.569 144.209 97.928 146.832 100.302C148.148 101.492 149.474 102.666 150.809 103.825L154.809 107.326C153.372 106.29 151.974 105.194 150.567 104.113C149.161 103.032 147.815 101.845 146.447 100.748C143.74 98.4799 141.094 96.0756 138.606 93.52C136.11 90.9547 133.999 88.0413 132.338 84.8704C130.638 81.7087 129.762 78.1697 129.79 74.5801Z" fill="#263238"/>
<path d="M152.48 66.6484C152.419 67.7886 152.503 68.9318 152.73 70.0508C152.831 70.6067 153.015 71.1444 153.274 71.6462C153.599 72.1074 153.985 72.5383 154.355 72.9693C155.868 74.6781 157.38 76.3415 158.975 78.0124L168.32 88.023C171.446 91.3548 174.538 94.7143 177.598 98.1016C180.667 101.489 183.722 104.906 186.671 108.399C187.427 109.284 188.115 110.176 188.795 111.106C189.128 111.575 189.461 112.044 189.763 112.558C189.926 112.819 190.05 113.101 190.133 113.397C190.214 113.68 190.278 113.968 190.322 114.259C190.58 116.548 190.631 118.856 190.474 121.155C190.247 125.691 189.778 130.273 189.219 134.802C188.092 143.875 186.671 152.895 185.068 161.877C185.778 157.371 186.439 152.855 187.049 148.328C187.684 143.792 188.273 139.255 188.78 134.719C189.287 130.182 189.755 125.646 189.96 121.109C190.104 118.84 190.046 116.563 189.786 114.304C189.743 114.032 189.685 113.762 189.612 113.495C189.537 113.245 189.427 113.006 189.287 112.785C189.007 112.308 188.682 111.847 188.349 111.386C187.676 110.479 186.958 109.594 186.24 108.717C180.41 101.708 174.142 95.0319 168.033 88.3027L158.801 78.1863C157.289 76.4851 155.777 74.7839 154.265 73.0374C153.902 72.5988 153.509 72.1679 153.206 71.6915C152.947 71.1751 152.768 70.6217 152.677 70.0508C152.469 68.9294 152.403 67.7863 152.48 66.6484Z" fill="#263238"/>
<path d="M188.356 165.447C184.644 165.333 185.71 165.296 181.998 165.243C180.183 165.243 168.237 165.069 166.543 165.469C166.505 165.469 166.505 165.568 166.543 165.575C168.244 165.968 180.153 165.825 181.998 165.802C185.71 165.749 184.644 165.704 188.356 165.598C188.432 165.598 188.432 165.447 188.356 165.447Z" fill="#263238"/>
<path d="M161.016 59.6931L159.549 64.3808C159.549 64.3808 139.528 66.5054 129.789 64.3808C129.789 64.3808 136.662 40.5868 147.936 34.0089C153.561 30.7199 158.415 32.5874 160.592 36.761C161.144 37.8196 165.129 47.9738 165.129 52.2381C165.121 56.7595 161.016 59.6931 161.016 59.6931Z" fill="#D8501C"/>
<path d="M160.789 57.6137C159.462 57.4891 158.129 57.436 156.797 57.4549C156.124 57.4549 155.466 57.5229 154.801 57.591L153.848 57.7119C153.508 57.7573 153.16 57.848 152.812 57.8934C152.812 57.8934 152.812 57.9539 152.812 57.9463C153.137 57.9463 153.477 57.9463 153.803 57.9463H154.801L156.797 57.8783C158.127 57.8254 159.451 57.78 160.781 57.7649C160.864 57.7195 160.857 57.6212 160.789 57.6137Z" fill="#263238"/>
<path d="M146.892 34.7041C133.23 42.711 120.656 52.956 120.429 57.7949C120.165 64.3124 126.591 78.3075 130.599 85.2635C131.778 87.3125 147.497 77.8312 146.242 75.6386C144.73 72.9998 136.655 59.4508 136.587 59.1559C136.451 58.5132 147.021 43.6788 149.637 40.2008C154.052 34.3865 152.941 31.1505 146.892 34.7041Z" fill="#F7A9A0"/>
<path d="M157.781 95.2356C157.418 95.6791 156.927 96.0004 156.375 96.1559C155.823 96.3114 155.237 96.2937 154.696 96.1051C154.605 97.0746 154.177 97.9815 153.486 98.6682C152.216 99.8251 149.849 98.3356 149.849 98.3356C149.545 99.319 148.953 100.188 148.148 100.831C146.817 101.814 144.217 100.649 144.217 100.649C143.435 101.399 142.41 101.844 141.328 101.904C138.44 101.95 136.036 98.2297 134.523 95.8556C133.011 93.4815 130.788 85.4065 130.214 83.9019L145.192 73.8535C145.192 73.8535 155.119 82.4048 156.533 85.4216C157.72 87.9923 159.111 93.4891 157.781 95.2356Z" fill="#F7A9A0"/>
<path d="M154.87 95.8411C154.242 92.8168 152.76 90.1705 151.429 87.4335C151.429 87.373 151.301 87.4334 151.331 87.4864C152.685 90.1932 153.486 93.1343 154.734 95.8865C154.743 95.8992 154.756 95.9085 154.771 95.9133C154.787 95.918 154.803 95.9179 154.818 95.9128C154.833 95.9078 154.846 95.8982 154.855 95.8853C154.865 95.8725 154.87 95.857 154.87 95.8411Z" fill="#263238"/>
<path d="M150.015 98.1554C149.807 97.4848 149.512 96.8443 149.138 96.2501C148.775 95.5999 148.382 94.9572 148.026 94.3221C147.27 93.0367 146.514 91.7816 145.66 90.5416C145.622 90.4887 145.531 90.5416 145.569 90.587C146.325 91.8648 147.081 93.1501 147.754 94.4582C148.102 95.1084 148.45 95.7662 148.79 96.424C149.069 97.0682 149.419 97.6793 149.833 98.2461C149.849 98.2628 149.87 98.2739 149.892 98.2779C149.914 98.2819 149.938 98.2786 149.958 98.2684C149.978 98.2582 149.995 98.2417 150.005 98.2214C150.015 98.201 150.019 98.1779 150.015 98.1554Z" fill="#263238"/>
<path d="M144.186 100.596C143.987 99.9937 143.688 99.4288 143.301 98.9255C142.946 98.3509 142.59 97.7763 142.242 97.1941C141.539 96.0373 140.836 94.8805 140.171 93.6934C140.171 93.6329 140.05 93.6934 140.08 93.7388C140.745 94.9485 141.396 96.1583 142.068 97.3604L143.112 99.1599C143.374 99.7216 143.732 100.233 144.17 100.672C144.17 100.672 144.193 100.627 144.186 100.596Z" fill="#263238"/>
<path d="M140.912 65.8919L123.243 73.3318C123.243 73.3318 119.046 60.5842 120.596 56.4862C122.146 52.3882 134.682 40.9864 144.322 35.6485C153.962 30.3105 155.149 33.5919 148.511 42.612C141.872 51.6321 137.17 58.7922 137.313 59.072C137.457 59.3517 140.912 65.8919 140.912 65.8919Z" fill="#D8501C"/>
<path d="M138.099 62.521C138.152 62.521 138.099 62.4001 138.054 62.4228C132.917 64.2376 127.884 66.3325 122.977 68.6983C122.925 68.6983 122.977 68.8117 123.023 68.7965C128.158 66.9785 133.191 64.8836 138.099 62.521Z" fill="#263238"/>
<path d="M140.912 65.8923C140.254 64.7884 139.619 63.677 138.984 62.5655L137.101 59.2085L137.063 59.0875L137.146 58.9665L139.77 55.0273C140.647 53.7118 141.554 52.4188 142.446 51.1184C143.339 49.8179 144.253 48.525 145.168 47.2472C146.083 45.9694 147.021 44.6841 147.966 43.4668C147.142 44.8126 146.31 46.1585 145.456 47.4816C144.601 48.8048 143.747 50.1355 142.862 51.4435C141.978 52.7515 141.131 54.0747 140.231 55.3751L137.547 59.269V59.027L139.271 62.4597C139.808 63.556 140.375 64.7128 140.912 65.8923Z" fill="#263238"/>
<path d="M145.381 47.2186C145.717 46.7393 146.105 46.2981 146.538 45.903C146.963 45.5008 147.421 45.1342 147.906 44.8066C147.768 45.0779 147.598 45.3317 147.399 45.5627C147.212 45.7853 147.013 45.9973 146.802 46.1978C146.372 46.5949 145.894 46.9377 145.381 47.2186Z" fill="#263238"/>
<path d="M153.055 33.2003C153.131 33.8657 155.701 38.4324 158.665 38.6517C159.633 38.7197 160.253 33.465 160.253 33.465L160.389 33.0869L162.264 27.7943L156.382 22.9176L155.52 22.2598C155.52 22.2598 155.104 23.7719 154.597 25.5941L154.529 25.8587C154.529 25.9646 154.469 26.0553 154.439 26.1536L154.212 26.9929C154.151 27.2121 154.098 27.4163 154.045 27.6431L153.887 28.3236C153.502 29.9289 153.224 31.5581 153.055 33.2003Z" fill="#F7A9A0"/>
<path d="M154.598 25.5941C154.966 27.1866 155.674 28.6807 156.674 29.9739C157.673 31.2672 158.941 32.3291 160.389 33.0869L162.264 27.7943L156.382 22.9176L155.52 22.2598C155.52 22.2598 155.104 23.7417 154.598 25.5941Z" fill="#263238"/>
<path d="M170.445 18.4248C171.957 28.1556 166.302 30.1668 164.2 30.5222C162.294 30.817 155.769 31.5731 153.252 22.054C150.734 12.5349 154.764 8.74691 159.104 7.83961C163.444 6.93231 168.925 8.68642 170.445 18.4248Z" fill="#F7A9A0"/>
<path d="M168.237 15.9908C168.002 15.9908 167.783 15.9908 167.556 15.9908C167.314 16.0073 167.073 15.9464 166.868 15.8169C166.812 15.7633 166.776 15.693 166.763 15.6166C166.751 15.5401 166.764 15.4618 166.8 15.3934C166.895 15.2714 167.021 15.1765 167.164 15.1181C167.307 15.0597 167.464 15.04 167.617 15.0608C167.934 15.0589 168.242 15.1747 168.479 15.3859C168.521 15.4372 168.549 15.4991 168.56 15.565C168.57 15.6309 168.563 15.6984 168.538 15.7604C168.513 15.8223 168.472 15.8764 168.419 15.917C168.366 15.9575 168.303 15.983 168.237 15.9908Z" fill="#263238"/>
<path d="M161.946 17.8589C162.173 17.8528 162.401 17.8352 162.626 17.806C162.867 17.8237 163.107 17.7598 163.307 17.6245C163.362 17.5701 163.397 17.4993 163.408 17.4229C163.419 17.3465 163.405 17.2687 163.367 17.2011C163.271 17.0787 163.144 16.9846 162.999 16.9287C162.854 16.8728 162.696 16.8572 162.543 16.8835C162.226 16.8877 161.922 17.0089 161.689 17.2238C161.64 17.2764 161.607 17.342 161.594 17.4127C161.581 17.4835 161.588 17.5565 161.615 17.6232C161.642 17.6899 161.688 17.7475 161.746 17.7892C161.805 17.831 161.874 17.8551 161.946 17.8589Z" fill="#263238"/>
<path d="M163.716 19.8086C163.716 19.8086 163.67 19.854 163.678 19.8766C163.814 20.5344 163.867 21.3056 163.307 21.6383C164.033 21.4342 163.95 20.4059 163.716 19.8086Z" fill="#263238"/>
<path d="M163.005 19.2274C161.923 19.3408 162.249 21.4957 163.224 21.3823C164.199 21.2689 163.904 19.1367 163.005 19.2274Z" fill="#263238"/>
<path d="M162.596 19.401C162.423 19.5447 162.271 19.7866 162.052 19.8395C161.833 19.8925 161.561 19.711 161.364 19.5144C161.417 19.9303 161.636 20.3234 162.082 20.3234C162.528 20.3234 162.733 19.9227 162.778 19.4917C162.77 19.4464 162.664 19.3405 162.596 19.401Z" fill="#263238"/>
<path d="M167.307 19.0684C167.307 19.0684 167.36 19.0684 167.36 19.1137C167.428 19.7866 167.617 20.5352 168.252 20.6788C167.533 20.7091 167.307 19.711 167.307 19.0684Z" fill="#263238"/>
<path d="M167.836 18.2599C168.895 18.0407 169.265 20.1728 168.282 20.377C167.3 20.5811 166.944 18.4792 167.836 18.2599Z" fill="#263238"/>
<path d="M168.305 18.3574C168.494 18.4405 168.698 18.6144 168.894 18.5918C169.091 18.5691 169.265 18.3044 169.378 18.0625C169.378 18.0625 169.378 18.0625 169.416 18.0625C169.499 18.4708 169.416 18.9169 169.053 19.0605C168.69 19.2042 168.388 18.8942 168.221 18.501C168.191 18.4481 168.229 18.3196 168.305 18.3574Z" fill="#263238"/>
<path d="M164.486 25.0648C164.66 25.2009 164.834 25.405 165.084 25.405C165.332 25.3727 165.571 25.2904 165.787 25.1631C165.787 25.1631 165.824 25.1631 165.787 25.1631C165.703 25.3028 165.582 25.4173 165.439 25.4945C165.295 25.5716 165.133 25.6086 164.97 25.6016C164.833 25.5747 164.706 25.5103 164.603 25.4155C164.5 25.3207 164.426 25.1993 164.388 25.0648C164.388 25.0517 164.393 25.0392 164.402 25.03C164.412 25.0208 164.424 25.0156 164.437 25.0156C164.45 25.0156 164.463 25.0208 164.472 25.03C164.481 25.0392 164.486 25.0517 164.486 25.0648Z" fill="#263238"/>
<path d="M166.891 22.2373C166.891 22.2373 167.178 23.2051 167.246 23.6738C167.246 23.7192 167.148 23.757 166.989 23.7872C166.601 23.9162 166.186 23.9379 165.786 23.8501C165.387 23.7622 165.019 23.5681 164.721 23.2882C164.683 23.2504 164.721 23.1899 164.782 23.2126C165.439 23.5307 166.182 23.6263 166.899 23.4848C166.899 23.3487 166.354 21.8441 166.422 21.829C166.792 21.8033 167.163 21.8288 167.526 21.9046C166.982 19.8707 166.12 17.9351 165.606 15.9013C165.606 15.8257 165.696 15.7879 165.727 15.8483C166.716 17.8922 167.499 20.03 168.063 22.2297C168.101 22.4868 167.088 22.2826 166.891 22.2373Z" fill="#263238"/>
<path d="M153.259 22.7967C154.937 22.7363 154.93 19.1978 154.93 19.1978C154.93 19.1978 158.317 18.8273 158.876 13.8371C158.948 15.3056 158.585 16.7627 157.833 18.0258C157.833 18.0258 163.73 16.7178 165.681 11.4403C165.681 11.4403 164.925 14.1018 164.131 15.1074C165.592 14.4764 166.794 13.3671 167.541 11.962C167.541 11.962 168.917 14.7217 169.809 15.4249C169.809 15.4249 168.38 5.01362 158.831 7.22138C158.831 7.22138 152.82 8.30259 151.187 13.3457C149.554 18.3888 153.259 22.7967 153.259 22.7967Z" fill="#263238"/>
<path d="M155.21 22.372C155.21 22.372 152.994 19.3477 151.618 20.1038C150.242 20.8599 151.943 25.3208 153.592 25.8954C153.798 25.9835 154.02 26.029 154.245 26.0294C154.469 26.0297 154.692 25.9847 154.898 25.8972C155.105 25.8097 155.292 25.6814 155.448 25.52C155.604 25.3586 155.726 25.1674 155.807 24.9578L155.21 22.372Z" fill="#F7A9A0"/>
<path d="M152.185 21.3965C152.185 21.3965 152.185 21.3965 152.185 21.4418C152.725 21.6869 153.207 22.0443 153.598 22.4902C153.989 22.9361 154.28 23.4602 154.453 24.0277C154.384 23.9145 154.291 23.8176 154.181 23.7438C154.071 23.67 153.947 23.621 153.816 23.6001C153.685 23.5792 153.551 23.5871 153.423 23.623C153.296 23.659 153.178 23.7222 153.077 23.8084C153.077 23.8084 153.077 23.8764 153.077 23.8689C153.277 23.7998 153.494 23.7948 153.697 23.8544C153.9 23.914 154.08 24.0353 154.211 24.2016C154.427 24.482 154.615 24.7834 154.771 25.1013C154.824 25.2072 155.013 25.1467 154.967 25.0257C154.914 23.5513 153.735 21.5099 152.185 21.3965Z" fill="#263238"/>
<path d="M160.253 33.5538L158.022 37.6971L153.251 31.6484L151.527 33.2362C151.527 33.2362 155.822 42.5361 155.898 42.1505L158.105 38.612L160.374 41.5002L160.903 34.9525L160.253 33.5538Z" fill="white"/>
<path d="M160.835 38.2424C160.88 37.1536 160.963 36.0649 160.963 34.9837C160.963 34.9459 160.903 34.9156 160.895 34.9837C160.562 36.0044 160.388 40.1477 160.275 41.1307C160.177 41.0021 158.135 38.5751 158.113 38.6053C157.659 39.1573 156.041 41.728 155.928 41.9699C155.247 40.4577 152.616 35.0971 151.777 33.653C151.777 33.6076 151.694 33.653 151.709 33.653C152.283 35.1651 155.746 42.4462 155.814 42.4311C156.65 41.2118 157.422 39.95 158.128 38.6507C158.851 39.7288 159.649 40.7546 160.517 41.7204C160.681 40.5671 160.787 39.4063 160.835 38.2424Z" fill="#263238"/>
</svg>
