<svg width="363" height="284" viewBox="0 0 363 284" fill="none" xmlns="http://www.w3.org/2000/svg">
<path d="M351.034 186.844H347.217H174.415H170.598V194.497H174.415V272.279H347.217V194.497H351.034V186.844Z" fill="#D8501C"/>
<path opacity="0.5" d="M351.034 186.844H347.217H174.415H170.598V194.497H174.415V272.279H347.217V194.497H351.034V186.844Z" fill="white"/>
<path d="M179.044 227.463H226.171V202.303H179.044V227.463ZM180.001 203.232H225.214V226.561H180.001V203.232Z" fill="white"/>
<path d="M237.569 227.463H284.704V202.303H237.569V227.463ZM238.543 203.259H283.765V226.561H238.543V203.259Z" fill="white"/>
<path d="M296.102 202.303V227.463H343.228V202.303H296.102ZM342.271 226.561H297.058V203.259H342.271V226.561Z" fill="white"/>
<path d="M179.044 261.287H226.171V236.1H179.044V261.287ZM180.001 237.056H225.214V260.331H180.001V237.056Z" fill="white"/>
<path d="M237.569 261.287H284.704V236.1H237.569V261.287ZM238.543 237.056H283.765V260.331H238.543V237.056Z" fill="white"/>
<path d="M296.102 261.287H343.228V236.1H296.102V261.287ZM297.058 237.056H342.271V260.331H297.058V237.056Z" fill="white"/>
<path d="M203.113 218.087C207.34 218.087 210.766 216.802 210.766 215.217C210.766 213.633 207.34 212.348 203.113 212.348C198.887 212.348 195.461 213.633 195.461 215.217C195.461 216.802 198.887 218.087 203.113 218.087Z" fill="white"/>
<path d="M261.358 218.087C265.584 218.087 269.011 216.802 269.011 215.217C269.011 213.633 265.584 212.348 261.358 212.348C257.131 212.348 253.705 213.633 253.705 215.217C253.705 216.802 257.131 218.087 261.358 218.087Z" fill="white"/>
<path d="M321.29 218.087C325.516 218.087 328.943 216.802 328.943 215.217C328.943 213.633 325.516 212.348 321.29 212.348C317.063 212.348 313.637 213.633 313.637 215.217C313.637 216.802 317.063 218.087 321.29 218.087Z" fill="white"/>
<path d="M203.113 246.145C198.89 246.145 195.461 247.426 195.461 249.014C195.461 250.603 198.89 251.875 203.113 251.875C207.337 251.875 210.766 250.594 210.766 249.014C210.766 247.435 207.337 246.145 203.113 246.145Z" fill="white"/>
<path d="M261.358 246.145C257.134 246.145 253.705 247.426 253.705 249.014C253.705 250.603 257.134 251.875 261.358 251.875C265.581 251.875 269.011 250.594 269.011 249.014C269.011 247.435 265.617 246.145 261.358 246.145Z" fill="white"/>
<path d="M321.29 246.145C317.067 246.145 313.646 247.426 313.646 249.014C313.646 250.603 317.067 251.875 321.29 251.875C325.514 251.875 328.943 250.594 328.943 249.014C328.943 247.435 325.523 246.145 321.29 246.145Z" fill="white"/>
<path d="M60.3544 10.207V101.716H129.843V10.207H60.3544ZM125.024 95.3355H65.2096V16.5964H125.024V95.3355Z" fill="#D8501C"/>
<path opacity="0.5" d="M60.3544 10.207V101.716H129.843V10.207H60.3544ZM125.024 95.3355H65.2096V16.5964H125.024V95.3355Z" fill="white"/>
<path d="M303.521 54.8516V122.427H354.852V54.8516H303.521ZM351.269 117.708H307.13V59.6075H351.296L351.269 117.708Z" fill="#D8501C"/>
<path opacity="0.5" d="M303.521 54.8516V122.427H354.852V54.8516H303.521ZM351.269 117.708H307.13V59.6075H351.296L351.269 117.708Z" fill="white"/>
<path d="M10.0243 282.35C12.6143 273.578 39.4443 182.394 39.3541 181.708C39.2638 181.022 41.547 168.776 46.8895 158.569C52.2321 148.362 59.6503 136.991 60.5798 135.602C61.9944 133.337 62.9396 130.811 63.3593 128.174C64.0542 124.465 71.4814 114.25 73.8007 111.47C76.12 108.69 83.078 94.0706 83.5472 91.7513C84.0165 89.432 86.7871 87.573 90.5052 86.8781C94.2233 86.1832 99.3221 85.4883 99.3221 85.4883C100.266 86.5988 100.834 87.9791 100.947 89.432C100.947 91.5167 92.5898 141.395 92.1296 149.752C91.6693 158.109 92.8245 162.738 89.1154 171.33C85.4063 179.921 74.4956 185.246 69.1621 188.729C63.8286 192.213 64.2347 192.934 64.2347 192.934C64.2347 192.934 67.2489 276.439 67.1767 282.999" fill="white"/>
<mask id="mask0_1688_1106" style="mask-type:luminance" maskUnits="userSpaceOnUse" x="10" y="85" width="91" height="198">
<path d="M10.0236 282.35C12.6137 273.578 39.4436 182.394 39.3534 181.708C39.2631 181.022 41.5463 168.776 46.8889 158.569C52.2314 148.362 59.6496 136.991 60.5791 135.602C61.9937 133.337 62.9389 130.811 63.3587 128.174C64.0536 124.465 71.4808 114.25 73.8001 111.47C76.1194 108.69 83.0773 94.0706 83.5466 91.7513C84.0159 89.432 86.7864 87.573 90.5045 86.8781C94.2226 86.1832 99.3215 85.4883 99.3215 85.4883C100.265 86.5988 100.834 87.9791 100.946 89.432C100.946 91.5167 92.5892 141.395 92.1289 149.752C91.6687 158.109 92.8238 162.738 89.1147 171.33C85.4056 179.921 74.495 185.246 69.1614 188.729C63.8279 192.213 64.2341 192.934 64.2341 192.934C64.2341 192.934 67.2482 276.439 67.1761 282.999" fill="white"/>
</mask>
<g mask="url(#mask0_1688_1106)">
<g style="mix-blend-mode:multiply" opacity="0.7">
<path d="M104.339 140.205C103.374 135.882 97.1195 138.283 97.1195 138.283C92.8607 142.905 87.6176 146.51 81.7778 148.833C72.003 152.529 62.557 157.042 53.54 162.324C54.5688 160.258 55.6879 158.173 56.8971 156.007C63.1331 144.979 74.1611 130.116 80.361 128.193C84.1874 127.02 88.0047 129.448 90.3872 131.505L90.658 86.834H90.5045C86.7864 87.5289 84.0069 89.3879 83.5466 91.7072C83.0864 94.0266 76.1194 108.637 73.8001 111.426C71.4808 114.214 64.0536 124.421 63.3587 128.13C62.9389 130.767 61.9937 133.293 60.5792 135.558C59.6767 136.947 52.2224 148.309 46.8889 158.525C41.5554 168.741 39.2632 180.969 39.3534 181.664C39.4166 182.169 29.0925 219.567 22.5317 243.103C27.9464 232.454 36.3663 215.226 41.4832 202.493C43.4957 202.294 47.3943 196.843 50.6251 192.403C54.4605 187.133 60.2091 185.689 71.7245 177.061C83.2398 168.434 96.172 156.44 98.0942 151.648C100.016 146.856 105.296 144.519 104.339 140.205Z" fill="#D8501C"/>
</g>
</g>
<path d="M10.0243 282.35C12.6143 273.578 39.4443 182.394 39.3541 181.708C39.2638 181.022 41.547 168.776 46.8895 158.569C52.2321 148.362 59.6503 136.991 60.5798 135.602C61.9944 133.337 62.9396 130.811 63.3593 128.174C64.0542 124.465 71.4814 114.25 73.8007 111.47C76.12 108.69 83.078 94.0706 83.5472 91.7513C84.0165 89.432 86.7871 87.573 90.5052 86.8781C94.2233 86.1832 99.3221 85.4883 99.3221 85.4883C100.266 86.5988 100.834 87.9791 100.947 89.432C100.947 91.5167 92.5898 141.395 92.1296 149.752C91.6693 158.109 92.8245 162.738 89.1154 171.33C85.4063 179.921 74.4956 185.246 69.1621 188.729C63.8286 192.213 64.2347 192.934 64.2347 192.934C64.2347 192.934 67.2489 276.439 67.1767 282.999" stroke="#07382F" stroke-linecap="round" stroke-linejoin="round"/>
<path d="M90.0361 142.324C90.0361 142.324 87.4912 142.09 84.9373 137.451" stroke="#07382F" stroke-linecap="round" stroke-linejoin="round"/>
<path d="M87.2569 112.4C87.2569 112.4 94.4765 113.79 95.379 119.819" stroke="#07382F" stroke-linecap="round" stroke-linejoin="round"/>
<path d="M89.5756 93.6016C91.1725 94.8166 92.4942 96.3559 93.4539 98.1181C94.4135 99.8804 94.9895 101.826 95.1438 103.826" stroke="#07382F" stroke-linecap="round" stroke-linejoin="round"/>
<path d="M323.51 142.343L322.941 45.9881C322.939 43.1798 321.822 40.4873 319.835 38.5023C317.848 36.5174 315.155 35.4023 312.346 35.4023H101.488C98.6804 35.4023 95.9879 36.5176 94.0027 38.5029C92.0174 40.4881 90.9022 43.1806 90.9022 45.9881L90.3246 142.343C90.3234 143.748 90.5992 145.139 91.1362 146.437C91.6732 147.735 92.4609 148.914 93.4542 149.908C94.4474 150.901 95.6268 151.689 96.9248 152.226C98.2228 152.763 99.614 153.038 101.019 153.037H312.816C314.22 153.038 315.612 152.763 316.91 152.226C318.208 151.689 319.387 150.901 320.38 149.908C321.373 148.914 322.161 147.735 322.698 146.437C323.235 145.139 323.511 143.748 323.51 142.343Z" fill="#07382F" stroke="#07382F" stroke-width="0.868674" stroke-linecap="round" stroke-linejoin="round"/>
<path d="M311.66 147.803L311.2 40.582H102.634L102.183 147.803H311.66Z" fill="white" stroke="#07382F" stroke-width="0.651505" stroke-linecap="round" stroke-linejoin="round"/>
<path d="M311.201 40.582H102.634L102.616 45.9336H122.651L127.777 53.2615H311.255L311.201 40.582Z" fill="#D8501C" stroke="#07382F" stroke-linecap="round" stroke-linejoin="round"/>
<g style="mix-blend-mode:multiply" opacity="0.5">
<path d="M311.201 61.916L164.597 147.803H311.661L311.201 61.916Z" fill="#D8501C"/>
</g>
<path d="M318.649 94.1628C318.661 93.2707 317.947 92.5382 317.055 92.5267C316.163 92.5152 315.43 93.229 315.419 94.1211C315.407 95.0132 316.121 95.7457 317.013 95.7572C317.905 95.7687 318.638 95.0549 318.649 94.1628Z" fill="white"/>
<path d="M118.698 79.7574C123.468 79.7574 127.335 75.8907 127.335 71.1209C127.335 66.3511 123.468 62.4844 118.698 62.4844C113.928 62.4844 110.062 66.3511 110.062 71.1209C110.062 75.8907 113.928 79.7574 118.698 79.7574Z" fill="#D8501C" stroke="#07382F" stroke-linecap="round" stroke-linejoin="round"/>
<path d="M118.698 115.269C123.468 115.269 127.335 111.402 127.335 106.633C127.335 101.863 123.468 97.9961 118.698 97.9961C113.928 97.9961 110.062 101.863 110.062 106.633C110.062 111.402 113.928 115.269 118.698 115.269Z" fill="white" stroke="#07382F" stroke-linecap="round" stroke-linejoin="round"/>
<path d="M177.719 79.7574C182.489 79.7574 186.356 75.8907 186.356 71.1209C186.356 66.3511 182.489 62.4844 177.719 62.4844C172.949 62.4844 169.083 66.3511 169.083 71.1209C169.083 75.8907 172.949 79.7574 177.719 79.7574Z" fill="white" stroke="#07382F" stroke-linecap="round" stroke-linejoin="round"/>
<path d="M177.719 115.269C182.489 115.269 186.356 111.402 186.356 106.633C186.356 101.863 182.489 97.9961 177.719 97.9961C172.949 97.9961 169.083 101.863 169.083 106.633C169.083 111.402 172.949 115.269 177.719 115.269Z" fill="#D8501C" stroke="#07382F" stroke-linecap="round" stroke-linejoin="round"/>
<path d="M236.748 79.7574C241.518 79.7574 245.385 75.8907 245.385 71.1209C245.385 66.3511 241.518 62.4844 236.748 62.4844C231.979 62.4844 228.112 66.3511 228.112 71.1209C228.112 75.8907 231.979 79.7574 236.748 79.7574Z" fill="#D8501C" stroke="#07382F" stroke-linecap="round" stroke-linejoin="round"/>
<path d="M236.748 115.269C241.518 115.269 245.385 111.402 245.385 106.633C245.385 101.863 241.518 97.9961 236.748 97.9961C231.979 97.9961 228.112 101.863 228.112 106.633C228.112 111.402 231.979 115.269 236.748 115.269Z" fill="#D8501C" stroke="#07382F" stroke-width="2" stroke-linecap="round" stroke-linejoin="round"/>
<path d="M295.768 79.7574C300.538 79.7574 304.405 75.8907 304.405 71.1209C304.405 66.3511 300.538 62.4844 295.768 62.4844C290.999 62.4844 287.132 66.3511 287.132 71.1209C287.132 75.8907 290.999 79.7574 295.768 79.7574Z" fill="#D8501C" stroke="#07382F" stroke-linecap="round" stroke-linejoin="round"/>
<path d="M295.768 115.269C300.538 115.269 304.405 111.402 304.405 106.633C304.405 101.863 300.538 97.9961 295.768 97.9961C290.999 97.9961 287.132 101.863 287.132 106.633C287.132 111.402 290.999 115.269 295.768 115.269Z" fill="white" stroke="#07382F" stroke-linecap="round" stroke-linejoin="round"/>
<path d="M133.706 82.8164H161.998" stroke="#07382F" stroke-linecap="round" stroke-linejoin="round"/>
<path d="M133.706 89.3418H161.998" stroke="#07382F" stroke-linecap="round" stroke-linejoin="round"/>
<path d="M133.706 95.875H161.998" stroke="#07382F" stroke-linecap="round" stroke-linejoin="round"/>
<path d="M191.924 82.8164H220.216" stroke="#07382F" stroke-linecap="round" stroke-linejoin="round"/>
<path d="M191.924 89.3418H220.216" stroke="#07382F" stroke-linecap="round" stroke-linejoin="round"/>
<path d="M191.924 95.875H220.216" stroke="#07382F" stroke-linecap="round" stroke-linejoin="round"/>
<path d="M253.95 82.8164H282.241" stroke="#07382F" stroke-linecap="round" stroke-linejoin="round"/>
<path d="M253.95 89.3418H282.241" stroke="#07382F" stroke-linecap="round" stroke-linejoin="round"/>
<path d="M253.95 95.875H282.241" stroke="#07382F" stroke-linecap="round" stroke-linejoin="round"/>
<path d="M133.706 119.764H161.998" stroke="#07382F" stroke-linecap="round" stroke-linejoin="round"/>
<path d="M133.706 126.297H161.998" stroke="#07382F" stroke-linecap="round" stroke-linejoin="round"/>
<path d="M133.706 132.822H161.998" stroke="#07382F" stroke-linecap="round" stroke-linejoin="round"/>
<path d="M191.924 119.764H220.216" stroke="#07382F" stroke-linecap="round" stroke-linejoin="round"/>
<path d="M191.924 126.297H220.216" stroke="#07382F" stroke-linecap="round" stroke-linejoin="round"/>
<path d="M191.924 132.822H220.216" stroke="#07382F" stroke-linecap="round" stroke-linejoin="round"/>
<path d="M253.95 119.764H282.241" stroke="#07382F" stroke-linecap="round" stroke-linejoin="round"/>
<path d="M253.95 126.297H282.241" stroke="#07382F" stroke-linecap="round" stroke-linejoin="round"/>
<path d="M253.95 132.822H282.241" stroke="#07382F" stroke-linecap="round" stroke-linejoin="round"/>
<path d="M219.709 107.076H225.07" stroke="#07382F" stroke-linecap="round" stroke-linejoin="round"/>
<path d="M237.317 96.3622V89.666" stroke="#07382F" stroke-linecap="round" stroke-linejoin="round"/>
<path d="M225.45 97.1289L228.897 99.8092" stroke="#07382F" stroke-linecap="round" stroke-linejoin="round"/>
<path d="M229.664 113.961L225.45 116.262" stroke="#07382F" stroke-linecap="round" stroke-linejoin="round"/>
<path d="M255.302 107.076H249.941" stroke="#07382F" stroke-linecap="round" stroke-linejoin="round"/>
<path d="M249.555 97.1289L246.116 99.8092" stroke="#07382F" stroke-linecap="round" stroke-linejoin="round"/>
<path d="M233.147 124.816L237.66 140.934" stroke="#07382F" stroke-linecap="round" stroke-linejoin="round"/>
<path d="M228.626 122.877L231.207 131.261" stroke="#07382F" stroke-linecap="round" stroke-linejoin="round"/>
<path d="M339.835 276.375C339.835 276.375 318.402 236.847 315.352 229.916C312.302 222.986 310 212.066 309.251 209.07C308.168 205.554 308.068 201.809 308.963 198.24C310.091 193.186 309.423 178.765 309.928 175.453C310.434 172.141 308.385 161.781 307.221 155.978C306.057 150.175 303.421 146.051 299.866 145.6C298.832 145.476 297.783 145.61 296.813 145.989C295.843 146.369 294.982 146.982 294.307 147.775C294.307 147.775 292.827 135.42 291.392 132.857C289.957 130.294 285.282 130.664 282.782 131.278C280.282 131.892 279.082 139.888 279.082 139.888C279.082 139.888 276.916 132.208 276.853 128.778C276.79 125.349 272.621 122.398 269.372 123.21C266.123 124.022 264.372 125.511 263.488 132.623C262.603 139.734 264.273 150.735 264.273 150.735L262.585 151.421C262.585 151.421 256.503 130.123 254.572 124.501C252.64 118.878 250.781 112.444 249.482 108.256C248.182 104.069 246.251 97.427 240.935 98.4468C235.62 99.4666 236.929 111.081 236.929 111.081C236.929 111.081 245.24 146.674 245.673 149.481C246.107 152.287 247.478 162.034 247.208 165.283C246.937 168.531 246.946 177.014 246.946 177.014L239.031 167.575C238.056 165.021 236.826 162.572 235.358 160.265C232.651 155.897 226.632 151.827 222.724 153.045C218.816 154.264 221.903 158.289 223.518 160.536C225.134 162.783 226.442 169.091 226.442 172.268C226.442 175.444 229.149 177.682 232.416 183.512C235.683 189.342 252.081 209.485 254.563 213.113C256.4 215.55 258.712 217.592 261.358 219.114C261.358 219.114 270.834 227.371 275.256 237.677C279.678 247.984 293.242 277.575 293.242 277.575" fill="white"/>
<mask id="mask1_1688_1106" style="mask-type:luminance" maskUnits="userSpaceOnUse" x="220" y="98" width="120" height="180">
<path d="M339.837 276.375C339.837 276.375 318.404 236.847 315.354 229.916C312.303 222.986 310.002 212.066 309.253 209.07C308.17 205.554 308.07 201.809 308.964 198.24C310.092 193.186 309.424 178.765 309.93 175.453C310.435 172.141 308.387 161.781 307.222 155.978C306.058 150.175 303.423 146.051 299.867 145.6C298.833 145.476 297.785 145.61 296.815 145.989C295.845 146.369 294.984 146.982 294.308 147.775C294.308 147.775 292.828 135.42 291.393 132.857C289.959 130.294 285.284 130.664 282.784 131.278C280.284 131.892 279.084 139.888 279.084 139.888C279.084 139.888 276.918 132.208 276.855 128.778C276.792 125.349 272.622 122.398 269.374 123.21C266.125 124.022 264.374 125.511 263.49 132.623C262.605 139.734 264.275 150.735 264.275 150.735L262.587 151.421C262.587 151.421 256.505 130.123 254.573 124.501C252.642 118.878 250.783 112.444 249.483 108.256C248.184 104.069 246.253 97.427 240.937 98.4468C235.622 99.4666 236.93 111.081 236.93 111.081C236.93 111.081 245.242 146.674 245.675 149.481C246.108 152.287 247.48 162.034 247.209 165.283C246.939 168.531 246.948 177.014 246.948 177.014L239.033 167.575C238.058 165.021 236.827 162.572 235.36 160.265C232.653 155.897 226.633 151.827 222.726 153.045C218.818 154.264 221.904 158.289 223.52 160.536C225.135 162.783 226.444 169.091 226.444 172.268C226.444 175.444 229.151 177.682 232.418 183.512C235.685 189.342 252.083 209.485 254.564 213.113C256.402 215.55 258.713 217.592 261.36 219.114C261.36 219.114 270.836 227.371 275.258 237.677C279.68 247.984 293.243 277.575 293.243 277.575" fill="white"/>
</mask>
<g mask="url(#mask1_1688_1106)">
<g style="mix-blend-mode:multiply" opacity="0.7">
<path d="M307.383 266.971C311.814 262.91 312.915 230.106 312.356 217.896C312.356 217.796 312.356 217.679 312.356 217.571C310.777 213.492 309.549 210.18 309.269 209.069C308.186 205.554 308.086 201.808 308.981 198.24C310.109 193.186 309.441 178.765 309.946 175.453C310.244 173.495 309.639 169.037 308.863 164.524C305.651 164.245 299.767 167.141 299.767 167.141C299.767 167.141 295.128 160.391 292.105 160.156C289.082 159.922 283.838 164.669 283.838 164.669C283.838 164.669 280.833 154.543 274.66 155.581C268.487 156.619 266.755 155.581 264.318 155.689C261.882 155.798 259.905 149.868 257.469 144.048C255.032 138.227 251.539 116.46 249.473 111.947C249.473 111.947 246.233 102.869 242.037 105.892C237.84 108.915 241.784 118.797 243.751 124.726C245.719 130.655 246.774 141.918 248.372 147.287C250.177 153.271 249.274 162.16 250.926 168.676C252.577 175.191 256.819 177.303 254.481 185.822C252.144 194.341 247.036 191.625 241.342 186.616C235.647 181.608 232.832 170.138 229.61 171.275C228.493 171.557 227.415 171.972 226.397 172.511C226.469 175.634 229.104 177.926 232.371 183.629C235.638 189.333 252.081 209.485 254.563 213.112C256.4 215.55 258.712 217.592 261.358 219.114C261.358 219.114 270.834 227.371 275.256 237.677C276.05 239.527 277.313 242.262 278.866 245.511C280.671 246.955 276.844 240.096 277.783 241.233C284.037 248.57 302.961 271.041 307.383 266.971Z" fill="#D8501C"/>
</g>
</g>
<path d="M339.835 276.375C339.835 276.375 318.402 236.847 315.352 229.916C312.302 222.986 310 212.066 309.251 209.07C308.168 205.554 308.068 201.809 308.963 198.24C310.091 193.186 309.423 178.765 309.928 175.453C310.434 172.141 308.385 161.781 307.221 155.978C306.057 150.175 303.421 146.051 299.866 145.6C298.832 145.476 297.783 145.61 296.813 145.989C295.843 146.369 294.982 146.982 294.307 147.775C294.307 147.775 292.827 135.42 291.392 132.857C289.957 130.294 285.282 130.664 282.782 131.278C280.282 131.892 279.082 139.888 279.082 139.888C279.082 139.888 276.916 132.208 276.853 128.778C276.79 125.349 272.621 122.398 269.372 123.21C266.123 124.022 264.372 125.511 263.488 132.623C262.603 139.734 264.273 150.735 264.273 150.735L262.585 151.421C262.585 151.421 256.503 130.123 254.572 124.501C252.64 118.878 250.781 112.444 249.482 108.256C248.182 104.069 246.251 97.427 240.935 98.4468C235.62 99.4666 236.929 111.081 236.929 111.081C236.929 111.081 245.24 146.674 245.673 149.481C246.107 152.287 247.478 162.034 247.208 165.283C246.937 168.531 246.946 177.014 246.946 177.014L239.031 167.575C238.056 165.021 236.826 162.572 235.358 160.265C232.651 155.897 226.632 151.827 222.724 153.045C218.816 154.264 221.903 158.289 223.518 160.536C225.134 162.783 226.442 169.091 226.442 172.268C226.442 175.444 229.149 177.682 232.416 183.512C235.683 189.342 252.081 209.485 254.563 213.113C256.4 215.55 258.712 217.592 261.358 219.114C261.358 219.114 270.834 227.371 275.256 237.677C279.678 247.984 293.242 277.575 293.242 277.575" stroke="#07382F" stroke-linecap="round" stroke-linejoin="round"/>
<path d="M238.119 101.029C238.119 101.029 239.103 107.13 239.292 107.897C239.717 109.621 246.846 108.799 247.414 107.473C247.92 106.291 247.55 103.728 247.55 103.728" stroke="#07382F" stroke-linecap="round" stroke-linejoin="round"/>
<path d="M225.91 160.817C226.503 160.214 226.871 159.426 226.951 158.585C227.032 157.743 226.82 156.9 226.352 156.196C224.674 153.696 223.735 153.137 223.735 153.137" stroke="#07382F" stroke-linecap="round" stroke-linejoin="round"/>
<path d="M246.368 136.378C246.368 136.378 249.554 137.443 252.55 133.518" stroke="#07382F" stroke-width="0.75" stroke-linecap="round" stroke-linejoin="round"/>
<path d="M246.747 133.607C246.747 133.607 250.998 130.422 254.247 130.683" stroke="#07382F" stroke-width="0.75" stroke-linecap="round" stroke-linejoin="round"/>
<path d="M242.343 116.957C242.343 116.957 245.529 113.78 248.083 114.466" stroke="#07382F" stroke-width="0.75" stroke-linecap="round" stroke-linejoin="round"/>
<path d="M245.34 116.208C246.649 116.428 247.991 116.367 249.274 116.027" stroke="#07382F" stroke-width="0.75" stroke-linecap="round" stroke-linejoin="round"/>
<path d="M279.073 139.916L280.752 149.852" stroke="#07382F" stroke-linecap="round" stroke-linejoin="round"/>
<path d="M294.297 147.803L296.093 158.235" stroke="#07382F" stroke-linecap="round" stroke-linejoin="round"/>
<path d="M246.937 177.078C246.937 177.078 246.486 184.884 247.235 187.908" stroke="#07382F" stroke-linecap="round" stroke-linejoin="round"/>
<path d="M280.761 155.141C280.761 155.141 282.611 160.041 282.16 163.263" stroke="#07382F" stroke-width="0.75" stroke-linecap="round" stroke-linejoin="round"/>
<path d="M295.895 160.203C295.895 160.203 297.149 162.73 296.4 167.333" stroke="#07382F" stroke-width="0.75" stroke-linecap="round" stroke-linejoin="round"/>
<path d="M81.4538 146.034C81.4538 146.034 89.1156 144.645 93.2849 139.546C97.4543 134.447 107.435 127.94 110.684 126.785C113.933 125.63 119.041 125.386 120.9 127.011C122.759 128.635 123.68 132.579 120.9 137.226C118.12 141.874 106.786 146.242 104.421 148.354C102.057 150.465 100.017 151.837 97.2016 158.1C94.461 164.167 90.5156 169.614 85.6051 174.11C81.1921 178.053 73.079 184.786 68.9006 187.331" fill="white"/>
<mask id="mask2_1688_1106" style="mask-type:luminance" maskUnits="userSpaceOnUse" x="68" y="125" width="55" height="63">
<path d="M81.4547 146.034C81.4547 146.034 89.1165 144.645 93.2859 139.546C97.4552 134.447 107.436 127.94 110.685 126.785C113.934 125.63 119.042 125.386 120.901 127.011C122.76 128.635 123.681 132.579 120.901 137.226C118.121 141.874 106.787 146.242 104.422 148.354C102.058 150.465 100.018 151.837 97.2025 158.1C94.4619 164.167 90.5165 169.614 85.606 174.11C81.193 178.053 73.0799 184.786 68.9016 187.331" fill="white"/>
</mask>
<g mask="url(#mask2_1688_1106)">
<g style="mix-blend-mode:multiply" opacity="0.7">
<path d="M104.341 140.205C103.375 135.882 97.1214 138.283 97.1214 138.283C92.8625 142.905 87.6194 146.51 81.7796 148.833C72.0048 152.529 62.5588 157.042 53.5418 162.324C54.5706 160.258 55.6897 158.173 56.899 156.007C63.1349 144.979 74.1629 130.116 80.3628 128.193C84.1892 127.02 88.0066 129.448 90.3891 131.505L90.6598 86.834H90.5064C86.7883 87.5289 84.0087 89.3879 83.5485 91.7072C83.0882 94.0266 76.1212 108.637 73.8019 111.426C71.4826 114.214 64.0554 124.421 63.3605 128.13C62.9408 130.767 61.9956 133.293 60.581 135.558C59.6785 136.947 52.2243 148.309 46.8908 158.525C41.5572 168.741 39.265 180.969 39.3553 181.664C39.4184 182.169 29.0944 219.567 22.5335 243.103C27.9482 232.454 36.3681 215.226 41.4851 202.493C43.4975 202.294 47.3961 196.843 50.6269 192.403C54.4623 187.133 60.211 185.689 71.7263 177.061C83.2416 168.434 96.1738 156.44 98.096 151.648C100.018 146.856 105.298 144.519 104.341 140.205Z" fill="#D8501C"/>
</g>
</g>
<path d="M81.4538 146.034C81.4538 146.034 89.1156 144.645 93.2849 139.546C97.4543 134.447 107.435 127.94 110.684 126.785C113.933 125.63 119.041 125.386 120.9 127.011C122.759 128.635 123.68 132.579 120.9 137.226C118.12 141.874 106.786 146.242 104.421 148.354C102.057 150.465 100.017 151.837 97.2016 158.1C94.461 164.167 90.5156 169.614 85.6051 174.11C81.1921 178.053 73.079 184.786 68.9006 187.331" stroke="#07382F" stroke-linecap="round" stroke-linejoin="round"/>
<path d="M121.125 135.412C119.735 137.497 116.252 137.732 116.252 137.732C116.252 137.732 114.862 134.718 113.933 132.858C113.209 131.608 112.169 130.568 110.919 129.844C110.919 129.844 112.083 126.83 114.402 126.83" stroke="#07382F" stroke-linecap="round" stroke-linejoin="round"/>
<path d="M30.3028 193.098C38.8647 191.243 47.6346 190.53 56.3837 190.977C71.193 191.69 74.7125 200.146 74.7125 200.146L74.0086 219.179C74.0086 219.179 66.2565 213.538 50.0394 211.427C33.8223 209.315 25.3663 210.723 25.3663 210.723L30.3028 193.098Z" fill="white" stroke="#07382F" stroke-linecap="round" stroke-linejoin="round"/>
<path d="M74.8569 281.908L78.6742 220.82C54.0011 206.011 25.3663 210.722 25.3663 210.722L1 281.908H74.8569Z" fill="#07382F" stroke="#07382F" stroke-linecap="round" stroke-linejoin="round"/>
<path d="M267.422 234.98C267.422 234.98 269.832 225.359 283.062 217.535C296.292 209.711 316.155 212.725 316.155 212.725L319.16 220.54C319.16 220.54 302.916 219.945 290.886 226.56C278.857 233.175 272.837 240.999 272.837 240.999L267.422 234.98Z" fill="white" stroke="#07382F" stroke-linecap="round" stroke-linejoin="round"/>
<path d="M356.991 281.907L321.29 218.085C321.29 218.085 307.754 214.53 291.509 221.145C275.265 227.76 268.641 240.394 268.641 240.394L275.473 281.907H356.991Z" fill="#07382F" stroke="#07382F" stroke-linecap="round" stroke-linejoin="round"/>
<path d="M276.392 242.326C276.844 244.267 276.302 246.053 275.165 246.315C274.028 246.577 272.747 245.223 272.295 243.283C271.844 241.343 272.386 239.556 273.514 239.294C274.642 239.032 275.932 240.386 276.392 242.326Z" fill="white"/>
</svg>
