<svg width="64" height="63" viewBox="0 0 64 63" fill="none" xmlns="http://www.w3.org/2000/svg">
<path fill-rule="evenodd" clip-rule="evenodd" d="M32.2902 62.8755C49.6172 62.8755 63.6635 48.8292 63.6635 31.5023C63.6635 14.1753 49.6172 0.129028 32.2902 0.129028C14.9633 0.129028 0.916992 14.1753 0.916992 31.5023C0.916992 48.8292 14.9633 62.8755 32.2902 62.8755Z" fill="#E2FBD7"/>
<path fill-rule="evenodd" clip-rule="evenodd" d="M26.2769 28.187C23.5641 31.1228 23.6215 35.7767 26.4491 38.659C27.8295 40.0701 29.6639 40.8485 31.6183 40.8498H31.625C33.5835 40.8498 35.4245 40.0715 36.8116 38.659C39.6899 35.7246 39.6846 30.9519 36.7996 28.0215L32.8132 23.9483C32.41 27.2618 31.1671 30.1695 28.9536 30.1695C28.2754 30.1695 27.17 29.8678 26.2769 28.187ZM31.625 43.5199H31.6157C28.9376 43.5172 26.4251 42.4558 24.5413 40.5267C20.6511 36.5617 20.6457 30.1095 24.5293 26.1511L25.8417 24.8241C26.1808 24.485 26.6734 24.3542 27.1393 24.4756C27.6026 24.6011 27.963 24.9656 28.0832 25.4302C28.3902 26.617 28.756 27.2004 28.9576 27.4221C29.4316 26.9228 30.2886 24.9055 30.2886 21.4918C30.2886 21.2956 30.2886 21.11 30.278 20.9245C30.2526 20.5306 30.4035 20.1448 30.6892 19.8725C31.2192 19.3691 32.0682 19.3691 32.5769 19.8925L38.7047 26.1524C42.603 30.1095 42.6097 36.5617 38.718 40.5281C36.8236 42.4585 34.3058 43.5199 31.625 43.5199Z" fill="#34B53A"/>
</svg>
