<svg width="64" height="63" viewBox="0 0 64 63" fill="none" xmlns="http://www.w3.org/2000/svg">
<path fill-rule="evenodd" clip-rule="evenodd" d="M32.2328 62.7851C49.541 62.7851 63.5721 48.7541 63.5721 31.4459C63.5721 14.1376 49.541 0.106567 32.2328 0.106567C14.9246 0.106567 0.893555 14.1376 0.893555 31.4459C0.893555 48.7541 14.9246 62.7851 32.2328 62.7851Z" fill="#CCF8FE"/>
<path fill-rule="evenodd" clip-rule="evenodd" d="M33.5663 40.7811H39.5675V35.4468H33.5663V40.7811ZM24.898 40.7811H30.8992V35.4468H24.898V40.7811ZM22.8976 27.712C22.8976 27.6013 22.915 27.5119 22.9323 27.4452H27.0891H30.8992V32.7796H22.9323C22.915 32.7129 22.8976 32.6236 22.8976 32.5129V27.712ZM25.5648 23.4445C25.5648 22.7083 26.2489 22.1109 27.0891 22.1109C28.7654 22.1109 29.7923 23.5645 30.3577 24.7781H27.0891C26.2489 24.7781 25.5648 24.1806 25.5648 23.4445ZM37.3764 22.1109C38.2166 22.1109 38.9007 22.7083 38.9007 23.4445C38.9007 24.1806 38.2166 24.7781 37.3764 24.7781H34.0998C34.6599 23.5645 35.6841 22.1109 37.3764 22.1109ZM41.5679 27.712V32.5129C41.5679 32.6236 41.5505 32.7129 41.5332 32.7796H33.5663V27.4452H37.3764H41.5332C41.5505 27.5119 41.5679 27.6013 41.5679 27.712ZM41.8346 24.7781H41.3105C41.4678 24.3593 41.5679 23.9152 41.5679 23.4445C41.5679 21.2387 39.6875 19.4437 37.3764 19.4437C34.8132 19.4437 33.2049 21.0427 32.2327 22.6403C31.2606 21.0427 29.6523 19.4437 27.0891 19.4437C24.778 19.4437 22.8976 21.2387 22.8976 23.4445C22.8976 23.9152 22.999 24.3593 23.155 24.7781H22.6309C21.2853 24.7781 20.2305 26.0677 20.2305 27.712V32.5129C20.2305 33.9892 21.084 35.1707 22.2308 35.3988V41.2252C22.2308 42.4508 23.3151 43.4483 24.6473 43.4483H39.8169C41.1504 43.4483 42.2347 42.4508 42.2347 41.2252V35.3988C43.3815 35.1707 44.235 33.9892 44.235 32.5129V27.712C44.235 26.0677 43.1802 24.7781 41.8346 24.7781Z" fill="#02A0FC"/>
</svg>
