<svg width="61" height="61" viewBox="0 0 61 61" fill="none" xmlns="http://www.w3.org/2000/svg">
<path fill-rule="evenodd" clip-rule="evenodd" d="M30.0559 60.4175C46.6429 60.4175 60.0894 46.971 60.0894 30.384C60.0894 13.797 46.6429 0.350586 30.0559 0.350586C13.4689 0.350586 0.0224609 13.797 0.0224609 30.384C0.0224609 46.971 13.4689 60.4175 30.0559 60.4175Z" fill="#FFE0E3"/>
<g clip-path="url(#clip0_2070_2102)">
<path d="M34.4012 27.8408C33.6642 27.6535 32.9508 27.3726 32.328 26.8185C31.2915 25.8976 30.4204 24.8636 29.9081 23.5838C29.3602 22.2142 28.974 20.7822 28.9897 19.2955C29.0055 17.6723 29.1631 16.0452 29.9672 14.5898C30.381 13.8367 30.8973 13.1227 31.4491 12.4593C32.2177 11.5385 33.2976 11.1795 34.4997 11C35.5127 13.0368 35.895 15.1478 35.3314 17.3524C34.9136 18.9834 34.3184 20.5676 33.9046 22.1986C33.5893 23.4433 33.6169 24.7271 33.9046 25.9874C34.0465 26.6078 34.2357 27.2165 34.4051 27.8408H34.4012Z" fill="#ED1C24"/>
<path d="M35.659 28.0165C34.6973 26.5416 34.5633 25.0159 34.6342 23.4395C34.6973 22.1363 35.2136 20.9501 35.6314 19.7405C36.396 17.5242 36.8019 15.2805 36.1556 12.9589C35.9821 12.3307 35.8008 11.7063 35.6274 11.082C36.6679 11.242 37.4956 11.8312 38.2642 12.5492C39.7698 13.95 40.5186 15.7332 40.9167 17.6919C41.3266 19.6975 41.2084 21.6875 40.5147 23.5956C39.959 25.133 39.0801 26.526 37.5745 27.3532C36.9951 27.6731 36.3093 27.8019 35.655 28.0204L35.659 28.0165Z" fill="#ED1C24"/>
<path d="M25.3599 26.0731C25.281 27.591 24.9618 28.9294 24.1578 30.0921C23.4365 31.134 22.5497 32.0353 21.5328 32.8235C20.6854 33.4829 20.0548 34.3492 19.503 35.27C19.0143 36.0855 18.7384 36.9557 18.6399 37.8921C18.632 37.9663 18.6004 38.0404 18.5689 38.1653C18.0171 37.5722 17.6112 36.9401 17.3432 36.2182C16.8781 34.9618 16.9293 33.6819 17.2446 32.4216C17.4575 31.5671 17.7373 30.7086 18.1393 29.9283C18.699 28.8435 19.44 27.8446 20.4529 27.1149C21.383 26.4438 22.396 25.8663 23.5902 25.8429C24.1735 25.8312 24.7608 25.9873 25.3638 26.0731H25.3599Z" fill="#ED1C24"/>
<path d="M26.1164 26.6858C26.8259 27.3452 27.354 28.0671 27.4919 29.0231C27.5432 29.382 27.6141 29.7371 27.6654 30.1C27.8309 31.2199 27.6654 32.3163 27.2988 33.362C26.8889 34.5209 26.3529 35.6447 25.5134 36.5694C24.8 37.3576 24.0314 38.1185 23.0264 38.5399C21.9307 39.0003 20.7877 39.1876 19.6132 38.774C19.4043 38.6999 19.3491 38.5984 19.3412 38.3838C19.2979 37.1118 19.8575 36.0583 20.5236 35.0321C21.1582 34.0566 22.0805 33.3698 22.9279 32.6011C24.394 31.2784 25.5094 29.7332 25.8957 27.7588C25.9627 27.4194 26.0336 27.0799 26.1125 26.6858H26.1164Z" fill="#ED1C24"/>
<path d="M31.9852 49.2898C30.8067 48.4158 30.0736 47.3934 29.7228 46.0746C29.3681 44.7479 29.175 43.4096 29.4036 42.0556C29.5612 41.123 29.782 40.1748 30.1367 39.3008C30.5229 38.3487 30.9959 37.4044 31.6029 36.5811C32.4897 35.3793 33.5972 34.3492 35.0397 33.8147C36.0211 33.4518 37.0616 33.2996 38.0982 33.6313C38.2086 33.6664 38.3229 33.8537 38.3386 33.9824C38.4805 35.5003 38.2322 36.9284 37.5622 38.3292C36.904 39.6988 36.0842 40.9396 35.02 42.0048C34.2278 42.8008 33.6011 43.6983 33.0612 44.6582C32.269 46.059 31.8236 47.5573 31.9852 49.2976V49.2898Z" fill="#ED1C24"/>
<path d="M39.3636 34.158C40.6288 34.8954 41.2003 36.1284 41.6338 37.4512C42.1422 39.0081 42.0516 40.5845 41.7757 42.1687C41.3658 44.5059 40.274 46.5076 38.5674 48.1347C37.5033 49.1532 36.2263 49.914 34.6773 49.996C34.165 50.0233 33.6408 49.9179 33.1323 49.8165C33.018 49.7931 32.884 49.5395 32.8722 49.3834C32.7461 47.5299 33.2624 45.8326 34.3147 44.3225C34.8547 43.5461 35.5129 42.8515 36.1396 42.1375C37.5624 40.522 38.6581 38.7271 39.1153 36.6162C39.2887 35.8202 39.2808 34.9891 39.3597 34.158H39.3636Z" fill="#ED1C24"/>
</g>
<defs>
<clipPath id="clip0_2070_2102">
<rect width="25" height="39" fill="white" transform="translate(17 11)"/>
</clipPath>
</defs>
</svg>
