<svg width="61" height="61" viewBox="0 0 61 61" fill="none" xmlns="http://www.w3.org/2000/svg">
<path fill-rule="evenodd" clip-rule="evenodd" d="M30.0559 60.4174C46.6429 60.4174 60.0894 46.9709 60.0894 30.3839C60.0894 13.7969 46.6429 0.350464 30.0559 0.350464C13.4689 0.350464 0.0224609 13.7969 0.0224609 30.3839C0.0224609 46.9709 13.4689 60.4174 30.0559 60.4174Z" fill="#FFE5D3"/>
<path fill-rule="evenodd" clip-rule="evenodd" d="M39.2164 23.3119L37.3786 25.0884C37.1307 25.3274 36.8099 25.4475 36.4904 25.4475C36.1556 25.4475 35.822 25.3159 35.5715 25.0564C35.082 24.5503 35.0948 23.7401 35.6035 23.2506L37.4413 21.4754C37.9486 20.9859 38.7614 20.9987 39.2471 21.5061C39.7379 22.0122 39.7238 22.8225 39.2164 23.3119ZM24.5396 25.0564C24.2892 25.3159 23.9556 25.4475 23.6208 25.4475C23.3012 25.4475 22.9805 25.3287 22.7325 25.0897L20.8935 23.3132C20.3861 22.8225 20.372 22.0122 20.8628 21.5061C21.3535 20.9987 22.1613 20.9834 22.6699 21.4741L24.509 23.2493C25.0164 23.7401 25.0304 24.5503 24.5396 25.0564ZM22.3875 30.3832C22.3875 31.09 21.8149 31.6612 21.1094 31.6612H18.5534C17.8479 31.6612 17.2754 31.09 17.2754 30.3832C17.2754 29.6765 17.8479 29.1052 18.5534 29.1052H21.1094C21.8149 29.1052 22.3875 29.6765 22.3875 30.3832ZM42.8358 30.3832C42.8358 31.09 42.2645 31.6612 41.5578 31.6612H39.0017C38.295 31.6612 37.7237 31.09 37.7237 30.3832C37.7237 29.6765 38.295 29.1052 39.0017 29.1052H41.5578C42.2645 29.1052 42.8358 29.6765 42.8358 30.3832ZM28.7776 21.4371V18.881C28.7776 18.1743 29.3501 17.603 30.0556 17.603C30.761 17.603 31.3336 18.1743 31.3336 18.881V21.4371C31.3336 22.1438 30.761 22.7151 30.0556 22.7151C29.3501 22.7151 28.7776 22.1438 28.7776 21.4371ZM31.9739 33.6971C31.5777 33.9259 31.3336 34.3489 31.3336 34.8052V40.6074H28.7776V34.8052C28.7776 34.3489 28.5335 33.9259 28.1373 33.6971C26.9551 33.0185 26.2215 31.7481 26.2215 30.3832C26.2215 28.2694 27.9417 26.5492 30.0556 26.5492C32.1694 26.5492 33.8896 28.2694 33.8896 30.3832C33.8896 31.7481 33.1561 33.0185 31.9739 33.6971ZM30.0556 23.9931C26.5321 23.9931 23.6655 26.8597 23.6655 30.3832C23.6655 32.4012 24.6278 34.2965 26.2215 35.4902V40.6074C26.2215 42.017 27.3679 43.1634 28.7776 43.1634H31.3336C32.7433 43.1634 33.8896 42.017 33.8896 40.6074V35.4902C35.482 34.2965 36.4457 32.4012 36.4457 30.3832C36.4457 26.8597 33.5791 23.9931 30.0556 23.9931Z" fill="#FF3A29"/>
</svg>
