<svg width="102" height="66" viewBox="0 0 102 66" fill="none" xmlns="http://www.w3.org/2000/svg">
<path d="M51.0317 3.58025L51.2867 16.7128L68.6267 16.9678L64.6742 9.70025L68.8817 3.19775L51.0317 3.58025Z" fill="#D8501C"/>
<path d="M68.436 43.4877L73.9823 39.5352L81.6323 46.5477L76.4048 50.6277L68.436 43.4877Z" fill="white"/>
<path d="M24.6396 43.4881L33.4346 33.7841L38.5371 38.6431L50.3946 26.7856L64.1328 39.3444L58.1084 43.0419L49.789 39.6631L44.2109 41.8944L46.1234 46.8669L41.2146 50.5006L34.2659 45.2094L28.9109 46.8669L24.6396 43.4881Z" fill="white"/>
<path d="M4.36719 63.2508L24.5122 44.1258L27.3172 46.8033L34.4572 44.2533C34.4572 44.2533 36.2422 53.0508 41.2147 50.5008L46.1872 47.9508L42.3622 43.1058L50.1397 39.1533L56.6422 42.4683L64.9297 39.1533L76.5322 51.7758L81.6322 46.5483L97.9522 63.2508H4.36719Z" fill="#07382F"/>
<path d="M100.503 62.8017H99.5265L76.6734 39.9486C75.7873 39.0625 74.6092 38.5742 73.3571 38.5742C72.1051 38.5742 70.9257 39.0625 70.0409 39.9486L68.567 41.4225L54.3188 27.1744C53.7973 26.6529 53.1752 26.2704 52.4956 26.0435C52.4956 26.0205 52.4994 25.9976 52.4994 25.9746V17.8898H68.5644C68.5644 17.8898 68.5669 17.8898 68.5682 17.8898C68.5861 17.8898 68.6039 17.8873 68.623 17.886C68.6575 17.886 68.6932 17.8835 68.7276 17.8796C68.748 17.8771 68.7671 17.8733 68.7875 17.8707C68.822 17.8656 68.8564 17.8605 68.8895 17.8529C68.9074 17.849 68.9265 17.8439 68.9444 17.8388C68.98 17.8299 69.0158 17.8197 69.0515 17.807C69.068 17.8019 69.0833 17.7955 69.0999 17.7891C69.1382 17.7751 69.1751 17.7585 69.2121 17.7407C69.221 17.7368 69.2287 17.7343 69.2376 17.7292C69.2427 17.7266 69.2478 17.7228 69.2542 17.7203C69.2822 17.7062 69.309 17.6909 69.3358 17.6744C69.3523 17.6642 69.3702 17.654 69.3868 17.6438C69.4085 17.6297 69.4288 17.6144 69.4492 17.5991C69.4697 17.5851 69.49 17.5698 69.5092 17.5545C69.5245 17.5418 69.5398 17.5277 69.5551 17.515C69.5768 17.4959 69.5997 17.4767 69.6201 17.4563C69.6328 17.4449 69.6431 17.4321 69.6558 17.4194C69.6775 17.3964 69.6992 17.3747 69.7183 17.3505C69.7298 17.3365 69.7412 17.3212 69.7514 17.3072C69.7693 17.2842 69.7871 17.2613 69.8037 17.2383C69.8164 17.2192 69.8292 17.1988 69.8407 17.1784C69.8534 17.158 69.8662 17.1389 69.8776 17.1172C69.8917 17.0917 69.9044 17.0662 69.9159 17.0394C69.9235 17.0228 69.9325 17.0063 69.9401 16.9897C69.9529 16.9616 69.9631 16.9323 69.9733 16.903C69.9796 16.8864 69.986 16.8711 69.9911 16.8545C70.0001 16.8265 70.0077 16.7984 70.0154 16.7704C70.0204 16.7513 70.0256 16.7321 70.0306 16.7117C70.0358 16.6875 70.0396 16.662 70.0434 16.6378C70.0472 16.6123 70.0523 16.5881 70.0549 16.5626C70.0574 16.5422 70.0587 16.5218 70.06 16.5001C70.0625 16.4695 70.0638 16.4402 70.0651 16.4096C70.0651 16.4032 70.0651 16.3968 70.0651 16.3904C70.0651 16.3777 70.0638 16.3662 70.0638 16.3547C70.0638 16.3229 70.0612 16.2923 70.0587 16.2604C70.0574 16.24 70.0549 16.2196 70.0523 16.2005C70.0485 16.1724 70.0447 16.1444 70.0396 16.1176C70.0358 16.0934 70.0294 16.0704 70.0243 16.0475C70.0192 16.0245 70.0128 16.0016 70.0064 15.9786C69.9988 15.9506 69.9898 15.9238 69.9796 15.897C69.9733 15.8779 69.9669 15.86 69.9593 15.8409C69.9478 15.8116 69.9338 15.7823 69.921 15.7529C69.9159 15.7427 69.9121 15.7313 69.907 15.7211L67.0484 10.0027L69.907 4.28431C69.9121 4.27411 69.9159 4.26391 69.921 4.25243C69.935 4.22311 69.9478 4.19378 69.9593 4.16446C69.9669 4.14661 69.9733 4.12748 69.9796 4.10836C69.9886 4.08158 69.9975 4.05481 70.0064 4.02676C70.0128 4.00381 70.0192 3.98086 70.0243 3.95791C70.0294 3.93496 70.0345 3.91073 70.0396 3.88778C70.0447 3.85973 70.0485 3.83296 70.0523 3.80491C70.0549 3.78451 70.0574 3.76538 70.0587 3.74498C70.0612 3.71311 70.0625 3.68251 70.0638 3.65063C70.0638 3.63916 70.0651 3.62641 70.0651 3.61493C70.0651 3.60856 70.0651 3.60218 70.0651 3.59581C70.0651 3.56521 70.0625 3.53461 70.06 3.50528C70.0587 3.48488 70.0574 3.46448 70.0549 3.44281C70.0523 3.41731 70.0472 3.39308 70.0434 3.36758C70.0396 3.34336 70.0358 3.31786 70.0306 3.29363C70.0268 3.27451 70.0204 3.25538 70.0154 3.23498C70.0077 3.20693 70.0001 3.17888 69.9911 3.15083C69.986 3.13426 69.9796 3.11896 69.9733 3.10238C69.9631 3.07306 69.9516 3.04373 69.9401 3.01568C69.9325 2.99911 69.9235 2.98253 69.9159 2.96596C69.9031 2.94046 69.8917 2.91368 69.8776 2.88818C69.8662 2.86778 69.8534 2.84738 69.8407 2.82698C69.8279 2.80658 69.8164 2.78746 69.8037 2.76706C69.7871 2.74283 69.7693 2.72116 69.7514 2.69821C69.74 2.68418 69.7298 2.66888 69.7183 2.65486C69.6992 2.63063 69.6775 2.60896 69.6558 2.58601C69.6443 2.57326 69.6328 2.56051 69.6201 2.54903C69.5997 2.52863 69.5768 2.50951 69.5551 2.49038C69.5398 2.47763 69.5257 2.46361 69.5092 2.45086C69.49 2.43556 69.4697 2.42153 69.4492 2.40623C69.4288 2.39093 69.4085 2.37563 69.3868 2.36161C69.3702 2.35141 69.3523 2.34121 69.3358 2.33101C69.309 2.31443 69.2822 2.29913 69.2542 2.28511C69.2491 2.28256 69.244 2.27873 69.2376 2.27618C69.2274 2.27108 69.2172 2.26726 69.2057 2.26216C69.1764 2.24813 69.1471 2.23538 69.1177 2.22391C69.0999 2.21626 69.0808 2.20988 69.0629 2.20351C69.0361 2.19331 69.0081 2.18438 68.98 2.17673C68.9571 2.17036 68.9354 2.16526 68.9125 2.16016C68.8882 2.15378 68.864 2.14868 68.8398 2.14486C68.813 2.13976 68.7862 2.13593 68.7595 2.13211C68.7378 2.12956 68.7174 2.12701 68.6957 2.12446C68.6664 2.12191 68.6358 2.12063 68.6065 2.11936C68.5937 2.11936 68.581 2.11681 68.5682 2.11681H52.4994V2.01736C52.4994 1.19116 51.8287 0.520508 51.0025 0.520508C50.1763 0.520508 49.5057 1.19116 49.5057 2.01736V25.9708C49.5057 25.9937 49.5082 26.0167 49.5095 26.0396C48.8299 26.2666 48.2078 26.6491 47.6863 27.1706L38.2283 36.6285L36.7544 35.1546C35.8683 34.2685 34.6902 33.7802 33.4382 33.7802C32.1861 33.7802 31.0067 34.2685 30.1219 35.1546L2.4735 62.8017H1.49685C0.67065 62.8017 0 63.4724 0 64.2986C0 65.1248 0.67065 65.7954 1.49685 65.7954H100.503C101.329 65.7954 102 65.1248 102 64.2986C102 63.4724 101.329 62.8017 100.503 62.8017ZM89.9449 62.8017L78.6675 51.5243L81.3412 48.8507L95.2922 62.8017H89.9449ZM64.3951 62.8017L45.1325 43.539L47.0743 41.5972C48.3582 40.3133 50.4479 40.3133 51.7318 41.5972L52.9418 42.8072C55.3937 45.259 59.3818 45.259 61.8337 42.8072L63.7755 40.8653L85.7106 62.8004H64.3951V62.8017ZM72.1561 42.0664C72.4761 41.7464 72.9032 41.5691 73.3559 41.5691C73.8085 41.5691 74.2356 41.7451 74.5556 42.0664L79.2234 46.7342L76.5497 49.4078L70.6822 43.5403L72.1561 42.0664ZM66.1432 5.11561L64.0331 9.33713C64.0279 9.34606 64.0254 9.35626 64.0203 9.36518C64.0088 9.39068 63.9973 9.41491 63.9871 9.44041C63.9782 9.46208 63.9693 9.48376 63.9617 9.50543C63.954 9.52838 63.9463 9.55133 63.94 9.57301C63.9323 9.59851 63.9247 9.62273 63.9183 9.64823C63.9132 9.66863 63.9094 9.69031 63.9043 9.71071C63.8992 9.73748 63.8941 9.76426 63.8903 9.79103C63.8864 9.81271 63.8852 9.83438 63.8826 9.85478C63.8801 9.88156 63.8775 9.90706 63.8762 9.93383C63.8762 9.95806 63.8762 9.98101 63.8762 10.0052C63.8762 10.0295 63.8762 10.0524 63.8762 10.0766C63.8762 10.1034 63.8801 10.1289 63.8826 10.1557C63.8852 10.1774 63.8864 10.199 63.8903 10.2194C63.8941 10.2462 63.8992 10.273 63.9043 10.2998C63.9081 10.3214 63.9132 10.3418 63.9183 10.3622C63.9247 10.3877 63.9323 10.412 63.94 10.4375C63.9463 10.4604 63.954 10.4834 63.9617 10.505C63.9693 10.5267 63.9782 10.5484 63.9871 10.5701C63.9973 10.5956 64.0088 10.6211 64.0203 10.6453C64.0241 10.6542 64.0279 10.6644 64.0331 10.6733L66.1432 14.8949H52.4968V5.11561H66.1432ZM49.8002 29.2922C50.1202 28.9721 50.5474 28.7949 51 28.7949C51.4526 28.7949 51.8797 28.9709 52.1998 29.2922L61.6577 38.7501L59.7159 40.6919C58.432 41.9759 56.3422 41.9759 55.0583 40.6919L53.8483 39.482C51.3965 37.0301 47.4083 37.0301 44.9565 39.482L43.0147 41.4238L40.341 38.7501L49.7989 29.2922H49.8002ZM32.2346 37.2762C32.5546 36.9562 32.9817 36.779 33.4343 36.779C33.887 36.779 34.3141 36.9549 34.6341 37.2762L44.092 46.7342L42.7533 48.0729C42.0176 48.8086 40.8191 48.8086 40.0822 48.0729L36.8857 44.8765C34.9822 42.9729 31.8839 42.9729 29.9778 44.879C29.6208 45.236 29.1465 45.4324 28.6429 45.4324C28.1392 45.4324 27.6649 45.236 27.3079 44.879L25.9692 43.5403L32.2333 37.2762H32.2346ZM23.8527 45.6581L25.1915 46.9968C26.1133 47.9186 27.3398 48.4274 28.6441 48.4274C29.9485 48.4274 31.175 47.9199 32.0994 46.9943C32.8351 46.2586 34.0336 46.2586 34.7705 46.9943L37.9669 50.1907C38.9194 51.1431 40.1689 51.6187 41.4196 51.6187C42.6704 51.6187 43.9199 51.1431 44.8723 50.1907L46.2111 48.8519L60.1621 62.803H6.70778L23.8527 45.6581Z" fill="black"/>
</svg>
