<svg width="68" height="59" viewBox="0 0 68 59" fill="none" xmlns="http://www.w3.org/2000/svg">
<path d="M22.0694 45.2271C22.2601 44.9015 22.4537 44.5817 22.6414 44.2561C23.8646 42.1529 25.0908 40.0496 26.3052 37.9405C26.3698 37.832 26.3874 37.6266 26.3287 37.5269C23.3777 32.3876 20.4179 27.257 17.4581 22.1236C17.2821 21.8185 17.1266 21.4987 16.9242 21.2113C16.8362 21.0851 16.6573 20.959 16.5106 20.9473C14.0348 20.7478 11.559 20.5395 9.08025 20.384C6.64846 20.2315 4.21372 20.1347 1.78193 20.0144C1.55019 20.0027 1.31845 20.0056 1.08671 19.9998C0.605629 19.9851 0.291754 19.7182 0.104015 19.3016C-0.0778561 18.9027 0.0306801 18.5331 0.300554 18.2133C0.901903 17.4946 1.51792 16.7847 2.1222 16.0719C2.89369 15.1626 3.66224 14.2503 4.43373 13.335C4.48066 13.2793 4.51587 13.2148 4.56573 13.1356C3.65344 12.0561 2.74409 10.9795 1.83179 9.90296C1.28911 9.26054 0.714165 8.64453 0.209618 7.97571C-0.22746 7.39783 0.0541474 6.62341 0.728832 6.41513C0.878436 6.3682 1.03977 6.333 1.19524 6.33887C3.42464 6.3946 5.65403 6.41807 7.87755 6.5354C9.6992 6.62927 11.5179 6.83461 13.3366 6.99888C13.6446 7.02528 13.7766 6.94608 13.8852 6.61461C14.6567 4.24734 15.9092 2.17342 17.7485 0.474977C17.9333 0.304839 18.1504 0.143501 18.3821 0.0584323C18.8602 -0.111705 19.3355 0.1083 19.6141 0.592313C20.8432 2.7337 22.0753 4.87509 23.2868 7.02822C23.454 7.32156 23.6358 7.45063 23.9732 7.43303C26.6837 7.28342 29.4 7.17782 32.1105 7.00182C36.1322 6.74074 40.148 6.3242 44.1844 6.3506C44.4631 6.3506 44.5657 6.2098 44.6772 6.01326C45.6687 4.29721 46.6631 2.58117 47.6575 0.86512C47.7191 0.759518 47.7778 0.653915 47.8453 0.551245C48.2589 -0.0706377 48.916 -0.190908 49.4675 0.316572C50.4736 1.2406 51.4299 2.22622 52.0723 3.44652C52.5886 4.42335 53.0374 5.43537 53.498 6.4386C53.5801 6.61754 53.6652 6.69087 53.8617 6.71434C57.8482 7.14849 61.8406 7.45356 65.8564 7.43009C66.097 7.43009 66.3434 7.44476 66.581 7.48876C67.197 7.6061 67.7074 8.52426 67.1501 9.16667C65.8594 10.6598 64.5921 12.1734 63.3161 13.6753C63.1518 13.8689 62.9817 14.0596 62.7881 14.2825C63.2985 14.8751 63.803 15.45 64.2958 16.0338C65.2199 17.1192 66.138 18.2074 67.0591 19.2928C67.3583 19.6448 67.505 20.0174 67.285 20.4632C67.0679 20.9062 66.6807 21.0998 66.2114 21.091C63.935 21.0353 61.6558 21.0235 59.3824 20.8857C56.8567 20.7302 54.334 20.4691 51.8142 20.2256C51.292 20.1758 50.9782 20.296 50.7083 20.783C49.3648 23.1972 47.989 25.5908 46.6103 27.9845C45.481 29.947 44.334 31.8977 43.1988 33.8543C42.5153 35.0335 41.8435 36.2186 41.1512 37.392C40.9987 37.6501 41.028 37.8554 41.1718 38.0989C42.2307 39.903 43.2809 41.7129 44.3311 43.5228C44.598 43.9863 44.8591 44.4556 45.1084 44.9279C45.2316 45.1596 45.3284 45.2447 45.6071 45.0922C49.7667 42.81 55.082 45.277 56.0647 49.9499C56.625 52.6252 56.0647 55.0188 54.0729 56.9578C52.5035 58.489 50.5763 59.1403 48.3938 58.9115C45.7098 58.6328 43.7356 57.2805 42.395 54.9191C39.8077 50.3723 37.1677 45.8548 34.5481 41.3257C34.1521 40.6392 33.234 40.6304 32.8379 41.3169C31.5795 43.4964 30.3445 45.6935 29.0832 47.873C27.6106 50.4222 26.1556 52.983 24.6303 55.5028C22.6091 58.8411 18.0888 60.0027 14.8151 58.052C12.3539 56.5853 11.0926 54.3999 11.116 51.5251C11.1454 47.8906 13.8676 44.7754 17.4639 44.2972C19.0715 44.0831 20.6203 44.35 22.0665 45.23L22.0694 45.2271ZM24.8415 9.49228C24.8297 9.53922 24.8209 9.58615 24.8092 9.63309C25.2404 10.3782 25.6746 11.1262 26.1058 11.8713C27.3759 14.0743 28.649 16.2743 29.9163 18.4773C30.0248 18.6651 30.1392 18.7501 30.3797 18.7325C34.1081 18.4539 37.8335 18.1253 41.5678 17.9376C45.4633 17.744 49.3619 17.8906 53.2516 18.2104C55.0233 18.357 56.7922 18.5507 58.564 18.6768C60.2888 18.8 62.0166 18.8645 63.7444 18.9525C63.803 18.9555 63.8646 18.9291 63.9614 18.9085C63.847 18.7677 63.7649 18.6621 63.6798 18.5624C62.7206 17.4272 61.7614 16.2949 60.8051 15.1538C60.1861 14.4145 60.1773 14.0596 60.7963 13.3321C61.688 12.2849 62.5974 11.2523 63.498 10.211C63.6681 10.0144 63.8324 9.81789 64.0025 9.62135C63.9849 9.58615 63.9702 9.55388 63.9526 9.51868C63.7121 9.51868 63.4745 9.53042 63.234 9.51868C61.336 9.42188 59.4381 9.34561 57.5431 9.21654C55.1377 9.05227 52.7353 8.83813 50.3299 8.66213C45.7274 8.32772 41.1278 8.46559 36.5311 8.8176C33.2897 9.06694 30.0453 9.27228 26.801 9.48055C26.1498 9.52162 25.4956 9.48641 24.8415 9.48641V9.49228ZM48.6754 20.1083C48.4965 20.0878 48.3938 20.0643 48.2882 20.0614C45.3049 20.0555 42.3187 20.0555 39.3355 20.0467C39.0978 20.0467 38.96 20.1259 38.8456 20.3342C38.1826 21.5251 37.5167 22.7132 36.8362 23.8924C35.1759 26.7671 33.5009 29.636 31.8435 32.5137C30.2096 35.3474 28.5904 38.1928 26.9594 41.0294C26.0148 42.675 25.0703 44.3236 24.0964 45.9516C23.8588 46.3477 23.5449 46.7407 23.1753 47.0106C22.4918 47.5093 21.7321 47.4477 21.0016 47.0546C20.2389 46.6439 19.4293 46.3975 18.564 46.377C15.6482 46.3095 13.2956 48.5507 13.2076 51.4635C13.146 53.558 14.4601 55.6759 16.2612 56.4327C18.5258 57.3832 21.6969 56.6674 23.055 54.1241C23.7092 52.9009 24.4132 51.707 25.1055 50.5043C26.8039 47.5504 28.5024 44.5993 30.2096 41.6513C30.7699 40.6832 31.3331 39.7152 31.9227 38.7648C32.263 38.2162 32.7617 38.1018 33.3454 38.3629C33.4452 38.4069 33.542 38.4597 33.6417 38.5066C35.5983 39.4013 37.7983 38.7677 38.96 36.9607C39.3795 36.3066 39.7696 35.6319 40.1568 34.9543C42.615 30.6715 45.0703 26.3858 47.5255 22.1001C47.8922 21.4577 48.2648 20.8182 48.6754 20.1112V20.1083ZM27.6223 35.5116C27.7133 35.3884 27.7983 35.2887 27.8658 35.1772C29.2768 32.7454 30.6672 30.3048 32.1046 27.8906C32.4067 27.3832 32.4185 27.0399 32.1105 26.509C29.3355 21.7481 26.6074 16.9607 23.8588 12.1852C22.2454 9.38081 20.6203 6.58234 19.001 3.778C18.8221 3.46706 18.6402 3.15611 18.4349 2.80411C18.253 3.02118 18.0946 3.20012 17.945 3.39079C16.1615 5.64071 15.2962 8.21918 15.3079 11.0763C15.3196 13.2881 15.9679 15.3356 17.0738 17.2512C19.9016 22.15 22.7118 27.0605 25.5338 31.9622C26.2114 33.1414 26.9095 34.3089 27.6194 35.5146L27.6223 35.5116ZM36.7805 40.9062C36.8391 41.0177 36.8802 41.1027 36.9271 41.1849C38.5405 43.9892 40.148 46.7935 41.7673 49.5979C42.7147 51.2406 43.63 52.9068 44.6361 54.5113C46.3903 57.304 50.28 57.4917 52.3363 55.6818C54.8796 53.4494 54.8239 49.3808 52.1075 47.4154C50.3445 46.1394 48.4496 46.0162 46.5018 47.0165C46.0412 47.2541 45.5719 47.4389 45.038 47.3568C44.29 47.2453 43.7942 46.8141 43.4276 46.1717C42.2161 44.0479 40.9928 41.9329 39.7725 39.815C39.708 39.7064 39.6376 39.6008 39.5555 39.4717C38.7458 40.2256 37.8189 40.6568 36.7805 40.9033V40.9062ZM15.4018 18.7472C15.4135 18.6445 15.4252 18.6152 15.4164 18.5976C15.3636 18.4891 15.3079 18.3805 15.2463 18.2749C13.6212 15.5292 12.8937 12.59 13.2692 9.39841C13.278 9.31628 13.1342 9.15494 13.0374 9.13441C12.7529 9.0728 12.4595 9.0552 12.1691 9.03174C9.38826 8.8352 6.61032 8.63866 3.82945 8.44505C3.70331 8.43625 3.58011 8.44505 3.3601 8.44505C3.64171 8.7824 3.85585 9.04347 4.07585 9.29868C4.94414 10.3195 5.8183 11.3315 6.67779 12.3582C7.2146 13.0006 7.2058 13.3644 6.66606 14.0009C5.6511 15.2007 4.63027 16.3917 3.61531 17.5914C3.55371 17.6648 3.50677 17.7528 3.40997 17.8965C7.47861 17.8877 11.4299 18.3541 15.4018 18.7501V18.7472ZM33.7033 25.0394C34.6273 23.4319 35.5103 21.8977 36.4314 20.296C34.6625 20.4632 32.9817 20.6216 31.2246 20.7859C32.0518 22.2057 32.8526 23.5844 33.7004 25.0394H33.7033ZM48.96 2.81291C48.2736 4.00094 47.6165 5.13617 46.933 6.31833C48.429 6.377 49.8136 6.4298 51.2598 6.48554C50.7083 5.0775 49.9896 3.88653 48.957 2.81291H48.96Z" fill="#07382F"/>
<path d="M24.8413 9.48954C25.4955 9.48954 26.1497 9.52474 26.8009 9.48367C30.0452 9.2754 33.2896 9.07006 36.531 8.82072C41.1276 8.46871 45.7272 8.33084 50.3298 8.66525C52.7352 8.84125 55.1376 9.05539 57.543 9.21966C59.438 9.34873 61.3389 9.425 63.2338 9.5218C63.4714 9.53354 63.712 9.5218 63.9525 9.5218C63.9701 9.557 63.9848 9.58927 64.0024 9.62447C63.8352 9.82101 63.668 10.0205 63.4978 10.2141C62.5973 11.2554 61.6879 12.288 60.7962 13.3352C60.1772 14.0627 60.186 14.4147 60.805 15.1569C61.7583 16.295 62.7205 17.4273 63.6797 18.5655C63.7648 18.6682 63.8469 18.7708 63.9613 18.9117C63.8616 18.9322 63.8029 18.9586 63.7443 18.9557C62.0165 18.8677 60.2887 18.8031 58.5638 18.6799C56.7921 18.5538 55.0232 18.3572 53.2514 18.2135C49.3617 17.8938 45.4632 17.7442 41.5677 17.9407C37.8334 18.1284 34.108 18.457 30.3796 18.7356C30.1391 18.7532 30.0247 18.6682 29.9162 18.4804C28.6489 16.2775 27.3758 14.0745 26.1056 11.8744C25.6744 11.1264 25.2432 10.3813 24.8091 9.63621C24.8208 9.58927 24.8296 9.54234 24.8413 9.4954V9.48954Z" fill="#D8501C"/>
<path d="M15.4018 18.747C11.4299 18.351 7.47862 17.8845 3.40998 17.8933C3.50678 17.7496 3.55078 17.6616 3.61531 17.5883C4.63027 16.3914 5.6511 15.1975 6.66606 13.9978C7.20581 13.3612 7.21461 13.0004 6.6778 12.3551C5.81831 11.3284 4.94415 10.3163 4.07586 9.29552C3.85879 9.04032 3.64465 8.77924 3.36011 8.4419C3.57718 8.4419 3.70332 8.4331 3.82945 8.4419C6.61033 8.6355 9.38827 8.83204 12.1691 9.02858C12.4595 9.04912 12.7558 9.06672 13.0374 9.13125C13.1342 9.15179 13.278 9.31312 13.2692 9.39526C12.8966 12.5868 13.6241 15.529 15.2463 18.2718C15.3079 18.3774 15.3636 18.4859 15.4164 18.5944C15.4252 18.612 15.4135 18.6414 15.4018 18.744V18.747Z" fill="#D8501C"/>
<path d="M21.5825 51.6046C21.603 53.3177 20.1862 54.7756 18.4848 54.7932C16.6603 54.8138 15.2405 53.4028 15.2434 51.5665C15.2434 49.8768 16.6925 48.4512 18.4144 48.4453C20.1481 48.4395 21.5649 49.8504 21.5854 51.6017L21.5825 51.6046ZM17.3701 51.6075C17.376 52.1972 17.8248 52.6548 18.3968 52.6606C18.9512 52.6636 19.4441 52.1737 19.447 51.6193C19.447 51.0033 19.004 50.5897 18.3382 50.5838C17.8219 50.5779 17.3672 51.0649 17.3731 51.6105L17.3701 51.6075Z" fill="#07382F"/>
<path d="M36.3345 35.3149C36.3345 35.881 35.8622 36.368 35.302 36.368C34.7006 36.368 34.2254 35.9104 34.2195 35.3237C34.2137 34.7399 34.7241 34.2383 35.3166 34.2442C35.871 34.2501 36.3316 34.737 36.3345 35.3178V35.3149Z" fill="#07382F"/>
<path d="M49.0126 54.793C47.2643 54.8077 45.8357 53.385 45.8269 51.6191C45.8181 49.8972 47.2408 48.4627 48.9804 48.4392C50.6935 48.4158 52.1426 49.8678 52.166 51.6308C52.1895 53.3468 50.7609 54.7783 49.0097 54.793H49.0126ZM50.0276 51.6425C50.0335 51.0676 49.5934 50.607 49.0361 50.6041C48.3937 50.5982 47.9566 51.0177 47.9595 51.6308C47.9625 52.15 48.4435 52.6428 48.954 52.6575C49.526 52.6722 50.0217 52.2028 50.0276 51.6425Z" fill="#07382F"/>
</svg>
