<svg width="47" height="63" viewBox="0 0 47 63" fill="none" xmlns="http://www.w3.org/2000/svg">
<path d="M0.0127002 23.9785C0.0680664 12.1359 8.67823 2.42547 20.4741 0.851081C32.6717 -0.775835 44.4178 8.00042 46.3727 20.1114C47.1776 25.0944 46.2832 29.8019 44.5201 34.4186C42.3948 39.9822 39.3454 45.0348 35.9071 49.8672C33.0521 53.8806 29.9488 57.6937 26.597 61.3039C25.166 62.8456 23.5689 63.405 21.9832 62.6966C21.2336 62.3615 20.5238 61.7951 19.9786 61.1733C17.764 58.6506 15.5451 56.1265 13.4681 53.4916C9.54989 48.52 6.08169 43.2488 3.42695 37.4808C1.66801 33.6549 0.322183 29.7068 0.0169591 25.4678C-0.018532 24.9737 0.0127002 24.4754 0.0127002 23.9785ZM23.3858 39.5975C32.0073 39.5464 38.9692 32.5433 38.9167 23.9743C38.8656 15.4663 31.8568 8.44335 23.461 8.48878C14.6592 8.53563 7.69299 15.4834 7.75971 24.1489C7.82502 32.7179 14.8352 39.6472 23.3858 39.5975Z" fill="#07382F"/>
<path d="M23.2778 16.2729C27.4772 16.2261 31.0206 19.7184 31.066 23.9475C31.1115 28.1738 27.6461 31.7655 23.4652 31.8252C19.0785 31.8876 15.5166 28.4606 15.4741 24.1364C15.43 19.7851 18.867 16.3212 23.2778 16.2729Z" fill="#07382F"/>
</svg>
