<svg width="83" height="58" viewBox="0 0 83 58" fill="none" xmlns="http://www.w3.org/2000/svg">
<path d="M10.929 30.9102C10.929 25.3103 10.929 19.8456 10.929 14.3808C10.929 12.3441 10.9547 10.3074 10.9204 8.27069C10.9097 7.6554 11.0855 7.33596 11.6707 7.0744C14.9916 5.58654 18.4026 5.68731 21.8499 6.43124C24.6391 7.03153 27.4047 7.7583 30.209 8.27069C33.9543 8.95245 37.5368 8.48937 40.7547 6.25758C40.8362 6.20184 40.9456 6.18469 41.2779 6.06678C41.2779 7.02295 41.2779 7.88694 41.2779 8.75093C41.2693 15.3262 41.2457 21.8994 41.2757 28.4747C41.28 29.3087 40.9713 29.7653 40.3067 30.1791C36.8421 32.3316 33.1011 32.5031 29.2442 31.7248C26.3778 31.146 23.535 30.4407 20.6708 29.8554C17.5171 29.2122 14.4214 29.3601 11.4628 30.7815C11.3406 30.8394 11.1969 30.8501 10.929 30.9145V30.9102Z" fill="#009245"/>
<path d="M7.62371 52.0983C7.62371 49.7186 7.62371 47.4032 7.62371 45.0878C7.62371 33.1828 7.62371 21.2799 7.62371 9.37488C7.62371 8.37368 7.61299 7.37248 7.60227 6.37129C7.59155 5.42798 7.66658 4.55327 6.86048 3.72144C5.98577 2.81886 6.35452 1.29456 7.36858 0.488455C8.30118 -0.251187 9.75473 -0.137561 10.5887 0.73929C11.4741 1.67188 11.4656 3.04183 10.653 4.05589C10.3722 4.40748 10.1128 4.90272 10.1128 5.33365C10.0827 20.6346 10.0849 35.9355 10.0849 51.2365C10.0849 51.4852 10.1128 51.7317 10.1342 52.1005C10.5265 52.1219 10.9039 52.1583 11.2833 52.1626C12.7476 52.1776 14.214 52.1626 15.6783 52.1948C16.6238 52.2162 17.4449 52.6407 17.5821 53.5969C17.7472 54.7524 17.6957 55.9509 17.6271 57.1214C17.6121 57.3744 17.1554 57.6853 16.8381 57.8118C16.5251 57.9361 16.1328 57.8675 15.7769 57.8675C11.0947 57.8697 6.41241 57.8697 1.7323 57.8675C0.0879348 57.8675 -0.00210853 57.7689 3.53642e-05 56.0859C3.53642e-05 55.55 3.53643e-05 55.014 0.00432314 54.478C0.0128987 52.913 0.694656 52.2098 2.29185 52.1755C3.68538 52.1455 5.07891 52.1648 6.47244 52.154C6.81975 52.1519 7.16706 52.1197 7.62585 52.0962L7.62371 52.0983Z" fill="#009245"/>
<path d="M51.929 30.9102C51.929 25.3103 51.929 19.8456 51.929 14.3808C51.929 12.3441 51.9547 10.3074 51.9204 8.27069C51.9097 7.6554 52.0855 7.33596 52.6707 7.0744C55.9916 5.58654 59.4026 5.68731 62.8499 6.43124C65.6391 7.03153 68.4047 7.7583 71.209 8.27069C74.9543 8.95245 78.5368 8.48937 81.7547 6.25758C81.8362 6.20184 81.9456 6.18469 82.2779 6.06678C82.2779 7.02295 82.2779 7.88694 82.2779 8.75093C82.2693 15.3262 82.2457 21.8994 82.2757 28.4747C82.28 29.3087 81.9713 29.7653 81.3067 30.1791C77.8421 32.3316 74.1011 32.5031 70.2442 31.7248C67.3778 31.146 64.535 30.4407 61.6708 29.8554C58.5171 29.2122 55.4214 29.3601 52.4628 30.7815C52.3406 30.8394 52.1969 30.8501 51.929 30.9145V30.9102Z" fill="#D8501C"/>
<path d="M48.6237 52.0983C48.6237 49.7186 48.6237 47.4032 48.6237 45.0878C48.6237 33.1828 48.6237 21.2799 48.6237 9.37488C48.6237 8.37368 48.613 7.37248 48.6023 6.37129C48.5915 5.42798 48.6666 4.55327 47.8605 3.72144C46.9858 2.81886 47.3545 1.29456 48.3686 0.488455C49.3012 -0.251187 50.7547 -0.137561 51.5887 0.73929C52.4741 1.67188 52.4656 3.04183 51.653 4.05589C51.3722 4.40748 51.1128 4.90272 51.1128 5.33365C51.0827 20.6346 51.0849 35.9355 51.0849 51.2365C51.0849 51.4852 51.1128 51.7317 51.1342 52.1005C51.5265 52.1219 51.9039 52.1583 52.2833 52.1626C53.7476 52.1776 55.214 52.1626 56.6783 52.1948C57.6238 52.2162 58.4449 52.6407 58.5821 53.5969C58.7472 54.7524 58.6957 55.9509 58.6271 57.1214C58.6121 57.3744 58.1554 57.6853 57.8381 57.8118C57.5251 57.9361 57.1328 57.8675 56.7769 57.8675C52.0947 57.8697 47.4124 57.8697 42.7323 57.8675C41.0879 57.8675 40.9979 57.7689 41 56.0859C41 55.55 41 55.014 41.0043 54.478C41.0129 52.913 41.6947 52.2098 43.2919 52.1755C44.6854 52.1455 46.0789 52.1648 47.4724 52.154C47.8197 52.1519 48.1671 52.1197 48.6259 52.0962L48.6237 52.0983Z" fill="#D8501C"/>
</svg>
