<svg width="142" height="143" viewBox="0 0 142 143" fill="none" xmlns="http://www.w3.org/2000/svg">
<path d="M93.5231 81.5801L85.4348 89.9523L83.9081 96.3481L64.191 98.1178L62.3572 91.0498L53.843 83.4673L48.1434 68.5961L50.0416 59.5202L57.3088 47.8594L69.8711 42.6025L81.3893 43.3859L94.5205 53.5775L98.0614 68.5515L93.5231 81.5801Z" fill="#DAF96E"/>
<path d="M121.03 78.6484C123.18 76.251 124.39 73.296 126.823 71.1138C128.1 69.9671 133.973 65.7746 135.443 66.7204C136.104 67.4144 135.992 68.4706 135.972 69.3509C135.779 80.1761 126.964 88.4129 122.119 97.4764C121.517 104.606 123.435 112.666 122.981 119.666C122.735 123.459 120.709 125.806 116.941 126.346C115.137 126.603 108.737 127.479 109.602 124.312C110.037 122.721 119.685 124.338 119.513 120.71L118.689 103.382L97.3713 136.255C94.0135 139.057 88.6962 136.619 88.4907 132.298C88.402 130.433 89.6968 129.277 89.943 127.612L46.7324 129.667C45.8375 129.71 45.6914 126.639 46.5863 126.596L92.2097 124.427L117.6 84.5538C118.451 71.4768 114.959 56.2981 115.832 43.4927C116.093 39.6551 119.248 41.1714 119.288 42.0181L121.03 78.6484ZM132.118 71.5259L127.876 74.5899L92.2561 130.765C90.8125 133.691 94.1422 135.384 95.8977 132.821C106.147 114.715 119.792 97.3672 129.769 79.2529C131.121 76.8011 132.449 74.5 132.114 71.5261L132.118 71.5259Z" fill="#303030"/>
<path d="M79.853 95.1377C81.5693 95.3551 86.1323 93.9509 86.8406 95.9925C87.2432 97.1561 87.401 103.155 87.2311 104.574C86.1435 113.692 72.8196 116.616 66.3551 111.599C59.9226 106.607 63.019 98.2159 61.3526 91.2822C42.971 81.8811 41.0296 55.9445 58.8597 44.7817C85.481 28.1136 114.519 63.6481 91.1164 86.701C90.1254 87.6803 87.625 89.0962 87.175 89.6189C86.5706 90.3159 86.6999 93.4975 84.5648 92.5174C81.0243 88.4253 87.8857 85.6104 90.29 83.0075C103.168 69.0507 93.9453 45.3202 74.8866 44.0546C52.9079 42.5937 41.1821 69.6904 57.1237 84.365C58.8113 85.9203 63.192 87.8928 64.1465 89.5665C65.1967 91.4028 64.6731 93.7976 64.9379 95.8515L69.3291 95.6426C69.0057 93.0947 69.7485 90.5928 68.1031 88.4462C66.7997 86.7407 58.6126 82.1133 60.3884 79.3293C61.7754 77.1528 63.8699 80.4212 64.6693 81.1438C69.7137 85.7008 73.7353 87.2419 72.8342 95.4759L76.3481 95.3088C76.3753 93.6631 76.023 91.8948 76.1084 90.2683C76.4152 84.6082 81.1177 83.4569 83.86 79.2682C88.9179 71.5355 85.0957 59.7669 74.7913 65.4407L73.7776 64.6492C72.8988 60.6855 79.3987 60.0686 82.2764 60.855C91.5557 63.3948 90.5789 76.4161 85.4073 82.7736C84.3769 84.0361 79.5069 87.8599 79.5507 88.7812L79.8532 95.1421L79.853 95.1377ZM83.9681 98.4595L65.1046 99.3566C65.0121 107.86 68.3411 111.294 76.8519 110.247C83.483 109.431 84.5405 104.302 83.9681 98.4595Z" fill="#09543D"/>
<path d="M116.602 8.51057C116.815 8.28059 116.062 6.11365 118.55 5.45452L131.066 3.5754C133.108 3.69815 133.798 8.42701 134.175 10.2382C135.155 14.9401 135.972 21.0347 136.376 25.8212C136.519 27.5336 137.051 33.8177 136.719 34.9854C136.546 35.6004 135.791 35.9837 135.213 36.1342C132.507 36.8345 126.319 37.907 123.538 38.1316C120.612 38.3719 121.073 37.1585 120.505 34.7277C118.755 35.8485 110.184 36.0891 109.721 37.7203C109.197 39.5523 110.084 42.8517 109.113 45.5623C107.829 49.1628 102.288 50.9872 98.9246 50.1535C97.9545 46.8581 96.8826 43.5499 95.3639 40.4608C92.8573 35.3654 91.7272 33.8847 86.315 31.9481C83.0362 30.7718 71.3475 28.694 69.7476 27.3192C66.4658 24.5074 69.1774 21.802 68.8648 20.3131C68.7905 19.9517 67.8416 19.8781 67.4573 19.4699C66.3834 18.3383 66.1573 16.2649 66.4726 14.7594C66.8385 13.0229 73.1017 6.31891 75.0198 5.32634C76.9827 4.2569 80.8593 6.1698 82.3231 5.70008C82.9728 5.49331 84.2624 3.58093 85.3454 2.96224C88.5519 1.13897 94.6 3.13326 97.9562 4.36742C103.845 6.53196 105.685 9.89595 112.501 9.18486C113.136 9.11951 116.464 8.66222 116.607 8.51036L116.602 8.51057ZM117.185 12.0706C113.918 11.694 110.826 13.2436 107.565 12.726C104.898 12.2989 100.016 8.67063 96.782 7.50541C94.9747 6.85271 88.8554 5.02448 87.3262 5.59844C86.7559 5.81023 86.5058 6.28379 86.6485 6.87936C88.2511 7.01858 94.784 9.31518 95.4038 10.4201C95.9128 11.3236 95.6363 12.7217 94.548 13.0417C93.7848 13.2671 88.2641 10.6189 86.7882 10.1879C83.7118 9.29216 74.8464 6.57888 74.0976 10.9893C76.0621 11.1553 78.2914 11.4362 80.1995 11.895C82.1608 12.3645 90.8065 14.5255 91.0932 16.5783C91.6478 20.5662 84.6268 16.5121 82.7812 15.98C80.9356 15.4478 71.9228 13.5197 70.9431 14.1819C69.6907 15.0285 68.6969 16.597 70.6277 17.3494C73.0243 18.2818 78.0151 18.5677 80.9889 19.3408C82.5293 19.7424 89.4025 20.9676 87.7015 23.5678C86.7506 25.02 80.7693 22.6752 79.1295 22.3091C78.032 22.0668 73.3082 21.0163 72.6761 21.2223C71.7149 21.5362 71.26 23.9892 71.8681 24.7561C73.1498 26.3748 90.2737 26.8047 95.6152 34.1878C98.1378 37.6776 99.9245 42.5171 101.353 46.5733C109.21 48.0551 105.083 36.2525 107.059 34.4526C108.526 33.121 119.247 32.4045 119.906 31.6564L117.194 12.0702L117.185 12.0706ZM133.189 33.2451C132.956 24.5593 132.059 15.8655 129.988 7.43869L129.492 7.08855L120.188 8.83688L124.047 34.5196L133.189 33.2451Z" fill="#09543D"/>
<path d="M37.7351 124.841C39.325 124.62 40.8169 124.743 40.8883 126.612C40.9233 127.534 38.7275 138.406 38.3235 139.432C37.5231 141.462 34.1438 140.576 32.1716 140.433C27.1288 140.07 21.3767 139.306 16.3999 138.391C14.5725 138.056 6.73934 136.801 6.20883 135.261C5.45818 133.068 8.38873 123.963 8.40959 121.074C9.08526 119.472 10.9964 120.551 11.1516 120.394C11.3427 118.032 12.1663 115.474 12.1458 113.101C12.1132 109.549 10.694 109.199 9.40378 106.385C7.60353 102.461 3.79006 92.8154 5.94319 88.9977C6.48659 88.0354 8.84578 86.2392 8.95069 85.4868C9.08549 84.5306 8.18385 81.6585 8.37615 79.8774C8.67232 77.1373 15.4385 71.1173 17.8968 70.4816C21.8363 69.4632 22.2863 72.4536 23.6767 72.6601C25.1557 72.8799 27.4717 70.0833 30.2415 72.8535C32.0602 74.6708 33.0261 82.9612 33.8337 85.9829C36.4396 95.7518 37.7702 97.1043 47.0143 101.031C48.4412 101.635 53.0141 102.566 53.3953 103.739C53.2992 107.265 51.9398 112.518 47.9467 113.332C46.2788 113.671 40.3039 113.217 39.6509 114.184C39.3469 114.634 37.3357 124.486 37.7482 124.84L37.7351 124.841ZM20.3121 73.8402L17.3766 74.4282C17.3135 78.8324 18.3226 83.2252 19.4694 87.4619C19.8911 89.0247 21.9834 93.0801 21.3633 94.0945L19.4744 94.8703C17.6501 94.5085 15.7089 86.5108 15.3042 84.657C14.7877 82.3029 14.3099 80.0217 14.3875 77.5866C10.0234 78.4581 12.0921 85.5308 12.8431 88.7487C13.2737 90.5925 16.271 97.6827 15.6444 98.6534C15.0179 99.6241 13.3864 99.2488 12.7882 98.5034C11.6337 97.0634 10.0726 89.9401 9.68639 89.6771C7.215 91.7952 9.54573 97.7211 10.532 100.523C11.9347 104.502 15.68 109.107 15.6275 112.904C15.6103 114.206 14.134 120.516 14.7189 121.073L34.1836 124.126L37.1817 110.894C41.5383 109.311 49.4963 113.096 49.6125 105.647C44.8165 103.356 37.8858 101.478 34.6513 97.0723C32.0184 93.4823 30.9203 87.7747 29.8266 83.4519C29.0409 80.3368 28.8081 70.9123 24.4498 76.897C24.1392 79.7961 27.8476 88.7122 27.272 90.7534C26.9824 91.7828 25.2094 91.8539 24.4742 91.1854C22.6953 89.5596 21.0892 74.278 20.3121 73.8402ZM9.57928 133.65L34.9794 137.252C35.5415 137.054 37.2767 128.978 36.9905 128.231C36.5287 127.026 14.5353 124.608 11.5886 123.851L9.57928 133.65Z" fill="#09543D"/>
<path d="M25.9513 39.4217L45.7085 17.9315C46.2671 17.5664 46.9009 17.5802 47.5342 17.4929C49.5127 17.2142 59.1751 16.6227 60.6343 16.9798C62.2624 17.3773 62.5035 20.3204 60.8847 20.3974L48.3822 20.992L49.0602 35.2493C49.1564 37.2717 45.987 40.8915 43.8374 40.9937L29.5801 41.6718L30.8006 67.3349C30.8129 67.5937 29.7207 69.2197 29.2991 69.3233L27.3329 68.3792L25.9559 39.4259L25.9513 39.4217ZM32.0407 38.0329L43.6659 37.48C43.894 37.4692 45.5755 36.0306 45.567 35.8507L44.9933 23.7869L32.0407 38.0329Z" fill="#303030"/>
<path d="M66.6509 67.1868C64.2068 67.2899 61.9843 67.8924 61.2075 70.4179C60.7088 72.0421 61.3831 76.0507 59.1061 75.6929C55.8325 75.1803 58.2643 67.7923 60.4267 65.9264C67.451 59.8809 76.6815 68.5125 74.0424 76.6269C72.5312 81.2759 66.8436 80.7593 65.5282 76.0294C64.5629 72.5579 65.5123 70.3319 66.6464 67.1826L66.6509 67.1868ZM69.6324 69.6919C68.0338 71.6717 67.8284 75.0274 69.9654 76.6933C71.8371 75.9272 70.8212 69.6353 69.6324 69.6919Z" fill="#09543D"/>
<path d="M127.815 29.9168C127.061 29.4867 127.067 27.3979 128.36 26.9451C131.56 25.83 130.599 31.5036 127.815 29.9168Z" fill="#09543D"/>
<path d="M32.3877 133.827C31.6529 135.111 28.2954 133.943 29.4829 131.824C30.6704 129.706 33.346 132.159 32.3877 133.827Z" fill="#09543D"/>
</svg>
