<svg width="299" height="330" viewBox="0 0 299 330" fill="none" xmlns="http://www.w3.org/2000/svg">
<g clip-path="url(#clip0_150_1771)">
<path d="M281.483 92.5476C292 93.6424 299.834 99.7257 298.504 111.159C297.828 116.971 293.353 120.481 289.791 124.578C293.849 126.79 295.472 128.731 296.576 133.235C298.493 141 297.196 148.076 291.042 153.415C302.122 161.067 301.446 177.545 290.208 184.768C298.211 189.802 299.789 201.833 294.131 209.191C289.272 215.501 282.047 217.882 274.517 219.225C272.996 226.595 273.942 236.425 269.761 242.881C261.712 255.273 243.711 248.095 231.639 249.021C214.81 264.291 190.056 267.779 168.11 269.438C161.076 269.968 154.46 269.449 147.426 271.3C137.608 273.885 129.594 282.282 120.813 287.078C118.773 299.437 116.293 313.522 106.295 322.077C81.1693 343.611 34.6951 316.682 17.8435 294.877C9.61494 284.234 1.23988 265.905 0.11268 252.441C-0.687629 242.847 3.86624 241.82 11.4635 238.412C31.5276 229.428 52.7415 222.859 72.8506 213.345C79.1291 210.377 92.4639 204.835 95.1466 198.458C98.1224 191.382 99.8921 181.495 102.338 173.888C107.084 159.08 112.28 146.079 121.985 133.776C124.826 130.176 131.623 124.104 132.378 119.939C133.054 116.215 132.603 111.994 132.817 108.247C134.294 81.2839 135.083 54.0952 136.582 27.1661C137.044 18.9497 135.534 8.96131 142.883 3.37459C150.864 -2.68615 166.949 1.37692 176.474 0.60945C207.077 4.05177 239.112 3.87119 269.558 7.74239C278.248 8.84845 284.256 13.4984 285.237 22.5613L281.517 92.5363L281.483 92.5476ZM261.803 130.233C247.656 122.174 254.047 104.082 267.236 99.0937L271.835 35.1455C271.913 32.6625 271.868 30.6536 270.504 28.5092C268.228 24.9314 263.685 24.8411 259.92 24.48C241.479 22.708 222.136 22.2001 203.572 21.1279C190.169 20.3492 176.079 18.9271 162.666 18.6111C154.865 18.4192 150.571 20.5749 149.917 28.8703C148.598 45.7772 148.779 64.4335 148.226 81.5209C148.057 86.8819 148.226 92.2767 147.832 97.6264C150.729 95.245 151.54 92.8975 155.666 92.2993C173.115 89.7599 179.495 109.15 178.255 123.28C176.88 139.002 168.087 146.079 161.02 158.268C156.567 165.931 159.746 170.355 161.065 178.222C163.139 190.603 164.187 201.946 159.104 213.83L254.138 220.907C255.84 220.918 259.356 218.39 258.827 216.629C258.646 216.02 253.394 212.419 252.266 210.625C249.572 206.37 250.147 200.309 252.706 196.145C254.25 193.628 256.595 192.759 258.026 190.197C245.672 184.102 246.98 167.985 257.632 160.931C252.796 155.299 249.708 149.679 252.086 142.015C253.777 136.542 258.274 134.228 261.803 130.221V130.233ZM223.399 248.118C198.668 246.628 174.039 245.025 149.297 243.931C147.64 243.852 145.769 243.073 143.954 243.603C142.782 243.953 141.452 246.741 139.242 246.854C137.619 246.944 135.748 245.522 135.85 243.784C135.906 242.791 141.407 235.139 142.478 233.344C152.983 215.704 158.799 202.228 155.643 181.145C154.178 171.337 150.007 164.554 155.846 155.187C165.315 139.973 180.002 123.359 168.628 104.184C165.608 99.0937 158.608 94.2293 153.93 100.166C150.402 104.635 147.55 111.858 143.999 116.982C136.12 128.359 124.792 137.636 118.119 150.017C109.721 165.581 106.802 184.113 100.85 200.445C97.6039 209.349 81.3384 215.896 72.9746 219.767C66.8427 222.6 60.5417 225.241 54.3083 227.836C40.6241 233.536 24.0994 238.344 11.1705 244.834C7.98051 246.436 5.78248 246.922 5.87265 250.849C5.99664 256.289 9.35569 266.413 11.4185 271.627C18.8354 290.306 35.6532 307.687 54.0377 315.723C72.9295 308.59 90.9196 298.071 108.143 287.575C116.947 282.214 125.57 275.939 134.35 270.758C148.779 262.26 159.442 264.697 175.178 263.151C189.797 261.707 205.195 258.276 218.248 251.515L223.388 248.107L223.399 248.118ZM280.063 98.9808C276.67 99.5564 265.488 106.486 263.054 109.127C258.567 114.003 258.545 122.039 264.575 125.571C270.606 129.104 285.135 121.418 289.362 116.655C296.734 108.348 291.098 97.096 280.063 98.9808ZM280.897 129.07C279.443 129.318 272.015 132.546 270.155 133.37C264.237 136.011 256.775 140.424 257.204 147.975C257.44 152.23 260.957 156.484 265.353 156.597C269.253 156.688 283.614 151.281 286.815 148.799C294.638 142.715 292.699 127.05 280.897 129.081V129.07ZM281.731 158.335C280.796 158.527 279.871 159.408 278.913 159.69C271.947 161.812 259.075 164.024 256.043 171.495C253.01 178.967 257.609 185.648 265.353 186.246C270.403 186.63 285.857 181.427 289.374 177.703C295.889 170.796 293.037 156.01 281.731 158.335ZM280.063 189.271C276.715 189.756 268.983 192.059 265.759 193.346C258.737 196.145 251.917 204.395 260.157 210.264C267.123 215.218 280.119 213.582 286.635 208.401C295.337 201.472 292.631 187.443 280.063 189.282V189.271ZM188.625 227.712C185.311 228.773 185.311 232.238 187.881 234.123C189.921 235.624 199.187 235.387 202.309 235.568C205.014 235.726 207.923 236.121 210.628 236.403C215.035 234.834 215.531 230.635 210.977 228.976L188.614 227.712H188.625Z" fill="black"/>
<path d="M261.802 130.233C258.274 134.239 253.777 136.553 252.086 142.027C249.708 149.701 252.796 155.311 257.632 160.943C246.98 167.997 245.661 184.113 258.026 190.208C256.595 192.759 254.25 193.639 252.706 196.156C250.147 200.32 249.572 206.37 252.266 210.636C253.393 212.419 258.646 216.031 258.827 216.64C259.356 218.401 255.828 220.929 254.137 220.918L159.104 213.841C164.187 201.957 163.128 190.626 161.065 178.233C159.746 170.367 156.567 165.942 161.02 158.279C168.099 146.079 176.879 139.013 178.255 123.292C179.494 109.161 173.115 89.7712 155.666 92.3106C151.54 92.9088 150.74 95.2451 147.832 97.6378C148.226 92.2768 148.057 86.8932 148.226 81.5322C148.778 64.456 148.598 45.7998 149.917 28.8816C150.571 20.5749 154.865 18.4305 162.665 18.6224C176.079 18.9497 190.158 20.3718 203.571 21.1392C222.136 22.2114 241.479 22.7193 259.92 24.4913C263.685 24.8524 268.227 24.954 270.504 28.5205C271.868 30.6762 271.925 32.6738 271.834 35.1568L267.235 99.105C254.047 104.094 247.656 122.197 261.802 130.244V130.233Z" fill="#D2FA52"/>
<path d="M223.399 248.118L218.259 251.526C205.195 258.276 189.797 261.718 175.189 263.163C159.453 264.709 148.779 262.271 134.362 270.769C125.581 275.95 116.958 282.225 108.154 287.586C90.9309 298.082 72.9409 308.601 54.0491 315.734C35.6645 307.698 18.8468 290.317 11.4298 271.639C9.35579 266.424 6.00801 256.3 5.88402 250.86C5.79385 246.933 7.99188 246.448 11.1818 244.845C24.1108 238.355 40.6355 233.536 54.3196 227.848C60.553 225.252 66.854 222.611 72.986 219.778C81.3498 215.907 97.6152 209.361 100.862 200.456C106.824 184.125 109.744 165.604 118.13 150.029C124.803 137.648 136.132 128.37 144.011 116.994C147.561 111.87 150.402 104.646 153.941 100.177C158.63 94.2405 165.63 99.1049 168.64 104.195C180.013 123.37 165.326 139.984 155.857 155.198C150.019 164.565 154.189 171.348 155.655 181.156C158.811 202.239 152.994 215.715 142.489 233.355C141.418 235.15 135.917 242.802 135.861 243.795C135.76 245.533 137.631 246.955 139.254 246.865C141.463 246.741 142.793 243.953 143.966 243.615C145.78 243.084 147.651 243.863 149.308 243.942C174.05 245.048 198.668 246.639 223.41 248.129L223.399 248.118Z" fill="white"/>
<path d="M281.731 158.335C293.037 156.01 295.889 170.784 289.374 177.703C285.857 181.427 270.403 186.641 265.353 186.246C257.609 185.648 253.056 178.865 256.043 171.495C259.03 164.125 271.947 161.812 278.913 159.69C279.872 159.396 280.796 158.527 281.731 158.335Z" fill="white"/>
<path d="M280.897 129.07C292.699 127.05 294.638 142.715 286.815 148.787C283.614 151.282 269.242 156.688 265.353 156.586C260.957 156.485 257.44 152.23 257.204 147.963C256.775 140.413 264.237 136 270.155 133.359C272.004 132.535 279.432 129.307 280.897 129.059V129.07Z" fill="white"/>
<path d="M280.063 189.271C292.631 187.432 295.337 201.46 286.635 208.39C280.119 213.582 267.123 215.207 260.157 210.252C251.906 204.395 258.737 196.145 265.759 193.334C268.983 192.048 276.727 189.756 280.063 189.26V189.271Z" fill="white"/>
<path d="M280.063 98.9808C291.098 97.096 296.734 108.348 289.362 116.655C285.135 121.418 270.583 129.093 264.575 125.571C258.567 122.05 258.579 113.992 263.054 109.127C265.488 106.486 276.659 99.5564 280.063 98.9808Z" fill="white"/>
<path d="M188.625 227.712L210.989 228.976C215.542 230.635 215.035 234.845 210.639 236.403C207.934 236.132 205.014 235.726 202.32 235.568C199.198 235.387 189.944 235.624 187.892 234.123C185.311 232.227 185.311 228.773 188.636 227.712H188.625Z" fill="white"/>
</g>
<defs>
<clipPath id="clip0_150_1771">
<rect width="299" height="330" fill="white"/>
</clipPath>
</defs>
</svg>
