<svg width="342" height="316" viewBox="0 0 342 316" fill="none" xmlns="http://www.w3.org/2000/svg">
<g clip-path="url(#clip0_150_1735)">
<path d="M170.994 316C265.432 316 341.988 307.983 341.988 298.093C341.988 288.203 265.432 280.185 170.994 280.185C76.5567 280.185 0 288.203 0 298.093C0 307.983 76.5567 316 170.994 316Z" fill="black"/>
<path d="M72.8468 60.6871L73.4184 59.4155C74.6899 42.1614 71.4704 21.944 73.815 5.05145C73.9783 3.8965 74.3166 2.41491 75.2614 1.69161C78.2476 -0.583286 88.2444 1.71494 92.1171 0.42L94.6483 0.769983C126.47 0.653322 158.291 0.863312 190.113 0.769983C211.775 0.711653 233.903 -0.618284 255.587 0.361669C257.221 0.431666 259.973 0.548327 261.467 0.769983C265.922 1.43495 264.826 7.69965 265.013 10.9195C265.048 11.6428 265.363 12.3428 265.398 13.1244C265.981 28.8037 264.779 44.6462 265.561 60.3255L265.922 60.5821C268.699 59.7422 271.755 60.6171 274.426 60.6871C280.154 60.8388 287.514 60.0105 292.95 60.6638C297.406 61.2004 299.529 69.3784 301.313 73.0182C307.531 85.641 314.063 98.112 320.105 110.828C319.989 114.211 319.907 117.676 319.207 120.989C317.562 128.771 310.949 136.657 303.086 138.582L303.285 273.034C304.078 274.364 312.698 273.605 314.751 273.78C317.516 274.014 320.117 274.434 320.502 277.654C321.26 284.082 319.989 292.073 320.409 298.664C320.012 300.041 319.289 300.916 317.912 301.347L25.1145 301.534C23.2948 301.347 21.9184 300.192 21.6384 298.361C21.0785 294.721 21.1485 281.445 21.6034 277.654C21.7201 276.685 22.2916 275.285 23.0965 274.714C23.5164 274.422 25.8377 273.78 26.2343 273.78H39.7305L39.3689 139.667C39.1706 138.628 35.5545 137.672 34.3064 136.96C28.9056 133.88 24.3796 127.149 23.1898 121.071C20.9035 109.288 25.8144 104.68 30.422 94.8572C33.6998 87.8925 36.9776 80.8928 40.1621 73.8932C41.3636 71.245 43.8132 63.452 45.6562 62.0054C46.2045 61.5738 48.5724 60.6988 49.1557 60.6988H72.8352L72.8468 60.6871ZM258.352 7.408H80.0557V61.0488H258.725V8.32962C258.725 8.21296 258.235 7.76965 258.352 7.408ZM79.5074 67.7101H50.2871L31.6001 107.853C31.5185 108.612 31.6351 108.332 32.1484 108.402C35.7761 108.915 42.2968 108.483 46.2278 108.413C47.2776 108.402 48.1875 108.028 49.1557 108.005C54.5098 107.912 59.8756 108.145 65.2297 107.982L80.0557 68.5968C80.1023 68.2701 79.7524 67.7685 79.5074 67.6985V67.7101ZM72.6602 108.04H108.914L118.165 68.0835C107.865 67.3952 97.3896 67.6751 87.0896 67.8851L72.6719 108.028L72.6602 108.04ZM151.817 68.0835L124.487 67.7451L115.575 108.028H148.12L151.817 68.0718V68.0835ZM184.374 67.7101H158.105C156.868 77.323 156.53 87.0642 155.877 96.7471C155.679 99.722 154.64 104.738 155.142 107.48C155.212 107.9 155.329 108.168 155.702 108.402H187.138C187.208 108.402 188.445 107.947 188.457 107.818L184.362 67.6985L184.374 67.7101ZM218.727 67.7568L190.661 68.0718L195.455 108.227L228.385 108.028L218.715 67.7568H218.727ZM253.919 67.7101H225.807C225.656 69.2384 226.064 70.685 226.356 72.1549C228.723 84.1127 232.643 96.4788 235.781 108.238L269.084 108.04L253.919 67.7218V67.7101ZM311.252 108.402L291.457 67.7101H262.236C261.98 67.7101 261.723 68.3401 261.665 68.6434C261.443 69.9384 263.671 75.8531 264.266 77.5213C267.952 87.8925 272.56 97.9837 276.106 108.402H311.252ZM106.686 114.701L71.5404 114.888C72.8818 139.072 106.01 139.153 106.686 114.701ZM146.825 115.063C137.598 116.136 124.009 115.063 114.269 115.063C114.152 115.063 113.744 114.55 113.347 114.69C114.14 139.258 146.872 139.177 147.746 114.69C147.338 114.55 146.988 115.04 146.825 115.063ZM188.818 114.69H154.979C154.687 119.858 156.53 125.282 160.519 128.759C172.522 139.2 189.075 129.587 188.83 114.69H188.818ZM229.878 114.701C218.412 114.235 206.934 115.763 195.479 114.701C195.689 122.039 199.13 128.747 206.07 131.664C218.178 136.762 229.657 127.114 229.878 114.701ZM270.927 114.701L236.527 115.063C235.641 128.852 251.05 137.928 262.761 130.381C268.022 126.986 270.798 120.861 270.927 114.69V114.701ZM312.733 115.063L278.474 114.713L277.634 115.273C278.485 139.177 313.072 139.083 312.733 115.063ZM64.8915 115.063H29.0106C30.3987 139.9 63.0951 139.375 64.8915 115.063ZM46.4028 273.769H197.695C197.788 264.587 197.578 255.383 197.683 246.19C197.683 245.222 198.08 244.323 198.092 243.262C198.337 217.083 196.692 189.236 198.057 163.326C198.138 161.821 198.407 157.994 199.025 156.898C199.736 155.638 201.276 154.984 202.676 155.008C224.956 155.976 248.239 153.783 270.402 155.008C273.855 155.194 277.494 155.089 277.972 159.277C278.684 165.565 277.879 174.14 277.961 180.755C278.159 196.854 278.322 213.082 278.369 229.181C278.404 244.043 278.31 258.918 278.345 273.78H296.099L296.473 139.853C287.281 140.192 278.859 136.272 274.461 128.024C265.304 143.342 242.138 143.983 233.028 128.397C226.927 137.45 217 141.498 206.269 138.873C199.736 137.275 195.934 133.927 192.329 128.397C190.416 130.287 189.25 132.527 187.162 134.324C178.985 141.323 166.947 141.323 158 135.724C154.792 133.705 153.812 130.999 151.269 128.409C149.729 129.517 148.995 131.314 147.758 132.667C139.301 141.953 121.547 142.385 113.359 132.655C112.682 131.85 110.839 128.257 109.883 128.432C108.564 129.657 107.865 131.325 106.71 132.679C98.5794 142.175 80.1257 142.175 71.9253 132.679C71.1088 131.734 69.1141 128.036 68.0526 128.036C63.62 135.84 55.0347 140.542 46.0412 140.25L46.4144 273.804L46.4028 273.769ZM204.717 162.229V273.769H271.673V162.042L204.717 162.229ZM313.841 294.861V281.363C313.841 281.27 314.273 281.072 314.051 280.803L312.932 280.418C221.853 279.52 130.529 281.678 39.5672 280.418C35.7995 280.372 32.0317 280.488 28.264 280.43V294.861H313.83H313.841Z" fill="black"/>
<path d="M46.4026 273.769L46.0293 140.215C55.0345 140.507 63.6081 135.817 68.0408 128.001C69.1023 128.001 71.0853 131.687 71.9135 132.644C80.1255 142.14 98.5675 142.14 106.698 132.644C107.864 131.291 108.553 129.622 109.871 128.397C110.827 128.222 112.682 131.827 113.347 132.62C121.535 142.362 139.301 141.93 147.746 132.632C148.983 131.279 149.706 129.494 151.257 128.374C153.8 130.964 154.78 133.682 157.988 135.689C166.935 141.3 178.973 141.288 187.15 134.289C189.238 132.504 190.416 130.252 192.317 128.362C195.922 133.88 199.725 137.229 206.257 138.839C216.977 141.475 226.915 137.427 233.016 128.362C242.126 143.96 265.292 143.307 274.449 127.989C278.847 136.237 287.269 140.157 296.461 139.818L296.087 273.745H278.334C278.287 258.883 278.38 244.009 278.357 229.146C278.322 213.047 278.147 196.807 277.949 180.72C277.867 174.117 278.684 165.542 277.96 159.243C277.482 155.043 273.854 155.159 270.39 154.973C248.227 153.748 224.944 155.941 202.664 154.973C201.253 154.961 199.725 155.614 199.013 156.863C198.395 157.959 198.127 161.786 198.045 163.291C196.68 189.201 198.325 217.048 198.08 243.227C198.08 244.289 197.683 245.187 197.672 246.155C197.578 255.348 197.777 264.541 197.683 273.734H46.4026V273.769ZM88.4891 155.124C82.3651 155.218 72.5784 154.623 66.9559 155.416C63.5265 155.906 63.1999 158.951 63.0249 161.844C61.4268 186.856 64.658 213.292 63.3982 238.455C63.7714 242.714 64.728 244.51 69.1489 244.907C76.8943 245.607 85.0714 244.58 92.7934 244.522C121.396 244.312 150.114 245 178.658 244.195C180.711 243.25 181.236 241.29 181.423 239.19C182.741 223.826 180.396 206.619 181.423 191.068C180.186 181.303 181.749 170.862 181.049 161.109C180.734 156.676 179.871 155.369 175.31 155.008C146.37 155.229 117.418 154.704 88.4775 155.124H88.4891Z" fill="white"/>
<path d="M204.717 162.229L271.673 162.042V273.769H204.717V162.229ZM217.56 205.055C210.071 206.444 210.503 222.391 212.474 227.723C215.484 235.842 223.754 234.326 226.612 227.046C228.49 222.251 228.373 211.32 224.711 207.354C222.903 205.394 220.185 204.565 217.56 205.055Z" fill="white"/>
<path d="M258.352 7.40796C258.235 7.76961 258.725 8.21292 258.725 8.32958V61.0488H80.0557V7.40796H258.352ZM118.421 27.2753C120.812 25.3621 118.106 20.9523 116.275 19.4591C108.669 13.2643 94.6833 17.4991 96.4214 28.582C97.7162 36.8182 107.351 36.1649 111.481 39.7931C116.322 44.0396 109.393 49.8376 104.295 45.8711C102.242 44.2729 100.691 39.6648 97.0979 42.0096C92.8986 44.7512 98.731 51.0509 101.752 52.4858C116.625 59.5788 128.406 41.648 113.837 33.3651C111.142 31.8368 107.491 31.4752 105.24 29.7602C100.971 26.5054 106.08 21.174 111.259 24.4755C112.775 25.4438 114.175 28.162 116.03 28.0336C116.508 27.9986 118.071 27.5553 118.433 27.2637L118.421 27.2753ZM165.792 16.7525C146.965 19.3074 148.33 55.0874 169.758 54.0141C192.236 52.8825 190.708 13.3693 165.792 16.7525ZM194.639 16.7525C193.029 17.0208 191.443 17.9891 191.396 19.7974C192.084 29.4452 190.51 40.2831 191.396 49.791C191.653 52.5092 194.032 54.3641 196.669 53.1858C201.078 51.2259 196.879 43.4212 199.538 40.5164C203.831 38.3815 206.327 47.4694 207.995 50.1993C209.383 52.4742 212.078 55.519 214.726 52.7308C218.365 48.9043 211.553 43.3746 211.005 39.4198C211.786 37.7749 213.419 37.1449 214.656 35.64C219.753 29.3986 216.954 19.7157 209.173 17.5691C206.129 16.7292 197.707 16.2275 194.639 16.7408V16.7525ZM143.979 17.1375C139.149 17.2658 131.194 16.7408 126.878 17.4175C124.662 17.7675 124.079 19.9724 124.534 21.9439C125.478 26.0971 132.629 22.3872 133.539 25.1521L133.725 50.8642C134.262 54.2591 139.733 54.854 140.654 51.5409C141.902 47.0144 141.203 34.73 141.121 29.4102C141.098 27.6953 140.106 26.0387 141.622 24.3938C143.314 23.1105 149.438 25.6188 150.266 21.9439C151.421 16.8458 147.653 17.0325 143.979 17.1375ZM231.406 38.9065C235.034 38.5798 242.29 40.3881 240.89 34.31C239.922 30.0752 232.806 33.1901 231.336 31.6501C230.473 30.7402 229.983 24.7205 231.978 24.1255C234.672 23.3205 243.001 25.6421 243.853 21.9439C244.448 19.3191 243.479 17.6275 240.808 17.3825C237.495 17.0792 229.563 16.9858 226.344 17.3825C224.431 17.6158 223.626 19.0974 223.568 20.894C224.291 30.1452 222.669 40.668 223.579 49.7676C223.719 51.2025 224.186 52.7775 225.714 53.1741C228.49 53.9091 238.184 54.0257 241.123 53.6174C245.217 53.0458 245.322 47.3294 242.476 46.4194L231.15 46.2794C230.8 43.7012 230.123 41.3563 231.406 38.9065Z" fill="#D2FA52"/>
<path d="M313.842 294.861H28.2759V280.43C32.0319 280.488 35.8113 280.36 39.5791 280.418C130.529 281.678 221.865 279.52 312.943 280.418L314.063 280.803C314.285 281.072 313.853 281.27 313.853 281.363V294.861H313.842Z" fill="white"/>
<path d="M72.6601 108.04L87.0778 67.8967C97.3778 67.6751 107.864 67.4068 118.153 68.0951L108.903 108.052H72.6484L72.6601 108.04Z" fill="white"/>
<path d="M311.252 108.402H276.106C272.548 97.9721 267.952 87.8926 264.266 77.5214C263.671 75.8531 261.455 69.9384 261.665 68.6435C261.723 68.3285 261.98 67.7102 262.236 67.7102H291.457L311.252 108.402Z" fill="white"/>
<path d="M79.5077 67.7102C79.7526 67.7802 80.1026 68.2818 80.0559 68.6085L65.23 107.993C59.8875 108.157 54.51 107.912 49.1559 108.017C48.1877 108.04 47.2895 108.402 46.228 108.425C42.297 108.483 35.7647 108.915 32.1486 108.413C31.6354 108.343 31.5187 108.623 31.6004 107.865L50.2874 67.7219H79.5077V67.7102Z" fill="white"/>
<path d="M253.919 67.7102L269.084 108.028L235.781 108.227C232.643 96.4671 228.735 84.101 226.355 72.1433C226.064 70.6733 225.656 69.2267 225.807 67.6985H253.919V67.7102Z" fill="white"/>
<path d="M218.727 67.7568L228.385 108.04L195.455 108.238L190.661 68.0835L218.727 67.7568Z" fill="white"/>
<path d="M184.374 67.7102L188.468 107.83C188.468 107.958 187.22 108.413 187.15 108.413H155.713C155.352 108.18 155.235 107.9 155.154 107.492C154.652 104.75 155.69 99.7337 155.888 96.7588C156.542 87.076 156.88 77.3347 158.116 67.7219H184.386L184.374 67.7102Z" fill="white"/>
<path d="M151.818 68.0834L148.12 108.04H115.575L124.487 67.7451L151.818 68.0834Z" fill="white"/>
<path d="M64.8916 115.063C63.0953 139.375 30.3989 139.9 29.0107 115.063H64.8916Z" fill="white"/>
<path d="M312.733 115.063C313.071 139.083 278.485 139.188 277.634 115.273L278.474 114.713L312.733 115.063Z" fill="white"/>
<path d="M106.687 114.701C106.01 139.165 72.882 139.072 71.5405 114.888L106.687 114.701Z" fill="white"/>
<path d="M270.927 114.701C270.798 120.873 268.022 126.997 262.761 130.392C251.05 137.94 235.641 128.852 236.527 115.075L270.927 114.713V114.701Z" fill="white"/>
<path d="M229.878 114.701C229.657 127.114 218.179 136.762 206.071 131.664C199.13 128.736 195.689 122.039 195.479 114.701C206.934 115.763 218.412 114.235 229.878 114.701Z" fill="white"/>
<path d="M146.825 115.063C146.988 115.04 147.338 114.561 147.747 114.69C146.883 139.177 114.14 139.258 113.347 114.69C113.744 114.55 114.152 115.063 114.269 115.063C124.009 115.063 137.587 116.136 146.825 115.063Z" fill="white"/>
<path d="M188.818 114.69C189.075 129.576 172.511 139.2 160.508 128.759C156.518 125.282 154.687 119.858 154.967 114.69H188.806H188.818Z" fill="white"/>
<path d="M88.4891 155.124C117.429 154.704 146.381 155.229 175.322 155.008C179.883 155.369 180.734 156.676 181.061 161.109C181.761 170.862 180.198 181.303 181.434 191.068C180.396 206.619 182.752 223.838 181.434 239.19C181.259 241.29 180.734 243.25 178.67 244.195C150.126 245 121.407 244.312 92.8051 244.522C85.083 244.58 76.8943 245.607 69.1606 244.907C64.7396 244.51 63.7831 242.714 63.4098 238.455C64.6579 213.292 61.4385 186.856 63.0365 161.844C63.2232 158.951 63.5381 155.906 66.9676 155.416C72.59 154.623 82.3651 155.206 88.5008 155.124H88.4891ZM174.75 237.884L174.33 162.649C173.98 161.599 169.863 162.112 168.65 162.042C162.316 161.634 156.437 162.042 150.173 162.066C123.227 162.194 96.2695 161.926 69.3239 162.042L70.0704 237.884H174.75Z" fill="black"/>
<path d="M217.56 205.055C220.185 204.565 222.891 205.394 224.711 207.354C228.385 211.32 228.49 222.251 226.612 227.046C223.754 234.326 215.484 235.842 212.474 227.723C210.503 222.391 210.071 206.444 217.56 205.055ZM219.508 211.997C218.073 210.888 217.572 221.015 217.642 221.819C217.805 223.546 219.508 227.058 220.453 224.223C221.619 220.711 221.246 215.31 219.508 212.008V211.997Z" fill="black"/>
<path d="M165.792 16.7526C190.708 13.3694 192.236 52.8942 169.758 54.0142C148.318 55.0874 146.965 19.3075 165.792 16.7526ZM167.262 23.7756C156.798 25.5488 157.766 47.6678 169.385 47.0028C181.668 46.2912 181.318 21.384 167.262 23.7756Z" fill="black"/>
<path d="M194.639 16.7526C197.707 16.2393 206.117 16.7526 209.173 17.5809C216.953 19.7275 219.753 29.4103 214.656 35.6517C213.431 37.1566 211.786 37.7866 211.004 39.4315C211.553 43.3863 218.353 48.9161 214.725 52.7426C212.089 55.5191 209.395 52.4859 207.995 50.211C206.327 47.4812 203.831 38.3933 199.538 40.5282C196.878 43.433 201.078 51.2376 196.668 53.1975C194.032 54.3758 191.641 52.5209 191.396 49.8027C190.521 40.2948 192.096 29.457 191.396 19.8091C191.443 17.9892 193.029 17.0326 194.639 16.7643V16.7526ZM199.795 23.7639C197.788 24.3706 197.952 32.3619 199.328 33.3418C200.145 33.9251 203.691 33.7851 204.81 33.5985C210.969 32.5719 211.261 24.5339 205.604 23.7289C204.589 23.589 200.634 23.519 199.795 23.7639Z" fill="black"/>
<path d="M118.421 27.2754C118.06 27.567 116.496 28.0103 116.018 28.0453C114.164 28.1737 112.764 25.4438 111.247 24.4872C106.068 21.1857 100.947 26.5171 105.228 29.7719C107.48 31.4868 111.131 31.8485 113.825 33.3768C128.395 41.648 116.613 59.5788 101.741 52.4975C98.731 51.0626 92.8869 44.7629 97.0863 42.0213C100.679 39.6765 102.219 44.2846 104.283 45.8828C109.381 49.8493 116.31 44.0512 111.469 39.8048C107.34 36.1766 97.7045 36.8299 96.4097 28.5936C94.6716 17.5108 108.658 13.276 116.263 19.4707C118.095 20.964 120.801 25.3738 118.409 27.287L118.421 27.2754Z" fill="black"/>
<path d="M231.406 38.9065C230.112 41.3564 230.8 43.7013 231.15 46.2795L242.476 46.4195C245.323 47.3295 245.218 53.0342 241.123 53.6175C238.184 54.0375 228.49 53.9208 225.714 53.1742C224.186 52.7659 223.731 51.2026 223.579 49.7677C222.669 40.6681 224.279 30.1453 223.568 20.894C223.638 19.0858 224.443 17.6159 226.344 17.3825C229.563 16.9859 237.484 17.0792 240.808 17.3825C243.479 17.6275 244.459 19.3191 243.853 21.944C243.001 25.6538 234.684 23.3206 231.978 24.1256C229.983 24.7205 230.473 30.7402 231.336 31.6502C232.806 33.1785 239.922 30.0636 240.89 34.3101C242.278 40.3881 235.034 38.5799 231.406 38.9065Z" fill="black"/>
<path d="M143.979 17.1375C147.653 17.0325 151.421 16.8459 150.266 21.944C149.438 25.6188 143.314 23.1106 141.622 24.3938C140.106 26.0388 141.097 27.6837 141.121 29.4103C141.191 34.73 141.902 47.0144 140.654 51.5409C139.744 54.8541 134.262 54.2591 133.725 50.8642L133.539 25.1521C132.629 22.3989 125.49 26.0971 124.533 21.944C124.079 19.9724 124.662 17.7675 126.878 17.4175C131.194 16.7409 139.149 17.2658 143.979 17.1375Z" fill="black"/>
<path d="M174.751 237.884H70.0708L69.3242 162.042C96.2699 161.926 123.227 162.194 150.173 162.066C156.449 162.031 162.316 161.634 168.65 162.042C169.863 162.124 173.981 161.599 174.331 162.649L174.751 237.884ZM116.952 174.712C116.158 174.875 114.759 175.762 114.082 176.287C109.159 183.17 90.9624 196.189 88.6761 203.41C87.533 207.027 90.2742 208.637 93.202 206.455L120.019 179.262C121.956 176.473 120.311 174.023 116.963 174.723L116.952 174.712ZM135.475 180.253C134.787 180.311 133.854 180.626 133.306 181.081C124.055 190.449 114.689 199.701 105.403 209.045C102.347 212.125 97.1331 216.418 94.6601 219.755C90.6475 225.168 97.9846 226.393 101.146 222.543L136.852 186.483C138.695 184.616 139.01 179.961 135.475 180.265V180.253Z" fill="white"/>
<path d="M219.508 211.997C221.246 215.298 221.619 220.7 220.453 224.211C219.508 227.046 217.817 223.534 217.642 221.808C217.56 221.003 218.062 210.877 219.508 211.985V211.997Z" fill="white"/>
<path d="M167.262 23.7755C181.318 21.384 181.668 46.2911 169.385 47.0028C157.766 47.6794 156.798 25.5604 167.262 23.7755Z" fill="#D2FA52"/>
<path d="M199.795 23.7639C200.635 23.5073 204.589 23.5773 205.604 23.7289C211.261 24.5339 210.958 32.5718 204.811 33.5984C203.679 33.7851 200.133 33.9251 199.328 33.3418C197.952 32.3735 197.789 24.3706 199.795 23.7639Z" fill="#D2FA52"/>
<path d="M135.475 180.253C139.021 179.95 138.694 184.616 136.851 186.471L101.146 222.531C97.9844 226.381 90.6472 225.156 94.6599 219.743C97.1328 216.406 102.347 212.113 105.403 209.033C114.677 199.689 124.044 190.438 133.305 181.07C133.854 180.615 134.787 180.3 135.475 180.241V180.253Z" fill="black"/>
<path d="M116.952 174.712C120.311 174.012 121.944 176.462 120.008 179.25L93.1904 206.444C90.2625 208.637 87.5213 207.027 88.6645 203.399C90.9508 196.177 109.148 183.158 114.07 176.275C114.747 175.75 116.135 174.863 116.94 174.7L116.952 174.712Z" fill="black"/>
</g>
<defs>
<clipPath id="clip0_150_1735">
<rect width="342" height="316" fill="white"/>
</clipPath>
</defs>
</svg>
