<svg width="141" height="74" viewBox="0 0 141 74" fill="none" xmlns="http://www.w3.org/2000/svg">
<path d="M140.98 41.4302L122.331 29.9112L140.98 24.426V41.4302Z" fill="#E1E1E1"/>
<path d="M137.673 38.7754L126.083 31.9573L107.247 49.1095V68.3077L118.798 73.2444L137.673 38.7754Z" fill="#E1E1E1"/>
<path d="M73.491 1.02069L80.1939 48.5116L83.3259 70.6992L83.688 73.2444H118.799L101.213 16.1983L73.491 1.02069Z" fill="white"/>
<path d="M63.9958 73.6009L64.2262 73.2444L64.3524 73.0469L80.1937 48.5116L100.571 16.9497L101.164 16.0337" stroke="#F5F5F5" stroke-miterlimit="10"/>
<path d="M73.4135 0.472168L73.0515 0.598328L72.876 0.658665" stroke="#F5F5F5" stroke-miterlimit="10"/>
<path d="M31.2273 73.2444L0 26.2746L26.3674 17.0046L46.2183 46.866L63.7545 73.2444L63.9959 73.6009L31.2273 73.2444Z" fill="#D8D8D8"/>
<path d="M64.2267 73.2444H30.926L31.0686 72.9976L46.2188 46.866L73.3541 0.0662842L101.213 16.1983L64.2267 73.2444Z" fill="#F1F1F1"/>
</svg>
