<svg width="183" height="192" viewBox="0 0 183 192" fill="none" xmlns="http://www.w3.org/2000/svg">
<path d="M132.499 0C134.643 0.811987 133.76 3.84437 133.67 5.59409C133.566 7.62765 133.846 9.67199 133.756 11.7056C133.724 12.4601 133.645 13.7391 133.325 14.4038C132.743 15.6218 130.592 15.4781 130.176 14.1846C129.759 12.8912 129.946 10.599 129.921 9.19414C129.881 6.95219 129.666 3.96652 130.097 1.78206C130.266 0.919773 130.696 0.262279 131.562 0L132.499 0Z" fill="black"/>
<path d="M80.5488 65.2033V64.341C80.9582 62.4978 83.0447 62.3433 84.6033 62.0164C86.5713 61.6032 89.9291 60.899 91.8648 60.9026C92.9421 60.9026 93.5347 61.3122 93.6209 62.4188C93.7789 64.4739 92.6908 64.5601 91.0496 64.941C88.5716 65.5194 84.9876 66.1661 82.4701 66.22C81.5328 66.2416 80.8936 66.1805 80.5488 65.1997V65.2033Z" fill="black"/>
<path d="M129.432 21.1584C156.783 19.8326 174.588 49.481 158.539 72.4322C154.786 77.7999 149.744 81.7736 149.019 88.8157C148.742 91.4995 149.952 94.5499 148.606 97.011C148.189 97.7691 147.449 98.3044 147.108 99.1164C146.196 101.29 147.324 103.13 145.449 105.206C144.379 106.392 142.58 106.755 141.825 107.843C141.215 108.724 140.928 109.622 140.17 110.491C135.605 115.748 128.355 115.399 123.776 110.373C122.939 109.453 122.666 108.508 122.002 107.606C121.338 106.705 120.138 106.669 119.283 106.022C116.96 104.254 117.664 102.454 117.481 99.9967C117.348 98.2074 116.191 98.1715 115.412 96.8996C113.875 94.4026 115.48 92.8073 115.448 90.3678C115.347 82.9737 109.023 77.2359 105.055 71.6489C90.708 51.4678 104.778 22.3548 129.436 21.1584H129.432ZM145.41 88.6863C146.074 78.6263 155.569 72.8382 158.927 63.971C165.531 46.5276 153.975 27.7908 135.738 25.2938C111.411 21.9632 94.31 47.954 107.386 68.8465C109.885 72.8418 113.573 75.9532 115.85 80.103C117.287 82.7222 118.324 85.7078 118.655 88.6863H127.184L125.837 66.1195C125.758 65.7602 125.335 65.5986 125.015 65.5339C124.103 65.3507 123.148 65.595 122.217 65.5159C119.589 65.2896 117.455 63.1159 117.1 60.5362C116.511 56.2427 119.962 53.3038 124.132 54.281C127.558 55.0858 128.333 59.02 128.976 61.959L134.884 61.9195C134.959 61.9051 135.078 60.6368 135.121 60.4248C136.033 55.9661 140.407 51.5972 144.788 55.2978C150.308 59.965 143.98 67.0824 138.216 65.8285L137.275 88.6863H145.413H145.41ZM122.074 57.5541C121.539 57.644 121.036 58.2404 120.799 58.7074C119.484 61.3231 123.244 62.4225 125.144 61.959C125.424 61.5207 125.277 60.9853 125.169 60.5254C124.868 59.2536 123.578 57.3026 122.074 57.5577V57.5541ZM138.525 61.9949C140.49 62.8285 145.248 60.4536 142.788 58.1613C141.204 56.6811 139.416 58.3122 138.798 59.8859C138.748 60.0188 138.522 60.6296 138.522 60.7051V61.9949H138.525ZM129.174 65.8321L129.087 65.9902C129.511 70.7903 129.615 75.6191 129.917 80.4299C130.035 82.3018 130.118 84.2886 130.308 86.1426C130.369 86.7246 130.481 88.0037 130.693 88.4995C130.8 88.751 130.966 88.7474 131.206 88.7689C131.756 88.8192 133.541 88.83 133.673 88.0971C133.799 87.4144 133.716 86.5306 133.752 85.83C134.094 79.3952 134.417 72.9388 134.607 66.4932C134.611 66.3603 134.783 65.8321 134.571 65.8321H129.174ZM121.765 92.3115C120.738 92.3403 119.273 92.1642 118.536 92.9151C117.714 93.7522 118.001 95.0529 118.989 95.5918C119.976 96.1307 121.284 95.7535 122.365 95.7283C128.146 95.5918 133.896 96.2349 139.656 96.1199C141.096 96.0912 142.691 96.1307 144.109 95.8792C146.595 95.4373 146.652 92.7031 144.196 92.29C136.726 92.4229 129.231 92.0995 121.765 92.3115ZM143.452 99.411H120.723L120.605 99.5296V101.488C120.605 101.595 120.817 102.249 120.878 102.386C121.083 102.839 121.621 103.367 122.138 103.403C122.785 103.446 123.794 103.259 124.473 103.245C129.529 103.148 134.586 103.784 139.656 103.564C140.432 103.532 141.764 103.453 142.454 103.151C143.876 102.53 143.485 100.658 143.449 99.411H143.452ZM138.209 107.24H125.848C127.802 111.382 133.196 112.051 136.604 109.194C136.798 109.033 138.41 107.42 138.209 107.24Z" fill="black"/>
<path d="M82.8009 33.2124C84.4601 33.0112 89.1646 34.937 90.8955 35.6376C91.858 36.0256 93.6321 36.6472 94.3216 37.3765C95.5246 38.652 94.7705 40.2293 93.1041 40.3945C91.7215 40.5311 88.7983 39.3346 87.3905 38.8316C86.1372 38.3825 83.02 37.3729 82.1114 36.6005C80.8329 35.5118 80.9155 33.4459 82.8009 33.216V33.2124Z" fill="black"/>
<path d="M102.744 9.34145C103.221 9.75104 103.99 10.9223 104.399 11.4828C105.821 13.4337 108.536 17.2098 109.355 19.3619C109.998 21.0506 107.84 21.9991 106.446 21.4099C105.843 21.1548 105.114 19.8829 104.722 19.2973C104.04 18.2841 103.383 17.2314 102.737 16.1966C101.954 14.9427 99.7486 11.8133 99.8743 10.4481C99.982 9.28756 101.968 8.67677 102.744 9.34145Z" fill="black"/>
<path d="M179.977 34.3082C181.934 34.1681 182.775 36.8915 181.266 37.8723C180.124 38.616 177.402 39.4747 176.02 39.9813C174.77 40.4376 172.375 41.458 171.168 41.6233C168.959 41.9251 168.036 39.3957 169.685 38.1058C172.525 37.4412 175.039 35.8819 177.758 34.9118C178.397 34.6854 179.309 34.3585 179.974 34.3082H179.977Z" fill="black"/>
<path d="M170.978 60.924C172.853 60.7767 179.446 62.433 181.342 63.1911C182.524 63.6618 183.598 64.7289 182.614 65.9935C181.515 67.4055 179.27 66.7373 177.798 66.4247C175.607 65.9576 172.806 65.3001 170.738 64.4845C169.764 64.1001 169.38 63.9312 169.423 62.742C169.463 61.7037 169.908 61.0102 170.975 60.9276L170.978 60.924Z" fill="black"/>
<path d="M162.369 10.0385C164.348 9.70082 164.699 12.0398 163.967 13.4374C163.324 14.6698 162.103 16.2255 161.281 17.4003C160.598 18.374 158.788 21.18 157.955 21.7477C156.242 22.9118 154.249 21.5285 155.046 19.5417L161.414 10.5703C161.615 10.3547 162.078 10.0853 162.365 10.035L162.369 10.0385Z" fill="black"/>
<path d="M145.41 88.6863H137.272L138.213 65.8285C143.977 67.0824 150.309 59.9649 144.785 55.2978C140.408 51.5971 136.03 55.9625 135.118 60.4248C135.075 60.6368 134.956 61.9051 134.881 61.9194L128.973 61.959C128.33 59.02 127.555 55.0858 124.128 54.281C119.959 53.3037 116.508 56.2391 117.097 60.5362C117.449 63.1159 119.586 65.2895 122.214 65.5159C123.145 65.5949 124.1 65.3542 125.012 65.5339C125.332 65.5985 125.755 65.7602 125.834 66.1195L127.181 88.6863H118.652C118.321 85.7042 117.287 82.7221 115.847 80.1029C113.57 75.9532 109.882 72.8417 107.383 68.8465C94.307 47.9576 111.408 21.9632 135.735 25.2938C153.975 27.7908 165.532 46.5276 158.924 63.971C155.566 72.8382 146.074 78.6263 145.406 88.6863H145.41Z" fill="#D2FA52"/>
<path d="M129.174 65.832H134.572C134.784 65.832 134.611 66.3602 134.608 66.4931C134.417 72.9423 134.094 79.3951 133.753 85.8299C133.717 86.5305 133.796 87.4144 133.674 88.097C133.541 88.83 131.756 88.8192 131.207 88.7689C130.966 88.7473 130.801 88.7509 130.693 88.4994C130.481 88.0036 130.37 86.7245 130.309 86.1425C130.119 84.285 130.036 82.3017 129.917 80.4298C129.616 75.619 129.512 70.7938 129.088 65.9901L129.174 65.832Z" fill="#D2FA52"/>
<path d="M121.766 92.3115C129.232 92.0995 136.727 92.4229 144.196 92.29C146.653 92.7067 146.592 95.4373 144.11 95.8792C142.692 96.1307 141.097 96.0912 139.657 96.12C133.897 96.2349 128.147 95.5918 122.365 95.7283C121.281 95.7535 119.984 96.1343 118.99 95.5918C117.995 95.0493 117.715 93.7522 118.537 92.9151C119.277 92.1642 120.739 92.3403 121.766 92.3115Z" fill="white"/>
<path d="M143.455 99.4111C143.491 100.658 143.882 102.53 142.46 103.151C141.771 103.453 140.438 103.529 139.663 103.564C134.592 103.784 129.536 103.148 124.479 103.245C123.8 103.259 122.791 103.446 122.145 103.403C121.628 103.367 121.089 102.839 120.884 102.386C120.823 102.249 120.611 101.596 120.611 101.488V99.5297L120.73 99.4111H143.459H143.455Z" fill="white"/>
<path d="M138.211 107.24C138.408 107.419 136.796 109.033 136.605 109.194C133.197 112.051 127.803 111.382 125.85 107.24H138.211Z" fill="white"/>
<path d="M138.525 61.9949V60.7051C138.525 60.6297 138.748 60.0153 138.802 59.8859C139.416 58.3158 141.204 56.6847 142.792 58.1614C145.252 60.4572 140.493 62.8285 138.529 61.9949H138.525Z" fill="#D2FA52"/>
<path d="M122.074 57.5542C123.583 57.2991 124.872 59.2536 125.17 60.5219C125.278 60.9818 125.425 61.5207 125.145 61.9554C123.245 62.4189 119.481 61.3195 120.799 58.7039C121.033 58.2368 121.539 57.644 122.074 57.5506V57.5542Z" fill="#D2FA52"/>
<path d="M140.205 132.033C146.87 132.515 157.407 130.754 162.851 133.995C170.529 138.561 170.91 148.136 160.836 149.444C160.886 153.328 159.931 154.823 156.329 156.148C150.4 158.333 141.102 160.83 134.882 162.066C116.377 165.745 97.5983 157.654 79.5884 164.132C73.1529 166.446 66.9868 170.858 61.0469 174.21C60.7883 176.484 61.5317 178.489 61.2192 180.939C59.8007 192.005 47.2997 193.022 38.4437 191.179C25.6123 188.509 8.67245 177.019 2.54582 165.271C1.47205 163.212 -0.345114 158.146 0.057103 155.972C0.168431 155.369 1.19911 154.913 1.68752 154.6C16.2428 150.141 31.3798 146.696 45.8201 141.967C49.5765 140.739 58.5797 137.71 61.4599 135.479C62.2571 134.861 62.6019 133.822 63.0975 132.96C67.6727 125.016 70.5708 114.41 78.1303 108.798C82.9821 105.198 89.0117 104.221 93.8886 100.962C99.0097 97.5416 102.461 91.7248 106.874 87.6253C113.619 81.3594 120.995 90.1152 121.114 97.3189C121.225 104.048 113.457 109.517 109.072 113.648C118.172 116.372 127.355 119.038 136.674 120.924C142.395 122.081 153.629 122.825 158.154 125.627C159.331 126.356 164.463 130.761 161.996 131.954C160.208 132.82 158.796 129.274 157.259 128.192C153.927 125.85 138.632 124.276 133.564 123.188C129.611 122.34 125.61 121.247 121.692 120.238C119.62 119.702 105.434 116.11 104.885 115.431C104.598 115.078 104.357 113.972 104.519 113.566C109.252 109.578 119.336 102.888 118.305 95.7847C117.932 93.205 115.91 90.1547 113.637 88.8864C111.629 87.769 110.857 87.7942 109.094 89.2637C104.705 92.9248 101.322 98.8997 96.4384 102.557C92.0176 105.866 87.1982 106.689 82.6229 109.251C72.3269 115.017 69.8418 128.174 63.7439 137.473L49.3323 143.699L3.3323 156.964C2.44527 157.395 3.51186 159.756 3.79198 160.481C8.34565 172.295 22.7572 183.012 34.637 186.461L71.6877 164.868C89.0979 153.515 109.076 161.915 127.675 160.183C137.795 159.242 147.416 155.796 157.098 152.98C159.759 149.9 156.067 145.097 152.594 144.745C149.337 144.414 143.139 146.221 139.49 146.552C134.753 146.983 129.718 146.469 125.007 145.963C123.663 145.819 116.74 145.147 116.143 144.759C115.583 144.393 115.22 143.433 115.526 142.83C116.154 141.583 120.992 142.963 122.302 142.83C118.894 137.293 116.625 131.239 115.012 124.941C114.851 123.572 116.449 122.278 117.483 123.583C118.284 124.592 118.223 127.172 118.891 128.458C126.001 129.658 132.976 131.509 140.205 132.03V132.033ZM123.944 140.042C124.518 141.008 125.606 143.16 126.594 143.433C129.406 144.217 136.728 144.134 139.763 143.861C145.925 143.308 153.298 139.848 158.33 144.748C158.8 145.208 159.235 146.279 159.597 146.52C160.628 147.202 164.334 145.69 165.099 144.565C166.446 142.589 165.505 140.757 164.266 139.054C160.078 133.291 153.765 135.145 147.732 135.037C142.884 134.951 138.068 134.753 133.27 134.034C131.553 133.776 120.417 131.121 119.982 131.642C121.153 134.501 122.363 137.379 123.944 140.042Z" fill="black"/>
<path d="M107.306 142.05C107.446 141.928 107.543 140.872 107.474 140.599C107.263 139.769 102.141 137.031 101.032 136.499C94.9518 133.582 88.9904 133 82.7273 136.029C81.5314 136.607 77.125 139.259 77.125 140.509C77.125 144.185 81.772 139.747 82.9571 139.068C91.1954 134.372 98.2342 137.405 105.406 142.208C105.869 142.331 106.986 142.323 107.306 142.05Z" fill="black"/>
</svg>
