<svg width="2678" height="3339" viewBox="0 0 2678 3339" fill="none" xmlns="http://www.w3.org/2000/svg">
<path d="M2484.22 465.083C2491.71 394.225 2444.74 329.177 2374.69 305.529C2350.62 287.465 2320.92 275.297 2288 271.815C2244.76 267.241 2203.82 278.472 2171.87 300.496C2149.47 285.78 2122.9 275.916 2093.79 272.838C2075.32 270.884 2057.27 271.817 2040.16 275.237C2033.04 271.174 2025.55 267.582 2017.76 264.51C1994.85 214.874 1944.22 177.507 1882.18 170.945C1820.14 164.382 1765.31 189.226 1732.21 231.262C1717.32 250.159 1689.93 256.246 1666.58 246.266C1650.77 239.514 1633.57 234.947 1615.38 233.023C1592.69 230.624 1570.63 232.575 1550.17 238.155C1530.97 181.529 1476.75 137.502 1408.91 130.326C1318.78 120.794 1238.6 179.88 1229.19 262.469C1208.69 250.669 1185.14 242.779 1159.67 240.085C1126.58 236.585 1094.85 242.34 1067.44 255.108C1041.04 217.493 997.216 190.561 945.45 185.086C899.473 180.223 856.074 193.219 823.346 218.089C806.736 230.716 782.543 230.777 765.807 217.752C741.359 198.715 710.795 185.883 676.817 182.289C613.166 175.556 554.461 203.046 522.16 248.878C504.189 274.375 469.771 284.98 438.077 275.083C427.024 271.634 415.436 269.199 403.414 267.927C312.831 258.325 231.967 318.496 223.507 401.757C220.945 426.965 225.285 451.417 235.081 473.519L189.092 908.319L2381.2 1140.18L2443.6 550.237C2465.88 527.475 2480.72 498.136 2484.22 465.083Z" fill="#F9F7F1"/>
<rect y="636" width="2678" height="2703" fill="#F9F7F1"/>
</svg>
