<svg width="2339" height="3346" viewBox="0 0 2339 3346" fill="none" xmlns="http://www.w3.org/2000/svg">
<path d="M2314.08 465.083C2321.57 394.225 2274.6 329.177 2204.55 305.529C2180.48 287.465 2150.78 275.297 2117.86 271.815C2074.62 267.241 2033.68 278.472 2001.73 300.496C1979.33 285.78 1952.76 275.916 1923.65 272.838C1905.18 270.884 1887.13 271.817 1870.02 275.237C1862.9 271.174 1855.41 267.582 1847.62 264.51C1824.71 214.874 1774.08 177.507 1712.04 170.945C1650 164.382 1595.17 189.226 1562.06 231.262C1547.18 250.159 1519.79 256.246 1496.44 246.266C1480.63 239.514 1463.43 234.947 1445.24 233.023C1422.55 230.624 1400.49 232.575 1380.03 238.155C1360.83 181.529 1306.61 137.502 1238.77 130.326C1148.64 120.794 1068.46 179.88 1059.05 262.469C1038.55 250.669 1015 242.779 989.528 240.085C956.441 236.585 924.707 242.34 897.299 255.108C870.903 217.493 827.075 190.561 775.309 185.086C729.332 180.223 685.934 193.219 653.205 218.089C636.596 230.716 612.403 230.777 595.666 217.752C571.219 198.715 540.654 185.883 506.676 182.289C443.025 175.556 384.321 203.046 352.019 248.878C334.048 274.375 299.631 284.98 267.936 275.083C256.883 271.634 245.295 269.199 233.273 267.927C142.691 258.325 61.8267 318.496 53.3664 401.757C50.8042 426.965 55.1448 451.417 64.9408 473.519L18.9518 908.319L2211.06 1140.18L2273.46 550.237C2295.74 527.475 2310.58 498.136 2314.08 465.083Z" fill="#F9F7F1"/>
<rect x="52.0117" y="642.487" width="2073.6" height="2702.91" fill="#F9F7F1"/>
</svg>
