<svg width="165" height="151" viewBox="0 0 165 151" fill="none" xmlns="http://www.w3.org/2000/svg">
<path d="M162.251 0C163.472 0.526134 164.889 1.14726 164.919 2.66721V54.4622C163.954 56.406 161.945 57.1221 159.869 57.1513L98.7061 57.1294C99.7438 69.5374 88.8996 77.0567 77.5877 77.9775C76.4404 78.0724 74.8182 77.3198 74.1459 77.6559C72.9329 78.2697 68.9503 85.6941 67.2039 87.0313H89.36C90.5365 87.0313 90.0176 90.6266 90.1565 90.7727C90.3465 90.9773 94.709 90.6558 95.7539 90.7727C101.315 91.4085 112.21 97.174 114.454 97.174H161.974C162.332 97.174 163.253 98.8401 163.194 99.4978C162.88 103.027 157.692 101.836 155.295 101.982L154.761 140.967C154.739 138.505 154.564 138.863 154.228 142.034C153.578 143.05 153.022 143.415 151.795 143.605C148.155 144.161 140.263 142.772 137.494 143.722C134.505 144.753 136.529 152.857 127.702 149.605C119.277 146.499 109.623 139.316 100.496 138.366C86.6124 136.919 70.6164 141.179 56.25 139.893C48.57 139.206 19.596 123.948 10.9295 119.535C5.7485 116.897 1.87556 114.719 3.35166 107.836C4.2797 103.517 6.735 103.539 9.70911 101.99C11.1706 101.23 9.0003 100.689 8.44493 100.155C6.71307 98.4967 1.18136 93.3742 0.406773 91.6204C-0.170513 90.3051 -0.323968 87.0386 1.24713 87.0386H27.6781C18.2588 78.0578 14.4297 64.8606 13.772 52.0873C13.6551 49.7927 13.4213 44.4656 13.8086 42.4634C14.1959 40.4612 16.125 40.1689 17.7765 40.0227C36.7685 38.3201 58.3107 41.3234 77.5731 40.0812C81.278 40.6877 80.5838 43.5084 80.5399 46.4606C85.4432 45.5106 90.3172 45.496 94.424 48.5943V2.93758C94.424 1.88531 95.9366 0.168071 97.0912 0H162.237H162.251Z" fill="black"/>
<path d="M37.6826 6.04307C39.5971 7.62878 42.2716 13.1313 42.1328 15.7327C41.8405 21.2571 34.0435 25.1958 35.3953 29.3903C35.8411 30.7787 39.9113 33.9428 36.7691 35.5066C32.9766 37.3992 30.0609 30.0699 30.3386 26.9569C30.7332 22.4555 36.9518 19.2987 37.3026 15.6889C37.6168 12.4078 33.2762 9.3241 33.7877 7.4534C34.2992 5.58271 36.0822 4.70582 37.6899 6.03577L37.6826 6.04307Z" fill="black"/>
<path d="M53.1386 4.88871C56.2734 4.2968 59.3133 12.5396 59.2402 15.2141C59.0868 21.25 51.4944 25.386 52.4736 28.8351C52.8974 30.3331 55.3381 31.4804 53.9058 33.3949C51.2021 37.0121 47.5557 30.5231 47.6361 27.5782C47.7968 21.6885 56.2588 19.4524 53.7451 12.6565C52.9266 10.4496 50.3179 8.91509 51.4652 6.41596C51.6551 6.00674 52.722 4.96178 53.1386 4.88871Z" fill="black"/>
<path d="M154.778 140.967C154.858 141.508 154.441 141.727 154.244 142.034V101.99C155.179 101.865 154.748 103.203 154.778 103.853C155.282 116.181 154.398 128.632 154.778 140.967Z" fill="#051107"/>
<path d="M131.219 144.636C130.707 144.957 129.735 144.628 129.136 144.453C122.903 142.59 115.011 137.562 108.463 135.216C95.2005 130.474 78.3131 134.829 64.2901 135.114C46.2847 135.479 26.5985 119.323 9.8791 113.119C6.96344 110.934 7.56265 107.448 11.1214 106.506C16.2 105.168 21.9363 109.005 26.8762 110.532C31.0487 111.818 35.9885 112.965 40.2999 113.66C43.9024 114.237 49.7411 113.966 52.9417 114.902C53.994 115.209 54.9366 117.036 56.0254 117.693C61.6083 121.047 74.5936 117.328 81.3018 118.49C84.1371 118.373 87.1697 115.245 83.9105 113.301C82.0398 112.183 72.4671 113.674 69.6245 113.755C66.8404 113.828 59.1969 114.405 57.5746 112.417C54.9513 109.187 58.4588 106.696 61.126 105.256C73.344 98.6574 88.1635 92.9942 102.033 97.3275C111.218 100.199 116.567 108.274 124.861 112.41C130.079 115.019 135.954 115.961 141.201 118.512C141.639 119.14 137.693 130.357 137.028 132.03C136.414 133.58 131.796 144.263 131.211 144.636H131.219Z" fill="#FDF9F0"/>
<path d="M76.2889 45.3865C75.4851 51.4662 75.507 57.6775 74.0821 63.7354C72.2114 71.7224 65.4886 86.1545 56.2885 87.0607C51.2902 87.5503 38.0565 87.6306 33.9278 85.3361C21.9071 78.6644 17.9465 57.9406 18.6188 45.3792H76.2889V45.3865Z" fill="#D2FA52"/>
<path d="M79.4886 91.8396L60.9789 99.7608C58.6405 101.5 55.0891 102.538 53.3061 104.92C52.7215 105.702 53.1307 106.995 52.0273 106.827C35.0814 107.602 19.0343 105.059 7.4082 91.8396H79.4959H79.4886Z" fill="#FDF9F0"/>
<path d="M149.977 101.99V138.3H141.164C141.018 138.3 140.127 139.659 140.361 138.03C141.121 132.601 145.907 124.825 146.652 118.665C147.12 114.778 145.856 114.602 142.648 113.331C134.5 110.116 125.307 109.078 119.016 101.99H149.984H149.977Z" fill="#FCF9F0"/>
<path d="M76.2871 72.6137C77.2225 70.1949 78.1432 67.7104 78.7059 65.1601C79.232 62.7779 80.1162 52.7083 80.8177 51.7875C82.25 49.9168 88.6586 50.7499 90.6754 52.0871C101.198 59.073 86.0937 75.4928 76.2871 72.6137Z" fill="#FDF9F0"/>
<path d="M148.244 16.4271C147.645 17.019 146.293 17.0409 145.46 17.1067C135.208 17.9762 123.765 16.3905 113.373 17.1067C109.742 16.6609 109.749 12.1522 113.373 11.7138C123.385 12.5834 135.106 10.6323 144.905 11.743C147.463 12.0353 150.736 13.9352 148.244 16.4198V16.4271Z" fill="#FBF9F1"/>
<path d="M106.996 27.2349H132.09C133.303 27.2349 134.033 30.969 132.623 30.969H106.996C106.068 30.969 105.695 27.761 106.996 27.2349Z" fill="#FBF8F1"/>
<path d="M107.639 40.1542C109.539 39.5915 123.561 39.7742 126.214 40.0446C130.438 40.4757 130.92 43.7056 127.8 44.2975C125.22 44.7871 111.387 44.6994 108.625 44.2756C105.578 43.8079 105.373 40.8118 107.631 40.1469L107.639 40.1542Z" fill="#F8F6EF"/>
<path d="M150.772 40.0446C152.211 40.3442 153.402 42.7557 152.584 43.7349C152.036 44.3926 143.552 44.5679 142.339 44.2099C140.088 43.5522 141.192 40.0446 141.426 40.0446C143.895 40.0446 148.689 39.6135 150.772 40.0446Z" fill="#F7F6EE"/>
<path d="M151.315 27.2349C153.653 27.6148 152.579 30.9689 151.848 30.9689H141.705C140.616 30.9689 140.616 27.2349 141.705 27.2349C144.46 27.2349 148.837 26.8256 151.315 27.2349Z" fill="#FBF8F1"/>
<path d="M75.7539 44.3196H18.6172V44.853H75.7539V44.3196Z" fill="#06170B"/>
</svg>
