<svg width="52" height="46" viewBox="0 0 52 46" fill="none" xmlns="http://www.w3.org/2000/svg">
<path d="M31.2728 30.9294C26.321 23.4573 19.3369 19.4092 10.4103 18.8023C7.92003 18.6324 5.47751 19.0924 3.26588 20.3463C2.96056 20.52 2.64189 21.0029 2.66097 21.3216C2.68006 21.6403 3.05979 22.0984 3.38037 22.2091C5.42407 22.9134 7.29031 23.9497 8.9829 25.2609C11.8662 27.4939 14.6618 29.8434 17.5432 32.0783C20.2662 34.1892 23.0236 36.2543 25.8249 38.2583C27.0079 39.1057 28.3914 39.5848 29.9829 39.5829C30.1145 39.5772 30.3359 39.5733 30.5572 39.5543C32.6162 39.3691 33.6199 38.0866 33.2745 36.0539C32.9616 34.2102 32.2975 32.4772 31.2709 30.9294H31.2728Z" fill="#42210B"/>
<path d="M30.2107 41.3231C25.8008 41.1055 21.8832 39.5195 18.4198 36.8608C16.5192 35.4027 14.7808 33.7327 12.9718 32.1562C10.1228 29.6731 7.28341 27.1824 4.42299 24.7127C3.51658 23.9302 2.4747 23.7489 1.3851 24.3177C0.289784 24.8902 -0.0708696 25.8483 0.0111838 27.0488C0.284059 31.0397 1.60455 34.6354 4.27987 37.6147C9.07523 42.9568 15.2426 45.3769 22.3049 45.7682C22.8831 45.7414 23.4632 45.7376 24.0376 45.6823C26.4935 45.4494 28.791 44.7776 30.7793 43.2431C31.1953 42.9225 31.3919 42.5255 31.2392 42.0235C31.0923 41.5388 30.6973 41.3479 30.2107 41.3231Z" fill="#42210B"/>
<path d="M21.4961 20.1727C23.9959 21.4534 26.2189 22.9917 28.2416 24.822C28.3695 24.9384 28.6958 24.9365 28.8847 24.8678C29.8026 24.53 30.7071 24.1559 31.6116 23.7876C35.5406 22.1863 39.4868 20.6251 43.3872 18.9531C44.494 18.4779 45.5053 17.7374 46.4861 17.0198C47.4002 16.3517 48.0089 15.4032 48.3486 14.3115C48.8848 12.5861 48.2837 11.2329 46.551 10.752C45.0435 10.334 43.4692 10.0057 41.914 9.94465C37.6969 9.7786 33.7908 11.0077 30.1003 12.9755C26.7609 14.7562 23.8795 17.0923 21.498 20.1727H21.4961Z" fill="#42210B"/>
<path d="M51.5004 16.4413C51.4336 15.9413 51.2275 15.5366 50.6932 15.4183C50.1627 15.3019 49.8173 15.5672 49.5368 16.0023C47.4015 19.3271 44.4857 21.7701 40.9727 23.5298C38.2974 24.8715 35.4522 25.7513 32.5956 26.6026C31.9258 26.803 31.2599 27.011 30.5176 27.2381C32.7445 29.975 34.3474 32.8875 34.9027 36.4108C35.666 36.1436 36.3644 35.968 36.9998 35.6607C38.4558 34.9526 39.948 34.2846 41.3067 33.4143C45.3025 30.8549 48.5006 27.5435 50.4356 23.1423C51.3744 21.0104 51.8152 18.7812 51.4985 16.4394L51.5004 16.4413Z" fill="#42210B"/>
<path d="M18.6805 18.8443C18.5431 17.7984 18.3885 16.7239 18.2626 15.6494C17.6767 10.7042 18.3122 5.98051 20.8119 1.59078C20.9532 1.34266 21.0142 0.985759 20.9646 0.707107C20.8539 0.081093 20.2109 -0.159388 19.459 0.107813C16.9096 1.01439 15.0052 2.74738 13.4405 4.8888C11.246 7.89481 10.0114 11.2978 9.38171 14.9394C9.25195 15.6894 9.17562 16.451 9.08594 17.1171C10.7957 17.3003 12.3986 17.3804 13.9653 17.6629C15.5491 17.9492 17.0966 18.4397 18.6805 18.8443Z" fill="#42210B"/>
<path d="M21.6827 17.5727C24.5851 14.4522 27.8882 12.1772 31.6436 10.5244C30.7486 7.21107 29.3804 4.23368 26.894 1.87468C25.5296 0.580665 24.0355 0.636014 22.7398 2.00446C21.8029 2.99311 21.2075 4.19742 21.1598 5.52961C21.072 7.90197 21.1026 10.282 21.1922 12.6562C21.2533 14.2423 21.5014 15.8226 21.6846 17.5746L21.6827 17.5727Z" fill="#42210B"/>
</svg>
