<svg width="239" height="129" viewBox="0 0 239 129" fill="none" xmlns="http://www.w3.org/2000/svg">
<path d="M6.9 128.83L0 127.62C0.02 127.53 0.41 125.31 1.26 121.57L8.08 123.13C7.27 126.67 6.89 128.8 6.89 128.82L6.9 128.83Z" fill="#8CC63F"/>
<path d="M137.481 37.53L142.561 42.34C145.271 39.48 148.111 36.72 150.991 34.14L146.331 28.92C143.301 31.63 140.321 34.52 137.471 37.53H137.481Z" fill="#8CC63F"/>
<path d="M155.91 21.1001L160.08 26.7201C163.26 24.3601 166.53 22.1701 169.8 20.2101L166.21 14.2001C162.74 16.2801 159.27 18.6001 155.9 21.1001H155.91Z" fill="#8CC63F"/>
<path d="M201.08 1.1L202.2 8.01C206.01 7.39 209.86 7.05 213.67 7L213.58 0C209.43 0.05 205.23 0.42 201.08 1.1Z" fill="#8CC63F"/>
<path d="M177.23 8.41996L180.13 14.79C183.71 13.16 187.35 11.77 190.96 10.65L188.89 3.95996C185 5.16996 181.08 6.65996 177.23 8.40996V8.41996Z" fill="#8CC63F"/>
<path d="M122.041 56.78L127.851 60.69C130.001 57.49 132.351 54.3 134.831 51.22L129.371 46.84C126.771 50.08 124.311 53.42 122.041 56.79V56.78Z" fill="#8CC63F"/>
<path d="M110.34 78.75L116.89 81.23C118.15 77.91 119.79 74.37 121.76 70.71L115.6 67.38C113.48 71.31 111.71 75.14 110.34 78.75Z" fill="#8CC63F"/>
<path d="M4.33031 109.72L11.0503 111.66C12.1603 107.83 13.3703 104.02 14.6603 100.35L8.05031 98.03C6.72031 101.82 5.47031 105.75 4.32031 109.71L4.33031 109.72Z" fill="#8CC63F"/>
<path d="M12.4805 86.58L18.9305 89.31C20.5105 85.58 22.1905 81.98 23.9205 78.62L17.7005 75.41C15.8805 78.93 14.1305 82.69 12.4805 86.58Z" fill="#8CC63F"/>
<path d="M226.12 0.790039L225.15 7.72004C227.38 8.03004 229.62 8.46004 231.85 8.97004C233.78 7.25004 235.81 5.74004 237.88 4.54004C237.95 4.50004 238.03 4.46004 238.11 4.42004L238.4 3.44004C234.35 2.26004 230.22 1.37004 226.13 0.800039L226.12 0.790039Z" fill="#8CC63F"/>
<path d="M23.8809 64.67L29.7709 68.46C31.9609 65.06 34.2709 61.9 36.6309 59.08L31.2609 54.59C28.7209 57.63 26.2409 61.02 23.8909 64.67H23.8809Z" fill="#8CC63F"/>
<path d="M114.121 93.4C114.121 92.94 114.141 92.45 114.181 91.94L107.201 91.37C107.141 92.06 107.121 92.74 107.121 93.39C107.121 101.67 111.641 104.16 114.351 104.92L114.501 104.96L116.321 98.2L116.191 98.17C115.681 98.03 114.111 97.59 114.111 93.39L114.121 93.4Z" fill="#8CC63F"/>
<path d="M133.621 74.64C132.701 70.45 131.141 66.36 129.011 62.48L122.881 65.85C124.691 69.15 126.011 72.62 126.791 76.15L133.621 74.64Z" fill="#8CC63F"/>
<path d="M123.73 96.02L128.94 100.69C131.77 97.53 133.63 93.08 134.31 87.81L127.37 86.92C126.88 90.72 125.59 93.95 123.73 96.02Z" fill="#8CC63F"/>
<path d="M62.7112 33.78L64.2912 40.6C67.3612 39.89 70.5612 39.53 73.7912 39.53C74.3012 39.53 74.8112 39.53 75.3212 39.56L75.5612 32.56C74.9612 32.54 74.3512 32.55 73.7812 32.53C70.0112 32.53 66.2912 32.95 62.7012 33.78H62.7112Z" fill="#8CC63F"/>
<path d="M86.5898 41.17C90.4598 42.05 94.1498 43.19 97.5598 44.56L100.17 38.06C96.4198 36.55 92.3698 35.3 88.1498 34.34L86.5998 41.17H86.5898Z" fill="#8CC63F"/>
<path d="M40.0998 45.58L44.6498 50.9C47.6298 48.35 50.7498 46.2 53.9198 44.52L50.6298 38.34C47.0098 40.27 43.4598 42.71 40.0898 45.58H40.0998Z" fill="#8CC63F"/>
<path d="M121.351 52.06C118.461 49.03 115.131 46.28 111.461 43.89L107.641 49.76C110.861 51.86 113.771 54.26 116.291 56.9L121.351 52.07V52.06Z" fill="#8CC63F"/>
</svg>
