<svg width="336" height="160" viewBox="0 0 336 160" fill="none" xmlns="http://www.w3.org/2000/svg">
<path d="M124.438 22.19L118.718 18.16C116.858 20.8 114.288 23.52 111.078 26.24L115.608 31.58C119.268 28.47 122.248 25.31 124.448 22.18L124.438 22.19Z" fill="#8CC63F"/>
<path d="M116.65 7C118.73 7 121.31 7.47 121.75 9.7L128.62 8.33C127.58 3.11 123.11 0 116.65 0C116.28 0 115.91 0.00999878 115.52 0.0299988L115.88 7.02C116.14 7.01 116.4 7 116.65 7Z" fill="#8CC63F"/>
<path d="M109.769 11.1001L103.259 8.54004C101.929 11.92 101.159 16.2801 100.969 21.5201L107.969 21.7701C108.129 17.39 108.749 13.7001 109.779 11.1001H109.769Z" fill="#8CC63F"/>
<path d="M161.238 138.35C164.638 140.73 168.178 142.94 171.778 144.92L175.158 138.79C171.778 136.93 168.458 134.86 165.258 132.62L161.238 138.35Z" fill="#8CC63F"/>
<path d="M127.148 102.84C129.448 106.3 131.888 109.66 134.408 112.83L139.888 108.48C137.498 105.46 135.168 102.26 132.978 98.96L127.148 102.84Z" fill="#8CC63F"/>
<path d="M147.58 117.34L142.51 122.16C145.38 125.18 148.39 128.06 151.46 130.72L156.04 125.43C153.14 122.92 150.29 120.2 147.58 117.34Z" fill="#8CC63F"/>
<path d="M115.139 81.33C116.869 85.06 118.749 88.76 120.729 92.31L126.849 88.9C124.949 85.5 123.149 81.96 121.499 78.39L115.149 81.33H115.139Z" fill="#8CC63F"/>
<path d="M69.6582 47.64L71.8982 54.27C75.8682 52.93 79.7382 51.5 83.3982 50.01L80.7682 43.53C77.2382 44.96 73.5082 46.35 69.6682 47.64H69.6582Z" fill="#8CC63F"/>
<path d="M108.45 33.32L102.33 33.98L101.73 33.02C98.6098 34.98 95.1698 36.89 91.5098 38.71L94.6298 44.98C97.3498 43.63 99.9598 42.22 102.42 40.78C102.72 42.6 103.07 44.45 103.46 46.32L110.31 44.89C109.48 40.91 108.86 37.02 108.46 33.32H108.45Z" fill="#8CC63F"/>
<path d="M113.169 56.31L106.459 58.28C107.609 62.18 108.919 66.1101 110.379 69.9601L116.929 67.4901C115.539 63.8001 114.269 60.03 113.179 56.3L113.169 56.31Z" fill="#8CC63F"/>
<path d="M254.68 149.68L255.93 156.57C259.87 155.85 263.91 154.97 267.94 153.96L266.22 147.17C262.35 148.15 258.46 149 254.68 149.68Z" fill="#8CC63F"/>
<path d="M182.969 150.3C186.769 151.87 190.709 153.25 194.689 154.41L196.639 147.69C192.909 146.61 189.209 145.31 185.649 143.84L182.969 150.31V150.3Z" fill="#8CC63F"/>
<path d="M277.6 143.91L279.72 150.58C283.52 149.37 287.41 148.02 291.28 146.55L288.81 140C285.05 141.42 281.28 142.73 277.61 143.9L277.6 143.91Z" fill="#8CC63F"/>
<path d="M331.668 119.36C328.178 121.38 324.668 123.33 321.238 125.16L324.528 131.34C328.028 129.47 331.608 127.48 335.168 125.42L331.658 119.36H331.668Z" fill="#8CC63F"/>
<path d="M299.818 135.54L302.608 141.96C306.248 140.38 309.978 138.67 313.688 136.87L310.638 130.57C307.008 132.33 303.368 134 299.828 135.54H299.818Z" fill="#8CC63F"/>
<path d="M206.77 157.21C210.78 157.92 214.909 158.44 219.059 158.74L219.579 151.76C215.669 151.47 211.77 150.98 208 150.31L206.78 157.2L206.77 157.21Z" fill="#8CC63F"/>
<path d="M231.289 152.08L231.419 159.08C235.449 159 239.589 158.75 243.739 158.31L243.009 151.35C239.059 151.76 235.109 152.01 231.279 152.08H231.289Z" fill="#8CC63F"/>
<path d="M46.7988 54.11L48.3988 60.92C52.4288 59.97 56.3988 58.95 60.2188 57.88L58.3188 51.14C54.5988 52.19 50.7288 53.18 46.7988 54.11Z" fill="#8CC63F"/>
<path d="M23.3984 58.7001L24.5084 65.6101C28.5584 64.9601 32.5885 64.2401 36.4885 63.4801L35.1484 56.6101C31.3284 57.3601 27.3684 58.0601 23.3984 58.7001Z" fill="#8CC63F"/>
<path d="M0.149963 61.03H0V68.03H0.149963C4.57996 68.03 8.71995 67.8 12.45 67.35L11.62 60.4C8.16 60.82 4.30997 61.02 0.159973 61.02L0.149963 61.03Z" fill="#8CC63F"/>
</svg>
