<svg width="2339" height="3306" viewBox="0 0 2339 3306" fill="none" xmlns="http://www.w3.org/2000/svg">
<path d="M2314.08 465.083C2321.58 394.225 2274.6 329.177 2204.55 305.529C2180.49 287.465 2150.79 275.297 2117.86 271.815C2074.62 267.241 2033.68 278.472 2001.73 300.496C1979.33 285.78 1952.76 275.916 1923.66 272.838C1905.18 270.884 1887.13 271.817 1870.02 275.237C1862.9 271.174 1855.42 267.582 1847.62 264.51C1824.72 214.874 1774.08 177.507 1712.04 170.945C1650 164.382 1595.17 189.226 1562.07 231.262C1547.18 250.159 1519.79 256.246 1496.44 246.266C1480.63 239.514 1463.43 234.947 1445.24 233.023C1422.56 230.624 1400.49 232.575 1380.03 238.155C1360.83 181.529 1306.61 137.502 1238.77 130.326C1148.64 120.794 1068.46 179.88 1059.05 262.469C1038.55 250.669 1015 242.779 989.53 240.085C956.442 236.585 924.708 242.34 897.301 255.108C870.905 217.493 827.077 190.561 775.311 185.086C729.334 180.223 685.936 193.219 653.207 218.089C636.598 230.716 612.405 230.777 595.668 217.752C571.221 198.715 540.656 185.883 506.678 182.289C443.027 175.556 384.323 203.046 352.021 248.878C334.05 274.375 299.633 284.98 267.938 275.083C256.885 271.634 245.297 269.199 233.275 267.927C142.693 258.325 61.8287 318.496 53.3684 401.757C50.8061 426.965 55.1467 451.417 64.9428 473.519L18.9537 908.319L2211.07 1140.18L2273.46 550.237C2295.74 527.475 2310.58 498.136 2314.08 465.083Z" fill="#09543D"/>
<rect x="52.0117" y="602.857" width="2073.6" height="2702.91" fill="#09543D"/>
</svg>
