<svg width="342" height="475" viewBox="0 0 342 475" fill="none" xmlns="http://www.w3.org/2000/svg">
<path d="M176.193 0C184.588 1.59109 194.443 6.11506 195.506 15.6909C196.716 26.5939 190.762 40.4958 189.604 51.934C187.91 68.6808 191.752 79.3125 195.015 94.9888C196.474 101.991 196.401 108.443 196.254 115.585C196.217 117.411 195.235 122.69 196.21 124.039C207.963 131.019 220.971 135.602 233.956 139.759C251.48 145.368 269.576 150.164 287.665 153.206C319.67 132.251 340.434 162.218 340.801 192.617C340.801 193.211 340.574 194.179 341.16 194.545C341.08 197.112 341.263 199.722 341.16 202.288C339.943 231.984 323.16 278.573 292.702 289.798C266.159 299.587 251.509 275.024 248.826 252.235L227.892 245.556L251.099 452.251C251.319 456.789 250.102 457.295 246.179 458.578C224.996 465.515 202.134 469.129 180.592 474.951C125.733 472.4 70.8365 470.706 15.9696 467.89C12.5014 467.714 7.83813 468.169 4.50198 467.399C2.57361 466.959 0.549916 464.708 0 462.824L14.4005 333.711C19.0711 307.506 20.3469 280.369 23.9177 253.87C24.3283 250.806 24.8269 244.756 26.5353 242.417C27.1145 241.618 27.7817 241.046 28.7129 240.731C31.3452 239.837 38.2741 239.389 41.2877 239.235C47.1021 238.935 53.0119 239.235 58.8336 238.898L59.3616 237.256L62.881 197.94C53.3125 192.368 42.9741 185.725 35.6492 177.307C27.7011 168.172 28.383 163.457 30.3114 151.909C34.7767 125.197 44.6238 87.1213 56.282 62.837C66.4078 41.7496 76.1596 36.7124 99.674 38.6921C111.222 39.6599 122.58 42.6148 133.578 46.0463C137.853 37.3723 142.692 28.9842 148.111 20.9848C153.529 12.9853 161.191 1.13649 171.266 0H176.193ZM193.431 131.928C190.96 137.743 188.247 143.77 184.566 148.924C182.543 151.762 179.148 156.711 175.291 156.22C173.502 155.993 173.179 152.371 173.458 150.824C173.935 148.169 180.556 141.028 182.323 137.882C198.74 108.707 177.461 81.0649 181.164 51.2301C182.323 41.8742 189.677 22.9571 185.879 14.7524C183.305 9.18726 172.754 6.45968 167.761 9.68585C164.887 11.5409 159.769 18.9904 157.606 22.048C153.031 28.515 147.319 36.9617 144.225 44.1986C143.675 45.4744 142.369 47.9893 142.941 49.2431C143.579 50.6289 150.479 54.5956 152.268 56.1061C163.985 66.0485 166.5 81.6955 160.414 95.5753C158.786 99.2854 156.425 101.881 154.519 105.364C155.106 107.212 156.374 108.539 157.107 110.379C162.049 122.866 156.103 136.658 150.208 147.656C153.294 151.894 156.528 156.051 158.654 160.898C165.723 176.992 161.661 194.421 156.484 210.383C193.233 222.862 228.912 238.641 266.511 248.635C272.436 250.212 278.551 251.795 284.526 252.8C297.849 230.231 303.737 204.268 305.291 178.209L305.584 164.696C267.156 157.723 228.868 148.521 193.424 131.928H193.431ZM86.2708 81.0429C88.0305 79.2832 93.9696 80.5956 96.4185 81.0209C100.679 81.7615 105.298 83.0373 109.507 84.1151C122.954 87.5539 136.804 91.4253 148.213 99.5714C155.839 89.057 159.542 76.4529 150.171 65.6086C138.975 52.6599 107.725 46.0389 91.2273 46.4275C73.2194 46.8528 68.2115 56.2967 61.8105 71.1811C53.1805 91.2493 46.8015 115.497 41.9916 136.848C40.2832 144.437 37.2769 155.128 37.9588 162.709C38.5234 169.059 43.4433 173.465 47.9893 177.307C50.3576 179.309 64.3841 189.802 66.5985 189.259C67.8596 188.951 66.4958 184.918 66.4371 183.84C66.1512 178.84 66.4005 173.685 67.1264 168.751C66.6424 167.248 55.7981 167.262 54.9182 163.347C53.9797 159.19 55.5268 157.892 59.5009 158.412C70.5652 159.849 93.0457 166.588 103.267 171.28C106.816 172.908 110.746 174.69 109.551 179.448C106.508 180.981 102.614 179.749 99.5127 178.906C91.9386 176.853 84.841 172.63 76.9809 171.508C76.5923 172.05 76.2036 172.71 76.0277 173.363C75.4631 175.518 75.5731 184.728 76.0277 186.92C76.6143 189.794 79.3785 193.424 82.0987 194.567C90.8094 198.248 108.341 201.533 116.216 195.257C122.155 190.527 134.091 167.145 134.685 159.549C134.986 155.699 133.908 152.664 131.518 149.709C120.776 136.445 87.8105 133.388 71.8923 127.375C69.9566 126.642 68.6075 126.444 68.5342 124.024C68.4828 122.301 69.9273 120.094 71.6283 119.698C74.5832 119.016 84.1958 121.993 87.6346 122.888C100.913 126.334 120.102 131.32 131.291 139.033C132.926 140.155 139.129 145.728 140.463 145.662C141.886 145.588 143.616 142.919 144.335 141.761C164.014 110.078 138.439 99.5494 111.831 93.4123C106.757 92.2392 89.6436 89.8196 86.6594 86.5714C85.3469 85.1416 84.775 82.546 86.2708 81.0502V81.0429ZM148.741 207.208C152.466 193.152 156.125 178.921 150.112 164.879C148.69 161.558 146.358 157.393 142.78 156.213C142.853 165.503 138.491 174.859 134.047 182.836C132.031 186.458 129.399 189.809 127.47 193.497C125.777 196.73 122.902 201.276 128.284 202.545L148.749 207.208H148.741ZM143.462 236.053L146.688 215.479C145.053 213.294 128.402 211.461 124.303 209.701C122.147 208.77 119.075 205.419 117.543 205.177C116.01 204.935 111.457 206.695 109.184 206.871C100.334 207.553 89.4016 205.558 80.8743 203.183C78.2567 202.45 74.9205 200.793 72.4422 200.331C72.039 200.257 71.8556 200.067 71.5404 200.529L67.1557 238.187L143.469 236.06L143.462 236.053ZM180.064 234.66C178.737 226.771 168.26 222.481 161.507 219.974C159.915 219.38 157.305 218.295 155.795 217.921C155.34 217.811 155.282 217.693 154.908 218.119C154.028 219.123 152.473 229.696 152.275 231.676C152.217 232.262 151.938 235.005 152.253 235.203L180.057 234.66H180.064ZM188.922 234.242C192.969 234.279 197.163 236.39 201.027 236.728C201.907 236.808 202.992 237.058 203.615 236.244L187.617 230.092L188.922 234.242ZM180.064 467.568L185.879 242.036L150.552 243.495C149.496 244.353 149.672 259.802 149.474 262.295C149.262 264.979 148.367 268.088 145.068 268.095C140.353 268.11 140.962 261.254 141.028 258.064L142.78 243.466L67.383 245.563C64.6554 251.267 68.2629 259.809 66.3565 265.36C65.3593 268.271 61.9425 268.835 59.6768 267.046C56.8173 264.788 58.621 255.513 58.731 252.096C58.7603 251.135 58.929 246.802 58.3864 246.428C55.6735 245.805 52.7112 246.582 50.1156 246.641C46.1049 246.729 42.4975 246.692 38.4868 246.971C36.1625 247.132 34.0434 246.436 32.0564 248.1L7.69882 460.169L180.057 467.56L180.064 467.568ZM220.773 249.882C211.952 246.282 202.347 244.683 193.079 242.755L187.455 465.456L243.752 451.532L220.78 249.882H220.773Z" fill="black"/>
<path d="M180.065 467.568L7.70703 460.177L32.05 248.107C34.037 246.443 36.156 247.139 38.4803 246.978C42.491 246.7 46.0985 246.736 50.1092 246.648C52.7121 246.59 55.667 245.812 58.3799 246.436C58.9225 246.81 58.7539 251.136 58.7245 252.103C58.6219 255.513 56.8182 264.795 59.6704 267.054C61.936 268.843 65.3529 268.271 66.35 265.367C68.2564 259.81 64.649 251.275 67.3765 245.57L142.774 243.473L141.021 258.072C140.955 261.261 140.347 268.11 145.061 268.102C148.368 268.095 149.263 264.993 149.468 262.302C149.666 259.81 149.49 244.361 150.546 243.503L185.872 242.044L180.058 467.575L180.065 467.568Z" fill="#D2FA52"/>
<path d="M220.774 249.882L243.746 451.532L187.449 465.456L193.073 242.755C202.348 244.683 211.946 246.282 220.767 249.882H220.774Z" fill="#D2FA52"/>
<path d="M188.92 234.242L187.615 230.092L203.614 236.244C202.991 237.058 201.906 236.808 201.026 236.728C197.154 236.383 192.96 234.271 188.92 234.242Z" fill="white"/>
</svg>
