<svg width="439" height="415" viewBox="0 0 439 415" fill="none" xmlns="http://www.w3.org/2000/svg">
<path d="M329.567 0C334.212 1.75945 332.298 8.33014 332.103 12.1215C331.878 16.5279 332.485 20.9577 332.29 25.3641C332.22 26.999 332.049 29.7705 331.356 31.2108C330.096 33.8499 325.435 33.5385 324.532 30.7359C323.629 27.9332 324.034 22.9663 323.979 19.9223C323.894 15.0643 323.427 8.59483 324.361 3.86145C324.726 1.993 325.66 0.568318 327.536 0L329.567 0Z" fill="black"/>
<path d="M216.998 141.285V139.417C217.885 135.423 222.406 135.088 225.783 134.38C230.048 133.485 237.324 131.959 241.518 131.966C243.852 131.966 245.136 132.854 245.323 135.252C245.666 139.705 243.308 139.892 239.751 140.717C234.382 141.97 226.616 143.372 221.161 143.489C219.13 143.535 217.745 143.403 216.998 141.278V141.285Z" fill="black"/>
<path d="M322.922 45.8468C382.187 42.9741 420.768 107.217 385.992 156.949C377.86 168.58 366.935 177.19 365.363 192.449C364.764 198.265 367.386 204.875 364.468 210.207C363.565 211.85 361.962 213.01 361.223 214.77C359.246 219.48 361.69 223.466 357.628 227.965C355.309 230.535 351.41 231.321 349.776 233.68C348.453 235.587 347.831 237.533 346.189 239.417C336.298 250.807 320.587 250.052 310.666 239.16C308.853 237.167 308.261 235.12 306.822 233.166C305.382 231.212 302.783 231.134 300.931 229.733C295.896 225.902 297.421 222.002 297.025 216.677C296.737 212.8 294.231 212.722 292.542 209.966C289.212 204.555 292.69 201.099 292.62 195.813C292.402 179.791 278.699 167.358 270.1 155.252C239.013 111.523 269.501 48.4393 322.93 45.8468H322.922ZM357.542 192.169C358.982 170.371 379.556 157.829 386.832 138.615C401.143 100.818 376.101 60.2183 336.586 54.8076C283.874 47.5907 246.818 103.909 275.15 149.179C280.566 157.837 288.558 164.579 293.492 173.57C296.604 179.246 298.853 185.715 299.569 192.169H318.05L315.132 143.27C314.961 142.492 314.043 142.142 313.35 142.001C311.374 141.604 309.304 142.134 307.288 141.963C301.592 141.472 296.97 136.762 296.2 131.172C294.924 121.869 302.402 115.501 311.436 117.618C318.86 119.362 320.541 127.887 321.934 134.255L334.734 134.17C334.898 134.138 335.154 131.39 335.248 130.931C337.224 121.27 346.702 111.803 356.196 119.822C368.156 129.934 354.445 145.357 341.956 142.64L339.917 192.169H357.55H357.542ZM306.977 124.711C305.818 124.905 304.728 126.198 304.215 127.21C301.367 132.877 309.514 135.26 313.631 134.255C314.237 133.305 313.918 132.145 313.685 131.149C313.031 128.393 310.238 124.166 306.977 124.718V124.711ZM342.625 134.333C346.881 136.139 357.192 130.993 351.862 126.026C348.43 122.819 344.555 126.353 343.216 129.763C343.107 130.051 342.617 131.375 342.617 131.538V134.333H342.625ZM322.361 142.648L322.175 142.99C323.093 153.391 323.319 163.854 323.972 174.279C324.229 178.335 324.408 182.64 324.82 186.657C324.953 187.918 325.194 190.69 325.653 191.764C325.887 192.309 326.245 192.302 326.766 192.348C327.956 192.457 331.824 192.481 332.112 190.892C332.384 189.413 332.205 187.498 332.283 185.98C333.022 172.037 333.723 158.047 334.135 144.08C334.143 143.792 334.516 142.648 334.057 142.648H322.361ZM306.308 200.024C304.082 200.087 300.908 199.705 299.312 201.332C297.53 203.146 298.153 205.964 300.293 207.132C302.433 208.3 305.265 207.483 307.608 207.428C320.136 207.132 332.594 208.526 345.076 208.277C348.196 208.214 351.651 208.3 354.725 207.755C360.11 206.797 360.235 200.873 354.912 199.978C338.726 200.266 322.486 199.565 306.308 200.024ZM353.301 215.408H304.051L303.795 215.665V219.908C303.795 220.141 304.254 221.558 304.386 221.854C304.83 222.835 305.997 223.979 307.117 224.057C308.518 224.151 310.705 223.746 312.175 223.715C323.132 223.504 334.088 224.882 345.076 224.408C346.757 224.337 349.644 224.166 351.138 223.512C354.219 222.165 353.371 218.109 353.293 215.408H353.301ZM341.94 232.372H315.156C319.389 241.348 331.077 242.796 338.462 236.607C338.882 236.257 342.376 232.761 341.94 232.372Z" fill="black"/>
<path d="M221.878 71.9661C225.473 71.5301 235.667 75.703 239.418 77.2211C241.503 78.0619 245.347 79.4087 246.841 80.9891C249.448 83.7528 247.814 87.1705 244.203 87.5286C241.207 87.8245 234.873 85.232 231.823 84.1421C229.107 83.1689 222.353 80.9813 220.384 79.3075C217.614 76.9486 217.793 72.4721 221.878 71.9739V71.9661Z" fill="black"/>
<path d="M265.088 20.2414C266.123 21.1289 267.788 23.6668 268.675 24.8813C271.757 29.1087 277.64 37.2909 279.414 41.9542C280.807 45.6132 276.13 47.6685 273.111 46.3918C271.804 45.839 270.224 43.0831 269.376 41.8141C267.897 39.6187 266.473 37.3376 265.073 35.0955C263.376 32.3784 258.598 25.5976 258.871 22.6392C259.104 20.1246 263.407 18.8011 265.088 20.2414Z" fill="black"/>
<path d="M432.441 74.3406C436.682 74.037 438.503 79.9382 435.234 82.0635C432.76 83.6751 426.861 85.5357 423.865 86.6334C421.157 87.6221 415.967 89.8331 413.352 90.1913C408.567 90.8452 406.567 85.3644 410.139 82.5696C416.294 81.1293 421.741 77.7505 427.632 75.6485C429.017 75.1581 430.993 74.4496 432.433 74.3406H432.441Z" fill="black"/>
<path d="M412.947 132.013C417.009 131.694 431.296 135.283 435.405 136.926C437.965 137.945 440.291 140.258 438.159 142.998C435.778 146.058 430.915 144.61 427.724 143.932C422.977 142.92 416.908 141.495 412.425 139.728C410.317 138.895 409.484 138.529 409.577 135.952C409.663 133.703 410.628 132.2 412.939 132.021L412.947 132.013Z" fill="black"/>
<path d="M394.286 21.7518C398.574 21.02 399.337 26.0881 397.749 29.1166C396.356 31.7869 393.711 35.1578 391.929 37.7036C390.45 39.8134 386.528 45.8936 384.723 47.1237C381.011 49.6461 376.692 46.6488 378.42 42.3436L392.216 22.904C392.652 22.4369 393.656 21.853 394.279 21.744L394.286 21.7518Z" fill="black"/>
<path d="M357.542 192.169H339.908L341.947 142.64C354.437 145.357 368.156 129.935 356.188 119.822C346.702 111.803 337.216 121.262 335.239 130.931C335.146 131.39 334.889 134.139 334.726 134.17L321.925 134.255C320.532 127.887 318.851 119.362 311.428 117.618C302.393 115.501 294.915 121.861 296.191 131.172C296.954 136.762 301.584 141.472 307.28 141.963C309.296 142.134 311.365 141.612 313.342 142.002C314.034 142.142 314.953 142.492 315.124 143.271L318.042 192.169H299.561C298.845 185.708 296.604 179.246 293.483 173.57C288.55 164.579 280.558 157.837 275.142 149.179C246.809 103.916 283.865 47.5907 336.578 54.8076C376.101 60.2183 401.142 100.818 386.824 138.615C379.548 157.829 358.981 170.371 357.534 192.169H357.542Z" fill="#D2FA52"/>
<path d="M322.361 142.648H334.056C334.515 142.648 334.142 143.792 334.134 144.08C333.722 158.055 333.021 172.037 332.282 185.98C332.204 187.498 332.376 189.413 332.111 190.892C331.823 192.481 327.956 192.457 326.765 192.348C326.244 192.302 325.886 192.309 325.652 191.764C325.193 190.69 324.952 187.918 324.82 186.657C324.407 182.632 324.228 178.335 323.971 174.279C323.318 163.855 323.092 153.399 322.174 142.99L322.361 142.648Z" fill="#D2FA52"/>
<path d="M306.307 200.024C322.485 199.565 338.725 200.266 354.911 199.978C360.233 200.881 360.101 206.798 354.724 207.755C351.65 208.3 348.195 208.214 345.075 208.277C332.593 208.526 320.135 207.132 307.606 207.428C305.256 207.483 302.447 208.308 300.292 207.132C298.136 205.957 297.529 203.146 299.311 201.332C300.914 199.705 304.081 200.087 306.307 200.024Z" fill="white"/>
<path d="M353.302 215.408C353.379 218.109 354.228 222.165 351.146 223.512C349.652 224.166 346.765 224.33 345.084 224.408C334.097 224.883 323.14 223.505 312.184 223.715C310.713 223.746 308.526 224.151 307.125 224.057C306.005 223.979 304.838 222.835 304.394 221.854C304.262 221.558 303.803 220.141 303.803 219.908V215.665L304.06 215.408H353.309H353.302Z" fill="white"/>
<path d="M341.941 232.372C342.369 232.761 338.875 236.257 338.462 236.607C331.077 242.796 319.389 241.348 315.156 232.372H341.941Z" fill="white"/>
<path d="M342.625 134.333V131.538C342.625 131.375 343.107 130.044 343.224 129.763C344.555 126.361 348.43 122.827 351.87 126.026C357.2 131.001 346.889 136.139 342.633 134.333H342.625Z" fill="#D2FA52"/>
<path d="M306.977 124.711C310.246 124.158 313.039 128.393 313.685 131.141C313.918 132.138 314.237 133.305 313.631 134.247C309.514 135.252 301.359 132.869 304.215 127.202C304.721 126.19 305.818 124.905 306.977 124.703V124.711Z" fill="#D2FA52"/>
<path d="M303.801 284.26C318.244 285.303 341.075 281.488 352.872 288.511C369.509 298.406 370.334 319.153 348.507 321.987C348.616 330.403 346.546 333.641 338.741 336.514C325.893 341.247 305.747 346.658 292.269 349.336C252.17 357.308 211.48 339.776 172.455 353.813C158.511 358.826 145.15 368.387 132.279 375.65C131.719 380.578 133.329 384.922 132.652 390.232C129.579 414.21 102.491 416.413 83.3014 412.42C55.4977 406.635 18.7918 381.738 5.51639 356.281C3.18969 351.82 -0.747808 340.843 0.123733 336.133C0.364963 334.825 2.59829 333.836 3.65659 333.159C35.1955 323.497 67.995 316.031 99.2849 305.786C107.424 303.123 126.933 296.561 133.174 291.726C134.901 290.387 135.648 288.137 136.722 286.269C146.636 269.056 152.916 246.074 169.296 233.913C179.809 226.113 192.874 223.995 203.442 216.934C214.538 209.522 222.017 196.918 231.58 188.035C246.194 174.458 262.178 193.43 262.434 209.04C262.676 223.621 245.844 235.47 236.343 244.423C256.061 250.324 275.959 256.101 296.152 260.188C308.548 262.695 332.889 264.307 342.694 270.379C345.246 271.959 356.366 281.504 351.02 284.089C347.145 285.965 344.087 278.281 340.756 275.938C333.535 270.862 300.393 267.452 289.413 265.093C280.846 263.256 272.177 260.889 263.687 258.701C259.197 257.541 228.46 249.756 227.269 248.285C226.647 247.522 226.125 245.124 226.475 244.244C236.732 235.603 258.582 221.107 256.349 205.715C255.54 200.126 251.159 193.516 246.233 190.768C241.883 188.347 240.21 188.401 236.389 191.585C226.88 199.518 219.55 212.465 208.967 220.39C199.388 227.561 188.945 229.343 179.031 234.894C156.721 247.389 151.336 275.899 138.123 296.047L106.895 309.538L7.22057 338.281C5.29851 339.216 7.60965 344.33 8.21662 345.903C18.0837 371.501 49.3113 394.724 75.0529 402.198L155.336 355.409C193.061 330.808 236.35 349.009 276.651 345.257C298.58 343.217 319.427 335.751 340.406 329.648C346.172 322.976 338.173 312.567 330.648 311.804C323.59 311.088 310.159 315.004 302.253 315.72C291.989 316.654 281.079 315.541 270.87 314.443C267.959 314.132 252.956 312.676 251.665 311.835C250.451 311.041 249.665 308.962 250.326 307.654C251.688 304.953 262.17 307.942 265.01 307.654C257.625 295.657 252.707 282.539 249.213 268.892C248.863 265.926 252.326 263.123 254.567 265.949C256.302 268.137 256.17 273.727 257.617 276.514C273.025 279.114 288.137 283.123 303.801 284.252V284.26ZM268.566 301.613C269.811 303.707 272.169 308.371 274.309 308.962C280.402 310.66 296.269 310.48 302.844 309.889C316.198 308.69 332.173 301.193 343.075 311.812C344.095 312.808 345.036 315.128 345.822 315.65C348.055 317.129 356.086 313.851 357.744 311.415C360.662 307.133 358.623 303.162 355.938 299.472C346.865 286.985 333.185 291.002 320.112 290.768C309.606 290.582 299.171 290.153 288.775 288.596C285.055 288.036 260.925 282.283 259.983 283.411C262.52 289.608 265.142 295.844 268.566 301.613Z" fill="black"/>
<path d="M232.514 305.965C232.817 305.7 233.027 303.412 232.88 302.82C232.421 301.021 221.324 295.089 218.919 293.937C205.745 287.615 192.828 286.354 179.257 292.917C176.665 294.171 167.117 299.916 167.117 302.625C167.117 310.589 177.187 300.975 179.755 299.503C197.606 289.328 212.858 295.899 228.397 306.308C229.401 306.572 231.821 306.557 232.514 305.965Z" fill="black"/>
</svg>
