<svg width="52" height="46" viewBox="0 0 52 46" fill="none" xmlns="http://www.w3.org/2000/svg">
<path d="M31.2748 30.927C26.3226 23.4558 19.3381 19.4082 10.4108 18.8013C7.92039 18.6315 5.4777 19.0914 3.26592 20.3452C2.96058 20.5188 2.64189 21.0016 2.66097 21.3203C2.68006 21.639 3.05982 22.097 3.38042 22.2077C5.42427 22.9119 7.29064 23.9481 8.98334 25.2592C11.8669 27.4919 14.6626 29.8411 17.5442 32.0758C20.2674 34.1864 23.025 36.2513 25.8265 38.255C27.0096 39.1023 28.3932 39.5813 29.9848 39.5794C30.1164 39.5737 30.3378 39.5699 30.5592 39.5508C32.6183 39.3657 33.6221 38.0833 33.2767 36.0509C32.9637 34.2074 32.2996 32.4746 31.2729 30.927H31.2748Z" fill="#A67C52"/>
<path d="M30.2128 41.3205C25.8026 41.103 21.8847 39.5172 18.4211 36.8588C16.5203 35.4008 14.7818 33.731 12.9727 32.1547C10.1235 29.672 7.28392 27.1816 4.4233 24.7122C3.51683 23.9297 2.47487 23.7484 1.3852 24.3171C0.289804 24.8896 -0.0708746 25.8476 0.0111846 27.048C0.284079 31.0383 1.60466 34.6337 4.28017 37.6126C9.07586 42.9541 15.2437 45.3739 22.3065 45.7651C22.8847 45.7384 23.4648 45.7346 24.0392 45.6792C26.4953 45.4464 28.793 44.7747 30.7815 43.2404C31.1975 42.9197 31.394 42.5228 31.2414 42.0209C31.0944 41.5362 30.6994 41.3454 30.2128 41.3205Z" fill="#A67C52"/>
<path d="M21.498 20.1715C23.998 21.452 26.2212 22.9901 28.2441 24.8203C28.3719 24.9367 28.6983 24.9348 28.8872 24.8661C29.8051 24.5283 30.7097 24.1542 31.6142 23.7859C35.5435 22.1848 39.49 20.6238 43.3907 18.9521C44.4975 18.4769 45.5089 17.7365 46.4898 17.0189C47.4039 16.351 48.0127 15.4025 48.3524 14.311C48.8886 12.5858 48.2875 11.2328 46.5547 10.7519C45.0471 10.334 43.4727 10.0057 41.9174 9.94465C37.7 9.77862 33.7936 11.0076 30.1028 12.9751C26.7632 14.7556 23.8816 17.0914 21.5 20.1715H21.498Z" fill="#A67C52"/>
<path d="M51.5038 16.4407C51.437 15.9407 51.2309 15.5361 50.6965 15.4178C50.166 15.3014 49.8206 15.5667 49.5401 16.0018C47.4046 19.3261 44.4887 21.7688 40.9754 23.5283C38.2999 24.8699 35.4545 25.7496 32.5977 26.6008C31.9279 26.8011 31.2619 27.0091 30.5195 27.2362C32.7466 29.9728 34.3496 32.885 34.9049 36.4078C35.6683 36.1406 36.3667 35.965 37.0022 35.6578C38.4583 34.9498 39.9506 34.2819 41.3094 33.4117C45.3054 30.8526 48.5038 27.5416 50.4389 23.1409C51.3778 21.0093 51.8186 18.7803 51.5019 16.4388L51.5038 16.4407Z" fill="#A67C52"/>
<path d="M18.6811 18.8421C18.5437 17.7963 18.3892 16.7219 18.2632 15.6475C17.6773 10.703 18.3128 5.9798 20.8128 1.59059C20.954 1.3425 21.015 0.985642 20.9654 0.707023C20.8547 0.0810834 20.2116 -0.159369 19.4597 0.1078C16.9102 1.01427 15.0056 2.74705 13.4408 4.88822C11.2462 7.89388 10.0115 11.2965 9.38173 14.9376C9.25196 15.6876 9.17563 16.449 9.08594 17.115C10.7958 17.2982 12.3988 17.3784 13.9656 17.6608C15.5495 17.9471 17.0972 18.4375 18.6811 18.8421Z" fill="#A67C52"/>
<path d="M21.6827 17.5693C24.5853 14.4491 27.8887 12.1744 31.6443 10.5218C30.7493 7.20886 29.381 4.23183 26.8944 1.87311C25.5299 0.579243 24.0357 0.634585 22.7399 2.00287C21.8029 2.9914 21.2075 4.19557 21.1598 5.5276C21.072 7.89968 21.1026 10.2794 21.1923 12.6534C21.2533 14.2392 21.5014 15.8193 21.6846 17.5712L21.6827 17.5693Z" fill="#A67C52"/>
</svg>
