<svg width="52" height="46" viewBox="0 0 52 46" fill="none" xmlns="http://www.w3.org/2000/svg">
<path d="M31.2728 30.9283C26.321 23.4563 19.3369 19.4082 10.4103 18.8013C7.92003 18.6314 5.47751 19.0914 3.26588 20.3453C2.96056 20.519 2.64189 21.0019 2.66097 21.3206C2.68006 21.6393 3.05979 22.0974 3.38037 22.2081C5.42408 22.9124 7.29031 23.9487 8.98291 25.2599C11.8662 27.4929 14.6618 29.8424 17.5432 32.0773C20.2662 34.1882 23.0236 36.2532 25.8249 38.2572C27.0079 39.1046 28.3914 39.5837 29.9829 39.5818C30.1145 39.576 30.3359 39.5722 30.5572 39.5531C32.6162 39.368 33.6199 38.0855 33.2745 36.0528C32.9616 34.2092 32.2975 32.4762 31.2709 30.9283H31.2728Z" fill="#754C24"/>
<path d="M30.2107 41.3232C25.8008 41.1056 21.8832 39.5196 18.4198 36.861C16.5192 35.4029 14.7808 33.7329 12.9718 32.1564C10.1228 29.6733 7.28341 27.1827 4.42299 24.713C3.51658 23.9305 2.4747 23.7491 1.3851 24.3179C0.289784 24.8905 -0.0708696 25.8486 0.0111838 27.0491C0.284059 31.0399 1.60455 34.6356 4.27987 37.6149C9.07523 42.957 15.2426 45.377 22.3049 45.7683C22.8831 45.7416 23.4632 45.7377 24.0376 45.6824C26.4935 45.4495 28.791 44.7777 30.7793 43.2432C31.1953 42.9226 31.3919 42.5256 31.2392 42.0237C31.0923 41.5389 30.6973 41.348 30.2107 41.3232Z" fill="#754C24"/>
<path d="M21.4961 20.1724C23.9959 21.4531 26.2189 22.9914 28.2417 24.8217C28.3695 24.9381 28.6958 24.9362 28.8847 24.8675C29.8026 24.5297 30.7071 24.1556 31.6116 23.7872C35.5406 22.186 39.4868 20.6247 43.3872 18.9528C44.494 18.4776 45.5053 17.7371 46.4861 17.0195C47.4002 16.3515 48.0089 15.4029 48.3486 14.3112C48.8848 12.5859 48.2837 11.2327 46.551 10.7517C45.0435 10.3338 43.4692 10.0055 41.914 9.94441C37.6969 9.77836 33.7908 11.0075 30.1003 12.9752C26.7609 14.7559 23.8795 17.092 21.498 20.1724H21.4961Z" fill="#754C24"/>
<path d="M51.5004 16.442C51.4336 15.942 51.2275 15.5374 50.6932 15.419C50.1627 15.3026 49.8173 15.5679 49.5368 16.0031C47.4015 19.3278 44.4857 21.7707 40.9727 23.5304C38.2974 24.8722 35.4522 25.752 32.5956 26.6032C31.9258 26.8036 31.2599 27.0117 30.5176 27.2388C32.7445 29.9757 34.3474 32.8881 34.9027 36.4114C35.666 36.1442 36.3644 35.9686 36.9998 35.6613C38.4558 34.9532 39.948 34.2852 41.3067 33.4149C45.3025 30.8555 48.5006 27.5442 50.4356 23.143C51.3744 21.0111 51.8152 18.7819 51.4985 16.4401L51.5004 16.442Z" fill="#754C24"/>
<path d="M18.6805 18.8442C18.5431 17.7983 18.3885 16.7238 18.2626 15.6493C17.6767 10.7042 18.3122 5.98047 20.8119 1.59077C20.9532 1.34265 21.0142 0.985753 20.9646 0.707102C20.8539 0.0810925 20.2109 -0.159387 19.459 0.107812C16.9096 1.01438 15.0052 2.74736 13.4405 4.88877C11.246 7.89476 10.0114 11.2977 9.38171 14.9393C9.25195 15.6893 9.17562 16.4509 9.08594 17.117C10.7957 17.3002 12.3986 17.3803 13.9653 17.6628C15.5491 17.9491 17.0966 18.4396 18.6805 18.8442Z" fill="#754C24"/>
<path d="M21.6827 17.5721C24.5851 14.4516 27.8882 12.1766 31.6436 10.5238C30.7486 7.21054 29.3804 4.23318 26.894 1.87419C25.5296 0.580179 24.0355 0.635528 22.7398 2.00397C21.8029 2.99261 21.2075 4.19691 21.1598 5.52909C21.072 7.90144 21.1026 10.2814 21.1922 12.6557C21.2533 14.2417 21.5014 15.822 21.6846 17.5741L21.6827 17.5721Z" fill="#754C24"/>
</svg>
