<svg width="179" height="173" viewBox="0 0 179 173" fill="none" xmlns="http://www.w3.org/2000/svg">
<path d="M75.1201 122.753C76.6307 123.594 76.0135 126.033 74.4807 126.558L11.5185 104.38C9.21509 103.289 8.35001 100.489 9.23397 98.126L42.3191 5.83795C44.4142 3.14832 47.6669 2.0651 51.0153 2.80249L133.892 32.2947L135.962 33.842L135.083 36.3347L131.951 36.3614L49.5165 6.99815C48.4347 6.17695 45.6774 7.82517 45.3944 8.62002L42.8486 15.7695L43.2548 16.6249L74.7965 27.8565C75.154 27.9838 80.9263 26.7315 82.2568 26.6414C96.2819 25.6883 106.803 30.9036 116.49 40.5611C117.029 41.0987 118.652 43.4729 118.959 43.5822L159.122 57.8837L162.043 49.6828C162.183 49.2875 161.295 46.7391 160.536 46.5543C155.154 43.9032 147.142 42.7419 142.077 39.9434C139.325 38.4232 140.159 35.0429 143.132 35.6512C147.111 36.4663 157.412 40.2482 161.198 42.0465C164.343 43.5408 166.036 46.001 166.157 49.4799L142.481 115.942C141.169 116.925 138.622 115.454 139.129 114.032L157.773 61.6729L122.446 49.0936C131.847 67.9134 125.918 90.3539 109.084 102.789L114.149 113.691C114.778 114.346 117.886 113.083 120.009 115.773C123.71 121.853 126.008 130.476 129.78 136.293C130.09 136.768 130.021 137.293 130.823 137.37L136.589 121.179C137.063 119.846 140.848 121.194 140.374 122.527L133.185 142.713C133.54 146.294 139.875 155.014 139.536 157.869C139.316 159.753 138.669 160.451 137.187 161.445C135.562 162.534 126.423 166.909 124.635 167.391C122.528 167.958 120.344 167.332 119.168 165.444L106.169 138.069L80.9359 129.084C79.6027 128.609 80.9505 124.824 82.2836 125.299L103.522 132.862C102.103 128.129 97.3246 123.968 102.324 119.631L96.8604 108.331C94.3162 108.875 91.805 109.459 89.1981 109.687C67.2322 111.594 47.4523 96.3433 44.1064 74.5854C41.2343 55.9153 51.5482 37.6236 68.6207 29.9223L41.2719 20.1838L12.8935 99.8793L13.2997 100.735L75.1216 122.749L75.1201 122.753ZM96.5276 32.4244C63.9941 22.2613 35.8098 57.6279 52.9641 87.1461C67.5207 112.195 104.6 111.561 118.19 86.1329C129.256 65.4221 119.113 39.4764 96.5291 32.4201L96.5276 32.4244ZM101.082 106.417C100.695 106.971 100.997 107.174 101.115 107.614C101.362 108.531 105.508 117.263 105.966 117.573C107.004 118.279 109.312 116.546 110.405 116.059L105.484 105.165L101.077 106.416L101.082 106.417ZM116.215 117.99C115.607 117.887 105.779 122.638 105.027 123.19C104.623 123.487 104.241 123.668 104.253 124.26C106.418 127.87 118.686 157.202 120.521 157.344C121.181 157.394 132.27 152.15 132.381 151.493L116.216 117.986L116.215 117.99ZM134.088 155.631C133.463 155.522 123.059 160.546 122.617 161C121.694 161.956 122.202 163.71 123.72 163.307C127.174 162.39 131.782 158.885 135.395 157.721L134.083 155.629L134.088 155.631Z" fill="#303030"/>
<path d="M145.228 63.6038C146.275 62.1284 149.395 63.8792 149.013 64.9516L134.038 107.007C133.595 108.252 129.604 107.48 130.103 106.08L145.228 63.6038Z" fill="#303030"/>
<path d="M40.768 97.138C40.1391 97.4401 39.0523 97.0721 38.381 96.8946C35.7912 96.2094 29.2345 94.0215 27.0493 92.8122C24.1352 91.2011 25.4149 88.06 28.1017 88.486C30.0398 88.7923 38.8491 92.0002 40.6746 92.982C41.3701 93.3576 42.0652 93.8942 42.151 94.7446C42.1267 95.4515 41.3995 96.8416 40.7722 97.1395L40.768 97.138Z" fill="#303030"/>
<path d="M24.3765 97.5759C22.3115 96.4283 24.4752 93.3462 25.3037 93.6412L39.6026 98.7328C40.9358 99.2075 39.588 102.993 38.2549 102.518C34.4236 101.154 27.5962 99.3669 24.3765 97.5759Z" fill="#303030"/>
<path d="M34.9348 85.2233L43.346 88.2184C44.6791 88.6931 43.3314 92.4781 41.9982 92.0034L33.5871 89.0083C32.481 88.6144 33.1363 85.2037 34.9348 85.2233Z" fill="#303030"/>
<path d="M29.0898 83.2225C34.7933 83.2678 32.7375 90.625 27.559 86.6296C26.7711 85.4486 27.63 83.2097 29.0898 83.2225Z" fill="#303030"/>
<path d="M54.6895 12.726C58.3849 12.9282 56.8863 18.2281 53.7202 16.5794C51.8661 15.6112 52.8249 12.6259 54.6895 12.726Z" fill="#303030"/>
<path d="M62.116 15.8779C63.1227 17.895 59.2103 20.0323 57.9842 17.4869C56.8435 15.1141 60.7687 13.1804 62.116 15.8779Z" fill="#303030"/>
<path d="M66.1877 20.4125C64.7064 21.1124 62.4878 19.877 63.2258 17.8178C64.6186 13.9066 69.6093 18.8018 66.1877 20.4125Z" fill="#303030"/>
<path d="M93.7981 34.7696C120.165 41.5427 128.669 74.847 108.762 93.5141C88.9179 112.127 55.7787 100.777 51.2503 73.9827C47.1066 49.4481 69.8568 28.6233 93.7981 34.7696ZM94.9925 39.4267C56.3465 26.4141 37.4761 86.5546 77.4779 97.5431C114.504 107.718 131.726 51.796 94.9925 39.4267Z" fill="#303030"/>
<path d="M94.9925 39.4263C131.726 51.7956 114.504 107.718 77.4778 97.5427C37.4733 86.5485 56.3479 26.4095 94.9925 39.4263ZM96.8529 65.0765C98.5847 60.6653 105.595 55.2432 99.5418 51.3768C90.8366 50.2721 81.9712 48.9255 73.2442 48.8934C71.1455 49.6104 70.2944 51.8142 70.7549 53.8879C71.6271 57.8 77.6735 66.0519 78.0153 69.3107C78.4656 73.6222 72.1857 91.218 81.9014 88.4603C84.7901 87.6408 102.544 79.2107 104.999 77.4928C112.056 72.5517 100.267 67.4913 96.8529 65.0765ZM66.0984 66.5789C62.3914 68.3391 68.1614 73.5214 69.0133 68.7068C69.312 67.0029 67.4501 65.9371 66.0984 66.5789ZM74.7183 69.6531C72.8839 65.8485 67.6342 71.8078 72.6043 72.5824C74.0414 72.8051 75.3511 70.9636 74.7183 69.6531ZM62.7275 76.0457C63.9828 78.682 67.8704 76.4411 66.4238 74.1158C64.9772 71.7904 61.643 73.7545 62.7275 76.0457ZM71.3489 79.1156C72.6675 78.5 72.8164 76.2452 71.562 75.5094C67.2209 72.9685 67.5227 80.9045 71.3489 79.1156Z" fill="#DAF96E"/>
<path d="M96.8534 65.0768C100.268 67.4916 112.055 72.5562 105 77.4931C102.544 79.211 84.7906 87.6411 81.9019 88.4606C72.1878 91.2141 78.4661 73.6225 78.0158 69.311C77.6741 66.0522 71.6291 57.7961 70.7555 53.8882C70.2908 51.813 71.1461 49.6107 73.2448 48.8937C81.9718 48.9258 90.8372 50.2724 99.5424 51.3772C105.596 55.2435 98.5811 60.6641 96.8534 65.0768ZM97.4563 55.3589L74.9843 53.271L78.6387 60.9744C82.5259 53.1321 88.4524 60.3367 93.3493 62.9003L97.4563 55.3589ZM91.1631 66.3915L83.351 61.7142C81.5724 66.8954 83.0486 70.3354 85.5543 74.8102C86.2731 75.0804 90.1727 67.323 91.1574 66.3942L91.1631 66.3915ZM102.732 73.828L94.6558 68.5735C91.464 73.1187 87.4845 84.9467 81.5085 76.2175L80.4951 84.3866L102.732 73.828Z" fill="#303030"/>
<path d="M66.0982 66.5793C67.4499 65.9374 69.3118 67.0033 69.0131 68.7071C68.1612 73.5217 62.3912 68.3395 66.0982 66.5793Z" fill="#303030"/>
<path d="M74.7188 69.6533C75.3515 70.9638 74.0419 72.8053 72.6047 72.5826C67.6347 71.808 72.8843 65.8488 74.7188 69.6533Z" fill="#303030"/>
<path d="M71.3491 79.1158C67.5229 80.9047 67.2212 72.9687 71.5623 75.5096C72.8167 76.2454 72.6678 78.5002 71.3491 79.1158Z" fill="#303030"/>
<path d="M62.7255 76.0457C61.6396 73.7587 64.9587 71.7704 66.4219 74.1158C67.885 76.4613 63.9808 78.682 62.7255 76.0457Z" fill="#303030"/>
<path d="M97.4553 55.3589L93.3483 62.9002C88.4513 60.3367 82.5233 53.1363 78.6376 60.9744L74.9833 53.271L97.4553 55.3589Z" fill="#DAF96E"/>
<path d="M102.733 73.8284L80.4965 84.387L81.5099 76.218C87.4858 84.9471 91.4654 73.1192 94.6572 68.5739L102.733 73.8284Z" fill="#DAF96E"/>
<path d="M91.1625 66.3914C90.1778 67.3203 86.2782 75.0776 85.5594 74.8074C83.0522 70.3368 81.5718 66.8953 83.3561 61.7114L91.1682 66.3887L91.1625 66.3914Z" fill="#DAF96E"/>
</svg>
