<svg width="166" height="146" viewBox="0 0 166 146" fill="none" xmlns="http://www.w3.org/2000/svg">
<path d="M71.1475 7.36145e-05C72.7393 -0.0148722 73.8602 2.24941 72.9261 3.66179L53.9674 30.6015L53.6685 36.0418H72.5076C88.6789 36.0418 98.3862 48.7831 99.0139 64.1398L98.9915 141.432C102.459 141.051 105.919 141.514 103.774 145.669L6.4772 145.759C2.47921 140.057 10.5574 141.38 11.0805 140.886C12.052 139.967 10.3332 117.399 11.0805 114.133C5.93168 114.328 0.767915 110.987 0.162612 105.667C-0.0914662 103.41 -0.196087 94.2406 0.999575 92.8507C2.80054 90.7508 8.93578 92.1258 11.626 91.7372C11.5363 80.4457 11.7157 69.1616 12.1715 57.885C13.4868 50.2328 17.6865 42.8421 24.2328 38.5452C27.6105 36.3258 30.4353 37.3122 29.6656 32.4623C29.3891 30.7211 28.2457 29.6375 27.3564 28.2177C22.2749 20.1021 15.6165 12.3378 10.3033 4.29698C9.5635 3.40024 9.3991 0.911765 10.5275 0.545594C31.1153 0.620323 51.322 0.440974 71.1475 7.36145e-05Z" fill="black"/>
<path d="M144.198 48.7533C152.672 47.8566 160.795 51.6603 163.904 59.8655C170.54 77.3745 152.836 101.945 136.419 107.595C120.367 113.117 107.028 105.323 108.283 87.6497C109.464 70.9852 127.287 50.5393 144.19 48.7533H144.198Z" fill="black"/>
<path d="M114.647 4.48397C116.014 4.35694 117.591 6.06823 117.539 7.37598C117.494 8.57911 115.476 10.1484 115.088 11.4412C113.399 17.0384 120.214 21.2606 120.334 27.5677C120.386 30.4597 118.705 38.2614 115.11 38.2764C109.692 38.2988 114.737 32.3354 115.14 30.6166C117.016 22.6655 106.561 19.6614 110.91 8.90792C111.456 7.55533 113.122 4.62596 114.647 4.48397Z" fill="#1D3B2C"/>
<path d="M132.156 37.5139C130.535 38.8441 127.777 38.5153 127.471 36.1762C127.292 34.7788 129.646 32.4398 129.997 30.7285C131.775 22.1198 121.948 18.6822 126.201 8.90769C127.067 6.91991 129.474 3.20588 131.73 5.21609C134.428 7.60741 130.774 9.33365 130.258 11.3214C128.599 17.651 135.362 21.5369 135.601 27.6048C135.699 29.9812 133.957 36.0343 132.156 37.5139Z" fill="#1D3B2C"/>
<path d="M99.349 4.46135C100.627 4.21474 101.897 5.82141 102.017 7.04697C102.181 8.68353 100.201 10.1183 99.7974 11.4485C97.7722 18.0919 106.433 22.4112 104.087 32.126C103.504 34.5547 100.089 40.8767 97.3089 37.4616C95.6873 35.4738 98.6166 33.1647 99.1696 31.0349C101.277 22.9941 90.3217 17.7631 96.1506 7.8092C96.599 7.04696 98.6615 4.59586 99.3415 4.46135H99.349Z" fill="#1C3B2B"/>
<path d="M71.1477 0.000244141C71.0506 0.000244141 70.2809 0.583129 69.3019 0.583129C49.7155 0.583129 30.0917 0.5084 10.5352 0.545765L71.1477 0.000244141Z" fill="#030805"/>
<path d="M11.634 91.7372C12.3963 80.9164 10.3637 68.4442 12.1796 57.885L11.634 91.7372Z" fill="#040903"/>
<path d="M67.8763 91.7372H17.0905C16.829 90.848 16.5674 90.3996 16.5226 89.316C16.1041 79.2052 15.297 60.2689 19.7285 51.5032C21.776 47.4604 25.9384 42.7301 30.198 40.9515V53.7825C30.198 54.1412 31.9541 55.5461 32.664 55.6806C35.1375 56.1514 47.9984 56.0841 50.6961 55.7179C51.8768 55.5535 53.6703 54.3355 53.6703 53.2369V40.406C73.451 48.7532 66.6133 74.7065 67.8688 91.7372H67.8763Z" fill="#D2FA52"/>
<path d="M65.1393 4.91724L50.1113 26.753C49.7078 27.3284 49.1174 27.2686 48.5196 27.3434C46.8382 27.5451 33.6261 27.4555 32.9237 27.037L18.6878 6.86766L18.1797 4.91724H65.1393Z" fill="#FDF9F0"/>
<path d="M59.1374 97.1999C58.9207 103.223 60.7889 107.759 53.331 108.596C43.676 109.687 22.2736 109.538 12.4543 108.656C10.601 108.491 6.16211 107.49 6.16211 105.114V97.1924H59.1299L59.1374 97.1999Z" fill="#FDF9F0"/>
<path d="M47.1216 37.6785V50.2404C44.9246 51.04 35.6582 51.7051 35.6582 48.3273V38.5005C35.6582 38.4407 36.4204 37.6785 36.4802 37.6785H47.1291H47.1216Z" fill="#D2FA52"/>
<path d="M68.4168 111.122C68.4019 111.354 67.9086 112.019 67.8339 112.773C67.6546 114.559 69.1043 115.897 66.3842 117.287C64.6878 118.154 57.6783 118.46 56.6545 116.876C54.8386 114.059 57.6484 114.081 59.0757 113.252C60.929 112.176 64.5907 108.97 64.5907 106.75V97.4689C64.5907 96.3554 68.4093 96.3554 68.4093 97.4689C68.4093 101.908 68.6784 106.75 68.4093 111.122H68.4168Z" fill="#D2FA52"/>
<path d="M121.389 102.648C132.105 96.1386 133.562 84.0699 140.056 74.6317C144.338 68.4068 150.578 62.9516 157.438 59.7532C162.915 69.0719 156.646 82.7771 150.309 90.3546C143.972 97.9321 131.813 106.235 121.389 102.648Z" fill="#D2FA52"/>
<path d="M152.512 55.1574C153.371 56.0168 152.175 56.1139 151.802 56.368C142.625 62.7125 137.439 66.8226 132.021 76.9782C128.307 83.9429 127.956 90.0558 121.342 95.2345C117.479 98.2535 115.02 100.182 114.288 93.6427C112.539 78.002 126.252 59.7084 141.071 55.4414C143.141 54.8435 151.219 53.8571 152.512 55.1499V55.1574Z" fill="#D2FA52"/>
<path d="M31.8339 70.9852C31.1464 70.2603 20.9011 72.973 21.1328 67.4281C21.3196 62.8621 29.9732 65.0891 32.5439 64.3194C33.6723 63.9831 35.0548 61.6814 36.228 60.9042C41.5412 57.4294 50.2845 60.6801 51.3606 67.0171C53.7444 81.0511 36.4522 84.2869 32.4318 74.4825C31.9236 73.2495 31.9535 71.1122 31.8339 70.9852Z" fill="#1C3B2B"/>
<path d="M56.9488 82.456C57.7708 83.5097 59.7287 84.1524 59.5643 85.9234C59.385 87.844 57.7708 88.3372 56.1642 88.4941C46.9949 89.4207 36.1069 87.8514 26.7509 88.3297C23.6048 87.7319 24.1802 83.1136 27.4608 82.456C36.9065 81.9852 47.3835 81.9927 56.9488 82.456Z" fill="#1D3B2C"/>
<path d="M27.4715 82.4559L27.1875 81.9104H57.2285C57.9085 81.9328 56.937 82.4335 56.9595 82.4559H27.4715Z" fill="#D3F8B5"/>
<path d="M44.2396 66.7703C47.5949 70.1182 43.3129 75.8873 39.1655 73.2045C34.6593 70.2901 40.1594 62.6976 44.2396 66.7703Z" fill="#F9F6ED"/>
</svg>
