<svg width="76" height="62" viewBox="0 0 76 62" fill="none" xmlns="http://www.w3.org/2000/svg">
<path d="M72.2825 32.161C70.5685 33.1235 68.8996 34.1594 67.1423 35.0221C64.8142 36.1654 62.7913 37.6666 61.2656 39.7517C59.934 41.5693 58.7455 43.4924 57.4929 45.3665C56.0143 47.5797 54.6318 49.8663 53.027 51.9834C51.2716 54.3021 48.9416 55.9445 46.1559 56.8806C44.2761 57.5135 43.1045 56.9974 42.3304 55.161C40.8669 51.6858 41.0383 48.173 42.5564 44.8278C46.2764 36.6325 52.5486 31.3134 61.2581 28.9966C63.5089 28.3977 65.8671 28.4297 68.1726 28.8799C69.9714 29.2321 71.4537 30.0759 72.2825 32.1591V32.161Z" fill="#D8501C"/>
<path d="M40.4773 33.2894C35.3842 33.2649 31.0727 31.1892 27.1305 28.2377C22.8567 25.0357 19.4362 21.1217 17.6864 15.9683C16.5996 12.7644 16.5581 9.56236 17.967 6.41873C18.6451 4.90247 19.7865 4.37508 21.412 4.87422C24.2939 5.7576 26.7161 7.40194 28.496 9.7865C30.3683 12.2954 31.9806 14.9945 33.7116 17.6089C34.5592 18.8897 35.3842 20.1893 36.277 21.44C37.9514 23.7793 40.0817 25.5687 42.6942 26.8269C44.2406 27.5709 45.6796 28.5391 47.1676 29.4036C47.7402 29.7351 47.7044 30.1344 47.3748 30.6411C46.4914 32.0029 45.1842 32.6885 43.651 32.956C42.6057 33.1387 41.5358 33.1839 40.4754 33.2894H40.4773Z" fill="#D8501C"/>
<path d="M23.4993 60.6177C17.2799 60.2071 11.7065 57.4308 6.80925 53.1231C3.35295 50.0849 1.03054 46.3668 0.167877 41.8124C-0.148559 40.1398 -0.0920524 38.4974 0.992869 37.0414C1.43362 36.45 1.86307 36.1825 2.51289 36.7664C3.42076 37.5839 4.47742 38.2676 5.25721 39.1886C8.28783 42.7655 12.2678 44.5624 16.7016 45.6209C19.6588 46.3273 22.6235 47.0336 25.5279 47.9226C28.6489 48.8776 31.3311 50.5935 33.3503 53.2305C34.7083 55.0029 34.5821 56.2611 32.902 57.6832C30.2952 59.8869 27.2174 60.6422 23.4974 60.6177H23.4993Z" fill="#D8501C"/>
<path d="M28.2003 0.00142187C32.6096 0.127619 36.518 1.72486 40.1005 4.17535C44.9921 7.52241 48.7045 11.8395 50.6295 17.524C51.3471 19.6468 51.6541 21.8581 51.4884 24.107C51.2963 26.712 49.8045 27.8383 47.3258 26.9832C42.6376 25.3633 38.6972 22.6944 36.1601 18.2737C34.8492 15.9908 33.5721 13.6873 32.2273 11.4232C30.2307 8.06111 27.5128 5.52021 23.8041 4.09625C23.028 3.79865 22.3029 3.31834 21.6286 2.82109C21.0616 2.40482 21.0296 1.95277 21.7774 1.55158C23.789 0.477958 25.9212 -0.0305984 28.2003 0.00142187Z" fill="#D8501C"/>
<path d="M52.52 61.8367C50.3106 61.8442 48.2255 61.3545 46.2892 60.2827C45.5132 59.8533 45.4473 59.5011 46.148 58.968C46.7884 58.4802 47.5003 58.0338 48.25 57.7475C52.0246 56.3066 54.7708 53.7092 56.7843 50.2773C57.9898 48.2224 59.1858 46.1599 60.3141 44.0617C62.6497 39.7239 66.381 37.0285 70.7828 35.1657C74.2542 33.6965 76.0398 34.951 76.0002 38.7199C75.9456 43.7377 74.0301 48.0567 70.8883 51.8689C66.8801 56.7304 61.9283 60.1377 55.6938 61.5033C55.1438 61.6238 54.5825 61.7029 54.0212 61.7632C53.5239 61.8159 53.0191 61.8141 52.5181 61.8385L52.52 61.8367Z" fill="#D8501C"/>
<path d="M12.8053 29.7126C22.6355 30.613 30.3863 34.8849 35.3099 43.6471C36.7452 46.2012 37.2123 49.0152 36.7395 51.9422C36.5455 53.142 36.1198 53.3153 35.1404 52.5713C34.6695 52.2135 34.2024 51.8141 33.8407 51.3508C30.974 47.6835 27.075 45.8866 22.6261 45.0108C20.072 44.5079 17.5161 43.9956 14.9978 43.3457C10.7014 42.2363 7.58225 39.3978 4.81344 36.111C4.47629 35.7117 4.23143 35.2126 4.03554 34.7229C3.5025 33.395 3.82647 32.327 5.01498 31.5246C6.76668 30.3417 8.81032 30.1063 10.8314 29.8351C11.4831 29.7484 12.1461 29.7522 12.8034 29.7126H12.8053Z" fill="#D8501C"/>
</svg>
