<svg width="189" height="174" viewBox="0 0 189 174" fill="none" xmlns="http://www.w3.org/2000/svg">
<g clip-path="url(#clip0_189_291)">
<path d="M94.4968 174C146.686 174 188.994 169.585 188.994 164.14C188.994 158.694 146.686 154.279 94.4968 154.279C42.3076 154.279 0 158.694 0 164.14C0 169.585 42.3076 174 94.4968 174Z" fill="black"/>
<path d="M40.2577 33.4164L40.5736 32.7162C41.2762 23.2155 39.4971 12.0831 40.7928 2.78155C40.883 2.1456 41.07 1.32978 41.5921 0.931507C43.2424 -0.321123 48.7669 0.944355 50.9071 0.231319L52.3059 0.424031C69.8915 0.359794 87.4771 0.475421 105.063 0.424031C117.034 0.391913 129.262 -0.340394 141.246 0.1992C142.148 0.237743 143.67 0.30198 144.495 0.424031C146.957 0.790185 146.351 4.23974 146.455 6.01269C146.474 6.41096 146.648 6.79639 146.667 7.22678C146.99 15.8603 146.326 24.5837 146.758 33.2172L146.957 33.3586C148.492 32.8961 150.181 33.3778 151.657 33.4164C154.822 33.4999 158.89 33.0438 161.894 33.4035C164.356 33.699 165.529 38.2021 166.516 40.2063C169.951 47.1568 173.561 54.0238 176.901 61.0256C176.836 62.8885 176.791 64.7964 176.404 66.6207C175.495 70.9054 171.84 75.2478 167.495 76.3077L167.605 150.341C168.043 151.074 172.807 150.656 173.942 150.753C175.47 150.881 176.907 151.112 177.12 152.885C177.539 156.425 176.836 160.825 177.068 164.454C176.849 165.212 176.449 165.694 175.689 165.932L13.8793 166.035C12.8737 165.932 12.113 165.296 11.9583 164.287C11.6489 162.283 11.6876 154.973 11.939 152.885C12.0034 152.352 12.3193 151.581 12.7641 151.266C12.9962 151.106 14.279 150.753 14.4982 150.753H21.9566L21.7567 76.9051C21.6472 76.3334 19.6488 75.8067 18.959 75.4148C15.9744 73.719 13.4732 70.0125 12.8157 66.6657C11.5522 60.1777 14.2661 57.6403 16.8124 52.2315C18.6238 48.3966 20.4353 44.5423 22.1951 40.6881C22.8591 39.2299 24.2128 34.9388 25.2313 34.1423C25.5343 33.9046 26.8429 33.4228 27.1652 33.4228H40.2513L40.2577 33.4164ZM142.774 4.07914H44.2416V33.6155H142.98V4.58662C142.98 4.52238 142.709 4.27828 142.774 4.07914ZM43.9386 37.2835H27.7905L17.4635 59.3876C17.4184 59.8051 17.4828 59.651 17.7665 59.6895C19.7713 59.9721 23.3748 59.7345 25.5472 59.6959C26.1274 59.6895 26.6302 59.4839 27.1652 59.4711C30.1241 59.4197 33.0894 59.5482 36.0483 59.4582L44.2416 37.7717C44.2673 37.5918 44.074 37.3156 43.9386 37.2771V37.2835ZM40.1546 59.4904H60.1898L65.3017 37.489C59.6096 37.11 53.8208 37.2642 48.1287 37.3798L40.161 59.4839L40.1546 59.4904ZM83.8994 37.489L68.7956 37.3028L63.8706 59.4839H81.8559L83.8994 37.4826V37.489ZM101.891 37.2835H87.374C86.6906 42.5766 86.5037 47.9405 86.1427 53.2722C86.0331 54.9102 85.4594 57.6724 85.7366 59.182C85.7753 59.4133 85.8397 59.561 86.046 59.6895H103.419C103.458 59.6895 104.141 59.439 104.147 59.3683L101.885 37.2771L101.891 37.2835ZM120.876 37.3092L105.366 37.4826L108.015 59.5931L126.213 59.4839L120.869 37.3092H120.876ZM140.324 37.2835H124.788C124.705 38.125 124.93 38.9215 125.091 39.7309C126.4 46.3153 128.566 53.1244 130.3 59.5996L148.704 59.4904L140.324 37.2899V37.2835ZM172.008 59.6895L161.068 37.2835H144.92C144.779 37.2835 144.637 37.6304 144.605 37.7974C144.482 38.5104 145.713 41.7673 146.042 42.6858C148.079 48.3966 150.625 53.9531 152.585 59.6895H172.008ZM58.9585 63.1583L39.5357 63.2611C40.2771 76.5775 58.5846 76.6225 58.9585 63.1583ZM81.1404 63.3575C76.0413 63.9484 68.5313 63.3575 63.1486 63.3575C63.0842 63.3575 62.8586 63.0748 62.6394 63.1519C63.0777 76.6803 81.1661 76.6353 81.6496 63.1519C81.424 63.0748 81.2306 63.3446 81.1404 63.3575ZM104.347 63.1519H85.6463C85.4852 65.9976 86.5037 68.9847 88.7083 70.8989C95.3416 76.6482 104.489 71.355 104.354 63.1519H104.347ZM127.038 63.1583C120.702 62.9014 114.358 63.7429 108.028 63.1583C108.144 67.1989 110.046 70.8925 113.881 72.4985C120.573 75.3056 126.916 69.9932 127.038 63.1583ZM149.723 63.1583L130.713 63.3575C130.223 70.9503 138.738 75.948 145.21 71.7918C148.118 69.9225 149.652 66.5501 149.723 63.1519V63.1583ZM172.827 63.3575L153.894 63.1648L153.43 63.4731C153.9 76.6353 173.013 76.584 172.827 63.3575ZM35.8613 63.3575H16.0324C16.7995 77.0336 34.8686 76.7445 35.8613 63.3575ZM25.6439 150.746H109.253C109.304 145.691 109.188 140.622 109.246 135.56C109.246 135.027 109.466 134.533 109.472 133.948C109.607 119.533 108.698 104.2 109.453 89.9325C109.498 89.1038 109.646 86.9968 109.988 86.393C110.381 85.6993 111.232 85.3395 112.005 85.3524C124.318 85.8855 137.185 84.6779 149.433 85.3524C151.341 85.4551 153.352 85.3973 153.616 87.7035C154.01 91.1659 153.565 95.8873 153.61 99.5296C153.72 108.394 153.81 117.33 153.836 126.195C153.855 134.378 153.803 142.569 153.823 150.753H163.634L163.84 77.0079C158.761 77.1942 154.106 75.0358 151.676 70.4942C146.616 78.9286 133.813 79.2819 128.779 70.6998C125.407 75.6846 119.921 77.9137 113.991 76.4683C110.381 75.5883 108.279 73.7447 106.288 70.6998C105.23 71.7404 104.586 72.9738 103.432 73.9631C98.9129 77.8173 92.2603 77.8173 87.3159 74.7339C85.5432 73.6226 85.0017 72.1323 83.5964 70.7062C82.7455 71.3165 82.3394 72.3057 81.6561 73.0509C76.9825 78.1642 67.1712 78.4019 62.6458 73.0445C62.2719 72.6012 61.2534 70.6227 60.7248 70.7191C59.9964 71.3936 59.6096 72.3122 58.9714 73.0573C54.4783 78.2862 44.2802 78.2862 39.7485 73.0573C39.2972 72.537 38.1949 70.5007 37.6083 70.5007C35.1587 74.7982 30.4142 77.3869 25.4441 77.2263L25.6503 150.765L25.6439 150.746ZM113.134 89.3287V150.746H150.135V89.2259L113.134 89.3287ZM173.439 162.36V154.928C173.439 154.877 173.677 154.767 173.555 154.62L172.936 154.408C122.603 153.913 72.1348 155.101 21.8663 154.408C19.7842 154.382 17.702 154.446 15.6198 154.414V162.36H173.432H173.439Z" fill="black"/>
<path d="M142.774 4.0791C142.71 4.27824 142.981 4.52234 142.981 4.58658V33.6155H44.2422V4.0791H142.774ZM65.4442 15.0187C66.7657 13.9652 65.2701 11.5371 64.258 10.7148C60.055 7.30382 52.3259 9.63564 53.2864 15.7382C54.0019 20.2734 59.3266 19.9136 61.6086 21.9114C64.2838 24.2497 60.4547 27.4423 57.6377 25.2582C56.5031 24.3781 55.6457 21.8408 53.6603 23.1319C51.3396 24.6415 54.5628 28.1103 56.2324 28.9005C64.4514 32.8061 70.9622 22.9328 62.9108 18.3719C61.4217 17.5304 59.404 17.3313 58.1598 16.387C55.8005 14.5948 58.624 11.6591 61.4861 13.477C62.3241 14.0102 63.0977 15.5069 64.1227 15.4363C64.387 15.417 65.2508 15.1729 65.4506 15.0123L65.4442 15.0187ZM91.6227 9.22452C81.2184 10.6313 81.9726 30.333 93.8145 29.742C106.237 29.1189 105.392 7.36164 91.6227 9.22452ZM107.565 9.22452C106.675 9.37227 105.798 9.90544 105.772 10.9011C106.153 16.2136 105.283 22.1812 105.772 27.4166C105.914 28.9133 107.229 29.9347 108.686 29.2859C111.123 28.2067 108.802 23.9092 110.272 22.3097C112.644 21.1341 114.024 26.1382 114.946 27.6414C115.713 28.894 117.202 30.5706 118.665 29.0354C120.676 26.9284 116.912 23.8835 116.609 21.7059C117.041 20.8001 117.943 20.4532 118.626 19.6246C121.443 16.1879 119.896 10.8562 115.597 9.67418C113.914 9.21168 109.26 8.93545 107.565 9.2181V9.22452ZM79.5681 9.43651C76.8993 9.50717 72.5029 9.2181 70.1178 9.59068C68.893 9.78339 68.5706 10.9975 68.8221 12.0831C69.3442 14.3699 73.2958 12.3272 73.7986 13.8496L73.9018 28.0076C74.1983 29.8769 77.2216 30.2045 77.7309 28.3801C78.4206 25.8877 78.0339 19.1235 77.9887 16.1943C77.9758 15.25 77.4279 14.3378 78.2659 13.4321C79.2006 12.7255 82.585 14.1066 83.0427 12.0831C83.6809 9.27591 81.5987 9.37869 79.5681 9.43651ZM127.883 21.4232C129.888 21.2433 133.898 22.239 133.124 18.8923C132.589 16.5604 128.657 18.2756 127.845 17.4276C127.368 16.9266 127.097 13.6119 128.199 13.2843C129.688 12.8411 134.291 14.1194 134.762 12.0831C135.09 10.6377 134.555 9.7063 133.079 9.5714C131.248 9.40439 126.865 9.353 125.086 9.5714C124.028 9.69988 123.584 10.5157 123.551 11.505C123.951 16.599 123.055 22.3932 123.558 27.4037C123.635 28.1938 123.893 29.0611 124.738 29.2795C126.272 29.6842 131.629 29.7484 133.253 29.5236C135.516 29.2088 135.574 26.0612 134.001 25.5601L127.742 25.483C127.548 24.0634 127.174 22.7722 127.883 21.4232Z" fill="#D2FA52"/>
<path d="M173.44 162.36H15.627V154.414C17.7027 154.446 19.7913 154.375 21.8734 154.408C72.1355 155.101 122.61 153.913 172.943 154.408L173.562 154.62C173.685 154.767 173.446 154.876 173.446 154.928V162.36H173.44Z" fill="white"/>
<path d="M40.1549 59.4904L48.1226 37.3863C53.8147 37.2642 59.6099 37.1165 65.2956 37.4955L60.1836 59.4968H40.1484L40.1549 59.4904Z" fill="white"/>
<path d="M172.009 59.6895H152.586C150.62 53.9466 148.08 48.3965 146.043 42.6858C145.714 41.7672 144.489 38.5104 144.605 37.7973C144.638 37.6239 144.779 37.2834 144.921 37.2834H161.069L172.009 59.6895Z" fill="white"/>
<path d="M43.9394 37.2834C44.0747 37.322 44.2681 37.5982 44.2423 37.7781L36.049 59.4646C33.0966 59.5546 30.1249 59.4197 27.166 59.4775C26.631 59.4903 26.1346 59.6895 25.548 59.7023C23.3756 59.7344 19.7656 59.9721 17.7673 59.6959C17.4836 59.6574 17.4191 59.8115 17.4643 59.394L27.7913 37.2899H43.9394V37.2834Z" fill="white"/>
<path d="M140.323 37.2835L148.704 59.484L130.299 59.5932C128.565 53.1181 126.406 46.3089 125.091 39.7245C124.929 38.9152 124.704 38.1186 124.788 37.2771H140.323V37.2835Z" fill="white"/>
<path d="M120.875 37.3091L126.213 59.4903L108.015 59.5995L105.365 37.4889L120.875 37.3091Z" fill="white"/>
<path d="M101.891 37.2834L104.154 59.3747C104.154 59.4454 103.464 59.6959 103.425 59.6959H86.0523C85.8524 59.5674 85.788 59.4133 85.7428 59.1884C85.4656 57.6788 86.0394 54.9166 86.149 53.2786C86.51 47.9469 86.6969 42.583 87.3802 37.2899H101.897L101.891 37.2834Z" fill="white"/>
<path d="M83.8998 37.489L81.8564 59.4904H63.8711L68.7961 37.3027L83.8998 37.489Z" fill="white"/>
<path d="M35.8621 63.3574C34.8694 76.7445 16.8003 77.0336 16.0332 63.3574H35.8621Z" fill="white"/>
<path d="M172.827 63.3575C173.014 76.584 153.9 76.6418 153.43 63.4731L153.894 63.1648L172.827 63.3575Z" fill="white"/>
<path d="M58.958 63.1584C58.5841 76.629 40.2765 76.5777 39.5352 63.2612L58.958 63.1584Z" fill="white"/>
<path d="M149.724 63.1584C149.653 66.5566 148.119 69.9291 145.211 71.7984C138.739 75.9545 130.224 70.9505 130.714 63.364L149.724 63.1649V63.1584Z" fill="white"/>
<path d="M127.038 63.1584C126.915 69.9933 120.572 75.3057 113.881 72.4985C110.045 70.8862 108.143 67.1989 108.027 63.1584C114.358 63.743 120.701 62.9015 127.038 63.1584Z" fill="white"/>
<path d="M81.1396 63.3576C81.2299 63.3447 81.4233 63.0813 81.6489 63.152C81.1719 76.6354 63.077 76.6804 62.6387 63.152C62.8578 63.0749 63.0835 63.3576 63.1479 63.3576C68.5306 63.3576 76.0342 63.9485 81.1396 63.3576Z" fill="white"/>
<path d="M104.348 63.1519C104.489 71.3486 95.3357 76.6481 88.7024 70.8989C86.4977 68.9846 85.4857 65.9976 85.6404 63.1519H104.341H104.348Z" fill="white"/>
<path d="M48.9016 85.4165C64.8949 85.1853 80.8947 85.4744 96.8881 85.3523C99.4086 85.5514 99.8792 86.2709 100.06 88.7119C100.446 94.0822 99.5826 99.8314 100.266 105.208C99.6922 113.771 100.994 123.252 100.266 131.706C100.169 132.862 99.8792 133.942 98.7382 134.462C82.964 134.905 67.0931 134.526 51.2867 134.642C47.0193 134.674 42.4939 135.239 38.22 134.854C35.7769 134.635 35.2483 133.646 35.042 131.301C35.7317 117.445 33.9525 102.889 34.8357 89.1166C34.9388 87.5235 35.1129 85.8469 37.0081 85.5771C40.1152 85.1403 45.5173 85.4615 48.908 85.4165H48.9016ZM96.5722 130.987L96.3401 89.5599C96.1468 88.9817 93.8712 89.2644 93.2008 89.2258C89.7004 89.001 86.4515 89.2258 82.9898 89.2387C68.0988 89.3093 53.2013 89.1616 38.3103 89.2258L38.7228 130.987H96.5722Z" fill="black"/>
<path d="M120.23 112.91C121.681 112.641 123.176 113.097 124.182 114.176C126.212 116.36 126.27 122.379 125.233 125.019C123.653 129.028 119.083 129.863 117.42 125.392C116.33 122.456 116.092 113.675 120.23 112.91ZM121.307 116.732C120.514 116.122 120.237 121.698 120.275 122.141C120.366 123.092 121.307 125.026 121.829 123.465C122.474 121.531 122.267 118.557 121.307 116.739V116.732Z" fill="black"/>
<path d="M91.6212 9.22464C105.391 7.36176 106.235 29.1254 93.813 29.7421C81.9646 30.3331 81.2169 10.6314 91.6212 9.22464ZM92.4335 13.0917C86.6511 14.0681 87.1862 26.2476 93.6067 25.8814C100.395 25.4896 100.201 11.7749 92.4335 13.0917Z" fill="black"/>
<path d="M107.564 9.22466C109.259 8.94201 113.907 9.22466 115.596 9.68074C119.896 10.8627 121.443 16.1944 118.626 19.6311C117.949 20.4598 117.04 20.8067 116.608 21.7124C116.911 23.8901 120.669 26.9349 118.664 29.0419C117.207 30.5708 115.718 28.9006 114.945 27.648C114.023 26.1448 112.643 21.1407 110.271 22.3163C108.801 23.9158 111.122 28.2133 108.685 29.2924C107.228 29.9412 105.907 28.9199 105.772 27.4231C105.288 22.1878 106.158 16.2201 105.772 10.9077C105.797 9.90557 106.674 9.37883 107.564 9.23108V9.22466ZM110.413 13.0853C109.304 13.4194 109.394 17.8196 110.155 18.3592C110.606 18.6804 112.566 18.6033 113.185 18.5005C116.589 17.9353 116.75 13.5093 113.623 13.0661C113.062 12.989 110.877 12.9504 110.413 13.0853Z" fill="black"/>
<path d="M65.4432 15.0188C65.2433 15.1794 64.3795 15.4235 64.1152 15.4428C63.0903 15.5134 62.3167 14.0103 61.4787 13.4835C58.6165 11.6656 55.7866 14.6013 58.1524 16.3935C59.3965 17.3378 61.4142 17.5369 62.9033 18.3784C70.9548 22.9329 64.444 32.8062 56.2249 28.9069C54.5618 28.1168 51.3322 24.648 53.6528 23.1384C55.6383 21.8472 56.4892 24.3846 57.6302 25.2647C60.4473 27.4488 64.2764 24.2561 61.6012 21.9179C59.3192 19.9201 53.9945 20.2799 53.279 15.7447C52.3185 9.64213 60.0476 7.31031 64.2506 10.7213C65.2627 11.5436 66.7582 13.9717 65.4367 15.0252L65.4432 15.0188Z" fill="black"/>
<path d="M127.882 21.4233C127.167 22.7722 127.547 24.0634 127.741 25.4831L134 25.5601C135.573 26.0612 135.515 29.2024 133.252 29.5236C131.628 29.7548 126.271 29.6906 124.737 29.2795C123.892 29.0547 123.641 28.1939 123.557 27.4038C123.054 22.3932 123.944 16.599 123.551 11.505C123.589 10.5093 124.034 9.69992 125.085 9.57144C126.864 9.35303 131.241 9.40442 133.078 9.57144C134.554 9.70634 135.096 10.6378 134.761 12.0831C134.29 14.1259 129.694 12.8411 128.198 13.2844C127.096 13.612 127.367 16.9266 127.844 17.4277C128.656 18.2692 132.588 16.5541 133.123 18.8923C133.89 22.2391 129.887 21.2434 127.882 21.4233Z" fill="black"/>
<path d="M79.5677 9.43659C81.5983 9.37877 83.6804 9.27599 83.0423 12.0832C82.5846 14.1066 79.2002 12.7255 78.2655 13.4322C77.4275 14.3379 77.9754 15.2437 77.9883 16.1944C78.027 19.1236 78.4202 25.8878 77.7305 28.3802C77.2277 30.2046 74.1979 29.8769 73.9014 28.0076L73.7982 13.8497C73.2954 12.3337 69.3502 14.37 68.8216 12.0832C68.5702 10.9976 68.8926 9.78347 70.1174 9.59076C72.5025 9.21818 76.8989 9.50725 79.5677 9.43659Z" fill="black"/>
<path d="M96.5725 130.987H38.7231L38.3105 89.2259C53.2016 89.1616 68.099 89.3094 82.9901 89.2387C86.4582 89.2195 89.7007 89.001 93.2011 89.2259C93.8715 89.2708 96.147 88.9818 96.3404 89.5599L96.5725 130.987ZM64.6309 96.2021C64.1926 96.292 63.419 96.7802 63.0451 97.0693C60.3248 100.859 50.2685 108.028 49.005 112.004C48.3733 113.996 49.8882 114.882 51.5062 113.681L66.3263 98.7073C67.3964 97.1721 66.4875 95.8231 64.6374 96.2085L64.6309 96.2021ZM74.8677 99.2533C74.4874 99.2855 73.9716 99.4589 73.6687 99.7094C68.5567 104.868 63.3803 109.962 58.249 115.107C56.5601 116.803 53.6786 119.167 52.312 121.004C50.0944 123.985 54.1492 124.659 55.8961 122.539L75.6284 102.684C76.6469 101.656 76.8209 99.0928 74.8677 99.2598V99.2533Z" fill="white"/>
<path d="M121.308 116.732C122.268 118.55 122.474 121.525 121.83 123.458C121.308 125.019 120.373 123.086 120.276 122.135C120.231 121.692 120.508 116.116 121.308 116.726V116.732Z" fill="white"/>
<path d="M92.4337 13.0918C100.202 11.7749 100.395 25.4896 93.607 25.8814C87.1864 26.254 86.6514 14.0746 92.4337 13.0918Z" fill="#D2FA52"/>
<path d="M110.413 13.0853C110.878 12.944 113.063 12.9825 113.624 13.066C116.75 13.5093 116.583 17.9352 113.185 18.5005C112.56 18.6033 110.6 18.6804 110.156 18.3592C109.395 17.826 109.305 13.4193 110.413 13.0853Z" fill="#D2FA52"/>
<path d="M74.8687 99.2534C76.8283 99.0864 76.6479 101.656 75.6293 102.677L55.8971 122.533C54.1502 124.653 50.0954 123.978 52.3129 120.998C53.6796 119.161 56.5611 116.797 58.25 115.101C63.3749 109.955 68.5513 104.861 73.6696 99.703C73.9726 99.4525 74.4883 99.2791 74.8687 99.247V99.2534Z" fill="black"/>
<path d="M64.6307 96.202C66.4872 95.8166 67.3897 97.1656 66.3196 98.7009L51.4995 113.675C49.8815 114.882 48.3666 113.996 48.9983 111.998C50.2618 108.022 60.3181 100.853 63.0384 97.0628C63.4123 96.7738 64.1794 96.2855 64.6242 96.1956L64.6307 96.202Z" fill="black"/>
</g>
<defs>
<clipPath id="clip0_189_291">
<rect width="189" height="174" fill="white"/>
</clipPath>
</defs>
</svg>
