<svg width="169" height="161" viewBox="0 0 169 161" fill="none" xmlns="http://www.w3.org/2000/svg">
<path d="M74.4754 118.396C76.0726 119.058 75.739 121.552 74.2765 122.249L9.18681 107.435C6.7736 106.616 5.59314 103.933 6.20041 101.485L28.4873 6.01216C30.2602 3.10009 33.3672 1.65111 36.7781 1.99977L122.489 21.7963L124.723 23.0961L124.136 25.6731L121.028 26.0587L35.7702 6.33958C34.6014 5.64782 32.0512 7.60127 31.8612 8.42333L30.1518 15.8175L30.6534 16.6208L63.2748 24.1622C63.6445 24.2477 69.2352 22.342 70.5466 22.0999C84.37 19.5452 95.4192 23.52 106.15 32.0032C106.747 32.4756 108.632 34.6479 108.949 34.7213L150.487 44.3241L152.448 35.8425C152.542 35.4337 151.367 33.004 150.593 32.9073C144.942 30.8907 136.849 30.6557 131.497 28.4562C128.589 27.2615 129.03 23.8079 132.053 24.0714C136.1 24.425 146.767 27.001 150.734 28.3533C154.029 29.4772 155.993 31.7272 156.512 35.1692L140.612 103.907C139.421 105.034 136.722 103.865 137.062 102.395L149.581 48.243L113.045 39.7966C124.542 57.4146 121.224 80.3868 105.927 94.6696L112.208 104.919C112.908 105.498 115.851 103.887 118.268 106.316C122.642 111.932 125.914 120.235 130.327 125.58C130.689 126.017 130.681 126.546 131.487 126.531L135.358 109.785C135.677 108.407 139.591 109.312 139.273 110.69L134.446 131.568C135.209 135.085 142.502 143.021 142.493 145.896C142.49 147.792 141.927 148.56 140.569 149.717C139.08 150.986 130.502 156.379 128.781 157.063C126.753 157.868 124.512 157.496 123.127 155.756L107.076 130.052L80.9787 124.018C79.5999 123.7 80.5048 119.785 81.8836 120.104L103.849 125.182C101.897 120.643 96.6729 117.058 101.142 112.176L94.419 101.576C91.9539 102.409 89.5263 103.277 86.9627 103.802C65.3603 108.215 43.9624 95.3323 38.1442 74.1015C33.1506 55.8837 41.2995 36.5302 57.3766 26.9225L29.0916 20.3835L10.0369 102.807L10.5385 103.61L74.4764 118.391L74.4754 118.396ZM85.3863 26.2087C51.9021 19.8423 27.9582 58.2069 48.3834 85.5638C65.7158 108.778 102.478 103.898 113.063 77.0797C121.682 55.2368 108.631 30.6249 85.3873 26.2043L85.3863 26.2087ZM98.3931 99.1916C98.0723 99.7864 98.3958 99.9528 98.5636 100.377C98.9139 101.259 104.034 109.458 104.524 109.713C105.636 110.296 107.731 108.31 108.761 107.701L102.623 97.4433L98.3887 99.1906L98.3931 99.1916ZM114.753 108.953C114.137 108.921 104.919 114.767 104.236 115.402C103.868 115.743 103.509 115.967 103.589 116.553C106.153 119.891 121.703 147.624 123.543 147.554C124.204 147.528 134.619 141.047 134.654 140.381L114.754 108.949L114.753 108.953ZM136.823 144.297C136.19 144.26 126.431 150.444 126.044 150.946C125.237 152.001 125.942 153.685 127.404 153.111C130.73 151.804 134.906 147.794 138.362 146.224L136.819 144.296L136.823 144.297Z" fill="#303030"/>
<path d="M137.341 51.5992C138.212 50.0135 141.512 51.3951 141.256 52.5042L131.2 95.9994C130.903 97.2868 126.85 96.9778 127.185 95.5294L137.341 51.5992Z" fill="#303030"/>
<path d="M37.4129 96.8883C36.8228 97.2605 35.701 97.0195 35.0137 96.9201C32.3624 96.5363 25.5982 95.1146 23.2888 94.1637C20.2092 92.8974 21.1203 89.6303 23.8382 89.7454C25.7987 89.8275 34.9176 92.0044 36.8436 92.7704C37.5777 93.0638 38.3297 93.5171 38.5124 94.3521C38.5693 95.0571 38.0063 96.5215 37.4172 96.8893L37.4129 96.8883Z" fill="#303030"/>
<path d="M21.1804 99.2023C18.9974 98.299 20.7935 94.9891 21.6504 95.1872L36.4388 98.606C37.8175 98.9247 36.9126 102.839 35.5338 102.521C31.5714 101.605 24.5841 100.612 21.1804 99.2023Z" fill="#303030"/>
<path d="M30.2534 85.7207L38.9524 87.7317C40.3312 88.0505 39.4263 91.9651 38.0475 91.6463L29.3484 89.6352C28.2045 89.3708 28.4645 85.9074 30.2534 85.7207Z" fill="#303030"/>
<path d="M24.2169 84.4032C29.8881 83.7945 28.6893 91.3387 23.0869 87.9634C22.1688 86.8805 22.7654 84.5579 24.2169 84.4032Z" fill="#303030"/>
<path d="M41.5656 11.4367C45.2598 11.2139 44.3786 16.6507 41.0444 15.3758C39.0916 14.6265 39.7018 11.5511 41.5656 11.4367Z" fill="#303030"/>
<path d="M49.3057 13.7163C50.537 15.6047 46.8954 18.1764 45.3856 15.7884C43.9804 13.562 47.6581 11.1911 49.3057 13.7163Z" fill="#303030"/>
<path d="M53.87 17.7543C52.4787 18.6193 50.1331 17.6464 50.6302 15.5161C51.5653 11.4711 57.0844 15.7619 53.87 17.7543Z" fill="#303030"/>
<path d="M82.9433 28.8514C109.913 32.5571 122.179 64.6669 104.544 85.4931C86.9638 106.259 52.742 98.7825 45.1716 72.6838C38.2425 48.786 58.4553 25.4904 82.9433 28.8514ZM84.6638 33.3409C44.7808 24.8446 32.9295 86.7519 73.9273 93.0821C111.876 98.9456 122.573 41.4174 84.6638 33.3409Z" fill="#303030"/>
<path d="M84.6641 33.3405C122.573 41.4171 111.876 98.9452 73.9276 93.0817C32.9264 86.7462 44.7821 24.8399 84.6641 33.3405ZM89.4529 58.6084C90.6676 54.0277 97.0105 47.8376 90.5535 44.6907C81.7791 44.5913 72.8177 44.2699 64.1446 45.2385C62.1419 46.1914 61.5491 48.4782 62.2443 50.4855C63.5592 54.2717 70.5118 61.7761 71.2249 64.9742C72.1665 69.2057 67.9453 87.4054 77.2807 83.552C80.0564 82.4068 96.7267 71.9969 98.9687 70.0089C105.413 64.2913 93.1217 60.6158 89.4529 58.6084ZM59.0734 63.6266C55.5927 65.8002 61.9187 70.2868 62.213 65.4063C62.3144 63.6794 60.3426 62.8341 59.0734 63.6266ZM67.9889 65.6923C65.7304 62.1232 61.1986 68.6449 66.2247 68.8447C67.6778 68.9011 68.7678 66.9217 67.9889 65.6923ZM56.81 73.4174C58.3593 75.8925 61.9644 73.2207 60.2607 71.0765C58.5571 68.9323 55.4701 71.2657 56.81 73.4174ZM65.7265 75.4788C66.9659 74.716 66.8553 72.459 65.5248 71.8719C60.9211 69.8454 62.1306 77.6945 65.7265 75.4788Z" fill="#DAF96E"/>
<path d="M89.4525 58.6085C93.1214 60.616 105.412 64.2958 98.9683 70.0091C96.7263 71.9971 80.0561 82.4069 77.2804 83.5522C67.946 87.4013 72.1661 69.2059 71.2245 64.9744C70.5114 61.7762 63.5598 54.2676 62.244 50.4856C61.5444 48.4774 62.1416 46.1916 64.1443 45.2387C72.8174 44.2701 81.7787 44.5915 90.5531 44.6909C97.0102 47.8378 90.6629 54.0269 89.4525 58.6085ZM88.9373 48.8856L66.3741 49.3877L70.8875 56.6214C73.85 48.3852 80.5634 54.8628 85.722 56.848L88.9373 48.8856ZM83.9504 60.5669L75.6536 56.816C74.4807 62.1669 76.3415 65.415 79.3437 69.5731C80.0888 69.7591 83.0734 61.6058 83.9451 60.5702L83.9504 60.5669ZM96.2951 66.6281L87.6703 62.3341C85.0206 67.2153 82.4233 79.4215 75.4859 71.435L75.4158 79.6663L96.2951 66.6281Z" fill="#303030"/>
<path d="M59.0727 63.6269C60.3418 62.8344 62.3137 63.6797 62.2123 65.4066C61.9179 70.2871 55.5919 65.8005 59.0727 63.6269Z" fill="#303030"/>
<path d="M67.9893 65.6924C68.7682 66.9217 67.6782 68.9012 66.2251 68.8447C61.199 68.645 65.7308 62.1233 67.9893 65.6924Z" fill="#303030"/>
<path d="M65.726 75.4788C62.1301 77.6945 60.9205 69.8454 65.5243 71.8719C66.8548 72.459 66.9653 74.716 65.726 75.4788Z" fill="#303030"/>
<path d="M56.8075 73.4176C55.4665 71.2702 58.5358 68.9144 60.2582 71.0766C61.9806 73.2389 58.3567 75.8926 56.8075 73.4176Z" fill="#303030"/>
<path d="M88.9362 48.8858L85.7209 56.8482C80.5623 54.863 73.8479 48.3897 70.8864 56.6216L66.373 49.3879L88.9362 48.8858Z" fill="#DAF96E"/>
<path d="M96.2963 66.6285L75.417 79.6668L75.4871 71.4354C82.4245 79.4219 85.0218 67.2157 87.6715 62.3345L96.2963 66.6285Z" fill="#DAF96E"/>
<path d="M83.9506 60.567C83.0789 61.6026 80.0944 69.7558 79.3493 69.5698C76.3461 65.4161 74.4809 62.167 75.6592 56.8127L83.956 60.5636L83.9506 60.567Z" fill="#DAF96E"/>
</svg>
