<svg width="43" height="58" viewBox="0 0 43 58" fill="none" xmlns="http://www.w3.org/2000/svg">
<path d="M11.7903 30.9102C11.7903 25.3103 11.7903 19.8456 11.7903 14.3808C11.7903 12.3441 11.816 10.3074 11.7817 8.27069C11.771 7.6554 11.9468 7.33596 12.5321 7.0744C15.853 5.58654 19.2639 5.68731 22.7113 6.43124C25.5005 7.03153 28.2661 7.7583 31.0703 8.27069C34.8157 8.95245 38.3981 8.48937 41.6161 6.25758C41.6975 6.20184 41.8069 6.18469 42.1392 6.06678C42.1392 7.02295 42.1392 7.88694 42.1392 8.75093C42.1306 15.3262 42.107 21.8994 42.137 28.4747C42.1413 29.3087 41.8326 29.7653 41.168 30.1791C37.7035 32.3316 33.9624 32.5031 30.1055 31.7248C27.2392 31.146 24.3964 30.4407 21.5321 29.8554C18.3785 29.2122 15.2827 29.3601 12.3241 30.7815C12.2019 30.8394 12.0583 30.8501 11.7903 30.9145V30.9102Z" fill="#009245"/>
<path d="M8.48503 52.0983C8.48503 49.7186 8.48503 47.4032 8.48503 45.0878C8.48503 33.1828 8.48503 21.2799 8.48503 9.37488C8.48503 8.37368 8.47432 7.37248 8.4636 6.37129C8.45288 5.42798 8.52791 4.55327 7.72181 3.72144C6.8471 2.81886 7.21585 1.29456 8.22991 0.488455C9.1625 -0.251187 10.6161 -0.137561 11.45 0.73929C12.3355 1.67188 12.3269 3.04183 11.5144 4.05589C11.2335 4.40748 10.9741 4.90272 10.9741 5.33365C10.9441 20.6346 10.9462 35.9355 10.9462 51.2365C10.9462 51.4852 10.9741 51.7317 10.9955 52.1005C11.3879 52.1219 11.7652 52.1583 12.1447 52.1626C13.6089 52.1776 15.0754 52.1626 16.5396 52.1948C17.4851 52.2162 18.3062 52.6407 18.4434 53.5969C18.6085 54.7524 18.557 55.9509 18.4884 57.1214C18.4734 57.3744 18.0168 57.6853 17.6995 57.8118C17.3865 57.9361 16.9941 57.8675 16.6382 57.8675C11.956 57.8697 7.27374 57.8697 2.59363 57.8675C0.949263 57.8675 0.85922 57.7689 0.861363 56.0859C0.861363 55.55 0.861363 55.014 0.865651 54.478C0.874227 52.913 1.55598 52.2098 3.15318 52.1755C4.54671 52.1455 5.94024 52.1648 7.33377 52.154C7.68108 52.1519 8.02839 52.1197 8.48718 52.0962L8.48503 52.0983Z" fill="#009245"/>
</svg>
