<svg width="141" height="74" viewBox="0 0 141 74" fill="none" xmlns="http://www.w3.org/2000/svg">
<path d="M140.98 41.4301L122.33 29.9112L140.98 24.426V41.4301Z" fill="#99B39A"/>
<path d="M137.673 38.7753L126.082 31.9572L107.246 49.1095V68.3077L118.798 73.2444L137.673 38.7753Z" fill="#99B39A"/>
<path d="M73.4902 1.02066L80.1932 48.5116L83.3252 70.6992L83.6872 73.2443H118.798L101.212 16.1982L73.4902 1.02066Z" fill="#2B392C"/>
<path d="M63.9961 73.6009L64.2265 73.2444L64.3526 73.0469L80.1939 48.5116L100.571 16.9497L101.164 16.0337" stroke="#5F7D61" stroke-miterlimit="10"/>
<path d="M73.4145 0.472153L73.0525 0.598312L72.877 0.65865" stroke="#5F7D61" stroke-miterlimit="10"/>
<path d="M31.2273 73.2444L0 26.2746L26.3674 17.0046L46.2183 46.866L63.7545 73.2444L63.9959 73.6009L31.2273 73.2444Z" fill="#6B8E6E"/>
<path d="M64.2265 73.2444H30.9258L31.0684 72.9975L46.2185 46.866L73.3538 0.0662537L101.213 16.1982L64.2265 73.2444Z" fill="#09543D"/>
</svg>
