<svg width="60" height="47" viewBox="0 0 60 47" fill="none" xmlns="http://www.w3.org/2000/svg">
<path d="M25.5879 42.012C22.4993 41.2449 19.4165 40.4434 16.2477 40.0713C12.5609 39.639 8.92561 39.9682 5.33896 40.8813C5.30748 37.2489 5.53361 33.6193 5.46491 29.9869C5.41911 27.5452 5.43915 25.1007 5.46491 22.659C5.4735 21.9548 5.43056 21.2049 6.2206 20.8099C7.43141 20.5064 8.36457 21.2535 9.32063 21.7344C14.1181 24.1503 18.2715 27.4851 22.2846 31.0059C23.4268 31.816 24.3227 32.898 25.3532 33.8311C25.5822 34.0401 25.7825 34.2748 25.6595 34.6269C25.2759 35.7833 25.4734 36.9741 25.4591 38.1477C25.4419 39.4358 25.2845 40.7325 25.585 42.0091L25.5879 42.012Z" fill="#00993A"/>
<path d="M53.8694 6.1456C55.896 5.41854 57.9226 4.68576 59.975 3.43201V4.96055C59.975 17.2748 59.9607 29.589 60.0007 41.9004C60.0036 42.9881 59.6887 43.6179 58.7126 44.0701C56.8177 44.9432 54.9342 45.8277 52.8446 46.1511C52.2807 46.0681 52.1433 45.696 52.192 45.1922C52.4382 42.6675 52.1548 40.1343 52.1061 37.621C52.0546 35.0162 52.5069 32.4085 52.066 29.7865C51.9372 29.0251 51.9086 27.7313 53.2339 27.4078C53.1566 27.2189 52.8933 27.2533 52.816 27.0558C52.6586 26.3459 53.2625 26.0024 53.5431 25.5015C54.3217 24.2248 54.2673 22.7821 54.2902 21.3824C54.3732 16.2958 54.336 11.2121 53.8665 6.14274L53.8694 6.1456Z" fill="#00993A"/>
<path d="M4.76562 1.34815C8.31219 -0.100251 12.0248 -0.157499 15.7517 0.151645C17.4606 0.291904 19.1809 0.489413 20.8268 1.04187C20.9671 1.32525 21.697 1.27945 21.3878 1.74316C20.8898 2.49026 20.3001 1.49986 19.7047 1.70595C20.2515 2.579 20.2228 3.5694 19.9967 4.47107C19.5187 6.38319 20.2429 8.26095 20.011 10.153C19.9194 10.8944 21.0587 10.6711 20.9957 11.3982C20.9155 12.0394 20.3745 12.2426 19.9051 12.443C15.2336 14.4324 11.0143 17.1403 7.11569 20.3748C6.84662 20.5981 6.53748 20.8242 6.17681 20.4979C5.76748 19.0953 5.50128 17.687 5.46979 16.2071C5.37819 11.9449 5.68447 7.69419 5.70451 3.43487C5.70451 3.30033 5.68161 3.15149 5.73599 3.03985C6.24265 1.99506 5.62149 1.60863 4.76849 1.34815H4.76562Z" fill="#00993A"/>
<path d="M31.5303 4.01599C37.2638 5.59892 43.0087 7.10743 49.0341 6.94141C49.369 6.77539 49.7297 6.86699 50.0789 6.8355C50.5913 6.7897 50.8489 6.97862 50.7144 7.51676C49.8213 11.0748 50.8031 14.65 50.6113 18.2166C50.534 19.6736 50.4453 21.1248 50.2936 22.5761C50.2363 23.12 50.1133 23.6266 49.5894 23.9214C48.8624 24.2191 48.3185 23.7955 47.7546 23.4434C43.8016 20.9674 40.275 17.9332 36.6741 14.9992C35.0454 13.5508 33.5884 11.9192 31.8967 10.5338C31.7249 10.3935 31.6419 10.1817 31.619 9.95843C31.6419 9.35731 32.2774 9.56913 32.5837 9.31724C31.9854 8.93367 31.4129 9.30865 30.8547 9.21992C30.6658 9.12832 30.5742 8.97661 30.5742 8.76765C31.1725 7.55397 31.6047 6.33171 31.1324 4.94629C30.9664 4.45681 31.0465 4.43105 31.5303 4.01885V4.01599Z" fill="#00993A"/>
<path d="M48.308 46.7093C44.2891 46.964 40.3962 46.2656 36.5605 45.1378C35.7361 44.8802 35.344 44.3249 35.4012 43.4576C35.5157 41.7515 35.0634 40.0054 35.802 38.3452C36.0825 37.7155 35.344 37.3205 35.384 36.7365C35.8764 35.7032 37.0013 35.7576 37.8343 35.3053C40.6996 34.3206 43.3245 32.8465 45.955 31.378C46.4932 31.0775 47.0084 30.7025 47.6754 30.7397C48.7087 30.6138 49.0808 31.0689 49.0837 32.1051C49.0951 34.9361 48.8948 37.7613 48.9406 40.5922C48.9663 42.1351 49.3098 43.6694 49.035 45.2265C48.9291 45.8219 48.8318 46.3515 48.308 46.7093Z" fill="#00993A"/>
<path d="M4.76676 1.34818C5.3965 1.56572 6.05486 0.870149 6.39549 1.16212C5.95181 7.80013 5.31349 14.1948 6.42125 20.6124C6.55865 20.6869 6.75616 20.7212 6.66456 20.9559C5.86308 21.1191 5.85449 21.7002 5.85735 22.3585C5.87453 26.9671 5.83445 31.5727 5.88884 36.1813C5.90315 37.4007 5.35356 38.6 5.83445 39.8395C5.98902 40.2345 5.46233 40.5093 5.33925 40.8843C4.44903 41.2163 3.56167 41.5484 2.67145 41.8775C2.17911 41.4539 2.15907 40.8929 2.1648 40.2946C2.29075 28.1149 2.31078 15.9381 2.14476 3.75836C2.13617 3.12576 2.37089 2.65345 2.66286 2.16111C3.29546 1.71457 4.01966 1.49702 4.76676 1.34532V1.34818Z" fill="#00993A"/>
<path d="M2.66225 2.16113C2.41608 3.28321 2.6737 4.40243 2.67084 5.52451C2.65653 16.6766 2.65653 27.8315 2.67084 38.9836C2.67084 39.9483 2.39891 40.9129 2.67084 41.8776C1.87222 42.3298 1.07073 42.7821 0.240625 43.2515C-0.0656563 42.805 0.0517029 42.4014 0.0517029 42.0293C0.0431156 29.8925 0.0717422 17.7557 0.000181022 5.61897C-0.00840631 4.01027 0.283563 2.89964 1.94092 2.45596C2.18995 2.39013 2.42181 2.26132 2.66225 2.164V2.16113Z" fill="#00993A"/>
<path d="M31.5293 4.01595C31.0856 4.62279 31.5951 5.15807 31.6638 5.72483C31.8098 6.93851 31.5865 8.02337 30.6705 8.89928C29.7775 8.98802 28.8558 8.89928 28.0228 9.3401C26.0763 10.0271 24.1156 10.6769 22.212 11.4783C21.7598 11.6358 21.3132 11.8905 20.8323 11.5671C20.8151 11.4812 20.8066 11.3209 20.7808 11.318C19.2437 11.1692 19.8391 10.0929 19.6931 9.1798C19.3696 7.13888 19.5728 5.14662 19.7475 3.13718C19.8104 2.43016 19.7761 1.77179 18.4336 1.80901C19.6186 1.21362 20.3886 1.09053 21.0814 1.87484C21.4248 1.37391 20.8123 1.3367 20.8295 1.04187C24.4877 1.70882 28.0314 2.78224 31.5321 4.01881L31.5293 4.01595Z" fill="#00993A"/>
<path d="M49.1001 23.7839C49.5581 23.7496 49.8586 23.5321 49.893 23.0512C50.1506 19.6534 50.4054 16.2614 49.9731 12.8494C49.7298 10.9144 49.9216 8.98225 50.4168 7.02433C49.9875 6.99857 49.5094 6.96995 49.0314 6.94132C50.643 6.67512 52.2545 6.40891 53.8661 6.1427C54.2582 6.42322 54.4128 6.82969 54.4386 7.28768C54.7448 12.38 54.7592 17.4751 54.6847 22.5703C54.6733 23.3517 54.3412 24.1303 54.4471 24.9318C54.5387 25.6188 53.8117 25.5844 53.5941 25.988C52.9444 26.2199 52.369 25.9365 51.8595 25.6331C50.9321 25.0806 49.7957 24.9461 48.9942 24.1589C48.9627 24.0158 48.9942 23.8899 49.0915 23.7782L49.1001 23.7839Z" fill="#00993A"/>
<path d="M48.3077 46.7092C48.5854 45.4126 48.7543 44.1359 48.6798 42.7734C48.5253 39.9997 48.4594 37.1973 48.7142 34.4379C48.8115 33.3788 48.4909 32.3856 48.677 31.3265C48.8086 30.5765 47.7037 31.6184 47.4805 30.9028C47.6952 29.9296 48.7342 29.8237 49.2752 29.1911C50.466 28.4669 51.382 27.3047 52.8189 26.9755C53.3199 27.4307 53.8036 26.9412 54.3675 26.9011C54.3017 27.0729 54.2902 27.2045 54.2187 27.2876C53.8065 27.7599 52.5756 27.0643 52.7245 28.5241C52.7789 29.0709 52.4325 29.7378 52.5126 30.4964C52.6558 31.836 52.796 33.2414 52.3896 34.5839C52.1033 35.5371 52.7331 36.4073 52.5785 37.3347C52.1234 40.0541 52.8933 42.7877 52.4955 45.5042C52.4411 45.8705 52.7216 45.9421 52.8447 46.1511C51.3619 46.569 49.8563 46.7951 48.3106 46.7121L48.3077 46.7092Z" fill="#00993A"/>
<path d="M35.4923 36.6421C35.6869 36.9885 35.9016 37.2976 36.2394 37.5409C36.6315 37.8214 36.5457 38.1449 36.3024 38.56C35.186 40.4663 35.873 42.5187 35.9245 44.5167C35.9302 44.7314 36.3367 44.9346 36.56 45.1407C32.8417 44.3077 29.2235 43.1284 25.5854 42.0149C25.5854 41.9262 25.5768 41.8375 25.5854 41.7516C25.6655 41.1047 24.6579 41.4768 24.8011 41.076C25.5596 38.9407 24.635 36.6994 25.2877 34.5726C25.3048 34.5182 25.4394 34.4981 25.5195 34.4609C26.5557 34.7243 27.0452 35.749 27.944 36.2013C29.3495 37.8129 30.9152 38.2508 32.9304 37.1974C33.6517 36.8196 34.499 36.1498 35.4894 36.645L35.4923 36.6421Z" fill="#00993A"/>
<path d="M20.8295 11.567C21.2646 11.4554 21.7025 11.3437 22.1376 11.2321C22.7502 11.2207 22.6156 11.7989 22.5011 11.9477C21.8113 12.8494 22.567 13.0641 23.1194 13.3789C23.3169 13.4906 23.5087 13.585 23.5917 13.814C23.586 14.501 22.962 14.7243 22.5813 15.1164C22.0546 15.6574 21.5852 16.2299 21.2617 16.9141C20.9182 17.4522 20.6606 18.019 20.6148 18.6659C19.9278 21.7201 20.8323 24.4394 22.3723 27.0213C22.6443 27.4765 23.025 27.8658 23.1423 28.401C23.3599 29.3313 22.2263 29.0909 22.1004 29.546C21.9458 30.1128 22.8103 30.5221 22.6643 31.1776C22.607 31.4352 22.3437 31.4009 22.1433 31.252C18.1617 27.8772 14.1485 24.5396 9.45984 22.1523C8.5553 21.6915 7.66509 21.1934 6.66323 20.953C6.58308 20.8385 6.50007 20.724 6.41992 20.6095C10.4846 16.9971 15.0416 14.1632 20.0337 12.0193C20.3114 11.8991 20.5661 11.7187 20.8295 11.5641V11.567Z" fill="#FADB01"/>
<path d="M22.1435 31.255C22.7274 31.172 22.4383 30.9573 22.2608 30.6853C21.3534 29.3085 21.3649 29.3085 22.8104 28.9364C22.882 28.9192 22.9049 28.7131 22.9478 28.5929C23.2999 28.4297 23.5718 28.633 23.7636 28.8562C25.3208 30.6481 27.356 31.8103 29.2967 33.1013C29.832 33.9457 29.6087 34.8874 29.54 35.7662C29.4742 36.5992 28.7471 36.7766 27.731 36.3358C26.8121 35.9236 26.2282 35.1221 25.5212 34.4609C24.3962 33.3932 23.2684 32.3255 22.1435 31.2578V31.255Z" fill="#E1C604"/>
<path d="M52.8174 26.9728C51.6896 27.7857 50.5647 28.5986 49.4369 29.4116C48.8128 29.6806 48.4694 29.3515 48.4035 28.799C48.2375 27.3993 48.1545 25.9881 48.3491 24.5826C48.4064 24.1762 48.5152 23.7554 49.0991 24.0445C50.599 24.6943 52.0989 25.3412 53.5989 25.991C53.3384 26.3173 53.0779 26.6465 52.8174 26.9728Z" fill="#CEB503"/>
<path d="M49.0994 24.0473C48.1233 24.2219 48.9019 24.9032 48.7359 25.3154C48.2836 26.4346 48.8046 27.5853 48.6643 28.7188C48.5956 29.2827 49.0393 29.3371 49.4343 29.4144C48.7817 29.9096 48.1291 30.4076 47.4764 30.9028C44.7571 32.4199 42.0607 33.9771 39.1696 35.1593C38.766 35.3253 38.3424 35.4398 37.9273 35.5801C36.0324 35.2309 35.8635 34.8702 36.8396 33.1928C37.017 32.8865 37.1859 32.586 37.2088 32.2282C37.8443 31.0402 38.975 30.1328 39.1896 28.7073C39.3242 28.2093 39.4387 27.7084 39.5417 27.2046C39.9024 24.448 39.0408 22.0092 37.6067 19.7193C37.2146 19.0924 36.622 18.5829 36.4646 17.8157C36.6936 17.3463 36.6192 16.9742 36.3186 16.499C35.9007 15.8435 35.6774 15.0563 36.811 14.7529C38.9692 16.4876 41.0989 18.2594 43.2944 19.9454C45.1349 21.3595 46.9898 22.7706 49.0994 23.7868C49.0994 23.8755 49.0994 23.9614 49.0994 24.0502V24.0473Z" fill="#BAA401"/>
<path d="M36.812 14.7502C36.0707 15.3599 36.0907 16.0268 36.7691 16.6279C37.4332 17.2176 37.0954 17.4523 36.5029 17.6699C36.0392 17.7157 35.793 17.3636 35.5125 17.1031C33.9467 15.6433 32.152 14.567 30.1368 13.8456C29.7246 13.6968 29.2952 13.5565 29.1235 13.0814C28.9632 12.5289 28.8716 11.9106 29.0519 11.4097C29.487 10.2132 28.946 9.57774 27.9785 9.08254C28.8544 8.69038 29.7132 8.07496 30.6692 8.9022C30.7608 8.97376 30.8524 9.04246 30.944 9.11402C31.3304 9.24283 31.6138 9.48614 31.7827 9.86112C33.4601 11.4927 35.1346 13.1214 36.812 14.753V14.7502Z" fill="#D0B803"/>
<path d="M31.7821 9.85537C31.3813 9.74373 31.1552 9.43459 30.9434 9.10827C31.5645 8.50716 32.3145 8.89645 32.9871 8.90217C33.4967 8.9079 33.1875 9.28288 33.0415 9.54622C32.7238 10.133 32.1255 9.4489 31.7821 9.85251V9.85537Z" fill="#018C35"/>
<path d="M37.3492 32.3141C37.8988 32.9037 37.2032 33.2358 36.9828 33.5134C36.2529 34.438 36.313 34.9847 37.5152 35.2738C37.6669 35.311 37.79 35.4713 37.9274 35.5773C37.1145 35.9322 36.3044 36.2871 35.4915 36.6392C34.1576 37.0915 32.8094 37.4979 31.4984 38.0103C30.5108 38.3968 29.6807 38.4855 28.9594 37.518C28.6216 37.0686 28.1436 36.7222 27.7285 36.3301C29.1712 36.4818 29.4231 36.2671 29.1655 34.9046C29.0538 34.3063 29.6263 33.6966 29.0853 33.1356C29.9412 32.5345 30.7169 33.376 31.5442 33.2673C33.2874 33.3445 35.0163 33.3531 36.5792 32.3799C36.8053 32.2396 37.0773 32.1938 37.3463 32.3112L37.3492 32.3141Z" fill="#CFB702"/>
<path d="M27.9766 9.07678C28.4432 9.18842 28.9213 9.27143 29.3764 9.42314C29.7542 9.54909 30.0347 9.91834 29.7628 10.2389C28.9928 11.1463 29.5224 12.1911 29.342 13.1529C29.03 13.4535 28.6293 13.4764 28.2343 13.4792C26.8317 13.4878 25.4233 13.422 24.1009 14.0345C23.9005 14.1261 23.6687 14.0632 23.4855 13.9115C23.2049 13.3704 22.206 13.983 22.1602 13.1042C22.143 12.7751 21.2156 12.36 22.2289 12.1024C22.0915 11.8247 22.4264 11.4955 22.1373 11.2322C23.9893 10.259 25.9844 9.66931 27.9766 9.07964V9.07678Z" fill="#DFC401"/>
<path d="M31.4835 33.6337C30.6849 33.4677 29.8863 33.3045 29.0876 33.1385C26.7032 32.0823 24.7453 30.445 22.9477 28.593C21.5422 26.5406 20.3372 24.3995 20.0738 21.8633C19.9507 20.6697 20.0022 19.4818 20.3629 18.3225C21.8943 17.6899 23.3055 18.354 24.7453 18.7147C26.0305 19.1383 27.2671 19.685 28.5094 20.2117C28.7814 20.3405 29.0476 20.4836 29.3109 20.6268C29.4655 20.7069 29.6143 20.7956 29.7632 20.8815C29.9607 20.9932 30.1525 21.1162 30.3414 21.2422C30.7192 21.4912 31.1343 21.6716 31.5322 21.8834C31.7325 21.9893 31.9186 22.1181 32.1018 22.2498C32.2936 22.3786 32.494 22.4931 32.68 22.6333C32.8231 22.7536 32.9319 22.8938 32.9977 23.0713C33.0292 23.1915 33.0378 23.3146 33.0264 23.4405C32.8031 23.973 32.222 24.2077 32.056 24.8746C31.9129 25.4586 31.2917 25.9595 30.7278 25.0178C30.413 24.4911 30.0065 24.4424 29.4998 24.8031C28.8443 25.2668 29.4254 25.4929 29.643 25.825C29.9034 26.2228 29.9521 26.7553 30.4645 26.9871C30.6162 27.0558 30.7965 27.282 30.6877 27.4222C29.9149 28.4212 30.8624 29.0366 31.2144 29.7465C31.8442 31.0232 31.5465 32.3284 31.4835 33.6337Z" fill="#022268"/>
<path d="M23.4901 13.9115C25.3535 12.9726 27.3286 12.9067 29.3466 13.1529C31.6079 13.9973 33.7605 15.0021 35.5581 16.6938C35.8902 17.0058 36.0276 17.5096 36.5027 17.667C38.266 19.7509 39.5627 22.058 39.8947 24.8145C39.9949 25.6332 40.1724 26.4661 39.7688 27.2648C39.6715 27.3449 39.5655 27.3678 39.4453 27.3249C39.1705 27.1245 38.9358 26.8669 38.6181 26.7209C38.4292 26.5148 38.2946 26.2658 38.0828 26.074C37.8166 25.8307 37.559 25.5788 37.3099 25.324C37.1926 25.2095 37.0781 25.0893 36.9664 24.9691C36.7861 24.7802 36.6001 24.5912 36.4054 24.4138C36.2079 24.2306 35.9875 24.076 35.7585 23.9386C35.2833 23.6295 34.9112 23.1858 34.4189 22.8995C34.1899 22.7392 33.9695 22.5646 33.7319 22.4129C33.3569 22.1811 33.0592 21.8433 32.647 21.6658C32.4409 21.5742 32.2491 21.4569 32.0803 21.3052C31.7425 20.996 31.3274 20.8214 30.9238 20.6268C30.8208 20.581 30.7206 20.5294 30.6233 20.475C30.3342 20.3062 30.0336 20.1516 29.7302 20.0113C29.4726 19.8911 29.2121 19.7738 28.9545 19.6478C28.2761 19.2957 27.5919 18.9465 26.8906 18.6431C26.4985 18.4713 26.092 18.3397 25.6827 18.2194C25.2476 18.0792 24.8125 17.9504 24.3688 17.8416C23.2668 17.4122 21.993 17.5296 20.9883 16.7939C21.4949 15.5459 22.4653 14.7015 23.4929 13.9057L23.4901 13.9115Z" fill="#012162"/>
<path d="M20.9844 16.7997C22.2153 16.9056 23.4261 17.106 24.5739 17.5897C24.9174 18.0162 25.0606 18.4771 24.8144 19.0038C23.3316 18.7662 21.8918 18.2509 20.3633 18.3225C20.4606 17.7701 20.5493 17.2119 20.9844 16.7997Z" fill="#BCD6C9"/>
<path d="M31.4853 33.6337C31.3307 32.8551 30.9529 32.1882 31.3164 31.2579C31.6284 30.4621 30.8985 29.4774 30.3317 28.925C29.5245 28.135 29.994 27.8172 30.5779 27.3278C30.2172 26.9871 29.2383 27.2705 29.576 26.323C29.6161 26.2085 29.4444 26.0196 29.3785 25.8622C29.2096 25.4586 28.0847 25.8765 28.5627 25.1466C28.8089 24.7716 29.3041 24.0417 30.0627 24.1905C30.6466 24.305 31.4252 24.2964 30.9701 25.4557C32.198 24.9462 31.8774 23.5694 32.8421 23.2087C33.8067 22.9539 34.2475 23.7697 34.883 24.1934C34.9746 24.2649 35.0605 24.3451 35.1492 24.4195C35.3668 24.5998 35.6044 24.7516 35.819 24.9319C36.0223 25.1122 36.2083 25.3097 36.403 25.5015C36.5919 25.6933 36.778 25.8822 36.9726 26.0683C37.0928 26.177 37.2102 26.2915 37.3275 26.4032C37.5966 26.6808 37.9201 26.8927 38.2149 27.1388C38.441 27.3821 38.6099 27.6712 38.8418 27.9117C39.1395 28.1808 39.2969 28.5414 39.4772 28.8849C39.2168 30.3076 38.2235 31.2751 37.3447 32.317C35.5614 33.5221 33.6293 34.0602 31.4796 33.6337H31.4853Z" fill="#01205E"/>
<path d="M39.4818 28.882C39.2213 28.5957 38.9608 28.3095 38.6975 28.0204C38.686 27.4679 39.1669 27.3362 39.4989 27.0786C39.5877 27.1387 39.6793 27.2017 39.768 27.2618C39.8768 27.8372 39.6764 28.3581 39.4789 28.8791L39.4818 28.882Z" fill="#AAB1B9"/>
<path d="M24.8147 19.0038C24.7345 18.5315 24.6544 18.0592 24.5742 17.5897C25.0179 17.7099 25.4616 17.8302 25.9024 17.9475C26.1543 18.3168 26.2573 19.0009 26.9443 18.4284C27.7487 18.6259 28.4986 18.9437 29.1684 19.4389C29.0997 19.8768 28.8908 20.2346 28.5587 20.5237C27.3107 20.0171 26.0598 19.5076 24.8118 19.0009L24.8147 19.0038Z" fill="#ADC6C0"/>
<path d="M34.9441 24.5855C34.2428 24.1246 33.5415 23.6667 32.8402 23.2058C32.8431 23.1371 32.8345 23.0684 32.8145 23.0026C32.9375 22.4387 33.3497 22.2726 33.8593 22.244C34.1455 22.2526 34.3459 22.3929 34.4718 22.6448C34.7466 23.263 36.0977 23.6209 34.9413 24.5855H34.9441Z" fill="#729B8C"/>
<path d="M30.9467 20.3433C31.4447 20.495 31.9027 20.7183 32.2434 21.1276C32.0373 21.4969 32.0001 21.9921 31.4963 22.1381C30.9982 21.9835 30.5545 21.7402 30.1738 21.3852C30.3856 21.0045 30.6633 20.6696 30.9467 20.3405V20.3433Z" fill="#80A897"/>
<path d="M28.5609 20.5265C28.538 20.037 28.6783 19.642 29.1706 19.4417C29.414 19.5561 29.6573 19.6706 29.9006 19.7851C30.0265 20.3118 29.8376 20.684 29.3452 20.9044C29.0848 20.7784 28.8214 20.6525 28.5609 20.5237V20.5265Z" fill="#D0D5D9"/>
<path d="M29.3457 20.9044C29.5318 20.5323 29.715 20.1573 29.901 19.7852C30.2187 19.8567 30.5107 19.9655 30.7197 20.2374C31.0002 21.3337 30.1415 20.9731 29.6463 21.0761C29.4917 21.1133 29.3915 21.0589 29.3457 20.9044Z" fill="#80A897"/>
<path d="M32.4721 22.7278C32.2489 22.7335 32.0943 22.6419 32.0313 22.4186C31.6563 21.58 32.0857 21.4483 32.7899 21.5571C33.3938 22.141 33.5255 22.5961 32.4721 22.7278Z" fill="#76A48C"/>
<path d="M32.4727 22.7277C33.1825 22.556 33.0881 22.1266 32.8276 21.6371C32.736 21.5885 32.7045 21.5398 32.7331 21.4883C32.7618 21.4368 32.7933 21.411 32.8219 21.411C33.1682 21.6887 33.5174 21.9663 33.8638 22.244C33.5146 22.4959 33.1654 22.7506 32.819 23.0025C32.7045 22.9109 32.59 22.8193 32.4727 22.7277Z" fill="#B4BFC1"/>
<path d="M32.8205 21.411C32.8205 21.4883 32.8205 21.5627 32.8262 21.64C32.2194 21.5513 31.9303 21.7831 32.0333 22.4186C31.8559 22.327 31.6755 22.2325 31.498 22.1409C31.8015 21.8432 31.5896 21.1648 32.2451 21.1305C32.3654 21.3738 32.6115 21.3566 32.8234 21.4139L32.8205 21.411Z" fill="#BBD0CC"/>
<path d="M29.6435 21.0761C29.9383 20.7155 30.757 21.0246 30.7169 20.2374C30.7971 20.2661 30.8715 20.3004 30.943 20.3433C30.9888 20.9158 30.8715 21.3681 30.1673 21.3881C29.9927 21.2851 29.8152 21.182 29.6406 21.079L29.6435 21.0761Z" fill="#C8D4DC"/>
<path d="M38.1789 27.2161C37.6178 27.2447 37.3774 26.8239 37.1055 26.4489C37.2915 25.7877 37.7266 25.6761 38.3134 25.9079C38.7027 25.9967 38.7056 26.343 38.7943 26.6321C38.7456 26.9928 38.5081 27.1502 38.1789 27.2161Z" fill="#6E9283"/>
<path d="M38.1799 27.216C38.3859 27.0214 38.5892 26.8267 38.7953 26.6321C39.2275 26.4718 39.3277 26.8325 39.4994 27.0815C39.6139 27.7198 39.0128 27.7485 38.698 28.0233C38.3172 27.8887 38.1741 27.6025 38.1799 27.2189V27.216Z" fill="#709B88"/>
<path d="M34.9447 24.5854C34.9133 24.0874 35.8121 23.2029 34.335 23.2973C34.0144 23.3174 34.1862 22.8308 34.4724 22.6418C34.9848 23.0311 35.5001 23.4204 36.0124 23.8069C35.9523 24.4595 35.6604 24.8059 34.9533 24.594L34.9419 24.5826L34.9447 24.5854Z" fill="#A9C6BE"/>
<path d="M26.9475 18.4283C26.8989 18.8005 26.9761 19.31 26.3693 19.2098C25.5335 19.0724 26.0315 18.3797 25.9056 17.9446C26.272 18.0677 26.6842 18.082 26.9475 18.4255V18.4283Z" fill="#6AA88B"/>
<path d="M34.957 24.5998C35.4522 24.5282 35.6412 24.0445 36.0133 23.8126C36.2766 23.8842 36.4713 24.033 36.5829 24.2849C36.5113 24.803 36.3882 25.2667 35.6955 25.1265C35.4494 24.9519 35.2032 24.7744 34.957 24.5998Z" fill="#6E9787"/>
<path d="M36.8304 26.1713C36.6529 26.0024 36.4754 25.8364 36.298 25.6675C36.235 25.0263 36.5041 24.7229 37.1653 24.8316L37.3743 25.0377C37.6777 25.6474 37.5517 26.051 36.8304 26.1713Z" fill="#6D9784"/>
<path d="M37.1637 24.8345C36.763 24.9977 36.4768 25.2782 36.2964 25.6703C36.0961 25.49 35.8957 25.3097 35.6953 25.1265C36.1762 25.0406 36.2048 24.4767 36.5827 24.2849C36.7773 24.4681 36.9691 24.6513 37.1637 24.8345Z" fill="#AABCBA"/>
<path d="M36.832 26.1712C37.1698 25.8678 37.4589 25.5415 37.3759 25.0377C37.6908 25.3268 38.0028 25.6159 38.3176 25.9079C37.7795 25.7848 37.5247 26.2972 37.1097 26.4489C37.0181 26.3573 36.9265 26.2628 36.832 26.1712Z" fill="#A9C2BC"/>
<path d="M32.3177 28.7132C31.771 28.8105 31.1584 29.091 30.8808 28.4727C30.752 28.1865 30.9924 27.7199 31.3645 27.6455C32.1803 27.4823 31.8426 28.4584 32.3206 28.7132H32.3177Z" fill="#022268"/>
</svg>
