<svg width="116" height="116" viewBox="0 0 116 116" fill="none" xmlns="http://www.w3.org/2000/svg">
<path d="M116 58C116 90.0326 90.0326 116 58 116C25.9674 116 0 90.0326 0 58C0 25.9674 25.9674 0 58 0C90.0326 0 116 25.9674 116 58ZM51.2912 88.7105L94.3234 45.6783C95.7847 44.217 95.7847 41.8477 94.3234 40.3865L89.0316 35.0947C87.5704 33.6332 85.2011 33.6332 83.7396 35.0947L48.6452 70.1889L32.2604 53.8041C30.7992 52.3429 28.4298 52.3429 26.9684 53.8041L21.6766 59.0959C20.2153 60.5571 20.2153 62.9265 21.6766 64.3877L45.9991 88.7103C47.4606 90.1718 49.8297 90.1718 51.2912 88.7105Z" fill="#009245"/>
</svg>
