<svg width="62" height="49" viewBox="0 0 62 49" fill="none" xmlns="http://www.w3.org/2000/svg">
<path d="M6.24822 6.30452C7.44408 6.54429 8.62809 6.82845 9.84171 6.96165C11.6888 7.16293 13.5388 7.1955 15.3948 7.06821C16.9902 6.95869 18.562 6.72485 20.1308 6.43476C22.0548 6.07956 23.9582 5.62667 25.8378 5.0909C28.342 4.37457 30.8432 3.63752 33.3415 2.89751C35.7894 2.1723 38.2492 1.48853 40.7475 0.952766C43.9828 0.257156 47.2537 -0.14245 50.563 0.0469928C53.0583 0.192035 55.4944 0.671562 57.8388 1.58029C59.1235 2.07758 60.3637 2.64887 61.5625 3.3208C61.8585 3.48656 62.0006 3.67304 62.0006 4.04601C61.9858 10.5818 61.9917 17.1205 61.9888 23.6563C61.9888 23.828 61.968 23.9997 61.9592 24.1713C61.8881 24.2453 61.8023 24.2424 61.7253 24.198C61.0712 23.8369 60.3903 23.5201 59.7776 23.082C58.6942 22.4871 57.5457 22.0579 56.3617 21.6997C55.3464 21.3919 54.3134 21.1462 53.2714 20.9863C52.567 20.8768 51.8625 20.7022 51.1373 20.7051C49.9325 20.7051 48.7278 20.7554 47.526 20.6903C46.3982 20.6311 45.2941 20.8087 44.1989 20.9538C42.5975 21.1639 41.0021 21.4718 39.4303 21.8891C38.9863 22.0075 38.5423 22.1141 38.0805 21.7411C37.601 21.3534 36.7929 21.5606 36.5235 22.1319C36.2897 22.6232 35.9138 22.7949 35.4638 22.9163C33.7796 23.3721 32.1101 23.8724 30.4406 24.3726C30.3222 24.4081 30.2038 24.4111 30.0825 24.3933C29.7066 24.3253 29.3217 24.1181 28.9577 24.4377C28.7712 24.5029 28.6261 24.3726 28.4633 24.3312C28.1673 24.3253 27.8654 24.2305 27.5901 24.417C27.5043 24.494 27.4214 24.5798 27.3444 24.6657C27.1136 24.9143 26.9715 25.2518 26.6192 25.379C26.5363 25.385 26.4623 25.3642 26.4002 25.311C26.2137 25.0653 26.0302 24.8166 25.823 24.5887C25.3731 24.0973 24.7751 24.0766 24.2926 24.5413C23.9611 24.861 23.745 25.234 23.7065 25.7076C23.671 26.119 23.0701 26.5305 22.6735 26.4358C22.3982 26.3707 22.2739 26.051 22.4189 25.7727C22.5018 25.6158 22.6498 25.5211 22.7682 25.3998C23.156 25.0061 23.0849 24.6982 22.5847 24.4673C22.2591 24.3164 21.972 24.2542 21.6079 24.3993C21.0248 24.6301 20.7731 25.012 20.8175 25.6247C20.8323 25.829 20.8235 26.0362 20.8175 26.2434C20.7939 26.9005 20.1131 27.3208 19.4944 27.0663C19.3405 27.0041 19.2842 26.8975 19.2961 26.7466C19.3286 26.3558 19.2487 25.9562 19.3701 25.5714C19.5181 25.3287 19.8467 25.2902 19.9828 25.0386C20.1042 24.8166 20.2699 24.5769 20.0716 24.3312C19.8999 24.1181 19.527 24.195 19.2517 24.4259C18.8728 24.7397 18.7662 25.1511 18.7574 25.6099C18.7574 25.8497 18.7603 26.0865 18.7574 26.3262C18.7485 26.5216 18.7633 26.7111 18.8521 26.8887C18.9231 27.1136 18.8402 27.2587 18.6094 27.2942C17.9789 27.3948 17.3632 27.6227 16.709 27.5103C16.4367 27.4303 16.3064 27.3238 16.6557 27.158C16.9162 27.0337 17.1619 26.8709 17.4609 26.8235C17.7273 26.7821 17.9137 26.6163 17.9285 26.347C17.9729 25.5922 18.1328 24.8521 18.1653 24.0973C18.1713 23.976 18.1653 23.8576 18.1357 23.7392C18.0913 23.532 18.0233 23.304 17.7776 23.2981C17.5112 23.2892 17.5349 23.5438 17.5053 23.7185C17.4431 24.0796 17.2122 24.2661 16.8748 24.2957C16.3568 24.3371 15.898 24.42 15.6671 24.9854C15.4007 25.6425 15.5191 26.2256 15.895 26.7851C16.2117 27.2587 16.1969 27.3711 15.7411 27.6938C13.9532 27.7737 12.1476 27.8803 10.3804 27.6879C7.25463 27.3475 4.23835 26.5157 1.43223 25.0298C0.0913325 24.3193 0.0794925 24.3371 0.0794925 22.8245C0.0794925 16.6854 0.0794925 10.5463 0.0794925 4.40418C0.0794925 4.12297 -0.00634869 3.73521 0.514619 3.96905C1.26351 4.46338 2.1308 4.73274 2.90041 5.17971C3.78251 5.69179 4.78892 5.7954 5.69173 6.21276C5.86933 6.29564 6.06766 6.22756 6.23934 6.3134L6.24822 6.30452Z" fill="#FDD016"/>
<path d="M61.9732 34.4989V44.7702C61.8133 44.8294 61.7186 44.7051 61.6091 44.64C56.95 41.9493 51.9208 40.9814 46.5869 41.3839C42.0669 41.7243 37.7274 42.8936 33.4058 44.1604C29.4541 45.3178 25.5321 46.5877 21.5005 47.455C18.4161 48.118 15.3051 48.5413 12.1438 48.4318C7.9287 48.2868 3.98297 47.1915 0.336195 45.0514C0.143792 44.9389 0.0253906 44.8383 0.0253906 44.5837C0.0401908 41.2626 0.0431509 37.9444 0.049071 34.6232C0.419076 34.4397 0.66476 34.7298 0.928204 34.8778C2.23358 35.6178 3.59816 36.2305 5.0249 36.6893C7.07621 37.3524 9.166 37.7638 11.3298 37.897C12.9697 37.9976 14.6006 37.9769 16.2198 37.8289C18.3392 37.6365 20.4349 37.2487 22.5099 36.7485C26.3402 35.822 30.0994 34.6528 33.8735 33.5339C36.3629 32.7968 38.873 32.1486 41.4216 31.6306C44.503 31.0031 47.611 30.6775 50.7398 30.8669C53.4601 31.0297 56.1152 31.6069 58.6401 32.6903C59.6229 33.1106 60.5819 33.5694 61.5025 34.1081C61.6831 34.2147 61.8577 34.3183 61.9732 34.4959V34.4989Z" fill="#CC1127"/>
<path d="M61.973 34.4989C60.7002 33.8417 59.4452 33.1432 58.1013 32.6281C55.9967 31.82 53.824 31.3138 51.5833 31.1037C49.6474 30.9202 47.7145 30.9438 45.7727 31.1422C44.5443 31.2694 43.3189 31.4145 42.1082 31.6395C40.714 31.897 39.3317 32.2255 37.9523 32.5689C36.1082 33.0277 34.2907 33.5842 32.4644 34.1022C30.9548 34.5285 29.4659 35.0287 27.9562 35.452C25.6829 36.0884 23.4096 36.7366 21.0919 37.2103C19.5793 37.5211 18.0578 37.7904 16.5275 37.9443C14.9054 38.1071 13.2774 38.1841 11.6375 38.0687C10.3321 37.9769 9.03564 37.8585 7.75986 37.5951C6.46928 37.3287 5.20534 36.9527 3.97397 36.4762C2.76331 36.0085 1.59113 35.4579 0.475196 34.7889C0.347914 34.712 0.191032 34.6765 0.0489495 34.6232C0.0459895 31.1777 0.0400694 27.7322 0.0371094 24.2897C0.442635 24.2275 0.706079 24.5294 1.00504 24.6982C2.71299 25.6602 4.51565 26.3765 6.416 26.856C7.5201 27.1343 8.63603 27.3444 9.76677 27.5072C11.753 27.7944 13.7332 27.7056 15.7135 27.6197C17.232 27.5546 18.7446 27.2912 20.2246 26.9715C21.3435 26.7317 22.4683 26.4919 23.5842 26.2315C23.8122 26.2107 23.9631 26.3321 24.0993 26.5008C24.2828 26.7347 24.5196 26.9004 24.8275 26.9182C24.9725 26.9271 25.1679 26.9744 25.2152 26.7731C25.2596 26.5896 25.1057 26.5245 24.9547 26.4535C24.7594 26.3617 24.4397 26.3321 24.6321 25.971C24.9577 25.8171 25.2833 25.6631 25.6563 25.7904C25.8191 25.9769 25.7628 26.2078 25.7865 26.4239C25.8043 26.5955 25.7184 26.8708 25.9848 26.8738C26.269 26.8738 26.2128 26.5896 26.2276 26.3972C26.2453 26.1427 26.2009 25.8851 26.2927 25.6394C26.3312 25.5595 26.3874 25.5003 26.4614 25.4559C26.6775 25.4263 26.8788 25.228 27.1126 25.4026C27.2103 25.7549 27.083 26.1131 27.1304 26.4712C27.1541 26.6636 27.1481 26.8856 27.4057 26.8856C27.6691 26.8856 27.6543 26.6547 27.6721 26.4683C27.7105 26.045 27.5981 25.6098 27.7638 25.1954C27.8526 25.0652 27.9799 25.006 28.1309 24.9853C28.5453 24.9527 28.6755 25.1895 28.6785 25.5536C28.6785 25.8792 28.6696 26.2078 28.6903 26.5334C28.6992 26.6962 28.7495 26.8679 28.9449 26.8531C29.1254 26.8412 29.1106 26.6607 29.1136 26.5275C29.1254 26.1841 29.1106 25.8407 29.1225 25.4944C29.1343 25.2014 29.1965 24.9172 29.5606 24.9113C29.9158 24.9083 30.0697 25.157 30.1082 25.4796C30.1407 25.7519 30.12 26.0302 30.123 26.3055C30.123 26.4416 30.1171 26.5807 30.1437 26.7169C30.1674 26.8442 30.2325 26.9537 30.3746 26.9537C30.5374 26.9537 30.5611 26.8175 30.5551 26.6962C30.5226 26.0331 30.7002 25.3523 30.3687 24.7189C30.3213 24.6271 30.3124 24.5206 30.3509 24.417C30.8452 24.0913 31.4313 24.0321 31.9789 23.8664C33.2399 23.4875 34.5038 23.1086 35.7707 22.7445C35.8832 22.712 36.0016 22.6824 36.123 22.6824C36.3568 22.7623 36.3509 22.9991 36.4427 23.1708C36.6676 23.5881 37.1472 23.8101 37.5527 23.6888C37.9493 23.5674 38.2098 23.1945 38.2069 22.8156C38.2069 22.5847 37.9523 22.4396 38.0293 22.1969C38.0914 22.1466 38.1625 22.1318 38.2394 22.1377C38.7278 22.339 38.6864 22.7179 38.5946 23.079C38.8373 22.786 38.4437 22.3627 38.7101 22.0223C39.385 21.7766 40.0954 21.6552 40.7939 21.5072C42.0608 21.2379 43.3366 21.0218 44.6213 20.8501C46.9301 20.5452 49.2478 20.5334 51.5596 20.6962C52.569 20.7672 53.5813 20.9655 54.5877 21.1905C56.0086 21.5072 57.3791 21.9424 58.7229 22.484C59.1344 22.6498 59.531 22.8511 59.9217 23.0672C60.6025 23.4342 61.2833 23.8042 61.9671 24.1713C61.979 24.9586 61.9967 25.746 61.9967 26.5334C61.9967 29.1915 61.9878 31.8467 61.9819 34.5048L61.973 34.4989Z" fill="#013892"/>
<path d="M23.6979 26.3292C21.8509 26.7229 20.0156 27.1551 18.1449 27.4245C13.5923 28.0816 9.09604 27.9513 4.7063 26.4358C3.24404 25.9296 1.84394 25.2695 0.497119 24.5059C0.349117 24.423 0.189275 24.3579 0.0353524 24.2868C0.0323923 18.6864 0.0294323 13.086 0.0264723 7.48561C0.0264723 6.40224 0.0205522 5.32182 0.0294323 4.23845C0.0294323 4.0638 -0.0771292 3.81812 0.115274 3.72044C0.295836 3.62572 0.452718 3.83292 0.615521 3.91876C0.674722 3.95132 0.728002 3.99276 0.784243 4.03124C0.745763 4.08452 0.701362 4.09044 0.651041 4.04604C0.215915 3.901 0.127114 4.06972 0.127114 4.50189C0.141914 10.866 0.141914 17.233 0.127114 23.5971C0.127114 23.976 0.245515 24.1743 0.5652 24.3638C2.30274 25.3939 4.15277 26.1783 6.09456 26.7022C7.26082 27.0189 8.45963 27.2261 9.66437 27.4097C11.7246 27.7205 13.7759 27.4777 15.8272 27.5725C16.0581 27.312 16.3748 27.4215 16.656 27.3741C17.3338 27.4807 17.9732 27.2143 18.6333 27.1581C18.8819 27.1373 18.7606 26.9804 18.7191 26.8591C18.5593 26.7111 18.8938 26.4654 18.6185 26.3411V25.5152C18.7221 25.4975 18.7843 25.5152 18.7369 25.6425C18.8168 25.5626 18.7339 25.4856 18.731 25.4087C18.728 25.3021 18.7576 25.2044 18.7961 25.1097C18.8316 25.0179 18.8553 24.8907 18.9855 24.9055C19.1247 24.9203 19.1335 25.0505 19.1602 25.163C19.1543 25.0091 19.175 24.864 19.3171 24.7752C19.4917 24.6657 19.6871 24.6361 19.841 24.7841C20.0156 24.9528 19.9268 25.1304 19.7759 25.2725C19.6752 25.3672 19.5568 25.4353 19.4473 25.5182C19.4473 25.829 19.4384 26.1368 19.4503 26.4476C19.4591 26.6726 19.2667 27.0041 19.7788 26.9745C20.3886 26.939 20.6639 26.8028 20.6846 26.3914C20.7083 25.9474 20.6432 25.5004 20.732 25.0564C20.8533 24.4437 21.8893 23.9316 22.4281 24.2306C22.5169 24.2809 22.6027 24.3549 22.6974 24.3697C22.9017 24.4023 23.1385 24.3815 23.1562 24.6687C23.174 24.9706 23.245 25.2991 22.8987 25.4975C22.8099 25.5478 22.727 25.6099 22.6501 25.678C22.4754 25.826 22.3778 25.9918 22.5376 26.2108C22.6915 26.424 22.8484 26.2789 23.0319 26.2434C23.4848 26.1546 23.5943 25.9356 23.6002 25.4797C23.6121 24.6805 24.5771 23.9168 25.3437 24.0944C25.9505 24.2335 26.2465 24.7663 26.4715 25.3139C26.5307 25.382 26.5307 25.4501 26.4715 25.5182C26.433 25.5596 26.3945 25.6011 26.356 25.6425C26.2761 25.7136 26.1814 25.755 26.0808 25.7905C26.0216 25.8142 25.9624 25.829 25.9002 25.8438C25.8173 25.8616 25.7374 25.8882 25.6545 25.8438C25.2816 25.832 24.953 26.0066 24.6037 26.0954C24.5356 26.1487 24.4823 26.2197 24.3965 26.2464C24.2722 26.2937 24.1508 26.3411 24.0147 26.344C23.9111 26.344 23.8075 26.2552 23.7009 26.3381L23.6979 26.3292Z" fill="#F3CC27"/>
<path d="M0.650391 4.04593C0.694791 4.04001 0.739192 4.03409 0.783593 4.03113C2.49746 4.9221 4.25276 5.72131 6.12943 6.2186C6.17383 6.23044 6.20935 6.2778 6.24783 6.3074C5.52262 6.36956 4.91285 5.99364 4.25868 5.78939C4.07516 5.73315 3.90644 5.67395 3.71403 5.72131C3.63411 5.74203 3.49203 5.77163 3.47723 5.74499C3.23155 5.28619 2.68986 5.28027 2.32577 4.99314C2.00905 4.7445 1.58872 4.60242 1.19504 4.47513C0.943435 4.39225 0.789513 4.24721 0.650391 4.04889V4.04593Z" fill="#F6CE25"/>
<path d="M16.6594 27.377C16.4078 27.5517 16.094 27.4629 15.8306 27.5754C16.094 27.3119 16.0348 27.1136 15.7832 26.8442C15.1587 26.1812 15.2563 24.7219 16.0615 24.2927C16.2983 24.1654 16.5203 24.1891 16.7541 24.1772C17.1449 24.1565 17.4201 24.0351 17.3876 23.5675C17.3728 23.3632 17.3935 23.0879 17.6362 23.0761C17.8967 23.0642 18.1513 23.153 18.246 23.5023C18.4295 24.1772 18.2105 24.8255 18.1601 25.4826C18.1453 25.6661 18.1069 25.8526 18.1039 26.0391C18.095 26.7436 18.0299 26.8294 17.3225 26.9715C17.0383 27.0277 16.8755 27.3474 16.5528 27.306C16.5528 27.3208 16.5528 27.3445 16.5588 27.3504C16.5884 27.3652 16.6239 27.3711 16.6564 27.38L16.6594 27.377Z" fill="#F6CE25"/>
<path d="M26.4727 25.5151C26.4727 25.4471 26.4727 25.379 26.4727 25.3109C26.5407 25.3109 26.6088 25.3079 26.6739 25.305C26.9877 25.2635 27.0143 24.8758 27.2926 24.7929C27.4554 24.9498 27.6271 24.9202 27.8076 24.8225C28.1303 24.6479 28.4796 24.6419 28.7815 24.6508C28.2901 24.3311 27.7958 24.6627 27.2867 24.7929C27.2334 24.7219 27.2393 24.6538 27.2955 24.5887C27.334 24.491 27.4051 24.4199 27.5028 24.3815C27.8017 24.0825 28.2102 24.3341 28.5358 24.1772C28.6779 24.2335 28.7696 24.3992 28.9473 24.3815C29.2669 24.0943 29.6281 24.2157 29.9803 24.2749C30.6789 24.2305 31.3153 23.9345 31.9813 23.7569C33.2956 23.4017 34.595 22.9932 35.9093 22.638C36.1283 22.5788 36.1638 22.4545 36.2349 22.3035C36.7144 21.2852 37.6113 21.1195 38.4845 21.821C38.7391 22.0253 39.1476 21.8121 39.4672 21.7381C40.376 21.525 41.2995 21.3741 42.2023 21.158C43.41 20.8649 44.6532 20.8797 45.855 20.5956C46.0178 20.5571 46.1954 20.566 46.3671 20.566C47.8974 20.566 49.4278 20.5571 50.9552 20.566C51.8609 20.5719 52.743 20.7998 53.637 20.9182C54.6759 21.0573 55.6883 21.3237 56.6769 21.6257C57.781 21.9631 58.8792 22.3657 59.8797 22.9725C59.9034 22.9873 59.9034 23.0346 59.9152 23.0672C58.672 22.5788 57.4495 22.043 56.1648 21.6641C53.2137 20.7939 50.2004 20.5364 47.1486 20.7051C44.3839 20.859 41.6636 21.3445 38.9759 22.0075C38.8604 22.0371 38.7509 22.0874 38.6414 22.1289C38.5348 22.2621 38.3839 22.1703 38.2566 22.2029C38.1826 22.2265 38.1086 22.2473 38.0346 22.2709C37.9576 22.3834 37.8363 22.416 37.7119 22.4456C37.3212 22.5196 36.9512 22.6617 36.5664 22.7564C36.445 22.786 36.3207 22.8363 36.1994 22.7623C34.6749 23.0909 33.2068 23.6118 31.709 24.0322C31.265 24.1565 30.8239 24.3015 30.3829 24.4347C30.3178 24.5028 30.2526 24.5768 30.1579 24.6094C29.8649 24.7189 29.5541 24.7633 29.264 24.8847C29.0805 24.9409 28.8969 25.0031 28.7075 25.0415C28.5299 25.0919 28.3316 25.0001 28.1599 25.1096C28.0267 25.1037 27.9112 25.1511 27.8047 25.228C27.7248 25.2991 27.6271 25.3435 27.5264 25.379C27.4258 25.4145 27.3251 25.4441 27.2215 25.4678C27.1771 25.4737 27.1387 25.4648 27.1002 25.4411C26.8811 25.3701 26.6947 25.5714 26.4756 25.5211L26.4727 25.5151Z" fill="#F4D238"/>
<path d="M19.446 25.521C19.52 25.4292 19.594 25.3345 19.671 25.2427C19.7568 25.1421 19.893 25.0562 19.8219 24.8934C19.7716 24.775 19.6532 24.7987 19.5526 24.7987C19.372 24.8017 19.2625 24.8934 19.2447 25.074C19.2299 25.225 19.2299 25.3759 19.221 25.5417C18.8629 25.447 19.2181 25.1154 18.9754 24.9822C18.7385 25.1806 18.8658 25.4736 18.8037 25.743C18.7356 25.6571 18.6764 25.5861 18.6172 25.5151C18.6172 24.9497 18.9043 24.5412 19.2921 24.1564C19.6295 23.8219 19.8989 24.1564 20.189 24.189C20.4939 24.2274 20.2689 24.4672 20.26 24.6004C20.2334 25.1125 19.9285 25.4026 19.443 25.518L19.446 25.521Z" fill="#F6CE25"/>
<path d="M27.2935 24.7958C27.0715 24.9468 27.1277 25.4382 26.6719 25.305C26.8791 25.0652 27.0863 24.8254 27.2935 24.5886C27.2935 24.6567 27.2935 24.7248 27.2935 24.7929V24.7958Z" fill="#F3CC27"/>
<path d="M29.9823 24.2748C29.633 24.2748 29.2837 24.2571 28.9492 24.3814C29.2423 23.8427 29.6271 24.2068 29.9823 24.2748Z" fill="#F3CC27"/>
<path d="M28.537 24.1772C28.2202 24.3874 27.8266 24.2038 27.5039 24.3814C27.7733 23.9434 28.1995 24.2838 28.537 24.1772Z" fill="#F3CC27"/>
<path d="M18.6204 26.344C18.6885 26.3558 18.804 26.0657 18.8188 26.3617C18.8276 26.5245 18.7566 26.6932 18.7211 26.862C18.5494 26.7169 18.6441 26.5186 18.6204 26.344Z" fill="#F6CE25"/>
<path d="M40.0989 26.862C39.9153 26.7851 39.9272 26.6608 39.9568 26.4832C40.0249 26.0924 40.0278 25.6958 39.8798 25.3139C39.8147 25.1482 39.7052 24.9943 39.5039 25.0239C39.2937 25.0535 39.1753 25.2103 39.1724 25.4235C39.1635 25.8349 39.1694 26.2493 39.1694 26.6608C39.1694 26.8709 39.1132 27.0337 38.8704 27.0633C38.604 27.0929 38.4649 26.9331 38.459 26.7111C38.4442 26.1635 38.4057 25.604 38.4916 25.0653C38.607 24.3283 39.3944 23.9849 40.0781 24.3371C40.2469 24.423 40.3534 24.4023 40.5014 24.3371C41.2858 24.0026 42.088 24.4763 42.159 25.3376C42.1946 25.7816 42.159 26.2316 42.165 26.6785C42.1709 26.9893 41.9726 27.1225 41.718 27.1433C41.4516 27.164 41.3776 26.9094 41.3598 26.717C41.3243 26.3233 41.3421 25.9267 41.3421 25.53C41.3421 25.2607 41.2592 25.015 40.9632 25.0239C40.6731 25.0327 40.7264 25.308 40.7234 25.5093C40.7175 25.8882 40.7234 26.2671 40.7175 26.646C40.7175 26.8384 40.6021 26.9775 40.4333 27.0397C40.2765 27.0959 40.1166 27.09 40.0989 26.8591C40.3209 26.7052 40.3712 26.4772 40.3682 26.2256C40.3682 25.9504 40.3564 25.6751 40.3741 25.3998C40.4037 24.941 40.605 24.6983 40.9573 24.6864C41.3125 24.6746 41.6114 24.9558 41.6677 25.3672C41.7062 25.6573 41.6795 25.9504 41.6884 26.2434C41.6914 26.3411 41.6647 26.4476 41.7831 26.5808C41.8246 26.0984 41.8601 25.6603 41.7624 25.2311C41.6351 24.6657 41.2355 24.4437 40.6761 24.6302C40.3978 24.7219 40.1581 24.7131 39.8798 24.6183C39.3115 24.42 38.8438 24.7515 38.8024 25.3554C38.7787 25.6988 38.7964 26.0421 38.8024 26.3855C38.832 26.0717 38.7964 25.752 38.8379 25.4383C38.903 24.9706 39.1812 24.6775 39.5424 24.6864C39.9065 24.6953 40.2173 25.0031 40.2232 25.4531C40.2291 25.9237 40.3682 26.4151 40.0989 26.862Z" fill="#013892"/>
<path d="M34.11 25.012C34.11 24.5976 34.0981 24.2868 34.1129 23.9789C34.1218 23.7895 34.1692 23.5941 34.4119 23.5616C34.6576 23.529 34.8115 23.6208 34.8352 23.8872C34.8588 24.1358 35.0335 24.1802 35.2407 24.1773C35.4657 24.1743 35.6877 24.1773 35.9126 24.1773C36.2234 24.1773 36.3507 24.3934 36.3537 24.645C36.3537 24.8818 36.1613 24.9942 35.9274 25.0002C35.7557 25.0061 35.5811 24.9824 35.4124 25.009C35.214 25.0386 34.8944 24.867 34.8529 25.1926C34.8144 25.5152 34.7079 25.8823 35.0068 26.1664C35.2496 26.3973 35.4272 26.3588 35.5485 26.051C35.5841 25.9563 35.6137 25.8556 35.6344 25.755C35.6758 25.5419 35.7794 25.3909 36.0133 25.4294C36.2471 25.4649 36.3566 25.6247 36.3773 25.8615C36.4188 26.3411 36.0221 26.9272 35.5663 27.0515C34.9832 27.2084 34.5036 26.9745 34.258 26.4387C34.033 25.9444 34.1336 25.4235 34.11 25.0179V25.012Z" fill="#013892"/>
<path d="M44.9562 25.2073C44.9147 25.5359 44.6187 25.6661 44.4322 25.8822C44.2783 26.0627 44.0859 26.0953 43.8846 25.9414C43.6478 25.7579 43.7189 25.5477 43.858 25.3553C43.935 25.2458 44.0504 25.1659 44.1925 25.0356C43.6863 24.9616 43.5857 25.3109 43.5413 25.601C43.488 25.9651 43.7396 26.1959 44.0652 26.3321C44.1096 26.3499 44.1688 26.3439 44.2191 26.3439C44.5654 26.3262 44.9532 26.344 44.8999 26.8028C44.8496 27.229 44.4322 27.1876 44.1096 27.1698C43.3873 27.1313 42.8013 26.4594 42.7835 25.6691C42.7687 24.935 43.3133 24.2601 44.006 24.1861C44.453 24.1387 44.8141 24.3489 45.0775 24.6863C45.2137 24.8639 45.2818 25.1067 44.9502 25.2132C44.7578 24.8343 44.5477 24.485 44.0356 24.5383C43.5797 24.5857 43.34 24.8846 43.189 25.2695C43.0292 25.672 43.1861 26.2729 43.4909 26.56C43.7366 26.7909 44.0386 26.7169 44.3316 26.708C44.0326 26.6903 43.7662 26.5867 43.562 26.3736C43.3015 26.1042 43.1061 25.7904 43.2453 25.3997C43.3696 25.0475 43.6093 24.7692 44.0001 24.6952C44.1984 24.6567 44.4382 24.6242 44.5566 24.8402C44.6572 25.0238 44.4885 25.154 44.3819 25.2872C44.3286 25.3523 44.2576 25.4086 44.2162 25.5092C44.4974 25.4737 44.601 25.0208 44.9502 25.2073H44.9562Z" fill="#013892"/>
<path d="M28.1562 25.1037C28.2835 24.9616 28.47 25.0149 28.6239 24.9616C28.9081 25.1096 28.8667 25.3849 28.8815 25.6336C28.8963 25.8822 28.8755 26.1338 28.8874 26.3588C29.0324 25.8378 28.6151 25.1304 29.3699 24.7633C29.9589 24.6745 30.2312 24.8728 30.3141 25.453C30.32 25.5033 30.326 25.5536 30.326 25.6069C30.3348 25.897 30.3289 26.1871 30.3319 26.4772C30.4532 25.8112 30.2727 25.1688 30.1898 24.5176C30.2401 24.4584 30.2964 24.4111 30.3822 24.4288C30.8795 25.1748 30.6723 26.0184 30.7019 26.8265C30.7108 27.0218 30.6131 27.1609 30.4 27.1609C30.1572 27.1609 30.0092 27.01 29.9944 26.7821C29.9708 26.4417 29.9856 26.0983 29.9826 25.7549C29.9826 25.6188 29.9974 25.4767 29.9678 25.3464C29.9204 25.1481 29.7872 25.012 29.5682 25.0149C29.3166 25.0149 29.2633 25.1896 29.2633 25.3997C29.2633 25.7934 29.2633 26.1871 29.2633 26.5808C29.2633 26.8117 29.2633 27.0633 28.9466 27.0573C28.6535 27.0514 28.5381 26.8472 28.5381 26.5689C28.5381 26.2078 28.5203 25.8496 28.5411 25.4915C28.5588 25.1984 28.4434 25.08 28.1592 25.1067L28.1562 25.1037Z" fill="#013892"/>
<path d="M31.7187 27.0692C31.4671 27.0869 31.1829 27.0514 31.1444 26.7317C31.1059 26.3884 31.3664 26.3173 31.6595 26.3381C31.9555 26.3558 32.0413 26.1871 32.0443 25.9207C32.0502 25.53 31.9999 25.1422 32.2011 24.7663C32.4202 24.3578 32.8642 24.0943 33.3141 24.1861C33.542 24.2335 33.6723 24.3667 33.693 24.6035C33.7167 24.8788 33.5332 24.9912 33.3171 24.9912C32.8109 24.9912 32.7192 25.2754 32.7636 25.6957C32.7813 25.8496 32.7724 26.0036 32.7636 26.1575C32.7251 26.714 32.3166 27.0751 31.7187 27.0692Z" fill="#013892"/>
<path d="M37.7345 22.3391C37.8352 22.3154 37.9329 22.2917 38.0335 22.2681C38.4183 22.6795 38.4361 23.1324 38.0838 23.5409C37.7701 23.902 37.178 23.9494 36.7755 23.7066C36.4025 23.4817 36.219 23.1798 36.1953 22.7565C36.293 22.7298 36.3907 22.7002 36.4854 22.6736C36.6778 22.6973 36.6956 22.8749 36.7696 22.9992C36.9501 23.307 37.1869 23.5261 37.554 23.3396C37.9003 23.162 37.9773 22.8749 37.7523 22.5315C37.7138 22.4753 37.7049 22.4072 37.7316 22.3391H37.7345Z" fill="#013892"/>
<path d="M27.4952 25.296C27.5781 25.1954 27.6876 25.2072 27.8001 25.222C27.8001 25.6868 27.8119 26.1485 27.8001 26.6133C27.7941 26.8441 27.7379 27.0721 27.4301 27.0632C27.14 27.0543 26.989 26.8856 26.989 26.6044C26.989 26.2137 26.9298 25.8141 27.0926 25.4352C27.1163 25.4056 27.1429 25.3996 27.1755 25.4204C27.4685 25.7164 27.2199 26.1485 27.4389 26.4889C27.507 26.0775 27.4123 25.6838 27.4952 25.296Z" fill="#013892"/>
<path d="M25.6546 25.8378C25.7019 25.7757 25.7611 25.7461 25.8381 25.7668C26.069 25.9799 25.9298 26.273 26.0068 26.5394C26.0571 26.2493 25.989 25.977 26.0423 25.7076C26.1282 25.5981 26.2406 25.6218 26.3531 25.6395C26.3531 25.9829 26.3738 26.3262 26.3531 26.6696C26.3413 26.8827 26.2643 27.0781 25.9861 27.0722C25.7197 27.0633 25.6338 26.9064 25.6368 26.6637C25.6427 26.3884 25.6457 26.1131 25.6486 25.8408L25.6546 25.8378Z" fill="#013892"/>
<path d="M24.4166 26.1575C24.4669 26.1013 24.5202 26.0598 24.6001 26.0894C24.6948 26.2877 24.8783 26.3144 25.0648 26.3499C25.3105 26.3943 25.4082 26.5867 25.3904 26.7998C25.3726 27.0218 25.195 27.081 24.979 27.081C24.5438 27.0751 24.1916 26.9301 23.9755 26.5364C23.9104 26.4209 23.8186 26.3617 23.6973 26.3351C23.7772 26.2226 23.8837 26.2522 23.9903 26.2729C24.3337 26.3381 24.4935 26.7969 24.9227 26.7081C24.7362 26.5275 24.3781 26.5275 24.4136 26.1634L24.4166 26.1575Z" fill="#013892"/>
<path d="M37.6221 26.862C37.6043 27.0899 37.4445 27.081 37.2846 27.0603C37.1188 27.0425 37.033 26.9034 37.03 26.7761C37.0152 26.0006 37.0241 25.2251 37.0241 24.3341C37.2787 24.5946 37.2017 24.8048 37.2047 24.9883C37.2165 25.5181 37.2076 26.0509 37.2106 26.5808C37.2106 26.8679 37.3142 27.0129 37.6191 26.859L37.6221 26.862Z" fill="#013892"/>
<path d="M38.2549 22.1971C38.3674 22.0935 38.5065 22.1142 38.6397 22.1231C38.8558 22.6292 38.8262 23.0969 38.3792 23.6149C38.4029 23.0644 38.767 22.576 38.252 22.1971H38.2549Z" fill="#013892"/>
<path d="M37.6172 26.859V24.5028C37.6645 25.2902 37.854 26.0775 37.6172 26.859Z" fill="#013892"/>
<path d="M24.4174 26.1575C24.5388 26.3884 24.749 26.492 24.9887 26.5453C25.0894 26.5689 25.2107 26.5719 25.2018 26.7081C25.193 26.8797 25.045 26.8472 24.9325 26.862C24.45 26.9271 24.2576 26.5423 23.9941 26.267C24.1273 26.196 24.2576 26.119 24.4174 26.1575Z" fill="#013892"/>
<path d="M26.0421 25.7075C26.2789 26.0331 26.1221 26.3972 26.1398 26.7435C26.1428 26.8235 26.0836 26.9123 25.977 26.8886C25.8793 26.8649 25.8557 26.7731 25.8527 26.6873C25.8438 26.3794 25.8409 26.0746 25.8379 25.7667C25.906 25.746 25.9741 25.7282 26.0421 25.7075Z" fill="#013892"/>
<path d="M25.4246 25.5625C25.3446 25.8407 25.0457 25.672 24.8769 25.7845C24.7704 25.8555 24.6165 25.8259 24.6342 25.6483C24.6638 25.373 24.9361 25.4085 25.1108 25.3375C25.2588 25.2813 25.3713 25.3701 25.4246 25.5595V25.5625Z" fill="#FDD016"/>
<path d="M37.7345 22.339C37.9121 22.564 38.1725 22.786 37.9861 23.1027C37.8529 23.3306 37.6782 23.5733 37.3526 23.5556C36.9648 23.5319 36.728 23.3128 36.6067 22.9547C36.5741 22.86 36.5297 22.7682 36.4883 22.6735C36.8908 22.5166 37.3053 22.3923 37.7345 22.339Z" fill="#0F3F8D"/>
<path d="M30.1902 24.5177C30.6786 25.2044 30.4566 25.9918 30.4951 26.7407C30.501 26.8265 30.4714 26.9183 30.3649 26.9301C30.2257 26.9449 30.1961 26.8413 30.1932 26.7348C30.1873 26.3588 30.1932 25.9859 30.1873 25.61C30.1784 24.9824 29.983 24.7989 29.3525 24.8167C29.3111 24.8433 29.2815 24.8374 29.2578 24.793C29.5479 24.6391 29.8587 24.5473 30.1873 24.5207L30.1902 24.5177Z" fill="#063A87"/>
<path d="M29.2604 24.7899C29.293 24.7958 29.3226 24.8018 29.3551 24.8136C29.1331 24.9794 29.0354 25.1925 29.0502 25.4737C29.065 25.7608 29.068 26.0539 29.0502 26.341C29.0384 26.5097 29.1538 26.8116 28.9141 26.8116C28.6181 26.8116 28.769 26.4919 28.7513 26.3173C28.7246 26.0479 28.7335 25.7727 28.7454 25.5003C28.7542 25.305 28.7069 25.1303 28.627 24.9586C28.8312 24.8758 29.0325 24.7781 29.2634 24.7899H29.2604Z" fill="#053886"/>
<path d="M27.293 24.7959C27.8347 24.2276 28.4296 24.3193 29.0394 24.6508C28.6043 24.8758 28.0507 24.716 27.6186 25.0652C27.4351 25.2162 27.2752 25.0445 27.29 24.7959H27.293Z" fill="#F3CC27"/>
<path d="M27.4955 25.296C27.7056 25.7518 27.5665 26.2284 27.5843 26.6961C27.5843 26.7405 27.5132 26.8204 27.4629 26.8293C27.3652 26.85 27.3267 26.7701 27.2942 26.6813C27.1462 26.2698 27.2202 25.8377 27.1758 25.4173C27.2557 25.3078 27.3711 25.293 27.4955 25.296Z" fill="#013892"/>
<path d="M40.099 26.862C40.099 26.3973 40.099 25.9355 40.099 25.4708C40.1019 25.0889 39.9332 24.8225 39.5454 24.8048C39.1281 24.787 38.9949 25.1096 38.9682 25.456C38.9386 25.8319 38.9593 26.2108 38.9564 26.5897C38.9564 26.6903 38.9564 26.8176 38.8232 26.8294C38.6456 26.8442 38.6515 26.6962 38.6515 26.5808C38.6515 26.1012 38.6219 25.6158 38.6604 25.1392C38.7077 24.5739 39.43 24.2127 39.9628 24.4821C40.1759 24.5887 40.3298 24.636 40.5696 24.5176C41.2386 24.1891 41.8631 24.5383 41.9431 25.2961C41.9904 25.7372 41.9549 26.1871 41.9519 26.6341C41.9519 26.7732 41.9223 26.936 41.7388 26.9212C41.5642 26.9064 41.5523 26.7436 41.5523 26.6045C41.5494 26.2108 41.5583 25.8141 41.5494 25.4204C41.5405 25.0356 41.3422 24.7959 40.9485 24.8077C40.5548 24.8166 40.5074 25.1126 40.5134 25.4323C40.5222 25.7756 40.4986 26.119 40.5193 26.4624C40.54 26.785 40.4098 26.9064 40.1019 26.8649L40.099 26.862Z" fill="#07398B"/>
<path d="M35.418 24.7959C35.2463 24.7959 35.0747 24.787 34.903 24.7988C34.8231 24.8048 34.7224 24.8314 34.675 24.8847C34.4826 25.1096 34.6691 26.2049 34.9178 26.3647C35.2907 26.6074 35.6667 26.4239 35.8502 25.9059C35.8887 25.7993 35.8531 25.6247 36.0248 25.6454C36.2202 25.6691 36.1699 25.8526 36.1669 25.9769C36.1551 26.4831 35.8295 26.8265 35.347 26.8561C34.7579 26.8886 34.3613 26.6045 34.3287 26.0391C34.2873 25.3731 34.3169 24.7012 34.3169 24.0322C34.3169 23.9286 34.3169 23.8043 34.4501 23.7924C34.6306 23.7747 34.6277 23.9286 34.6188 24.044C34.5951 24.3815 34.8083 24.3904 35.051 24.3815C35.3085 24.3726 35.566 24.3785 35.8235 24.3815C35.9893 24.3815 36.1521 24.4259 36.1462 24.6272C36.1373 24.8314 35.9567 24.7811 35.8265 24.787C35.6903 24.7959 35.5512 24.787 35.4151 24.787L35.418 24.7959Z" fill="#07398B"/>
<path d="M44.9544 25.2073C44.6377 25.234 44.5311 25.5329 44.318 25.6957C44.2203 25.7697 44.1315 25.8674 44.0102 25.746C43.8888 25.6247 43.9717 25.53 44.0575 25.4382C44.1049 25.3879 44.1641 25.3494 44.2026 25.2902C44.2973 25.1452 44.6081 25.0268 44.4482 24.861C44.3002 24.71 43.9835 24.7307 43.7822 24.8965C43.5188 25.1156 43.2198 25.3612 43.3323 25.7549C43.4566 26.1871 43.7171 26.5216 44.2233 26.5512C44.3269 26.5571 44.4305 26.5512 44.5311 26.5571C44.6229 26.563 44.7058 26.5897 44.7146 26.6962C44.7235 26.8028 44.6466 26.8324 44.5578 26.859C43.8207 27.0781 43.2257 26.7436 43.0274 25.9947C42.838 25.2813 43.2672 24.5235 43.9302 24.3992C44.4926 24.2927 44.9366 24.6479 44.9485 25.2132L44.9514 25.2103L44.9544 25.2073Z" fill="#05398A"/>
<path d="M31.7776 26.8621C31.6325 26.8473 31.4165 26.9095 31.3957 26.7111C31.378 26.5454 31.5585 26.4595 31.7243 26.4566C32.2127 26.4447 32.2453 26.1014 32.2512 25.7432C32.2542 25.3673 32.2364 25.0061 32.4998 24.6746C32.7159 24.3993 32.9734 24.3727 33.2695 24.3875C33.3819 24.3934 33.4707 24.4319 33.4796 24.5621C33.4885 24.6776 33.45 24.7782 33.3257 24.7841C32.5146 24.8197 32.559 25.3939 32.562 25.9593C32.565 26.5779 32.3104 26.8651 31.7806 26.8621H31.7776Z" fill="#05398B"/>
</svg>
