<svg width="51" height="45" viewBox="0 0 51 45" fill="none" xmlns="http://www.w3.org/2000/svg">
<path d="M30.8453 30.093C25.9614 22.8231 19.0731 18.8845 10.2688 18.294C7.81275 18.1288 5.40372 18.5763 3.22242 19.7963C2.92129 19.9653 2.60698 20.4351 2.62581 20.7452C2.64463 21.0553 3.01915 21.501 3.33534 21.6087C5.35102 22.2939 7.19167 23.3022 8.86105 24.5779C11.7048 26.7505 14.462 29.0364 17.304 31.2108C19.9896 33.2646 22.7092 35.2738 25.4721 37.2236C26.6389 38.048 28.0034 38.5141 29.5731 38.5123C29.7029 38.5067 29.9212 38.503 30.1396 38.4844C32.1703 38.3043 33.1603 37.0564 32.8196 35.0788C32.511 33.285 31.856 31.5989 30.8435 30.093H30.8453Z" fill="#C69C6D"/>
<path d="M29.7964 40.2047C25.447 39.993 21.5831 38.4499 18.1672 35.8632C16.2927 34.4445 14.5781 32.8197 12.7939 31.2859C9.98404 28.87 7.18354 26.4468 4.36234 24.0439C3.46837 23.2825 2.44076 23.1061 1.36611 23.6595C0.285811 24.2166 -0.0698979 25.1488 0.0110305 26.3168C0.280164 30.1996 1.58255 33.6981 4.22119 36.5967C8.95079 41.7943 15.0336 44.1489 21.9991 44.5295C22.5693 44.5035 23.1415 44.4998 23.708 44.446C26.1302 44.2194 28.3962 43.5658 30.3573 42.0728C30.7676 41.7608 30.9614 41.3746 30.8109 40.8862C30.6659 40.4146 30.2764 40.2289 29.7964 40.2047Z" fill="#C69C6D"/>
<path d="M21.2012 19.626C23.6667 20.872 25.8593 22.3687 27.8542 24.1495C27.9803 24.2627 28.3022 24.2609 28.4885 24.194C29.3938 23.8654 30.2859 23.5014 31.1779 23.143C35.0531 21.5851 38.9452 20.0661 42.7921 18.4394C43.8837 17.977 44.8812 17.2566 45.8486 16.5583C46.7501 15.9084 47.3504 14.9855 47.6854 13.9234C48.2143 12.2447 47.6215 10.9281 45.9126 10.4602C44.4257 10.0535 42.873 9.73414 41.3392 9.67471C37.1798 9.51316 33.3273 10.709 29.6874 12.6235C26.3938 14.356 23.5519 16.6289 21.2031 19.626H21.2012Z" fill="#C69C6D"/>
<path d="M50.7927 15.9969C50.7269 15.5103 50.5236 15.1167 49.9966 15.0015C49.4734 14.8883 49.1328 15.1464 48.8561 15.5698C46.7501 18.8045 43.8743 21.1814 40.4094 22.8935C37.7708 24.1989 34.9647 25.055 32.1472 25.8831C31.4866 26.0781 30.8298 26.2805 30.0977 26.5015C32.294 29.1643 33.8749 31.998 34.4226 35.4259C35.1754 35.1659 35.8643 34.9951 36.491 34.6961C37.927 34.0072 39.3988 33.3573 40.7388 32.5105C44.6798 30.0204 47.8341 26.7986 49.7425 22.5165C50.6685 20.4423 51.1033 18.2735 50.7908 15.995L50.7927 15.9969Z" fill="#C69C6D"/>
<path d="M18.4239 18.3344C18.2884 17.3168 18.136 16.2713 18.0117 15.2259C17.4339 10.4146 18.0607 5.81866 20.5262 1.54773C20.6654 1.30633 20.7257 0.959083 20.6767 0.687971C20.5676 0.0788985 19.9333 -0.155075 19.1918 0.104895C16.6774 0.986937 14.7991 2.67303 13.2558 4.7565C11.0914 7.68116 9.87373 10.9921 9.25266 14.5351C9.12468 15.2649 9.04939 16.0058 8.96094 16.6538C10.6473 16.8321 12.2282 16.9101 13.7734 17.1849C15.3355 17.4635 16.8618 17.9407 18.4239 18.3344Z" fill="#C69C6D"/>
<path d="M21.3838 17.0989C24.2464 14.0629 27.5042 11.8494 31.2081 10.2413C30.3254 7.01768 28.976 4.12087 26.5236 1.8257C25.178 0.566706 23.7043 0.620557 22.4264 1.95198C21.5023 2.91386 20.9151 4.08559 20.8681 5.38172C20.7815 7.68989 20.8116 10.0055 20.9001 12.3155C20.9603 13.8586 21.205 15.3961 21.3856 17.1008L21.3838 17.0989Z" fill="#C69C6D"/>
</svg>
