<svg width="58" height="79" viewBox="0 0 58 79" fill="none" xmlns="http://www.w3.org/2000/svg">
<path d="M28.7168 0C35.0427 0 41.3664 0 47.6922 0C49.1459 0 49.629 0.393871 49.5267 1.81703C49.2982 4.96581 49.9314 7.94487 50.8889 10.9217C52.7712 16.7645 54.3902 22.6791 55.4652 28.7373C56.7034 35.716 57.354 42.7426 57.3606 49.8279C57.3671 56.9807 57.3606 64.1356 57.3606 71.2884C57.3606 72.6288 57.0842 72.9857 55.7698 73.1642C50.1534 73.9236 44.5326 74.6635 38.9139 75.4142C33.4846 76.141 28.0553 76.8744 22.6238 77.6055C20.8503 77.8449 19.0768 78.0973 17.2989 78.3041C16.9399 78.3454 16.5417 78.2627 16.1891 78.1452C11.2255 76.4979 6.26839 74.8332 1.3091 73.1729C0.234118 72.8138 0.0230386 72.5244 0.0230386 71.4037C0.0230386 63.5981 -0.0422438 55.7903 0.0469755 47.9847C0.181892 36.2731 2.13601 24.8443 5.6395 13.6767C6.16829 11.9924 6.56216 10.2624 7.19105 8.61728C8.02666 6.42814 7.81558 4.18025 7.83952 1.93671C7.85693 0.363405 8.20075 0 9.74141 0C16.0673 0 22.391 0 28.7168 0ZM17.4817 36.5016C29.5242 35.296 41.4687 34.0992 53.5089 32.8936C53.3022 31.6141 53.1172 30.4129 52.9105 29.2139C51.6853 22.1024 49.4919 15.2456 47.442 8.35179C47.294 7.85347 47.0155 7.82736 46.6064 7.82954C44.1909 7.84042 41.7755 7.83389 39.36 7.83389C38.6136 7.83389 37.8651 7.83389 37.0512 7.83389C37.1665 8.22341 37.2427 8.50847 37.3363 8.78919C38.3177 11.753 39.31 14.7125 40.2827 17.6785C40.6309 18.7426 40.1717 19.4781 39.088 19.5891C34.8795 20.0265 30.6688 20.4508 26.4581 20.8664C25.4962 20.9622 25.0675 20.6554 24.7759 19.7153C24.3364 18.2878 23.912 16.8581 23.4834 15.4262C22.7283 12.9063 21.9732 10.3864 21.2137 7.86H10.8751C13.852 17.2106 16.496 26.583 17.4817 36.4994V36.5016ZM18.363 65.0844C30.4947 63.4632 42.6024 61.8442 54.7514 60.223C54.7319 51.9496 55.006 43.7457 53.8331 35.4897C41.8081 36.6952 29.8201 37.8943 18.0388 39.0759C18.1476 47.7911 18.2564 56.3975 18.363 65.0866V65.0844ZM18.313 75.5361C30.4729 73.9106 42.5828 72.2937 54.7123 70.6725V62.8604C42.5523 64.486 30.4425 66.1028 18.313 67.724V75.5361ZM15.5058 72.4787C15.5581 72.4548 15.6103 72.4308 15.6625 72.4069C15.6625 72.2176 15.6625 72.0282 15.6625 71.8389C15.6625 64.4446 15.6712 57.0503 15.6603 49.656C15.6451 40.2379 14.4961 30.9591 12.2243 21.8217C11.7303 19.835 11.1559 17.8656 10.6205 15.8897C10.564 15.9006 10.5074 15.9093 10.453 15.9202C10.453 16.2096 10.453 16.499 10.453 16.7863C10.453 31.712 10.4987 46.6377 10.4051 61.5613C10.3899 63.9049 10.8425 65.8721 12.294 67.7109C13.4777 69.2102 14.4439 70.8836 15.508 72.4787H15.5058ZM7.84387 15.9594C7.8047 15.9398 7.76553 15.9224 7.72854 15.9028C7.67414 16.0486 7.60885 16.19 7.56316 16.3402C4.45789 26.7353 2.77143 37.3546 2.65174 48.2067C2.57776 54.8677 2.63216 61.5287 2.63216 68.1896C2.63216 68.4138 2.66262 68.6401 2.68656 68.9774C4.25987 67.663 5.71784 66.4074 7.21933 65.2084C7.6959 64.8276 7.85475 64.4359 7.85257 63.8353C7.83734 48.1197 7.83952 32.4062 7.83952 16.6905V15.9594H7.84387ZM23.9316 7.83389C24.9413 11.2025 25.9119 14.4753 26.9216 17.7394C26.976 17.9178 27.3546 18.1137 27.5722 18.1006C28.7364 18.0288 29.8963 17.9004 31.0561 17.7829C33.1321 17.574 35.2059 17.3586 37.3624 17.1366C36.3549 14.1053 35.3822 11.1459 34.3681 8.20164C34.3072 8.02321 33.922 7.85347 33.687 7.8513C31.7329 7.82301 29.7788 7.83606 27.8246 7.83606C26.5582 7.83606 25.2895 7.83606 23.9338 7.83606L23.9316 7.83389ZM3.96609 71.3145C7.23021 72.4004 10.3529 73.4405 13.4734 74.4785C13.506 74.4154 13.5387 74.3523 13.5713 74.2892C12.0154 71.9521 10.4595 69.615 8.86445 67.2191C7.22804 68.5857 5.65473 69.9 3.96392 71.3145H3.96609ZM20.8111 5.19213V2.65047H10.5009V5.19213H20.8111ZM23.5182 5.16601H33.8393V2.65264H23.5182V5.16601ZM36.5507 5.17907H46.8827V2.67005H36.5507V5.17907Z" fill="#656565"/>
<path d="M37.2768 53.4077C35.8058 55.8949 33.7407 57.5139 31.0576 58.3213C29.4168 58.8152 27.7608 58.9262 26.0874 58.4562C22.5796 57.4704 20.8278 54.2542 21.9094 50.7703C23.3282 46.1961 28.9185 43.0365 33.5405 44.2921C34.6329 44.588 35.6252 45.2495 36.6849 45.7522C37.5945 43.6654 39.1918 42.1486 41.7052 42.0768C42.828 42.0442 44.0466 42.2944 45.0781 42.747C49.2627 44.588 51.7195 49.8519 50.5292 54.1497C49.5434 57.7032 46.288 59.4528 42.7867 58.293C40.5758 57.5596 38.9676 56.0777 37.7447 54.1345C37.6054 53.9125 37.4618 53.6906 37.279 53.4077H37.2768ZM35.475 50.594C35.0355 50.8377 34.7069 51.0205 34.3783 51.2011C32.7919 52.0781 31.1076 52.3523 29.3494 51.8996C27.8914 51.5232 26.5814 51.7582 25.304 52.5372C24.1028 53.2706 23.9418 53.7732 24.9472 54.7938C25.4564 55.3096 26.1679 55.7752 26.8599 55.9189C27.7869 56.1125 28.8097 56.1147 29.7454 55.9471C32.5439 55.4467 34.9745 53.1705 35.475 50.5918V50.594ZM43.0739 44.5837C43.0086 44.6685 42.9433 44.7534 42.8781 44.8383C43.124 45.3192 43.3807 45.7957 43.6114 46.2854C44.2468 47.6323 44.5014 49.086 44.0923 50.4917C43.5505 52.3544 43.9269 53.9517 44.9083 55.5293C45.1869 55.9754 45.4371 56.0581 45.8876 55.8949C47.1366 55.4423 47.8199 54.4957 48.0593 53.2553C48.6077 50.4156 47.6241 48.0523 45.5525 46.157C44.8409 45.5063 43.9052 45.1016 43.0717 44.5837H43.0739ZM41.3396 54.3042C41.3396 53.1835 41.1002 51.9954 41.3896 50.9552C41.9902 48.8074 41.3004 47.0861 40.1362 45.404C37.7577 47.1558 38.7305 52.4045 41.3396 54.3042ZM25.8067 49.2709C27.034 49.2709 28.3136 49.049 29.4799 49.3188C31.5603 49.7997 33.1662 49.0381 34.7613 47.9196C32.7593 45.7109 27.8827 46.4986 25.8045 49.2688L25.8067 49.2709Z" fill="#A67C52"/>
</svg>
